<svg width="95" height="42" viewBox="0 0 95 42" fill="none" xmlns="http://www.w3.org/2000/svg">
<g clip-path="url(#clip0_5_9843)">
<mask id="mask0_5_9843" style="mask-type:luminance" maskUnits="userSpaceOnUse" x="0" y="0" width="95" height="42">
<path d="M94.7183 0.203125H0.421875V41.7933H94.7183V0.203125Z" fill="white"/>
</mask>
<g mask="url(#mask0_5_9843)">
<mask id="mask1_5_9843" style="mask-type:luminance" maskUnits="userSpaceOnUse" x="0" y="0" width="95" height="42">
<path d="M94.7183 0.195312H0.421875V41.7855H94.7183V0.195312Z" fill="white"/>
</mask>
<g mask="url(#mask1_5_9843)">
<path d="M26.7907 29.1679C26.4204 29.1679 26.1242 29.3135 25.9267 29.5804C25.7293 29.8473 25.6305 30.2356 25.6305 30.7209C25.6305 31.74 26.0255 32.2496 26.7907 32.2496C27.1116 32.2496 27.5066 32.1768 27.9756 32.0069V32.8077C27.6053 32.9533 27.161 33.0503 26.692 33.0503C26.0255 33.0503 25.5071 32.8562 25.1368 32.4437C24.7912 32.0312 24.5938 31.4731 24.5938 30.7209C24.5938 30.2599 24.6925 29.8231 24.8653 29.4834C25.0381 29.1194 25.2849 28.8525 25.6305 28.6584C25.9514 28.4643 26.3464 28.3672 26.7907 28.3672C27.235 28.3672 27.7041 28.4642 28.1484 28.6826L27.8275 29.4834C27.6547 29.4106 27.4819 29.3378 27.3091 29.265C27.1363 29.1922 26.9635 29.1679 26.7907 29.1679Z" fill="white"/>
</g>
<mask id="mask2_5_9843" style="mask-type:luminance" maskUnits="userSpaceOnUse" x="0" y="0" width="95" height="42">
<path d="M94.7183 0.195312H0.421875V41.7855H94.7183V0.195312Z" fill="white"/>
</mask>
<g mask="url(#mask2_5_9843)">
<path d="M41.2686 28.4375H40.2812V32.975H41.2686V28.4375Z" fill="white"/>
</g>
<mask id="mask3_5_9843" style="mask-type:luminance" maskUnits="userSpaceOnUse" x="0" y="0" width="95" height="42">
<path d="M94.7183 0.195312H0.421875V41.7855H94.7183V0.195312Z" fill="white"/>
</mask>
<g mask="url(#mask3_5_9843)">
<path d="M55.5666 32.975H54.5792V29.2382H53.3203V28.4375H56.8256V29.2382H55.5666V32.975Z" fill="white"/>
</g>
<mask id="mask4_5_9843" style="mask-type:luminance" maskUnits="userSpaceOnUse" x="0" y="0" width="95" height="42">
<path d="M94.7183 0.195312H0.421875V41.7855H94.7183V0.195312Z" fill="white"/>
</mask>
<g mask="url(#mask4_5_9843)">
<path d="M70.3289 30.3059L71.2916 28.4375H72.353L70.7979 31.2037V32.975H69.8352V31.2522L68.3047 28.4375H69.3661L70.3289 30.3059Z" fill="white"/>
</g>
<mask id="mask5_5_9843" style="mask-type:luminance" maskUnits="userSpaceOnUse" x="0" y="0" width="95" height="42">
<path d="M94.7183 0.195312H0.421875V41.7855H94.7183V0.195312Z" fill="white"/>
</mask>
<g mask="url(#mask5_5_9843)">
<path d="M72.5716 16.3519C72.2014 16.3519 71.8558 16.3519 71.4855 16.3519C71.288 16.3519 71.2633 16.3519 71.2386 16.1578C71.1893 15.7453 71.0905 15.3328 70.9177 14.9445C70.4981 14.0467 69.7575 13.5372 68.7455 13.4158C68.1777 13.343 67.6346 13.3916 67.0916 13.5614C66.3017 13.8041 65.7833 14.3136 65.4377 15.0416C65.2896 15.3813 65.1908 15.7453 65.1415 16.1092C65.1415 16.1578 65.1415 16.182 65.1415 16.2306C65.1415 16.3034 65.0921 16.3276 65.018 16.3519C64.9687 16.3519 64.9193 16.3519 64.8699 16.3519C64.1788 16.3519 63.4629 16.3519 62.7717 16.3519C62.7223 16.3519 62.673 16.3519 62.6236 16.3519C62.5496 16.3519 62.5249 16.3034 62.5002 16.2548C62.4755 16.1092 62.4508 15.9879 62.4261 15.8423C62.3274 15.3813 62.1546 14.9445 61.8584 14.5563C61.3647 13.8283 60.6488 13.4644 59.7602 13.4158C59.3899 13.3916 58.9949 13.4158 58.6246 13.5129C57.6619 13.7313 57.0201 14.3136 56.6499 15.2114C56.5264 15.5269 56.4277 15.8423 56.403 16.182C56.3783 16.4004 56.3783 16.4004 56.1315 16.4004C55.465 16.4004 54.7985 16.4004 54.1567 16.4004C54.0826 16.4004 54.0086 16.4004 53.9098 16.4004C53.7864 16.4004 53.7617 16.3762 53.7617 16.2306C53.7864 16.085 53.7864 15.9394 53.8111 15.7938C53.9839 14.8475 54.3048 13.9497 54.8479 13.1489C55.6625 11.9599 56.7733 11.232 58.205 10.9651C58.6493 10.8923 59.0937 10.8438 59.538 10.8438C60.6488 10.8438 61.6362 11.2077 62.5002 11.8871C62.8951 12.2026 63.2407 12.5666 63.5616 12.9548C63.611 13.0276 63.6604 13.1004 63.7344 13.1732C63.7838 13.2217 63.8085 13.2217 63.8579 13.1732C63.9319 13.1004 63.9813 13.0276 64.0553 12.9548C64.3762 12.5666 64.7465 12.2026 65.1662 11.8871C66.0548 11.232 67.0422 10.8923 68.153 10.868C68.8442 10.8438 69.5354 10.9408 70.2019 11.1592C71.3127 11.5232 72.152 12.2026 72.7938 13.1732C73.2875 13.9497 73.6084 14.7989 73.7812 15.6967C73.8059 15.8666 73.8306 16.0365 73.8552 16.2306C73.8799 16.4247 73.8799 16.4247 73.6578 16.449C73.4356 16.449 73.2381 16.449 73.016 16.449H72.5716V16.3519Z" fill="white"/>
</g>
<mask id="mask6_5_9843" style="mask-type:luminance" maskUnits="userSpaceOnUse" x="0" y="0" width="95" height="42">
<path d="M94.7183 0.195312H0.421875V41.7855H94.7183V0.195312Z" fill="white"/>
</mask>
<g mask="url(#mask6_5_9843)">
<path d="M21.1606 17.0647C21.5308 17.0647 21.9258 17.0647 22.2961 17.0647C22.4442 17.0647 22.4442 17.0889 22.4689 17.2102C22.4689 17.4286 22.4689 17.6228 22.4689 17.8411C22.4936 18.3022 22.5676 18.7389 22.7404 19.1514C23.0613 19.9037 23.555 20.5345 24.2956 20.9228C24.7399 21.1654 25.2336 21.311 25.752 21.3596C26.3691 21.4081 26.9615 21.4081 27.5786 21.2625C28.9857 20.9228 29.8743 20.0492 30.3187 18.7147C30.4174 18.4478 30.4174 18.2051 30.4421 17.8654C30.4421 17.647 30.4421 17.4044 30.4421 17.186C30.4421 17.0889 30.4668 17.0647 30.5655 17.0647C31.3554 17.0647 32.1454 17.0647 32.9353 17.0647C33.034 17.0647 33.0587 17.0889 33.0587 17.186C33.0834 17.9382 33.0587 18.6904 32.8612 19.4426C32.6391 20.2676 32.2688 21.0441 31.7504 21.7478C31.0345 22.6456 30.1212 23.2765 29.0104 23.6162C28.2945 23.8346 27.554 23.9559 26.7887 23.9802C25.9988 24.0044 25.2336 23.9316 24.4683 23.7618C22.5676 23.2765 21.2346 22.136 20.4447 20.389C20.1485 19.7338 19.9757 19.0786 19.9016 18.375C19.877 17.9867 19.9016 17.5985 19.877 17.186C19.877 17.1132 19.9263 17.0889 20.0004 17.0889C20.1732 17.0889 20.3707 17.0889 20.5434 17.0889C20.7162 17.0404 20.9384 17.0647 21.1606 17.0647Z" fill="white"/>
</g>
<mask id="mask7_5_9843" style="mask-type:luminance" maskUnits="userSpaceOnUse" x="0" y="0" width="95" height="42">
<path d="M94.7183 0.195312H0.421875V41.7855H94.7183V0.195312Z" fill="white"/>
</mask>
<g mask="url(#mask7_5_9843)">
<path d="M30.4275 16.3367C30.3782 16.2639 30.3782 16.1911 30.3535 16.094C30.1066 14.905 29.4155 14.1043 28.2553 13.6675C27.7863 13.4977 27.3172 13.4006 26.8235 13.3763C26.1817 13.3521 25.5152 13.3763 24.8981 13.5462C24.0588 13.7889 23.3923 14.2256 22.9233 14.9536C22.6765 15.3175 22.5531 15.73 22.4543 16.1668C22.4296 16.3124 22.4296 16.3124 22.2815 16.3124C21.5163 16.3124 20.7511 16.3124 19.9611 16.3124C19.813 16.3124 19.7883 16.2881 19.813 16.1668C19.8377 15.9727 19.8624 15.8028 19.9118 15.6087C20.1092 14.7109 20.4795 13.8859 21.0226 13.158C21.7878 12.1146 22.8246 11.4351 24.0835 11.0712C24.7006 10.9013 25.3178 10.8043 25.9349 10.78C26.7989 10.7315 27.6381 10.8043 28.4774 11.0226C29.5883 11.2896 30.551 11.8234 31.3162 12.6484C31.958 13.3278 32.4023 14.1528 32.6986 15.0506C32.7973 15.3418 32.8714 15.633 32.9207 15.9484C32.9454 16.0455 32.9454 16.1183 32.9454 16.2153C32.9454 16.3367 32.9207 16.3609 32.7973 16.3609C32.4764 16.3609 32.1555 16.3609 31.8346 16.3609C31.4149 16.3609 30.9953 16.3609 30.5757 16.3609C30.551 16.3609 30.5016 16.3367 30.4275 16.3367Z" fill="white"/>
</g>
<mask id="mask8_5_9843" style="mask-type:luminance" maskUnits="userSpaceOnUse" x="0" y="0" width="95" height="42">
<path d="M94.7183 0.195312H0.421875V41.7855H94.7183V0.195312Z" fill="white"/>
</mask>
<g mask="url(#mask8_5_9843)">
<path d="M9.33095 10.8711C10.0468 10.8711 10.7627 10.8711 11.5032 10.8711C11.9969 10.8711 12.4659 10.9196 12.935 11.0652C13.7742 11.2836 14.5642 11.6476 15.2553 12.1814C16.2427 12.9579 16.8599 13.9527 17.082 15.166C17.1314 15.4329 17.1561 15.6998 17.1808 15.991C17.1808 16.0638 17.1808 16.1366 17.1808 16.1851C17.1808 16.3307 17.1561 16.355 17.008 16.355C16.9833 16.355 16.9586 16.355 16.9092 16.355C16.2181 16.355 15.5022 16.355 14.811 16.355C14.7616 16.355 14.7123 16.355 14.6629 16.355C14.5888 16.355 14.5395 16.3064 14.5395 16.2579C14.5395 16.0638 14.5148 15.8697 14.4654 15.6756C14.3914 15.2388 14.2186 14.8263 13.947 14.4623C13.5274 13.9042 12.935 13.613 12.2685 13.4674C12.0216 13.4189 11.7994 13.3946 11.5526 13.3946C10.812 13.3946 10.0962 13.3946 9.35564 13.3946C9.30627 13.3946 9.2569 13.3946 9.20753 13.3946C9.15816 13.3946 9.10879 13.4432 9.10879 13.4917C9.10879 13.5645 9.10879 13.6373 9.10879 13.7344C9.10879 14.5108 9.10879 15.3116 9.10879 16.0881C9.10879 16.355 9.10879 16.355 8.83726 16.355C8.14608 16.355 7.43021 16.355 6.73904 16.355C6.68967 16.355 6.61561 16.355 6.56624 16.355C6.51687 16.355 6.49219 16.3307 6.49219 16.2822C6.49219 16.2094 6.49219 16.1366 6.49219 16.0881C6.49219 14.4623 6.49219 12.8123 6.49219 11.1865C6.49219 10.8711 6.49219 10.8954 6.81309 10.8954C7.65238 10.8711 8.49167 10.8711 9.33095 10.8711Z" fill="white"/>
</g>
<mask id="mask9_5_9843" style="mask-type:luminance" maskUnits="userSpaceOnUse" x="0" y="0" width="95" height="42">
<path d="M94.7183 0.195312H0.421875V41.7855H94.7183V0.195312Z" fill="white"/>
</mask>
<g mask="url(#mask9_5_9843)">
<path d="M40.024 23.9744C38.8144 23.9744 37.5802 23.9744 36.3706 23.9744C36.2719 23.9744 36.1978 23.9744 36.0991 23.9744C36.0497 23.9744 36.0003 23.9502 36.0003 23.8774C36.0003 23.8046 36.0003 23.7318 36.0003 23.6833C36.0003 21.5965 36.0003 19.4854 36.0003 17.3986C36.0003 17.0347 35.9757 17.0589 36.3459 17.0589C36.9877 17.0589 37.6542 17.0589 38.296 17.0589C38.3701 17.0589 38.4441 17.0589 38.5182 17.0589C38.5676 17.0589 38.6169 17.0832 38.6169 17.156C38.6169 17.253 38.6169 17.3501 38.6169 17.4472C38.6169 18.6362 38.6169 19.8494 38.6169 21.0384C38.6169 21.4024 38.5923 21.3781 38.9625 21.3781C40.5671 21.3781 42.1963 21.3781 43.8008 21.3781C44.1711 21.3781 44.1464 21.3538 44.1464 21.7178C44.1464 22.3487 44.1464 23.0038 44.1464 23.6347C44.1464 23.7075 44.1464 23.7803 44.1464 23.8774C44.1464 23.9259 44.097 23.9744 44.0476 23.9744C43.9489 23.9744 43.8748 23.9744 43.7761 23.9744C42.5172 23.9744 41.2582 23.9744 40.024 23.9744Z" fill="white"/>
</g>
<mask id="mask10_5_9843" style="mask-type:luminance" maskUnits="userSpaceOnUse" x="0" y="0" width="95" height="42">
<path d="M94.7183 0.195312H0.421875V41.7855H94.7183V0.195312Z" fill="white"/>
</mask>
<g mask="url(#mask10_5_9843)">
<path d="M87.1017 10.8047C88.4346 10.8047 89.7676 10.8047 91.1006 10.8047C91.1994 10.8047 91.2734 10.8047 91.3721 10.8047C91.4215 10.8047 91.4709 10.829 91.4709 10.9017C91.4709 10.9503 91.4709 11.0231 91.4709 11.0716C91.4709 11.751 91.4709 12.4304 91.4709 13.1099C91.4709 13.1584 91.4709 13.2312 91.4709 13.2797C91.4709 13.3282 91.4215 13.3768 91.3721 13.3768C91.2981 13.3768 91.224 13.3768 91.1253 13.3768C90.3354 13.3768 89.5208 13.3768 88.7309 13.3768C88.4593 13.3768 88.4593 13.3768 88.4593 13.6437C88.4593 14.4202 88.4593 15.1966 88.4593 15.9731C88.4593 16.0459 88.4593 16.1187 88.4593 16.2158C88.4593 16.3371 88.4346 16.3614 88.3112 16.3614C87.8175 16.3614 87.2991 16.3614 86.8054 16.3614C86.5339 16.3614 86.2377 16.3614 85.9661 16.3614C85.8921 16.3614 85.8427 16.3371 85.8427 16.2643C85.8427 16.1672 85.8427 16.0944 85.8427 15.9974C85.8427 15.2694 85.8427 14.5415 85.8427 13.8135C85.8427 13.7407 85.8427 13.668 85.8427 13.5952C85.8427 13.401 85.818 13.401 85.6452 13.401C84.8306 13.401 83.9914 13.401 83.1768 13.401C82.6831 13.401 82.7571 13.4738 82.7324 12.9885C82.7324 12.3819 82.7324 11.7753 82.7324 11.1687C82.7324 11.0959 82.7324 11.0231 82.7324 10.926C82.7324 10.8775 82.7818 10.829 82.8312 10.829C82.9299 10.829 83.004 10.829 83.1027 10.829C84.4357 10.8047 85.7687 10.8047 87.1017 10.8047Z" fill="white"/>
</g>
<mask id="mask11_5_9843" style="mask-type:luminance" maskUnits="userSpaceOnUse" x="0" y="0" width="95" height="42">
<path d="M94.7183 0.195312H0.421875V41.7855H94.7183V0.195312Z" fill="white"/>
</mask>
<g mask="url(#mask11_5_9843)">
<path d="M77.1067 20.4981C77.1067 19.4304 77.1067 18.3627 77.1067 17.2708C77.1067 17.0039 77.082 17.0039 77.3783 17.0039C78.0694 17.0039 78.7853 17.0039 79.4765 17.0039C79.5258 17.0039 79.5752 17.0039 79.6246 17.0039C79.6986 17.0039 79.7233 17.0524 79.7233 17.1252C79.7233 17.1738 79.7233 17.2466 79.7233 17.2951C79.7233 19.4304 79.7233 21.5415 79.7233 23.6768V23.701C79.7233 23.9194 79.7233 23.9194 79.4765 23.9194C78.7606 23.9194 78.0447 23.9194 77.3042 23.9194C77.2795 23.9194 77.2548 23.9194 77.2055 23.9194C77.082 23.9194 77.082 23.8952 77.082 23.7738C77.082 23.701 77.082 23.6282 77.082 23.5312L77.1067 20.4981Z" fill="white"/>
</g>
<mask id="mask12_5_9843" style="mask-type:luminance" maskUnits="userSpaceOnUse" x="0" y="0" width="95" height="42">
<path d="M94.7183 0.195312H0.421875V41.7855H94.7183V0.195312Z" fill="white"/>
</mask>
<g mask="url(#mask12_5_9843)">
<path d="M71.2739 20.5042C71.2739 19.4366 71.2739 18.3689 71.2739 17.3255C71.2739 17.0586 71.2493 17.0586 71.5455 17.0586C72.2367 17.0586 72.9031 17.0586 73.5943 17.0586C73.6684 17.0586 73.7424 17.0586 73.7918 17.0586C73.8412 17.0586 73.8659 17.0829 73.8659 17.1314C73.8659 17.2284 73.8659 17.3012 73.8659 17.3983C73.8659 19.0726 73.8659 20.7711 73.8659 22.4454C73.8659 22.8579 73.8659 23.2947 73.8659 23.7072C73.8659 23.7557 73.8659 23.8043 73.8659 23.8528C73.8659 23.9498 73.8412 23.9741 73.7424 23.9741C73.6931 23.9741 73.6684 23.9741 73.619 23.9741C72.9278 23.9741 72.212 23.9741 71.5208 23.9741C71.4714 23.9741 71.3974 23.9741 71.348 23.9741C71.2986 23.9741 71.2739 23.9498 71.2739 23.9013C71.2739 23.8043 71.2739 23.7315 71.2739 23.6344C71.2739 22.5667 71.2739 21.5233 71.2739 20.5042Z" fill="white"/>
</g>
<mask id="mask13_5_9843" style="mask-type:luminance" maskUnits="userSpaceOnUse" x="0" y="0" width="95" height="42">
<path d="M94.7183 0.195312H0.421875V41.7855H94.7183V0.195312Z" fill="white"/>
</mask>
<g mask="url(#mask13_5_9843)">
<path d="M65.1112 20.5011C65.1112 21.5445 65.1112 22.6122 65.1112 23.6556C65.1112 23.971 65.1359 23.9468 64.815 23.9468C64.1238 23.9468 63.4326 23.9468 62.7414 23.9468C62.6921 23.9468 62.618 23.9468 62.5686 23.9468C62.5193 23.9468 62.4946 23.9225 62.4946 23.874C62.4946 23.8254 62.4946 23.7526 62.4946 23.7041C62.4946 21.5688 62.4946 19.4577 62.4946 17.3224C62.4946 17.0313 62.4699 17.0312 62.7908 17.0312C63.482 17.0312 64.1732 17.0312 64.8643 17.0312C64.9137 17.0312 64.9878 17.0312 65.0371 17.0312C65.0865 17.0312 65.1112 17.0555 65.1112 17.104C65.1112 17.2011 65.1112 17.2739 65.1112 17.371C65.1112 18.4144 65.1112 19.4577 65.1112 20.5011Z" fill="white"/>
</g>
<mask id="mask14_5_9843" style="mask-type:luminance" maskUnits="userSpaceOnUse" x="0" y="0" width="95" height="42">
<path d="M94.7183 0.195312H0.421875V41.7855H94.7183V0.195312Z" fill="white"/>
</mask>
<g mask="url(#mask14_5_9843)">
<path d="M47.543 20.5011C47.543 19.4577 47.543 18.4386 47.543 17.3952C47.543 17.3467 47.543 17.2982 47.543 17.2496C47.543 17.0313 47.543 17.0312 47.7898 17.0312C48.5057 17.0312 49.2215 17.0312 49.9621 17.0312C50.0115 17.0312 50.0361 17.0312 50.0855 17.0312C50.1596 17.0312 50.1843 17.0798 50.1843 17.1526C50.1843 17.2011 50.1843 17.2496 50.1843 17.2982C50.1843 19.4335 50.1843 21.5688 50.1843 23.7041C50.1843 23.7284 50.1843 23.7526 50.1843 23.8012C50.1843 23.9468 50.1596 23.971 50.0115 23.971C49.2462 23.971 48.481 23.971 47.7404 23.971H47.7158C47.617 23.971 47.5923 23.9468 47.5923 23.8254C47.5923 23.7526 47.5923 23.6798 47.5923 23.5828C47.543 22.5637 47.543 21.5445 47.543 20.5011Z" fill="white"/>
</g>
<mask id="mask15_5_9843" style="mask-type:luminance" maskUnits="userSpaceOnUse" x="0" y="0" width="95" height="42">
<path d="M94.7183 0.195312H0.421875V41.7855H94.7183V0.195312Z" fill="white"/>
</mask>
<g mask="url(#mask15_5_9843)">
<path d="M9.10879 23.8254C9.03474 23.874 8.98537 23.874 8.91131 23.874C8.19545 23.874 7.47958 23.874 6.73904 23.874C6.68967 23.874 6.66498 23.874 6.61561 23.874C6.54156 23.874 6.49219 23.8497 6.49219 23.7769C6.49219 23.7041 6.49219 23.6313 6.49219 23.5585C6.49219 21.5203 6.49219 19.482 6.49219 17.4438C6.49219 17.3467 6.49219 17.2739 6.49219 17.1768C6.49219 17.0555 6.51687 17.0555 6.6403 17.0312C6.68967 17.0312 6.73904 17.0312 6.78841 17.0312C7.4549 17.0312 8.12139 17.0312 8.81257 17.0312C8.88663 17.0312 8.96068 17.0312 9.01005 17.0312C9.05942 17.0312 9.10879 17.0555 9.10879 17.1283C9.10879 17.2011 9.10879 17.2739 9.10879 17.371C9.10879 19.4335 9.10879 21.496 9.10879 23.5585C9.13348 23.6556 9.15816 23.7526 9.10879 23.8254Z" fill="white"/>
</g>
<mask id="mask16_5_9843" style="mask-type:luminance" maskUnits="userSpaceOnUse" x="0" y="0" width="95" height="42">
<path d="M94.7183 0.195312H0.421875V41.7855H94.7183V0.195312Z" fill="white"/>
</mask>
<g mask="url(#mask16_5_9843)">
<path d="M17.1713 20.5603C17.1713 21.5795 17.1713 22.5743 17.1713 23.5934C17.1713 23.6662 17.1713 23.739 17.1713 23.8118C17.1713 23.9574 17.1466 23.9817 16.9985 23.9817C16.2333 23.9817 15.468 23.9817 14.7275 23.9817C14.7028 23.9817 14.6781 23.9817 14.6287 23.9817C14.5794 23.9817 14.5547 23.9332 14.5547 23.9089C14.5547 23.8361 14.5547 23.7633 14.5547 23.7148C14.5547 21.6523 14.5547 19.5655 14.5547 17.5029C14.5547 17.4787 14.5547 17.4544 14.5547 17.4544C14.5547 17.1875 14.5547 17.1875 14.8262 17.1875C15.5174 17.1875 16.2333 17.1875 16.9244 17.1875C16.9738 17.1875 16.9985 17.1875 17.0479 17.1875C17.1466 17.1875 17.1713 17.2118 17.196 17.3331C17.196 17.4301 17.196 17.5029 17.196 17.6C17.1713 18.5463 17.1713 19.5655 17.1713 20.5603Z" fill="white"/>
</g>
<mask id="mask17_5_9843" style="mask-type:luminance" maskUnits="userSpaceOnUse" x="0" y="0" width="95" height="42">
<path d="M94.7183 0.195312H0.421875V41.7855H94.7183V0.195312Z" fill="white"/>
</mask>
<g mask="url(#mask17_5_9843)">
<path d="M53.7747 20.5011C53.7747 19.4577 53.7747 18.4386 53.7747 17.3952C53.7747 17.2982 53.7747 17.2254 53.7747 17.1283C53.7747 17.0798 53.7994 17.0312 53.8734 17.0312C53.9228 17.0312 53.9722 17.0312 54.0215 17.0312C54.7127 17.0312 55.4286 17.0312 56.1198 17.0312C56.1691 17.0312 56.1938 17.0312 56.2432 17.0312C56.3419 17.0312 56.3666 17.0555 56.3666 17.1526C56.3666 17.2254 56.3666 17.2982 56.3666 17.371C56.3666 19.482 56.3666 21.5931 56.3666 23.6798C56.3666 23.7284 56.3666 23.8012 56.3666 23.8497C56.3666 23.8982 56.3419 23.9468 56.2679 23.9468C56.2185 23.9468 56.1938 23.9468 56.1444 23.9468C55.4286 23.9468 54.7127 23.9468 53.9722 23.9468C53.9475 23.9468 53.9228 23.9468 53.9228 23.9468C53.7747 23.9468 53.7747 23.9225 53.75 23.8012C53.75 23.7284 53.75 23.6556 53.75 23.5585C53.7747 22.5637 53.7747 21.5445 53.7747 20.5011Z" fill="white"/>
</g>
<mask id="mask18_5_9843" style="mask-type:luminance" maskUnits="userSpaceOnUse" x="0" y="0" width="95" height="42">
<path d="M94.7183 0.195312H0.421875V41.7855H94.7183V0.195312Z" fill="white"/>
</mask>
<g mask="url(#mask18_5_9843)">
<path d="M88.4446 20.5514V23.6816C88.4446 23.9971 88.4692 23.9728 88.1483 23.9728C87.4572 23.9728 86.7907 23.9728 86.0995 23.9728C86.0501 23.9728 85.9761 23.9728 85.9267 23.9728C85.8773 23.9728 85.828 23.9243 85.828 23.8757C85.828 23.8029 85.828 23.7301 85.828 23.6573C85.828 21.5706 85.828 19.4838 85.828 17.397C85.828 16.9845 85.7786 17.033 86.1982 17.033C86.84 17.033 87.4572 17.033 88.099 17.033C88.173 17.033 88.2471 17.033 88.3458 17.033C88.3952 17.033 88.4446 17.0815 88.4446 17.1301C88.4446 17.2271 88.4446 17.2999 88.4446 17.397C88.4446 18.4646 88.4446 19.508 88.4446 20.5514Z" fill="white"/>
</g>
<mask id="mask19_5_9843" style="mask-type:luminance" maskUnits="userSpaceOnUse" x="0" y="0" width="95" height="42">
<path d="M94.7183 0.195312H0.421875V41.7855H94.7183V0.195312Z" fill="white"/>
</mask>
<g mask="url(#mask19_5_9843)">
<path d="M79.7247 13.5921C79.7247 14.3928 79.7247 15.1936 79.7247 15.9943C79.7247 16.0671 79.7247 16.1399 79.7247 16.2127C79.7247 16.3583 79.7 16.3825 79.5519 16.3825C78.7867 16.3825 78.0215 16.3825 77.2809 16.3825C77.1575 16.3825 77.1328 16.3583 77.1328 16.237C77.1328 16.1884 77.1328 16.1156 77.1328 16.0671V11.1413C77.1328 11.0685 77.1328 10.9957 77.1328 10.9229C77.1328 10.8016 77.1575 10.8016 77.2809 10.7773H77.3056C78.0708 10.7773 78.8361 10.7773 79.5766 10.7773C79.7247 10.7773 79.7247 10.8016 79.7494 10.9229C79.7494 10.9957 79.7494 11.0685 79.7494 11.1413C79.7247 11.9663 79.7247 12.7913 79.7247 13.5921Z" fill="white"/>
</g>
<mask id="mask20_5_9843" style="mask-type:luminance" maskUnits="userSpaceOnUse" x="0" y="0" width="95" height="42">
<path d="M94.7183 0.195312H0.421875V41.7855H94.7183V0.195312Z" fill="white"/>
</mask>
<g mask="url(#mask20_5_9843)">
<path d="M47.543 13.5709C47.543 12.7459 47.543 11.8966 47.543 11.0716C47.543 10.8047 47.543 10.8047 47.8145 10.8047C48.5057 10.8047 49.2215 10.8047 49.9127 10.8047C49.9621 10.8047 50.0361 10.8047 50.0855 10.8047C50.1349 10.8047 50.1596 10.829 50.1596 10.8775C50.1596 10.9503 50.1596 11.0231 50.1596 11.0716C50.1596 12.7216 50.1596 14.3716 50.1596 16.0217C50.1596 16.3128 50.1596 16.3128 49.8634 16.3128C49.1722 16.3128 48.5057 16.3128 47.8145 16.3128C47.7404 16.3128 47.6664 16.3128 47.617 16.3128C47.5677 16.3128 47.543 16.2886 47.543 16.24C47.543 16.1672 47.543 16.0944 47.543 15.9974C47.543 15.2209 47.543 14.3959 47.543 13.5709Z" fill="white"/>
</g>
<mask id="mask21_5_9843" style="mask-type:luminance" maskUnits="userSpaceOnUse" x="0" y="0" width="95" height="42">
<path d="M94.7183 0.195312H0.421875V41.7855H94.7183V0.195312Z" fill="white"/>
</mask>
<g mask="url(#mask21_5_9843)">
<path d="M38.5923 13.5681C38.5923 14.3932 38.5923 15.2424 38.5923 16.0674C38.5923 16.3344 38.5923 16.3344 38.3454 16.3344C37.6542 16.3344 36.9384 16.3344 36.2472 16.3344C36.1978 16.3344 36.1484 16.3344 36.0991 16.3344C36.0497 16.3344 36.0003 16.2858 36.0003 16.2373C36.0003 16.1645 36.0003 16.0917 36.0003 15.9946C36.0003 14.3689 36.0003 12.7431 36.0003 11.1174C36.0003 10.7534 35.9757 10.7777 36.3459 10.7777C37.0124 10.7777 37.6789 10.7777 38.3207 10.7777C38.3701 10.7777 38.4441 10.7777 38.4935 10.7777C38.5676 10.7777 38.5923 10.8262 38.5923 10.899C38.5923 10.9718 38.5923 11.0446 38.5923 11.1417C38.5923 11.9667 38.5923 12.7674 38.5923 13.5681Z" fill="white"/>
</g>
</g>
</g>
<defs>
<clipPath id="clip0_5_9843">
<rect width="94.2964" height="41.5901" fill="white" transform="translate(0.417969 0.207031)"/>
</clipPath>
</defs>
</svg>
