<svg width="84" height="20" viewBox="0 0 84 20" fill="none" xmlns="http://www.w3.org/2000/svg">
<g clip-path="url(#clip0_5_9938)">
<path d="M10.5598 0.0898438C4.89552 0.0898438 0.33136 4.52166 0.33136 10.0444C0.33136 11.0217 0.471796 11.9989 0.776073 12.9308C0.963321 12.6808 1.15057 12.4308 1.31441 12.1353C2.04 11.1126 2.71877 10.0898 3.42095 9.04439L3.93588 8.24894C4.09972 7.99894 4.26356 7.72621 4.42741 7.45348C4.75509 6.93075 5.08277 6.3853 5.38705 5.86257C5.52749 5.58984 5.69133 5.33984 5.85517 5.06712C6.01901 4.79439 6.15945 4.54439 6.29988 4.27166C6.44032 3.99894 6.60416 3.72621 6.72119 3.47621L7.1425 2.65802L7.18931 2.61257C7.39996 2.18075 7.96171 1.99893 8.42983 2.20348C8.75751 2.3853 8.96816 2.72621 8.94476 3.11257C8.94476 3.58984 8.85113 4.06712 8.80432 4.54439C8.75751 5.02166 8.75751 5.49893 8.7107 5.99893C8.66389 6.95348 8.66389 7.95348 8.66389 8.93075C8.66389 9.8853 8.7107 10.8626 8.80432 11.7944C8.85113 12.2489 8.94476 12.7035 9.01498 13.158C9.08519 13.5671 9.22563 13.9535 9.41288 14.3171C9.45969 14.4308 9.55331 14.5217 9.62353 14.6353C9.67034 14.6808 9.64694 14.658 9.67034 14.658C9.69375 14.658 9.69375 14.658 9.71715 14.658L9.76397 14.6353H9.78737L9.83418 14.6126C9.85759 14.5898 9.881 14.5671 9.9044 14.5671C10.0448 14.4535 10.1853 14.3171 10.3257 14.1808C10.63 13.8398 10.9109 13.4762 11.1449 13.1126C11.4024 12.7262 11.6599 12.3171 11.8939 11.8853C12.3854 11.0444 12.8301 10.1808 13.2515 9.31712C13.4621 8.8853 13.6728 8.45348 13.8834 7.99893C14.0941 7.56712 14.3047 7.08984 14.492 6.68075C14.6792 6.22621 15.2176 5.99893 15.6857 6.18075C15.99 6.29439 16.2006 6.54439 16.2474 6.86257C16.2474 6.97621 16.2708 7.11257 16.2942 7.27166L16.341 7.68075C16.3879 7.95348 16.4113 8.22621 16.4815 8.49893C16.5751 9.04439 16.6921 9.58984 16.8326 10.1126C16.973 10.6353 17.1603 11.1808 17.3943 11.6808C17.605 12.1808 17.9092 12.658 18.2603 13.1126C18.3306 13.2262 18.3071 13.3626 18.2135 13.4308C18.1199 13.4989 18.0029 13.4989 17.9092 13.4308C17.4411 13.0217 17.0198 12.5671 16.6687 12.0671C16.3176 11.5671 16.0134 11.0444 15.7325 10.5217C15.5452 10.158 15.4048 9.79439 15.2176 9.43075C15.1005 9.6353 15.0069 9.86257 14.8899 10.0671C14.4452 10.9762 14.0004 11.8398 13.4621 12.7489C13.2046 13.2262 12.9472 13.658 12.6429 14.1126C12.3386 14.5671 12.0109 15.0217 11.6599 15.408C11.4492 15.658 11.2151 15.8398 10.9577 16.0444C10.8875 16.0898 10.8172 16.158 10.7002 16.1808L10.5364 16.2717L10.4427 16.3171H10.4193L10.3725 16.3398H10.3257L10.2555 16.3626C10.2087 16.3853 10.1619 16.408 10.1151 16.408C9.99803 16.4308 9.9044 16.4535 9.78737 16.4535C9.52991 16.4762 9.27244 16.4308 9.06179 16.3626C8.85113 16.2717 8.64048 16.158 8.42983 16.0217C8.14895 15.7717 7.9149 15.4989 7.72765 15.158C7.47018 14.658 7.28293 14.0898 7.1659 13.5444C7.04887 13.0444 6.97866 12.4989 6.90844 11.9989C6.79141 10.9762 6.768 9.97621 6.7446 8.95348C6.7446 8.47621 6.7446 7.99893 6.7446 7.52166C6.55735 7.86257 6.3701 8.22621 6.18285 8.54439C6.04242 8.81712 5.87858 9.08984 5.71473 9.36257L5.24661 10.1808C4.61465 11.2717 3.95929 12.3626 3.25711 13.4308C2.8358 14.1353 2.36768 14.8171 1.92297 15.4989C5.01255 20.0898 11.379 21.3626 16.107 18.3626C20.835 15.3626 22.1457 9.18075 19.0561 4.58984C17.2305 1.77166 14.0239 0.0898438 10.5598 0.0898438Z" fill="url(#paint0_linear_5_9938)"/>
<path d="M29.6844 13.6126V6.99893H29.5206L27.3438 13.6353H26.8055L24.6287 6.99893H24.4415V13.6353H23.5521V6.33984H25.1437L27.0864 12.158L28.9822 6.33984H30.5973V13.658H29.6844V13.6126Z" fill="url(#paint1_linear_5_9938)"/>
<path d="M31.9056 7.27095V6.31641H32.8886V7.27095H31.9056ZM31.929 13.6119V7.9755H32.8886V13.6119H31.929Z" fill="url(#paint2_linear_5_9938)"/>
<path d="M38.694 11.7717C38.694 12.8626 38.2727 13.7035 36.3768 13.7035C34.0128 13.7035 33.8724 12.3853 33.8724 10.7717C33.8724 9.15803 34.0128 7.83984 36.3768 7.83984C38.2493 7.83984 38.694 8.68075 38.694 9.77166H37.7812C37.7812 8.86257 37.4535 8.45348 36.3768 8.45348C34.9022 8.45348 34.832 9.22621 34.832 10.7489C34.832 12.2717 34.9022 13.0444 36.3768 13.0444C37.4769 13.0444 37.7812 12.6126 37.7812 11.7262L38.694 11.7717Z" fill="url(#paint3_linear_5_9938)"/>
<path d="M40.543 8.58807C40.9877 8.31534 41.5729 7.9517 42.1112 7.92898C42.2283 7.90625 42.3219 7.90625 42.4389 7.90625C42.5793 7.90625 42.7198 7.90625 42.8836 7.92898L42.8134 8.6108C42.673 8.58807 42.5325 8.58807 42.3921 8.58807C42.2751 8.58807 42.1814 8.58807 42.041 8.6108C41.5261 8.63352 40.9877 8.99716 40.5898 9.22443V13.6335H39.6302V7.97443H40.3792L40.543 8.58807Z" fill="url(#paint4_linear_5_9938)"/>
<path d="M48.2913 10.8185C48.2913 12.4322 48.1508 13.7504 45.74 13.7504C43.3292 13.7504 43.1888 12.4322 43.1888 10.8185C43.1888 9.2049 43.3292 7.88672 45.74 7.88672C48.1508 7.88672 48.2913 9.2049 48.2913 10.8185ZM44.1718 10.8185C44.1718 12.3413 44.242 13.114 45.74 13.114C47.238 13.114 47.3082 12.364 47.3082 10.8185C47.3082 9.27308 47.238 8.52308 45.74 8.52308C44.242 8.52308 44.1718 9.25036 44.1718 10.8185Z" fill="url(#paint5_linear_5_9938)"/>
<path d="M50.047 14.9308C50.398 14.9762 50.8662 14.9762 51.4045 14.9762C52.8791 14.9762 53.0663 14.5898 53.0663 13.0898C52.645 13.3398 52.0365 13.5898 51.4045 13.6126C49.2746 13.658 49.1575 12.5444 49.1575 10.7717C49.1575 8.99893 49.2746 7.83984 51.3109 7.83984C52.0131 7.83984 52.645 8.15802 53.1365 8.45348L53.2302 7.95348H53.9792V12.9535C53.9792 14.9762 53.511 15.5898 51.5918 15.5898C51.03 15.5898 50.4683 15.5444 49.9299 15.4535L50.047 14.9308ZM53.0663 9.02166C52.645 8.77166 52.1301 8.52166 51.6152 8.52166C50.2108 8.52166 50.1172 9.29439 50.1172 10.8171C50.1172 12.3171 50.2108 13.0217 51.6152 13.0217C52.1301 13.0217 52.6684 12.7489 53.0663 12.5444V9.02166Z" fill="url(#paint6_linear_5_9938)"/>
<path d="M59.2223 13.6133L59.1287 13.1133C58.6606 13.4087 58.0286 13.7269 57.3498 13.7269C55.2199 13.7724 55.1028 12.5906 55.1028 10.7951C55.1028 9.02237 55.2199 7.86328 57.3264 7.86328C58.0286 7.86328 58.6371 8.18146 59.1053 8.45419L59.1989 7.95419H59.9479V13.5906L59.2223 13.6133ZM59.0116 8.97692C58.6137 8.77237 58.0754 8.49965 57.5605 8.49965C56.1561 8.49965 56.0625 9.27237 56.0625 10.7951C56.0625 12.3178 56.1561 13.0906 57.5605 13.0906C58.0754 13.0906 58.5903 12.8178 59.0116 12.5906V8.97692Z" fill="url(#paint7_linear_5_9938)"/>
<path d="M61.9826 8.47513C62.4039 8.22513 62.9891 7.90694 63.621 7.88421C64.6041 7.83876 65.0956 8.08876 65.3531 8.49785C65.7978 8.22512 66.4063 7.88421 67.0617 7.88421C69.0512 7.83876 69.1916 8.81603 69.1916 10.1797V13.6115H68.2086V10.2251C68.2086 9.06603 68.1384 8.49785 66.851 8.49785C66.3829 8.49785 65.8914 8.77058 65.4935 8.99785C65.5871 9.40694 65.6339 9.81603 65.6105 10.2479V13.6342H64.7913V10.2479C64.7913 9.08876 64.7211 8.52058 63.4338 8.52058C62.9891 8.52058 62.4975 8.79331 62.123 8.99785V13.6342H61.1634V7.99785H61.9124L61.9826 8.47513Z" fill="url(#paint8_linear_5_9938)"/>
<path d="M70.3392 7.27095V6.31641H71.3222V7.27095H70.3392ZM70.3626 13.6119V7.9755H71.3222V13.6119H70.3626Z" fill="url(#paint9_linear_5_9938)"/>
<path d="M73.3595 8.47915C73.8276 8.22915 74.4596 7.91097 75.1384 7.88824C77.2683 7.84279 77.3854 8.82006 77.3854 10.1837V13.6155H76.4257V10.2292C76.4257 9.07006 76.3321 8.50188 74.9277 8.50188C74.4128 8.50188 73.8745 8.77461 73.4766 9.00188V13.6382H72.5169V7.97915H73.2659L73.3595 8.47915Z" fill="url(#paint10_linear_5_9938)"/>
<path d="M79.2345 14.9308C79.5856 14.9762 80.0537 14.9762 80.592 14.9762C82.0666 14.9762 82.2538 14.5898 82.2538 13.0898C81.8325 13.3398 81.224 13.5898 80.592 13.6126C78.4621 13.658 78.345 12.5444 78.345 10.7717C78.345 8.99893 78.4621 7.83984 80.4984 7.83984C81.2006 7.83984 81.8325 8.15802 82.324 8.45348L82.4177 7.95348H83.1667V12.9535C83.1667 14.9762 82.6985 15.5898 80.7793 15.5898C80.2175 15.5898 79.6558 15.5444 79.1174 15.4535L79.2345 14.9308ZM82.2538 9.02166C81.8325 8.77166 81.3176 8.52166 80.8027 8.52166C79.3983 8.52166 79.3047 9.29439 79.3047 10.8171C79.3047 12.3171 79.3983 13.0217 80.8027 13.0217C81.3176 13.0217 81.8559 12.7489 82.2538 12.5444V9.02166Z" fill="url(#paint11_linear_5_9938)"/>
</g>
<defs>
<linearGradient id="paint0_linear_5_9938" x1="-1.26685" y1="12.7668" x2="81.1422" y2="-7.67915" gradientUnits="userSpaceOnUse">
<stop stop-color="#21E418"/>
<stop offset="0.3" stop-color="#31B6E9"/>
<stop offset="0.9757" stop-color="#21E418"/>
</linearGradient>
<linearGradient id="paint1_linear_5_9938" x1="-0.361427" y1="16.4082" x2="82.0476" y2="-4.03777" gradientUnits="userSpaceOnUse">
<stop stop-color="#21E418"/>
<stop offset="0.3" stop-color="#31B6E9"/>
<stop offset="0.9757" stop-color="#21E418"/>
</linearGradient>
<linearGradient id="paint2_linear_5_9938" x1="-0.0785419" y1="17.5578" x2="82.3307" y2="-2.88827" gradientUnits="userSpaceOnUse">
<stop stop-color="#21E418"/>
<stop offset="0.3" stop-color="#31B6E9"/>
<stop offset="0.9757" stop-color="#21E418"/>
</linearGradient>
<linearGradient id="paint3_linear_5_9938" x1="0.332943" y1="19.2138" x2="82.7419" y2="-1.2321" gradientUnits="userSpaceOnUse">
<stop stop-color="#21E418"/>
<stop offset="0.3" stop-color="#31B6E9"/>
<stop offset="0.9757" stop-color="#21E418"/>
</linearGradient>
<linearGradient id="paint4_linear_5_9938" x1="0.545678" y1="20.07" x2="82.9548" y2="-0.37602" gradientUnits="userSpaceOnUse">
<stop stop-color="#21E418"/>
<stop offset="0.3" stop-color="#31B6E9"/>
<stop offset="0.9757" stop-color="#21E418"/>
</linearGradient>
<linearGradient id="paint5_linear_5_9938" x1="0.853837" y1="21.3114" x2="83.2628" y2="0.865506" gradientUnits="userSpaceOnUse">
<stop stop-color="#21E418"/>
<stop offset="0.3" stop-color="#31B6E9"/>
<stop offset="0.9757" stop-color="#21E418"/>
</linearGradient>
<linearGradient id="paint6_linear_5_9938" x1="1.39245" y1="23.4799" x2="83.8014" y2="3.03401" gradientUnits="userSpaceOnUse">
<stop stop-color="#21E418"/>
<stop offset="0.3" stop-color="#31B6E9"/>
<stop offset="0.9757" stop-color="#21E418"/>
</linearGradient>
<linearGradient id="paint7_linear_5_9938" x1="1.53" y1="24.0345" x2="83.9391" y2="3.58853" gradientUnits="userSpaceOnUse">
<stop stop-color="#21E418"/>
<stop offset="0.3" stop-color="#31B6E9"/>
<stop offset="0.9757" stop-color="#21E418"/>
</linearGradient>
<linearGradient id="paint8_linear_5_9938" x1="1.91589" y1="25.5945" x2="84.325" y2="5.14857" gradientUnits="userSpaceOnUse">
<stop stop-color="#21E418"/>
<stop offset="0.3" stop-color="#31B6E9"/>
<stop offset="0.9757" stop-color="#21E418"/>
</linearGradient>
<linearGradient id="paint9_linear_5_9938" x1="2.03169" y1="26.0577" x2="84.4404" y2="5.61194" gradientUnits="userSpaceOnUse">
<stop stop-color="#21E418"/>
<stop offset="0.3" stop-color="#31B6E9"/>
<stop offset="0.9757" stop-color="#21E418"/>
</linearGradient>
<linearGradient id="paint10_linear_5_9938" x1="2.45271" y1="27.7557" x2="84.8618" y2="7.30979" gradientUnits="userSpaceOnUse">
<stop stop-color="#21E418"/>
<stop offset="0.3" stop-color="#31B6E9"/>
<stop offset="0.9757" stop-color="#21E418"/>
</linearGradient>
<linearGradient id="paint11_linear_5_9938" x1="2.99428" y1="29.9354" x2="85.4033" y2="9.48946" gradientUnits="userSpaceOnUse">
<stop stop-color="#21E418"/>
<stop offset="0.3" stop-color="#31B6E9"/>
<stop offset="0.9757" stop-color="#21E418"/>
</linearGradient>
<clipPath id="clip0_5_9938">
<rect width="82.8571" height="20" fill="white" transform="translate(0.333313)"/>
</clipPath>
</defs>
</svg>
