<svg width="84" height="24" viewBox="0 0 84 24" fill="none" xmlns="http://www.w3.org/2000/svg">
<g clip-path="url(#clip0_5_9956)">
<path d="M7.13422 2.46523C7.86493 2.182 8.64279 1.96957 9.42065 1.85156C9.56208 3.38572 10.0099 4.87268 10.7171 6.21802C11.4242 4.84908 11.8721 3.36212 12.0371 1.85156C12.8149 1.96957 13.5928 2.15839 14.3235 2.46523C14.1585 3.71616 13.8521 4.94349 13.3806 6.10001C14.6299 5.62796 15.7614 4.87268 16.6806 3.83417C17.3171 4.32982 17.8828 4.89628 18.3778 5.53355C16.7985 7.28013 14.7478 8.43666 12.4849 8.8615C13.1685 9.59318 13.9228 10.254 14.7478 10.7969C16.1385 9.40436 17.8356 8.34225 19.6742 7.72858C20.0042 8.46026 20.2399 9.23914 20.4049 10.018C19.1556 10.4193 18.0006 11.0801 17.0106 11.9298C18.1656 12.3311 19.3442 12.5671 20.5699 12.6143C20.5228 13.4168 20.3814 14.2193 20.1456 14.9981C16.5392 14.7621 13.1449 13.1099 10.6935 10.3721C8.24208 13.1099 4.84779 14.7857 1.24136 14.9981C1.00565 14.2193 0.86422 13.4168 0.817078 12.6143C2.04279 12.5671 3.24493 12.3311 4.39993 11.8826C3.38636 11.0329 2.23136 10.3721 1.00565 9.94722C1.17065 9.16833 1.40636 8.41305 1.73636 7.68138C3.57493 8.29504 5.27208 9.35715 6.66279 10.7497C7.48779 10.2068 8.24208 9.54597 8.94922 8.79069C6.68636 8.38945 4.61208 7.20933 3.07993 5.43914C3.57493 4.80187 4.14065 4.23541 4.77708 3.73976C5.67279 4.77827 6.80422 5.53355 8.07708 6.0056C7.60565 4.89628 7.29922 3.69256 7.13422 2.46523ZM6.19136 14.1721C6.92208 13.8416 7.60565 13.464 8.26565 13.0155C9.09065 14.1013 9.91565 15.2106 10.6935 16.2963C11.5185 15.2106 12.3435 14.1249 13.1214 13.0155C13.7814 13.464 14.4885 13.8416 15.1956 14.1721C14.0878 15.7062 12.9328 17.1696 11.8485 18.6801C11.8485 19.8131 11.8485 20.946 11.8485 22.0789C11.0706 22.1733 10.2928 22.1733 9.51493 22.0789V18.6801L6.19136 14.1721Z" fill="#F96432"/>
<path d="M69.7174 8.10744C70.3774 7.68259 71.2024 7.51738 71.9567 7.65899C72.6874 7.7534 73.371 8.06023 73.9603 8.53228L73.1588 9.73601C72.5696 9.24036 71.8153 9.00433 71.061 9.02794C70.7074 9.07514 70.3538 9.33477 70.401 9.71241C70.4481 10.09 70.6838 10.2317 70.9431 10.3261C71.7917 10.6565 72.7346 10.7273 73.4888 11.3174C74.2667 12.0255 74.4081 13.2056 73.8188 14.0789C73.4417 14.6217 72.8524 14.9522 72.1924 15.0466C70.8724 15.2354 69.5524 14.8341 68.586 13.9137L69.4817 12.7807C70.0238 13.2764 70.6838 13.5832 71.391 13.654C71.7681 13.7248 72.1688 13.6304 72.4988 13.3708C72.6167 13.2292 72.6874 13.0168 72.6403 12.8279C72.5931 12.6391 72.4988 12.4739 72.3103 12.3795C71.4146 11.9074 70.3303 11.9074 69.5053 11.2466C69.0574 10.8689 68.8453 10.3025 68.8688 9.71241C68.8688 9.14595 69.1988 8.48508 69.7174 8.10744ZM33.4174 8.10744C34.3131 7.63539 35.3738 7.54098 36.3403 7.80061C36.9531 7.94222 37.5188 8.24905 37.9903 8.6739L37.0003 9.90123C36.5524 9.45278 35.9631 9.19315 35.3503 9.16955C34.7138 9.12235 34.0538 9.38197 33.6531 9.90123C32.8517 10.9161 32.946 12.4031 33.8653 13.3C34.6903 13.9609 35.8453 14.0081 36.7174 13.3708C36.7174 13.1112 36.7174 12.8515 36.7174 12.5919H35.9867C35.9867 12.1907 35.9867 11.7658 35.9867 11.341H38.2024V14.1025C37.236 14.9758 35.9396 15.377 34.6667 15.2354C33.7238 15.141 32.8517 14.6689 32.2624 13.9137C31.5788 12.9932 31.3196 11.813 31.5553 10.6801C31.8146 9.54719 32.4746 8.62669 33.4174 8.10744ZM40.9603 8.22545C41.9267 7.65899 43.0817 7.49377 44.1424 7.777C44.7317 7.91862 45.2974 8.22545 45.7453 8.62669C45.4153 9.02794 45.0853 9.42918 44.7788 9.83042C44.3074 9.38197 43.7181 9.12235 43.0817 9.09874C42.3981 9.05154 41.7146 9.38197 41.3374 9.97204C40.6303 11.0105 40.7953 12.4503 41.7146 13.2764C42.5396 13.8664 43.671 13.8664 44.5196 13.2764V12.5211H43.7888V11.2702H46.0046C46.0046 12.1907 46.0046 13.1112 46.0046 14.0317C45.2031 14.7397 44.166 15.141 43.1053 15.1646C42.0681 15.2118 41.0781 14.8577 40.3238 14.1261C39.5931 13.3708 39.216 12.3323 39.2867 11.2702C39.3103 10.0428 39.9467 8.90992 40.9603 8.22545ZM24.696 7.777C25.3088 7.777 25.8981 7.777 26.511 7.777C27.0531 8.86272 27.6424 9.94843 28.2081 11.0341L29.9053 7.777H31.6496C30.7538 9.42918 29.8346 11.0814 28.9388 12.7335C28.9388 13.5124 28.9388 14.2913 28.9388 15.0702H27.4067C27.4067 14.2913 27.4067 13.5124 27.4067 12.7571C26.511 11.0814 25.5917 9.45278 24.696 7.777ZM47.2303 7.777H49.611C50.931 7.7062 52.1803 8.39067 52.911 9.52359C53.5003 10.5621 53.571 11.8366 53.0996 12.9459C52.5338 14.1969 51.3081 15.023 49.9646 15.0702C49.0688 15.0702 48.1496 15.0702 47.2303 15.0702C47.2303 12.6391 47.2303 10.2081 47.2303 7.777ZM48.786 9.19315C48.786 10.6565 48.786 12.1435 48.786 13.6068C49.4931 13.6068 50.2474 13.6776 50.8603 13.2764C51.4731 12.8279 51.8031 12.1435 51.8031 11.3882C51.8031 10.6329 51.426 9.92483 50.8367 9.49999C50.2238 9.14595 49.4931 9.21676 48.786 9.19315ZM54.4196 7.777C55.4803 7.777 56.5646 7.777 57.6017 7.777C58.4974 7.7534 59.3224 8.22545 59.7938 9.00433C60.2653 9.97204 60.1003 11.1522 59.3931 11.931C59.1574 12.1671 58.851 12.3323 58.5681 12.4503L60.2888 15.0466H58.4738C57.9788 14.2677 57.4838 13.4888 56.9653 12.7099H56.5646V11.2938C57.0831 11.2702 57.6724 11.4118 58.1203 11.0814C58.4031 10.8689 58.5681 10.5149 58.521 10.1373C58.4738 9.75961 58.2617 9.45278 57.9317 9.31117C57.2953 9.19315 56.6353 9.14595 55.9753 9.19315V15.0702H54.4431C54.4196 12.6391 54.4196 10.2081 54.4196 7.777ZM60.7838 15.0938L63.801 7.7534H65.2153L68.2324 15.0938H66.5824C66.3703 14.5273 66.1346 13.9845 65.946 13.4416H63.5888L64.131 12.0491H65.3803L64.4374 9.6652C63.7303 11.4826 63.0231 13.2764 62.2924 15.0938H60.7838ZM75.3981 7.777H76.9303V15.0702H75.3981V7.777ZM78.2031 7.777H79.7588C79.7588 9.73601 79.7588 11.6714 79.7588 13.6304H83.0588V15.0938H78.2031C78.2031 12.6391 78.2031 10.2081 78.2031 7.777Z" fill="white"/>
</g>
<defs>
<clipPath id="clip0_5_9956">
<rect width="82.8571" height="22.8571" fill="white" transform="translate(0.522156 0.570312)"/>
</clipPath>
</defs>
</svg>
