<svg width="78" height="20" viewBox="0 0 78 20" fill="none" xmlns="http://www.w3.org/2000/svg">
<g clip-path="url(#clip0_5_9964)">
<path d="M20.2562 6.53188C19.1933 3.89337 14.7648 3.28964 9.95976 5.01138L7.83404 3.66977C7.16976 3.28964 6.4169 3.75921 6.37262 4.51946V6.71076C2.2319 9.21511 -0.159527 12.7927 0.859045 15.3418C2.03262 18.271 7.32476 18.6735 12.6833 16.2586C18.0419 13.799 21.4298 9.46107 20.2562 6.53188ZM8.47619 5.36915L13.569 8.61138C13.9455 8.83499 13.9898 9.43871 13.5912 9.68468L8.45404 12.8375C8.05547 13.0611 7.5019 12.7928 7.52404 12.2114L7.5019 5.92815C7.52404 5.41387 8.03333 5.10083 8.47619 5.36915ZM5.77476 17.153C3.44976 16.9741 2.51976 15.4313 3.13976 13.307C3.13976 13.6648 3.18404 14.0002 3.3169 14.3132C4.22476 16.5716 8.29904 16.8847 12.4398 15.0064C12.5283 14.9617 12.6169 14.917 12.6833 14.8946C10.3583 16.4151 7.78976 17.3095 5.77476 17.153ZM15.429 11.4511C13.3698 14.0896 9.62762 15.9232 7.10333 15.7443C4.57904 15.5431 4.18047 13.24 6.2619 10.6014C6.30619 10.5567 6.35047 10.4896 6.39476 10.4449V13.7766C6.37262 14.6263 7.1919 15.0288 7.76762 14.6934L15.3405 9.99772C15.9383 9.61759 15.8719 8.74555 15.3183 8.41014L12.2405 6.62132C13.0819 6.37536 13.879 6.2412 14.5876 6.30828C17.1119 6.48716 17.4883 8.79027 15.429 11.4511ZM18.3076 7.62753C18.2855 7.60517 18.2855 7.56045 18.2855 7.53809C17.5548 5.72691 14.7648 5.1679 11.554 5.99523L11.0226 5.65983C12.6169 4.96666 14.189 4.6089 15.4955 4.7207C17.444 4.87722 18.4183 6.0176 18.3076 7.62753Z" fill="#7286DF"/>
<path d="M73.3535 12.5899L73.0435 12.3216C72.7557 12.6793 72.4678 12.9476 72.2021 13.1489C71.9364 13.3501 71.7371 13.529 71.5821 13.5066C71.5157 13.5066 71.4492 13.4172 71.3828 13.3725C71.3385 13.3278 71.2942 13.2607 71.2942 13.1936C71.2942 13.0818 71.2942 12.9476 71.3164 12.8358C71.3385 12.724 71.3607 12.6122 71.3828 12.5004L72.9107 7.31286C72.9549 7.15634 72.9771 7.02218 72.9992 6.88801C73.0214 6.75385 73.0435 6.66441 73.0435 6.57497C73.0435 6.28429 72.9771 6.08305 72.8442 5.94888C72.7114 5.81472 72.5121 5.74764 72.2242 5.74764C71.6928 5.74764 70.9842 6.06069 70.0764 6.64205C69.1907 7.24578 68.1942 8.09547 67.1314 9.19112L69.2349 1.58864H68.6814C68.2607 1.76752 67.7957 1.87932 67.3307 1.99112C66.8435 2.08056 66.3342 2.14764 65.7807 2.17L65.6699 2.66193H66.3564C66.7992 2.66193 67.0871 2.70665 67.1757 2.77373C67.2642 2.84081 67.3085 2.97497 67.3085 3.17621C67.3085 3.24329 67.3085 3.31038 67.2864 3.37746C67.2864 3.44454 67.2642 3.51162 67.2421 3.5787L65.2049 11.0247C64.4299 12.2321 63.6992 12.7911 63.2564 13.0818C62.8135 13.3725 62.3707 13.5737 61.9057 13.5737C61.3299 13.5737 60.8649 13.3054 60.5328 12.9253C60.2007 12.5452 60.0235 12.0085 60.0235 11.3377C60.0235 10.734 60.1342 10.1526 60.3335 9.52652C60.5549 8.90044 60.8428 8.31907 61.2414 7.78242C61.5514 7.33522 61.9278 6.97746 62.3485 6.70913C62.7692 6.44081 63.1899 6.32901 63.6107 6.32901C63.8099 6.32901 63.9649 6.35137 64.0757 6.41845C64.1864 6.48553 64.2528 6.57497 64.2528 6.66441C64.2528 6.73149 64.2085 6.86565 64.0757 7.08926C63.9649 7.31286 63.8985 7.5141 63.8985 7.69298C63.8985 7.93895 63.9649 8.14019 64.1199 8.29671C64.2528 8.45323 64.4521 8.52031 64.6735 8.52031C64.9614 8.52031 65.2049 8.40851 65.4042 8.18491C65.6035 7.96131 65.7142 7.69298 65.7142 7.4023C65.7142 6.88802 65.5149 6.48553 65.1164 6.17249C64.7178 5.85944 64.1864 5.70292 63.5221 5.70292C62.8799 5.70292 62.2821 5.83708 61.6621 6.12777C61.0642 6.39609 60.5107 6.82093 60.0235 7.33522C59.4921 7.91659 59.0714 8.56503 58.7614 9.28056C58.4514 9.99609 58.2964 10.7116 58.2964 11.4048C58.2964 11.5389 58.2964 11.6507 58.3185 11.7849C57.6542 12.3439 57.0342 12.7911 56.5028 13.0818C55.9049 13.3948 55.3735 13.6184 54.9085 13.6184C54.4435 13.6184 54.0671 13.4172 53.8235 13.1489C53.5799 12.8806 53.4471 12.5004 53.4471 11.9862C53.4471 11.8296 53.4471 11.6507 53.4914 11.4495C53.5135 11.2483 53.5578 11.047 53.6021 10.8234C55.2849 10.6893 56.6357 10.2868 57.6764 9.63833C58.7171 8.98988 59.2264 8.18491 59.2264 7.2905C59.2264 6.79857 59.0492 6.39609 58.6949 6.10541C58.3407 5.81472 57.8535 5.68056 57.2335 5.68056C56.5692 5.68056 55.9271 5.83708 55.2849 6.15013C54.6649 6.46317 54.0671 6.91038 53.5357 7.5141C52.9821 8.14019 52.5614 8.85572 52.2292 9.63833C51.9192 10.4433 51.7642 11.2259 51.7421 12.0085C51.3878 12.4557 51.0999 12.7911 50.8564 12.9924C50.5907 13.2383 50.3692 13.3501 50.1699 13.3501C50.0149 13.3501 49.9042 13.3054 49.8157 13.1936C49.7271 13.0818 49.6828 12.9476 49.6828 12.7464C49.6828 12.657 49.7049 12.5675 49.7049 12.4557C49.7271 12.3439 49.7492 12.2321 49.7935 12.098L51.2771 6.26193H52.8049L52.9599 5.61348H51.4985L52.2292 2.57249H51.6757C51.2549 3.48926 50.7678 4.20479 50.2364 4.71907C49.7049 5.23336 49.0849 5.56876 48.3985 5.72528L48.3764 5.79236C48.1771 5.6582 47.9335 5.59112 47.6457 5.59112C47.2692 5.59112 46.9592 5.70292 46.7378 5.92652C46.4942 6.15013 46.3835 6.46317 46.3835 6.84329C46.3835 7.1787 46.5607 7.46938 46.8928 7.7377C47.2249 7.98367 47.3799 8.22963 47.3799 8.40851C47.3799 8.65447 47.2914 9.01224 47.0921 9.52652C46.8928 10.0408 46.5164 10.8458 45.9849 11.9414C45.8742 11.3377 45.7192 10.5104 45.5421 9.50416C45.0992 6.9551 44.7228 5.70292 44.4349 5.68056C44.3907 5.68056 43.9921 5.72528 43.2835 5.83708C42.8407 5.90416 42.3978 5.97124 41.9549 6.01596L41.9992 5.8818H39.5192L39.2535 6.93274C39.1649 6.48553 39.0099 6.12777 38.7442 5.90416C38.4785 5.68056 38.1242 5.56876 37.6814 5.56876C37.2164 5.56876 36.7071 5.70292 36.1978 6.01596C35.6885 6.30665 35.2014 6.73149 34.7142 7.2905C34.1164 7.98367 33.6292 8.76628 33.2749 9.66069C32.9428 10.488 32.7657 11.2706 32.7435 12.0309C32.5221 12.3663 32.3671 12.5899 32.2785 12.6793C32.1457 12.8135 32.0349 12.8806 31.9464 12.8806C31.8578 12.8806 31.7692 12.8358 31.7249 12.7688C31.6807 12.7017 31.6585 12.5899 31.6585 12.4781C31.6585 12.4334 31.6807 12.3439 31.7028 12.2098C31.7249 12.1203 31.7471 12.0532 31.7692 11.9862L34.4485 1.32031C33.8507 1.45447 33.2085 1.56628 32.5442 1.65572C31.8799 1.74516 31.1714 1.8346 30.4407 1.87932V2.32652H30.5957C30.8614 2.32652 31.0385 2.37125 31.1492 2.46069C31.2599 2.55013 31.3264 2.66193 31.3264 2.84081C31.3264 2.97497 31.2821 3.26566 31.1714 3.71286C31.1492 3.84702 31.1271 3.93646 31.1049 4.00354L29.9314 8.56503C29.9535 8.38615 29.9535 8.20727 29.9535 8.02839C29.9535 7.22342 29.7764 6.61969 29.3999 6.17249C29.0457 5.74764 28.5142 5.52404 27.8278 5.52404C27.3407 5.52404 26.8535 5.68056 26.4107 6.01596C25.9457 6.32901 25.4585 6.86565 24.9492 7.58118L25.4585 5.74764C24.8607 5.85944 24.2185 5.97125 23.5764 6.03833C22.9342 6.12777 22.2478 6.19485 21.5171 6.26193V6.70913C21.8714 6.70913 22.1149 6.75385 22.2478 6.84329C22.3807 6.93274 22.4471 7.0669 22.4471 7.2905C22.4471 7.35758 22.4249 7.44702 22.4249 7.58118C22.4028 7.71534 22.3807 7.82715 22.3364 7.96131L20.3878 15.9216C20.2328 16.5924 20.0778 17.0172 19.9228 17.1737C19.7678 17.3303 19.5464 17.4197 19.2364 17.4197C19.2142 17.4197 19.1921 17.4197 19.1699 17.4197C19.1478 17.4197 19.1257 17.4197 19.1035 17.4197V17.9116H23.9528V17.4421C23.5321 17.4197 23.2442 17.3526 23.0892 17.2632C22.9564 17.1737 22.8899 16.9948 22.8899 16.7489C22.8899 16.6147 22.8899 16.5029 22.9121 16.3688C22.9342 16.2346 22.9564 16.1228 23.0007 15.9886L23.5321 13.9986C23.7314 14.1551 23.9528 14.2669 24.1742 14.3563C24.4178 14.4458 24.6835 14.4681 24.9492 14.4681C25.6135 14.4681 26.2557 14.2893 26.8535 13.9091C27.4514 13.529 28.0049 12.97 28.5364 12.2321C28.8907 11.7178 29.2007 11.1812 29.4221 10.5998L29.3335 10.9352L29.3114 11.047C29.0457 12.098 28.9128 12.724 28.9128 12.97C28.9128 13.4619 29.0457 13.8421 29.2892 14.1104C29.5328 14.3787 29.9092 14.5129 30.3742 14.5129C30.9057 14.5129 31.4149 14.3116 31.8799 13.9091C32.1678 13.6632 32.4778 13.3278 32.7878 12.8806C32.8764 13.283 33.0314 13.6184 33.2749 13.8868C33.6514 14.2893 34.1607 14.4905 34.7807 14.4905C35.4007 14.4905 35.9542 14.2893 36.4635 13.9091C36.9728 13.529 37.4378 12.9476 37.8807 12.1427C37.8364 12.4334 37.7921 12.657 37.7699 12.8358C37.7478 13.0147 37.7257 13.1712 37.7257 13.283C37.7257 13.6855 37.8364 13.9762 38.0799 14.1775C38.3235 14.3787 38.6557 14.4905 39.1207 14.4905C39.6742 14.4905 40.1835 14.2893 40.6485 13.9091C41.1135 13.529 41.5785 12.9029 42.0435 12.098L41.6228 11.7625C41.5564 11.852 41.4899 11.9862 41.3792 12.1427C41.0249 12.7017 40.7149 12.9924 40.4935 12.9924C40.4049 12.9924 40.3607 12.9476 40.2942 12.8806C40.2499 12.7911 40.2278 12.7017 40.2278 12.5675C40.2278 12.4334 40.3385 11.9638 40.5599 11.1365V11.1141L41.7778 6.61969C41.8664 6.64205 41.9328 6.68677 41.9992 6.75385C42.1321 6.88801 42.2428 7.1787 42.3757 7.60354C42.5085 8.11783 42.6635 8.811 42.8407 9.70541C43.0178 10.5998 43.1728 11.5837 43.3499 12.657C43.4385 13.1712 43.4828 13.5961 43.5271 13.9315C43.5714 14.2669 43.5935 14.5576 43.5935 14.7812C43.5935 15.0942 43.4607 15.4073 43.1949 15.7427C42.9514 16.0781 42.7078 16.2346 42.5085 16.2346C42.3978 16.2346 42.1764 16.1228 41.8442 15.8992C41.5121 15.6756 41.2021 15.5414 40.9142 15.5414C40.5378 15.5414 40.2499 15.6532 40.0064 15.8768C39.7628 16.1004 39.6521 16.3911 39.6521 16.7265C39.6521 17.1066 39.7849 17.4197 40.0728 17.6209C40.3607 17.8445 40.7371 17.9563 41.2242 17.9563C41.9549 17.9563 42.7078 17.5762 43.5049 16.816C44.3021 16.0557 45.1657 14.8483 46.1399 13.216C46.9814 11.7625 47.6678 10.4657 48.1549 9.32528C48.6421 8.16255 48.8857 7.33522 48.8857 6.82093C48.8857 6.57497 48.8414 6.35137 48.7528 6.15013H49.8821L48.3542 12.1874C48.3099 12.3886 48.2657 12.5675 48.2435 12.724C48.2214 12.8806 48.1992 13.0371 48.1992 13.1712C48.1992 13.5514 48.2878 13.8421 48.4871 14.0657C48.6864 14.2893 48.9521 14.4011 49.2842 14.4011C49.7049 14.4011 50.1699 14.1998 50.6792 13.7973C51.0778 13.4843 51.4542 13.0818 51.8749 12.5675C51.9635 13.0594 52.1407 13.4619 52.4285 13.7526C52.8271 14.1998 53.4028 14.4234 54.1335 14.4234C54.8864 14.4234 55.6392 14.2445 56.4142 13.8421C57.0785 13.529 57.7649 13.0594 58.4957 12.4334C58.6285 12.8582 58.8278 13.2383 59.1157 13.529C59.6471 14.1104 60.3557 14.4011 61.1971 14.4011C61.9721 14.4011 62.7028 14.1998 63.3449 13.7973C63.8099 13.5066 64.2528 13.1042 64.6735 12.5899L64.1642 14.4011C64.2971 14.3787 64.4078 14.3787 64.5407 14.3563C64.6735 14.3563 64.7842 14.3563 64.9171 14.3563C65.0499 14.3563 64.8728 14.3563 64.9835 14.3563C65.1164 14.3563 65.5149 14.3787 65.6478 14.4011L66.6885 10.7116C66.7992 10.3539 66.9764 10.0184 67.1978 9.68305C67.4414 9.34764 67.8178 8.96752 68.3271 8.49795C68.9028 7.98367 69.3899 7.58118 69.8328 7.2905C70.2757 6.99982 70.5857 6.86565 70.8071 6.86565C70.9399 6.86565 71.0507 6.91038 71.1392 6.97746C71.2278 7.04454 71.2499 7.15634 71.2499 7.2905C71.2499 7.33522 71.2499 7.4023 71.2278 7.44702C71.2278 7.5141 71.2057 7.60354 71.1614 7.71534L69.5892 13.0818C69.5449 13.1936 69.5228 13.283 69.5007 13.3948C69.4785 13.4843 69.4785 13.5737 69.4785 13.6632C69.4785 13.8868 69.5449 14.0657 69.6999 14.1998C69.8549 14.334 70.0542 14.4011 70.3421 14.4011C70.7407 14.4011 71.2057 14.2222 71.6928 13.8868C72.3128 13.7526 72.8221 13.2607 73.3535 12.5899ZM55.2849 7.46938C55.9049 6.79857 56.5692 6.46317 57.2778 6.46317C57.5435 6.46317 57.7207 6.53025 57.8535 6.64205C57.9864 6.77621 58.0528 6.9551 58.0528 7.22342C58.0528 7.98367 57.6542 8.65447 56.8349 9.2582C56.0378 9.83957 55.0414 10.175 53.8457 10.2197C54.1999 9.05696 54.6649 8.14019 55.2849 7.46938ZM26.8757 9.83957C26.6764 10.5775 26.4107 11.293 26.0785 12.0309C25.8128 12.6122 25.5249 13.0594 25.2371 13.3501C24.9492 13.6632 24.6614 13.8197 24.3957 13.8197C24.2185 13.8197 24.0857 13.775 23.9749 13.6632C23.8642 13.5514 23.8199 13.4172 23.8199 13.2383C23.8199 13.1489 23.8421 12.9924 23.8864 12.7688C23.9307 12.5675 23.9749 12.3216 24.0414 12.0532L24.5064 10.3315C24.7942 9.23584 25.1042 8.45323 25.4364 7.91659C25.7685 7.4023 26.1449 7.13398 26.5435 7.13398C26.7207 7.13398 26.8757 7.22342 26.9864 7.4023C27.0971 7.58118 27.1635 7.80478 27.1635 8.11783C27.1635 8.54267 27.0749 9.12404 26.8757 9.83957ZM38.6114 9.0346C38.4342 9.68305 38.2128 10.3762 37.9249 11.0917C37.6592 11.7178 37.3714 12.2098 37.0614 12.5675C36.7514 12.9253 36.4635 13.0818 36.1757 13.0818C35.9764 13.0818 35.8214 12.9924 35.7107 12.8358C35.5999 12.657 35.5335 12.4334 35.5335 12.1427C35.5335 11.6731 35.6442 11.0917 35.8435 10.3986C36.0428 9.72777 36.3307 9.0346 36.7071 8.31907C37.0171 7.7377 37.2828 7.31286 37.5264 7.04454C37.7699 6.79857 38.0135 6.66441 38.2571 6.66441C38.4342 6.66441 38.5892 6.73149 38.6778 6.88801C38.7885 7.04454 38.8328 7.24578 38.8328 7.49174C38.8771 7.87187 38.7885 8.36379 38.6114 9.0346Z" fill="#7286DF"/>
<path d="M47.4256 17.2663C47.3371 17.2216 47.2263 17.1545 47.0713 17.0874C46.9385 17.0204 46.8056 16.9756 46.6949 16.9086C46.5178 16.8191 46.4292 16.685 46.4292 16.5508C46.4292 16.3048 46.5842 16.193 46.8721 16.193C47.0935 16.193 47.2264 16.2825 47.2485 16.4837V16.6179V16.685H47.6914V16.6402C47.6914 16.3719 47.6471 16.193 47.5363 16.0812C47.4035 15.9694 47.1821 15.9023 46.8721 15.9023C46.6285 15.9023 46.4292 15.9471 46.2742 16.0141C46.0749 16.1259 45.9863 16.3048 45.9863 16.5508C45.9863 16.7744 46.0749 16.9533 46.2521 17.0874C46.3406 17.1545 46.4292 17.1992 46.5621 17.2663L46.8721 17.4005C46.9828 17.4452 47.0714 17.4899 47.1378 17.557C47.2485 17.6241 47.2928 17.7359 47.2928 17.87C47.2928 18.0713 47.2042 18.1831 47.0492 18.2278C46.9828 18.2502 46.8942 18.2725 46.8056 18.2725C46.5621 18.2725 46.4292 18.1831 46.3849 18.0042C46.3628 17.9371 46.3628 17.87 46.3628 17.803V17.6688H45.9199V17.7806V17.9818C45.9421 18.1831 46.0306 18.3396 46.1856 18.4291C46.3185 18.5185 46.5399 18.5632 46.7835 18.5632C47.4035 18.5632 47.7135 18.3173 47.7135 17.87C47.7578 17.5794 47.6471 17.4005 47.4256 17.2663Z" fill="#7286DF"/>
<path d="M49.3982 15.9694C49.2432 15.9247 49.1104 15.9023 48.9332 15.9023C48.7782 15.9023 48.6232 15.9247 48.4682 15.9694C48.269 16.0365 48.1361 16.1483 48.0918 16.3048C48.0475 16.3943 48.0254 16.5508 48.0254 16.7744V17.6464C48.0254 17.9818 48.0697 18.2054 48.1804 18.3173C48.3132 18.4738 48.5568 18.5632 48.9554 18.5632C49.4868 18.5632 49.7747 18.3843 49.819 18.0489C49.8411 17.9371 49.8411 17.803 49.8411 17.6464V16.7744C49.8411 16.5732 49.819 16.4166 49.7747 16.3048C49.7304 16.1483 49.5975 16.0365 49.3982 15.9694ZM49.3982 17.6241C49.3982 17.7359 49.3982 17.8253 49.3761 17.9148C49.354 18.0489 49.2875 18.1607 49.1547 18.2054C49.0882 18.2278 48.9997 18.2502 48.9332 18.2502C48.8447 18.2502 48.7561 18.2278 48.6897 18.1831C48.6011 18.1384 48.5568 18.0936 48.5125 18.0266C48.4904 17.9595 48.4682 17.8253 48.4682 17.6017V16.7297C48.4682 16.6402 48.4682 16.5508 48.4904 16.4837C48.5125 16.3272 48.579 16.2377 48.734 16.193C48.8004 16.1707 48.8668 16.1483 48.9554 16.1483C49.1547 16.1483 49.2875 16.2154 49.354 16.3272C49.3982 16.3943 49.4204 16.5284 49.4204 16.7297L49.3982 17.6241Z" fill="#7286DF"/>
<path d="M51.5649 17.6671C51.5649 17.7565 51.5649 17.8459 51.5428 17.913C51.5206 18.159 51.3656 18.2708 51.0999 18.2708C50.8342 18.2708 50.6792 18.1366 50.6792 17.8907V17.6671V15.9453H50.2363V17.6894C50.2363 17.8459 50.2363 17.9577 50.2363 18.0248C50.2363 18.1366 50.3028 18.2484 50.3692 18.3379C50.5242 18.4944 50.7678 18.5615 51.0999 18.5615C51.432 18.5615 51.6756 18.4944 51.8306 18.3379C51.9192 18.2484 51.9635 18.159 51.9856 18.0472C51.9856 17.9577 52.0078 17.8683 52.0078 17.7118V15.9677H51.5649V17.6671Z" fill="#7286DF"/>
<path d="M54.0676 18.0472L54.0455 17.7341C54.0455 17.6447 54.0233 17.5552 54.0233 17.4882C54.0012 17.3764 53.9348 17.3093 53.8462 17.2646C53.7798 17.2422 53.6691 17.2198 53.5362 17.1975C53.7576 17.1528 53.9348 17.108 54.0012 17.0186C54.0898 16.9068 54.1341 16.7726 54.1341 16.5938C54.1341 16.236 53.9791 16.0348 53.6469 15.9677C53.5583 15.9453 53.4698 15.9453 53.3812 15.9453H53.1155H52.3848V18.5167H52.8276V17.354H53.1376C53.2262 17.354 53.2926 17.354 53.3591 17.3764C53.5141 17.4211 53.6026 17.5329 53.6248 17.7118L53.6469 17.9577L53.6691 18.1813C53.6691 18.2484 53.6912 18.3155 53.6912 18.3602L53.7355 18.5167H54.1783C54.1341 18.4273 54.1341 18.3602 54.1119 18.3155C54.0898 18.2484 54.0898 18.159 54.0676 18.0472ZM53.1376 17.0633H52.8276V16.236H53.1598C53.3591 16.236 53.4919 16.2584 53.5583 16.3031C53.6469 16.3478 53.7133 16.4596 53.7133 16.5938C53.7133 16.7279 53.6912 16.8174 53.6691 16.8844C53.6248 16.9739 53.5362 17.0186 53.4033 17.041C53.3148 17.0633 53.2483 17.0633 53.1376 17.0633Z" fill="#7286DF"/>
<path d="M55.7739 17.7799L55.7517 17.9365C55.7296 18.1601 55.5967 18.2719 55.3532 18.2719C55.176 18.2719 55.0431 18.2048 54.9767 18.1153C54.9546 18.0706 54.9324 17.9365 54.9324 17.7576V16.7514V16.5501C54.9324 16.5054 54.9546 16.4383 54.9989 16.3936C55.0653 16.2818 55.1981 16.2371 55.3974 16.2371C55.641 16.2371 55.7517 16.3489 55.7517 16.5501V16.6619V16.729H56.1946V16.6396C56.1946 16.5725 56.1946 16.5054 56.1946 16.4383C56.1503 16.1253 55.8846 15.9688 55.3974 15.9688C55.0431 15.9688 54.7996 16.0582 54.6446 16.2371C54.5781 16.3042 54.5339 16.416 54.5339 16.5278C54.5117 16.6172 54.5117 16.729 54.5117 16.8408V17.8694C54.5117 18.2942 54.6889 18.5178 55.0431 18.5849C55.1539 18.6073 55.2646 18.6073 55.3753 18.6073C55.5081 18.6073 55.641 18.5849 55.7517 18.5625C55.8403 18.5402 55.9289 18.4955 55.9953 18.4284C56.106 18.3166 56.1724 18.1824 56.1946 17.9812V17.8247V17.7352H55.7517L55.7739 17.7799Z" fill="#7286DF"/>
<path d="M57.0132 17.3316L57.9432 17.354V17.0633H57.0132V16.236H58.0096V15.9453H56.5924L56.5703 18.5167H58.0317V18.2261H57.0132V17.3316Z" fill="#7286DF"/>
<path d="M60.5115 15.9929C60.3565 15.9481 60.2237 15.9258 60.0465 15.9258C59.8915 15.9258 59.7365 15.9481 59.5815 15.9929C59.3822 16.0599 59.2494 16.1717 59.2051 16.3283C59.1608 16.4177 59.1387 16.5742 59.1387 16.7978V17.6699C59.1387 18.0053 59.183 18.2289 59.2937 18.3407C59.4265 18.4972 59.6701 18.5866 60.0687 18.5866C60.6001 18.5866 60.888 18.4078 60.9322 18.0724C60.9544 17.9606 60.9544 17.8264 60.9544 17.6699V16.7978C60.9544 16.5966 60.9322 16.4401 60.888 16.3283C60.8215 16.1717 60.7108 16.0599 60.5115 15.9929ZM60.5115 17.6475C60.5115 17.7593 60.5115 17.8488 60.4894 17.9382C60.4672 18.0724 60.4008 18.1842 60.268 18.2289C60.2015 18.2512 60.113 18.2736 60.0465 18.2736C59.958 18.2736 59.8694 18.2512 59.803 18.2065C59.7144 18.1618 59.6701 18.1171 59.648 18.05C59.6258 17.9829 59.6037 17.8488 59.6037 17.6252V16.7531C59.6037 16.6637 59.6037 16.5742 59.6258 16.5071C59.648 16.3506 59.7144 16.2612 59.8694 16.2165C59.9358 16.1941 60.0022 16.1717 60.0908 16.1717C60.2901 16.1717 60.423 16.2388 60.4894 16.3506C60.5337 16.4177 60.5558 16.5519 60.5558 16.7531L60.5115 17.6475Z" fill="#7286DF"/>
<path d="M61.3301 18.5167H61.7729V17.354H62.6808V17.0633H61.7729V16.236H62.7251V15.9453H61.3301V18.5167Z" fill="#7286DF"/>
<path d="M65.2284 17.2898C65.1398 17.245 65.0291 17.178 64.8741 17.1109C64.7412 17.0438 64.6084 16.9991 64.4977 16.932C64.3205 16.8426 64.2319 16.7084 64.2319 16.5742C64.2319 16.3283 64.3869 16.2165 64.6748 16.2165C64.8962 16.2165 65.0291 16.3059 65.0512 16.5071V16.6413V16.7084H65.4941V16.6637C65.4941 16.3953 65.4498 16.2165 65.3391 16.1047C65.2062 15.9929 64.9848 15.9258 64.6748 15.9258C64.4312 15.9258 64.2319 15.9705 64.0769 16.0376C63.8777 16.1494 63.7891 16.3283 63.7891 16.5742C63.7891 16.7978 63.8777 16.9767 64.0548 17.1109C64.1434 17.178 64.2541 17.2227 64.3648 17.2898L64.6748 17.4239C64.7855 17.4686 64.8741 17.5134 64.9405 17.5804C65.0512 17.6475 65.0955 17.7593 65.0955 17.8935C65.0955 18.0947 65.0069 18.2065 64.8519 18.2512C64.7855 18.2736 64.6969 18.296 64.6084 18.296C64.3648 18.296 64.2319 18.2065 64.1877 18.0276C64.1655 17.9606 64.1655 17.8935 64.1655 17.8264V17.6922H63.7227V17.804V18.0053C63.7448 18.2065 63.8334 18.363 63.9884 18.4525C64.1212 18.5419 64.3205 18.5866 64.5862 18.5866C65.2062 18.5866 65.5162 18.3407 65.5162 17.8935C65.5384 17.6028 65.4277 17.4239 65.2284 17.2898Z" fill="#7286DF"/>
<path d="M67.1762 17.6671C67.1762 17.7565 67.1762 17.8459 67.1541 17.913C67.1319 18.159 66.9769 18.2708 66.7112 18.2708C66.4455 18.2708 66.2905 18.1366 66.2905 17.8907V17.6671V15.9453H65.8477V17.6894C65.8477 17.8459 65.8477 17.9577 65.8477 18.0248C65.8477 18.1366 65.9141 18.2484 65.9805 18.3379C66.1355 18.4944 66.3791 18.5615 66.7112 18.5615C67.0434 18.5615 67.2869 18.4944 67.4419 18.3379C67.5305 18.2484 67.5748 18.159 67.5748 18.0472C67.5748 17.9577 67.5969 17.8683 67.5969 17.7118V15.9677H67.1541L67.1762 17.6671Z" fill="#7286DF"/>
<path d="M68.9052 15.9258C68.551 15.9258 68.3074 16.0152 68.1524 16.1941C68.086 16.2612 68.0417 16.373 68.0417 16.4848C68.0195 16.5742 68.0195 16.686 68.0195 16.7978V17.8264C68.0195 18.2512 68.1967 18.4748 68.551 18.5419C68.6617 18.5643 68.7724 18.5643 68.8831 18.5643C69.016 18.5643 69.1488 18.5419 69.2595 18.5196C69.3481 18.4972 69.4367 18.4525 69.5031 18.3854C69.6138 18.2736 69.6802 18.1394 69.7024 17.9382V17.7817V17.6922H69.2595V17.7817L69.2374 17.9382C69.2152 18.1618 69.0824 18.2736 68.8388 18.2736C68.6617 18.2736 68.5288 18.2065 68.4624 18.1171C68.4181 18.0724 68.4181 17.9382 68.4181 17.7593V16.7531V16.5519C68.4181 16.5071 68.4402 16.4401 68.4845 16.3953C68.551 16.2835 68.6838 16.2388 68.8831 16.2388C69.1267 16.2388 69.2374 16.3506 69.2374 16.5519V16.6637V16.7308H69.6802V16.6413C69.6802 16.5742 69.6802 16.5071 69.6802 16.4401C69.6802 16.0823 69.4145 15.9258 68.9052 15.9258Z" fill="#7286DF"/>
<path d="M71.3852 17.8034L71.363 17.9599C71.3409 18.1835 71.2081 18.2953 70.9645 18.2953C70.7873 18.2953 70.6766 18.2282 70.588 18.1388C70.5659 18.094 70.5438 17.9599 70.5438 17.781V16.7748V16.5736C70.5438 16.5288 70.5659 16.4618 70.6102 16.417C70.6766 16.3052 70.8095 16.2605 71.0088 16.2605C71.2523 16.2605 71.363 16.3723 71.363 16.5736V16.6854V16.7524H71.8059V16.663C71.8059 16.5959 71.8059 16.5288 71.8059 16.4618C71.7616 16.1487 71.4959 15.9922 71.0088 15.9922C70.6545 15.9922 70.4109 16.0816 70.2559 16.2605C70.1895 16.3276 70.1452 16.4394 70.1452 16.5512C70.123 16.6406 70.123 16.7524 70.123 16.8642V17.8928C70.123 18.3177 70.3002 18.5413 70.6545 18.6083C70.7652 18.6307 70.8759 18.6307 70.9866 18.6307C71.1195 18.6307 71.2523 18.6083 71.363 18.586C71.4516 18.5636 71.5402 18.5189 71.6066 18.4518C71.7173 18.34 71.7838 18.2059 71.8059 18.0046V17.8481V17.7586H71.363L71.3852 17.8034Z" fill="#7286DF"/>
<path d="M72.6245 17.3551H73.5545V17.0644H72.6245V16.2594H73.5988V15.9688H72.2038L72.1816 18.5402H73.6431V18.2495H72.6245V17.3551Z" fill="#7286DF"/>
<path d="M75.326 17.2898C75.2375 17.245 75.1267 17.178 74.9717 17.1109C74.8389 17.0438 74.706 16.9991 74.5953 16.932C74.4182 16.8426 74.3296 16.7084 74.3296 16.5742C74.3296 16.3283 74.4846 16.2165 74.7725 16.2165C74.9939 16.2165 75.1267 16.3059 75.1489 16.5071V16.6413V16.7084H75.5917V16.6637C75.5917 16.3953 75.5475 16.2165 75.4367 16.1047C75.3039 15.9929 75.0825 15.9258 74.7725 15.9258C74.5289 15.9258 74.3296 15.9705 74.1746 16.0376C73.9753 16.1494 73.8867 16.3283 73.8867 16.5742C73.8867 16.7978 73.9753 16.9767 74.1525 17.1109C74.241 17.178 74.3296 17.2227 74.4625 17.2898L74.7725 17.4239C74.8832 17.4686 74.9717 17.5134 75.0382 17.5804C75.1489 17.6475 75.1932 17.7593 75.1932 17.8935C75.1932 18.0947 75.1046 18.2065 74.9496 18.2512C74.8832 18.2736 74.7946 18.296 74.706 18.296C74.4625 18.296 74.3296 18.2065 74.2853 18.0276C74.2632 17.9606 74.2632 17.8935 74.2632 17.8264V17.6922H73.8203V17.804V18.0053C73.8425 18.2065 73.931 18.363 74.086 18.4525C74.2189 18.5419 74.4182 18.5866 74.6839 18.5866C75.3039 18.5866 75.6139 18.3407 75.6139 17.8935C75.636 17.6252 75.5475 17.4239 75.326 17.2898Z" fill="#7286DF"/>
<path d="M77.3397 17.2898C77.2511 17.245 77.1404 17.178 76.9854 17.1109C76.8526 17.0438 76.7197 16.9991 76.609 16.932C76.4318 16.8426 76.3433 16.7084 76.3433 16.5742C76.3433 16.3283 76.4983 16.2165 76.7861 16.2165C77.0076 16.2165 77.1404 16.3059 77.1626 16.5071V16.6413V16.7084H77.6054V16.6637C77.6054 16.3953 77.5611 16.2165 77.4504 16.1047C77.3176 15.9929 77.0961 15.9258 76.7861 15.9258C76.5426 15.9258 76.3433 15.9705 76.1883 16.0376C75.989 16.1494 75.9004 16.3283 75.9004 16.5742C75.9004 16.7978 75.989 16.9767 76.1661 17.1109C76.2547 17.178 76.3433 17.2227 76.4761 17.2898L76.7861 17.4239C76.8968 17.4686 76.9854 17.5134 77.0518 17.5804C77.1626 17.6475 77.2068 17.7593 77.2068 17.8935C77.2068 18.0947 77.1183 18.2065 76.9633 18.2512C76.8968 18.2736 76.8083 18.296 76.7197 18.296C76.4761 18.296 76.3433 18.2065 76.299 18.0276C76.2768 17.9606 76.2768 17.8935 76.2768 17.8264V17.6922H75.834V17.804V18.0053C75.8561 18.2065 75.9447 18.363 76.0997 18.4525C76.2326 18.5419 76.4318 18.5866 76.6976 18.5866C77.3176 18.5866 77.6276 18.3407 77.6276 17.8935C77.6497 17.6252 77.539 17.4239 77.3397 17.2898Z" fill="#7286DF"/>
</g>
<defs>
<clipPath id="clip0_5_9964">
<rect width="77.1429" height="20" fill="white" transform="translate(0.572266)"/>
</clipPath>
</defs>
</svg>
