<svg width="92" height="20" viewBox="0 0 92 20" fill="none" xmlns="http://www.w3.org/2000/svg">
<path fillRule="evenodd" clipRule="evenodd" d="M88.3345 10.8033L90.8129 14.9337H87.9843L85.6406 11.0511H85.6137V14.9337H83.0545V4.883H86.8798C87.7688 4.82793 88.6578 5.10329 89.3582 5.62648C90.0047 6.20474 90.3549 7.05837 90.3011 7.93953C90.328 8.6004 90.1125 9.26127 89.7353 9.81199C89.4121 10.3352 88.9002 10.6931 88.3345 10.8033ZM87.4725 7.47141C87.3647 7.30619 87.23 7.16851 87.0684 7.0859C86.8798 7.00329 86.6913 6.92068 86.5027 6.89315C86.2872 6.86561 86.0717 6.83808 85.8562 6.83808H85.6137V9.34387H85.8562C86.0717 9.34387 86.2872 9.31634 86.5027 9.2888C86.6913 9.26127 86.8798 9.20619 87.0684 9.09605C87.23 9.01344 87.3647 8.87576 87.4725 8.71054C87.6611 8.35257 87.6611 7.88445 87.4725 7.47141ZM75.8619 4.883H81.4651V7.11344H78.4211V8.73808H81.4382V11.0236H78.4211V12.6482H81.4382V14.9337H75.8349V4.883H75.8619ZM38.848 7.11344H35.8309V8.73808H38.848V11.0236H35.8309V12.6482H38.848V14.9337H33.2447V4.883H38.848V7.11344ZM29.3386 14.9337L26.9949 11.0511H26.968V14.9337H24.4088V4.883H28.2341C29.1231 4.82793 30.0121 5.10329 30.7125 5.62648C31.359 6.20474 31.7092 7.05837 31.6553 7.93953C31.6823 8.6004 31.4668 9.26127 31.0896 9.81199C30.7125 10.3352 30.1468 10.6931 29.5002 10.7758L32.1941 14.9062L29.3386 14.9337ZM28.8537 7.47141C28.746 7.30619 28.6113 7.16851 28.4496 7.0859C28.2611 7.00329 28.0725 6.92068 27.8839 6.89315C27.6684 6.86561 27.4529 6.83808 27.2374 6.83808H26.968V9.34387H27.2104C27.426 9.34387 27.6415 9.31634 27.857 9.2888C28.0455 9.26127 28.2341 9.20619 28.4227 9.09605C28.5843 9.01344 28.719 8.87576 28.8268 8.71054C29.0423 8.35257 29.0423 7.88445 28.8537 7.47141ZM45.5558 5.26851C46.1215 5.51634 46.6064 5.87431 47.0374 6.34242C47.4684 6.81054 47.7917 7.36126 48.0341 7.96706C48.519 9.23373 48.519 10.6105 48.0341 11.8772C47.7917 12.483 47.4684 13.0062 47.0374 13.4743C46.6064 13.9149 46.1215 14.3004 45.5558 14.5482C44.99 14.796 44.3974 14.9337 43.7778 14.9337H40.4374V4.883H43.7778C44.3974 4.883 44.99 5.02069 45.5558 5.26851ZM42.7811 7.11344V12.7308H43.3198C43.67 12.7308 43.9933 12.6758 44.3435 12.5656C44.99 12.3453 45.5019 11.8221 45.7443 11.1613C45.879 10.7758 45.9598 10.3352 45.9598 9.92213C46.0137 9.15112 45.7443 8.40764 45.2594 7.85692C44.7745 7.36126 44.0741 7.0859 43.3737 7.11344H42.7811ZM59.0521 7.11344H56.9239V14.9337H54.3647V7.11344H52.2366V4.91054H59.0251V7.11344H59.0521ZM63.1737 14.9337H60.6145V4.85547H63.1737V14.9337ZM66.11 6.28735C66.568 5.84677 67.0798 5.4888 67.6725 5.26851C68.319 5.02069 68.9925 4.91054 69.666 4.91054C70.528 4.883 71.39 5.13083 72.1443 5.57141C72.8717 6.03953 73.4374 6.72793 73.7876 7.55402L71.5517 8.51779C71.417 8.07721 71.1476 7.6917 70.7974 7.41634C70.4472 7.14097 70.0162 7.00329 69.5851 7.00329C69.2349 7.00329 68.8847 7.0859 68.5884 7.25112C68.2921 7.41634 68.0227 7.63663 67.8341 7.93953C67.6186 8.24242 67.4839 8.54532 67.3762 8.90329C67.1606 9.61924 67.1606 10.3627 67.3762 11.0511C67.4839 11.3816 67.6455 11.712 67.8341 12.0149C68.0227 12.2903 68.2921 12.5105 68.5884 12.6758C68.9117 12.841 69.2619 12.9236 69.6121 12.9236C70.097 12.9511 70.5549 12.7859 70.9321 12.5105C71.2823 12.2076 71.4978 11.7671 71.5247 11.2989H69.5851V9.37141H74.2994C74.2994 10.0598 74.2186 10.7482 74.1109 11.4366C73.9762 12.0424 73.7337 12.5931 73.3835 13.0888C72.9794 13.6946 72.4137 14.1627 71.7672 14.4931C71.0937 14.796 70.3664 14.9613 69.639 14.9613C68.9655 14.9613 68.319 14.8511 67.6725 14.6033C67.0798 14.383 66.568 14.025 66.137 13.5845C65.706 13.1439 65.3558 12.5931 65.1402 12.0149C64.8978 11.3816 64.79 10.6931 64.79 10.0047C64.79 9.2888 64.8978 8.6004 65.1402 7.93953C65.3019 7.27866 65.6521 6.72793 66.11 6.28735Z" fill="#D71920"/>
<path fillRule="evenodd" clipRule="evenodd" d="M13.7942 7.08121C13.7942 7.35657 13.7942 7.65947 13.3902 7.79715C13.1477 7.87976 12.8514 7.52179 12.8244 7.3015C12.9591 7.13628 13.1208 6.9986 13.3093 6.94353C13.6865 6.77831 13.7942 6.75078 13.7942 7.08121ZM6.60159 7.79715C6.17057 7.65947 6.19751 7.35657 6.19751 7.08121C6.19751 6.75078 6.30526 6.77831 6.6824 6.916C6.87098 6.9986 7.03261 7.10875 7.1673 7.27396C7.1673 7.54933 6.87098 7.87976 6.60159 7.79715ZM16.084 15.8102C16.3265 15.6725 16.5689 15.5073 16.7575 15.3145C17.7273 14.2406 17.9159 13.029 18.0506 11.5972C18.0775 11.2392 18.0775 10.8537 18.1044 10.4682C18.1044 10.4131 18.1044 10.1377 18.1314 10.1377C18.2122 10.2203 18.2661 10.3305 18.32 10.4406C18.4277 10.7711 18.5085 11.129 18.5355 11.4595C18.6432 12.1479 18.6702 12.8638 18.5893 13.5522C18.5624 13.8001 18.4816 14.0203 18.3469 14.2406C17.7273 15.287 17.0538 16.2508 16.4073 17.2696C16.3534 17.3522 16.3265 17.187 16.2726 17.1595L16.2187 17.1044C16.084 17.0218 16.0032 17.0218 15.9493 17.0769C15.9224 17.1319 15.8955 17.1595 15.8955 17.2145C15.7338 17.545 15.4644 18.0957 15.2759 18.4537C15.2489 18.5087 15.1681 18.5363 15.1142 18.5087C15.0873 18.4812 15.0604 18.4537 15.0604 18.3986C15.0604 18.0131 15.0604 17.6276 15.0604 17.2145C15.0604 16.9667 15.0604 16.6638 14.7371 16.6638C14.4138 16.6638 14.4138 16.9392 14.4138 17.2145C14.4138 17.4348 14.4138 17.6827 14.4138 17.9305C14.4138 17.9856 14.36 18.0406 14.3061 18.0406C14.2791 18.0406 14.2522 18.0406 14.2522 18.0131C13.9828 17.7928 13.6865 17.6276 13.3632 17.5174C12.8514 17.2972 12.2587 17.3798 11.8008 17.6827L11.8816 17.6276C12.2587 17.2696 12.7975 17.1319 13.3363 17.2421C13.471 17.2696 13.6326 17.2972 13.7673 17.2696C13.8212 17.2696 13.8751 17.2145 13.8751 17.1595V17.1319C13.6865 16.5812 13.04 14.5986 14.333 13.9102C14.36 13.8827 14.3869 13.8551 14.3869 13.8276C14.4408 13.4696 15.0873 11.8725 13.3093 10.8537C13.04 11.1015 12.6898 11.7073 12.2587 12.0653C13.04 12.2305 13.444 11.7624 13.8212 11.4319C13.6595 12.3406 12.9591 12.4232 12.4204 12.7537C12.9053 12.5334 13.3902 12.8363 13.9559 12.5334C13.5518 13.3319 12.7167 12.9464 12.2318 13.3595C12.7167 13.6899 13.1477 13.4972 13.6057 13.4421C13.7404 13.4145 13.8481 13.4421 13.9828 13.4696C13.8751 13.6348 13.7673 13.7725 13.6326 13.8827C13.471 14.0203 13.2555 14.1029 13.0669 14.1856C12.8514 14.2406 12.6359 14.2682 12.4204 14.2131C11.8008 14.0203 11.1812 13.7725 10.5616 13.5247C10.4538 13.4696 10.3461 13.3595 10.3191 13.2218C10.2922 13.029 10.3191 12.8087 10.3191 12.5885C10.2653 12.3131 10.4538 12.0653 10.6963 12.0102C11.2889 11.845 11.7738 11.487 12.151 10.9914C12.2587 10.8261 12.3665 10.6058 12.3934 10.4131C12.3934 10.2203 12.3665 10.0276 12.2857 9.83484C12.2587 9.69715 12.2587 9.53194 12.2857 9.39426V9.33918L12.4204 8.78846C12.4742 8.62324 12.5551 8.45802 12.6898 8.37541L12.7167 8.34788C12.7436 8.34788 12.7436 8.32034 12.7706 8.32034C13.013 8.18266 13.2555 8.10005 13.4979 8.01744C14.3869 7.65947 15.0873 6.88846 15.3836 5.95223C15.4914 5.64933 15.5183 5.29136 15.4644 4.98846C15.3836 5.15368 15.2489 5.51165 15.1681 5.7044C15.0604 5.97976 14.791 6.17252 14.4946 6.14498C13.6865 6.14498 12.8783 6.28266 12.4204 7.16382C12.2318 7.63194 11.8816 8.01744 11.4506 8.23773C11.4506 7.98991 11.4775 7.74208 11.5583 7.49426C11.1812 7.32904 11.3159 7.10875 11.5314 6.88846C11.8008 6.58556 12.0971 6.28266 12.3934 5.95223C12.151 5.89715 11.9085 5.75947 11.7469 5.56672H13.3632C13.3632 5.53918 13.3632 5.53918 13.3632 5.51165C12.8783 5.42904 12.3934 5.23629 11.9624 4.98846C12.7167 4.52034 14.2522 4.74063 14.5216 4.65802C14.5216 4.60295 14.3061 4.54788 14.0906 4.46527C13.5787 4.32759 13.3902 4.30005 12.8783 4.13483C12.3665 3.99715 11.8816 3.77686 11.4236 3.52904H13.5249C12.7975 3.116 12.0163 2.84063 11.2081 2.73049C10.7502 2.70295 10.4 2.70295 10.1306 2.70295C9.83424 2.70295 9.51097 2.70295 9.05302 2.73049C8.24485 2.84063 7.43669 3.116 6.73628 3.52904H8.83751C8.37955 3.77686 7.89465 3.99715 7.38281 4.13483C6.87097 4.27252 6.6824 4.32759 6.17057 4.46527C5.95506 4.54788 5.73955 4.57541 5.73955 4.65802C6.00893 4.74063 7.54444 4.52034 8.29873 4.98846C7.86771 5.23629 7.38281 5.4015 6.89791 5.51165C6.89791 5.53918 6.89791 5.53918 6.89791 5.56672H8.51424C8.32567 5.75947 8.11016 5.86962 7.86771 5.95223C8.16404 6.28266 8.43342 6.58556 8.72975 6.88846C8.94526 7.10875 9.07995 7.32904 8.70281 7.49426C8.78363 7.74208 8.81057 7.98991 8.81057 8.23773C8.37955 8.01744 8.02934 7.63194 7.84077 7.16382C7.38281 6.28266 6.60159 6.14498 5.76648 6.14498C5.47016 6.17252 5.20077 6.0073 5.09302 5.7044C5.0122 5.51165 4.87751 5.15368 4.79669 4.98846C4.74281 5.31889 4.76975 5.64933 4.87751 5.95223C5.17383 6.88846 5.8473 7.65947 6.76322 8.01744C7.00567 8.10005 7.27506 8.2102 7.49057 8.32034C7.51751 8.32034 7.51751 8.34788 7.54444 8.34788L7.57138 8.37541C7.70608 8.48556 7.81383 8.62324 7.84077 8.78846L7.97546 9.33918V9.39426C8.02934 9.53194 8.02934 9.69715 7.97546 9.83484C7.92159 10.0276 7.86771 10.2203 7.86771 10.4131C7.92159 10.6334 8.0024 10.8261 8.11016 10.9914C8.46036 11.487 8.9722 11.845 9.56485 12.0102C9.83424 12.0653 9.99587 12.3131 9.942 12.5885C9.91506 12.8087 9.96894 13.029 9.942 13.2218C9.91506 13.3595 9.8073 13.4696 9.69955 13.5247C9.07996 13.7725 8.46036 14.0203 7.84077 14.2131C7.62526 14.2682 7.40975 14.2682 7.19424 14.1856C6.97873 14.1305 6.79016 14.0203 6.62853 13.8827C6.49383 13.745 6.38608 13.6073 6.27832 13.4696C6.41302 13.4421 6.52077 13.4421 6.65546 13.4421C7.08648 13.4972 7.54444 13.6624 8.02934 13.3595C7.51751 12.9189 6.70934 13.3319 6.30526 12.5334C6.87097 12.8363 7.35587 12.5609 7.84077 12.7537C7.27506 12.4232 6.57465 12.3406 6.43995 11.4319C6.8171 11.7624 7.22118 12.2305 8.0024 12.0653C7.57138 11.6798 7.22118 11.1015 6.95179 10.8537C5.17383 11.8725 5.82036 13.4696 5.87424 13.8276C5.87424 13.8551 5.90118 13.9102 5.92812 13.9102C7.22118 14.5986 6.57465 16.5812 6.38608 17.1319C6.38608 17.1595 6.38608 17.2145 6.38608 17.2421C6.41301 17.2696 6.43995 17.2972 6.46689 17.2972C6.60159 17.2972 6.76322 17.2972 6.89791 17.2696C7.40975 17.1595 7.94853 17.2972 8.35261 17.6551L8.43342 17.7102C7.97546 17.3798 7.38281 17.3247 6.87098 17.545C6.54771 17.6551 6.25138 17.8203 5.98199 18.0406C5.92812 18.0682 5.8473 18.0682 5.82036 18.0131C5.82036 17.9856 5.79342 17.9856 5.79342 17.958C5.79342 17.6827 5.79342 17.4624 5.79342 17.2421C5.79342 16.9943 5.76649 16.6914 5.47016 16.6914C5.14689 16.6914 5.14689 16.9943 5.14689 17.2421C5.14689 17.6276 5.14689 18.0131 5.14689 18.4261C5.14689 18.4812 5.09301 18.5363 5.03914 18.5363C5.0122 18.5363 4.95832 18.5087 4.93138 18.4812C4.74281 18.1232 4.47342 17.5725 4.31179 17.2421C4.28485 17.187 4.25791 17.1595 4.25791 17.1044C4.1771 17.0493 4.12322 17.0769 3.98853 17.1319L3.93465 17.187C3.90771 17.2145 3.85383 17.3798 3.79995 17.2972C3.15342 16.2783 2.47995 15.3145 1.86036 14.2682C1.75261 14.0479 1.67179 13.8276 1.61791 13.5798C1.5371 12.8914 1.56403 12.1754 1.67179 11.487C1.69873 11.129 1.77955 10.7986 1.8873 10.4682C1.94118 10.358 1.99506 10.2479 2.07587 10.1653C2.10281 10.1653 2.10281 10.4406 2.10281 10.4957C2.12975 10.8812 2.10281 11.2392 2.15669 11.6247C2.26444 13.0566 2.45302 14.2682 3.44975 15.3421C3.63832 15.5624 3.88077 15.7276 4.12322 15.8377C4.1771 15.8653 4.25791 15.8377 4.25791 15.7827C4.25791 15.7551 4.25791 15.7276 4.25791 15.7001C3.96159 15.0943 3.63832 14.4609 3.39587 13.8276C3.15342 13.1667 2.99179 12.4783 2.80322 11.8174C2.77628 11.7624 2.83016 11.7073 2.88403 11.6798C2.91097 11.6798 2.93791 11.6798 2.93791 11.6798C3.07261 11.7348 3.26118 11.8174 3.42281 11.8725C3.47669 11.9001 3.5575 11.8725 3.5575 11.8174C3.5575 11.7899 3.5575 11.7624 3.5575 11.7348C3.36893 11.074 2.77628 9.17396 2.77628 9.17396C2.80322 9.22904 3.15342 9.75222 3.18036 9.77976C3.47669 10.2479 3.71914 10.7435 3.93465 11.2392C4.0424 11.5145 4.12322 11.7073 4.15016 11.7899C4.1771 11.845 4.1771 11.8725 4.15016 11.9276C3.63832 12.3682 4.0424 13.1943 4.25791 13.4421C4.55424 13.8001 4.76975 14.2131 4.87751 14.6812C4.90444 14.7638 4.95832 14.9015 4.98526 15.0392C5.0122 15.0943 5.06608 15.1218 5.11995 15.0943C5.17383 15.0667 5.20077 15.0392 5.20077 14.9841C5.17383 14.4059 5.06608 13.6073 4.87751 13.4145C4.58118 13.1392 4.63506 12.1754 4.98526 12.0102C5.28159 11.845 5.3624 11.6798 5.20077 11.4044C5.17383 11.3493 5.17383 11.2667 5.22771 11.2392L6.62853 10.4131C6.6824 10.3856 6.70934 10.303 6.6824 10.2479C6.65546 10.2203 6.62853 10.1928 6.60159 10.1928C6.11669 10.1377 5.63179 10.3029 5.25465 10.6058C4.95832 10.7711 4.58118 10.6885 4.41955 10.3856C4.39261 10.358 4.36567 10.303 4.36567 10.2479C4.33873 10.1653 4.31179 10.1102 4.28485 10.0276C4.25791 9.97252 4.31179 9.91744 4.39261 9.88991C5.06608 9.72469 5.17383 9.66962 5.22771 9.47686C5.22771 9.42179 5.20077 9.36672 5.14689 9.33918C5.14689 9.33918 5.14689 9.33918 5.11995 9.33918C4.87751 9.36672 4.63506 9.33918 4.41955 9.25657C4.28485 9.11889 4.20404 8.95368 4.1771 8.76092C4.15016 8.70585 4.20404 8.65078 4.25791 8.62324C4.28485 8.62324 4.31179 8.62324 4.33873 8.62324C4.58118 8.73339 4.63506 8.73339 4.76975 8.62324C4.82363 8.5957 4.82363 8.5131 4.79669 8.45802C4.76975 8.43049 4.74281 8.37541 4.68893 8.34788C4.1771 7.93483 3.42281 5.73194 3.44975 5.07107C3.26118 5.23628 3.09955 5.48411 3.01873 5.73194C2.47995 5.51165 2.07587 5.42904 2.15669 4.68556L2.74934 4.98846C2.74934 4.98846 2.77628 4.76817 2.45302 4.49281C1.77955 3.91455 1.67179 3.14353 1.64485 2.31744C1.61791 1.9044 1.91424 1.54643 2.29138 1.51889C2.45302 1.51889 2.58771 1.54643 2.7224 1.62904C4.0424 2.26237 5.8473 2.89571 7.32893 2.70295H7.38281C8.32567 2.5102 9.26853 2.40005 10.2114 2.40005C11.1542 2.40005 12.0971 2.5102 13.04 2.70295H13.0938C14.5755 2.89571 16.4073 2.26237 17.7004 1.62904C18.0506 1.40875 18.4816 1.51889 18.6971 1.87686C18.7779 2.01455 18.8049 2.17976 18.8049 2.31744C18.7779 3.14353 18.6702 3.91455 17.9967 4.49281C17.6734 4.76817 17.7004 4.98846 17.7004 4.98846L18.293 4.68556C18.3738 5.45657 17.9698 5.51165 17.431 5.73194C17.3502 5.48411 17.1885 5.23628 17 5.07107C17.0269 5.73194 16.2457 7.93483 15.7608 8.34788C15.7338 8.37541 15.68 8.40295 15.653 8.45802C15.6261 8.48556 15.6261 8.51309 15.6261 8.54063C15.6261 8.56817 15.653 8.5957 15.68 8.62324C15.8146 8.73339 15.8685 8.73339 16.111 8.62324C16.1649 8.5957 16.2457 8.62324 16.2457 8.67831C16.2457 8.70585 16.2457 8.73339 16.2457 8.76092C16.2187 8.95368 16.1379 9.11889 16.0032 9.25657C15.7877 9.33918 15.5453 9.36672 15.3028 9.33918C15.2489 9.33918 15.1951 9.39426 15.1951 9.44933C15.1951 9.44933 15.1951 9.44933 15.1951 9.47686C15.222 9.69715 15.3298 9.72469 16.0302 9.88991C16.084 9.91744 16.1379 9.94498 16.1379 10.0276C16.111 10.1102 16.084 10.1653 16.0571 10.2479C15.9493 10.5783 15.5991 10.7711 15.2759 10.6609C15.222 10.6334 15.1951 10.6334 15.1412 10.6058C14.764 10.3029 14.2791 10.1653 13.7942 10.1928C13.7404 10.1928 13.6865 10.2479 13.7134 10.3305C13.7134 10.358 13.7404 10.3856 13.7673 10.4131L15.1681 11.2392C15.222 11.2667 15.2489 11.3493 15.1951 11.4044C15.0334 11.6798 15.1142 11.845 15.4106 12.0102C15.7338 12.1754 15.7877 13.1392 15.5183 13.4145C15.3298 13.6073 15.222 14.3783 15.1951 14.9841C15.1951 15.0392 15.2489 15.0943 15.3028 15.0943C15.3567 15.0943 15.3836 15.0667 15.4106 15.0116C15.4644 14.874 15.4914 14.7363 15.5183 14.6537C15.6261 14.2131 15.8416 13.7725 16.1379 13.4145C16.3534 13.1667 16.7575 12.3406 16.2457 11.9001C16.2187 11.8725 16.2187 11.8174 16.2457 11.7624C16.2995 11.6522 16.3804 11.4595 16.4612 11.2116C16.6767 10.716 16.9191 10.2203 17.2155 9.75223C17.2424 9.69715 17.5926 9.17397 17.6195 9.14643C17.6195 9.14643 17.0269 11.0464 16.8383 11.7073C16.8114 11.7624 16.8653 11.8174 16.9191 11.845C16.9461 11.845 16.973 11.845 17 11.845C17.1346 11.7899 17.3232 11.7073 17.4849 11.6522C17.5387 11.6247 17.5926 11.6522 17.6195 11.7348C17.6195 11.7624 17.6195 11.7899 17.6195 11.7899C17.431 12.4783 17.2693 13.1392 17.0269 13.8001C16.7844 14.4334 16.4612 15.0392 16.1649 15.6725C16.1379 15.7276 16.1649 15.8102 16.2187 15.8377C16.0032 15.8102 16.0571 15.8102 16.084 15.8102ZM6.89791 10.7435L6.84404 10.7711C6.87097 10.7711 6.89791 10.7711 6.89791 10.7435ZM4.25791 2.56527C2.7224 2.42759 2.99179 3.61165 3.28812 4.30005L3.53057 4.7131C3.5575 4.74063 3.5575 4.74063 3.5575 4.76817C3.93465 5.7044 4.25791 7.68701 6.11669 8.43049C6.03587 8.37542 5.98199 8.34788 5.90118 8.29281C5.3624 7.82469 4.93138 7.24643 4.60812 6.6131C3.77302 4.90585 3.98853 3.83194 3.90771 3.41889C4.06934 3.47397 4.63506 3.61165 4.74281 3.63918C4.74281 3.61165 3.74608 3.17107 3.44975 3.00585C3.58444 2.92324 3.71914 2.86817 3.88077 2.84063C4.5273 2.75802 4.76975 2.97831 5.20077 3.03339C5.4971 3.06092 5.76648 3.03339 6.03587 2.97831L4.25791 2.56527ZM13.0938 10.7435C13.1208 10.7435 13.1208 10.7711 13.1477 10.7711L13.0938 10.7435ZM16.4073 4.7957C16.4342 4.76817 16.4342 4.74063 16.4612 4.74063L16.7036 4.32759C17 3.63918 17.2963 2.45513 15.7338 2.59281L13.902 3.06092C14.1714 3.14353 14.4677 3.14353 14.7371 3.116C15.1681 3.06092 15.4106 2.84063 16.0571 2.92324C16.2187 2.95078 16.3534 3.00585 16.4881 3.08846C16.1918 3.25368 15.1951 3.69425 15.1951 3.72179C15.3028 3.69425 15.8685 3.55658 16.0302 3.5015C15.9224 3.94208 16.1379 4.98846 15.3298 6.6957C15.0065 7.32904 14.5755 7.9073 14.0367 8.37541C13.9559 8.43049 13.902 8.48556 13.8212 8.5131C15.7069 7.71454 16.0302 5.73194 16.4073 4.7957ZM9.99587 10.8537C9.78036 10.8537 9.53791 10.8537 9.21465 10.8537C8.94526 10.8537 8.64893 10.7986 8.40648 10.6885C8.27179 10.5783 8.19098 10.4131 8.21791 10.2203C8.24485 9.97252 8.54118 9.8073 8.54118 9.8073C8.54118 10.358 8.99914 10.5232 9.99587 10.5232C10.9926 10.5232 11.4506 10.358 11.4506 9.8073C11.4506 9.8073 11.7469 9.97252 11.7738 10.2203C11.8008 10.3856 11.7469 10.5783 11.5853 10.6885C11.3159 10.7986 11.0465 10.8537 10.7771 10.8537C10.4538 10.8537 10.2114 10.8537 9.99587 10.8537ZM9.99587 16.8566C10.0228 17.6 8.78363 17.6551 7.73302 17.0218C7.67914 16.8015 7.78689 16.3885 7.67914 16.3058C7.49057 16.1682 7.22118 16.3334 7.03261 16.4711C6.84404 16.6087 6.73628 16.829 6.54771 16.9667C6.62853 15.8377 7.73302 14.7914 9.4571 14.7087C9.64567 14.7087 9.83424 14.6812 10.0228 14.6812C10.2114 14.6812 10.4 14.6812 10.5885 14.7087C12.2857 14.8189 13.4171 15.8377 13.4979 16.9667C13.3093 16.829 13.2016 16.6087 13.013 16.4711C12.8244 16.3609 12.5551 16.1957 12.3665 16.3058C12.2318 16.3885 12.3665 16.774 12.3126 17.0218C11.2081 17.6551 9.96893 17.5725 9.99587 16.8566Z" fill="#D71920"/>
</svg>
