<svg width="87" height="41" viewBox="0 0 87 41" fill="none" xmlns="http://www.w3.org/2000/svg">
<g clip-path="url(#clip0_5_9997)">
<path d="M74.1252 16.315C69.8899 16.5714 71.7806 22.2124 76.4697 21.9048C81.0579 21.6227 78.6378 16.033 74.1252 16.315Z" fill="#F19021"/>
<path d="M72.3318 12.8477C64.7688 12.8477 58.668 19.0784 58.668 26.7451C58.668 34.4374 64.794 40.6425 72.3318 40.6425C79.8949 40.6425 85.9957 34.4118 85.9957 26.7451C85.9957 19.0784 79.8697 12.8477 72.3318 12.8477ZM72.3318 39.2066C65.5755 39.2066 60.1049 33.6425 60.1049 26.7707C60.1049 19.8989 65.5755 14.3348 72.3318 14.3348C79.0881 14.3348 84.5587 19.8989 84.5587 26.7707C84.5587 33.6169 79.0881 39.2066 72.3318 39.2066Z" fill="#F19021"/>
<path d="M71.9055 3.13412C68.6534 5.62129 69.2332 9.46745 69.2332 9.46745C69.2332 9.46745 67.1912 4.08283 64.5442 0.800781C64.1912 5.03155 65.5021 10.6469 65.5021 10.6469C65.5021 10.6469 63.8383 7.15976 59.7794 6.98027C63.1576 8.95463 64.4685 12.4931 64.7458 13.4674C66.687 12.2367 68.9811 11.4931 71.4013 11.4162C71.1492 10.4931 70.1912 6.7495 71.9055 3.13412Z" fill="#F68B2A"/>
<path d="M1.77081 28.1054V31.0028H0.585938V23.5156H3.08174C3.93888 23.5156 4.56913 23.7208 4.9977 24.131C5.42627 24.5413 5.62795 25.1054 5.62795 25.8233C5.62795 26.5413 5.40106 27.0797 4.97249 27.49C4.54392 27.9002 3.88846 28.1054 3.08174 28.1054H1.77081ZM4.44308 25.8233C4.44308 25.3874 4.31703 25.0797 4.09014 24.849C3.86325 24.6182 3.4851 24.5156 2.95569 24.5156H1.77081V27.131H2.95569C3.93888 27.131 4.44308 26.6951 4.44308 25.8233Z" fill="white"/>
<path d="M10.5699 31.0341L8.72952 28.0341H7.87237V31.0341H6.6875V23.5469H9.28414C10.1161 23.5469 10.7715 23.752 11.2001 24.1623C11.6287 24.5725 11.8556 25.1366 11.8556 25.8289C11.8556 26.4187 11.7043 26.9058 11.3766 27.2648C11.0488 27.6494 10.5951 27.8802 9.96481 27.9828L11.906 31.0341H10.5699ZM7.89758 27.1623H9.20851C10.1665 27.1623 10.6455 26.7264 10.6455 25.8546C10.6455 25.4443 10.5194 25.111 10.2925 24.9059C10.0657 24.6751 9.6875 24.5725 9.20851 24.5725H7.89758V27.1623Z" fill="white"/>
<path d="M17.3259 29.3825H14.2251L13.6705 30.9979H12.3848L15.1075 23.6133H16.4688L19.1663 30.9979H17.8806L17.3259 29.3825ZM16.9982 28.4594L15.7881 24.9466L14.5528 28.4594H16.9982Z" fill="white"/>
<path d="M25.1905 24.1314C25.7704 24.5673 26.1737 25.1571 26.3502 25.9263H25.0897C24.9384 25.5161 24.6611 25.2084 24.3082 24.952C23.9552 24.7212 23.5015 24.593 22.9973 24.593C22.5435 24.593 22.1149 24.6955 21.762 24.9263C21.409 25.1571 21.1065 25.4648 20.9048 25.8494C20.7031 26.2596 20.6023 26.7212 20.6023 27.2853C20.6023 27.8494 20.7031 28.3622 20.9048 28.7725C21.1065 29.1827 21.409 29.4904 21.7872 29.7212C22.1653 29.9263 22.6191 30.0545 23.0981 30.0545C23.7031 30.0545 24.2326 29.8494 24.6863 29.4648C25.1149 29.0802 25.3922 28.5417 25.4678 27.875H22.7704V26.9776H26.4763V28.1314C26.4006 28.6955 26.1989 29.1827 25.8964 29.6443C25.5939 30.1058 25.1905 30.4648 24.6863 30.7212C24.1821 30.9776 23.6275 31.1314 22.972 31.1314C22.2662 31.1314 21.6107 30.9776 21.0813 30.6443C20.5267 30.3109 20.0981 29.875 19.7956 29.2853C19.4931 28.6955 19.3418 28.0545 19.3418 27.3109C19.3418 26.5673 19.4931 25.9007 19.7956 25.3366C20.0981 24.7468 20.5267 24.3109 21.0561 23.9776C21.6107 23.6443 22.241 23.4904 22.9468 23.4904C23.8796 23.4648 24.6107 23.6699 25.1905 24.1314Z" fill="white"/>
<path d="M34.8945 23.6406V31.0252H33.6844V25.4868L31.592 31.0252H30.5584L28.4407 25.4868V31.0252H27.2559V23.6406H28.6928L31.0878 29.5381L33.4575 23.6406H34.8945Z" fill="white"/>
<path d="M40.7205 29.3825H37.6196L37.065 30.9979H35.7793L38.502 23.6133H39.8633L42.5608 30.9979H41.2751L40.7205 29.3825ZM40.3927 28.4594L39.1827 24.9466L37.9726 28.4594H40.3927Z" fill="white"/>
<path d="M47.6533 23.5156V24.49H45.5861V31.0028H44.376V24.49H42.334V23.5156H47.6533Z" fill="white"/>
<path d="M49.4954 23.5156V31.0028H48.3105V23.5156H49.4954Z" fill="white"/>
<path d="M56.2245 24.1554C56.8295 24.617 57.2329 25.258 57.4345 26.0529H56.174C55.9976 25.5913 55.7203 25.2324 55.3421 24.976C54.964 24.7196 54.5102 24.5657 53.9556 24.5657C53.527 24.5657 53.1236 24.6683 52.7707 24.899C52.4177 25.1298 52.1656 25.4375 51.964 25.8478C51.7623 26.258 51.6614 26.7196 51.6614 27.2837C51.6614 27.8221 51.7623 28.2837 51.964 28.6939C52.1656 29.1042 52.443 29.4119 52.7707 29.6426C53.1236 29.8734 53.5018 29.976 53.9556 29.976C54.5102 29.976 54.964 29.8478 55.3421 29.5657C55.7203 29.3093 55.9976 28.9503 56.174 28.4888H57.4345C57.2329 29.2837 56.8295 29.9247 56.2245 30.3862C55.6194 30.8478 54.8631 31.0785 53.9808 31.0785C53.2749 31.0785 52.6698 30.9247 52.1404 30.5913C51.611 30.258 51.1824 29.8221 50.9051 29.2324C50.6026 28.6426 50.4766 28.0016 50.4766 27.258C50.4766 26.5144 50.6278 25.8478 50.9051 25.2837C51.2077 24.6939 51.611 24.258 52.1404 23.9247C52.6698 23.5913 53.3001 23.4375 53.9808 23.4375C54.8631 23.4375 55.6194 23.6939 56.2245 24.1554Z" fill="white"/>
<path d="M63.0579 28.1054V31.0028H61.873V23.5156H64.3688C65.226 23.5156 65.8562 23.7208 66.2848 24.131C66.7134 24.5413 66.9151 25.1054 66.9151 25.8233C66.9151 26.5413 66.6882 27.0797 66.2596 27.49C65.831 27.9002 65.1756 28.1054 64.3688 28.1054H63.0579ZM65.705 25.8233C65.705 25.3874 65.5789 25.0797 65.352 24.849C65.1251 24.6182 64.747 24.5156 64.2176 24.5156H63.0327V27.131H64.2176C65.226 27.131 65.705 26.6951 65.705 25.8233Z" fill="white"/>
<path d="M68.9778 30.0853H71.5241V31.0341H67.793V23.5469H68.9778V30.0853Z" fill="white"/>
<path d="M76.9705 29.3825H73.8696L73.315 30.9979H72.0293L74.752 23.6133H76.1133L78.8108 30.9979H77.5251L76.9705 29.3825ZM76.6427 28.4594L75.4327 24.9466L74.2226 28.4594H76.6427Z" fill="white"/>
<path d="M83.6046 23.5156L81.1592 28.2849V31.0028H79.9491V28.2849L77.4785 23.5156H78.8651L80.5541 26.9772L82.2432 23.5156H83.6046Z" fill="white"/>
</g>
<defs>
<clipPath id="clip0_5_9997">
<rect width="85.7143" height="40" fill="white" transform="translate(0.433594 0.71875)"/>
</clipPath>
</defs>
</svg>
