<svg width="83" height="30" viewBox="0 0 83 30" fill="none" xmlns="http://www.w3.org/2000/svg">
<g clip-path="url(#clip0_5_10019)">
<path d="M16.0644 14.4463C16.5258 13.7631 16.7429 12.9706 16.7429 12.1234V6.05628C16.7429 5.91963 16.7429 5.78299 16.7429 5.67367C16.6344 4.55317 16.2001 3.62398 15.3858 2.85876C14.5715 2.09355 13.5944 1.71094 12.4815 1.71094H8.49152V14.419H16.0644V14.4463ZM13.4044 4.99044C13.6758 5.2364 13.8115 5.56435 13.8658 5.94696C13.8658 5.97429 13.8658 6.02895 13.8658 6.05628V12.1234C13.8658 12.5333 13.7301 12.8612 13.4315 13.1345C13.1601 13.4078 12.8072 13.5445 12.4272 13.5445H11.2872V4.60783H12.4272C12.8072 4.60783 13.1329 4.74448 13.4044 4.99044Z" fill="white"/>
<path d="M17.0144 17.5068C16.9601 16.7689 16.7429 16.1403 16.3629 15.5391H8.49152V28.2471H12.7529C13.9201 28.2471 14.9244 27.8372 15.7658 26.99C16.6072 26.1428 17.0144 25.1316 17.0144 23.9291V17.862C17.0144 17.7527 17.0144 17.6161 17.0144 17.5068ZM14.1372 23.9291C14.1372 24.3391 14.0015 24.667 13.7029 24.9403C13.4315 25.2136 13.1058 25.3502 12.7258 25.3502H11.3144V16.4136H12.7529C13.1058 16.4136 13.4315 16.5502 13.7029 16.7962C13.9744 17.0422 14.1101 17.3701 14.1644 17.7527C14.1644 17.7801 14.1644 17.8347 14.1644 17.862L14.1372 23.9291Z" fill="white"/>
<path d="M70.6013 14.4229H73.4784V4.61175H76.0299L76.057 1.74219H67.7784L67.7513 4.61175H70.6013V14.4229Z" fill="#FAE307"/>
<path d="M73.4509 15.5117H70.6009V28.2471H73.4509V15.5117Z" fill="#FAE307"/>
<path d="M66.6628 14.4229V13.5484H62.0757V4.61175H66.6628L66.69 1.74219H59.1985V14.4229H66.6628Z" fill="#FAE307"/>
<path d="M59.1985 15.5117V28.2471H62.0757V16.4409H66.69L66.6628 15.5117H59.1985Z" fill="#FAE307"/>
<path d="M51.596 14.4229V6.0602C51.596 5.65026 51.7317 5.32231 52.0303 5.04902C52.3017 4.77573 52.6546 4.63908 53.0346 4.63908C53.4146 4.63908 53.7403 4.77573 54.0117 5.02169C54.2832 5.26765 54.4189 5.5956 54.4732 5.97821C54.4732 6.00554 54.4732 6.0602 54.4732 6.08753V14.4503H57.296V6.08753C57.296 5.95088 57.296 5.84157 57.296 5.70492C57.2146 4.58442 56.7532 3.65523 55.9389 2.89001C55.1246 2.1248 54.1746 1.74219 53.0617 1.74219C51.8946 1.74219 50.8903 2.17945 50.076 3.02666C49.2617 3.87386 48.8275 4.88504 48.8275 6.08753V14.4503H51.596V14.4229Z" fill="#FAE307"/>
<path d="M54.4474 15.5117V23.9291C54.4474 24.339 54.3117 24.667 54.0131 24.9403C53.7417 25.2136 53.3888 25.3502 53.0088 25.3502C52.6288 25.3502 52.3031 25.2136 52.0317 24.9676C51.7602 24.7216 51.6245 24.3937 51.5702 24.0111C51.5702 23.9838 51.5702 23.9291 51.5702 23.9018V15.4844H48.7474V23.9018C48.7474 24.0384 48.7474 24.1477 48.7474 24.2844C48.8288 25.4049 49.2902 26.3341 50.1045 27.0993C50.9188 27.8645 51.8688 28.2471 52.9817 28.2471C54.1488 28.2471 55.1531 27.8098 55.9674 26.9626C56.7817 26.1154 57.2159 25.1043 57.2159 23.9018V15.4844H54.4474V15.5117Z" fill="#FAE307"/>
<path d="M39.9291 14.4347H44.5977C44.082 13.9974 43.5663 13.5601 43.0506 13.1502C42.1277 12.303 41.612 11.2372 41.5034 9.92535C41.4763 9.70672 41.4763 9.48808 41.4763 9.26945L41.5034 6.09926C41.5034 5.68933 41.6391 5.36137 41.9377 5.08808C42.2091 4.81479 42.5349 4.67814 42.9149 4.67814C43.2949 4.67814 43.6206 4.81479 43.892 5.06075C44.1634 5.30672 44.2991 5.63467 44.3263 6.01728C44.3263 6.0446 44.3263 6.09926 44.3263 6.12659V8.14895H47.1491V6.12659C47.1491 5.98995 47.1491 5.88063 47.1491 5.74398C47.0677 4.62349 46.6063 3.69429 45.792 2.92908C44.9777 2.16386 44.0277 1.78125 42.9149 1.78125C41.7477 1.78125 40.7434 2.21852 39.902 3.03839C39.0606 3.8856 38.6534 4.89678 38.6263 6.09926V10.144C38.6263 10.4719 38.6263 10.7999 38.6534 11.1005C38.762 12.4123 39.1963 13.5328 39.9291 14.4347Z" fill="#FAE307"/>
<path d="M45.7645 15.5234H41.0959C41.6387 15.988 42.1816 16.4253 42.7245 16.8899C43.6473 17.7371 44.1087 18.8029 44.2173 20.1147C44.2445 20.3334 44.2173 20.798 44.2444 20.7706V23.9408C44.2444 24.3508 44.1087 24.6787 43.8102 24.952C43.5387 25.2253 43.1859 25.3619 42.8059 25.3619C42.4259 25.3619 42.1002 25.2253 41.8287 24.9793C41.5573 24.7334 41.4216 24.4054 41.3673 24.0228C41.3673 23.9955 41.3673 23.9408 41.3673 23.9135L41.3944 21.8911H38.5716V23.9135C38.5716 24.0501 38.5716 24.1595 38.5716 24.2961C38.653 25.4166 39.1145 26.3458 39.9287 27.111C40.743 27.8762 41.693 28.2588 42.8059 28.2588C43.973 28.2588 44.9773 27.8489 45.8187 27.0017C46.6602 26.1545 47.0673 25.1433 47.0944 23.9408V19.8961C47.0944 19.5682 47.0945 19.2402 47.0673 18.9396C46.9587 17.5731 46.5245 16.4253 45.7645 15.5234Z" fill="#FAE307"/>
<path d="M31.3513 14.4229H34.2013V4.61175H36.7527V1.74219H28.5013V4.61175H31.3513V14.4229Z" fill="white"/>
<path d="M31.3526 15.5117L31.3255 28.2471H34.1755L34.2026 15.5117H31.3526Z" fill="white"/>
<path d="M26.4894 14.4229V13.5484H21.9023V4.61175H26.4623V1.74219H19.0794V14.4229H26.4894Z" fill="white"/>
<path d="M21.9294 16.4409H26.4623V15.5117H19.0794V28.2471H26.4623L26.4894 25.3776H21.9294V16.4409Z" fill="white"/>
<path d="M0.813782 19.8931V9.91797L5.80807 14.9739L0.813782 19.8931Z" fill="#FAE307"/>
<path d="M82.1362 19.9713V9.99609L77.1419 14.97L82.1362 19.9713Z" fill="#FAE307"/>
</g>
<defs>
<clipPath id="clip0_5_10019">
<rect width="82.8571" height="28.5714" fill="white" transform="translate(0.0481567 0.714844)"/>
</clipPath>
</defs>
</svg>
