<svg width="81" height="25" viewBox="0 0 81 25" fill="none" xmlns="http://www.w3.org/2000/svg">
<g clip-path="url(#clip0_5_10046)">
<path d="M28.9089 6.41123C28.4778 7.60884 28.0227 8.80644 27.5916 9.9801C27.3042 10.7226 26.9928 11.4412 26.7054 12.1837C26.5137 12.6627 26.3461 13.1657 26.1545 13.6687C25.9149 14.2675 25.6754 14.8663 25.4359 15.4651C25.2443 15.9442 25.1006 16.4232 24.9329 16.9023C24.9089 16.9741 24.8131 17.046 24.7652 17.0939C24.6934 17.022 24.5976 16.9741 24.5497 16.9023C23.903 15.2496 23.2802 13.5969 22.6335 11.9681C22.2742 11.0579 21.891 10.1478 21.5317 9.23758C21.2203 8.47111 20.9329 7.68069 20.5497 6.91423C20.5497 7.01004 20.5497 7.10584 20.5497 7.20165C20.5497 9.59686 20.5497 11.9921 20.5497 14.3873C20.5497 14.7945 20.5736 15.2017 20.6694 15.6088C20.8371 16.4232 21.0766 16.6148 21.891 16.7106C21.9389 16.7106 21.9868 16.7346 22.0586 16.7346C22.0586 16.8543 22.0586 16.9741 22.0586 17.0939C20.8131 17.0939 19.5676 17.0939 18.1784 17.0939C18.2982 16.9262 18.3461 16.7346 18.4419 16.7106C19.7113 16.4951 19.6874 16.0879 19.8311 15.0579C19.8551 14.9382 19.8311 14.7945 19.8311 14.6747C19.8311 11.9442 19.8311 9.23758 19.8311 6.50704C19.8311 6.48309 19.8311 6.45914 19.8311 6.43518C19.8311 5.26153 19.5916 5.02201 18.4419 4.90225C18.4179 4.90225 18.37 4.8783 18.3461 4.8783C18.3461 4.75854 18.3461 4.66273 18.3461 4.54297C19.4 4.54297 20.4539 4.54297 21.5317 4.54297C22.7533 7.70465 23.9988 10.8663 25.2682 14.1238C26.4658 10.8663 27.6395 7.7286 28.8131 4.56692C29.867 4.56692 30.9209 4.56692 32.0227 4.56692C32.0227 4.66273 32.0227 4.78249 32.0467 4.85435C31.7113 4.95016 31.4 5.02201 31.1125 5.14177C30.6814 5.33339 30.6814 5.74057 30.6814 6.09985C30.6574 7.39327 30.6574 8.66273 30.6574 9.95614C30.6574 11.6807 30.6574 13.4052 30.6574 15.1298C30.6574 16.3993 30.7772 16.519 32.0227 16.7346C32.0227 16.8543 32.0227 16.9502 32.0227 17.0939C30.5377 17.0939 29.0527 17.0939 27.5676 17.0939C27.4479 16.8304 27.5437 16.7106 27.8311 16.6867C28.6455 16.6148 28.885 16.3753 28.9329 15.5609C28.9808 14.5789 28.9808 13.5729 28.9808 12.5909C28.9808 10.5789 28.9808 8.56692 28.9808 6.55495C28.9808 6.50704 28.9568 6.45914 28.9568 6.41123C28.9568 6.43518 28.9329 6.43518 28.9089 6.41123Z" fill="#5B70E8"/>
<path d="M9.96346 17.0958C9.96346 16.9521 9.96346 16.8084 9.96346 16.6647C10.2509 16.6168 10.5623 16.5449 10.8736 16.497C11.2569 16.4491 11.4245 16.1856 11.4006 15.8503C11.3766 15.4431 11.3048 15.012 11.185 14.6287C10.8736 13.6946 10.5383 12.7605 10.203 11.8024C9.26885 11.8024 8.35867 11.8024 7.44849 11.8024C6.56226 11.8024 5.65208 11.8024 4.69399 11.8024C4.33471 12.976 3.95148 14.1736 3.61615 15.3713C3.44849 16.018 3.78382 16.4012 4.43052 16.5689C4.694 16.6407 5.02933 16.6647 5.02933 17.0958C3.6401 17.0958 2.27483 17.0958 0.885612 17.0958C0.885612 16.9521 0.885612 16.8084 0.885612 16.6407C1.74789 16.5449 2.17903 15.9222 2.46645 15.1796C3.0892 13.5509 3.71196 11.9222 4.28681 10.2934C4.95747 8.4491 5.60418 6.60479 6.27483 4.78443C6.70597 3.49101 7.18501 2.22155 7.6401 0.928139C7.73591 0.616762 7.87962 0.473049 8.21495 0.592809C8.59819 1.5988 8.98142 2.60479 9.36465 3.63473C9.72394 4.64071 10.0593 5.6467 10.4185 6.65269C10.8976 7.92215 11.4245 9.16766 11.9036 10.4132C12.5263 12.018 13.1251 13.6228 13.7239 15.2275C13.7718 15.3234 13.8197 15.4192 13.8676 15.515C14.1072 16.1856 14.5383 16.6168 15.3048 16.6168C15.3048 16.7844 15.3048 16.9281 15.3048 17.0958C13.5084 17.0958 11.7359 17.0958 9.96346 17.0958ZM9.8437 10.7964C9.05328 8.54491 8.26286 6.34131 7.44849 4.04191C6.63411 6.34131 5.86765 8.56886 5.07723 10.7964C6.65807 10.7964 8.21495 10.7964 9.8437 10.7964Z" fill="#5B70E8"/>
<path d="M80.0718 14.9863C78.1316 17.8366 74.5867 18.124 72.3352 16.1599C71.2095 15.1779 70.5867 13.8845 70.3712 12.4234C70.1556 10.9623 70.1795 9.50125 70.7304 8.11203C71.3292 6.53119 72.3113 5.23777 73.94 4.61502C75.1137 4.15993 76.2873 4.18388 77.4849 4.54316C77.7963 4.63897 78.1077 4.75873 78.443 4.85454C78.8023 4.95035 79.1616 4.78268 79.3532 4.47131C79.4011 4.39945 79.473 4.35155 79.5448 4.30364C79.5927 4.3755 79.7125 4.44735 79.7125 4.51921C79.7364 4.71083 79.7604 4.9264 79.7604 5.11801C79.7843 6.14795 79.8322 7.17789 79.8562 8.20783C79.8562 8.32759 79.7604 8.4234 79.7125 8.54316C79.6167 8.44736 79.473 8.35155 79.449 8.23179C79.0179 6.93837 78.4909 5.71682 77.0778 5.21382C76.2394 4.90245 75.4011 4.99825 74.5867 5.38149C73.437 5.90843 72.934 6.93837 72.5987 8.04017C72.0239 9.90843 71.976 11.8246 72.6227 13.6689C73.0778 14.9623 73.8682 16.0162 75.3293 16.3755C76.6227 16.6869 77.7724 16.3515 78.8023 15.5372C79.0658 15.3216 79.3532 15.13 79.5688 14.8665C79.7604 14.6749 79.9041 14.7228 80.0718 14.9863Z" fill="#5B70E8"/>
<path d="M46.9221 16.7593C46.9221 16.903 46.8982 16.9988 46.8982 17.0946C45.5329 17.0946 44.1676 17.0946 42.8263 17.0946C42.8263 16.9748 42.8263 16.879 42.8263 16.7593C43.0179 16.7353 43.2335 16.7114 43.4251 16.6635C43.8802 16.5676 44.0239 16.376 43.9042 15.9209C43.6886 15.1066 43.3772 14.2922 43.1616 13.4778C43.0419 13.0946 42.8742 12.9748 42.467 12.9748C41.3652 13.0227 40.2634 12.9988 39.1616 12.9748C38.8503 12.9748 38.7065 13.0227 38.6107 13.382C38.467 14.0527 38.2036 14.6994 37.988 15.3461C37.9401 15.4898 37.9161 15.6335 37.8922 15.7533C37.8443 16.2802 38.0598 16.5676 38.5868 16.6395C38.7065 16.6635 38.8503 16.6635 38.97 16.6874C38.97 16.8072 38.97 16.9269 38.97 17.0467C37.8922 17.0467 36.8383 17.0467 35.7604 17.0467C35.7604 16.9269 35.7604 16.8311 35.7604 16.7114C36.4311 16.5916 36.7904 16.1605 37.0059 15.5377C37.4131 14.3641 37.8922 13.2144 38.3233 12.0407C39.2574 9.50178 40.1437 6.9389 41.0778 4.37603C41.1976 4.35208 41.3173 4.35208 41.461 4.32812C41.8443 5.38202 42.2036 6.43591 42.5868 7.4898C43.0179 8.6395 43.473 9.76525 43.9042 10.891C44.3592 12.0647 44.7904 13.2383 45.2215 14.412C45.3892 14.891 45.5329 15.394 45.7485 15.8491C45.988 16.376 46.3712 16.6874 46.9221 16.7593ZM39.0419 12.2323C40.3113 12.2323 41.5089 12.2323 42.7544 12.2323C42.1317 10.5078 41.5329 8.80717 40.8862 7.03471C40.2634 8.78321 39.6646 10.4599 39.0419 12.2323Z" fill="#5B70E8"/>
<path d="M52.5287 5.28445C51.8102 5.35631 51.1156 5.40421 50.4688 5.50002C50.0138 5.57188 49.6784 5.8593 49.5347 6.29044C49.3671 6.76948 49.2233 7.27248 49.0796 7.77547C49.0078 7.77547 48.888 7.77547 48.7682 7.79942C48.7682 6.72158 48.7682 5.66769 48.7682 4.58984C51.8341 4.58984 54.8521 4.58984 57.9419 4.58984C57.9419 5.64374 57.9419 6.69763 57.9419 7.79942C57.7503 7.84733 57.6066 7.82338 57.5587 7.512C57.5108 7.12877 57.3431 6.74553 57.2233 6.38625C57.0557 5.83535 56.6485 5.52398 56.0976 5.45212C55.4748 5.38026 54.8521 5.35631 54.1814 5.30841C54.1814 5.42817 54.1814 5.47607 54.1814 5.54793C54.1814 8.80541 54.1814 12.0629 54.1814 15.3204C54.1814 15.512 54.2293 15.7036 54.2293 15.8952C54.2293 16.3743 54.5647 16.5419 54.9479 16.6377C55.1874 16.6857 55.4269 16.7336 55.6904 16.7575C55.6904 16.8773 55.6904 16.9731 55.6904 17.0928C54.1335 17.0928 52.5766 17.0928 51.0197 17.0928C50.9 16.8054 51.0437 16.7096 51.3311 16.6856C51.4988 16.6856 51.6904 16.6138 51.8581 16.5659C52.385 16.4461 52.4329 15.991 52.4808 15.5599C52.5048 15.3443 52.5048 15.1048 52.5048 14.8892C52.5048 11.7755 52.5048 8.6617 52.5048 5.54793C52.5287 5.50002 52.5287 5.42817 52.5287 5.28445Z" fill="#5B70E8"/>
<path d="M66.4434 4.56641C66.4434 4.68617 66.4434 4.78197 66.4434 4.87778C66.2279 4.90173 66.0362 4.94964 65.8446 4.97359C65.2698 5.0694 65.0542 5.26102 64.9584 5.83587C64.9105 6.05143 64.9105 6.267 64.9105 6.48257C64.9105 9.38078 64.9105 12.255 64.9105 15.1532C64.9105 15.2011 64.9105 15.2251 64.9105 15.273C64.9105 16.3748 65.1261 16.6143 66.2039 16.7341C66.2758 16.7341 66.3716 16.758 66.4434 16.782C66.4434 16.9017 66.4434 16.9975 66.4434 17.1173C64.8386 17.1173 63.2818 17.1173 61.677 17.1173C61.677 16.9975 61.677 16.9017 61.653 16.782C61.7728 16.758 61.8925 16.7341 62.0123 16.7341C62.9225 16.6622 63.186 16.3748 63.2339 15.4886C63.2339 15.3448 63.2339 15.2011 63.2339 15.0574C63.2339 12.255 63.2339 9.47658 63.2339 6.67419C63.2339 6.48257 63.2339 6.267 63.2099 6.07539C63.0901 5.28497 62.9464 5.16521 62.156 5.02149C62.0123 4.99754 61.8446 4.97359 61.677 4.94964C61.677 4.85383 61.677 4.75802 61.653 4.63826C63.2578 4.56641 64.8386 4.56641 66.4434 4.56641Z" fill="#5B70E8"/>
<path d="M0.383484 18.7762C0.383484 18.6565 0.383484 18.5846 0.383484 18.4648C26.9224 18.4648 53.4374 18.4648 79.9763 18.4648C79.9763 18.5607 79.9763 18.6565 79.9763 18.7762C53.4613 18.7762 26.9464 18.7762 0.383484 18.7762Z" fill="#5B70E8"/>
<path d="M8.8138 22.3438C8.8138 23.0145 8.8138 23.7091 8.8138 24.3797C8.62219 24.3797 8.43057 24.3797 8.23895 24.3797C8.23895 23.0863 8.23895 21.8169 8.23895 20.5234C8.43057 20.5234 8.57428 20.5234 8.78985 20.5234C8.98147 21.1941 9.19704 21.8648 9.43656 22.6312C9.43656 21.8887 9.43656 21.218 9.43656 20.5234C9.62817 20.5234 9.81979 20.5234 10.0114 20.5234C10.0114 21.7929 10.0114 23.0624 10.0114 24.3558C9.84374 24.3558 9.65213 24.3558 9.46051 24.3558C9.26889 23.6851 9.05332 22.9905 8.86171 22.2959C8.83775 22.3198 8.83776 22.3438 8.8138 22.3438Z" fill="#5B70E8"/>
<path d="M53.3148 22.701C53.3148 23.2519 53.3148 23.8028 53.3148 24.3776C53.0993 24.3776 52.9076 24.3776 52.6921 24.3776C52.6921 23.1082 52.6921 21.8387 52.6921 20.5692C53.1472 20.5692 53.6262 20.5453 54.1052 20.5692C54.3687 20.5932 54.5124 20.7848 54.4885 21.0722C54.4645 21.3836 54.4885 21.695 54.4885 22.0064C54.4885 22.174 54.4166 22.3177 54.3687 22.5094C54.7041 23.0842 54.3208 23.7788 54.6082 24.4016C54.4166 24.4016 54.225 24.4016 53.9615 24.4016C53.9615 23.8507 53.9615 23.2758 53.9615 22.701C53.6981 22.701 53.5065 22.701 53.3148 22.701ZM53.3148 20.9525C53.3148 21.4076 53.3148 21.8147 53.3148 22.2219C53.5065 22.2219 53.6741 22.2219 53.8657 22.2219C53.8657 21.7908 53.8657 21.3836 53.8657 20.9525C53.6741 20.9525 53.5065 20.9525 53.3148 20.9525Z" fill="#5B70E8"/>
<path d="M17.2214 24.4013C17.2214 23.1079 17.2214 21.8385 17.2214 20.545C17.6525 20.545 18.1076 20.5211 18.5387 20.569C18.8262 20.593 19.0417 20.7846 19.0178 21.1199C18.9938 22.0061 19.0178 22.9163 19.0178 23.8025C19.0178 24.2097 18.8501 24.3774 18.4429 24.4013C18.0357 24.4013 17.6525 24.4013 17.2214 24.4013ZM18.395 20.9762C18.2034 20.9762 18.0118 20.9762 17.8202 20.9762C17.8202 21.9822 17.8202 22.9642 17.8202 23.9462C18.0357 23.9462 18.2034 23.9462 18.395 23.9462C18.395 22.9403 18.395 21.9582 18.395 20.9762Z" fill="#5B70E8"/>
<path d="M28.0007 20.5469C28.0007 21.6247 28.0247 22.6786 27.9768 23.7325C27.9768 23.9002 27.8331 24.1157 27.6893 24.2355C27.354 24.499 26.9708 24.475 26.5875 24.3313C26.2762 24.2115 26.1804 23.9481 26.1804 23.6127C26.2043 22.6068 26.1804 21.5768 26.1804 20.5469C26.372 20.5469 26.5636 20.5469 26.7792 20.5469C26.7792 21.6726 26.7792 22.8223 26.7792 23.972C26.9947 23.972 27.1624 23.972 27.354 23.972C27.354 22.8463 27.354 21.6966 27.354 20.5469C27.5935 20.5469 27.7851 20.5469 28.0007 20.5469Z" fill="#5B70E8"/>
<path d="M78.2766 23.3977C78.4921 23.3977 78.6838 23.3977 78.8754 23.3977C78.8754 23.5893 78.8754 23.757 78.8754 23.9486C79.067 23.9486 79.2586 23.9486 79.4502 23.9486C79.4502 23.5414 79.4502 23.1342 79.4502 22.6791C79.2826 22.6791 79.0909 22.6791 78.8993 22.6791C78.4682 22.6791 78.2526 22.4636 78.2526 22.0324C78.2526 21.8169 78.2526 21.6013 78.2526 21.3857C78.2526 20.7869 78.54 20.5234 79.1868 20.5234C79.8095 20.5234 80.073 20.7869 80.073 21.3618C80.073 21.4097 80.073 21.4576 80.073 21.5294C79.8814 21.5294 79.6897 21.5294 79.4981 21.5294C79.4981 21.3618 79.4981 21.1701 79.4981 20.9785C79.3065 20.9785 79.1388 20.9785 78.9233 20.9785C78.9233 21.3857 78.9233 21.7929 78.9233 22.248C79.0909 22.248 79.2826 22.248 79.4742 22.248C79.9532 22.2719 80.073 22.4157 80.073 22.8947C80.073 23.1582 80.073 23.4456 80.073 23.7091C80.073 24.0923 79.8814 24.2839 79.4981 24.3318C79.3065 24.3558 79.0909 24.4276 78.8993 24.3797C78.3484 24.236 78.2287 24.0444 78.2766 23.3977Z" fill="#5B70E8"/>
<path d="M35 23.8868C35.2395 23.8868 35.4072 23.8868 35.6228 23.8868C35.6228 24.0784 35.6228 24.2461 35.6228 24.4377C35.8144 24.4377 36.006 24.4377 36.1976 24.4377C36.1976 24.0305 36.1976 23.6233 36.1976 23.1682C36.006 23.1682 35.8144 23.1682 35.6228 23.1682C35.1916 23.1682 35.0479 23.0006 35.0479 22.5934C35.0479 22.282 35.0719 21.9946 35.0479 21.6832C35.024 21.3958 35.1677 21.2281 35.3832 21.1323C35.7665 20.9407 36.1497 20.9646 36.509 21.1562C36.8922 21.3479 36.8683 21.6832 36.8204 22.0425C36.6287 22.0425 36.4371 22.0425 36.2216 22.0425C36.2216 21.8509 36.2216 21.6832 36.2216 21.4916C36.006 21.4916 35.8383 21.4916 35.6228 21.4916C35.6228 21.8988 35.6228 22.3299 35.6228 22.7371C35.8862 22.761 36.1497 22.761 36.4132 22.8089C36.6527 22.8329 36.7964 22.9527 36.7725 23.2401C36.7485 23.6233 36.7725 24.0065 36.7725 24.3898C36.7725 24.4856 36.7485 24.5814 36.7006 24.6533C36.3653 25.0604 35.3593 25.0365 35.1198 24.5814C35 24.3658 35.024 24.1263 35 23.8868Z" fill="#5B70E8"/>
<path d="M71.2326 20.5234C71.2326 20.6672 71.2326 20.7869 71.2326 20.9306C70.8494 20.9306 70.4662 20.9306 70.0829 20.9306C70.0829 21.3857 70.0829 21.7929 70.0829 22.224C70.3464 22.224 70.6338 22.224 70.9213 22.224C70.9213 22.3678 70.9213 22.5115 70.9213 22.6552C70.6338 22.6552 70.3704 22.6552 70.0829 22.6552C70.0829 23.0863 70.0829 23.4935 70.0829 23.9486C70.3464 23.9486 70.6099 23.9486 70.8973 23.9486C71.2087 23.9246 71.3045 24.0444 71.2326 24.3797C70.8254 24.3797 70.3943 24.4037 69.9871 24.3797C69.6039 24.3558 69.4362 24.1642 69.4362 23.7809C69.4362 22.9186 69.4362 22.0564 69.4362 21.1941C69.4362 20.6911 69.6039 20.5234 70.1069 20.5234C70.4662 20.5234 70.8494 20.5234 71.2326 20.5234Z" fill="#5B70E8"/>
<path d="M44.5267 24.3792C44.5267 23.2535 44.5267 22.1277 44.5267 20.978C44.3351 20.978 44.1435 20.9541 43.9518 20.9541C43.9518 20.8103 43.9518 20.6906 43.9518 20.5469C44.5506 20.5469 45.1255 20.5469 45.7243 20.5469C45.7243 20.6666 45.7243 20.7864 45.7483 20.9541C45.5327 20.9541 45.365 20.978 45.1494 20.978C45.1494 22.1277 45.1494 23.2295 45.1494 24.3792C44.9339 24.3792 44.7662 24.3792 44.5267 24.3792Z" fill="#5B70E8"/>
<path d="M61.6784 20.5234C61.894 20.5234 62.0616 20.5234 62.2772 20.5234C62.2772 21.7929 62.2772 23.0624 62.2772 24.3558C62.0856 24.3558 61.894 24.3558 61.6784 24.3558C61.6784 23.1103 61.6784 21.8408 61.6784 20.5234Z" fill="#5B70E8"/>
<path d="M0.479187 20.5469C0.694756 20.5469 0.862421 20.5469 1.05404 20.5469C1.05404 21.8403 1.05404 23.0858 1.05404 24.3792C0.886373 24.3792 0.694756 24.3792 0.479187 24.3792C0.479187 23.1097 0.479187 21.8403 0.479187 20.5469Z" fill="#5B70E8"/>
</g>
<defs>
<clipPath id="clip0_5_10046">
<rect width="80" height="23.9521" fill="white" transform="translate(0.238953 0.550781)"/>
</clipPath>
</defs>
</svg>
