<svg width="81" height="29" viewBox="0 0 81 29" fill="none" xmlns="http://www.w3.org/2000/svg">
<g clip-path="url(#clip0_5_10155)">
<path d="M42.4107 0.226562H41.5908V28.3508H42.4107V22.9346H52.6716V19.6551H44.7958V15.8787H51.5535V12.5744H44.7958V8.92221H52.6716V5.61787H42.4107V0.226562ZM10.5101 16.2514L7.60324 11.5309L3.87653 5.6924L3.82684 5.64271H0.746094V22.9346H4.17466V12.3011L6.73367 16.4502L10.8579 22.9346H13.9883V5.64271H10.5349L10.5101 16.2514ZM15.9014 22.9346H27.2306V19.6551H19.3548V15.8787H26.1126V12.5744H19.3548V8.92221H27.2306V5.61787H15.9014V22.9346ZM28.6467 8.9719H32.6219V22.9595H36.0753V8.9719H40.0256V5.64271H28.6467V8.9719ZM64.1747 16.2763L61.2678 11.5558L57.5411 5.71725L57.4914 5.64271H54.3858V22.9346H57.8144V12.3011L60.3734 16.4502L64.4976 22.9346H67.6281V5.66756H64.1747V16.2763ZM69.0442 5.66756V8.99675H73.0194V22.9843H76.4728V8.99675H80.4231V5.66756H69.0442Z" fill="white"/>
</g>
<defs>
<clipPath id="clip0_5_10155">
<rect width="80" height="28.323" fill="white" transform="translate(0.572266 0.121094)"/>
</clipPath>
</defs>
</svg>
