<svg width="81" height="17" viewBox="0 0 81 17" fill="none" xmlns="http://www.w3.org/2000/svg">
<g clip-path="url(#clip0_5_10161)">
<path d="M0.277472 15.956C0.277472 15.9328 0.254216 15.9095 0.254216 15.8862C0.254216 12.2816 0.254216 8.67694 0.277472 5.07229C0.277472 3.81647 0.114681 2.56066 0.417007 1.3281C0.812356 0.886241 1.27747 0.793218 1.83561 1.07229C3.32398 1.79322 4.7891 2.5374 6.25422 3.28159C8.51003 4.39787 10.7426 5.5374 12.9984 6.65368C13.6961 7.00252 14.3938 7.35136 15.1147 7.70019C15.5333 7.9095 15.8124 8.23508 15.8356 8.72345C15.8589 9.21182 15.6031 9.58392 15.1612 9.81647C13.6961 10.5607 12.231 11.2816 10.7658 12.0025C9.25422 12.7467 7.74259 13.5141 6.25422 14.2583C5.62631 14.5839 5.09142 14.5607 4.71933 14.0955C4.55654 13.8862 4.41701 13.6072 4.41701 13.3514C4.39375 11.7932 4.39375 10.2583 4.41701 8.7002C4.41701 8.09554 4.90538 7.63043 5.53329 7.63043C6.16119 7.63043 6.64956 8.09554 6.64956 8.7002C6.64956 9.46764 6.64956 10.2583 6.64956 11.0258C6.64956 11.1653 6.64956 11.2816 6.64956 11.5141C8.48677 10.5839 10.2775 9.7002 12.0449 8.81647C12.0449 8.76996 12.0682 8.74671 12.0682 8.7002C8.85887 7.09554 5.64956 5.49089 2.37049 3.86299C2.37049 4.1188 2.37049 4.28159 2.37049 4.42113C2.37049 8.09554 2.37049 11.77 2.37049 15.4444C2.37049 15.9793 2.13794 16.3281 1.69608 16.4909C1.25422 16.6769 0.765844 16.5374 0.417007 16.1421C0.370495 16.0955 0.323983 16.0258 0.277472 15.956Z" fill="#F7052D"/>
<path d="M57.4641 12.1921C56.6734 12.1921 55.8827 12.1921 55.092 12.1921C54.6269 12.1921 54.3013 11.8898 54.3013 11.4945C54.3013 11.0991 54.6036 10.8433 55.092 10.8433C56.5571 10.8433 58.0455 10.8433 59.5106 10.8433C59.999 10.8433 60.0687 10.7503 60.0687 10.2619C60.0687 9.44795 60.0687 9.44795 59.2315 9.44795C58.1152 9.44795 56.9757 9.42469 55.8594 9.44795C54.8362 9.49446 53.9757 8.63399 54.0687 7.68051C54.092 7.44795 54.0687 7.21539 54.0687 6.95958C54.0687 5.98283 54.7664 5.28516 55.7432 5.28516C57.3245 5.28516 58.8827 5.28516 60.4641 5.28516C60.7664 5.28516 61.0455 5.40144 61.1152 5.68051C61.185 5.88981 61.1618 6.19213 61.0455 6.37818C60.9524 6.54097 60.6501 6.63399 60.4408 6.65725C58.9525 6.68051 57.4641 6.68051 55.9757 6.68051C55.4873 6.68051 55.4408 6.72702 55.4408 7.21539C55.4408 8.16888 55.3711 8.0526 56.2548 8.0526C57.185 8.0526 58.1152 8.09911 59.0222 8.0526C60.5804 7.95958 61.5804 8.54097 61.4408 10.4712C61.4176 10.9363 61.3245 11.3549 60.999 11.7038C60.6734 12.0526 60.278 12.2154 59.8129 12.2386C59.0455 12.2154 58.2548 12.1921 57.4641 12.1921Z" fill="white"/>
<path d="M66.928 12.1921C66.2536 12.1921 65.6024 12.1921 64.928 12.1921C63.9745 12.1921 63.3001 11.4945 63.3001 10.5642C63.3001 9.33167 63.3001 8.12237 63.3001 6.88981C63.3001 6.00609 63.9978 5.28516 64.8815 5.28516C66.2536 5.28516 67.6024 5.28516 68.9745 5.28516C69.9048 5.28516 70.6489 6.00609 70.6489 6.93632C70.6722 8.14562 70.6722 9.33167 70.6489 10.541C70.6257 11.4945 69.9048 12.1921 68.9745 12.1921C68.9513 12.1921 68.9513 12.1921 68.928 12.1921C68.2769 12.1921 67.6024 12.1921 66.928 12.1921ZM66.9745 6.65725C66.3699 6.65725 65.742 6.65725 65.1373 6.65725C64.8117 6.65725 64.6722 6.77353 64.6722 7.12237C64.6955 8.21539 64.6955 9.28516 64.6722 10.3782C64.6722 10.7038 64.7885 10.8433 65.1141 10.8433C66.3466 10.8433 67.5792 10.8433 68.835 10.8433C69.1373 10.8433 69.2769 10.727 69.2769 10.4014C69.2769 9.30841 69.2536 8.21539 69.2769 7.14562C69.2769 6.77353 69.1141 6.65725 68.7885 6.68051C68.1606 6.68051 67.5792 6.65725 66.9745 6.65725Z" fill="white"/>
<path d="M78.5558 9.88981C78.5558 8.58748 78.5558 7.35492 78.5558 6.09911C78.5558 5.58748 78.7883 5.30841 79.2302 5.28516C79.6721 5.28516 79.9279 5.56423 79.9279 6.07585C79.9279 7.8433 79.9279 9.63399 79.9279 11.4014C79.9279 11.727 79.8581 11.9828 79.5325 12.1456C79.2069 12.2852 78.9279 12.1921 78.6721 11.9596C77.3697 10.7503 76.0907 9.56423 74.7883 8.37818C74.5325 8.14562 74.2767 7.91306 73.9511 7.63399C73.9279 7.8433 73.9279 7.95957 73.9279 8.09911C73.9279 9.19213 73.9279 10.3084 73.9279 11.4014C73.9279 11.9596 73.6953 12.2386 73.2302 12.2386C72.7883 12.2386 72.5325 11.9363 72.5325 11.4014C72.5325 9.65725 72.5325 7.88981 72.5325 6.14562C72.5325 5.79679 72.6256 5.54097 72.9511 5.37818C73.3 5.21539 73.579 5.35492 73.8349 5.58748C75.3697 7.00609 76.9046 8.42469 78.4162 9.8433C78.4395 9.8433 78.486 9.8433 78.5558 9.88981Z" fill="white"/>
<path d="M22.2755 9.93632C22.2755 10.4712 22.2988 10.9828 22.2755 11.4712C22.2523 12.0526 21.6709 12.4014 21.229 12.0759C21.0662 11.9596 20.9034 11.6805 20.9034 11.4712C20.8802 9.65725 20.8802 7.82004 20.8802 6.00609C20.8802 5.54097 21.1593 5.28516 21.6011 5.28516C23.136 5.28516 24.6476 5.28516 26.1825 5.28516C26.95 5.28516 27.6476 5.86655 27.7407 6.63399C27.8104 7.21539 27.8104 7.82004 27.7639 8.37818C27.6709 9.33167 26.9965 9.88981 26.043 9.88981C24.9034 9.88981 23.7407 9.88981 22.6011 9.88981C22.5081 9.91306 22.4151 9.93632 22.2755 9.93632ZM22.2755 8.49446C23.5779 8.49446 24.8802 8.49446 26.1593 8.4712C26.229 8.4712 26.3686 8.28516 26.3686 8.16888C26.3918 7.82004 26.3686 7.4712 26.3918 7.12237C26.4151 6.75027 26.2523 6.63399 25.9034 6.65725C24.8802 6.65725 23.8569 6.65725 22.8337 6.65725C22.6476 6.65725 22.4616 6.65725 22.2755 6.65725C22.2755 7.28516 22.2755 7.86655 22.2755 8.49446Z" fill="white"/>
<path d="M41.2793 7.37701C40.4188 8.84212 39.5816 10.284 38.7211 11.7258C38.6048 11.9351 38.349 12.1444 38.1397 12.1677C37.9537 12.191 37.6514 12.0514 37.5118 11.9119C37.3025 11.7026 37.3258 11.4003 37.4886 11.1212C37.9304 10.377 38.349 9.63282 38.7909 8.88864C39.3955 7.86538 40.0002 6.81887 40.6048 5.79561C40.9769 5.16771 41.5816 5.12119 41.9537 5.7491C43.0002 7.5398 44.0467 9.3305 45.0932 11.1212C45.256 11.4003 45.3025 11.7258 45.07 11.9584C44.9304 12.1212 44.6281 12.2375 44.4188 12.2142C44.2327 12.191 44.0002 12.0049 43.8839 11.8189C43.07 10.4933 42.3025 9.12119 41.5118 7.79561C41.4421 7.63282 41.3723 7.51654 41.2793 7.37701Z" fill="white"/>
<path d="M48.7422 8.60767C49.626 7.60767 50.4632 6.63093 51.3236 5.65418C51.6957 5.23558 52.0911 5.16581 52.4167 5.46814C52.7422 5.77046 52.7422 6.18907 52.3702 6.58441C51.4632 7.63093 50.5329 8.65418 49.626 9.72395C49.5097 9.84023 49.4632 10.0495 49.4399 10.2123C49.4167 10.6309 49.4399 11.0263 49.4167 11.4449C49.3934 11.91 49.1143 12.1891 48.719 12.1891C48.3004 12.1891 48.0213 11.8867 48.0213 11.4216C48.0213 11.0263 48.0446 10.6309 48.0213 10.2123C47.9981 10.0263 47.9283 9.79372 47.812 9.65418C46.905 8.58442 45.9748 7.5379 45.0446 6.49139C44.7655 6.16581 44.7655 5.7007 45.0446 5.44488C45.3469 5.16581 45.7655 5.18907 46.0678 5.5379C46.8353 6.37511 47.5795 7.23558 48.3236 8.09604C48.4632 8.28209 48.6027 8.42163 48.7422 8.60767Z" fill="white"/>
<path d="M30.9769 10.8448C31.4653 10.8448 31.9071 10.8448 32.349 10.8448C33.2327 10.8448 34.0932 10.8448 34.9769 10.8448C35.535 10.8448 35.7908 11.0541 35.7908 11.5192C35.7908 11.9844 35.535 12.2169 34.9769 12.2169C33.4653 12.2169 31.9536 12.2169 30.442 12.2169C30.4187 12.2169 30.3955 12.2169 30.3722 12.2169C29.8606 12.2169 29.6048 11.9611 29.6048 11.4495C29.6048 9.65878 29.6048 7.84483 29.6048 6.05413C29.6048 5.61227 29.8606 5.30994 30.256 5.30994C30.6746 5.28669 30.9769 5.56576 30.9769 6.03087C30.9769 7.47273 30.9769 8.93785 30.9769 10.3797C30.9769 10.5192 30.9769 10.6588 30.9769 10.8448Z" fill="white"/>
<path d="M0.417252 1.32422C0.114926 2.55678 0.277717 3.81259 0.277717 5.0684C0.254461 8.67306 0.254461 12.2777 0.254461 15.8824C0.231205 15.7428 0.161438 15.6265 0.161438 15.487C0.161438 11.0219 0.161438 6.53352 0.161438 2.06841C0.184694 1.81259 0.324229 1.55678 0.417252 1.32422Z" fill="white"/>
</g>
<defs>
<clipPath id="clip0_5_10161">
<rect width="80" height="15.814" fill="white" transform="translate(0.0462036 0.835938)"/>
</clipPath>
</defs>
</svg>
