<svg width="72" height="39" viewBox="0 0 72 39" fill="none" xmlns="http://www.w3.org/2000/svg">
<g clip-path="url(#clip0_5_10174)">
<path d="M66.9702 38.7097C66.8983 38.6857 66.8503 38.6138 66.7784 38.6138C65.2923 38.3262 63.998 36.912 63.7823 35.4499C63.4946 33.5323 64.5493 31.7826 66.1792 31.1354C67.881 30.4643 69.9903 31.0155 70.9731 32.6215C70.5656 32.8612 70.1581 33.1009 69.7027 33.3645C69.2473 32.6694 68.5522 32.3339 67.7132 32.3099C67.1859 32.2859 66.6586 32.4297 66.2032 32.7413C65.3163 33.3645 64.9568 34.587 65.3642 35.6896C65.7238 36.6483 66.5867 37.3434 68.1447 37.1996C68.9836 37.1277 69.7506 36.5764 69.9184 35.7854C69.1754 35.7854 68.4323 35.7854 67.6893 35.7854C67.6893 35.354 67.6893 34.9225 67.6893 34.4911C67.7612 34.4911 67.8331 34.4671 67.905 34.4671C69.0076 34.4671 70.0862 34.4671 71.1888 34.4671C71.2847 34.4671 71.3805 34.4671 71.4764 34.4432C71.4764 34.8986 71.4764 35.354 71.4764 35.8094C71.4285 35.8813 71.3805 35.9532 71.3805 36.0251C71.1169 37.1038 70.4937 37.8468 69.487 38.3022C69.1754 38.446 68.8158 38.5419 68.4803 38.6618C68.0009 38.7097 67.4735 38.7097 66.9702 38.7097Z" fill="white"/>
<path d="M32.7673 38.7051C32.5036 38.6092 32.216 38.5373 31.9524 38.4175C30.0827 37.6505 29.1 35.685 29.6513 33.7435C30.0588 32.2813 31.0415 31.3465 32.5036 30.963C34.0377 30.5795 35.7155 31.1308 36.6503 32.4731C36.6743 32.521 36.6983 32.569 36.7222 32.6169C36.3148 32.8566 35.8833 33.0963 35.4758 33.336C34.6369 32.1855 33.2227 32.0896 32.2879 32.545C31.3052 33.0244 30.7779 34.127 31.0175 35.3254C31.2093 36.3561 31.9763 37.0752 33.1029 37.195C34.4452 37.3389 35.3081 36.8834 35.7155 35.8048C34.9485 35.8048 34.2055 35.8048 33.4624 35.8048C33.4624 35.3494 33.4624 34.918 33.4624 34.4865C34.7088 34.4865 35.9552 34.4865 37.1777 34.4865C37.3454 35.8767 36.9859 37.267 35.5957 38.1298C35.2122 38.3695 34.7328 38.4654 34.3013 38.6092C34.2774 38.6332 34.2294 38.6332 34.2055 38.6572C33.75 38.7051 33.2467 38.7051 32.7673 38.7051Z" fill="white"/>
<path d="M8.84577 38.7087C8.63004 38.6128 8.41432 38.5409 8.22256 38.4451C7.23982 38.0136 6.7125 37.2466 6.7125 36.1919C6.68853 34.4901 6.7125 32.7643 6.7125 31.0625C7.21585 31.0625 7.69524 31.0625 8.22256 31.0625C8.22256 31.1584 8.22256 31.2303 8.22256 31.3262C8.22256 32.9081 8.22256 34.4661 8.22256 36.0481C8.22256 36.7672 8.67798 37.2466 9.39706 37.2466C9.66072 37.2466 9.94835 37.2226 10.212 37.1507C10.6674 37.0309 10.9551 36.6474 10.9551 36.168C10.9551 34.562 10.9551 32.9561 10.9551 31.3501C10.9551 31.2543 10.9551 31.1584 10.9551 31.0625C11.4584 31.0625 11.9618 31.0625 12.4651 31.0625C12.4651 31.1104 12.4651 31.1584 12.4651 31.2063C12.4651 32.8362 12.4651 34.4901 12.4651 36.12C12.4651 37.3664 11.6981 38.3012 10.4996 38.6128C10.4038 38.6368 10.3319 38.6847 10.236 38.7087C9.7566 38.7087 9.30118 38.7087 8.84577 38.7087Z" fill="white"/>
<path d="M15.6023 38.7031C15.3387 38.6072 15.075 38.5113 14.8113 38.3915C14.1402 38.0799 13.6608 37.5526 13.3972 36.8335C13.8286 36.5938 14.2361 36.3301 14.6675 36.0904C14.8593 36.5219 15.099 36.8814 15.5544 37.0732C16.0578 37.2889 16.5611 37.3129 17.0884 37.1451C17.4 37.0492 17.5918 36.8335 17.6158 36.4979C17.6397 36.1863 17.4959 35.9466 17.2083 35.8268C16.7529 35.635 16.2974 35.4672 15.842 35.3234C15.3387 35.1556 14.8353 34.9639 14.4039 34.6523C14.0204 34.3646 13.8046 33.9572 13.7327 33.4778C13.493 31.7041 14.9312 30.8172 16.2974 30.8651C17.3521 30.9131 18.191 31.3925 18.7423 32.3033C18.7903 32.3752 18.8382 32.4711 18.8861 32.5669C18.4787 32.8066 18.0712 33.0463 17.6397 33.286C17.5438 33.1662 17.4719 33.0463 17.4 32.9265C16.9926 32.3992 16.3214 32.1834 15.6742 32.4231C15.3866 32.519 15.2188 32.7347 15.1949 33.0463C15.1709 33.3579 15.3387 33.6216 15.6263 33.7414C16.1297 33.9572 16.633 34.125 17.1364 34.2927C17.5918 34.4605 18.0232 34.6283 18.4067 34.9399C19.0539 35.4672 19.1977 36.1623 19.0539 36.9294C18.8861 37.8881 18.215 38.3675 17.3281 38.6312C17.2322 38.6552 17.1124 38.7031 17.0165 38.751C16.5371 38.7031 16.0577 38.7031 15.6023 38.7031Z" fill="white"/>
<path d="M0.406921 31.038C1.4376 31.038 2.44431 31.014 3.47499 31.038C4.50567 31.062 5.48842 31.9009 5.72811 32.9555C6.03971 34.3458 5.32063 35.4963 4.14614 35.9517C3.83453 36.0716 3.49896 36.0955 3.18736 36.0955C2.77988 36.1195 2.34844 36.0955 1.91699 36.0955C1.91699 36.9105 1.91699 37.7254 1.91699 38.5644C1.41363 38.5644 0.910277 38.5644 0.43089 38.5644C0.406921 36.0476 0.406921 33.5548 0.406921 31.038ZM1.89302 34.6813C1.94096 34.6813 1.94096 34.7053 1.96493 34.7053C2.39637 34.7053 2.80385 34.7053 3.2353 34.7053C3.7866 34.7053 4.21804 34.3218 4.31392 33.7226C4.38583 33.2192 4.05026 32.572 3.59484 32.5001C3.04355 32.4282 2.46828 32.4762 1.91699 32.4762C1.89302 33.1952 1.89302 33.9383 1.89302 34.6813Z" fill="white"/>
<path d="M47.6032 0.453125C47.5552 1.36396 47.5073 2.22685 47.4354 3.11372C47.3395 4.02455 47.2676 4.95936 47.0758 5.87019C46.8361 7.04469 46.5006 8.19522 46.189 9.34574C46.0452 9.89704 46.0212 9.89704 45.422 9.89704C40.676 9.89704 35.9301 9.89704 31.1842 9.89704C30.9205 9.89704 30.7767 9.8491 30.6808 9.56147C30.4651 8.91429 30.2014 8.26712 29.9857 7.61995C29.9618 7.57201 29.9617 7.50011 29.9378 7.4282C34.6597 7.4282 39.3817 7.4282 44.1036 7.4282C44.4872 5.96607 44.7508 4.52791 44.8707 3.01784C38.7825 3.01784 32.7182 3.01784 26.606 3.01784C27.3491 10.1367 30.4172 16.0572 35.7144 20.827C36.8649 20.06 40.1008 16.3448 40.9637 14.7868C40.8678 14.7868 40.7719 14.7868 40.676 14.7868C38.351 14.7868 36.026 14.7868 33.701 14.7868C33.5332 14.7868 33.4133 14.7388 33.3414 14.595C32.91 13.9239 32.4785 13.2527 32.0471 12.5816C31.9991 12.5097 31.9752 12.4378 31.9272 12.3419C36.3616 12.3419 40.7479 12.3419 45.2062 12.3419C42.9531 17.0159 39.885 20.9948 35.7144 24.1348C28.1161 18.0945 24.1612 10.2326 23.9694 0.453125C31.8793 0.453125 39.7173 0.453125 47.6032 0.453125Z" fill="white"/>
<path d="M48.8956 34.5626C49.375 33.7716 49.8064 33.0285 50.2619 32.2855C50.5016 31.902 50.7173 31.5184 50.957 31.1349C50.9809 31.087 51.0768 31.0391 51.1247 31.0391C51.6041 31.0391 52.0596 31.0391 52.5629 31.0391C52.5629 33.5558 52.5629 36.0487 52.5629 38.5415C52.0835 38.5415 51.6041 38.5415 51.0768 38.5415C51.0768 36.9595 51.0768 35.3775 51.0768 33.7955C51.0528 33.7955 51.0528 33.7955 51.0289 33.7716C50.6454 34.3948 50.2858 34.994 49.9023 35.6172C49.6147 36.0726 49.351 36.552 49.0634 37.0074C48.9196 37.2471 48.8237 37.2231 48.6799 36.9835C48.0327 35.9048 47.3855 34.8502 46.6904 33.7236C46.6904 35.3535 46.6904 36.9355 46.6904 38.5415C46.1871 38.5415 45.6837 38.5415 45.1804 38.5415C45.1804 36.0487 45.1804 33.5558 45.1804 31.0391C45.6837 31.0391 46.1631 31.0391 46.6425 31.0391C46.7144 31.0391 46.7863 31.1349 46.8342 31.2068C47.4814 32.2615 48.1286 33.3161 48.7518 34.3708C48.7997 34.4427 48.8477 34.4906 48.8956 34.5626Z" fill="white"/>
<path d="M62.6807 38.5654C62.3451 38.5654 62.0095 38.5894 61.674 38.5654C61.5781 38.5654 61.4582 38.4456 61.4103 38.3497C60.4276 36.9595 59.4448 35.5453 58.4621 34.1551C58.4381 34.1311 58.4141 34.0832 58.3422 34.0113C58.3422 35.5693 58.3422 37.0554 58.3422 38.5654C57.8389 38.5654 57.3595 38.5654 56.8561 38.5654C56.8561 36.0726 56.8561 33.5798 56.8561 31.0391C57.1917 31.0391 57.5512 31.0391 57.9108 31.0391C57.9827 31.0391 58.0546 31.1349 58.1025 31.1829C59.0134 32.4772 59.9242 33.7476 60.835 35.0419C60.9549 35.1858 61.0508 35.3535 61.2186 35.5693C61.2186 34.0113 61.2186 32.5252 61.2186 31.0391C61.7219 31.0391 62.2013 31.0391 62.7047 31.0391C62.6807 33.5558 62.6807 36.0486 62.6807 38.5654Z" fill="white"/>
<path d="M20.0124 31.0625C20.5157 31.0625 20.9712 31.0625 21.4745 31.0625C21.4745 32.0452 21.4745 33.028 21.4745 34.0347C22.4093 34.0347 23.3202 34.0347 24.255 34.0347C24.255 33.052 24.255 32.0692 24.255 31.0865C24.7583 31.0865 25.2377 31.0865 25.7411 31.0865C25.7411 33.5793 25.7411 36.0721 25.7411 38.5889C25.2617 38.5889 24.7823 38.5889 24.2789 38.5889C24.2789 37.5582 24.2789 36.5275 24.2789 35.4968C23.3441 35.4968 22.4333 35.4968 21.4745 35.4968C21.4745 36.5275 21.4745 37.5582 21.4745 38.5889C20.9712 38.5889 20.4918 38.5889 20.0124 38.5889C20.0124 36.0721 20.0124 33.5793 20.0124 31.0625Z" fill="white"/>
<path d="M38.9504 38.5654C38.423 38.5654 37.8957 38.5654 37.3444 38.5654C38.2313 36.0486 39.0942 33.5558 39.981 31.0391C40.5563 31.0391 41.1316 31.0391 41.7068 31.0391C41.8746 31.0391 41.8746 31.1829 41.9226 31.2788C42.1383 31.878 42.354 32.4772 42.5458 33.0525C43.0491 34.4667 43.5285 35.8809 44.0319 37.2951C44.1757 37.7025 44.3195 38.134 44.4873 38.5654C43.9839 38.5654 43.4806 38.5654 42.9772 38.5654C42.8334 38.1819 42.6896 37.8224 42.5697 37.4389C42.5218 37.2711 42.4499 37.2231 42.2821 37.2231C41.3952 37.2231 40.4844 37.2231 39.5975 37.2231C39.4537 37.2231 39.3818 37.2711 39.3339 37.3909C39.238 37.7744 39.0942 38.1579 38.9504 38.5654ZM39.9091 35.785C40.6282 35.785 41.2994 35.785 41.9945 35.785C41.6349 34.7783 41.2994 33.7955 40.9158 32.7649C40.5803 33.7955 40.2447 34.8022 39.9091 35.785Z" fill="white"/>
<path d="M53.9792 31.0625C54.4586 31.0625 54.938 31.0625 55.4173 31.0625C55.4173 33.5553 55.4173 36.0481 55.4173 38.5649C54.938 38.5649 54.4586 38.5649 53.9792 38.5649C53.9792 36.0721 53.9792 33.5793 53.9792 31.0625Z" fill="white"/>
</g>
<defs>
<clipPath id="clip0_5_10174">
<rect width="71.4286" height="38.3509" fill="white" transform="translate(0.238953 0.40625)"/>
</clipPath>
</defs>
</svg>
