<svg width="73" height="21" viewBox="0 0 73 21" fill="none" xmlns="http://www.w3.org/2000/svg">
<g clip-path="url(#clip0_5_10188)">
<path d="M13.1178 0.558594H2.04425C1.30461 0.558594 0.712891 1.15031 0.712891 1.88996V19.2188C0.712891 19.9584 1.30461 20.5501 2.04425 20.5501H13.1178C13.8574 20.5501 14.4492 19.9584 14.4492 19.2188V1.88996C14.4492 1.17144 13.8574 0.558594 13.1178 0.558594ZM12.1246 11.2306C12.1246 11.9491 11.8921 12.6465 11.4694 13.2171L9.69429 15.6051L11.7442 17.507C11.871 17.6127 11.871 17.8029 11.7653 17.9297C11.7019 17.9931 11.6385 18.0142 11.554 18.0142H8.95465C8.80672 18.0142 8.65879 17.9508 8.55313 17.8663L8.23614 17.5704L7.98254 17.338L7.60215 16.9787L6.63005 16.0911C6.52439 15.9855 6.50325 15.8164 6.58778 15.6896L9.33504 11.9703C9.6309 11.5687 9.79996 11.0616 9.79996 10.5544V7.42673C9.79996 6.43349 9.41957 5.9897 9.27164 5.88404C9.10258 5.75724 8.74332 5.44025 7.58102 5.44025C6.41872 5.44025 6.05947 5.75724 5.89041 5.88404C5.74248 5.9897 5.36209 6.43349 5.36209 7.42673V10.7657C5.36209 11.3151 5.59455 11.8435 5.99607 12.2027L6.92591 13.048C7.03157 13.1537 7.0527 13.3228 6.96817 13.4495L5.86927 14.9288C5.76361 15.0556 5.59455 15.0979 5.44662 14.9922L5.42549 14.9711L4.11526 13.7665C3.43901 13.1326 3.03749 12.245 3.03749 11.3151V6.45462C3.03749 5.05986 3.46014 4.42588 3.9462 4.00323C4.49565 3.51717 5.48888 3.09452 7.55989 3.09452C9.6309 3.09452 10.6241 3.51717 11.1736 4.00323C11.7019 4.42588 12.1246 5.05986 12.1246 6.45462V11.2306Z" fill="#FF7800"/>
<path d="M71.0236 5.97266V11.9743V12.6295L67.8537 6.88136C67.4733 6.20512 67.1985 5.97266 66.7125 5.97266C66.2264 5.97266 65.8672 6.31078 65.8672 7.00816V8.33952V14.3623H66.9872V8.36065V7.70554L70.1571 13.4536C70.5375 14.1299 70.8122 14.3623 71.2983 14.3623C71.8055 14.3623 72.1436 14.0242 72.1436 13.3268V11.9955V5.97266H71.0236Z" fill="#FF7800"/>
<path d="M48.7051 5.98828H47.1624L44.0771 9.28498V5.98828H42.957V14.3568H44.0771V10.9122L44.4152 10.5529L47.247 14.3568H48.7051L45.176 9.72877L48.7051 5.98828Z" fill="#FF7800"/>
<path d="M60.3689 6.47984C59.7349 6.07832 59.0376 5.97266 58.3191 5.97266H56.248V14.3623H57.4103V11.4249H58.3191C59.0164 11.4249 59.7349 11.3404 60.3689 10.9177C61.0029 10.5162 61.5101 9.81881 61.5101 8.69878C61.5101 7.59987 60.9818 6.90249 60.3689 6.47984ZM59.7772 9.98787C59.4602 10.2415 58.9742 10.3894 58.3402 10.3894H57.4315V7.02929H58.3402C58.9953 7.02929 59.4814 7.17722 59.7772 7.43081C60.4957 7.98026 60.6225 9.01577 60.0519 9.71315C59.9674 9.81881 59.8829 9.90334 59.7772 9.98787Z" fill="#FF7800"/>
<path d="M23.7045 13.367C23.8524 13.1768 23.9792 12.9866 24.0849 12.7753C24.3808 12.1624 24.3808 11.4439 24.3808 10.9579V9.30952C24.3808 8.8446 24.3808 8.12608 24.0849 7.4921C23.5566 6.3932 22.5845 5.84375 21.4644 5.84375H21.4222C20.281 5.84375 19.33 6.3932 18.8017 7.4921C18.5059 8.10495 18.5059 8.82346 18.5059 9.30952V10.9579C18.5059 11.4228 18.5059 12.1413 18.8017 12.7753C19.33 13.8742 20.3021 14.4236 21.4433 14.4236C21.8871 14.4236 22.3309 14.3391 22.7113 14.1489L23.62 15.3323H25.2049L23.7045 13.367ZM23.2396 11.0213C23.2396 11.4017 23.2396 11.93 23.0494 12.3315C22.8381 12.7541 22.3731 13.367 21.4222 13.367C20.4712 13.367 20.0063 12.733 19.795 12.3315C19.6048 11.9088 19.6048 11.3171 19.6048 10.9367V9.37291C19.6048 8.99253 19.5836 8.40081 19.795 7.97816C20.0063 7.5555 20.4712 6.94265 21.4222 6.94265C22.3731 6.94265 22.8381 7.57663 23.0494 7.97816C23.2607 8.40081 23.2396 8.99253 23.2396 9.37291V11.0213Z" fill="#FF7800"/>
<path d="M38.2235 7.34648C38.9843 6.77589 39.8718 6.7125 41.2032 7.02949V6.24758C41.2032 6.24758 40.5269 5.86719 39.4703 5.86719C38.4137 5.86719 37.8008 6.14191 37.2936 6.5857C36.7231 7.09288 36.3004 7.87479 36.1736 9.12162C36.1313 9.48088 36.1102 9.84014 36.1313 10.1994C36.1313 10.5587 36.1525 10.9179 36.1736 11.2772C36.3004 12.524 36.7231 13.3059 37.2936 13.8131C37.7797 14.2569 38.3925 14.5316 39.4703 14.5316C40.5481 14.5316 41.2032 14.1512 41.2032 14.1512V13.3693C39.8507 13.6863 38.9843 13.6229 38.2235 13.0523C37.4416 12.4606 37.2936 11.3617 37.2725 10.2205C37.2514 9.07936 37.4627 7.93819 38.2235 7.34648Z" fill="#FF7800"/>
<path d="M52.9748 6.83465C53.5454 6.85578 54.116 6.91918 54.6865 7.00371V6.11614C53.9469 5.92594 53.1861 5.84141 52.4253 5.86254C51.9816 5.88368 51.5378 5.94707 51.1151 6.05274C50.5023 6.2218 50.1641 6.49652 49.9739 6.79238C49.7415 7.15164 49.6781 7.61656 49.826 8.01808V8.03921C49.8471 8.08148 49.8472 8.10261 49.8683 8.14488C50.0796 8.69433 50.4177 9.13811 50.8827 9.6453C51.3898 10.1947 52.4253 11.1669 52.848 11.674C53.1227 12.0122 53.4397 12.456 53.2707 12.8363C53.1016 13.259 52.3197 13.5549 51.411 13.5126C50.8404 13.4915 50.2698 13.4281 49.6992 13.3435V14.2311C49.6992 14.2311 50.4177 14.5481 51.9604 14.4847C53.5031 14.4213 54.1371 13.9986 54.433 13.5549C54.5809 13.3013 54.6654 13.0265 54.6654 12.7518V12.7307C54.6654 12.6884 54.6654 12.625 54.6654 12.5827C54.6443 12.1601 54.5597 11.822 54.0103 11.188C53.3974 10.4906 52.2985 9.43397 51.7914 8.92679L51.6646 8.77886C51.3053 8.39847 50.9038 7.91242 51.094 7.4475C51.2842 6.96145 52.1506 6.81352 52.9748 6.83465Z" fill="#FF7800"/>
<path d="M34.631 5.98828H33.4688V14.3568H34.631V5.98828Z" fill="#FF7800"/>
<path d="M64.1096 5.97266H62.9473V14.3412H64.1096V5.97266Z" fill="#FF7800"/>
<path d="M27.0634 5.98828H25.9434V11.4828C25.9434 12.4549 26.2815 14.4836 28.7963 14.4836C31.3111 14.4836 31.6492 12.4549 31.6492 11.4828V5.98828H30.5292V11.4828C30.5292 13.2368 29.3246 13.4481 28.7963 13.4481C28.268 13.4481 27.0634 13.2368 27.0634 11.4828V5.98828Z" fill="#FF7800"/>
</g>
<defs>
<clipPath id="clip0_5_10188">
<rect width="71.4286" height="20.2874" fill="white" transform="translate(0.712891 0.40625)"/>
</clipPath>
</defs>
</svg>
