<svg width="81" height="25" viewBox="0 0 81 25" fill="none" xmlns="http://www.w3.org/2000/svg">
<g clip-path="url(#clip0_5_10204)">
<path d="M24.1759 0.742188C24.1759 1.98609 24.1759 3.03487 24.1759 4.08365C24.1759 7.22999 24.1515 10.3519 24.1759 13.4983C24.1759 14.23 24.0295 14.8885 23.5905 15.4495C22.6149 16.7422 21.6149 17.9861 20.5905 19.2544C19.8832 20.1324 19.0783 20.9373 18.4442 21.8641C16.7612 24.2544 14.4198 24.9129 11.6637 24.7178C9.68807 24.5715 8.17587 23.6934 6.98075 22.1568C5.88319 20.7422 4.66368 19.4251 3.51734 18.0349C2.88319 17.2544 2.27343 16.4495 1.66368 15.6202C1.20026 14.9617 0.98075 14.2544 0.98075 13.4251C1.00514 9.32755 0.98075 5.2056 0.95636 1.10804C0.95636 1.05926 0.98075 0.986088 1.02953 0.839747C2.93197 2.81536 4.81002 4.74219 6.68807 6.64463C10.6149 5.22999 14.5173 5.22999 18.4686 6.64463C20.3466 4.69341 22.2003 2.79097 24.1759 0.742188ZM4.8588 13.5715C4.81002 13.5958 4.78563 13.6202 4.73685 13.6446C4.78563 13.8154 4.81002 13.9861 4.88319 14.1324C5.37099 14.9617 5.8588 15.791 6.37099 16.5715C6.51734 16.7666 6.78563 16.9373 7.02953 17.0105C7.90758 17.3032 8.81002 17.5471 9.71246 17.791C9.81002 17.8154 9.93197 17.6934 10.0783 17.6202C8.29782 16.2544 6.59051 14.9129 4.8588 13.5715ZM15.0783 17.7178C15.0783 17.7666 15.1027 17.8154 15.1027 17.8397C15.4686 17.791 15.8344 17.791 16.1515 17.669C16.932 17.4007 17.7125 17.0593 18.4686 16.7422C18.6393 16.669 18.81 16.5227 18.9076 16.3763C19.371 15.6446 19.81 14.9129 20.2247 14.1812C20.3222 14.0105 20.371 13.791 20.4442 13.5958C20.3954 13.5715 20.371 13.5471 20.3222 13.5471C18.5905 14.9373 16.8344 16.3276 15.0783 17.7178Z" fill="white"/>
<path d="M29.1995 7.03184C29.6141 7.03184 29.98 7.03184 30.3702 7.03184C31.5166 7.03184 32.6873 7.00745 33.8336 7.05623C34.2239 7.08062 34.6629 7.17818 35.0044 7.34891C35.858 7.73915 36.5166 8.39769 37.0288 9.17818C37.8336 10.3733 37.7849 11.6172 37.0776 12.8367C36.8336 13.2513 36.5166 13.6172 36.2727 14.0318C36.1751 14.2026 36.0775 14.4465 36.1263 14.5928C36.6629 15.8855 37.2239 17.1782 37.9556 18.4709C38.0288 18.2513 38.1019 18.0318 38.1751 17.7879C39.1995 14.3733 40.1995 10.9831 41.1995 7.56842C41.3215 7.1294 41.5166 6.95867 41.9556 6.98306C42.541 7.00745 43.1019 7.03184 43.6873 6.98306C44.1019 6.95867 44.2971 7.10501 44.419 7.49525C45.3702 10.3489 46.3702 13.227 47.3458 16.0806C47.6141 16.8855 47.9068 17.6904 48.1995 18.5684C47.0532 18.5684 45.9556 18.5684 44.7849 18.5684C44.6385 18.0562 44.4922 17.4709 44.3215 16.8611C43.3946 16.8611 42.4922 16.8611 41.5166 16.8611C41.3458 17.4221 41.1995 17.9831 41.0044 18.6172C40.419 18.6172 39.858 18.6172 39.2727 18.6172C37.8336 18.6172 36.3702 18.5928 34.9312 18.6172C34.541 18.6172 34.3458 18.4953 34.1751 18.1538C33.6629 17.1782 33.1263 16.2026 32.4922 15.2513C32.4922 16.3245 32.4922 17.4221 32.4922 18.544C31.3458 18.544 30.2727 18.544 29.1751 18.544C29.1995 14.7392 29.1995 10.9343 29.1995 7.03184ZM32.4922 13.105C33.0532 12.6904 33.541 12.3977 33.9312 12.0074C34.2971 11.666 34.2727 11.2757 33.98 10.8855C33.6141 10.3977 33.1263 10.0806 32.4922 9.8611C32.4922 10.9343 32.4922 11.9343 32.4922 13.105ZM43.0532 11.9343C43.0044 11.9343 42.9556 11.9343 42.9068 11.9343C42.6873 12.6172 42.4922 13.3001 42.2727 14.0318C42.8093 14.0318 43.2239 14.0318 43.7361 14.0318C43.4922 13.3001 43.2727 12.6172 43.0532 11.9343Z" fill="white"/>
<path d="M67.9324 6.98276C68.7617 6.98276 69.5421 7.00715 70.2982 6.98276C70.7129 6.95837 70.8592 7.1291 70.9812 7.49495C71.6885 9.59251 72.3958 11.6901 73.1031 13.7876C73.5665 15.1535 74.03 16.5437 74.4934 17.9096C74.5665 18.1291 74.6397 18.3486 74.7373 18.6413C73.6641 18.6413 72.6641 18.6657 71.6641 18.6169C71.5178 18.6169 71.3226 18.3974 71.2739 18.251C71.1275 17.812 71.03 17.373 70.9324 16.8852C70.0056 16.8852 69.0787 16.8852 68.1031 16.8852C67.9812 17.2998 67.8592 17.7389 67.7617 18.1779C67.6885 18.495 67.5665 18.6413 67.2007 18.6413C64.7373 18.6413 62.2739 18.6657 59.8104 18.6657C59.5421 18.6657 59.2495 18.495 59.03 18.2998C57.2007 16.7389 56.5909 14.7145 56.7861 12.3974C56.9324 10.5437 57.5909 8.90959 58.9324 7.56812C59.347 7.15349 59.786 6.95837 60.3958 6.98276C61.7129 7.03154 63.0056 7.00715 64.3714 7.00715C64.3714 8.00715 64.3714 8.98276 64.3714 10.0315C63.5909 10.0315 62.8104 10.1047 62.0543 10.0071C61.2982 9.93398 60.908 10.2998 60.5665 10.8608C59.6885 12.3486 59.7861 14.251 60.8348 15.373C61.1031 15.6657 61.3714 15.812 61.7861 15.812C62.6397 15.7876 63.4934 15.812 64.3958 15.812C64.3958 16.6657 64.3958 17.4706 64.3958 18.251C64.469 18.2754 64.5178 18.2754 64.5909 18.2998C65.2007 16.4706 65.7129 14.5925 66.2739 12.7145C66.7861 10.8364 67.347 8.93397 67.9324 6.98276ZM68.8104 14.0315C69.347 14.0315 69.7861 14.0315 70.2739 14.0315C70.03 13.2754 69.8104 12.5925 69.5909 11.9096C69.5422 11.9096 69.5178 11.9096 69.469 11.9096C69.2739 12.5925 69.0543 13.251 68.8104 14.0315Z" fill="white"/>
<path d="M48.8354 6.98828C50.5183 6.98828 52.1525 6.98828 53.7866 6.98828C53.9573 6.98828 54.1525 7.06145 54.2988 7.1834C55.0305 7.6956 55.5915 8.35414 55.9817 9.15901C56.4451 10.159 56.4451 11.1102 55.811 12.0371C55.5915 12.3541 55.3964 12.6956 55.1525 13.0858C55.3964 13.3785 55.6403 13.6712 55.9086 13.9639C56.8842 15.1102 56.9086 15.8175 55.9086 16.9395C55.3964 17.5005 54.7866 17.9639 54.2012 18.4273C54.0793 18.5249 53.8598 18.598 53.689 18.598C52.1037 18.6224 50.5183 18.598 48.8598 18.598C48.8354 14.7688 48.8354 10.9151 48.8354 6.98828ZM51.811 13.8175C51.811 14.6956 51.811 15.3785 51.811 16.2566C52.25 15.9151 52.5671 15.6468 52.8842 15.3785C53.1037 15.1834 53.0793 14.9639 52.8842 14.7688C52.5671 14.4761 52.25 14.1834 51.811 13.8175ZM51.811 11.9151C51.8598 11.9395 51.9086 11.9639 51.9573 12.0127C52.3476 11.6468 52.7378 11.281 53.2256 10.8419C52.7134 10.4273 52.2988 10.1102 51.811 9.6956C51.811 10.5493 51.811 11.2322 51.811 11.9151Z" fill="white"/>
<path d="M80.8324 7.00781C80.8324 8.15415 80.8324 9.22732 80.8324 10.3981C80.1007 10.3981 79.369 10.3981 78.5153 10.3981C78.5153 13.1785 78.5153 15.8615 78.5153 18.5688C77.3446 18.5688 76.3202 18.5688 75.1983 18.5688C75.1983 15.8615 75.1983 13.1785 75.1983 10.4468C74.3934 10.4468 73.6861 10.4468 72.9056 10.4468C72.9056 9.2761 72.9056 8.17854 72.9056 7.00781C75.5153 7.00781 78.1495 7.00781 80.8324 7.00781Z" fill="white"/>
</g>
<defs>
<clipPath id="clip0_5_10204">
<rect width="80" height="24.3902" fill="white" transform="translate(0.905579 0.550781)"/>
</clipPath>
</defs>
</svg>
