<svg width="81" height="50" viewBox="0 0 81 50" fill="none" xmlns="http://www.w3.org/2000/svg">
<g clip-path="url(#clip0_5_10212)">
<path d="M13.2288 31.772C11.7188 31.772 10.2884 31.772 8.85789 31.772C8.48703 31.772 8.35458 31.6395 8.3016 31.2952C7.98372 29.5733 7.61286 27.878 7.26849 26.1561C7.242 25.9707 7.16253 25.8117 7.13604 25.6263C7.08306 25.6263 7.00359 25.6263 6.95061 25.6263C6.63273 27.6395 6.31484 29.6793 5.99696 31.719C4.51352 31.719 3.05657 31.719 1.52014 31.719C1.57312 31.2952 1.6261 30.8448 1.70557 30.421C2.39431 25.9177 3.08306 21.3879 3.79829 16.8846C3.87776 16.4342 3.93074 16.0104 4.0367 15.5866C4.08968 15.4541 4.3016 15.2422 4.43405 15.2422C6.44729 15.2687 8.43405 15.2422 10.4208 15.4011C11.242 15.4541 12.0367 15.825 12.8049 16.1958C13.5466 16.5667 13.997 17.2554 14.1824 18.0766C14.5797 19.9044 14.3678 21.6528 13.2552 23.1892C12.8314 23.772 12.2221 24.2223 11.6129 24.6197C11.189 24.8846 11.1095 25.0965 11.2685 25.5203C11.7718 26.9508 12.2221 28.4078 12.6989 29.8382C12.8579 30.474 13.0168 31.0832 13.2288 31.772ZM7.37445 22.8448C7.53339 22.8713 7.63935 22.8978 7.71882 22.8713C8.85789 22.7919 9.73206 21.7852 9.81153 20.4607C9.891 19.3217 9.17577 18.6859 7.98372 18.8713C7.7718 20.1958 7.55988 21.5203 7.37445 22.8448Z" fill="#D71F32"/>
<path d="M43.902 31.7745C42.3126 31.7745 40.8026 31.7745 39.2662 31.748C39.1602 31.748 38.9748 31.4831 38.9483 31.3242C38.551 29.4169 38.1536 27.5096 37.7563 25.6288C37.7298 25.5229 37.7033 25.4169 37.6503 25.1785C37.5708 25.4169 37.5179 25.5494 37.5179 25.6553C37.2265 27.5891 36.9616 29.4964 36.6437 31.4301C36.6172 31.5626 36.4318 31.7745 36.3258 31.7745C34.9483 31.801 33.5708 31.801 32.1139 31.801C32.2463 30.9003 32.3788 30.0792 32.5112 29.2315C33.1735 24.9401 33.8357 20.6752 34.498 16.3838C34.6834 15.2712 34.6569 15.2447 35.796 15.2712C36.9881 15.2712 38.1801 15.2182 39.3457 15.2977C40.2993 15.3507 41.253 15.4301 42.1536 15.6686C43.6636 16.0659 44.6967 17.0196 44.8821 18.6619C45.094 20.8606 44.6702 22.8474 42.8424 24.3043C42.498 24.5692 42.1006 24.7282 41.6768 24.9931C42.4185 27.1917 43.1338 29.4169 43.902 31.7745ZM38.0212 22.8209C39.4252 23.1123 40.5642 21.5758 40.4318 20.0924C40.3523 19.3242 39.6636 18.7414 38.8689 18.8474C38.7629 18.8739 38.604 19.0063 38.5775 19.1123C38.392 20.3308 38.2066 21.5758 38.0212 22.8209Z" fill="white"/>
<path d="M19.6647 31.8311C20.5388 26.2682 21.3865 20.8112 22.2342 15.2483C24.3799 15.3543 26.5256 14.9834 28.5918 15.6457C30.8435 16.3609 32.1415 17.9503 32.4064 20.255C32.7773 23.3808 32.1415 26.3477 30.2077 28.9172C29.2276 30.2417 27.8501 30.9834 26.2342 31.4338C24.062 32.043 21.9163 31.5927 19.6647 31.8311ZM26.0753 19.4338C25.6514 22.2152 25.2011 24.9702 24.7773 27.7781C25.8633 27.7252 26.4461 27.1159 26.9229 26.3477C27.6382 25.1026 27.8766 23.7252 27.9031 22.3212C27.9296 21.7384 27.8501 21.1026 27.6912 20.5463C27.4792 19.7781 26.9229 19.4603 26.0753 19.4338Z" fill="#D71F32"/>
<path d="M59.5579 24.5168C59.3195 26.0002 59.0811 27.5101 58.8692 28.9936C58.7367 29.7883 58.6308 30.583 58.4983 31.3512C58.4718 31.5101 58.2864 31.7485 58.1539 31.7485C56.7765 31.775 55.399 31.775 53.942 31.775C54.7897 26.2386 55.6374 20.7817 56.5116 15.2717C57.995 15.2717 59.4784 15.2717 61.0149 15.2717C60.6705 17.4439 60.3526 19.6161 60.0082 21.7618C60.0347 21.7618 60.0877 21.7883 60.1142 21.7883C60.1937 21.6293 60.2996 21.4704 60.3791 21.3115C61.3327 19.4307 62.2864 17.5234 63.24 15.6426C63.399 15.3512 63.5579 15.2188 63.9023 15.2188C65.3063 15.2452 66.6837 15.2188 68.1937 15.2188C67.5844 16.2254 67.0546 17.126 66.4983 18.0267C65.5447 19.6161 64.591 21.179 63.6639 22.7684C63.5314 23.0068 63.4784 23.4042 63.5579 23.6691C64.3261 26.2121 65.1208 28.7552 65.9155 31.2982C65.942 31.4042 65.9685 31.5101 66.048 31.7221C65.6506 31.7221 65.3063 31.7221 64.9619 31.7221C63.9288 31.7221 62.8957 31.6956 61.8625 31.7221C61.3857 31.7486 61.1738 31.6161 61.0678 31.0863C60.6705 29.0466 60.2202 27.0068 59.7963 24.9936C59.7698 24.8082 59.7168 24.6227 59.6639 24.4638C59.6109 24.5168 59.5844 24.5168 59.5579 24.5168Z" fill="white"/>
<path d="M52.7529 15.245C53.0707 20.7549 53.3886 26.1854 53.7065 31.6953C52.1701 31.6953 50.6337 31.6953 49.0708 31.6953C49.0708 31.0331 49.0708 30.3708 49.0708 29.6556C48.1171 29.6556 47.19 29.6291 46.2628 29.6821C46.1039 29.6821 45.9184 30.0265 45.839 30.2384C45.7065 30.6093 45.6535 31.0066 45.4946 31.3775C45.4151 31.5364 45.2032 31.6953 45.0443 31.7483C44.7529 31.8543 44.6204 31.6424 44.5409 31.351C44.0376 29.7881 43.5078 28.2516 43.031 26.6887C42.9515 26.4768 42.978 26.1854 43.0575 25.9735C43.3224 25.2318 43.6668 24.543 44.1966 23.9073C45.0178 22.9801 45.5211 21.841 45.5741 20.596C45.627 19.4304 46.0509 18.3708 46.4482 17.3112C46.6337 16.8344 46.8986 16.3841 47.031 15.8808C47.1635 15.298 47.5078 15.192 48.0376 15.2185C49.4151 15.245 50.7926 15.2185 52.1701 15.2185C52.329 15.245 52.5145 15.245 52.7529 15.245ZM49.2827 19.5894C49.2562 19.5894 49.2297 19.5894 49.2297 19.5894C48.5674 21.7351 47.9317 23.9073 47.2694 26.0795C47.9317 26.0795 48.488 26.0795 49.0708 26.0795C49.1502 23.8808 49.2032 21.7351 49.2827 19.5894Z" fill="white"/>
<path d="M69.0955 15.2695C71.9035 15.2695 74.632 15.2695 77.4134 15.2695C77.2015 16.594 77.0161 17.8656 76.8306 19.1636C75.5326 19.1636 74.3141 19.1636 73.0161 19.1636C72.8836 19.9053 72.7777 20.6205 72.6452 21.4152C73.8108 21.4152 74.9233 21.4152 76.0889 21.4152C75.877 22.7662 75.6651 24.0377 75.4531 25.3622C74.2876 25.3622 73.175 25.3622 72.0094 25.3622C71.877 26.1834 71.771 26.9781 71.6386 27.8258C72.9101 27.8258 74.1551 27.8258 75.4531 27.8258C75.3207 28.8324 75.1882 29.7596 75.0293 30.6868C75.0028 30.9252 75.0028 31.1636 74.8969 31.3755C74.8174 31.5344 74.6055 31.7464 74.4465 31.7464C71.8505 31.7728 69.228 31.7728 66.526 31.7728C67.3737 26.2629 68.2214 20.7795 69.0955 15.2695Z" fill="white"/>
<path d="M21.5185 15.3225C21.3066 16.6205 21.1212 17.8656 20.9092 19.1901C19.8231 19.1901 18.7635 19.2166 17.7039 19.1901C17.1741 19.1636 16.9887 19.3755 16.9887 19.8788C16.9622 20.3821 16.8563 20.8854 16.8033 21.4682C17.9424 21.4682 19.0549 21.4682 20.194 21.4682C20.0086 22.7662 19.8231 23.9583 19.6112 25.1503C19.5847 25.2563 19.3463 25.3887 19.1874 25.3887C18.3397 25.4152 17.4655 25.4152 16.6178 25.3887C16.247 25.3887 16.088 25.5212 16.0616 25.8656C15.9821 26.5013 15.8761 27.1371 15.7702 27.8523C17.0682 27.8523 18.2867 27.8523 19.5847 27.8523C19.4258 28.8324 19.2933 29.7331 19.1609 30.6073C19.1609 30.6603 19.1079 30.7132 19.0814 30.7662C18.9225 31.7993 18.9225 31.7993 17.9159 31.7993C16.7768 31.7993 15.6112 31.7728 14.4722 31.7993C14.1013 31.7993 13.9688 31.6669 13.8629 31.349C13.2536 29.4682 12.6443 27.6139 12.0351 25.7596C11.9821 25.6007 12.0351 25.2563 12.141 25.1768C14.3662 23.7464 15.0549 21.6007 15.002 19.1106C14.9755 17.7861 14.4722 16.647 13.4125 15.7993C13.3066 15.7199 13.2536 15.5609 13.2006 15.4285C13.3331 15.3755 13.439 15.2695 13.5715 15.2695C16.141 15.2695 18.7106 15.2695 21.2801 15.2695C21.3331 15.2695 21.3861 15.296 21.5185 15.3225Z" fill="#D71F32"/>
<path d="M41.9987 34.8711C45.1245 35.7982 48.0649 36.7254 51.0318 37.5731C52.3033 37.9439 53.4159 38.5002 54.449 39.3214C57.0185 41.3347 59.641 43.2949 62.2371 45.2552C62.6609 45.5731 62.9523 45.9439 63.1112 46.4473C63.3761 47.2684 63.694 48.0896 64.0649 49.0433C63.7735 48.9108 63.5881 48.8314 63.4291 48.7519C61.0715 47.5333 58.7404 46.3148 56.4093 45.0698C52.1444 42.8446 47.8795 40.6194 43.6145 38.3943C43.4556 38.3148 43.2702 38.2088 43.2172 38.0764C42.7934 37.0698 42.4225 36.0367 41.9987 34.8711Z" fill="#D71F32"/>
<path d="M68.858 10.0216C69.3349 9.30641 69.7587 8.67065 70.1825 8.03489C71.2951 6.36601 72.3812 4.69714 73.4938 3.05475C73.6527 2.81634 73.9441 2.60442 74.209 2.55144C75.8249 2.18058 77.1759 2.73687 78.2355 3.90243C78.8978 4.64416 78.8978 5.22694 78.3415 6.04813C77.017 8.06138 75.666 10.0481 74.315 12.0614C74.1825 12.2468 74.0501 12.4322 73.8911 12.6442C72.911 10.525 71.1627 9.83621 68.858 10.0216Z" fill="#D71F32"/>
<path d="M66.608 13.6542C66.767 13.3364 66.8464 13.0979 66.9524 12.886C67.3233 12.3032 67.7206 11.7734 68.065 11.1907C68.4623 10.5019 69.0716 10.237 69.8133 10.2635C71.0849 10.29 72.1709 10.7668 72.9921 11.7205C73.2041 11.9854 73.3895 12.3032 73.469 12.6211C73.6809 13.3364 73.416 13.6278 72.6743 13.6278C70.8729 13.6278 69.0716 13.6278 67.2703 13.6278C67.1113 13.6542 66.9259 13.6542 66.608 13.6542Z" fill="#D71F32"/>
<path d="M54.3657 38.8488C53.7035 38.425 53.0942 38.0276 52.4849 37.6303C52.8028 37.1534 53.1472 36.6501 53.4915 36.1733C53.9949 35.4316 54.4717 34.6899 55.0015 33.9481C55.1074 33.7892 55.2929 33.6038 55.4783 33.5773C56.2465 33.5508 57.0147 33.5508 57.9419 33.5508C56.6968 35.3786 55.5578 37.074 54.3657 38.8488Z" fill="#D71F32"/>
<path d="M74.1549 2.2628C74.9231 0.646902 75.4794 0.117101 77.3337 0.487962C78.2344 0.673392 79.0026 1.12372 79.6119 1.81246C80.2741 2.55419 80.3006 3.16346 79.7708 3.95816C79.5854 4.24955 79.3734 4.51445 79.135 4.88531C78.7642 3.79922 78.0489 3.13697 77.0953 2.66015C76.1946 2.20982 75.2145 2.05088 74.1549 2.2628Z" fill="#D71F32"/>
<path d="M12.4878 34.207C12.5938 35.505 12.6733 36.6176 12.7527 37.7302C12.7792 37.7302 12.8322 37.7567 12.8587 37.7567C13.0441 37.3064 13.256 36.856 13.4415 36.4057C13.6799 35.8229 13.9183 35.2137 14.2097 34.6309C14.2892 34.4719 14.5276 34.366 14.6865 34.2335C14.7395 34.2865 14.7925 34.313 14.8454 34.366C14.5805 35.8229 14.3421 37.2534 14.0772 38.7103C14.0507 38.8163 13.8388 38.8958 13.6004 39.0812C13.7594 38.1011 13.8918 37.3064 14.0243 36.5117C13.9713 36.4852 13.9183 36.4587 13.8653 36.4587C13.6799 36.8825 13.4945 37.3329 13.309 37.7567C13.1236 38.1805 12.9382 38.6044 12.7527 39.0282C12.6733 39.0017 12.6203 39.0017 12.5408 38.9752C12.4613 38.26 12.3819 37.5713 12.3024 36.856C12.2229 36.856 12.1435 36.856 12.0905 36.856C12.011 37.2534 11.958 37.6507 11.8521 38.0481C11.7461 38.366 11.958 38.9223 11.2428 39.0282C11.5077 37.4918 11.7461 36.0613 12.0375 34.6309C12.011 34.4984 12.2494 34.3925 12.4878 34.207Z" fill="white"/>
<path d="M24.2492 34.4185C24.3287 35.2926 24.4081 36.1933 24.4876 37.0675C24.5406 37.0675 24.5936 37.0675 24.6201 37.094C24.7525 36.3257 24.885 35.531 25.0439 34.7628C25.0704 34.6039 25.2293 34.4714 25.3088 34.3125C25.3618 34.339 25.4412 34.3655 25.4942 34.4185C25.2293 35.8754 24.9909 37.3059 24.726 38.7363C24.6995 38.8688 24.4611 38.9483 24.2227 39.1337C24.1167 38.0741 24.0373 37.1999 23.9578 36.3257C23.9048 36.3257 23.8783 36.3257 23.8253 36.3257C23.7459 36.8291 23.6664 37.3324 23.534 37.8092C23.4015 38.2065 23.6134 38.8158 22.8717 39.1072C23.0836 37.8092 23.2955 36.6701 23.481 35.531C23.534 35.2661 23.534 34.9747 23.6399 34.7363C23.6929 34.5774 23.8783 34.445 24.0108 34.3125C24.1167 34.339 24.1962 34.3655 24.2492 34.4185Z" fill="white"/>
<path d="M64.4349 49.1274C64.0375 48.0148 63.6401 46.9817 63.2428 45.9486C63.8786 45.3393 65.468 45.3128 66.0243 46.0016C66.2362 46.2665 66.3156 46.4519 66.1037 46.7433C65.5739 47.4585 65.0971 48.2267 64.5938 48.9685C64.5938 49.0214 64.5408 49.0479 64.4349 49.1274Z" fill="#D71F32"/>
<path d="M2.6321 35.6662C2.44667 35.2688 2.3672 34.792 2.18177 34.7655C1.67846 34.6596 1.65197 35.1364 1.5725 35.5073C1.41356 36.3549 1.25462 37.1761 1.14866 38.0238C1.12217 38.2092 1.28111 38.4212 1.33409 38.6066C1.54601 38.4741 1.86389 38.3417 1.91687 38.1827C1.99634 37.7324 2.3672 37.2556 1.94336 36.7788C2.15528 36.6463 2.34071 36.4874 2.55263 36.3549C2.60561 36.4079 2.65859 36.4609 2.71157 36.5139C2.57912 37.1496 2.49965 37.8119 2.34071 38.4212C2.20826 38.9245 1.62548 39.1894 1.06919 39.0304C0.512898 38.8715 0.592368 38.4741 0.645348 38.0503C0.830779 37.0702 0.989719 36.09 1.17515 35.1364C1.3076 34.5271 1.65197 34.2622 2.23475 34.3152C2.47316 34.3417 2.81753 34.4476 2.87051 34.6066C2.94998 34.9245 2.897 35.2953 2.84402 35.6132C2.84402 35.6397 2.60561 35.6662 2.6321 35.6662Z" fill="white"/>
<path d="M30.4732 35.7695C30.4997 35.5575 30.4997 35.4781 30.4997 35.3986C30.5262 35.1337 30.6586 34.7628 30.2613 34.7628C30.0758 34.7628 29.7579 35.0542 29.705 35.2661C29.493 36.1933 29.3341 37.1204 29.2017 38.0741C29.1752 38.233 29.3606 38.4449 29.4401 38.6304C29.6255 38.5244 29.9434 38.4185 29.9434 38.2595C29.9964 37.7827 30.2877 37.3589 30.0493 36.7761C29.8374 36.2993 30.4467 36.5377 30.8175 36.4052C30.6586 37.1999 30.5526 37.8887 30.3407 38.5774C30.2083 39.0012 29.5725 39.1867 29.0957 39.0277C28.6189 38.8688 28.6454 38.4979 28.6983 38.1271C28.8573 37.1204 29.0427 36.1403 29.2281 35.1602C29.3076 34.6834 29.5725 34.3125 30.1023 34.3125C30.3937 34.3125 30.8175 34.392 30.897 34.5774C31.0295 34.8423 30.95 35.2396 30.897 35.584C30.897 35.637 30.6851 35.6635 30.4732 35.7695Z" fill="white"/>
<path d="M8.43452 34.3911C8.43452 35.8481 8.43452 37.2521 8.40803 38.6296C8.40803 38.762 8.22259 38.8945 8.11663 39.0269C8.06365 39.0004 8.01067 38.9739 7.95769 38.9209C7.95769 38.6296 7.95769 38.3117 7.95769 38.0203C7.1365 37.8349 7.1365 37.8349 6.81862 38.6031C6.76564 38.762 6.58021 38.868 6.44776 39.0269C6.39478 39.0004 6.3418 38.9474 6.26233 38.9209C6.42127 38.3647 6.58021 37.8349 6.76564 37.2786C7.03054 36.4839 7.32193 35.7156 7.53385 34.8945C7.71928 34.3647 8.01067 34.2322 8.43452 34.3911ZM8.03716 37.464C8.03716 36.6163 8.03716 35.7686 8.03716 34.815C7.74577 35.7421 7.48087 36.5898 7.21597 37.464C7.50736 37.464 7.71928 37.464 8.03716 37.464Z" fill="white"/>
<path d="M19.2417 34.4185C19.0033 35.8224 18.7649 37.2264 18.5 38.6304C18.4735 38.7893 18.2616 38.8953 18.1556 39.0277C18.1027 39.0012 18.0497 38.9483 17.9967 38.9218C18.2616 37.4913 18.5 36.0344 18.7914 34.6039C18.8179 34.4714 19.0298 34.392 19.1623 34.3125C19.1888 34.339 19.2152 34.392 19.2417 34.4185Z" fill="white"/>
<path d="M42.4713 34.7433C43.4779 34.1605 44.6435 34.2399 45.2263 34.9022C45.3322 35.0346 45.3322 35.2201 45.3852 35.4055C45.2263 35.432 45.0673 35.5115 44.9084 35.4585C44.1137 35.2466 43.319 35.0082 42.4713 34.7433Z" fill="#D71F32"/>
</g>
<defs>
<clipPath id="clip0_5_10212">
<rect width="80" height="49.0066" fill="white" transform="translate(0.383423 0.125)"/>
</clipPath>
</defs>
</svg>
