<svg width="81" height="40" viewBox="0 0 81 40" fill="none" xmlns="http://www.w3.org/2000/svg">
<g clip-path="url(#clip0_5_10238)">
<path d="M4.16646 28.0391C4.97627 28.1127 5.76155 28.2108 6.47321 28.6035C7.2094 29.0207 7.5775 29.6587 7.62658 30.4931C7.62658 30.6157 7.47934 30.763 7.38118 30.8857C7.25848 30.7875 7.06216 30.6894 7.06216 30.5912C6.89038 29.4133 6.12965 28.9225 5.04989 28.7507C4.14192 28.628 3.25848 28.6526 2.37505 28.947C1.71247 29.1924 1.34437 29.6832 1.31983 30.3213C1.31983 30.9102 1.68793 31.4501 2.35051 31.671C2.98854 31.8673 3.65112 31.99 4.28916 32.1618C5.09897 32.3826 5.90879 32.5789 6.66953 32.8489C7.50388 33.1679 7.8229 33.8796 7.8229 34.7384C7.8229 35.5483 7.50388 36.1372 6.74315 36.4808C5.04989 37.2906 3.35664 37.2906 1.66339 36.4317C0.779955 35.9654 0.485477 35.2047 0.460938 34.2722C0.460938 34.125 0.632716 33.9777 0.730876 33.855C0.829035 34.0023 1.02535 34.125 1.04989 34.2722C1.12351 35.082 1.44253 35.7446 2.22781 36.0881C3.0867 36.4562 3.99468 36.628 4.90266 36.4808C5.39345 36.4072 5.90879 36.2599 6.37505 36.0636C6.964 35.8182 7.23394 35.3274 7.2094 34.6894C7.18486 34.0023 6.89038 33.536 6.20327 33.3397C5.22167 33.0697 4.24008 32.8489 3.25848 32.6035C2.86584 32.5053 2.44867 32.3826 2.08057 32.2354C1.22167 31.9164 0.706336 31.2047 0.706336 30.3458C0.706336 29.3888 1.17259 28.7016 2.10511 28.4317C2.81677 28.2108 3.50388 28.1618 4.16646 28.0391Z" fill="white"/>
<path d="M41.5382 31.427C42.2989 30.6908 43.1332 30.4454 44.1148 30.6172C44.6302 30.6908 45.0474 30.9117 45.3418 31.3289C45.5136 31.5743 45.6363 31.6234 45.8572 31.3534C46.5934 30.4454 48.4829 30.2737 49.3909 31.0344C49.8081 31.378 50.0535 31.8197 50.0535 32.3841C50.0535 33.8074 50.0535 35.2553 50.0535 36.6786C50.0535 36.8258 49.8817 36.9485 49.8081 37.0957C49.7099 36.9731 49.5381 36.8258 49.5381 36.7031C49.5136 35.5252 49.5136 34.3473 49.5136 33.1939C49.5136 33.0467 49.5136 32.8749 49.4891 32.7277C49.3418 31.7215 48.8756 31.2307 48.0658 31.2062C46.8142 31.1571 46.078 31.5988 45.9062 32.6295C45.7835 33.2921 45.8081 34.0037 45.7835 34.6908C45.759 35.3534 45.7836 36.0405 45.759 36.7031C45.759 36.8503 45.6118 36.9976 45.5381 37.1448C45.4154 36.9976 45.2191 36.8504 45.1946 36.6786C45.1701 35.6234 45.1701 34.5681 45.1701 33.5129C45.1701 33.2675 45.1701 32.9976 45.1455 32.7522C45.0228 31.4025 43.6486 30.7399 42.4952 31.4761C41.8326 31.8933 41.5136 32.5559 41.5136 33.3166C41.4891 34.4209 41.5136 35.5497 41.4891 36.654C41.4891 36.8258 41.3173 36.9731 41.2437 37.1203C41.121 36.9731 40.9247 36.8258 40.9247 36.654C40.9001 34.8381 40.9001 33.0221 40.9247 31.2062C40.9247 31.0589 41.121 30.9117 41.2191 30.7645C41.3173 30.8872 41.4155 31.0099 41.5136 31.1571C41.5136 31.1816 41.5136 31.2798 41.5382 31.427Z" fill="white"/>
<path d="M56.3402 34.1001C55.5549 34.1001 54.7696 34.1246 53.9843 34.1001C53.5917 34.1001 53.469 34.2473 53.5181 34.6154C53.6408 35.4743 54.058 36.1124 54.8923 36.4314C55.923 36.7995 57.6899 36.6768 58.3524 35.3271C58.4261 35.2044 58.6714 35.1799 58.8187 35.1062C58.8187 35.278 58.8923 35.4743 58.8432 35.6216C58.3524 36.7259 57.2481 37.2658 55.8739 37.2167C53.7144 37.1185 52.7819 35.8424 52.88 33.6093C52.9782 30.9345 55.7512 29.7811 57.9107 31.0326C58.9168 31.6216 59.2359 32.6277 59.2113 33.7565C59.2113 34.0756 58.9905 34.1246 58.7451 34.1246C57.9598 34.1001 57.15 34.1001 56.3402 34.1001ZM56.0211 33.5848C56.6837 33.5848 57.3708 33.5848 58.0334 33.5848C58.5487 33.5848 58.6469 33.4375 58.5242 32.9467C58.1806 31.7688 57.2481 31.1308 55.9475 31.1799C54.7941 31.2044 53.8126 32.0142 53.5672 33.1185C53.4935 33.4621 53.5917 33.6093 53.9598 33.5848C54.6469 33.5602 55.334 33.5848 56.0211 33.5848Z" fill="white"/>
<path d="M11.2082 36.0886C11.2082 36.2358 11.1836 36.3586 11.1836 36.5058C11.1836 37.1929 11.1836 37.88 11.1836 38.5671C11.1836 38.7635 11.2818 39.0825 10.9137 39.0825C10.5701 39.0825 10.6683 38.788 10.6683 38.5917C10.6683 36.2849 10.6683 33.9782 10.6683 31.6714C10.6683 31.4506 10.6192 31.2052 10.6683 30.9843C10.6928 30.8616 10.8401 30.7635 10.9137 30.6653C11.0119 30.7635 11.1346 30.8371 11.1836 30.9598C11.2573 31.1316 11.2573 31.3279 11.2818 31.5242C11.429 31.4015 11.6008 31.3033 11.7481 31.1806C12.7787 30.3217 13.9076 30.2481 15.11 30.7144C16.2634 31.1561 16.7542 32.1377 16.8769 33.2911C16.9505 34.0763 16.8523 34.8125 16.5333 35.5487C15.699 37.4874 12.7051 37.5119 11.6008 36.3095C11.5027 36.2113 11.4781 36.0395 11.429 35.9168C11.3554 35.9905 11.2818 36.0395 11.2082 36.0886ZM13.7603 36.5794C15.1591 36.5794 16.1161 35.7205 16.2634 34.3217C16.3861 33.1193 16.2388 31.9905 15.0609 31.3279C13.2941 30.3217 11.3063 31.5487 11.2327 33.6592C11.1591 35.4506 12.1407 36.5794 13.7603 36.5794Z" fill="white"/>
<path d="M76.1656 35.9887C75.8711 36.2341 75.6748 36.4304 75.4539 36.5777C74.3987 37.2648 73.2944 37.3629 72.141 36.8231C70.9877 36.2832 70.5705 35.228 70.4969 34.0501C70.3742 32.2341 71.3312 30.909 72.9263 30.5409C74.0061 30.2955 74.9631 30.5409 75.7975 31.3016C75.8956 31.3752 75.9938 31.4243 76.1165 31.4734C76.141 31.3507 76.1901 31.228 76.1901 31.1298C76.1901 31.0562 76.1656 30.9826 76.1901 30.909C76.2883 30.7617 76.3864 30.6145 76.5091 30.4672C76.6073 30.6145 76.7791 30.7617 76.7791 30.909C76.8036 32.8231 76.8036 34.7126 76.7791 36.6268C76.7791 36.7495 76.6073 36.8722 76.5091 36.9949C76.411 36.8722 76.2392 36.774 76.1901 36.6513C76.1656 36.5041 76.1901 36.2832 76.1656 35.9887ZM76.2147 33.8537C76.2147 32.3814 75.4294 31.3507 74.1533 31.1544C72.6809 30.9335 71.6502 31.547 71.2331 33.0194C71.1104 33.4856 71.1104 34.0255 71.184 34.4918C71.3558 35.6697 72.0674 36.4059 73.049 36.5531C74.8404 36.8967 76.2147 35.7188 76.2147 33.8537Z" fill="white"/>
<path d="M38.007 33.9295C38.007 35.9172 36.7554 37.1933 34.7677 37.1933C32.7554 37.1933 31.5039 35.8927 31.5039 33.8068C31.5039 31.8436 32.8536 30.543 34.8659 30.543C36.78 30.5675 38.007 31.8927 38.007 33.9295ZM34.8168 31.1565C33.1972 31.1565 32.0929 32.2362 32.0683 33.8068C32.0438 35.4755 33.1235 36.6289 34.6696 36.6534C36.3137 36.6534 37.3935 35.5982 37.418 33.954C37.4671 32.2853 36.4364 31.1565 34.8168 31.1565Z" fill="white"/>
<path d="M62.7655 31.4494C62.9373 31.3268 63.0355 31.2531 63.1336 31.1795C64.1643 30.3942 65.2686 30.3942 66.422 30.8605C67.2318 31.1795 67.5999 31.8912 67.6244 32.7255C67.6735 34.0016 67.649 35.2777 67.6244 36.5537C67.6244 36.7255 67.4281 36.8973 67.3299 37.0691C67.2318 36.8973 67.0355 36.701 67.0355 36.5292C67.0109 35.474 67.0355 34.4188 67.0109 33.3636C67.0109 32.0139 66.2993 31.155 65.1704 31.1304C63.8453 31.0814 62.7901 32.0139 62.7164 33.3145C62.6674 34.3697 62.6919 35.4249 62.6919 36.4801C62.6919 36.6028 62.7164 36.7501 62.6674 36.8482C62.6183 36.9709 62.471 37.0936 62.3729 37.0936C62.2993 37.0936 62.1766 36.9218 62.1029 36.8237C62.0784 36.7746 62.0784 36.6764 62.0784 36.6028C62.0784 34.8114 62.0784 33.02 62.0784 31.2286C62.0784 31.155 62.0539 31.0323 62.1029 30.9832C62.152 30.885 62.2747 30.7378 62.3483 30.7623C62.4465 30.7869 62.5937 30.885 62.6428 31.0077C62.741 31.0814 62.741 31.2286 62.7655 31.4494Z" fill="white"/>
<path d="M23.3574 33.8077C23.3574 32.8997 23.3574 31.9672 23.3574 31.0592C23.3574 30.9365 23.4801 30.7893 23.5537 30.6666C23.6764 30.7647 23.8482 30.8629 23.8728 30.9856C23.9709 31.3537 24.1182 31.2064 24.2899 31.0837C25.3452 30.4212 26.4494 30.3475 27.5783 30.8138C28.339 31.1328 28.7562 31.7708 28.7562 32.6052C28.7807 33.9304 28.7807 35.2555 28.7562 36.6052C28.7562 36.7524 28.5844 36.8751 28.5108 37.0224C28.4126 36.8751 28.2163 36.7524 28.2163 36.6052C28.1918 35.5009 28.1672 34.3966 28.2163 33.2923C28.2654 31.9917 27.7255 31.231 26.6212 31.1083C25.2715 30.961 24.1427 31.6727 24.02 32.8997C23.8973 34.004 23.9464 35.1328 23.9218 36.2371C23.9218 36.3843 23.9464 36.5316 23.9218 36.6543C23.8728 36.8015 23.7501 36.8997 23.6519 37.0224C23.5537 36.8997 23.382 36.777 23.382 36.6543C23.3574 35.6972 23.3574 34.7402 23.3574 33.8077Z" fill="white"/>
<path d="M19.8697 33.7578C19.8697 32.8989 19.8697 32.04 19.8697 31.1811C19.8697 30.9357 19.747 30.5921 20.1397 30.5676C20.5323 30.543 20.4341 30.9111 20.4341 31.132C20.4341 32.8989 20.4341 34.6412 20.4341 36.4081C20.4341 36.5553 20.4096 36.7025 20.336 36.8007C20.2869 36.8498 20.0906 36.8743 20.0415 36.8252C19.9433 36.7516 19.8697 36.6044 19.8697 36.4817C19.8452 35.5982 19.8697 34.6903 19.8697 33.7578Z" fill="white"/>
<path d="M80.067 28.4046C80.067 31.2757 80.067 34.1469 80.067 37.018C80.0179 37.0426 79.9933 37.0426 79.9443 37.0671C79.8952 36.9444 79.6252 36.8217 79.6252 36.699C79.6252 34.0733 79.5762 31.472 79.5762 28.8217C79.5762 28.6745 79.8461 28.5027 79.8952 28.3555C79.9688 28.38 80.0179 28.38 80.067 28.4046Z" fill="white"/>
<path d="M31.9432 0.558594C32.8021 0.558594 33.661 0.558594 34.5199 0.558594C34.4953 0.779453 34.4954 1.02485 34.4217 1.24571C34.1763 2.12915 33.9309 3.01258 33.6855 3.87148C32.9248 6.7181 32.1641 9.56473 31.4033 12.4114C31.0352 13.8347 30.6671 15.258 30.299 16.6813H30.25L30.2254 16.6568C30.1518 16.6568 30.1027 16.6322 30.0291 16.6322C29.4156 16.1169 28.7776 15.6261 28.1641 15.1107C28.1641 14.7917 28.1641 14.4972 28.1641 14.1782C28.3604 13.7365 28.6058 13.3193 28.753 12.8776C29.5874 9.85921 30.3727 6.86534 31.1579 3.84694C31.4769 2.74264 31.6978 1.66289 31.9432 0.558594Z" fill="#945BA3"/>
<path d="M31.9441 0.556892C31.6987 1.63665 31.4778 2.74094 31.1833 3.8207C30.398 6.8391 29.5882 9.8575 28.7784 12.8514C28.6557 13.3176 28.3858 13.7348 28.1895 14.152C28.1895 9.66119 28.1895 5.17039 28.1895 0.679591C28.6803 0.630511 29.171 0.532352 29.6618 0.507812C30.4471 0.507812 31.2079 0.556892 31.9441 0.556892Z" fill="#9E529E"/>
<path d="M28.214 16.6289C29.3919 17.1688 30.5698 17.6841 31.7477 18.224C31.4533 19.3038 31.1833 20.3835 30.8888 21.4878C30.1036 20.4571 29.3428 19.451 28.5576 18.4203C28.4349 18.2485 28.3122 18.1013 28.1895 17.9295C28.214 17.4878 28.214 17.0706 28.214 16.6289Z" fill="#9167AA"/>
<path d="M48.4842 9.44141C48.6314 9.44141 48.7787 9.46595 48.9259 9.46595C49.0731 9.49049 49.2204 9.49048 49.3922 9.51502C49.883 9.73588 50.3738 9.9322 50.8646 10.1531C50.6928 10.3494 50.4719 10.5212 50.3738 10.742C50.202 11.2083 50.1038 11.7236 49.9811 12.1899C49.0731 15.6255 48.1406 19.0365 47.2327 22.4721C46.9382 23.6009 46.7173 24.7788 46.4719 25.9322C45.6866 25.9322 44.9014 25.9322 44.1406 25.9322C44.3369 25.1224 44.5087 24.3126 44.7296 23.5028C45.5639 20.4353 46.3983 17.3678 47.2327 14.3003C47.6744 12.7052 48.067 11.0856 48.4842 9.44141Z" fill="#48A8CB"/>
<path d="M48.4851 9.44059C48.0679 11.0848 47.6508 12.7044 47.2336 14.3486C46.3992 17.4161 45.5649 20.4835 44.7305 23.551C44.5097 24.3608 44.3379 25.1707 44.1416 25.9805C43.9452 25.9805 43.7489 25.9805 43.5526 25.9805C43.1354 25.9069 42.7182 25.8087 42.3011 25.8087C41.9084 25.7842 41.7366 25.7351 41.8593 25.2688C42.3992 23.3547 42.89 21.4651 43.3808 19.551C43.5035 19.0602 43.5526 18.5203 44.2888 18.594C44.3133 18.594 44.3379 18.4958 44.3624 18.4467C44.9759 18.1277 45.025 17.5878 44.4851 17.048C45.1232 14.6676 45.7367 12.2627 46.3747 9.88231C46.3992 9.75961 46.6446 9.68599 46.8164 9.63691C47.0618 9.56329 47.3072 9.51421 47.5281 9.44059C47.8716 9.41605 48.1906 9.44059 48.4851 9.44059Z" fill="#519FC6"/>
<path d="M46.4961 25.9823C46.7415 24.8289 46.9623 23.6755 47.2568 22.5221C48.1648 19.0866 49.0973 15.651 50.0053 12.2399C50.128 11.7491 50.2262 11.2583 50.3979 10.7921C50.4716 10.5712 50.717 10.3994 50.8887 10.2031C50.9624 10.2522 51.0114 10.3013 51.0851 10.3504C51.1587 10.424 51.2323 10.5221 51.3059 10.5958C52.1648 11.381 52.4838 12.3872 52.3366 13.516C51.9194 13.2951 51.8458 13.6142 51.7722 13.9086C50.9869 16.8289 50.2016 19.7491 49.4163 22.6939C49.1219 23.7982 48.8765 24.9025 48.6065 26.0313C47.8949 25.9823 47.1832 25.9823 46.4961 25.9823Z" fill="#3FB2CF"/>
<path d="M32.31 16.9953C31.6474 16.8971 30.9848 16.799 30.3223 16.7008C30.6904 15.2775 31.0585 13.8542 31.4266 12.4309C32.1873 9.58426 32.948 6.73763 33.7088 3.89101C33.9542 3.00757 34.1996 2.12414 34.445 1.26524C34.494 1.04438 34.5186 0.798984 34.5431 0.578125C35.2057 0.578125 35.8683 0.578125 36.5309 0.578125C36.4082 1.118 36.31 1.68242 36.1873 2.2223C35.1566 6.05052 34.1014 9.90328 33.0953 13.7315C32.7763 14.7867 32.5554 15.891 32.31 16.9953Z" fill="#8A65A8"/>
<path d="M48.6055 25.9773C48.8754 24.873 49.1453 23.7442 49.4153 22.6399C50.2006 19.7197 50.9858 16.7749 51.7711 13.8546C51.8447 13.5602 51.9184 13.2657 52.3355 13.462C52.3355 14.6399 52.3601 15.7933 52.3601 16.9712C52.3601 19.6706 52.3601 22.37 52.3601 25.0694C52.3601 25.8792 52.2128 26.0264 51.403 26.0019C50.4705 26.0019 49.538 25.9773 48.6055 25.9773Z" fill="#36B9D3"/>
<path d="M32.3105 16.9953C32.5559 15.891 32.8013 14.8113 33.0713 13.7315C34.102 9.90328 35.1326 6.05052 36.1633 2.2223C36.3105 1.68242 36.4087 1.118 36.5069 0.578125C36.9731 0.578125 37.4394 0.578125 37.9056 0.578125C37.5621 1.87874 37.2431 3.17935 36.8995 4.47997C36.6296 5.55972 36.3842 6.66401 36.1388 7.76831C35.9915 7.84193 35.8197 7.91555 35.6725 7.96463C35.2553 8.30819 35.2063 8.72537 35.4271 9.19162C35.4762 9.31432 35.5007 9.41248 35.5498 9.53518C35.4517 9.7315 35.3044 9.92782 35.2553 10.1487C34.8872 11.4738 34.5191 12.799 34.1756 14.1241C33.9302 15.0812 33.6848 16.0382 33.4639 16.9953C33.0958 16.9708 32.7032 16.9708 32.3105 16.9953Z" fill="#846CAC"/>
<path d="M44.3861 18.418C44.3616 18.467 44.3371 18.5652 44.3125 18.5652C43.6009 18.4916 43.5518 19.0315 43.4045 19.5223C42.8892 21.4364 42.3984 23.3505 41.8831 25.2401C41.7604 25.7063 41.9076 25.7554 42.3248 25.7799C42.742 25.8045 43.1591 25.9026 43.5763 25.9517C42.1776 25.9272 40.7542 25.8781 39.3555 25.8536C39.4045 25.5591 39.4045 25.2646 39.4782 24.9947C39.8463 23.5713 40.1898 22.1726 40.5825 20.7738C40.8033 19.9885 41.0978 19.2278 41.3432 18.467C42.3493 18.467 43.3555 18.4425 44.3861 18.418Z" fill="#5E96C1"/>
<path d="M35.6973 7.9451C35.8445 7.87148 36.0163 7.79786 36.1635 7.74878C36.458 7.74878 36.7525 7.72424 37.047 7.74878C37.5132 7.8224 37.685 7.62608 37.8077 7.18436C38.1022 6.03099 38.4212 4.87761 38.7157 3.6997C38.9856 2.64448 39.2065 1.58927 39.4764 0.558594C40.2617 0.583134 41.047 0.632214 41.8322 0.656754C41.5132 2.00645 41.2187 3.35614 40.8997 4.70583C40.6543 5.76105 40.4335 6.81626 40.1881 7.87148C39.2555 7.89602 38.3476 7.9451 37.4151 7.96964C36.8261 7.96964 36.2617 7.9451 35.6973 7.9451Z" fill="#7A7CB4"/>
<path d="M40.1641 7.86707C40.4095 6.81185 40.6303 5.75664 40.8757 4.70142C41.1947 3.35173 41.4892 2.00204 41.8082 0.652344C42.3972 0.799583 42.9861 0.971363 43.5751 1.1186C43.6733 1.16768 43.7714 1.21676 43.8696 1.26584C43.9187 1.29038 43.9923 1.29038 44.0414 1.31492C44.0414 1.56032 44.0904 1.80572 44.0414 2.02658C43.5996 3.74437 43.1334 5.46216 42.6671 7.17995C42.5935 7.42535 42.4217 7.64621 42.2745 7.86707C41.5628 7.86707 40.8512 7.86707 40.1641 7.86707Z" fill="#6E86B9"/>
<path d="M41.3162 18.4727C41.0708 19.2334 40.7763 19.9941 40.5555 20.7794C40.1628 22.1782 39.7947 23.6015 39.4512 25.0003C39.3776 25.2702 39.3776 25.5647 39.3285 25.8592C38.5432 25.6874 37.7579 25.4911 36.9727 25.3193C37.3162 24.0923 37.6598 22.8408 38.0033 21.6138C38.2733 20.5831 38.4941 19.5524 38.7395 18.4972C39.5984 18.4972 40.4573 18.4972 41.3162 18.4727Z" fill="#678CBC"/>
<path d="M40.5085 16.8742C39.7723 16.8742 39.0116 16.8742 38.2754 16.8742C38.7416 15.0337 39.257 13.2177 39.6742 11.3773C39.8214 10.7392 40.3613 10.1012 39.7969 9.41406C40.7048 9.41406 41.5883 9.41406 42.4962 9.41406C42.4226 9.58584 42.3245 9.75762 42.2754 9.9294C41.9073 11.2791 41.5392 12.6042 41.1956 13.9539C40.9502 14.9355 40.7294 15.9171 40.5085 16.8742Z" fill="#6E86B9"/>
<path d="M40.5078 16.8742C40.7287 15.8926 40.9495 14.911 41.1949 13.9539C41.5385 12.6042 41.9066 11.2546 42.2747 9.9294C42.3238 9.75762 42.4219 9.58584 42.4955 9.41406C43.1581 9.41406 43.8207 9.41406 44.4833 9.41406C44.4587 9.63492 44.4587 9.88032 44.4097 10.1012C43.8943 12.0889 43.3544 14.0521 42.8391 16.0398C42.7655 16.3098 42.9127 16.6288 42.9618 16.9478C42.152 16.9233 41.3422 16.8987 40.5078 16.8742Z" fill="#6390BE"/>
<path d="M39.8194 9.41516C40.3838 10.1023 39.8439 10.7403 39.6967 11.3784C39.2795 13.2188 38.7642 15.0348 38.2979 16.8753C37.5863 16.8998 36.8992 16.9244 36.1875 16.9489C36.5065 15.6728 36.8501 14.3968 37.1691 13.1207C37.4881 11.8937 37.758 10.6422 38.0525 9.39062C38.6415 9.41516 39.2304 9.41516 39.8194 9.41516Z" fill="#757EB5"/>
<path d="M38.741 18.4916C38.4956 19.5223 38.2747 20.5775 38.0048 21.6082C37.6858 22.8597 37.3177 24.0867 36.9741 25.3137C36.1888 24.9701 35.379 24.6266 34.5938 24.2585C34.7655 24.0867 35.0109 23.9394 35.0845 23.7431C35.5017 22.2953 35.8944 20.8474 36.2625 19.375C36.3361 19.0805 36.287 18.737 36.287 18.418C37.1214 18.4425 37.9312 18.467 38.741 18.4916Z" fill="#7183B7"/>
<path d="M42.9613 16.9478C42.9122 16.6533 42.765 16.3098 42.8386 16.0398C43.3294 14.0521 43.8938 12.0644 44.4092 10.1012C44.4582 9.88032 44.4582 9.63492 44.4828 9.41406C45.4889 9.41406 46.5196 9.41406 47.5257 9.41406C47.2803 9.48768 47.0349 9.53676 46.8141 9.61038C46.6668 9.65946 46.4214 9.73308 46.3723 9.85578C45.7343 12.2361 45.0963 14.6411 44.4828 17.0214C43.992 16.9969 43.4766 16.9723 42.9613 16.9478Z" fill="#5A99C3"/>
<path d="M42.2754 7.87246C42.3981 7.6516 42.5944 7.43074 42.668 7.18534C43.1343 5.46755 43.6005 3.74976 44.0423 2.03197C44.0913 1.81111 44.0423 1.54117 44.0423 1.32031C45.0239 1.86019 46.03 2.37553 47.0116 2.9154C46.9134 2.89086 46.7907 2.9154 46.7416 2.84179C46.2508 2.42461 46.03 2.59639 45.9073 3.1608C45.6128 4.31418 45.2938 5.46755 44.9502 6.62093C44.7785 7.1608 44.5821 7.67614 45.3429 7.897C44.3122 7.897 43.2815 7.897 42.2754 7.87246Z" fill="#6690BE"/>
<path d="M36.2868 18.4492C36.2868 18.7682 36.3359 19.1118 36.2623 19.4063C35.8942 20.8787 35.5015 22.3265 35.0843 23.7744C35.0353 23.9707 34.7653 24.1179 34.5935 24.2897C33.9801 23.8971 33.342 23.5044 32.7285 23.1118C32.9248 22.5965 33.1702 22.1057 33.3175 21.5903C33.5874 20.5596 33.8083 19.5044 34.0537 18.4492C34.8144 18.4492 35.5506 18.4492 36.2868 18.4492Z" fill="#7A79B2"/>
<path d="M38.0545 9.41406C37.76 10.6656 37.4655 11.8926 37.171 13.1441C36.852 14.4202 36.5085 15.6963 36.1894 16.9723C35.6741 16.9723 35.1833 16.9723 34.668 16.9723C34.987 15.6717 35.306 14.3957 35.6005 13.095C35.895 11.8681 36.1404 10.6656 36.4348 9.4386C36.9502 9.41406 37.5146 9.41406 38.0545 9.41406Z" fill="#7C76B1"/>
<path d="M39.4516 0.558594C39.2062 1.61381 38.9608 2.66902 38.6908 3.6997C38.3963 4.85307 38.0528 6.00645 37.7828 7.18436C37.6847 7.62608 37.4884 7.79786 37.0221 7.74878C36.7276 7.6997 36.4332 7.74878 36.1387 7.74878C36.3841 6.64448 36.6295 5.56473 36.8994 4.46043C37.2184 3.15982 37.562 1.85921 37.9055 0.558594C38.4454 0.558594 38.9608 0.558594 39.4516 0.558594Z" fill="#7F71AE"/>
<path d="M45.3176 7.92316C44.5569 7.7023 44.7532 7.18696 44.925 6.64709C45.2685 5.49371 45.5876 4.34034 45.882 3.18696C46.0293 2.62255 46.2501 2.45077 46.7164 2.86794C46.79 2.91702 46.8882 2.91702 46.9863 2.94156C47.2317 3.11334 47.5017 3.30966 47.7471 3.48144C47.8207 3.55506 47.8943 3.60414 47.9679 3.67776V3.7023C47.5753 5.15015 47.1827 6.59801 46.8146 8.02132C46.3238 7.97224 45.833 7.9477 45.3176 7.92316Z" fill="#5A99C3"/>
<path d="M34.0515 18.4474C33.8061 19.5026 33.5853 20.5579 33.3153 21.5885C33.1681 22.1039 32.9227 22.5947 32.7264 23.11C32.1129 22.5701 31.4748 22.0302 30.8613 21.4904C31.1558 20.4106 31.4257 19.3309 31.7202 18.2266C32.5055 18.3002 33.2908 18.3738 34.0515 18.4474Z" fill="#846CAC"/>
<path d="M36.4116 9.41516C36.1416 10.6422 35.8717 11.8692 35.5772 13.0716C35.2827 14.3722 34.9637 15.6483 34.6447 16.9489C34.2521 16.9489 33.8594 16.9489 33.4668 16.9489C33.7122 15.9919 33.9331 15.0348 34.1785 14.0777C34.522 12.7526 34.8901 11.4274 35.2582 10.1023C35.3073 9.88142 35.4545 9.6851 35.5527 9.48878C35.6754 9.46425 35.7735 9.41516 35.8962 9.39062C36.0926 9.39062 36.2398 9.41516 36.4116 9.41516Z" fill="#7F71AE"/>
<path d="M46.8398 7.96746C47.2325 6.5196 47.6251 5.07175 47.9932 3.64844C48.3859 4.01654 48.7785 4.40917 49.1957 4.77727C49.3184 4.97359 49.4411 5.14537 49.5392 5.34169C49.6128 5.48893 49.711 5.66071 49.6619 5.78341C49.5147 6.42144 49.2938 7.05948 49.1221 7.69752C49.0239 8.04107 48.8521 8.1147 48.5331 8.09016C47.9932 8.04108 47.4533 8.01654 46.9135 7.992L46.8644 8.01654L46.8398 7.96746Z" fill="#519FC6"/>
<path d="M46.9375 7.96863C47.4774 7.99317 48.0173 8.01771 48.5571 8.06679C48.8761 8.09133 49.0725 8.01771 49.1461 7.67415C49.3179 7.03611 49.5142 6.42262 49.686 5.76004C49.7105 5.63734 49.6369 5.44102 49.5633 5.31832C49.4651 5.122 49.3179 4.92569 49.2197 4.75391C49.9559 5.66188 50.7166 6.56986 51.4038 7.52691C51.7719 8.01771 52.0173 8.60667 52.2872 9.17108C52.3608 9.31832 52.2627 9.53918 52.2381 9.71096C52.0663 9.68642 51.8455 9.7355 51.7228 9.63734C50.3485 8.80299 48.8761 8.18949 47.2565 8.11587C47.1338 8.11587 47.0357 8.04225 46.9375 7.96863Z" fill="#51AECE"/>
<path d="M35.9448 9.39384C35.8221 9.41838 35.7239 9.46746 35.6012 9.492C35.5521 9.3693 35.5276 9.27114 35.4785 9.14844C35.6258 9.22206 35.773 9.32022 35.9448 9.39384Z" fill="#7C76B1"/>
<path d="M49.392 9.51392C49.2448 9.48938 49.0976 9.48938 48.9258 9.46484C49.0976 9.48938 49.2448 9.51392 49.392 9.51392Z" fill="#5A99C3"/>
<path d="M51.3066 10.5462C51.233 10.4726 51.1593 10.3744 51.0857 10.3008C51.1348 10.3744 51.233 10.4726 51.3066 10.5462Z" fill="#48A8CB"/>
<path d="M47.9904 3.6221C47.9168 3.54848 47.8432 3.4994 47.7695 3.42578C47.8432 3.4994 47.9168 3.57302 47.9904 3.6221Z" fill="#51AECE"/>
<path d="M30.2491 16.6534C30.1754 16.6534 30.1264 16.6289 30.0527 16.6289C30.1264 16.6534 30.2 16.6534 30.2491 16.6534Z" fill="#8A65A8"/>
</g>
<defs>
<clipPath id="clip0_5_10238">
<rect width="80" height="38.773" fill="white" transform="translate(0.287109 0.410156)"/>
</clipPath>
</defs>
</svg>
