<svg width="81" height="16" viewBox="0 0 81 16" fill="none" xmlns="http://www.w3.org/2000/svg">
<g clip-path="url(#clip0_5_10288)">
<path d="M6.28022 5.06249L1.07459 5.24277C0.984446 5.24277 0.894305 5.28784 0.849235 5.35545C0.804165 5.42305 0.759094 5.49066 0.759094 5.5808L0.849235 7.00052C0.849235 7.1808 1.00698 7.31601 1.18726 7.31601H2.60698L2.94501 13.9864C2.94501 14.0766 2.99008 14.1667 3.05769 14.2118C3.12529 14.2794 3.21543 14.3019 3.30557 14.3019L4.90557 14.1892C5.08586 14.1892 5.2436 14.054 5.2436 13.8512L5.04078 7.27094L6.43797 7.2484C6.52811 7.2484 6.61825 7.20333 6.68585 7.13573C6.75346 7.06812 6.776 6.97798 6.776 6.88784L6.68585 5.37798C6.64078 5.1977 6.48304 5.06249 6.28022 5.06249C6.30276 5.06249 6.30276 5.06249 6.28022 5.06249ZM12.3647 5.51319L10.7873 5.42305C10.607 5.42305 10.4492 5.55826 10.4492 5.76108L10.4267 9.2315L9.75064 9.38925L9.57036 5.44559C9.57036 5.26531 9.43515 5.10756 9.23233 5.10756L7.6774 5.15263C7.49712 5.15263 7.33938 5.28784 7.33938 5.49066L7.58726 14.2569C7.58726 14.4371 7.72247 14.5949 7.92529 14.5949L9.48022 14.5498C9.57036 14.5498 9.6605 14.5047 9.72811 14.4597C9.79571 14.3921 9.81825 14.3019 9.81825 14.2118L9.63797 11.2597L10.2464 11.3047L10.3591 13.9188C10.3591 14.009 10.3816 14.0991 10.4492 14.1667C10.5168 14.2343 10.607 14.2794 10.6971 14.2794L12.3422 14.3921H12.3647C12.545 14.3921 12.7028 14.2569 12.7028 14.054V5.82869C12.7028 5.6484 12.5675 5.49066 12.3873 5.49066H12.3647V5.51319ZM18.2013 4.76953L16.7816 4.88221C16.6013 4.88221 16.4661 5.03995 16.4661 5.22024C16.4661 5.22024 16.4661 10.6963 16.4661 11.44C16.4661 11.8681 16.5112 12.5892 16.038 12.5892C15.6999 12.5892 15.6098 12.1385 15.6098 11.4625C15.6098 10.7188 15.6549 5.62587 15.6549 5.5808C15.6549 5.40052 15.5197 5.26531 15.3619 5.24277L13.7168 5.06249C13.5366 5.03995 13.3788 5.17516 13.3563 5.35545C13.3563 5.37798 13.3563 5.37798 13.3563 5.40052C13.3563 5.40052 13.4239 11.8231 13.4239 12.0484C13.4464 13.3329 14.5056 14.3695 15.7901 14.347C15.8126 14.347 15.8577 14.347 15.8802 14.347C17.9084 14.3019 18.269 13.085 18.4042 11.6653C18.4492 11.0794 18.5619 5.71601 18.5619 5.13009C18.5619 5.03995 18.5168 4.94981 18.4492 4.88221C18.4042 4.8146 18.2915 4.76953 18.2013 4.76953ZM24.4887 5.13009L23.0013 5.1977C22.9112 5.1977 22.8211 5.24277 22.776 5.31038C22.7084 5.37798 22.6859 5.46812 22.6859 5.55826L22.9337 9.68221L21.4013 5.42305C21.3563 5.28784 21.1985 5.1977 21.0633 5.1977L19.576 5.35545C19.4182 5.37798 19.283 5.51319 19.283 5.69347L19.5309 13.8062C19.5309 13.9864 19.6661 14.1442 19.869 14.1442L21.3563 14.2569C21.4464 14.2569 21.5366 14.2343 21.6042 14.1667C21.6718 14.0991 21.7168 14.009 21.6943 13.9188L21.4464 10.3808L22.7309 14.0766C22.776 14.2118 22.8887 14.2794 23.0239 14.3019H24.6239C24.714 14.3019 24.7816 14.2569 24.8492 14.2118C24.9168 14.1442 24.9619 14.054 24.9619 13.9639L24.8718 5.49066C24.8718 5.40052 24.8267 5.31038 24.7591 5.24277C24.669 5.15263 24.5788 5.13009 24.4887 5.13009ZM26.4943 4.94981H26.1563C25.976 4.94981 25.8182 5.08502 25.8182 5.28784L25.5478 13.716C25.5478 13.8963 25.683 14.0315 25.8633 14.054C25.8633 14.054 26.0661 14.0766 26.3591 14.0766C27.3957 14.0766 29.8971 13.8963 30.483 12.116C30.9563 10.6512 30.8887 8.66812 30.7535 7.69911C30.5506 5.85122 29.1309 4.94981 26.4943 4.94981ZM28.7253 10.516C28.545 11.9357 28.0943 12.0259 27.6211 12.2062L27.8464 6.91038C28.1168 6.93291 28.3422 7.09066 28.4999 7.31601C28.9056 7.83432 28.883 9.11883 28.7253 10.516ZM35.6661 12.5667L33.7056 12.7245L33.6154 10.8991L34.8774 10.8315C35.0577 10.8315 35.1929 10.6963 35.2154 10.5385L35.3281 9.41178C35.3506 9.32164 35.3056 9.20897 35.238 9.14136C35.1704 9.07376 35.0802 9.02869 34.9675 9.02869L33.5929 9.09629V7.11319H35.6211C35.8013 7.11319 35.9591 6.97798 35.9591 6.77517C35.9591 6.75263 35.9591 6.73009 35.9591 6.70756L35.8464 5.51319C35.8239 5.33291 35.6887 5.1977 35.5084 5.22024L31.7901 5.31038C31.6098 5.31038 31.4521 5.44559 31.4521 5.6484L31.5647 13.9864C31.5647 14.1667 31.6999 14.3245 31.9028 14.3245H35.6661C35.8464 14.3245 36.0042 14.1892 36.0042 13.9864L36.0267 12.9047C36.0267 12.8146 35.9816 12.7245 35.914 12.6569C35.8464 12.5892 35.7563 12.5667 35.6661 12.5667ZM41.7281 7.65404C41.638 6.48221 41.2323 4.92728 38.6859 4.92728C38.0549 4.92728 37.4013 5.01742 36.7704 5.13009C36.6126 5.15263 36.4999 5.28784 36.4999 5.46812L36.6126 13.6484C36.6126 13.8287 36.7478 13.9639 36.9281 13.9864L38.0999 14.0766C38.1901 14.0766 38.2802 14.054 38.3478 13.9864C38.4154 13.9188 38.4605 13.8287 38.4605 13.7385V11.1245L39.0464 11.1019L39.6999 13.9188C39.7225 14.0766 39.8577 14.1892 40.038 14.1892H40.0605L41.2323 14.0991C41.4126 14.0991 41.5478 13.9414 41.5478 13.7611C41.5478 13.7385 41.5478 13.7385 41.5478 13.716L40.714 10.5836C41.3225 10.1104 41.8633 9.29911 41.7281 7.65404ZM39.6323 8.82587C39.3168 9.09629 38.9112 9.25404 38.483 9.27657V6.88784C38.5957 6.86531 38.7084 6.84277 38.8211 6.84277C39.2718 6.84277 39.8126 7.04559 39.8802 7.99207C39.9253 8.28502 39.8352 8.60052 39.6323 8.82587ZM46.1901 10.0653C47.2943 8.75826 47.8577 7.06812 47.7675 5.35545C47.7675 5.17516 47.6323 5.01742 47.452 5.01742H47.4295L46.0323 5.10756C45.8521 5.10756 45.6943 5.24277 45.6943 5.42305V5.44559C45.7394 6.16671 45.2661 7.74418 44.5675 8.71319L44.6577 5.53573C44.6577 5.44559 44.6351 5.35545 44.5675 5.28784C44.4999 5.22024 44.4098 5.1977 44.3197 5.1977L42.5394 5.22024C42.4492 5.22024 42.3591 5.26531 42.314 5.31038C42.2464 5.37798 42.2239 5.46812 42.2239 5.55826L42.4267 14.0315C42.4267 14.1216 42.4718 14.2118 42.5394 14.2794C42.607 14.347 42.6971 14.3695 42.8098 14.347L44.207 14.1667C44.3647 14.1442 44.4999 14.009 44.4999 13.8287L44.5225 11.3498C44.8154 11.5301 45.6267 12.7245 45.7844 13.9188C45.807 14.0766 45.9422 14.2118 46.1225 14.2118H47.5873H47.6098C47.6999 14.2118 47.7675 14.1667 47.8351 14.1216C47.9028 14.054 47.9253 13.9639 47.9253 13.8738C47.8802 13.6033 47.3844 11.0118 46.1901 10.0653ZM50.3591 4.88221L48.7591 5.08502C48.6013 5.10756 48.4661 5.24277 48.4661 5.42305V13.6935C48.4661 13.7836 48.5112 13.8738 48.5788 13.9414C48.6464 14.009 48.7366 14.0315 48.8267 14.0315L50.5619 13.8963C50.7422 13.8963 50.8774 13.7385 50.8774 13.5583L50.7422 5.22024C50.7422 5.03995 50.607 4.88221 50.4267 4.88221C50.4042 4.88221 50.3816 4.88221 50.3591 4.88221ZM53.7394 5.10756C53.2661 5.13009 51.6661 5.44559 51.5535 7.74418C51.5535 8.03714 51.5309 8.33009 51.5084 8.60052C51.4182 10.178 51.3506 11.3273 51.5535 12.3188C51.6887 12.9047 52.1619 14.2794 54.145 14.2794C54.2577 14.2794 54.3929 14.2794 54.5281 14.2569C55.3394 14.1893 55.9478 13.9188 56.3309 13.4681C56.8718 12.8146 56.8042 12.0033 56.7591 11.5752V11.485C56.7591 11.3047 56.6013 11.1695 56.4211 11.1695L55.1816 11.2146C55.0915 11.2146 55.0013 11.2597 54.9337 11.3498C54.8661 11.4174 54.8436 11.5301 54.8661 11.6202C54.9337 11.9583 54.8661 12.2963 54.7084 12.5892C54.6182 12.7019 54.4605 12.7695 54.3253 12.747H54.3028C54.145 12.747 53.9873 12.7019 53.8746 12.5892C53.6943 12.409 53.4915 11.9357 53.5366 10.809C53.5366 10.5385 53.5591 10.2456 53.5816 9.90756C53.6042 9.05122 53.6492 8.08221 53.7394 7.49629C53.807 7.04559 53.8971 6.84277 54.2802 6.82024C54.483 6.77516 54.6859 6.84277 54.8436 6.97798C54.9337 7.13573 54.9788 7.31601 54.9337 7.49629C54.9112 7.58643 54.9337 7.69911 55.0014 7.76672C55.069 7.83432 55.1591 7.87939 55.2492 7.90193L56.7366 7.92446C56.9168 7.92446 57.0746 7.78925 57.0746 7.58643C57.0746 6.97798 56.8492 6.36953 56.4211 5.91883C55.8126 5.31038 54.9337 5.03995 53.7394 5.10756ZM63.6774 13.5808C63.6549 13.4907 63.0239 10.9667 61.6943 9.74981C62.3478 9.14136 63.6549 7.947 63.2042 5.22024C63.1816 5.03995 63.0239 4.92728 62.8436 4.94981L61.1084 5.15263C61.0182 5.15263 60.9281 5.22024 60.883 5.28784C60.838 5.35545 60.8154 5.44559 60.8154 5.53573C60.8154 5.55826 61.176 7.51883 59.8239 8.71319L59.8464 5.35545C59.8464 5.26531 59.8013 5.17517 59.7337 5.10756C59.6661 5.03995 59.576 5.01742 59.4633 5.01742L57.7732 5.22024C57.6154 5.24277 57.4802 5.37798 57.4802 5.55826L57.683 13.9414C57.683 14.0315 57.7281 14.1216 57.7957 14.1892C57.8633 14.2569 57.9535 14.2794 58.0211 14.2794H58.0436L59.5084 14.1216C59.6661 14.0991 59.8013 13.9639 59.8013 13.7836L59.914 11.1695C60.6126 11.9357 61.0633 12.8822 61.2661 13.8963C61.2887 14.0766 61.4464 14.2118 61.6267 14.1892L63.3394 13.9864C63.4295 13.9864 63.5197 13.9188 63.5647 13.8512C63.6774 13.7611 63.6999 13.6709 63.6774 13.5808Z" fill="#8C4ABE"/>
<path d="M79.6093 10.3984L80.06 7.24343L78.167 3.29977L76.8825 3.72794L75.2149 1.94766L72.2628 0.347656L71.6318 2.73639L71.1811 1.47442L68.905 3.68287L67.6431 5.89132L67.598 8.18991L66.6966 7.76174L67.305 11.4575L68.6797 13.8237L71.9473 14.9505L74.629 15.0406L79.2262 13.373L80.5557 10.1054L79.6093 10.3984ZM77.6036 8.66315L74.9895 8.73075L74.8994 11.6829L74.7642 13.4181L72.4656 13.3955V11.7279L72.2853 8.8209L69.5586 8.93357L69.4684 6.11667L73.4797 6.09414L77.6487 5.98146L77.7163 6.36456L77.6036 8.66315Z" fill="#8C4ABE"/>
</g>
<defs>
<clipPath id="clip0_5_10288">
<rect width="80" height="14.8732" fill="white" transform="translate(0.763 0.261719)"/>
</clipPath>
</defs>
</svg>
