<svg width="81" height="26" viewBox="0 0 81 26" fill="none" xmlns="http://www.w3.org/2000/svg">
<g clip-path="url(#clip0_5_10297)">
<path d="M11.7618 25.6975C11.2194 25.6749 10.6997 25.6297 10.1573 25.6071C9.52452 25.5845 8.91435 25.5393 8.28158 25.5167C8.23638 25.5167 8.19118 25.4941 8.16858 25.4489C6.88045 24.3641 5.59231 23.302 4.28158 22.2172C3.73921 21.7427 3.17423 21.2907 2.60926 20.8387C2.56406 20.8161 2.51887 20.7483 2.51887 20.7031C2.13469 19.5506 1.75051 18.3754 1.36632 17.2229C1.23073 16.7935 1.14034 16.3189 1.02734 15.867C0.823952 14.9856 0.597963 14.1043 0.394574 13.2229C0.371975 13.1325 0.371975 13.0873 0.394574 12.9969C0.530167 12.5223 0.66576 12.0478 0.823952 11.5506C1.36633 9.60708 1.9313 7.68618 2.47367 5.76527C2.49627 5.69747 2.49627 5.65228 2.51887 5.58448C2.54147 5.44889 2.60926 5.38109 2.72226 5.31329C2.74486 5.2907 2.79005 5.2681 2.81265 5.2229C3.71661 4.40934 4.59796 3.59578 5.50192 2.78222C5.8635 2.46584 6.27028 2.19465 6.65446 1.90086C7.15164 1.51668 7.64881 1.1325 8.16858 0.770921C8.19118 0.748323 8.23638 0.725724 8.28158 0.725724C10.5867 0.725724 12.8691 0.703125 15.1742 0.703125C15.1968 0.703125 15.242 0.725724 15.2646 0.725724C16.2138 1.42629 17.1855 2.14945 18.1347 2.89522C18.4511 3.1438 18.7449 3.43759 19.0386 3.70877C19.6488 4.27375 20.259 4.83872 20.8692 5.40369C20.8918 5.42629 20.9369 5.49408 20.9595 5.53928C21.6601 7.95736 22.3381 10.3528 23.0386 12.7709V12.7935C23.1516 12.9743 23.1064 13.1551 23.0612 13.3585C22.7449 14.5788 22.4737 15.7992 22.1573 17.0195C22.0443 17.4489 21.8861 17.8783 21.7505 18.285L20.9821 20.6579C20.9595 20.7483 20.9143 20.7935 20.8692 20.8387C19.0838 22.3302 17.2759 23.8218 15.5132 25.3133C15.3776 25.4489 15.1968 25.5167 15.0386 25.5167C14.5189 25.5393 13.9991 25.5619 13.4793 25.6071C12.9821 25.6297 12.4624 25.6749 11.9652 25.6975C11.8748 25.6975 11.8296 25.6975 11.7618 25.6975ZM15.1742 18.3302C15.8748 19.415 16.5528 20.4997 17.2533 21.5845C17.2759 21.5619 17.2759 21.5619 17.2759 21.5619C17.4793 21.1325 17.7053 20.7257 17.9313 20.2963C17.9539 20.2737 17.9539 20.2285 17.9539 20.2059C17.9765 20.0026 17.9765 19.8444 17.9765 19.641L18.0669 17.9009C18.0895 17.6297 18.0895 17.3359 18.1121 17.0421C18.0895 17.0421 18.0669 17.0647 18.0217 17.0647C17.3211 17.2907 16.6206 17.4941 15.92 17.7201C15.8974 17.7201 15.8748 17.7427 15.8522 17.7427C15.6488 17.9461 15.4228 18.1043 15.1742 18.3302ZM5.38892 17.0195C5.41152 17.3133 5.41152 17.5845 5.43412 17.8783C5.47932 18.6466 5.52452 19.3924 5.56971 20.1608C5.56971 20.206 5.59231 20.2737 5.61491 20.3189C5.8183 20.7031 6.02169 21.1099 6.20248 21.4941C6.22508 21.5167 6.22508 21.5393 6.24768 21.5845C6.94825 20.4997 7.62621 19.415 8.32678 18.3302C8.07819 18.1269 7.8522 17.9461 7.62621 17.7427C7.60361 17.7201 7.60361 17.7201 7.55842 17.7201C7.03864 17.5619 6.51887 17.4037 5.99909 17.2229C5.8183 17.1551 5.59231 17.0873 5.38892 17.0195ZM4.59796 14.2398C4.62056 14.2172 4.64316 14.1721 4.66576 14.1495C5.07254 13.5619 5.47932 12.9743 5.8861 12.3867C5.97649 12.2511 6.06689 12.093 6.11209 11.9122C6.17988 11.6862 6.24768 11.4602 6.31548 11.2116C5.20813 10.7822 4.07819 10.398 2.94825 9.96866C2.97084 10.4432 3.03864 10.8952 3.06124 11.3698C3.06124 11.4602 3.08384 11.528 3.12904 11.5732L4.14599 13.4263C4.30418 13.6975 4.46237 13.9687 4.59796 14.2398ZM18.903 14.2398C18.9256 14.2172 18.9256 14.2172 18.9256 14.2172C19.4228 13.3359 19.92 12.4319 20.4172 11.5506C20.4398 11.528 20.4398 11.4828 20.4398 11.4602C20.4624 11.2568 20.4624 11.0986 20.485 10.8952C20.5076 10.6014 20.5302 10.3076 20.5754 9.99126C19.4454 10.4206 18.3381 10.8048 17.2081 11.2342C17.2985 11.5506 17.3889 11.8444 17.4567 12.1608C17.4793 12.1834 17.4793 12.2285 17.5019 12.2511C17.9539 12.9065 18.3833 13.5393 18.8353 14.1721C18.8804 14.1947 18.8804 14.2172 18.903 14.2398ZM17.0725 21.7201C16.372 20.6353 15.694 19.5506 15.016 18.4658C14.7675 18.6692 14.5415 18.8726 14.2929 19.076C14.2703 19.0986 14.2703 19.0986 14.2477 19.1438C13.8635 19.8218 13.4567 20.4997 13.0725 21.1777C13.0499 21.2003 13.0499 21.2003 13.0499 21.2229C13.0725 21.2229 13.0725 21.2455 13.0951 21.2455C13.9765 21.4941 14.8579 21.7653 15.7392 22.0139C15.7618 22.0365 15.807 22.0365 15.8296 22.0139C16.1234 21.9235 16.4172 21.8783 16.711 21.7879C16.824 21.7879 16.9369 21.7427 17.0725 21.7201ZM10.4737 21.2229C10.4511 21.2003 10.4511 21.2003 10.4511 21.1777C10.0443 20.4771 9.66011 19.7992 9.25333 19.0986C9.23073 19.076 9.23073 19.0534 9.23073 19.0534C8.98214 18.85 8.75616 18.6466 8.50757 18.4432C7.8296 19.528 7.12904 20.6127 6.45107 21.6975C6.47367 21.7201 6.47367 21.7201 6.49627 21.7201C6.85785 21.8105 7.21943 21.9009 7.58101 21.9913C7.67141 22.0139 7.73921 22.0365 7.807 22.0139C8.55277 21.8105 9.29853 21.5845 10.0443 21.3585C10.1799 21.3133 10.3155 21.2907 10.4737 21.2229ZM14.903 5.67488C14.8804 5.65228 14.8804 5.62968 14.8579 5.58448C14.2929 4.79352 13.7279 4.02516 13.1629 3.2342C13.1403 3.2116 13.1177 3.189 13.0725 3.1664C12.711 2.96301 12.3042 2.80482 11.9426 2.60143C11.92 2.57883 11.8974 2.57883 11.8748 2.57883V6.57883H12.6884C12.7336 6.57883 12.7788 6.55623 12.824 6.55623C13.1403 6.42064 13.4793 6.28505 13.8183 6.12685C14.1573 5.96866 14.5189 5.83307 14.903 5.67488ZM11.6488 6.57883V2.55623C11.6262 2.57883 11.6036 2.57883 11.581 2.57883C11.2194 2.75962 10.8579 2.94041 10.4737 3.1212C10.4285 3.1438 10.3833 3.189 10.3381 3.2342L8.68836 5.51668L8.59796 5.62968C8.64316 5.67488 8.66576 5.67488 8.68836 5.69748C9.32113 5.96866 9.9313 6.23985 10.5641 6.51103C10.6319 6.53363 10.6997 6.57883 10.7675 6.60143C11.0386 6.57883 11.3324 6.57883 11.6488 6.57883ZM20.485 9.72007L20.3946 9.62968C20.146 9.31329 19.8974 8.97431 19.6488 8.65793C19.6262 8.61273 19.5584 8.56753 19.5132 8.54493C18.8579 8.25115 18.2025 7.95736 17.5471 7.66358C17.3437 7.57318 17.1403 7.48279 16.9369 7.39239C16.9369 7.43759 16.9369 7.48279 16.9143 7.52798C16.8918 8.29635 16.8466 9.06471 16.824 9.83307C16.824 9.94606 16.8465 10.0591 16.8692 10.1721C16.9369 10.398 17.0047 10.6014 17.0725 10.8274C17.0951 10.8726 17.0951 10.9178 17.0951 10.963C18.2477 10.5562 19.355 10.1269 20.485 9.72007ZM6.38327 10.963C6.47367 10.6466 6.56406 10.3302 6.63186 10.0365C6.65446 10.0139 6.63186 9.94606 6.63186 9.92346C6.60926 9.2455 6.58666 8.59013 6.54147 7.91216C6.54147 7.75397 6.51887 7.59578 6.51887 7.41499C6.49627 7.41499 6.49627 7.43759 6.47367 7.43759L3.8974 8.59013C3.8748 8.61273 3.8296 8.61273 3.807 8.65793C3.55842 8.97431 3.28723 9.3133 3.03864 9.65228C3.01604 9.67488 3.01604 9.69747 2.99344 9.74267C4.16858 10.1269 5.25333 10.5562 6.38327 10.963ZM11.8748 13.5167V17.7879H14.5641C13.6827 16.3415 12.7788 14.9404 11.8748 13.5167ZM8.93695 17.7653H11.6262V13.4941C10.7449 14.9404 9.8409 16.3415 8.93695 17.7653ZM11.8748 7.41499V12.7031C12.598 11.5506 13.3211 10.398 14.0669 9.2455C13.3211 8.63533 12.598 8.02516 11.8748 7.41499ZM11.6488 12.7031V7.41499C10.9256 8.02516 10.1799 8.63533 9.45672 9.2455C10.1799 10.398 10.903 11.528 11.6488 12.7031ZM14.7901 17.6523C15.0612 16.6579 15.355 15.6862 15.6262 14.6918C14.4511 14.2624 13.2759 13.8105 12.0782 13.3585C12.9821 14.8274 13.8861 16.2285 14.7901 17.6523ZM8.73356 17.6523C9.63751 16.2059 10.5189 14.8048 11.4228 13.4037V13.3811C10.2477 13.8105 9.07254 14.2624 7.8974 14.6918C8.19118 15.6862 8.46237 16.6579 8.73356 17.6523ZM7.06124 11.2342C8.50757 11.7766 9.9539 12.3189 11.4002 12.8613C11.4002 12.8613 11.4002 12.8387 11.4228 12.8387C10.6997 11.7088 9.97649 10.5562 9.25333 9.42629C8.53017 10.0139 7.807 10.624 7.06124 11.2342ZM14.2477 9.40369C13.5245 10.5336 12.8014 11.6862 12.0782 12.8161C12.0782 12.8161 12.0782 12.8387 12.1008 12.8387C13.5471 12.2963 14.9708 11.7766 16.4398 11.2116C15.694 10.624 14.9708 10.0139 14.2477 9.40369ZM11.3324 13.1099C9.8861 12.5675 8.46237 12.0252 6.99344 11.4828C7.26463 12.4771 7.53582 13.4489 7.8296 14.4206L11.3324 13.1099ZM12.1912 13.1099C13.3437 13.5619 14.5189 13.9913 15.694 14.4432C15.9652 13.4715 16.2364 12.4997 16.5302 11.5054C15.0612 12.0252 13.6375 12.5675 12.1912 13.1099ZM21.1629 10.6692C20.9821 10.9856 20.824 11.2568 20.6658 11.5506C20.6432 11.5732 20.6432 11.6184 20.6432 11.6636C20.6206 12.0704 20.5754 12.4771 20.5528 12.8839C20.5076 13.4715 20.4624 14.0591 20.4172 14.6466C20.3946 15.0534 20.3494 15.4602 20.3268 15.867C20.3494 15.8444 20.3494 15.8444 20.372 15.8444C20.8692 15.302 21.3663 14.7596 21.8635 14.2172C21.8861 14.1947 21.8861 14.1495 21.8861 14.1269C21.8861 13.9009 21.8635 13.6749 21.8635 13.4489C21.8409 12.8161 21.7957 12.1834 21.7731 11.5506C21.7731 11.528 21.7731 11.4602 21.7505 11.4602C21.5471 11.189 21.3437 10.9404 21.1629 10.6692ZM3.21943 15.8896C3.19683 15.6862 3.19683 15.528 3.17423 15.3472C3.08384 14.1721 2.97084 12.9969 2.88045 11.8218C2.85785 11.641 2.83525 11.5054 2.74486 11.3698C2.60926 11.1664 2.49627 10.9178 2.38327 10.7144C2.36068 10.6918 2.36068 10.6918 2.36068 10.6466C2.17988 10.8952 1.99909 11.1664 1.8183 11.415C1.7957 11.4376 1.7957 11.4828 1.7957 11.5054C1.75051 12.3867 1.70531 13.2455 1.66011 14.1043C1.66011 14.1269 1.68271 14.1947 1.70531 14.2172C2.02169 14.5788 2.36068 14.9404 2.69966 15.302L3.21943 15.8896ZM18.1121 21.4037C18.4059 21.3133 18.6771 21.2229 18.9482 21.1551C18.9708 21.1551 18.9934 21.1325 19.016 21.0873C19.4906 20.4319 19.9426 19.754 20.4172 19.1212C20.4624 19.0534 20.4624 19.0082 20.4398 18.9404C20.3494 18.4432 20.2816 17.9235 20.1912 17.4037C20.146 17.1551 20.1008 16.8839 20.0556 16.6127C20.033 16.6353 20.033 16.6353 20.033 16.6579C19.4002 17.8783 18.7901 19.076 18.1573 20.2963C18.1347 20.3189 18.1347 20.3415 18.1347 20.3867C18.1347 20.7031 18.1347 21.0421 18.1121 21.4037ZM3.42282 16.5901C3.42282 16.6127 3.40022 16.6353 3.40022 16.6579C3.26463 17.4263 3.15164 18.1947 3.03864 18.963C3.03864 18.9856 3.06124 19.0534 3.06124 19.0986C3.53582 19.754 3.98779 20.4319 4.48497 21.1099C4.50757 21.1325 4.55277 21.1777 4.57536 21.2003C4.71096 21.2455 4.86915 21.2907 5.00474 21.3359C5.14034 21.3585 5.25333 21.4263 5.38892 21.4489C5.36632 21.1099 5.36632 20.7935 5.34373 20.4771C5.34373 20.4093 5.32113 20.3415 5.29853 20.2963C4.68836 19.0986 4.07819 17.9235 3.46802 16.7257C3.44542 16.6579 3.44542 16.6353 3.42282 16.5901ZM17.2759 5.1325C17.2759 5.1551 17.2533 5.1551 17.2533 5.1551C17.2759 5.1777 17.2759 5.1777 17.2985 5.1777C18.0895 6.21725 18.8804 7.2342 19.694 8.27375C19.7166 8.29634 19.7618 8.34154 19.7844 8.36414C20.033 8.47714 20.3042 8.61273 20.5528 8.72572C20.5754 8.74832 20.598 8.74832 20.6206 8.74832C20.6206 8.70313 20.6206 8.65793 20.6432 8.63533C20.6658 8.38674 20.6658 8.09296 20.6658 7.84437C20.6658 7.79917 20.6432 7.73137 20.6432 7.68618L19.4906 5.60708C19.4228 5.49409 19.355 5.47149 19.2646 5.44889C18.7223 5.35849 18.1799 5.2907 17.6375 5.2003C17.5019 5.1777 17.3889 5.1551 17.2759 5.1325ZM2.88045 8.74832C2.90305 8.72572 2.94825 8.72572 2.97084 8.72572C3.21943 8.61273 3.46802 8.49973 3.73921 8.38674C3.7844 8.36414 3.8296 8.34154 3.8522 8.29635C4.64316 7.2794 5.43412 6.26245 6.20248 5.2455C6.22508 5.2229 6.22508 5.2229 6.24768 5.1777H6.17988C5.52452 5.2681 4.84655 5.38109 4.16859 5.49409C4.14599 5.49409 4.10079 5.51668 4.07819 5.56188C3.67141 6.28505 3.26463 7.00821 2.85785 7.75397C2.83525 7.77657 2.83525 7.79917 2.83525 7.84437C2.83525 8.02516 2.85785 8.20595 2.85785 8.38674C2.88045 8.45454 2.88045 8.59013 2.88045 8.74832ZM12.6658 2.10426C12.6658 2.12685 12.6432 2.12685 12.6432 2.14945C12.824 2.39804 13.0047 2.62403 13.1855 2.85002C13.2081 2.89521 13.2759 2.94041 13.2985 2.94041C14.4059 3.48279 15.5132 4.04776 16.6206 4.59013C16.6432 4.61273 16.6658 4.61273 16.711 4.61273C16.6884 4.59013 16.6884 4.56753 16.6884 4.54493C16.3946 3.84437 16.1234 3.1664 15.8296 2.46584C15.807 2.44324 15.7618 2.39804 15.7392 2.37544C15.016 2.14945 14.2703 1.92346 13.5471 1.72007C13.5245 1.72007 13.4793 1.69747 13.4567 1.72007C13.1855 1.87827 12.9143 1.99126 12.6658 2.10426ZM6.81265 4.65793C6.83525 4.63533 6.85785 4.63533 6.88045 4.63533C7.98779 4.07036 9.11774 3.52798 10.2477 2.96301C10.2703 2.94041 10.3155 2.94041 10.3381 2.89522C10.4963 2.66923 10.6771 2.42064 10.8353 2.19465C10.8579 2.17205 10.8579 2.17205 10.8804 2.12685C10.6093 2.01386 10.3381 1.90086 10.0895 1.78787C10.0669 1.76527 10.0443 1.78787 9.99909 1.78787C9.25333 2.01386 8.53017 2.23985 7.7844 2.44324C7.73921 2.46584 7.71661 2.48844 7.69401 2.53363C7.42282 3.2116 7.12904 3.86697 6.85785 4.54493C6.83525 4.59013 6.83525 4.61273 6.81265 4.65793ZM12.1008 23.2794C12.1234 23.302 12.1234 23.302 12.146 23.302C12.7336 23.6636 13.3211 24.0252 13.9087 24.4093C13.9313 24.4319 13.9991 24.4319 14.0217 24.4093C14.7223 24.093 15.4454 23.7766 16.146 23.4602C16.1686 23.4376 16.2138 23.415 16.2364 23.3698C16.372 23.1438 16.485 22.9404 16.6206 22.7144C16.6432 22.6918 16.6432 22.6692 16.6658 22.624C16.4172 22.5336 16.1912 22.4884 15.9426 22.398C15.807 22.3528 15.6714 22.3528 15.5358 22.398C14.6093 22.6466 13.7053 22.8726 12.7788 23.0986C12.5754 23.1664 12.3494 23.2116 12.1008 23.2794ZM11.4002 23.2794C11.3776 23.2568 11.355 23.2568 11.3098 23.2568C10.1799 22.963 9.04994 22.6918 7.9426 22.398C7.807 22.3754 7.69401 22.3754 7.55842 22.4206C7.37762 22.4884 7.19683 22.5336 7.01604 22.5788C6.94825 22.6014 6.90305 22.6014 6.81265 22.6466C6.94825 22.8952 7.10644 23.1438 7.24203 23.415C7.26463 23.4376 7.30983 23.5054 7.33243 23.5054C8.03299 23.8218 8.75616 24.1382 9.45672 24.4319C9.50192 24.4545 9.54712 24.4545 9.59231 24.4093C9.9539 24.1834 10.3381 23.9348 10.6997 23.7088C10.9256 23.5732 11.1516 23.4376 11.4002 23.2794ZM7.76181 7.03081C7.73921 7.07601 7.73921 7.0986 7.73921 7.1212C7.49062 7.97996 7.26463 8.83872 7.01604 9.67488C6.92565 9.92346 6.88045 10.1947 6.92565 10.4884C6.94825 10.6466 6.94825 10.8048 6.94825 10.963V11.0308C7.69401 10.4206 8.41717 9.81047 9.14034 9.1777C8.66576 8.45454 8.21378 7.75397 7.76181 7.03081ZM16.598 11.0082C16.6206 10.6918 16.6206 10.3754 16.6206 10.0817C16.6206 10.0591 16.598 10.0365 16.598 9.99126L15.807 7.09861C15.807 7.07601 15.7844 7.05341 15.7844 7.00821C15.3324 7.73137 14.8579 8.45454 14.4059 9.1777C15.129 9.78787 15.8748 10.398 16.598 11.0082ZM15.8974 14.4884L18.1347 15.302C18.1121 15.2568 18.1121 15.2116 18.1121 15.189C17.8861 14.4206 17.6601 13.6297 17.4567 12.8387C17.3437 12.4319 17.2081 12.0704 16.9821 11.7992C16.8917 11.7088 16.8465 11.5958 16.7788 11.4828C16.4624 12.5223 16.1686 13.5167 15.8974 14.4884ZM5.38892 15.3246L7.62621 14.511C7.33243 13.5167 7.06124 12.5223 6.79005 11.528C6.60926 11.7766 6.45107 12.0252 6.27028 12.2737C6.24768 12.2963 6.24768 12.3189 6.24768 12.3641C6.08949 12.9517 5.9087 13.5393 5.75051 14.1495C5.61491 14.5336 5.50192 14.9178 5.38892 15.3246ZM18.0217 15.6184C17.2759 15.3472 16.5528 15.076 15.807 14.8048C15.5358 15.7992 15.2646 16.7709 14.9708 17.7427C14.9934 17.7427 15.016 17.7201 15.0612 17.7201C15.242 17.6749 15.4228 17.6071 15.6036 17.5619C15.7392 17.5393 15.8522 17.4489 15.9878 17.3585L17.9765 15.7088C17.9765 15.6636 17.9991 15.6184 18.0217 15.6184ZM5.47932 15.6184C5.50192 15.641 5.54712 15.6636 5.56971 15.6862L7.55842 17.3359C7.69401 17.4263 7.807 17.5167 7.9426 17.5393L8.23638 17.6297C8.32678 17.6523 8.43977 17.6975 8.55277 17.7201C8.53017 17.6749 8.53017 17.6523 8.53017 17.6297L7.76181 14.8726C7.73921 14.8048 7.73921 14.7822 7.67141 14.8048C7.19683 14.9856 6.74486 15.1438 6.29288 15.3246C5.99909 15.415 5.75051 15.5054 5.47932 15.6184ZM11.8748 18.0817V20.7257C11.8974 20.7031 11.92 20.7031 11.9426 20.6805C12.5528 20.1608 13.1855 19.641 13.7957 19.1212C14.0443 18.9178 14.2477 18.6918 14.4059 18.3754C14.4511 18.285 14.5189 18.1721 14.5867 18.0591C14.5867 18.0817 11.8748 18.0817 11.8748 18.0817ZM8.91435 18.0817C9.04994 18.3302 9.18553 18.5562 9.32113 18.7822C9.34373 18.8048 9.36632 18.85 9.41152 18.8726C10.1347 19.4828 10.8579 20.093 11.6036 20.7031C11.6262 20.7257 11.6262 20.7257 11.6488 20.7257V18.0817H8.91435ZM14.2025 9.04211C14.6545 8.34154 15.1064 7.61838 15.5584 6.89522H12.9821C12.8466 6.89522 12.711 6.91781 12.5528 6.98561C12.372 7.07601 12.1912 7.1438 12.0104 7.2342C12.7336 7.82177 13.4793 8.40934 14.2025 9.04211ZM7.9426 6.87262C8.41717 7.59578 8.84655 8.31894 9.29853 9.01951C10.0217 8.40934 10.7449 7.79917 11.4906 7.189C11.468 7.1664 11.4454 7.1664 11.4228 7.1664C11.2194 7.07601 10.9934 6.98561 10.7901 6.89522C10.7675 6.87262 10.7223 6.87262 10.6771 6.87262H8.03299C8.01039 6.87262 7.98779 6.87262 7.9426 6.87262ZM20.0556 15.9122C20.1686 14.624 20.259 13.3585 20.372 12.093H20.3494C19.92 12.8839 19.468 13.6523 19.0386 14.4432C19.3776 14.9404 19.7166 15.415 20.0556 15.9122ZM3.44542 15.9122C3.7844 15.415 4.12339 14.9404 4.46237 14.4658C4.03299 13.6749 3.58101 12.8839 3.15164 12.1156C3.15164 12.1156 3.12904 12.1156 3.12904 12.1382C3.21943 13.3585 3.33243 14.624 3.44542 15.9122ZM3.60361 16.4545C4.16859 17.5619 4.73356 18.6466 5.27593 19.7088C5.27593 19.7088 5.29853 19.7088 5.29853 19.6862L5.16294 16.9291C4.64316 16.7935 4.14599 16.6353 3.60361 16.4545ZM18.2025 19.7088C18.7675 18.624 19.3324 17.5393 19.8974 16.4545C19.355 16.6127 18.8579 16.7709 18.3381 16.9291C18.2929 17.8783 18.2477 18.7822 18.2025 19.7088ZM6.47367 5.2681C5.75051 6.21725 5.02734 7.1664 4.28158 8.09296C4.30418 8.11555 4.30418 8.11555 4.32678 8.09296C5.02734 7.77657 5.7731 7.43759 6.47367 7.1212C6.51887 7.0986 6.51887 7.07601 6.51887 7.03081C6.49627 6.60143 6.49627 6.14945 6.47367 5.69748C6.49627 5.56188 6.47367 5.40369 6.47367 5.2681ZM19.2194 8.11555C18.5189 7.1664 17.7957 6.21725 17.0725 5.2907C17.0725 5.33589 17.0725 5.38109 17.0499 5.38109C17.0273 5.92346 17.0273 6.46584 16.9821 7.00821C16.9821 7.0986 17.0047 7.1212 17.0499 7.1438L18.6545 7.86697C18.8127 7.93476 19.016 8.00256 19.2194 8.11555ZM9.9087 3.46019C8.91435 3.93476 7.92 4.43194 6.90305 4.92911C7.37762 5.1325 7.8522 5.33589 8.32678 5.53928C8.37197 5.56188 8.41717 5.56188 8.46237 5.51668C8.77876 5.04211 9.11774 4.59013 9.45672 4.13815C9.59231 3.88957 9.75051 3.68618 9.9087 3.46019ZM16.598 4.95171C15.6036 4.43194 14.6093 3.95736 13.6149 3.43759C13.6149 3.46019 13.5923 3.46019 13.5923 3.46019C13.6149 3.50539 13.6827 3.55058 13.7053 3.59578L15.0612 5.49409C15.0838 5.51668 15.129 5.53928 15.1516 5.51668C15.6488 5.33589 16.1234 5.1325 16.598 4.95171ZM12.0104 23.0082C13.0951 22.737 14.1347 22.4658 15.1968 22.1947C15.1742 22.1721 15.1742 22.1721 15.1516 22.1721C14.4059 21.9461 13.6827 21.7427 12.9369 21.5167C12.8917 21.4941 12.8692 21.5167 12.8466 21.5619C12.6432 21.9235 12.4172 22.285 12.2364 22.6466C12.1686 22.7596 12.0782 22.8726 12.0104 23.0082ZM8.32678 22.1721C9.36632 22.4658 10.4511 22.7144 11.5132 22.9856C11.4906 22.963 11.4906 22.9404 11.4906 22.9404C11.2194 22.4658 10.9482 22.0139 10.6771 21.5393C10.6545 21.4715 10.6093 21.4941 10.5641 21.4941C10.0443 21.6297 9.54712 21.8105 9.02734 21.9461C8.77876 22.0365 8.55277 22.1043 8.32678 22.1721ZM7.44542 2.55623H7.40022C6.92565 2.69183 6.40587 2.85002 5.9313 3.00821C5.8183 3.03081 5.72791 3.1438 5.61491 3.2116C5.9313 3.70878 6.24768 4.20595 6.54147 4.70312C6.83525 3.97996 7.12904 3.2794 7.44542 2.55623ZM16.0782 2.55623C16.3946 3.2794 16.6658 3.97996 16.9595 4.68053C17.2759 4.18335 17.5923 3.68618 17.8861 3.189C17.7731 3.1212 17.6827 3.05341 17.5923 3.00821C17.2533 2.89522 16.8917 2.80482 16.5528 2.69183C16.4172 2.64663 16.259 2.60143 16.0782 2.55623ZM20.2816 16.4545C20.4172 17.2229 20.5302 18.0139 20.6658 18.8048C20.6884 18.7596 20.711 18.7144 20.7336 18.7144C21.0499 18.285 21.3437 17.8331 21.6601 17.4263C21.7505 17.3133 21.7731 17.1777 21.7957 17.0421C21.2985 16.8161 20.8014 16.6353 20.2816 16.4545ZM2.81265 18.7822L2.83525 18.7596C2.97084 17.9913 3.08384 17.2229 3.19683 16.4545C2.67706 16.6579 2.17988 16.8161 1.68271 17.0195C1.70531 17.1777 1.7731 17.3133 1.8409 17.4489C2.15729 17.8783 2.42847 18.285 2.74486 18.7144C2.81265 18.7144 2.81265 18.737 2.81265 18.7822ZM21.8861 14.5336C21.3889 15.076 20.8917 15.6184 20.372 16.1608C20.8917 16.3641 21.3663 16.5223 21.8861 16.7257C21.9765 16.4545 21.9765 16.4545 21.9765 16.1834C21.9539 16.0478 21.9539 15.9122 21.9539 15.7766C21.9313 15.3698 21.8861 14.963 21.8861 14.5336ZM1.63751 14.5336V14.6014C1.61491 15.1438 1.59231 15.7088 1.54712 16.2511C1.52452 16.4319 1.56971 16.5675 1.63751 16.7257C2.13469 16.5223 2.63186 16.3641 3.15164 16.1608C2.63186 15.6184 2.13469 15.0986 1.63751 14.5336ZM19.1968 5.1325C18.903 4.63533 18.6545 4.13815 18.3833 3.66358C18.2929 3.52798 18.1799 3.46019 18.0895 3.36979L17.1629 4.83872C17.8409 4.92911 18.5189 5.01951 19.1968 5.1325ZM6.36067 4.83872C6.04429 4.34154 5.75051 3.86697 5.43412 3.36979C5.34373 3.46019 5.23073 3.52798 5.18553 3.64098C4.91435 4.11555 4.64316 4.59013 4.37197 5.06471C4.34938 5.08731 4.34938 5.08731 4.34938 5.1551C5.00474 5.01951 5.68271 4.92911 6.36067 4.83872ZM13.6601 24.5675C13.0499 24.1834 12.4624 23.8218 11.8748 23.4376V25.2229C11.9878 25.2229 12.0782 25.2455 12.1912 25.2229C12.6884 25.0195 13.1629 24.7935 13.6601 24.5675ZM11.6488 23.4376C11.0612 23.7992 10.4511 24.1834 9.8635 24.5675C9.8861 24.5901 9.9087 24.5901 9.9539 24.5901C10.4059 24.7935 10.8353 24.9743 11.2872 25.1777C11.4228 25.2455 11.5358 25.2003 11.6714 25.2003C11.6488 24.6353 11.6488 24.0478 11.6488 23.4376ZM22.8804 13.1099C22.5641 12.6805 22.2929 12.2511 21.9765 11.8218C21.9991 12.5449 22.0443 13.2681 22.0895 13.9913C22.3381 13.6749 22.6093 13.4037 22.8804 13.1099ZM1.54712 11.8444C1.23073 12.2511 0.959545 12.6579 0.643161 13.1099C0.914347 13.4037 1.18553 13.6975 1.45672 13.9913C1.47932 13.2455 1.50192 12.5449 1.54712 11.8444ZM2.81265 7.2794C3.15164 6.69183 3.46802 6.08166 3.807 5.49409C3.44542 5.53928 3.08384 5.60708 2.72226 5.65228C2.76745 6.19465 2.81265 6.71443 2.81265 7.2794ZM20.7562 5.65228C20.3946 5.60708 20.0556 5.53928 19.6714 5.49409C20.0104 6.08166 20.3268 6.69183 20.6658 7.2794C20.711 6.71443 20.7336 6.19465 20.7562 5.65228ZM4.12339 20.9969C3.73921 20.4545 3.35503 19.9122 2.97084 19.3698C2.90305 19.7992 2.83525 20.1834 2.76745 20.5901C3.21943 20.7257 3.67141 20.8613 4.12339 20.9969ZM19.3776 20.9969C19.8522 20.8613 20.2816 20.7483 20.7336 20.5901C20.6658 20.1834 20.598 19.7766 20.5302 19.3698C20.146 19.9122 19.7844 20.4545 19.3776 20.9969ZM14.2703 24.6353C14.5867 24.8387 14.8579 24.9969 15.1516 25.2003C15.1968 25.2229 15.2194 25.2229 15.242 25.1777L15.92 23.9574C15.9426 23.9348 15.9426 23.9122 15.9426 23.867C15.4002 24.1156 14.8353 24.3641 14.2703 24.6353ZM9.25333 24.6353C8.66576 24.3867 8.10079 24.1382 7.55842 23.867C7.807 24.3189 8.03299 24.7483 8.28158 25.1777C8.30418 25.2003 8.30418 25.2003 8.32678 25.2003C8.64316 24.9969 8.93695 24.8161 9.25333 24.6353ZM9.61491 1.58448C9.59231 1.56188 9.59231 1.56188 9.59231 1.56188L8.37197 1.01951C8.34938 0.99691 8.32678 1.01951 8.30418 1.06471C8.21378 1.2681 8.14599 1.47149 8.05559 1.67488C7.98779 1.81047 7.9426 1.94606 7.8748 2.10426C8.43977 1.94606 9.02734 1.76527 9.61491 1.58448ZM13.8861 1.58448C14.4737 1.76527 15.0612 1.94606 15.6488 2.12685C15.6262 2.08166 15.6262 2.05906 15.6262 2.03646C15.4906 1.72007 15.3776 1.42629 15.242 1.1099C15.2194 1.06471 15.1742 1.04211 15.129 1.06471C14.7449 1.2455 14.3607 1.40369 13.9765 1.56188C13.9313 1.53928 13.9313 1.56188 13.8861 1.58448ZM4.73356 14.4658L5.16294 15.2342C5.38892 14.4432 5.59231 13.6749 5.8183 12.9065C5.8183 12.9065 5.7957 12.9065 5.7957 12.8839C5.45672 13.4263 5.09514 13.9461 4.73356 14.4658ZM18.7675 14.4658C18.4059 13.9461 18.0443 13.4263 17.6827 12.9065C17.6827 12.9065 17.6601 12.9065 17.6601 12.9291C17.8861 13.6975 18.0895 14.4658 18.3155 15.2568C18.4963 14.9856 18.6319 14.737 18.7675 14.4658ZM7.51322 6.98561H7.46802C7.24203 7.07601 7.01604 7.189 6.79005 7.302C6.74486 7.32459 6.76746 7.34719 6.76746 7.39239C6.79005 7.84437 6.79005 8.27375 6.81265 8.72572C6.81265 8.92911 6.83525 9.08731 6.83525 9.2907H6.85785C7.06124 8.52233 7.30983 7.75397 7.51322 6.98561ZM16.6658 9.2907C16.6884 9.2681 16.6884 9.2229 16.6884 9.2003C16.711 8.59013 16.7336 7.97996 16.7562 7.36979C16.7562 7.32459 16.7336 7.302 16.711 7.2794C16.5076 7.189 16.2816 7.07601 16.0556 6.98561C16.033 6.98561 16.033 6.98561 16.0104 6.96301C16.2138 7.75397 16.4398 8.52233 16.6658 9.2907ZM9.75051 19.528L9.7731 19.5506C10.0669 20.0704 10.3607 20.5901 10.6545 21.1099C10.6771 21.1551 10.6997 21.1551 10.7449 21.1325L11.2194 20.9969C11.2872 20.9743 11.355 20.9517 11.4454 20.9291C10.8804 20.4545 10.3381 19.98 9.75051 19.528ZM13.7505 19.528C13.1855 19.98 12.6206 20.4545 12.0782 20.9065L12.1008 20.9291C12.3268 20.9969 12.5754 21.0647 12.8014 21.1325C12.824 21.1325 12.8692 21.1099 12.8917 21.0873C13.1629 20.6353 13.4341 20.1608 13.7053 19.7088C13.6827 19.641 13.7053 19.5958 13.7505 19.528ZM5.36633 16.7257C5.9087 16.9065 6.45107 17.0647 6.99344 17.2455V17.2229C6.45107 16.7709 5.8861 16.2963 5.32113 15.8444C5.34373 16.1382 5.36633 16.4319 5.36633 16.7257ZM18.1799 15.8444C17.6149 16.3189 17.0725 16.7709 16.5076 17.2229V17.2455C17.0499 17.0873 17.5697 16.9065 18.1347 16.7257C18.1347 16.4319 18.1573 16.1382 18.1799 15.8444ZM10.0217 6.57883C9.99909 6.55623 9.99909 6.55623 9.97649 6.55623C9.47932 6.35284 8.98214 6.12685 8.48497 5.92346C8.46237 5.90087 8.41717 5.94606 8.39457 5.94606C8.25898 6.14945 8.12339 6.30764 7.98779 6.51103C7.9652 6.53363 7.9652 6.53363 7.9652 6.55623C8.66576 6.57883 9.34373 6.57883 10.0217 6.57883ZM15.5132 6.57883C15.5132 6.55623 15.5358 6.55623 15.5358 6.55623C15.3776 6.35284 15.2194 6.12685 15.0612 5.94606C15.0386 5.92346 15.016 5.92346 14.9708 5.94606L13.8861 6.42064C13.7505 6.46584 13.6375 6.53363 13.5019 6.57883V6.60143C14.1799 6.57883 14.8353 6.57883 15.5132 6.57883ZM16.824 5.38109C16.5302 5.81047 16.2816 6.21725 16.0104 6.64663C16.259 6.75962 16.5076 6.87262 16.7788 6.98561C16.7788 6.44324 16.8014 5.90087 16.824 5.38109ZM6.72226 5.38109C6.69966 5.38109 6.69966 5.38109 6.72226 5.38109C6.72226 5.92346 6.74486 6.46584 6.76746 7.00821C7.01604 6.89522 7.26463 6.78222 7.53582 6.66923C7.24203 6.21725 6.97085 5.78787 6.72226 5.38109ZM11.8748 22.8048C12.146 22.3302 12.4172 21.9009 12.6658 21.4263C12.3946 21.3359 12.1234 21.2681 11.8748 21.1777V22.8048ZM11.6488 22.7822V21.1777C11.4002 21.2681 11.129 21.3359 10.8579 21.4263C11.1064 21.8783 11.3776 22.3302 11.6488 22.7822ZM8.21378 5.78787C7.76181 5.58448 7.33243 5.42629 6.90305 5.2229V5.2455C7.15164 5.67488 7.44542 6.08166 7.69401 6.48844C7.8748 6.26245 8.03299 6.01386 8.21378 5.78787ZM15.2872 5.78787C15.468 6.03646 15.6488 6.26245 15.8296 6.48844C16.0782 6.08166 16.3494 5.67488 16.6206 5.2455V5.2229C16.1686 5.40369 15.7392 5.60708 15.2872 5.78787ZM18.9256 14.6918L18.4963 15.4602C18.9256 15.6184 19.3776 15.7766 19.7844 15.9348V15.9122C19.4906 15.5054 19.2194 15.0986 18.9256 14.6918ZM5.02734 15.4602C4.89175 15.189 4.73356 14.9404 4.59796 14.6918C4.30418 15.1212 4.01039 15.528 3.71661 15.9348V15.9574C4.16859 15.7766 4.57536 15.6184 5.02734 15.4602ZM19.6714 16.2285C19.242 16.0478 18.8353 15.9122 18.4059 15.754C18.3833 16.0704 18.3833 16.3415 18.3607 16.6579C18.8127 16.5223 19.242 16.3641 19.6714 16.2285ZM5.14034 16.6579C5.11774 16.3415 5.11774 16.0704 5.09514 15.754C4.66576 15.9122 4.23638 16.0704 3.8296 16.2285V16.2511C4.25898 16.3641 4.68836 16.5223 5.14034 16.6579ZM22.7675 13.5845C22.5415 13.8105 22.3155 14.0365 22.1121 14.285C22.0895 14.3076 22.0895 14.3528 22.0895 14.3754C22.1121 14.7144 22.1121 15.0534 22.1347 15.3698C22.1347 15.4602 22.1573 15.5732 22.1573 15.6862H22.1799C22.3833 15.0082 22.5641 14.3076 22.7675 13.5845ZM1.34373 15.7314C1.34373 15.7088 1.36632 15.6862 1.36632 15.6636C1.38892 15.2342 1.41152 14.7822 1.43412 14.3528C1.43412 14.3302 1.41152 14.2624 1.41152 14.2624C1.20813 14.0365 1.00474 13.8331 0.801353 13.6071L0.778754 13.5845C0.936946 14.3076 1.14034 15.0082 1.34373 15.7314ZM21.5245 18.0365C21.5019 18.0365 21.5019 18.0365 21.5245 18.0365C21.2985 18.3076 21.0951 18.624 20.8917 18.8952C20.7788 19.0534 20.7336 19.189 20.7788 19.415C20.824 19.6636 20.8692 19.9122 20.9143 20.1833C21.1177 19.4602 21.3211 18.737 21.5245 18.0365ZM2.60926 20.1833C2.63186 20.1382 2.63186 20.1156 2.63186 20.093C2.67706 19.7766 2.72226 19.5054 2.76745 19.189C2.79005 19.1212 2.76745 19.0986 2.74486 19.0534L2.06689 18.0817L2.02169 18.0365C2.02169 18.0365 1.99909 18.0365 1.99909 18.0591C2.20248 18.7596 2.40587 19.4602 2.60926 20.1833ZM7.9652 1.2907C7.9652 1.2681 7.9652 1.2681 7.9652 1.2907C7.44542 1.69747 6.94825 2.10426 6.45107 2.53363C6.81265 2.44324 7.17423 2.33024 7.55842 2.21725C7.58101 2.21725 7.60361 2.17205 7.62621 2.12685C7.71661 1.90086 7.8296 1.65228 7.92 1.42629C7.92 1.38109 7.9426 1.33589 7.9652 1.2907ZM15.5584 1.2681C15.5584 1.2907 15.581 1.33589 15.581 1.35849C15.694 1.60708 15.7844 1.87827 15.8974 2.12685C15.92 2.19465 15.9426 2.21725 15.9878 2.21725C16.1912 2.26245 16.3494 2.33024 16.5528 2.39804C16.711 2.44324 16.8917 2.48844 17.0499 2.53363V2.51103C16.5754 2.10425 16.0556 1.69748 15.5584 1.2681ZM20.372 5.2907L18.8579 4.02516C19.0612 4.38674 19.2646 4.77092 19.4454 5.1325C19.468 5.1551 19.468 5.1551 19.5132 5.1551C19.8296 5.2229 20.1008 5.2681 20.372 5.2907ZM4.64316 4.04776C4.12339 4.45454 3.62621 4.86132 3.12904 5.2907C3.42282 5.2681 3.69401 5.2229 3.96519 5.1777C3.98779 5.1777 4.01039 5.1551 4.03299 5.1551C4.23638 4.77092 4.43977 4.40934 4.64316 4.04776ZM1.9539 9.47149C2.08949 9.72007 2.22508 9.96866 2.36068 10.1946L2.69966 9.76527C2.69966 9.74267 2.72226 9.74267 2.72226 9.72007C2.72226 9.51668 2.69966 9.33589 2.69966 9.1325C2.42847 9.2681 2.20248 9.35849 1.9539 9.47149ZM21.1629 10.1946C21.2985 9.96866 21.4115 9.72007 21.5697 9.47149C21.3211 9.35849 21.0951 9.2455 20.824 9.1325C20.8014 9.33589 20.8014 9.51668 20.8014 9.72007C20.8014 9.74267 20.8014 9.74267 20.824 9.76527C20.9143 9.92346 21.0273 10.0591 21.1629 10.1946ZM12.259 1.99126C12.0782 1.76527 11.92 1.53928 11.7618 1.33589C11.6036 1.53928 11.4454 1.76527 11.2646 1.99126C11.4228 2.08166 11.581 2.12685 11.7392 2.19465H11.7844C11.9426 2.12685 12.0782 2.05906 12.259 1.99126ZM17.8635 21.7879C17.6827 21.8331 17.5245 21.8783 17.3663 21.9461C17.3437 21.9461 17.3437 21.9687 17.3211 21.9687C17.2307 22.1043 17.1629 22.2624 17.0725 22.4206C17.3211 22.511 17.5923 22.5562 17.8409 22.6466L17.8635 21.7879ZM6.45107 22.4206C6.36068 22.2624 6.27028 22.1043 6.20248 21.9687L6.17988 21.9461C6.02169 21.9009 5.8409 21.8331 5.66011 21.7879L5.70531 22.6692C5.9313 22.5788 6.20248 22.511 6.45107 22.4206ZM8.80135 25.2229L10.6093 25.2455L10.5867 25.2229C10.2477 25.0873 9.9087 24.9065 9.56972 24.7709H9.52452C9.27593 24.9065 9.04994 25.0647 8.80135 25.2229ZM14.7223 25.2455C14.4737 25.0873 14.2477 24.9291 13.9991 24.7709C13.9765 24.7483 13.9539 24.7709 13.9087 24.7709C13.6601 24.8839 13.4341 24.9743 13.1855 25.0873C13.0951 25.1325 13.0047 25.1777 12.9143 25.2229V25.2455H14.7223ZM0.86915 12.3415C0.891748 12.3189 0.891749 12.3189 0.891749 12.3189C1.09514 12.0026 1.32113 11.7088 1.54712 11.3924C1.56971 11.3698 1.56971 11.302 1.56971 11.2794C1.59231 11.076 1.59231 10.8952 1.59231 10.6918C1.59231 10.5336 1.61491 10.3754 1.61491 10.2172H1.59231C1.36632 10.9404 1.11774 11.641 0.86915 12.3415ZM22.6093 12.3415C22.6319 12.3189 22.6319 12.3189 22.6093 12.3415C22.3833 11.641 22.1347 10.9404 21.8861 10.2172C21.8861 10.5788 21.9087 10.963 21.9087 11.3246C21.9087 11.3472 21.9313 11.3924 21.9313 11.415C22.1799 11.7088 22.4059 12.0252 22.6093 12.3415ZM20.9595 6.42064C20.9369 6.82742 20.9143 7.2116 20.8917 7.59578C20.8917 7.61838 20.9143 7.68618 20.9143 7.68618L21.3889 8.56753C21.4115 8.59013 21.4115 8.59013 21.4115 8.61273L21.4341 8.59013C21.2759 7.86697 21.1177 7.1438 20.9595 6.42064ZM2.56406 6.42064C2.38327 7.1438 2.22508 7.86697 2.06689 8.61273C2.08949 8.61273 2.08949 8.61273 2.08949 8.59013C2.27028 8.27375 2.45107 7.97996 2.60926 7.66358C2.63186 7.64098 2.63186 7.61838 2.63186 7.57318C2.60926 7.2116 2.58666 6.80482 2.56406 6.42064ZM17.2307 23.302H17.2081C16.9369 23.4376 16.6432 23.5506 16.372 23.6636C16.3494 23.6862 16.3268 23.6862 16.3042 23.7314C16.146 24.0252 15.9878 24.3189 15.807 24.6127C15.7844 24.6353 15.7844 24.6579 15.7844 24.6805L15.807 24.7031C16.259 24.2285 16.7562 23.7766 17.2307 23.302ZM7.73921 24.7031C7.73921 24.6805 7.73921 24.6805 7.73921 24.7031C7.62621 24.4997 7.51322 24.2963 7.40022 24.0704C7.26463 23.7992 7.08384 23.5958 6.85785 23.5506C6.83525 23.5506 6.79005 23.528 6.74486 23.5054C6.60926 23.4376 6.42847 23.3698 6.29288 23.302V23.3246C6.76745 23.7766 7.24203 24.2285 7.73921 24.7031ZM20.0782 21.1099C19.7618 21.2003 19.468 21.2907 19.1516 21.3811C19.129 21.4037 19.0838 21.4037 19.0612 21.4489C18.903 21.6523 18.7449 21.8783 18.5867 22.1043C18.5641 22.1269 18.5189 22.1721 18.4963 22.2172C18.4963 22.2398 18.5189 22.2398 18.5189 22.2398C19.0386 21.8557 19.5584 21.4941 20.0782 21.1099ZM4.98214 22.2398C4.80135 21.9461 4.62056 21.6975 4.43977 21.4263C4.41717 21.4037 4.39457 21.4037 4.37197 21.4037C4.16858 21.3359 3.96519 21.2681 3.7618 21.2003C3.67141 21.1777 3.55842 21.1325 3.44542 21.1099V21.1325C3.9426 21.4941 4.46237 21.8557 4.98214 22.2398ZM14.3833 1.06471C13.7957 1.08731 13.2081 1.1325 12.598 1.1777C12.6206 1.2003 12.6206 1.2003 12.6432 1.2003C12.8466 1.2681 13.0273 1.31329 13.2307 1.38109C13.3889 1.44889 13.5471 1.42629 13.6827 1.35849C13.9313 1.2681 14.1573 1.1551 14.3833 1.06471ZM10.9256 1.2003C10.3381 1.1325 9.75051 1.1099 9.14034 1.06471C9.16294 1.08731 9.16294 1.08731 9.16294 1.08731C9.43412 1.2229 9.72791 1.33589 9.99909 1.44889C10.0217 1.47149 10.0443 1.47149 10.0895 1.44889L10.5641 1.31329C10.6997 1.2681 10.8127 1.2229 10.9256 1.2003ZM21.2759 10.4432C21.4115 10.624 21.5697 10.8048 21.7053 10.963C21.6827 10.6014 21.6827 10.2172 21.6601 9.83307H21.6375C21.5245 10.0365 21.4115 10.2172 21.2759 10.4432ZM1.8861 9.83307C1.8635 10.2172 1.8409 10.6014 1.8183 10.963C1.9539 10.8048 2.08949 10.624 2.24768 10.4432C2.11209 10.2172 1.99909 10.0365 1.8861 9.83307ZM20.8692 8.09296C20.8466 8.34154 20.8465 8.56753 20.8465 8.79352C20.8465 8.81612 20.8692 8.81612 20.8692 8.83872C21.0499 8.92911 21.2307 8.99691 21.4341 9.08731C21.2533 8.74832 21.0725 8.45454 20.8692 8.09296ZM2.65446 8.09296C2.45107 8.43194 2.29288 8.74832 2.08949 9.08731C2.29288 8.99691 2.47367 8.90651 2.65446 8.83872C2.67706 8.83872 2.67706 8.81612 2.67706 8.79352C2.65446 8.56753 2.65446 8.34154 2.65446 8.09296ZM18.0669 22.4432C18.2929 22.1269 18.4963 21.8331 18.7223 21.5393C18.5189 21.5845 18.3381 21.6297 18.1573 21.6975C18.1347 21.6975 18.1347 21.7201 18.1347 21.7427C18.0669 21.9687 18.0669 22.1947 18.0669 22.4432ZM5.45672 22.3528C5.43412 22.1721 5.43412 21.9461 5.43412 21.7201C5.43412 21.6975 5.41152 21.6975 5.41152 21.6975C5.20813 21.6297 5.04994 21.5845 4.84655 21.5167C4.84655 21.5167 4.84655 21.5393 4.82395 21.5393C5.02734 21.8105 5.25333 22.0817 5.45672 22.3528ZM17.4793 22.8726C17.2985 22.8048 17.1177 22.737 16.9369 22.6918C16.9143 22.6918 16.9143 22.6918 16.8917 22.7144C16.7788 22.8952 16.6884 23.076 16.5754 23.2568C16.5754 23.2568 16.5754 23.2794 16.598 23.2794C16.8917 23.1438 17.1855 23.0082 17.4793 22.8726ZM13.0273 1.65228C12.711 1.53928 12.4172 1.44889 12.1008 1.35849C12.1008 1.38109 12.0782 1.38109 12.0782 1.38109C12.2138 1.53928 12.3268 1.69748 12.4398 1.85567C12.4624 1.87827 12.4624 1.87827 12.485 1.87827C12.6884 1.81047 12.8691 1.72007 13.0273 1.65228ZM6.94825 23.2794C6.88045 23.1438 6.81265 23.0534 6.76746 22.963C6.72226 22.8726 6.67706 22.7596 6.60926 22.7144C6.54147 22.6918 6.45107 22.737 6.36067 22.7596C6.24768 22.7822 6.13469 22.8274 6.04429 22.85V22.8726C6.33808 23.0082 6.60926 23.1438 6.94825 23.2794ZM10.4737 1.62968C10.6545 1.72007 10.8353 1.81047 10.9934 1.87827C11.016 1.87827 11.016 1.87827 11.0386 1.85567C11.1742 1.69748 11.2872 1.53928 11.4002 1.38109L11.3776 1.35849C11.1064 1.42629 10.7901 1.53928 10.4737 1.62968ZM20.6884 11.0082C20.8014 10.8274 20.9143 10.6466 21.0047 10.4658C20.9143 10.3528 20.8466 10.2624 20.7562 10.1495C20.7336 10.4206 20.711 10.7144 20.6884 11.0082ZM2.81265 11.0082C2.79005 10.6918 2.79005 10.4206 2.74486 10.1269C2.65446 10.2172 2.58666 10.3302 2.49627 10.4432C2.58666 10.6466 2.69966 10.8274 2.81265 11.0082ZM5.61491 20.8387C5.61491 21.0421 5.61491 21.2229 5.63751 21.4263C5.63751 21.4489 5.66011 21.4489 5.66011 21.4715C5.7731 21.4941 5.8635 21.5393 5.99909 21.5845C5.8635 21.3359 5.72791 21.0873 5.61491 20.8387ZM17.9087 20.8613C17.7731 21.1099 17.6601 21.3359 17.5245 21.5845C17.6601 21.5619 17.7505 21.5167 17.8409 21.4941C17.8635 21.4941 17.8635 21.4715 17.8635 21.4489C17.9087 21.2455 17.9087 21.0647 17.9087 20.8613ZM2.92565 9.47149C3.08384 9.2455 3.24203 9.04211 3.40022 8.83872C3.24203 8.88391 3.08384 8.95171 2.92565 9.04211C2.90305 9.04211 2.90305 9.08731 2.90305 9.10991C2.90305 9.2003 2.92565 9.31329 2.92565 9.47149ZM20.5754 9.47149C20.5754 9.33589 20.598 9.2229 20.598 9.10991C20.598 9.06471 20.5754 9.01951 20.5528 9.01951C20.4172 8.97431 20.3042 8.90652 20.1912 8.86132C20.1686 8.83872 20.146 8.83872 20.1008 8.83872V8.86132C20.259 9.04211 20.4172 9.2455 20.5754 9.47149ZM11.4454 2.37544C11.3324 2.33024 11.242 2.28505 11.129 2.23985C11.1064 2.23985 11.1064 2.23985 11.1064 2.26245C10.9934 2.39804 10.903 2.53363 10.7901 2.69183C10.7901 2.71442 10.8127 2.71442 10.8127 2.71442C10.9934 2.57883 11.1968 2.48844 11.4454 2.37544ZM12.7336 2.69183C12.7336 2.66923 12.7562 2.66923 12.7562 2.66923C12.6432 2.53363 12.5528 2.39804 12.4398 2.26245C12.4172 2.23985 12.4172 2.23985 12.3946 2.23985C12.3042 2.26245 12.1912 2.33024 12.0782 2.37544C12.3042 2.48844 12.5076 2.57883 12.7336 2.69183ZM17.0273 22.0139C16.7788 22.0817 16.5528 22.1269 16.3494 22.1947C16.5076 22.2624 16.6658 22.3076 16.824 22.3302C16.8466 22.3302 16.8692 22.3076 16.8692 22.3076C16.9143 22.2398 16.9595 22.1269 17.0273 22.0139ZM6.49627 22.0139C6.56407 22.1269 6.60926 22.2172 6.67706 22.3302C6.69966 22.3528 6.69966 22.3528 6.72226 22.3528C6.88045 22.3076 7.03864 22.2624 7.19683 22.2172V22.1947C6.94825 22.1269 6.72226 22.0817 6.49627 22.0139ZM16.9143 11.0534C16.8918 10.963 16.8692 10.8726 16.8466 10.8048H16.824V11.076C16.8466 11.076 16.8918 11.0534 16.9143 11.0534ZM6.67706 11.076V10.8048H6.65446C6.63186 10.8952 6.60926 10.963 6.58666 11.0534C6.63186 11.0534 6.67706 11.076 6.67706 11.076ZM6.51887 11.302C6.49627 11.3924 6.47367 11.4602 6.45107 11.5506L6.47367 11.5732C6.51887 11.5054 6.56407 11.4376 6.60926 11.3698C6.60926 11.3472 6.51887 11.302 6.51887 11.302ZM16.8917 11.3472C16.9369 11.4376 16.9821 11.4828 17.0273 11.5732H17.0499C17.0273 11.4828 17.0047 11.415 16.9821 11.3246C16.9369 11.3246 16.9369 11.3246 16.8917 11.3472ZM8.82395 18.3754C8.80135 18.285 8.75616 18.2173 8.71096 18.1269L8.66576 18.2172C8.71096 18.285 8.75616 18.3302 8.82395 18.3754ZM14.8127 18.1495C14.7675 18.2398 14.7223 18.285 14.6771 18.3754C14.6771 18.3754 14.6771 18.398 14.6997 18.398C14.7675 18.3528 14.8127 18.3076 14.8805 18.2624C14.8353 18.1947 14.8353 18.1721 14.8127 18.1495ZM8.50757 18.0139C8.43977 17.9913 8.39457 17.9913 8.32678 17.9687C8.43977 18.1043 8.46237 18.1043 8.50757 18.0139ZM15.1742 17.9461C15.1064 17.9687 15.0386 17.9687 14.9934 17.9913C15.0612 18.1043 15.0612 18.1043 15.1742 17.9461ZM11.8748 6.96301C11.92 6.94041 11.9652 6.94041 12.033 6.89522C11.8974 6.87262 11.8748 6.87262 11.8748 6.96301ZM11.6488 6.96301C11.6488 6.87262 11.6262 6.85002 11.5132 6.89522C11.5584 6.91781 11.6036 6.94041 11.6488 6.96301Z" fill="#FFA700"/>
<path d="M30.6995 7.43432H28.643V5.875H33.7277C34.0441 5.875 34.2927 6.12359 34.2927 6.43997V7.41172H32.2362V12.3835H30.6769L30.6995 7.43432ZM41.3887 9.15184C41.3887 10.9371 39.9424 12.4061 38.1345 12.4061C36.3266 12.4061 34.8803 10.9597 34.8803 9.15184C34.8803 7.34393 36.3266 5.8976 38.1345 5.8976C39.9424 5.8976 41.3887 7.34393 41.3887 9.15184ZM39.852 9.15184C39.852 8.22528 39.0836 7.45692 38.1571 7.45692C37.2305 7.45692 36.4622 8.22528 36.4622 9.15184C36.4622 10.0784 37.2305 10.8468 38.1571 10.8468C39.0836 10.8468 39.852 10.0784 39.852 9.15184ZM42.4057 5.8976H43.8068C43.8746 5.8976 43.9198 5.9202 43.965 5.98799L45.7277 8.02189L47.4678 5.9654C47.513 5.9202 47.5582 5.875 47.626 5.875H49.0045V12.3609H47.4678V8.31568L46.7447 9.17443L46.1571 9.8524C45.9311 10.101 45.5243 10.101 45.2983 9.8524L43.965 8.29308V12.3383H42.4057V5.8976ZM53.0723 5.8976H54.0667C54.3831 5.8976 54.6317 6.14619 54.6317 6.46257V8.36088H57.1627V5.8976H58.1571C58.4735 5.8976 58.7221 6.14619 58.7221 6.46257V12.3835H57.1627V9.9202H54.6317V12.3835H53.0723V5.8976ZM66.2023 9.15184C66.2023 10.9371 64.756 12.4061 62.948 12.4061C61.1401 12.4061 59.6938 10.9597 59.6938 9.15184C59.6938 7.34393 61.1401 5.8976 62.948 5.8976C64.756 5.8976 66.2023 7.34393 66.2023 9.15184ZM64.643 9.15184C64.643 8.22528 63.8746 7.45692 62.948 7.45692C62.0215 7.45692 61.2531 8.22528 61.2531 9.15184C61.2531 10.0784 62.0215 10.8468 62.948 10.8468C63.8746 10.8468 64.643 10.0784 64.643 9.15184ZM67.2192 9.64901C67.2192 9.33263 67.4678 9.08404 67.7842 9.08404H69.6373C70.1119 9.08404 70.4735 8.69986 70.4509 8.22528C70.4283 7.77331 70.0441 7.43432 69.6147 7.43432H67.1966V5.875H69.6147C70.9029 5.875 72.0328 6.91455 72.0102 8.22528C72.0102 9.15184 71.4678 9.9654 70.6543 10.3496L72.6656 12.3835H70.5187L68.756 10.6208V12.3835H67.1966L67.2192 9.64901ZM73.4791 5.8976H74.6995C74.8577 5.8976 75.0158 5.98799 75.1288 6.10099L78.5413 10.0558V5.8976H79.513C79.8294 5.8976 80.078 6.14619 80.078 6.46257V12.3835H78.5187L75.0384 8.33828V12.3835H73.5017V5.8976H73.4791ZM29.9085 20.4061C29.8859 20.3835 29.8407 20.3835 29.8181 20.3835C29.7955 20.3609 29.7503 20.3609 29.7277 20.3609L29.6599 20.3383L29.5243 20.2705C29.5017 20.2479 29.4791 20.2479 29.4565 20.2253C29.4113 20.2027 29.3661 20.1575 29.3435 20.1349C29.2531 20.0671 29.1853 19.9993 29.1175 19.9315C28.756 19.5699 28.53 19.0501 28.53 18.4626C28.53 17.8976 28.756 17.3778 29.1175 16.9936C29.1853 16.9258 29.2531 16.8581 29.3435 16.7903C29.3661 16.7677 29.4339 16.7225 29.4565 16.6999C29.5469 16.6321 29.6373 16.6095 29.7051 16.5643L29.7955 16.5191L29.8859 16.4965C30.0893 16.4287 30.3153 16.3835 30.5413 16.3835C30.7673 16.3835 30.9932 16.4061 31.1966 16.4965L31.287 16.5191L31.3774 16.5643C31.4678 16.6095 31.5582 16.6547 31.626 16.6999C31.6712 16.7225 31.7164 16.7451 31.7616 16.7903C31.852 16.8581 31.9198 16.9258 31.9876 16.9936L31.287 17.6942C31.2418 17.649 31.1966 17.6038 31.1288 17.5586C31.1062 17.536 31.1062 17.536 31.0836 17.536L31.061 17.5134L31.0158 17.4908C30.9932 17.4682 30.948 17.4682 30.9254 17.4682L30.8803 17.4456C30.8577 17.4456 30.8577 17.423 30.8577 17.423C30.8577 17.423 30.8351 17.423 30.8351 17.4004C30.8125 17.4004 30.8125 17.4004 30.8125 17.3778C30.7221 17.3552 30.6317 17.3552 30.5413 17.3552C30.4509 17.3552 30.3379 17.3778 30.2701 17.3778C30.2475 17.3778 30.2475 17.4004 30.2249 17.4004L30.2023 17.423C30.1797 17.423 30.1797 17.423 30.1797 17.4456L30.1345 17.4682C30.1119 17.4908 30.0667 17.4908 30.0441 17.4908L30.0215 17.5134L29.9989 17.536L29.9763 17.5586C29.9537 17.5586 29.9537 17.5812 29.9537 17.5812L29.9085 17.6038C29.8859 17.6264 29.8859 17.6264 29.8633 17.6264C29.6373 17.8298 29.5017 18.101 29.5017 18.44C29.5017 18.7564 29.6373 19.0501 29.8633 19.2535L29.9085 19.2987L29.9311 19.3213L29.9763 19.3439C29.9989 19.3665 30.0667 19.3891 30.0893 19.4117C30.1119 19.4343 30.1345 19.4343 30.1797 19.4569C30.2249 19.4795 30.2701 19.4795 30.3153 19.5021C30.4057 19.5247 30.4961 19.5247 30.5865 19.5247C30.6769 19.5247 30.7899 19.5021 30.8577 19.5021C30.9029 19.4795 30.948 19.4795 30.9932 19.4569C31.0158 19.4343 31.061 19.4343 31.0836 19.4117C31.1288 19.3891 31.174 19.3665 31.1966 19.3439L31.287 19.2761L31.3774 19.2083V18.44H31.9876C32.191 18.44 32.3492 18.5982 32.3492 18.8016V19.1857C32.3492 19.4343 32.2588 19.7055 32.0554 19.8863C31.9876 19.9541 31.9198 20.0219 31.8294 20.0897L31.6938 20.1801L31.626 20.2027C31.5808 20.2253 31.5356 20.2479 31.4904 20.2705C31.4678 20.2931 31.4452 20.2931 31.4226 20.2931L31.3322 20.3157H31.3096C31.287 20.3383 31.2418 20.3383 31.2192 20.3383C31.0158 20.4061 30.7899 20.4513 30.5639 20.4513C30.3379 20.4965 30.1119 20.4739 29.9085 20.4061ZM34.4057 16.6095C34.4735 16.4739 34.6091 16.3835 34.7447 16.3835C34.8803 16.3835 35.0158 16.4739 35.061 16.5869L36.8916 20.4965H35.852L35.4452 19.6377H33.9763L33.5695 20.4965H32.5752L34.4057 16.6095ZM35.0384 18.7338L34.7221 18.0784L34.4057 18.7338H35.0384ZM37.4113 16.3835H38.2927C38.3153 16.3835 38.3605 16.4061 38.3831 16.4287L39.4904 17.7168L40.5978 16.4287C40.6204 16.4061 40.6656 16.3835 40.6882 16.3835H41.5695V20.5191H40.5752V17.9428L40.1006 18.4852L39.739 18.9145C39.6034 19.0727 39.3322 19.0727 39.1966 18.9145L38.3605 17.9202V20.4965H37.3661L37.4113 16.3835ZM42.3831 16.3835H43.0158C43.2192 16.3835 43.3774 16.5417 43.3774 16.7451V20.5191H42.3831V16.3835ZM44.1458 16.3835H44.9141C45.0045 16.3835 45.1175 16.4287 45.1853 16.5191L47.3548 19.0501V16.4061H47.965C48.1684 16.4061 48.3266 16.5643 48.3266 16.7677V20.5417H47.3322L45.0949 17.9654V20.5417H44.1006L44.1458 16.3835ZM50.4057 20.4061C50.3831 20.3835 50.3379 20.3835 50.3153 20.3835C50.2927 20.3609 50.2475 20.3609 50.2249 20.3609L50.1571 20.3383L50.0215 20.2705C49.9989 20.2479 49.9763 20.2479 49.9537 20.2253C49.9085 20.2027 49.8633 20.1575 49.8407 20.1349C49.7503 20.0671 49.6825 19.9993 49.6147 19.9315C49.2531 19.5699 49.0271 19.0501 49.0271 18.4626C49.0271 17.8976 49.2531 17.3778 49.6147 16.9936C49.6825 16.9258 49.7503 16.8581 49.8407 16.7903C49.8633 16.7677 49.9311 16.7225 49.9537 16.6999C50.0441 16.6321 50.1345 16.6095 50.2023 16.5643L50.2927 16.5191L50.3831 16.4965C50.5865 16.4287 50.8125 16.3835 51.0384 16.3835C51.2644 16.3835 51.4904 16.4061 51.6938 16.4965L51.7842 16.5191L51.8746 16.5643C51.965 16.6095 52.0554 16.6547 52.1232 16.6999C52.1684 16.7225 52.2136 16.7451 52.2588 16.7903C52.3492 16.8581 52.417 16.9258 52.4848 16.9936L51.7842 17.6942C51.739 17.649 51.6938 17.6038 51.626 17.5586C51.6034 17.536 51.6034 17.536 51.5808 17.536L51.5582 17.5134L51.513 17.4908C51.4904 17.4682 51.4452 17.4682 51.4226 17.4682L51.3774 17.4456C51.3548 17.4456 51.3548 17.423 51.3548 17.423C51.3548 17.423 51.3322 17.423 51.3322 17.4004C51.3096 17.4004 51.3096 17.4004 51.3096 17.3778C51.2192 17.3552 51.1288 17.3552 51.0384 17.3552C50.948 17.3552 50.8351 17.3778 50.7673 17.3778C50.7447 17.3778 50.7447 17.4004 50.7221 17.4004L50.6995 17.423C50.6769 17.423 50.6769 17.423 50.6769 17.4456L50.6317 17.4682C50.6091 17.4908 50.5639 17.4908 50.5413 17.4908L50.5187 17.5134L50.4961 17.536L50.4735 17.5586C50.4509 17.5586 50.4509 17.5812 50.4509 17.5812L50.4057 17.6038C50.3831 17.6264 50.3831 17.6264 50.3605 17.6264C50.1345 17.8298 49.9989 18.101 49.9989 18.44C49.9989 18.7564 50.1345 19.0501 50.3605 19.2535L50.4057 19.2987L50.4283 19.3213L50.4735 19.3439C50.4961 19.3665 50.5639 19.3891 50.5865 19.4117C50.6091 19.4343 50.6317 19.4343 50.6769 19.4569C50.7221 19.4795 50.7673 19.4795 50.8125 19.5021C50.9029 19.5247 50.9932 19.5247 51.0836 19.5247C51.174 19.5247 51.287 19.5021 51.3548 19.5021C51.4 19.4795 51.4452 19.4795 51.4904 19.4569C51.513 19.4343 51.5582 19.4343 51.5808 19.4117C51.626 19.3891 51.6712 19.3665 51.6938 19.3439L51.7842 19.2761L51.8746 19.2083V18.44H52.4848C52.6882 18.44 52.8464 18.5982 52.8464 18.8016V19.1857C52.8464 19.4343 52.756 19.7055 52.5526 19.8863C52.4848 19.9541 52.417 20.0219 52.3266 20.0897L52.191 20.1801L52.1232 20.2027C52.078 20.2253 52.0328 20.2479 51.9876 20.2705C51.965 20.2931 51.9424 20.2931 51.9198 20.2931L51.8294 20.3157H51.852C51.8294 20.3383 51.7842 20.3383 51.7616 20.3383C51.5582 20.4061 51.3322 20.4513 51.1062 20.4513C50.8351 20.4965 50.6091 20.4739 50.4057 20.4061Z" fill="white"/>
</g>
<defs>
<clipPath id="clip0_5_10297">
<rect width="80" height="25.3107" fill="white" transform="translate(0.238953 0.550781)"/>
</clipPath>
</defs>
</svg>
