<svg width="81" height="9" viewBox="0 0 81 9" fill="none" xmlns="http://www.w3.org/2000/svg">
<g clip-path="url(#clip0_5_10304)">
<mask id="mask0_5_10304" style="mask-type:luminance" maskUnits="userSpaceOnUse" x="0" y="0" width="81" height="9">
<path d="M80.604 0.175781H0.826172V8.95356H80.604V0.175781Z" fill="white"/>
</mask>
<g mask="url(#mask0_5_10304)">
<path d="M8.91494 8.80191L0.981608 0.979687C0.692719 0.690798 0.892719 0.179688 1.31494 0.179688H9.2705C9.53716 0.179688 9.75939 0.401909 9.75939 0.646354V8.46858C9.73716 8.8908 9.22605 9.0908 8.91494 8.80191Z" fill="#BF526D"/>
<path d="M10.6914 8.46858V0.646354C10.6914 0.379687 10.9136 0.179688 11.1803 0.179688H19.1358C19.5581 0.179688 19.7803 0.690798 19.4692 0.979687L11.5136 8.80191C11.2025 9.0908 10.6914 8.8908 10.6914 8.46858Z" fill="#BF526D"/>
<path d="M20.4277 8.46858V0.646354C20.4277 0.379687 20.65 0.179688 20.9166 0.179688H28.8722C29.2944 0.179688 29.5166 0.690798 29.2055 0.979687L21.25 8.80191C20.9388 9.0908 20.4277 8.8908 20.4277 8.46858Z" fill="#BF526D"/>
<path d="M40.2487 0.179688V5.57969L38.3376 1.75747H37.2487L35.3154 5.62413V0.179688H33.582V8.95747H35.2931L37.7598 4.17969L40.2709 8.95747H41.9598V0.179688H40.2487Z" fill="#BF526D"/>
<path d="M46.738 2.6908L47.738 5.77969H45.7158L46.738 2.6908ZM45.8936 0.179688L42.8047 8.95747H44.738L45.2714 7.2908H48.2491L48.7825 8.95747H50.6936L47.6047 0.179688H45.8936Z" fill="#BF526D"/>
<path d="M51.0723 0.178474V1.68958H54.6945L51.0723 7.77847V8.95625H57.0945V7.44514H53.3834L56.9834 1.33403V0.15625H51.0723V0.178474Z" fill="#BF526D"/>
<path d="M63.0258 5.13524V4.00191C63.0258 2.4908 62.6036 1.6908 61.4036 1.6908H60.048V7.44635H61.4036C62.6036 7.44635 63.0258 6.64635 63.0258 5.13524ZM58.248 8.93524V0.179688H61.4036C63.4258 0.179688 64.8258 1.20191 64.8258 4.00191V5.13524C64.8258 7.91302 63.4258 8.95747 61.4036 8.95747H58.248V8.93524Z" fill="#BF526D"/>
<path d="M69.0923 2.6908L70.0923 5.77969H68.0701L69.0923 2.6908ZM68.2256 0.179688L65.1367 8.95747H67.0701L67.6034 7.2908H70.5812L71.1145 8.95747H73.0256L69.9367 0.179688H68.2256Z" fill="#BF526D"/>
<path d="M78.8921 0.178474V5.66736L75.4032 0.15625H73.9143V8.93403H75.6254V3.51181L79.0921 8.93403H80.6032V0.178474H78.8921Z" fill="#BF526D"/>
</g>
</g>
<defs>
<clipPath id="clip0_5_10304">
<rect width="80" height="8.88889" fill="white" transform="translate(0.712891 0.121094)"/>
</clipPath>
</defs>
</svg>
