<svg width="81" height="38" viewBox="0 0 81 38" fill="none" xmlns="http://www.w3.org/2000/svg">
<g clip-path="url(#clip0_5_10322)">
<path d="M22.156 20.2197C22.156 20.3222 22.1817 20.4248 22.233 20.5017C22.2842 20.5786 22.3612 20.6556 22.4637 20.6812C22.7201 20.7838 22.9765 20.8607 23.2586 20.835C23.5663 20.835 23.874 20.835 24.2073 20.7838C24.515 20.7581 24.7971 20.7068 25.0791 20.6812C25.3612 20.6556 25.515 20.6299 25.5406 20.6299C25.5663 21.2197 25.4637 21.6299 25.1817 21.8607C24.9253 22.0914 24.4124 22.2197 23.6176 22.2197C22.5406 22.2197 21.7458 21.9889 21.233 21.553C20.7201 21.1171 20.4637 20.3479 20.4894 19.2709C20.4894 18.8094 20.5406 18.3479 20.6945 17.912C20.7971 17.5786 21.0278 17.2709 21.2842 17.0658C21.5406 16.8607 21.8483 16.7325 22.1817 16.6555C22.5663 16.5786 22.9509 16.5273 23.3355 16.5273C24.1817 16.5273 24.7971 16.7068 25.1817 17.0658C25.5663 17.4248 25.7714 17.9889 25.7714 18.7581C25.7714 19.0145 25.7201 19.2453 25.5919 19.4761C25.4894 19.6299 25.3355 19.7581 25.156 19.835C24.9509 19.912 24.7201 19.9376 24.4894 19.9632C24.233 19.9889 23.9765 19.9889 23.7201 19.9889C23.4381 19.9889 23.1817 19.9889 22.8996 20.0145C22.6432 20.0914 22.3868 20.1427 22.156 20.2197ZM22.1047 19.1684C22.2842 19.0658 22.4637 19.0145 22.6688 19.0145C22.9253 18.9889 23.1817 18.9632 23.3868 18.9632C23.5919 18.9632 23.7971 18.912 23.9765 18.8094C24.0535 18.7838 24.1304 18.7068 24.1817 18.6299C24.2329 18.553 24.2586 18.4761 24.233 18.3735C24.233 18.194 24.1047 18.0658 23.8227 17.9376C23.4637 17.7838 23.0791 17.7581 22.6945 17.8863C22.2073 18.0914 22.0022 18.5273 22.1047 19.1684Z" fill="white"/>
<path d="M32.2589 18.5024V22.1691C32.0538 22.1947 31.8486 22.1947 31.6435 22.1691C31.4897 22.1435 31.3102 22.1178 31.1563 22.0409C31.0025 21.9896 30.8999 21.8871 30.823 21.7332C30.7461 21.5794 30.7204 21.3999 30.7204 21.2204V18.5281C30.6179 18.0409 30.1563 17.8358 29.3358 17.9383C29.0794 17.964 28.8486 17.9896 28.5922 18.0665C28.6179 18.1947 28.6179 18.323 28.6179 18.4768V21.246C28.6179 21.4255 28.5922 21.605 28.5153 21.7589C28.4384 21.8871 28.3358 21.9896 28.182 22.0665C28.0281 22.1178 27.8743 22.1691 27.6948 22.1948C27.4897 22.2204 27.2845 22.2204 27.0794 22.1948V17.246C27.0794 16.8101 27.7717 16.5794 29.182 16.5281C31.2589 16.5024 32.2589 17.1435 32.2589 18.5024Z" fill="white"/>
<path d="M37.5408 14.3984C37.6433 14.4754 37.7972 14.5266 37.9254 14.5523C38.0536 14.5779 38.2074 14.5779 38.3356 14.5779C38.4638 14.5779 38.5664 14.6036 38.6946 14.6292C38.7459 14.6548 38.8228 14.6805 38.8485 14.7318C38.8997 14.7831 38.9254 14.8343 38.951 14.8856C39.0279 15.0907 39.0536 15.2959 39.0536 15.501V21.4497L38.951 21.5779C38.8997 21.6292 38.8485 21.7061 38.7972 21.7574C38.7203 21.8343 38.6177 21.8856 38.5408 21.9369C38.4126 22.0138 38.2587 22.0651 38.1049 22.0907C37.8997 22.142 37.6946 22.1677 37.4895 22.1933C37.2074 22.219 36.8997 22.2446 36.5921 22.2446C35.5664 22.2446 34.8228 22.0138 34.3613 21.5779C33.8997 21.142 33.669 20.3984 33.6946 19.3472C33.6946 18.9882 33.7459 18.6036 33.8485 18.2702C33.951 17.9882 34.0792 17.7318 34.2844 17.501C34.4638 17.2959 34.669 17.1164 34.9254 16.9882C35.1562 16.86 35.4126 16.7574 35.669 16.7061C35.9254 16.6548 36.1818 16.6292 36.4382 16.6292C36.951 16.6292 37.3356 16.7061 37.5408 16.86V14.3984ZM37.5408 19.4241V17.9882C37.4638 17.9625 37.3356 17.9369 37.2587 17.9113C37.1305 17.8856 37.0023 17.8856 36.8741 17.86C36.7203 17.86 36.592 17.86 36.4382 17.86C36.2844 17.8856 36.1562 17.9113 36.0023 17.9882C35.8485 18.0651 35.7203 18.142 35.6177 18.2446C35.4895 18.3728 35.4126 18.5266 35.3613 18.7061C35.2844 18.9369 35.2587 19.1677 35.2587 19.3984C35.2587 19.6292 35.2844 19.86 35.3869 20.0651C35.4382 20.2189 35.5408 20.3728 35.669 20.4754C35.7972 20.6036 35.951 20.6805 36.1049 20.7061C36.2587 20.7574 36.4126 20.7831 36.5664 20.8087C36.7203 20.8343 36.8741 20.8343 37.0279 20.8087C37.1818 20.7831 37.31 20.7831 37.3613 20.7574C37.4126 20.7574 37.4895 20.7318 37.5408 20.7061C37.5408 20.7831 37.5408 20.3215 37.5408 19.4241Z" fill="white"/>
<path d="M40.4898 19.3691C40.4898 19.3178 40.4642 19.2665 40.4642 19.2152C40.4642 19.087 40.4642 18.9588 40.4898 18.8306C40.5155 18.6511 40.5411 18.446 40.618 18.2665C40.6949 18.0614 40.7719 17.8563 40.9001 17.6768C41.0283 17.4717 41.2078 17.2665 41.3873 17.1127C41.618 16.9332 41.9001 16.805 42.1821 16.7281C42.5667 16.6255 42.9514 16.5742 43.336 16.5742C43.618 16.5742 43.9001 16.5999 44.1821 16.6511C44.4129 16.7024 44.618 16.7537 44.8488 16.8563C45.0283 16.9332 45.1821 17.0358 45.336 17.164C45.4642 17.2665 45.5924 17.3947 45.6949 17.5229C45.7975 17.6511 45.8744 17.7793 45.9257 17.9332C45.977 18.0614 46.0283 18.2152 46.0796 18.3435C46.1052 18.4717 46.1308 18.6255 46.1565 18.7537C46.1821 18.9076 46.1821 19.0358 46.1821 19.1127C46.1821 19.1896 46.1821 19.2922 46.1821 19.4204C46.1821 19.5486 46.1821 19.6255 46.1821 19.6255C46.1821 19.7281 46.1821 19.8306 46.1821 19.9076C46.1821 19.9845 46.1565 20.1383 46.1308 20.3178C46.1052 20.4973 46.0539 20.6511 45.977 20.8306C45.9001 21.0101 45.7975 21.164 45.6949 21.3178C45.5667 21.4973 45.4129 21.6511 45.2334 21.7537C45.0283 21.8819 44.7719 21.9845 44.5411 22.0614C44.2334 22.1383 43.9001 22.1896 43.5667 22.1896C43.2334 22.1896 42.9001 22.164 42.5667 22.1127C42.3103 22.0614 42.0796 22.0101 41.8231 21.9076C41.618 21.8306 41.4385 21.7281 41.2847 21.5999C41.1565 21.4717 41.0283 21.3434 40.9257 21.1896C40.8231 21.0358 40.7462 20.8563 40.6949 20.6511C40.6437 20.446 40.5924 20.2665 40.5667 20.0614C40.5411 19.8563 40.5155 19.6255 40.4898 19.3691ZM41.977 19.446C42.0026 19.6255 42.0283 19.8306 42.0539 20.0101C42.1052 20.164 42.1565 20.2922 42.259 20.4204C42.3616 20.5742 42.5155 20.6768 42.6949 20.7024C42.9257 20.7793 43.1821 20.805 43.4385 20.805C43.6437 20.805 43.8488 20.7793 44.0539 20.7024C44.2078 20.6511 44.336 20.5742 44.4385 20.446C44.5155 20.3434 44.5924 20.2152 44.6437 20.1127C44.6693 20.0101 44.7206 19.9076 44.7206 19.805C44.7206 19.7281 44.7206 19.6511 44.7206 19.5742V19.3178C44.7206 19.2665 44.7206 19.2152 44.7206 19.1127C44.7206 19.0358 44.6949 18.9588 44.6949 18.8819C44.6693 18.805 44.6437 18.7281 44.618 18.6511C44.5924 18.5742 44.5411 18.4973 44.5155 18.4204C44.4642 18.3434 44.4129 18.2922 44.336 18.2152C44.259 18.1383 44.2078 18.087 44.1052 18.0614C44.0026 18.0101 43.9001 17.9845 43.7975 17.9588C43.6693 17.9332 43.5155 17.9076 43.3873 17.9076C43.1565 17.9076 42.9257 17.9332 42.6949 18.0101C42.5411 18.0614 42.3873 18.1383 42.2847 18.2665C42.1821 18.3691 42.1308 18.5229 42.0796 18.6511C42.0283 18.7793 42.0026 18.8819 42.0026 19.0101C42.0026 19.087 42.0026 19.2152 42.0026 19.3434L41.977 19.446Z" fill="white"/>
<path d="M51.3113 16.5803C51.3113 16.6573 51.3113 16.7085 51.3113 16.7855C51.3113 16.9137 51.3113 17.0419 51.3113 17.1444C51.2857 17.2726 51.26 17.4008 51.2344 17.529C51.1831 17.6573 51.1062 17.7855 50.978 17.8624C50.8241 17.9393 50.6703 17.9906 50.4908 17.9906C50.26 17.9906 50.0549 17.9906 49.8241 18.0162C49.6703 18.0419 49.5421 18.0931 49.4139 18.1701C49.2857 18.247 49.2088 18.3752 49.1831 18.5034C49.1318 18.7085 49.1062 18.9137 49.1318 19.1188V22.3496C48.978 22.247 48.8241 22.1701 48.6447 22.1444C48.4395 22.0931 48.2857 22.0675 48.1318 22.0162C47.978 21.9906 47.8498 21.9137 47.7729 21.7855C47.6447 21.606 47.5934 21.4008 47.619 21.1957V18.4778C47.619 18.4265 47.619 18.3752 47.619 18.3239C47.619 18.2726 47.6447 18.1444 47.6447 18.0419C47.6703 17.9137 47.6959 17.7855 47.7472 17.6573C47.7985 17.529 47.8754 17.4008 47.9524 17.2726C48.0549 17.1444 48.1575 17.0162 48.3113 16.9137C48.4652 16.8111 48.6447 16.7085 48.8241 16.6573C49.0549 16.5803 49.2857 16.5547 49.5421 16.5547L51.3113 16.5803Z" fill="white"/>
<path d="M54.0537 24.4008C53.8999 24.2983 53.746 24.247 53.5665 24.247C53.3614 24.2214 53.2076 24.2214 53.0537 24.2214C52.9768 24.2214 52.8999 24.1957 52.8486 24.1701C52.7717 24.1444 52.7204 24.0675 52.6947 24.0162C52.5665 23.8111 52.5153 23.5547 52.5409 23.2983V17.3496C52.5409 17.3496 52.5922 17.2983 52.6435 17.2214C52.6947 17.1701 52.746 17.1188 52.7973 17.0675C52.8742 17.0162 52.9768 16.9393 53.0537 16.888C53.1819 16.8111 53.3358 16.7598 53.4896 16.7085C53.6947 16.6573 53.8999 16.6316 54.105 16.606C54.3871 16.5803 54.6947 16.5547 55.0024 16.5547C56.0281 16.5547 56.7717 16.7855 57.2332 17.2214C57.6947 17.6573 57.9255 18.4008 57.8999 19.4521C57.8999 19.9137 57.8229 20.3496 57.6691 20.7598C57.5409 21.0931 57.3101 21.4008 57.0281 21.606C56.7717 21.8111 56.464 21.9393 56.1563 22.0419C55.8486 22.1444 55.5153 22.1701 55.1819 22.1701C54.7973 22.1701 54.4383 22.1444 54.0794 22.0162L54.0537 24.4008ZM54.0537 19.3496V20.7855C54.1563 20.8111 54.2845 20.8367 54.4127 20.8624C54.5409 20.888 54.6947 20.888 54.8742 20.9137C55.0537 20.9393 55.2332 20.9137 55.4127 20.8624C55.5665 20.8111 55.7204 20.7342 55.8742 20.6316C56.0281 20.5034 56.1563 20.3496 56.2332 20.1444C56.3358 19.888 56.3614 19.6316 56.3614 19.3496C56.3614 19.1188 56.3358 18.888 56.2332 18.6829C56.1563 18.529 56.0794 18.3752 55.9511 18.247C55.8229 18.1444 55.6691 18.0675 55.5153 18.0162C55.3614 17.9649 55.2076 17.9393 55.0537 17.9137C54.8999 17.9137 54.746 17.9137 54.5922 17.9393L54.2588 17.9906L54.0794 18.0419C54.0537 18.0162 54.0537 18.4778 54.0537 19.3496Z" fill="white"/>
<path d="M60.8246 16.7545C61.158 16.6263 61.6964 16.5494 62.4913 16.5494C62.8246 16.5494 63.158 16.6007 63.4657 16.7545C63.6964 16.8571 63.9016 17.0109 64.0554 17.1904C64.1836 17.3699 64.2862 17.5494 64.3375 17.7545C64.3888 17.9084 64.4144 18.0622 64.44 18.216C64.44 18.293 64.44 18.3955 64.44 18.4725V22.1391C63.44 22.2673 62.9272 21.9596 62.9272 21.1904V20.0878C62.9272 19.0878 62.8759 18.4725 62.7734 18.2673C62.6708 18.0366 62.3631 17.934 61.8247 17.9084C61.4913 17.9084 61.158 17.9596 60.8246 18.0878V21.1904C60.8503 21.6007 60.7221 21.8571 60.44 21.9853C60.0811 22.1135 59.6964 22.1648 59.3118 22.1391V14.293C59.4657 14.3955 59.6195 14.4468 59.799 14.4468C60.0041 14.4725 60.158 14.4725 60.3118 14.4725C60.3888 14.4725 60.4657 14.4981 60.517 14.5237C60.5682 14.5494 60.6452 14.6263 60.6708 14.6776C60.799 14.8827 60.8503 15.1391 60.8246 15.3955V16.7545Z" fill="white"/>
<path d="M66.1051 15.9862C66.0282 15.9093 65.9769 15.8067 65.9256 15.7298C65.8743 15.6272 65.8743 15.5247 65.8743 15.4221C65.8743 15.2683 65.9256 15.1144 66.0025 14.9862C66.0795 14.858 66.2077 14.7555 66.3615 14.6785C66.5154 14.6272 66.6692 14.6016 66.823 14.6272C66.9769 14.6529 67.1307 14.7298 67.2333 14.858C67.3359 14.9606 67.4128 15.1144 67.4641 15.2683C67.4897 15.4221 67.4897 15.576 67.4128 15.7298C67.3615 15.8837 67.2589 16.0119 67.1051 16.0888C66.9769 16.1657 66.823 16.217 66.6692 16.217C66.5666 16.217 66.4641 16.1913 66.3615 16.1657C66.2846 16.1144 66.182 16.0631 66.1051 15.9862ZM67.4384 17.576C67.4641 17.3196 67.4128 17.0888 67.2846 16.858C67.2333 16.8067 67.182 16.7298 67.1307 16.7042C67.0795 16.6785 67.0025 16.6529 66.9256 16.6272C66.7974 16.6272 66.6179 16.6272 66.4128 16.6016C66.2333 16.6016 66.0795 16.5503 65.9256 16.4478V22.1401C66.3102 22.1914 66.6948 22.1401 67.0538 21.9862C67.3102 21.858 67.4384 21.6016 67.4384 21.1913V17.576Z" fill="white"/>
<path d="M74.0299 18.5024V22.1691C73.8247 22.1947 73.6196 22.1947 73.4145 22.1691C73.2606 22.1435 73.0812 22.1178 72.9273 22.0409C72.7735 21.9896 72.6709 21.8871 72.594 21.7332C72.5171 21.5794 72.4914 21.3999 72.4914 21.2204V18.5281C72.3889 18.0409 71.9273 17.8358 71.1324 17.9383C70.876 17.964 70.6453 17.9896 70.3889 18.0665C70.4145 18.1947 70.4145 18.323 70.4145 18.4768V21.246C70.4401 21.4255 70.3889 21.605 70.3119 21.7589C70.235 21.8871 70.1324 21.9896 69.9786 22.0665C69.8248 22.1178 69.6709 22.1691 69.5171 22.1948C69.3119 22.2204 69.1068 22.2204 68.9017 22.1948V17.246C68.9017 16.8101 69.594 16.5794 71.0042 16.5281C73.0299 16.5024 74.0299 17.1435 74.0299 18.5024Z" fill="white"/>
<path d="M75.8769 17.9906C75.8769 17.9649 75.8769 17.9393 75.8769 17.9137C75.8769 17.8367 75.8769 17.7855 75.8769 17.7085C75.8769 17.606 75.9025 17.529 75.9025 17.4265C75.9282 17.3239 75.9538 17.2214 76.0051 17.1188C76.0564 17.0162 76.1076 16.9137 76.2102 16.8367C76.3128 16.7598 76.441 16.6829 76.5435 16.6316C76.6974 16.5803 76.8769 16.5547 77.0564 16.5547H77.3384C77.5179 16.5547 77.6974 16.5547 77.8769 16.5547C78.0564 16.5547 78.2359 16.5803 78.441 16.5803C78.6205 16.5803 78.8 16.606 78.9794 16.6573C79.1589 16.7085 79.3128 16.7598 79.4666 16.8367C79.6205 16.9137 79.7743 16.9906 79.9025 17.1188C80.0307 17.247 80.1589 17.4008 80.2359 17.5547C80.3384 17.7342 80.4153 17.9393 80.4666 18.1444C80.5179 18.4008 80.5435 18.6829 80.5435 18.9393V20.0419C80.5435 20.2983 80.5179 20.5547 80.441 20.7855C80.3897 20.9906 80.3128 21.1701 80.2102 21.3239C80.1076 21.4778 80.0051 21.5803 79.8769 21.7085C79.7487 21.8111 79.6205 21.888 79.4923 21.9393C79.3641 21.9906 79.2359 22.0419 79.082 22.0675C78.9538 22.0931 78.8512 22.1188 78.723 22.1188C78.6461 22.1188 78.5179 22.1188 78.4153 22.1188H77.0307H76.9282C76.8769 22.1188 76.8 22.0931 76.6974 22.0931C76.5948 22.0675 76.4923 22.0419 76.3897 22.0162C76.2615 21.9649 76.1589 21.9137 76.0564 21.8367C75.8 21.6829 75.5948 21.4521 75.5179 21.1444C75.4666 20.9649 75.4153 20.7598 75.4153 20.5803C75.4153 20.2726 75.4666 19.9393 75.5692 19.6573C75.6461 19.4265 75.8 19.2214 76.0051 19.0675C76.1846 18.9393 76.4153 18.8367 76.6461 18.7855C76.9282 18.7342 77.2102 18.7085 77.4923 18.7085C77.9025 18.7342 78.2871 18.6829 78.6974 18.5803C78.9025 18.5034 79.0051 18.3752 79.0051 18.2214C79.0051 17.9906 78.7743 17.8367 78.3384 17.7598C77.8769 17.6829 77.4153 17.6573 76.9282 17.7085C76.5692 17.8111 76.2102 17.8624 75.8769 17.9906ZM79.0564 19.5034C79.0307 19.5547 78.9794 19.5803 78.9282 19.6316C78.8256 19.7085 78.723 19.7855 78.5948 19.8367C78.4153 19.9137 78.2359 19.9649 78.0564 19.9649C77.7743 19.9649 77.5179 19.9906 77.2615 20.0931C77.0564 20.1701 76.9538 20.2983 76.9538 20.4265C76.9538 20.5034 76.9794 20.5803 77.0051 20.6573C77.0564 20.7342 77.1076 20.7855 77.1589 20.8111C77.3128 20.888 77.5948 20.9393 78.0564 20.9393C78.2359 20.9393 78.3897 20.9393 78.4666 20.9393C78.5692 20.9393 78.6461 20.9137 78.7487 20.8624C78.8256 20.8367 78.8769 20.7855 78.9282 20.7342C78.9794 20.6573 79.0051 20.5803 79.0051 20.4778C79.0307 20.3496 79.0307 20.2214 79.0564 20.0931C79.0564 19.9393 79.0564 19.7598 79.0564 19.5034Z" fill="white"/>
<path d="M6.00357 12.5253L14.7472 16.6022C14.542 16.474 10.3882 13.6535 9.10614 11.4484C7.79844 9.19196 7.87537 7.49965 9.00357 5.88426C10.1061 4.26888 12.8754 3.24324 17.0549 3.49965C21.2343 3.75606 25.8497 5.03811 29.3113 8.14067C29.3113 8.14067 26.3625 2.90991 18.8497 1.44837C11.3369 -0.0131705 5.56767 2.93555 2.23434 5.96119C1.36255 6.75606 0.901008 7.52529 0.747162 8.26888C0.824085 10.5253 6.00357 12.5253 6.00357 12.5253Z" fill="#3098D5"/>
<path d="M9.00379 32.8078C7.90122 31.1924 7.79866 29.5001 9.10635 27.2437C10.414 24.9873 14.7474 22.0898 14.7474 22.0898L6.00379 26.1668C6.00379 26.1668 0.824299 28.1924 0.747375 30.4232C0.901222 31.1668 1.36276 31.936 2.23455 32.7309C5.56789 35.7565 11.3371 38.7309 18.8499 37.2437C26.3628 35.7822 29.3115 30.5514 29.3115 30.5514C25.8499 33.6539 21.2602 34.936 17.0551 35.1924C12.8499 35.4488 10.1063 34.4232 9.00379 32.8078Z" fill="#F9AE00"/>
<path d="M6.00321 26.1631L14.7468 22.0861C14.7468 22.0861 17.234 20.7528 17.234 19.4451C17.234 19.4195 17.234 19.3938 17.234 19.3425C17.234 19.3169 17.234 19.2913 17.234 19.2656C17.234 17.9579 14.7468 16.6246 14.7468 16.6246L6.00321 12.522C6.00321 12.522 0.823722 10.4964 0.746799 8.26562C0.336542 10.2913 2.25962 12.0349 3.84936 13.5477C5.97757 15.5477 6.92629 17.5477 6.90064 19.3169C6.92629 21.1118 5.97757 23.0861 3.84936 25.0861C2.25962 26.5733 0.336542 28.3425 0.746799 30.3682C0.823722 28.1631 6.00321 26.1631 6.00321 26.1631Z" fill="#E40E20"/>
</g>
<defs>
<clipPath id="clip0_5_10322">
<rect width="80" height="36.9231" fill="white" transform="translate(0.620422 0.835938)"/>
</clipPath>
</defs>
</svg>
