<svg width="81" height="26" viewBox="0 0 81 26" fill="none" xmlns="http://www.w3.org/2000/svg">
<g clip-path="url(#clip0_5_10340)">
<path d="M4.83872 23.2012C4.83872 24.1116 4.61803 24.7461 4.0663 25.215C3.76285 25.5185 3.29389 25.6012 2.68699 25.6012C1.91458 25.6012 1.39044 25.2978 0.921475 24.7461C0.535268 24.1943 0.369751 23.6702 0.369751 23.0633C0.369751 22.2909 0.535268 21.684 0.976648 21.1323C1.19734 20.9116 1.44561 20.6633 1.6663 20.5254C1.96975 20.3599 2.2732 20.3047 2.65941 20.3047C3.04561 20.3047 3.34906 20.3874 3.73527 20.4702C4.03872 20.553 4.28699 20.6909 4.42492 20.9392C4.50768 21.0219 4.50768 21.1047 4.50768 21.1599C4.50768 21.215 4.50768 21.3254 4.42492 21.3805C4.34216 21.4633 4.25941 21.4633 4.20423 21.4633C4.12148 21.4633 4.03872 21.4633 3.98354 21.3805C3.76285 21.215 3.59734 21.0771 3.43182 20.9943C3.21113 20.9116 3.04561 20.8288 2.74216 20.8288C2.19044 20.8288 1.74906 21.0495 1.44561 21.5185C1.22492 21.9047 1.05941 22.3737 1.05941 22.8978C1.05941 23.6702 1.2801 24.1943 1.6663 24.6633C1.88699 24.884 2.21803 25.0495 2.57665 25.0495C2.79734 25.0495 3.12837 24.9668 3.34906 24.884C3.90079 24.6633 4.20423 24.1116 4.20423 23.4219V23.2012H3.29389C3.12837 23.2012 2.99044 23.1185 2.99044 22.8978C2.99044 22.6771 3.0732 22.5943 3.29389 22.5943H4.45251C4.6732 22.5943 4.83872 22.815 4.83872 23.1461V23.2012Z" fill="white"/>
<path d="M79.8993 23.2012C79.8993 24.1116 79.6786 24.7461 79.1268 25.215C78.8234 25.5185 78.3544 25.6012 77.7475 25.6012C76.9751 25.6012 76.451 25.2978 75.982 24.7461C75.5958 24.1943 75.4303 23.6702 75.4303 23.0633C75.4303 22.2909 75.5958 21.684 76.0372 21.1323C76.2579 20.9116 76.5062 20.6633 76.7268 20.5254C77.0303 20.3599 77.3337 20.3047 77.7199 20.3047C78.1062 20.3047 78.4096 20.3874 78.7958 20.4702C79.0993 20.553 79.3475 20.6909 79.4855 20.9392C79.5682 21.0219 79.5682 21.1047 79.5682 21.1599C79.5682 21.215 79.5682 21.3254 79.4855 21.3805C79.4027 21.4633 79.32 21.4633 79.2648 21.4633C79.182 21.4633 79.0993 21.4633 79.0441 21.3805C78.8234 21.215 78.6579 21.0771 78.4924 20.9943C78.2717 20.9116 78.1062 20.8288 77.8027 20.8288C77.251 20.8288 76.8096 21.0495 76.5062 21.5185C76.2855 21.9047 76.12 22.3737 76.12 22.8978C76.12 23.6702 76.3406 24.1943 76.7268 24.6633C76.9475 24.884 77.2786 25.0495 77.6372 25.0495C77.8579 25.0495 78.1889 24.9668 78.4096 24.884C78.9613 24.6633 79.2648 24.1116 79.2648 23.4219V23.2012H78.3544C78.1889 23.2012 78.051 23.1185 78.051 22.8978C78.051 22.6771 78.1337 22.5943 78.3544 22.5943H79.5131C79.8165 22.5943 79.982 22.7599 79.982 23.0633V23.2288H79.8993V23.2012Z" fill="white"/>
<path d="M36.6165 25.2121C36.6165 25.5155 36.5337 25.6811 36.313 25.6811C36.1475 25.6811 36.0096 25.5983 36.0096 25.3776L35.4027 21.1569L34.1613 25.3776C34.0785 25.5431 33.9958 25.5983 33.8579 25.5983C33.7199 25.5983 33.5544 25.5155 33.5544 25.3776L32.313 21.1569L31.7061 25.3776C31.7061 25.5983 31.5406 25.6811 31.3199 25.6811C31.1544 25.6811 31.0165 25.5155 31.0165 25.2949C31.0165 25.2121 31.0165 25.2121 31.0165 25.1293L31.7889 20.7431C31.7889 20.5776 31.8717 20.5224 31.9544 20.4397C32.0372 20.3569 32.1751 20.2742 32.2579 20.2742C32.4234 20.2742 32.4785 20.2742 32.5613 20.3569C32.6441 20.4397 32.7268 20.5224 32.7268 20.5776L33.8027 24.3569L34.8785 20.4949C34.8785 20.4121 34.9613 20.3293 35.0441 20.2742C35.1268 20.219 35.2096 20.1914 35.3475 20.1914C35.513 20.1914 35.5682 20.1914 35.651 20.2742C35.7337 20.3569 35.8165 20.4397 35.8165 20.5776L36.6165 25.2121Z" fill="white"/>
<path d="M48.6466 25.2924C48.6466 25.5131 48.5638 25.6786 48.3431 25.6786C48.1224 25.6786 48.0397 25.5959 48.0397 25.3752V20.7683C48.0397 20.5476 48.1224 20.4648 48.3431 20.4648C48.5638 20.4648 48.6466 20.5476 48.6466 20.7683V25.2924Z" fill="white"/>
<path d="M64.1202 25.2975C64.1202 25.5182 64.0375 25.601 63.8168 25.601C63.6513 25.601 63.5961 25.5182 63.4306 25.3803L60.672 21.4631V25.2424C60.672 25.4631 60.5892 25.5458 60.3685 25.5458C60.1478 25.5458 60.0651 25.4631 60.0651 25.2424V20.6355C60.0651 20.4148 60.1478 20.332 60.2858 20.332C60.4237 20.332 60.5064 20.4148 60.672 20.5527L63.3754 24.47V20.6907C63.3754 20.6079 63.3754 20.5251 63.4582 20.47C63.5409 20.4148 63.6237 20.3872 63.6789 20.3872C63.8995 20.3872 63.9823 20.47 63.9823 20.6907V25.2975H64.1202Z" fill="white"/>
<path d="M20.0665 25.3754C20.0665 25.5409 19.9837 25.5961 19.7631 25.5961C19.6803 25.5961 19.5975 25.5961 19.5424 25.5134C19.4596 25.5134 19.4596 25.5134 19.4596 25.4306L19.1562 24.5203H16.7562L16.2872 25.4306C16.2044 25.5961 16.1217 25.6513 15.9837 25.6513C15.8182 25.6513 15.6803 25.5685 15.6803 25.4306V25.3754V25.2927L17.3631 20.8237C17.4458 20.6582 17.4458 20.603 17.5286 20.5203C17.6113 20.4375 17.6941 20.4375 17.7493 20.4375C17.8044 20.4375 17.9148 20.4375 18.0527 20.5203C18.1355 20.603 18.2182 20.6858 18.2182 20.8237L19.901 25.2927C20.0665 25.2927 20.0665 25.3754 20.0665 25.3754ZM18.9355 23.9134L17.9424 21.072L16.8665 23.9134H18.9355Z" fill="white"/>
<path d="M67.05 4.96996C68.1927 4.96996 69.119 4.04365 69.119 2.901C69.119 1.75834 68.1927 0.832031 67.05 0.832031C65.9074 0.832031 64.9811 1.75834 64.9811 2.901C64.9811 4.04365 65.9074 4.96996 67.05 4.96996Z" fill="white"/>
<path d="M79.9862 2.901C79.9862 4.05962 79.0759 4.96996 77.9172 4.96996C76.7586 4.96996 75.8483 4.05962 75.8483 2.901C75.8483 1.74238 76.7586 0.832031 77.9172 0.832031C79.0759 0.832031 79.9862 1.74238 79.9862 2.901Z" fill="white"/>
<path d="M67.05 15.1223C68.1927 15.1223 69.119 14.196 69.119 13.0533C69.119 11.9107 68.1927 10.9844 67.05 10.9844C65.9074 10.9844 64.9811 11.9107 64.9811 13.0533C64.9811 14.196 65.9074 15.1223 67.05 15.1223Z" fill="white"/>
<path d="M79.9862 13.0533C79.9862 14.212 79.0759 15.1223 77.9172 15.1223C76.7586 15.1223 75.8483 14.212 75.8483 13.0533C75.8483 11.8947 76.7586 10.9844 77.9172 10.9844C79.0759 10.9844 79.9862 11.8947 79.9862 13.0533Z" fill="white"/>
<path d="M74.5819 7.97912C74.5819 9.13774 73.6716 10.0481 72.5129 10.0481C71.3543 10.0481 70.444 9.13774 70.444 7.97912C70.444 6.8205 71.3543 5.91016 72.5129 5.91016C73.6716 5.91016 74.5819 6.8205 74.5819 7.97912Z" fill="white"/>
<path d="M61.5068 14.6764L55.7413 1.04882C55.6585 0.883298 55.5758 0.828125 55.4378 0.828125H54.2792H54.1137H52.9551C52.7896 0.828125 52.7344 0.910884 52.6516 1.04882L46.8033 14.6764V14.7592C46.8033 14.9247 46.8861 14.9798 47.024 14.9798H49.6447C49.8102 14.9798 49.8654 14.8971 49.9482 14.7592L51.1895 11.6143H57.3413L58.5827 14.7592C58.6654 14.9247 58.7482 14.9798 58.8861 14.9798H61.5068C61.6723 14.9798 61.7275 14.8971 61.7275 14.7592C61.5895 14.7316 61.5896 14.6764 61.5068 14.6764ZM52.0447 9.13157L54.1964 3.66951L56.3482 9.13157H52.0447Z" fill="white"/>
<path d="M20.4599 5.18699C20.6254 4.63526 20.8461 4.41457 20.8461 4.41457C20.8461 4.41457 21.1495 3.86285 21.8392 3.5594C22.5288 3.25595 23.1357 3.25595 23.1357 3.25595H28.2943C28.4599 3.25595 28.5978 3.09043 28.5978 2.9525V1.10423C28.5978 0.938712 28.4323 0.800781 28.2943 0.800781H22.584C19.4392 0.800781 16.8737 3.5594 16.8737 6.9525V7.80768V7.89043V8.05595V8.13871V8.99388C16.8737 12.387 19.4116 15.1456 22.584 15.1456H28.2943C28.4599 15.1456 28.5978 14.9801 28.5978 14.8422V12.9111C28.5978 12.7456 28.4323 12.6077 28.2943 12.6077H23.1357C23.1357 12.6077 22.4461 12.6077 21.8392 12.3042C21.1495 12.0008 20.8461 11.4491 20.8461 11.4491C20.8461 11.4491 20.6254 11.1456 20.4599 10.6766C20.2943 10.1249 20.2943 9.43526 20.2943 9.43526V9.13181H28.2943C28.4599 9.13181 28.5978 8.9663 28.5978 8.82837V6.89733C28.5978 6.73181 28.4323 6.59388 28.2943 6.59388H20.2943V6.42837C20.3219 6.42837 20.4047 5.73871 20.4599 5.18699Z" fill="white"/>
<path d="M38.1693 14.9798H42.8589C43.0244 14.9798 43.0796 14.8143 43.0796 14.6764V12.7454C43.0796 12.5798 42.9969 12.4419 42.8589 12.4419H38.6382C38.6382 12.4419 38.0865 12.4419 37.5624 12.1385C37.0106 11.835 36.7072 11.2833 36.7072 11.2833C36.7072 11.2833 36.4037 10.9798 36.4037 10.4281C36.4037 9.95916 36.4037 9.35226 36.4037 9.35226V7.97295V1.04882C36.4037 0.883298 36.321 0.828125 36.1831 0.828125H33.7279C33.5624 0.828125 33.4244 0.993642 33.4244 1.13157C33.4244 1.13157 33.4244 1.13157 33.4244 1.21433V8.05571V8.96606V10.4281V10.5109C33.4796 12.9661 35.5486 14.9798 38.1693 14.9798Z" fill="white"/>
<path d="M12.9285 14.6764L9.6182 9.13157C11.301 8.74537 12.4596 7.58675 12.4596 5.04882C12.5423 1.65571 10.2251 0.883297 7.38372 0.828125H6.69406H0.542339C0.376822 0.828125 0.238892 0.993642 0.238892 1.13157V14.7592C0.238892 14.9247 0.404408 15.0626 0.542339 15.0626H2.99751C3.16303 15.0626 3.30096 14.8971 3.30096 14.7592V9.43502H6.77682L9.86648 14.8143C9.94924 14.9798 10.0872 15.035 10.2527 15.035H12.8734C13.0389 15.035 13.0941 14.9523 13.0941 14.8143C12.9285 14.7316 12.9285 14.6764 12.9285 14.6764ZM7.46648 6.89709L6.69406 6.97985H3.2182V3.33847H6.74924H7.43889C9.06648 3.33847 9.50786 4.11088 9.50786 5.10399C9.45268 6.12468 9.0113 6.89709 7.46648 6.89709Z" fill="white"/>
</g>
<defs>
<clipPath id="clip0_5_10340">
<rect width="80" height="25.3793" fill="white" transform="translate(0.0943604 0.550781)"/>
</clipPath>
</defs>
</svg>
