<svg width="84" height="24" viewBox="0 0 84 24" fill="none" xmlns="http://www.w3.org/2000/svg">
<g clip-path="url(#clip0_5_10365)">
<path d="M7.46753 2.46523C8.19825 2.182 8.9761 1.96957 9.75396 1.85156C9.89539 3.38572 10.3432 4.87268 11.0504 6.21802C11.7575 4.84908 12.2054 3.36212 12.3704 1.85156C13.1482 1.96957 13.9261 2.15839 14.6568 2.46523C14.4918 3.71616 14.1854 4.94349 13.714 6.10001C14.9632 5.62796 16.0947 4.87268 17.014 3.83417C17.6504 4.32982 18.2161 4.89628 18.7111 5.53355C17.1318 7.28013 15.0811 8.43666 12.8182 8.8615C13.5018 9.59318 14.2561 10.254 15.0811 10.7969C16.4718 9.40436 18.169 8.34225 20.0075 7.72858C20.3375 8.46026 20.5732 9.23914 20.7382 10.018C19.489 10.4193 18.334 11.0801 17.344 11.9298C18.499 12.3311 19.6775 12.5671 20.9032 12.6143C20.8561 13.4168 20.7147 14.2193 20.479 14.9981C16.8725 14.7621 13.4782 13.1099 11.0268 10.3721C8.57539 13.1099 5.1811 14.7857 1.57468 14.9981C1.33896 14.2193 1.19753 13.4168 1.15039 12.6143C2.3761 12.5671 3.57825 12.3311 4.73325 11.8826C3.71968 11.0329 2.56468 10.3721 1.33896 9.94722C1.50396 9.16833 1.73968 8.41305 2.06968 7.68138C3.90825 8.29504 5.60539 9.35715 6.9961 10.7497C7.8211 10.2068 8.57539 9.54597 9.28253 8.79069C7.01968 8.38945 4.94539 7.20933 3.41325 5.43914C3.90825 4.80187 4.47396 4.23541 5.11039 3.73976C6.0061 4.77827 7.13753 5.53355 8.41039 6.0056C7.93896 4.89628 7.63253 3.69256 7.46753 2.46523ZM6.52468 14.1721C7.25539 13.8416 7.93896 13.464 8.59896 13.0155C9.42396 14.1013 10.249 15.2106 11.0268 16.2963C11.8518 15.2106 12.6768 14.1249 13.4547 13.0155C14.1147 13.464 14.8218 13.8416 15.529 14.1721C14.4211 15.7062 13.2661 17.1696 12.1818 18.6801C12.1818 19.8131 12.1818 20.946 12.1818 22.0789C11.404 22.1733 10.6261 22.1733 9.84825 22.0789V18.6801L6.52468 14.1721Z" fill="#F96432"/>
<path d="M70.0507 8.10744C70.7107 7.68259 71.5357 7.51738 72.29 7.65899C73.0207 7.7534 73.7043 8.06023 74.2936 8.53228L73.4922 9.73601C72.9029 9.24036 72.1486 9.00433 71.3943 9.02794C71.0407 9.07514 70.6872 9.33477 70.7343 9.71241C70.7814 10.09 71.0172 10.2317 71.2764 10.3261C72.125 10.6565 73.0679 10.7273 73.8222 11.3174C74.6 12.0255 74.7414 13.2056 74.1522 14.0789C73.775 14.6217 73.1857 14.9522 72.5257 15.0466C71.2057 15.2354 69.8857 14.8341 68.9193 13.9137L69.815 12.7807C70.3572 13.2764 71.0172 13.5832 71.7243 13.654C72.1014 13.7248 72.5022 13.6304 72.8322 13.3708C72.95 13.2292 73.0207 13.0168 72.9736 12.8279C72.9264 12.6391 72.8322 12.4739 72.6436 12.3795C71.7479 11.9074 70.6636 11.9074 69.8386 11.2466C69.3907 10.8689 69.1786 10.3025 69.2022 9.71241C69.2022 9.14595 69.5322 8.48508 70.0507 8.10744ZM33.7507 8.10744C34.6464 7.63539 35.7072 7.54098 36.6736 7.80061C37.2864 7.94222 37.8522 8.24905 38.3236 8.6739L37.3336 9.90123C36.8857 9.45278 36.2964 9.19315 35.6836 9.16955C35.0472 9.12235 34.3872 9.38197 33.9864 9.90123C33.185 10.9161 33.2793 12.4031 34.1986 13.3C35.0236 13.9609 36.1786 14.0081 37.0507 13.3708C37.0507 13.1112 37.0507 12.8515 37.0507 12.5919H36.32C36.32 12.1907 36.32 11.7658 36.32 11.341H38.5357V14.1025C37.5693 14.9758 36.2729 15.377 35 15.2354C34.0572 15.141 33.185 14.6689 32.5957 13.9137C31.9122 12.9932 31.6529 11.813 31.8886 10.6801C32.1479 9.54719 32.8079 8.62669 33.7507 8.10744ZM41.2936 8.22545C42.26 7.65899 43.415 7.49377 44.4757 7.777C45.065 7.91862 45.6307 8.22545 46.0786 8.62669C45.7486 9.02794 45.4186 9.42918 45.1122 9.83042C44.6407 9.38197 44.0514 9.12235 43.415 9.09874C42.7314 9.05154 42.0479 9.38197 41.6707 9.97204C40.9636 11.0105 41.1286 12.4503 42.0479 13.2764C42.8729 13.8664 44.0043 13.8664 44.8529 13.2764V12.5211H44.1222V11.2702H46.3379C46.3379 12.1907 46.3379 13.1112 46.3379 14.0317C45.5364 14.7397 44.4993 15.141 43.4386 15.1646C42.4014 15.2118 41.4114 14.8577 40.6572 14.1261C39.9264 13.3708 39.5493 12.3323 39.62 11.2702C39.6436 10.0428 40.28 8.90992 41.2936 8.22545ZM25.0293 7.777C25.6422 7.777 26.2314 7.777 26.8443 7.777C27.3864 8.86272 27.9757 9.94843 28.5414 11.0341L30.2386 7.777H31.9829C31.0872 9.42918 30.1679 11.0814 29.2722 12.7335C29.2722 13.5124 29.2722 14.2913 29.2722 15.0702H27.74C27.74 14.2913 27.74 13.5124 27.74 12.7571C26.8443 11.0814 25.925 9.45278 25.0293 7.777ZM47.5636 7.777H49.9443C51.2643 7.7062 52.5136 8.39067 53.2443 9.52359C53.8336 10.5621 53.9043 11.8366 53.4329 12.9459C52.8672 14.1969 51.6414 15.023 50.2979 15.0702C49.4022 15.0702 48.4829 15.0702 47.5636 15.0702C47.5636 12.6391 47.5636 10.2081 47.5636 7.777ZM49.1193 9.19315C49.1193 10.6565 49.1193 12.1435 49.1193 13.6068C49.8264 13.6068 50.5807 13.6776 51.1936 13.2764C51.8064 12.8279 52.1364 12.1435 52.1364 11.3882C52.1364 10.6329 51.7593 9.92483 51.17 9.49999C50.5572 9.14595 49.8264 9.21676 49.1193 9.19315ZM54.7529 7.777C55.8136 7.777 56.8979 7.777 57.935 7.777C58.8307 7.7534 59.6557 8.22545 60.1272 9.00433C60.5986 9.97204 60.4336 11.1522 59.7264 11.931C59.4907 12.1671 59.1843 12.3323 58.9014 12.4503L60.6222 15.0466H58.8072C58.3122 14.2677 57.8172 13.4888 57.2986 12.7099H56.8979V11.2938C57.4164 11.2702 58.0057 11.4118 58.4536 11.0814C58.7364 10.8689 58.9014 10.5149 58.8543 10.1373C58.8072 9.75961 58.595 9.45278 58.265 9.31117C57.6286 9.19315 56.9686 9.14595 56.3086 9.19315V15.0702H54.7764C54.7529 12.6391 54.7529 10.2081 54.7529 7.777ZM61.1172 15.0938L64.1343 7.7534H65.5486L68.5657 15.0938H66.9157C66.7036 14.5273 66.4679 13.9845 66.2793 13.4416H63.9222L64.4643 12.0491H65.7136L64.7707 9.6652C64.0636 11.4826 63.3564 13.2764 62.6257 15.0938H61.1172ZM75.7314 7.777H77.2636V15.0702H75.7314V7.777ZM78.5364 7.777H80.0922C80.0922 9.73601 80.0922 11.6714 80.0922 13.6304H83.3922V15.0938H78.5364C78.5364 12.6391 78.5364 10.2081 78.5364 7.777Z" fill="white"/>
</g>
<defs>
<clipPath id="clip0_5_10365">
<rect width="82.8571" height="22.8571" fill="white" transform="translate(0.855469 0.570312)"/>
</clipPath>
</defs>
</svg>
