<svg width="92" height="20" viewBox="0 0 92 20" fill="none" xmlns="http://www.w3.org/2000/svg">
<path fillRule="evenodd" clipRule="evenodd" d="M88.0012 10.8033L90.4796 14.9337H87.651L85.3073 11.0511H85.2804V14.9337H82.7212V4.883H86.5465C87.4355 4.82793 88.3245 5.10329 89.0249 5.62648C89.6714 6.20474 90.0216 7.05837 89.9677 7.93953C89.9947 8.6004 89.7792 9.26127 89.402 9.81199C89.0788 10.3352 88.5669 10.6931 88.0012 10.8033ZM87.1392 7.47141C87.0314 7.30619 86.8967 7.16851 86.7351 7.0859C86.5465 7.00329 86.3579 6.92068 86.1694 6.89315C85.9539 6.86561 85.7384 6.83808 85.5229 6.83808H85.2804V9.34387H85.5229C85.7384 9.34387 85.9539 9.31634 86.1694 9.2888C86.3579 9.26127 86.5465 9.20619 86.7351 9.09605C86.8967 9.01344 87.0314 8.87576 87.1392 8.71054C87.3277 8.35257 87.3277 7.88445 87.1392 7.47141ZM75.5286 4.883H81.1318V7.11344H78.0877V8.73808H81.1049V11.0236H78.0877V12.6482H81.1049V14.9337H75.5016V4.883H75.5286ZM38.5147 7.11344H35.4975V8.73808H38.5147V11.0236H35.4975V12.6482H38.5147V14.9337H32.9114V4.883H38.5147V7.11344ZM29.0053 14.9337L26.6616 11.0511H26.6347V14.9337H24.0755V4.883H27.9008C28.7898 4.82793 29.6788 5.10329 30.3792 5.62648C31.0257 6.20474 31.3759 7.05837 31.322 7.93953C31.349 8.6004 31.1335 9.26127 30.7563 9.81199C30.3792 10.3352 29.8135 10.6931 29.1669 10.7758L31.8608 14.9062L29.0053 14.9337ZM28.5204 7.47141C28.4126 7.30619 28.2779 7.16851 28.1163 7.0859C27.9277 7.00329 27.7392 6.92068 27.5506 6.89315C27.3351 6.86561 27.1196 6.83808 26.9041 6.83808H26.6347V9.34387H26.8771C27.0926 9.34387 27.3082 9.31634 27.5237 9.2888C27.7122 9.26127 27.9008 9.20619 28.0894 9.09605C28.251 9.01344 28.3857 8.87576 28.4935 8.71054C28.709 8.35257 28.709 7.88445 28.5204 7.47141ZM45.2224 5.26851C45.7882 5.51634 46.2731 5.87431 46.7041 6.34242C47.1351 6.81054 47.4584 7.36126 47.7008 7.96706C48.1857 9.23373 48.1857 10.6105 47.7008 11.8772C47.4584 12.483 47.1351 13.0062 46.7041 13.4743C46.2731 13.9149 45.7882 14.3004 45.2224 14.5482C44.6567 14.796 44.0641 14.9337 43.4445 14.9337H40.1041V4.883H43.4445C44.0641 4.883 44.6567 5.02069 45.2224 5.26851ZM42.4477 7.11344V12.7308H42.9865C43.3367 12.7308 43.66 12.6758 44.0102 12.5656C44.6567 12.3453 45.1686 11.8221 45.411 11.1613C45.5457 10.7758 45.6265 10.3352 45.6265 9.92213C45.6804 9.15112 45.411 8.40764 44.9261 7.85692C44.4412 7.36126 43.7408 7.0859 43.0404 7.11344H42.4477ZM58.7188 7.11344H56.5906V14.9337H54.0314V7.11344H51.9033V4.91054H58.6918V7.11344H58.7188ZM62.8404 14.9337H60.2812V4.85547H62.8404V14.9337ZM65.7767 6.28735C66.2347 5.84677 66.7465 5.4888 67.3392 5.26851C67.9857 5.02069 68.6592 4.91054 69.3326 4.91054C70.1947 4.883 71.0567 5.13083 71.811 5.57141C72.5384 6.03953 73.1041 6.72793 73.4543 7.55402L71.2184 8.51779C71.0837 8.07721 70.8143 7.6917 70.4641 7.41634C70.1139 7.14097 69.6828 7.00329 69.2518 7.00329C68.9016 7.00329 68.5514 7.0859 68.2551 7.25112C67.9588 7.41634 67.6894 7.63663 67.5008 7.93953C67.2853 8.24242 67.1506 8.54532 67.0428 8.90329C66.8273 9.61924 66.8273 10.3627 67.0428 11.0511C67.1506 11.3816 67.3122 11.712 67.5008 12.0149C67.6894 12.2903 67.9588 12.5105 68.2551 12.6758C68.5784 12.841 68.9286 12.9236 69.2788 12.9236C69.7637 12.9511 70.2216 12.7859 70.5988 12.5105C70.949 12.2076 71.1645 11.7671 71.1914 11.2989H69.2518V9.37141H73.9661C73.9661 10.0598 73.8853 10.7482 73.7775 11.4366C73.6428 12.0424 73.4004 12.5931 73.0502 13.0888C72.6461 13.6946 72.0804 14.1627 71.4339 14.4931C70.7604 14.796 70.0331 14.9613 69.3057 14.9613C68.6322 14.9613 67.9857 14.8511 67.3392 14.6033C66.7465 14.383 66.2347 14.025 65.8037 13.5845C65.3726 13.1439 65.0224 12.5931 64.8069 12.0149C64.5645 11.3816 64.4567 10.6931 64.4567 10.0047C64.4567 9.2888 64.5645 8.6004 64.8069 7.93953C64.9686 7.27866 65.3188 6.72793 65.7767 6.28735Z" fill="#D71920"/>
<path fillRule="evenodd" clipRule="evenodd" d="M13.4609 7.08121C13.4609 7.35657 13.4609 7.65947 13.0568 7.79715C12.8144 7.87976 12.5181 7.52179 12.4911 7.3015C12.6258 7.13628 12.7875 6.9986 12.976 6.94353C13.3532 6.77831 13.4609 6.75078 13.4609 7.08121ZM6.26827 7.79715C5.83725 7.65947 5.86419 7.35657 5.86419 7.08121C5.86419 6.75078 5.97195 6.77831 6.34909 6.916C6.53766 6.9986 6.69929 7.10875 6.83399 7.27396C6.83399 7.54933 6.53766 7.87976 6.26827 7.79715ZM15.7507 15.8102C15.9932 15.6725 16.2356 15.5073 16.4242 15.3145C17.394 14.2406 17.5826 13.029 17.7173 11.5972C17.7442 11.2392 17.7442 10.8537 17.7711 10.4682C17.7711 10.4131 17.7711 10.1377 17.7981 10.1377C17.8789 10.2203 17.9328 10.3305 17.9866 10.4406C18.0944 10.7711 18.1752 11.129 18.2022 11.4595C18.3099 12.1479 18.3368 12.8638 18.256 13.5522C18.2291 13.8001 18.1483 14.0203 18.0136 14.2406C17.394 15.287 16.7205 16.2508 16.074 17.2696C16.0201 17.3522 15.9932 17.187 15.9393 17.1595L15.8854 17.1044C15.7507 17.0218 15.6699 17.0218 15.616 17.0769C15.5891 17.1319 15.5622 17.1595 15.5622 17.2145C15.4005 17.545 15.1311 18.0957 14.9426 18.4537C14.9156 18.5087 14.8348 18.5363 14.7809 18.5087C14.754 18.4812 14.7271 18.4537 14.7271 18.3986C14.7271 18.0131 14.7271 17.6276 14.7271 17.2145C14.7271 16.9667 14.727 16.6638 14.4038 16.6638C14.0805 16.6638 14.0805 16.9392 14.0805 17.2145C14.0805 17.4348 14.0805 17.6827 14.0805 17.9305C14.0805 17.9856 14.0266 18.0406 13.9728 18.0406C13.9458 18.0406 13.9189 18.0406 13.9189 18.0131C13.6495 17.7928 13.3532 17.6276 13.0299 17.5174C12.5181 17.2972 11.9254 17.3798 11.4675 17.6827L11.5483 17.6276C11.9254 17.2696 12.4642 17.1319 13.003 17.2421C13.1377 17.2696 13.2993 17.2972 13.434 17.2696C13.4879 17.2696 13.5417 17.2145 13.5417 17.1595V17.1319C13.3532 16.5812 12.7066 14.5986 13.9997 13.9102C14.0266 13.8827 14.0536 13.8551 14.0536 13.8276C14.1075 13.4696 14.754 11.8725 12.976 10.8537C12.7066 11.1015 12.3564 11.7073 11.9254 12.0653C12.7066 12.2305 13.1107 11.7624 13.4879 11.4319C13.3262 12.3406 12.6258 12.4232 12.0871 12.7537C12.5719 12.5334 13.0568 12.8363 13.6226 12.5334C13.2185 13.3319 12.3834 12.9464 11.8985 13.3595C12.3834 13.6899 12.8144 13.4972 13.2724 13.4421C13.4071 13.4145 13.5148 13.4421 13.6495 13.4696C13.5417 13.6348 13.434 13.7725 13.2993 13.8827C13.1377 14.0203 12.9222 14.1029 12.7336 14.1856C12.5181 14.2406 12.3026 14.2682 12.0871 14.2131C11.4675 14.0203 10.8479 13.7725 10.2283 13.5247C10.1205 13.4696 10.0128 13.3595 9.98582 13.2218C9.95889 13.029 9.98582 12.8087 9.98582 12.5885C9.93195 12.3131 10.1205 12.0653 10.363 12.0102C10.9556 11.845 11.4405 11.487 11.8177 10.9914C11.9254 10.8261 12.0332 10.6058 12.0601 10.4131C12.0601 10.2203 12.0332 10.0276 11.9524 9.83484C11.9254 9.69715 11.9254 9.53194 11.9524 9.39426V9.33918L12.0871 8.78846C12.1409 8.62324 12.2217 8.45802 12.3564 8.37541L12.3834 8.34788C12.4103 8.34788 12.4103 8.32034 12.4373 8.32034C12.6797 8.18266 12.9222 8.10005 13.1646 8.01744C14.0536 7.65947 14.754 6.88846 15.0503 5.95223C15.1581 5.64933 15.185 5.29136 15.1311 4.98846C15.0503 5.15368 14.9156 5.51165 14.8348 5.7044C14.727 5.97976 14.4577 6.17252 14.1613 6.14498C13.3532 6.14498 12.545 6.28266 12.0871 7.16382C11.8985 7.63194 11.5483 8.01744 11.1173 8.23773C11.1173 7.98991 11.1442 7.74208 11.225 7.49426C10.8479 7.32904 10.9826 7.10875 11.1981 6.88846C11.4675 6.58556 11.7638 6.28266 12.0601 5.95223C11.8177 5.89715 11.5752 5.75947 11.4136 5.56672H13.0299C13.0299 5.53918 13.0299 5.53918 13.0299 5.51165C12.545 5.42904 12.0601 5.23629 11.6291 4.98846C12.3834 4.52034 13.9189 4.74063 14.1883 4.65802C14.1883 4.60295 13.9728 4.54788 13.7573 4.46527C13.2454 4.32759 13.0568 4.30005 12.545 4.13483C12.0332 3.99715 11.5483 3.77686 11.0903 3.52904H13.1915C12.4642 3.116 11.683 2.84063 10.8748 2.73049C10.4168 2.70295 10.0666 2.70295 9.79725 2.70295C9.50093 2.70295 9.17766 2.70295 8.7197 2.73049C7.91154 2.84063 7.10338 3.116 6.40297 3.52904H8.50419C8.04623 3.77686 7.56134 3.99715 7.0495 4.13483C6.53766 4.27252 6.34909 4.32759 5.83725 4.46527C5.62174 4.54788 5.40623 4.57541 5.40623 4.65802C5.67562 4.74063 7.21113 4.52034 7.96542 4.98846C7.5344 5.23629 7.0495 5.4015 6.5646 5.51165C6.5646 5.53918 6.5646 5.53918 6.5646 5.56672H8.18093C7.99236 5.75947 7.77684 5.86962 7.5344 5.95223C7.83072 6.28266 8.10011 6.58556 8.39644 6.88846C8.61195 7.10875 8.74664 7.32904 8.3695 7.49426C8.45031 7.74208 8.47725 7.98991 8.47725 8.23773C8.04623 8.01744 7.69603 7.63194 7.50746 7.16382C7.0495 6.28266 6.26827 6.14498 5.43317 6.14498C5.13685 6.17252 4.86746 6.0073 4.7597 5.7044C4.67889 5.51165 4.54419 5.15368 4.46338 4.98846C4.4095 5.31889 4.43644 5.64933 4.54419 5.95223C4.84052 6.88846 5.51399 7.65947 6.42991 8.01744C6.67236 8.10005 6.94174 8.2102 7.15725 8.32034C7.18419 8.32034 7.18419 8.34788 7.21113 8.34788L7.23807 8.37541C7.37276 8.48556 7.48052 8.62324 7.50746 8.78846L7.64215 9.33918V9.39426C7.69603 9.53194 7.69603 9.69715 7.64215 9.83484C7.58827 10.0276 7.5344 10.2203 7.5344 10.4131C7.58827 10.6334 7.66909 10.8261 7.77685 10.9914C8.12705 11.487 8.63889 11.845 9.23154 12.0102C9.50093 12.0653 9.66256 12.3131 9.60868 12.5885C9.58174 12.8087 9.63562 13.029 9.60868 13.2218C9.58174 13.3595 9.47399 13.4696 9.36623 13.5247C8.74664 13.7725 8.12705 14.0203 7.50746 14.2131C7.29195 14.2682 7.07644 14.2682 6.86093 14.1856C6.64542 14.1305 6.45685 14.0203 6.29521 13.8827C6.16052 13.745 6.05276 13.6073 5.94501 13.4696C6.0797 13.4421 6.18746 13.4421 6.32215 13.4421C6.75317 13.4972 7.21113 13.6624 7.69603 13.3595C7.18419 12.9189 6.37603 13.3319 5.97195 12.5334C6.53766 12.8363 7.02256 12.5609 7.50746 12.7537C6.94174 12.4232 6.24133 12.3406 6.10664 11.4319C6.48378 11.7624 6.88787 12.2305 7.66909 12.0653C7.23807 11.6798 6.88787 11.1015 6.61848 10.8537C4.84052 11.8725 5.48705 13.4696 5.54093 13.8276C5.54093 13.8551 5.56787 13.9102 5.5948 13.9102C6.88787 14.5986 6.24133 16.5812 6.05276 17.1319C6.05276 17.1595 6.05276 17.2145 6.05276 17.2421C6.0797 17.2696 6.10664 17.2972 6.13358 17.2972C6.26827 17.2972 6.42991 17.2972 6.5646 17.2696C7.07644 17.1595 7.61521 17.2972 8.01929 17.6551L8.10011 17.7102C7.64215 17.3798 7.0495 17.3247 6.53766 17.545C6.2144 17.6551 5.91807 17.8203 5.64868 18.0406C5.5948 18.0682 5.51399 18.0682 5.48705 18.0131C5.48705 17.9856 5.46011 17.9856 5.46011 17.958C5.46011 17.6827 5.46011 17.4624 5.46011 17.2421C5.46011 16.9943 5.43317 16.6914 5.13685 16.6914C4.81358 16.6914 4.81358 16.9943 4.81358 17.2421C4.81358 17.6276 4.81358 18.0131 4.81358 18.4261C4.81358 18.4812 4.7597 18.5363 4.70582 18.5363C4.67889 18.5363 4.62501 18.5087 4.59807 18.4812C4.4095 18.1232 4.14011 17.5725 3.97848 17.2421C3.95154 17.187 3.9246 17.1595 3.9246 17.1044C3.84378 17.0493 3.78991 17.0769 3.65521 17.1319L3.60134 17.187C3.5744 17.2145 3.52052 17.3798 3.46664 17.2972C2.82011 16.2783 2.14664 15.3145 1.52705 14.2682C1.41929 14.0479 1.33848 13.8276 1.2846 13.5798C1.20378 12.8914 1.23072 12.1754 1.33848 11.487C1.36542 11.129 1.44623 10.7986 1.55399 10.4682C1.60787 10.358 1.66174 10.2479 1.74256 10.1653C1.7695 10.1653 1.7695 10.4406 1.7695 10.4957C1.79644 10.8812 1.7695 11.2392 1.82338 11.6247C1.93113 13.0566 2.1197 14.2682 3.11644 15.3421C3.30501 15.5624 3.54746 15.7276 3.78991 15.8377C3.84378 15.8653 3.9246 15.8377 3.9246 15.7827C3.9246 15.7551 3.9246 15.7276 3.9246 15.7001C3.62827 15.0943 3.30501 14.4609 3.06256 13.8276C2.82011 13.1667 2.65848 12.4783 2.46991 11.8174C2.44297 11.7624 2.49684 11.7073 2.55072 11.6798C2.57766 11.6798 2.6046 11.6798 2.6046 11.6798C2.73929 11.7348 2.92786 11.8174 3.0895 11.8725C3.14338 11.9001 3.22419 11.8725 3.22419 11.8174C3.22419 11.7899 3.22419 11.7624 3.22419 11.7348C3.03562 11.074 2.44297 9.17396 2.44297 9.17396C2.46991 9.22904 2.82011 9.75222 2.84705 9.77976C3.14338 10.2479 3.38582 10.7435 3.60134 11.2392C3.70909 11.5145 3.78991 11.7073 3.81684 11.7899C3.84378 11.845 3.84378 11.8725 3.81684 11.9276C3.30501 12.3682 3.70909 13.1943 3.9246 13.4421C4.22093 13.8001 4.43644 14.2131 4.54419 14.6812C4.57113 14.7638 4.62501 14.9015 4.65195 15.0392C4.67889 15.0943 4.73276 15.1218 4.78664 15.0943C4.84052 15.0667 4.86746 15.0392 4.86746 14.9841C4.84052 14.4059 4.73276 13.6073 4.54419 13.4145C4.24787 13.1392 4.30174 12.1754 4.65195 12.0102C4.94827 11.845 5.02909 11.6798 4.86746 11.4044C4.84052 11.3493 4.84052 11.2667 4.8944 11.2392L6.29521 10.4131C6.34909 10.3856 6.37603 10.303 6.34909 10.2479C6.32215 10.2203 6.29521 10.1928 6.26827 10.1928C5.78338 10.1377 5.29848 10.3029 4.92134 10.6058C4.62501 10.7711 4.24787 10.6885 4.08623 10.3856C4.05929 10.358 4.03236 10.303 4.03236 10.2479C4.00542 10.1653 3.97848 10.1102 3.95154 10.0276C3.9246 9.97252 3.97848 9.91744 4.05929 9.88991C4.73276 9.72469 4.84052 9.66962 4.8944 9.47686C4.8944 9.42179 4.86746 9.36672 4.81358 9.33918C4.81358 9.33918 4.81358 9.33918 4.78664 9.33918C4.54419 9.36672 4.30174 9.33918 4.08623 9.25657C3.95154 9.11889 3.87072 8.95368 3.84378 8.76092C3.81685 8.70585 3.87072 8.65078 3.9246 8.62324C3.95154 8.62324 3.97848 8.62324 4.00542 8.62324C4.24787 8.73339 4.30174 8.73339 4.43644 8.62324C4.49031 8.5957 4.49031 8.5131 4.46338 8.45802C4.43644 8.43049 4.4095 8.37541 4.35562 8.34788C3.84378 7.93483 3.0895 5.73194 3.11644 5.07107C2.92787 5.23628 2.76623 5.48411 2.68542 5.73194C2.14664 5.51165 1.74256 5.42904 1.82338 4.68556L2.41603 4.98846C2.41603 4.98846 2.44297 4.76817 2.1197 4.49281C1.44623 3.91455 1.33848 3.14353 1.31154 2.31744C1.2846 1.9044 1.58093 1.54643 1.95807 1.51889C2.1197 1.51889 2.2544 1.54643 2.38909 1.62904C3.70909 2.26237 5.51399 2.89571 6.99562 2.70295H7.0495C7.99236 2.5102 8.93521 2.40005 9.87807 2.40005C10.8209 2.40005 11.7638 2.5102 12.7066 2.70295H12.7605C14.2422 2.89571 16.074 2.26237 17.3671 1.62904C17.7173 1.40875 18.1483 1.51889 18.3638 1.87686C18.4446 2.01455 18.4715 2.17976 18.4715 2.31744C18.4446 3.14353 18.3368 3.91455 17.6634 4.49281C17.3401 4.76817 17.3671 4.98846 17.3671 4.98846L17.9597 4.68556C18.0405 5.45657 17.6364 5.51165 17.0977 5.73194C17.0168 5.48411 16.8552 5.23628 16.6666 5.07107C16.6936 5.73194 15.9124 7.93483 15.4275 8.34788C15.4005 8.37541 15.3466 8.40295 15.3197 8.45802C15.2928 8.48556 15.2928 8.51309 15.2928 8.54063C15.2928 8.56817 15.3197 8.5957 15.3466 8.62324C15.4813 8.73339 15.5352 8.73339 15.7777 8.62324C15.8315 8.5957 15.9124 8.62324 15.9124 8.67831C15.9124 8.70585 15.9124 8.73339 15.9124 8.76092C15.8854 8.95368 15.8046 9.11889 15.6699 9.25657C15.4544 9.33918 15.2119 9.36672 14.9695 9.33918C14.9156 9.33918 14.8617 9.39426 14.8617 9.44933C14.8617 9.44933 14.8617 9.44933 14.8617 9.47686C14.8887 9.69715 14.9964 9.72469 15.6968 9.88991C15.7507 9.91744 15.8046 9.94498 15.8046 10.0276C15.7777 10.1102 15.7507 10.1653 15.7238 10.2479C15.616 10.5783 15.2658 10.7711 14.9426 10.6609C14.8887 10.6334 14.8617 10.6334 14.8079 10.6058C14.4307 10.3029 13.9458 10.1653 13.4609 10.1928C13.4071 10.1928 13.3532 10.2479 13.3801 10.3305C13.3801 10.358 13.4071 10.3856 13.434 10.4131L14.8348 11.2392C14.8887 11.2667 14.9156 11.3493 14.8617 11.4044C14.7001 11.6798 14.7809 11.845 15.0773 12.0102C15.4005 12.1754 15.4544 13.1392 15.185 13.4145C14.9964 13.6073 14.8887 14.3783 14.8617 14.9841C14.8617 15.0392 14.9156 15.0943 14.9695 15.0943C15.0234 15.0943 15.0503 15.0667 15.0773 15.0116C15.1311 14.874 15.1581 14.7363 15.185 14.6537C15.2928 14.2131 15.5083 13.7725 15.8046 13.4145C16.0201 13.1667 16.4242 12.3406 15.9124 11.9001C15.8854 11.8725 15.8854 11.8174 15.9124 11.7624C15.9662 11.6522 16.0471 11.4595 16.1279 11.2116C16.3434 10.716 16.5858 10.2203 16.8822 9.75223C16.9091 9.69715 17.2593 9.17397 17.2862 9.14643C17.2862 9.14643 16.6936 11.0464 16.505 11.7073C16.4781 11.7624 16.5319 11.8174 16.5858 11.845C16.6128 11.845 16.6397 11.845 16.6666 11.845C16.8013 11.7899 16.9899 11.7073 17.1515 11.6522C17.2054 11.6247 17.2593 11.6522 17.2862 11.7348C17.2862 11.7624 17.2862 11.7899 17.2862 11.7899C17.0977 12.4783 16.936 13.1392 16.6936 13.8001C16.4511 14.4334 16.1279 15.0392 15.8315 15.6725C15.8046 15.7276 15.8315 15.8102 15.8854 15.8377C15.6699 15.8102 15.7238 15.8102 15.7507 15.8102ZM6.5646 10.7435L6.51072 10.7711C6.53766 10.7711 6.5646 10.7711 6.5646 10.7435ZM3.9246 2.56527C2.38909 2.42759 2.65848 3.61165 2.9548 4.30005L3.19725 4.7131C3.22419 4.74063 3.22419 4.74063 3.22419 4.76817C3.60133 5.7044 3.9246 7.68701 5.78338 8.43049C5.70256 8.37542 5.64868 8.34788 5.56787 8.29281C5.02909 7.82469 4.59807 7.24643 4.2748 6.6131C3.4397 4.90585 3.65521 3.83194 3.5744 3.41889C3.73603 3.47397 4.30174 3.61165 4.4095 3.63918C4.4095 3.61165 3.41276 3.17107 3.11644 3.00585C3.25113 2.92324 3.38582 2.86817 3.54746 2.84063C4.19399 2.75802 4.43644 2.97831 4.86746 3.03339C5.16378 3.06092 5.43317 3.03339 5.70256 2.97831L3.9246 2.56527ZM12.7605 10.7435C12.7875 10.7435 12.7875 10.7711 12.8144 10.7711L12.7605 10.7435ZM16.074 4.7957C16.1009 4.76817 16.1009 4.74063 16.1279 4.74063L16.3703 4.32759C16.6666 3.63918 16.963 2.45513 15.4005 2.59281L13.5687 3.06092C13.8381 3.14353 14.1344 3.14353 14.4038 3.116C14.8348 3.06092 15.0773 2.84063 15.7238 2.92324C15.8854 2.95078 16.0201 3.00585 16.1548 3.08846C15.8585 3.25368 14.8617 3.69425 14.8617 3.72179C14.9695 3.69425 15.5352 3.55658 15.6968 3.5015C15.5891 3.94208 15.8046 4.98846 14.9964 6.6957C14.6732 7.32904 14.2422 7.9073 13.7034 8.37541C13.6226 8.43049 13.5687 8.48556 13.4879 8.5131C15.3736 7.71454 15.6968 5.73194 16.074 4.7957ZM9.66256 10.8537C9.44705 10.8537 9.2046 10.8537 8.88134 10.8537C8.61195 10.8537 8.31562 10.7986 8.07317 10.6885C7.93848 10.5783 7.85766 10.4131 7.8846 10.2203C7.91154 9.97252 8.20787 9.8073 8.20787 9.8073C8.20787 10.358 8.66583 10.5232 9.66256 10.5232C10.6593 10.5232 11.1173 10.358 11.1173 9.8073C11.1173 9.8073 11.4136 9.97252 11.4405 10.2203C11.4675 10.3856 11.4136 10.5783 11.2519 10.6885C10.9826 10.7986 10.7132 10.8537 10.4438 10.8537C10.1205 10.8537 9.87807 10.8537 9.66256 10.8537ZM9.66256 16.8566C9.6895 17.6 8.45031 17.6551 7.3997 17.0218C7.34582 16.8015 7.45358 16.3885 7.34583 16.3058C7.15725 16.1682 6.88787 16.3334 6.69929 16.4711C6.51072 16.6087 6.40297 16.829 6.2144 16.9667C6.29521 15.8377 7.3997 14.7914 9.12378 14.7087C9.31236 14.7087 9.50093 14.6812 9.6895 14.6812C9.87807 14.6812 10.0666 14.6812 10.2552 14.7087C11.9524 14.8189 13.0838 15.8377 13.1646 16.9667C12.976 16.829 12.8683 16.6087 12.6797 16.4711C12.4911 16.3609 12.2217 16.1957 12.0332 16.3058C11.8985 16.3885 12.0332 16.774 11.9793 17.0218C10.8748 17.6551 9.63562 17.5725 9.66256 16.8566Z" fill="#D71920"/>
</svg>
