<svg width="95" height="42" viewBox="0 0 95 42" fill="none" xmlns="http://www.w3.org/2000/svg">
<g clip-path="url(#clip0_5_10380)">
<mask id="mask0_5_10380" style="mask-type:luminance" maskUnits="userSpaceOnUse" x="0" y="0" width="95" height="42">
<path d="M94.385 0.203125H0.088562V41.7933H94.385V0.203125Z" fill="white"/>
</mask>
<g mask="url(#mask0_5_10380)">
<mask id="mask1_5_10380" style="mask-type:luminance" maskUnits="userSpaceOnUse" x="0" y="0" width="95" height="42">
<path d="M94.385 0.195312H0.088562V41.7855H94.385V0.195312Z" fill="white"/>
</mask>
<g mask="url(#mask1_5_10380)">
<path d="M26.4574 29.1679C26.0871 29.1679 25.7909 29.3135 25.5934 29.5804C25.3959 29.8473 25.2972 30.2356 25.2972 30.7209C25.2972 31.74 25.6922 32.2496 26.4574 32.2496C26.7783 32.2496 27.1733 32.1768 27.6423 32.0069V32.8077C27.272 32.9533 26.8277 33.0503 26.3587 33.0503C25.6922 33.0503 25.1738 32.8562 24.8035 32.4437C24.4579 32.0312 24.2604 31.4731 24.2604 30.7209C24.2604 30.2599 24.3592 29.8231 24.532 29.4834C24.7048 29.1194 24.9516 28.8525 25.2972 28.6584C25.6181 28.4643 26.0131 28.3672 26.4574 28.3672C26.9017 28.3672 27.3707 28.4642 27.8151 28.6826L27.4942 29.4834C27.3214 29.4106 27.1486 29.3378 26.9758 29.265C26.803 29.1922 26.6302 29.1679 26.4574 29.1679Z" fill="white"/>
</g>
<mask id="mask2_5_10380" style="mask-type:luminance" maskUnits="userSpaceOnUse" x="0" y="0" width="95" height="42">
<path d="M94.385 0.195312H0.088562V41.7855H94.385V0.195312Z" fill="white"/>
</mask>
<g mask="url(#mask2_5_10380)">
<path d="M40.9353 28.4375H39.9479V32.975H40.9353V28.4375Z" fill="white"/>
</g>
<mask id="mask3_5_10380" style="mask-type:luminance" maskUnits="userSpaceOnUse" x="0" y="0" width="95" height="42">
<path d="M94.385 0.195312H0.088562V41.7855H94.385V0.195312Z" fill="white"/>
</mask>
<g mask="url(#mask3_5_10380)">
<path d="M55.2333 32.975H54.2459V29.2382H52.987V28.4375H56.4923V29.2382H55.2333V32.975Z" fill="white"/>
</g>
<mask id="mask4_5_10380" style="mask-type:luminance" maskUnits="userSpaceOnUse" x="0" y="0" width="95" height="42">
<path d="M94.385 0.195312H0.088562V41.7855H94.385V0.195312Z" fill="white"/>
</mask>
<g mask="url(#mask4_5_10380)">
<path d="M69.9955 30.3059L70.9583 28.4375H72.0197L70.4646 31.2037V32.975H69.5018V31.2522L67.9714 28.4375H69.0328L69.9955 30.3059Z" fill="white"/>
</g>
<mask id="mask5_5_10380" style="mask-type:luminance" maskUnits="userSpaceOnUse" x="0" y="0" width="95" height="42">
<path d="M94.385 0.195312H0.088562V41.7855H94.385V0.195312Z" fill="white"/>
</mask>
<g mask="url(#mask5_5_10380)">
<path d="M72.2383 16.3519C71.868 16.3519 71.5225 16.3519 71.1522 16.3519C70.9547 16.3519 70.93 16.3519 70.9053 16.1578C70.856 15.7453 70.7572 15.3328 70.5844 14.9445C70.1648 14.0467 69.4242 13.5372 68.4122 13.4158C67.8444 13.343 67.3013 13.3916 66.7583 13.5614C65.9683 13.8041 65.45 14.3136 65.1044 15.0416C64.9563 15.3813 64.8575 15.7453 64.8082 16.1092C64.8082 16.1578 64.8082 16.182 64.8082 16.2306C64.8082 16.3034 64.7588 16.3276 64.6847 16.3519C64.6354 16.3519 64.586 16.3519 64.5366 16.3519C63.8454 16.3519 63.1296 16.3519 62.4384 16.3519C62.389 16.3519 62.3397 16.3519 62.2903 16.3519C62.2162 16.3519 62.1916 16.3034 62.1669 16.2548C62.1422 16.1092 62.1175 15.9879 62.0928 15.8423C61.9941 15.3813 61.8213 14.9445 61.5251 14.5563C61.0314 13.8283 60.3155 13.4644 59.4268 13.4158C59.0566 13.3916 58.6616 13.4158 58.2913 13.5129C57.3286 13.7313 56.6868 14.3136 56.3165 15.2114C56.1931 15.5269 56.0944 15.8423 56.0697 16.182C56.045 16.4004 56.045 16.4004 55.7982 16.4004C55.1317 16.4004 54.4652 16.4004 53.8234 16.4004C53.7493 16.4004 53.6753 16.4004 53.5765 16.4004C53.4531 16.4004 53.4284 16.3762 53.4284 16.2306C53.4531 16.085 53.4531 15.9394 53.4778 15.7938C53.6506 14.8475 53.9715 13.9497 54.5145 13.1489C55.3291 11.9599 56.44 11.232 57.8717 10.9651C58.316 10.8923 58.7603 10.8438 59.2047 10.8438C60.3155 10.8438 61.3029 11.2077 62.1669 11.8871C62.5618 12.2026 62.9074 12.5666 63.2283 12.9548C63.2777 13.0276 63.3271 13.1004 63.4011 13.1732C63.4505 13.2217 63.4752 13.2217 63.5245 13.1732C63.5986 13.1004 63.648 13.0276 63.722 12.9548C64.0429 12.5666 64.4132 12.2026 64.8328 11.8871C65.7215 11.232 66.7089 10.8923 67.8197 10.868C68.5109 10.8438 69.2021 10.9408 69.8686 11.1592C70.9794 11.5232 71.8187 12.2026 72.4605 13.1732C72.9542 13.9497 73.2751 14.7989 73.4479 15.6967C73.4726 15.8666 73.4972 16.0365 73.5219 16.2306C73.5466 16.4247 73.5466 16.4247 73.3245 16.449C73.1023 16.449 72.9048 16.449 72.6826 16.449H72.2383V16.3519Z" fill="white"/>
</g>
<mask id="mask6_5_10380" style="mask-type:luminance" maskUnits="userSpaceOnUse" x="0" y="0" width="95" height="42">
<path d="M94.385 0.195312H0.088562V41.7855H94.385V0.195312Z" fill="white"/>
</mask>
<g mask="url(#mask6_5_10380)">
<path d="M20.8273 17.0647C21.1975 17.0647 21.5925 17.0647 21.9628 17.0647C22.1109 17.0647 22.1109 17.0889 22.1356 17.2102C22.1356 17.4286 22.1356 17.6228 22.1356 17.8411C22.1602 18.3022 22.2343 18.7389 22.4071 19.1514C22.728 19.9037 23.2217 20.5345 23.9622 20.9228C24.4066 21.1654 24.9003 21.311 25.4187 21.3596C26.0358 21.4081 26.6282 21.4081 27.2453 21.2625C28.6524 20.9228 29.541 20.0492 29.9854 18.7147C30.0841 18.4478 30.0841 18.2051 30.1088 17.8654C30.1088 17.647 30.1088 17.4044 30.1088 17.186C30.1088 17.0889 30.1335 17.0647 30.2322 17.0647C31.0221 17.0647 31.812 17.0647 32.602 17.0647C32.7007 17.0647 32.7254 17.0889 32.7254 17.186C32.7501 17.9382 32.7254 18.6904 32.5279 19.4426C32.3057 20.2676 31.9355 21.0441 31.4171 21.7478C30.7012 22.6456 29.7879 23.2765 28.6771 23.6162C27.9612 23.8346 27.2207 23.9559 26.4554 23.9802C25.6655 24.0044 24.9003 23.9316 24.135 23.7618C22.2343 23.2765 20.9013 22.136 20.1114 20.389C19.8152 19.7338 19.6424 19.0786 19.5683 18.375C19.5436 17.9867 19.5683 17.5985 19.5436 17.186C19.5436 17.1132 19.593 17.0889 19.6671 17.0889C19.8399 17.0889 20.0373 17.0889 20.2101 17.0889C20.3829 17.0404 20.6051 17.0647 20.8273 17.0647Z" fill="white"/>
</g>
<mask id="mask7_5_10380" style="mask-type:luminance" maskUnits="userSpaceOnUse" x="0" y="0" width="95" height="42">
<path d="M94.385 0.195312H0.088562V41.7855H94.385V0.195312Z" fill="white"/>
</mask>
<g mask="url(#mask7_5_10380)">
<path d="M30.0942 16.3367C30.0449 16.2639 30.0449 16.1911 30.0202 16.094C29.7733 14.905 29.0822 14.1043 27.922 13.6675C27.4529 13.4977 26.9839 13.4006 26.4902 13.3763C25.8484 13.3521 25.1819 13.3763 24.5648 13.5462C23.7255 13.7889 23.059 14.2256 22.59 14.9536C22.3432 15.3175 22.2197 15.73 22.121 16.1668C22.0963 16.3124 22.0963 16.3124 21.9482 16.3124C21.183 16.3124 20.4177 16.3124 19.6278 16.3124C19.4797 16.3124 19.455 16.2881 19.4797 16.1668C19.5044 15.9727 19.5291 15.8028 19.5785 15.6087C19.7759 14.7109 20.1462 13.8859 20.6893 13.158C21.4545 12.1146 22.4913 11.4351 23.7502 11.0712C24.3673 10.9013 24.9845 10.8043 25.6016 10.78C26.4655 10.7315 27.3048 10.8043 28.1441 11.0226C29.2549 11.2896 30.2177 11.8234 30.9829 12.6484C31.6247 13.3278 32.069 14.1528 32.3652 15.0506C32.464 15.3418 32.538 15.633 32.5874 15.9484C32.6121 16.0455 32.6121 16.1183 32.6121 16.2153C32.6121 16.3367 32.5874 16.3609 32.464 16.3609C32.1431 16.3609 31.8222 16.3609 31.5013 16.3609C31.0816 16.3609 30.662 16.3609 30.2423 16.3609C30.2177 16.3609 30.1683 16.3367 30.0942 16.3367Z" fill="white"/>
</g>
<mask id="mask8_5_10380" style="mask-type:luminance" maskUnits="userSpaceOnUse" x="0" y="0" width="95" height="42">
<path d="M94.385 0.195312H0.088562V41.7855H94.385V0.195312Z" fill="white"/>
</mask>
<g mask="url(#mask8_5_10380)">
<path d="M8.99764 10.8711C9.7135 10.8711 10.4294 10.8711 11.1699 10.8711C11.6636 10.8711 12.1326 10.9196 12.6016 11.0652C13.4409 11.2836 14.2308 11.6476 14.922 12.1814C15.9094 12.9579 16.5265 13.9527 16.7487 15.166C16.7981 15.4329 16.8228 15.6998 16.8474 15.991C16.8474 16.0638 16.8474 16.1366 16.8474 16.1851C16.8474 16.3307 16.8228 16.355 16.6747 16.355C16.65 16.355 16.6253 16.355 16.5759 16.355C15.8847 16.355 15.1689 16.355 14.4777 16.355C14.4283 16.355 14.379 16.355 14.3296 16.355C14.2555 16.355 14.2062 16.3064 14.2062 16.2579C14.2062 16.0638 14.1815 15.8697 14.1321 15.6756C14.0581 15.2388 13.8853 14.8263 13.6137 14.4623C13.1941 13.9042 12.6016 13.613 11.9351 13.4674C11.6883 13.4189 11.4661 13.3946 11.2193 13.3946C10.4787 13.3946 9.76287 13.3946 9.02233 13.3946C8.97296 13.3946 8.92359 13.3946 8.87422 13.3946C8.82485 13.3946 8.77548 13.4432 8.77548 13.4917C8.77548 13.5645 8.77548 13.6373 8.77548 13.7344C8.77548 14.5108 8.77548 15.3116 8.77548 16.0881C8.77548 16.355 8.77548 16.355 8.50394 16.355C7.81276 16.355 7.0969 16.355 6.40572 16.355C6.35635 16.355 6.2823 16.355 6.23293 16.355C6.18356 16.355 6.15887 16.3307 6.15887 16.2822C6.15887 16.2094 6.15887 16.1366 6.15887 16.0881C6.15887 14.4623 6.15887 12.8123 6.15887 11.1865C6.15887 10.8711 6.15888 10.8954 6.47978 10.8954C7.31907 10.8711 8.15835 10.8711 8.99764 10.8711Z" fill="white"/>
</g>
<mask id="mask9_5_10380" style="mask-type:luminance" maskUnits="userSpaceOnUse" x="0" y="0" width="95" height="42">
<path d="M94.385 0.195312H0.088562V41.7855H94.385V0.195312Z" fill="white"/>
</mask>
<g mask="url(#mask9_5_10380)">
<path d="M39.6907 23.9744C38.4811 23.9744 37.2469 23.9744 36.0373 23.9744C35.9386 23.9744 35.8645 23.9744 35.7658 23.9744C35.7164 23.9744 35.667 23.9502 35.667 23.8774C35.667 23.8046 35.667 23.7318 35.667 23.6833C35.667 21.5965 35.667 19.4854 35.667 17.3986C35.667 17.0347 35.6423 17.0589 36.0126 17.0589C36.6544 17.0589 37.3209 17.0589 37.9627 17.0589C38.0368 17.0589 38.1108 17.0589 38.1849 17.0589C38.2343 17.0589 38.2836 17.0832 38.2836 17.156C38.2836 17.253 38.2836 17.3501 38.2836 17.4472C38.2836 18.6362 38.2836 19.8494 38.2836 21.0384C38.2836 21.4024 38.2589 21.3781 38.6292 21.3781C40.2337 21.3781 41.8629 21.3781 43.4675 21.3781C43.8377 21.3781 43.8131 21.3538 43.8131 21.7178C43.8131 22.3487 43.8131 23.0038 43.8131 23.6347C43.8131 23.7075 43.8131 23.7803 43.8131 23.8774C43.8131 23.9259 43.7637 23.9744 43.7143 23.9744C43.6156 23.9744 43.5415 23.9744 43.4428 23.9744C42.1839 23.9744 40.9249 23.9744 39.6907 23.9744Z" fill="white"/>
</g>
<mask id="mask10_5_10380" style="mask-type:luminance" maskUnits="userSpaceOnUse" x="0" y="0" width="95" height="42">
<path d="M94.385 0.195312H0.088562V41.7855H94.385V0.195312Z" fill="white"/>
</mask>
<g mask="url(#mask10_5_10380)">
<path d="M86.7683 10.8047C88.1013 10.8047 89.4343 10.8047 90.7673 10.8047C90.866 10.8047 90.9401 10.8047 91.0388 10.8047C91.0882 10.8047 91.1376 10.829 91.1376 10.9017C91.1376 10.9503 91.1376 11.0231 91.1376 11.0716C91.1376 11.751 91.1376 12.4304 91.1376 13.1099C91.1376 13.1584 91.1376 13.2312 91.1376 13.2797C91.1376 13.3282 91.0882 13.3768 91.0388 13.3768C90.9648 13.3768 90.8907 13.3768 90.792 13.3768C90.0021 13.3768 89.1875 13.3768 88.3976 13.3768C88.126 13.3768 88.126 13.3768 88.126 13.6437C88.126 14.4202 88.126 15.1966 88.126 15.9731C88.126 16.0459 88.126 16.1187 88.126 16.2158C88.126 16.3371 88.1013 16.3614 87.9779 16.3614C87.4842 16.3614 86.9658 16.3614 86.4721 16.3614C86.2006 16.3614 85.9044 16.3614 85.6328 16.3614C85.5588 16.3614 85.5094 16.3371 85.5094 16.2643C85.5094 16.1672 85.5094 16.0944 85.5094 15.9974C85.5094 15.2694 85.5094 14.5415 85.5094 13.8135C85.5094 13.7407 85.5094 13.668 85.5094 13.5952C85.5094 13.401 85.4847 13.401 85.3119 13.401C84.4973 13.401 83.658 13.401 82.8434 13.401C82.3497 13.401 82.4238 13.4738 82.3991 12.9885C82.3991 12.3819 82.3991 11.7753 82.3991 11.1687C82.3991 11.0959 82.3991 11.0231 82.3991 10.926C82.3991 10.8775 82.4485 10.829 82.4978 10.829C82.5966 10.829 82.6706 10.829 82.7694 10.829C84.1024 10.8047 85.4354 10.8047 86.7683 10.8047Z" fill="white"/>
</g>
<mask id="mask11_5_10380" style="mask-type:luminance" maskUnits="userSpaceOnUse" x="0" y="0" width="95" height="42">
<path d="M94.385 0.195312H0.088562V41.7855H94.385V0.195312Z" fill="white"/>
</mask>
<g mask="url(#mask11_5_10380)">
<path d="M76.7734 20.4981C76.7734 19.4304 76.7734 18.3627 76.7734 17.2708C76.7734 17.0039 76.7487 17.0039 77.0449 17.0039C77.7361 17.0039 78.452 17.0039 79.1432 17.0039C79.1925 17.0039 79.2419 17.0039 79.2913 17.0039C79.3653 17.0039 79.39 17.0524 79.39 17.1252C79.39 17.1738 79.39 17.2466 79.39 17.2951C79.39 19.4304 79.39 21.5415 79.39 23.6768V23.701C79.39 23.9194 79.39 23.9194 79.1432 23.9194C78.4273 23.9194 77.7114 23.9194 76.9709 23.9194C76.9462 23.9194 76.9215 23.9194 76.8721 23.9194C76.7487 23.9194 76.7487 23.8952 76.7487 23.7738C76.7487 23.701 76.7487 23.6282 76.7487 23.5312L76.7734 20.4981Z" fill="white"/>
</g>
<mask id="mask12_5_10380" style="mask-type:luminance" maskUnits="userSpaceOnUse" x="0" y="0" width="95" height="42">
<path d="M94.385 0.195312H0.088562V41.7855H94.385V0.195312Z" fill="white"/>
</mask>
<g mask="url(#mask12_5_10380)">
<path d="M70.9406 20.5042C70.9406 19.4366 70.9406 18.3689 70.9406 17.3255C70.9406 17.0586 70.9159 17.0586 71.2122 17.0586C71.9033 17.0586 72.5698 17.0586 73.261 17.0586C73.3351 17.0586 73.4091 17.0586 73.4585 17.0586C73.5079 17.0586 73.5325 17.0829 73.5325 17.1314C73.5325 17.2284 73.5325 17.3012 73.5325 17.3983C73.5325 19.0726 73.5325 20.7711 73.5325 22.4454C73.5325 22.8579 73.5325 23.2947 73.5325 23.7072C73.5325 23.7557 73.5325 23.8043 73.5325 23.8528C73.5325 23.9498 73.5079 23.9741 73.4091 23.9741C73.3598 23.9741 73.3351 23.9741 73.2857 23.9741C72.5945 23.9741 71.8787 23.9741 71.1875 23.9741C71.1381 23.9741 71.064 23.9741 71.0147 23.9741C70.9653 23.9741 70.9406 23.9498 70.9406 23.9013C70.9406 23.8043 70.9406 23.7315 70.9406 23.6344C70.9406 22.5667 70.9406 21.5233 70.9406 20.5042Z" fill="white"/>
</g>
<mask id="mask13_5_10380" style="mask-type:luminance" maskUnits="userSpaceOnUse" x="0" y="0" width="95" height="42">
<path d="M94.385 0.195312H0.088562V41.7855H94.385V0.195312Z" fill="white"/>
</mask>
<g mask="url(#mask13_5_10380)">
<path d="M64.7779 20.5011C64.7779 21.5445 64.7779 22.6122 64.7779 23.6556C64.7779 23.971 64.8026 23.9468 64.4816 23.9468C63.7905 23.9468 63.0993 23.9468 62.4081 23.9468C62.3587 23.9468 62.2847 23.9468 62.2353 23.9468C62.1859 23.9468 62.1613 23.9225 62.1613 23.874C62.1613 23.8254 62.1613 23.7526 62.1613 23.7041C62.1613 21.5688 62.1613 19.4577 62.1613 17.3224C62.1613 17.0313 62.1366 17.0312 62.4575 17.0312C63.1487 17.0312 63.8398 17.0312 64.531 17.0312C64.5804 17.0312 64.6544 17.0312 64.7038 17.0312C64.7532 17.0312 64.7779 17.0555 64.7779 17.104C64.7779 17.2011 64.7779 17.2739 64.7779 17.371C64.7779 18.4144 64.7779 19.4577 64.7779 20.5011Z" fill="white"/>
</g>
<mask id="mask14_5_10380" style="mask-type:luminance" maskUnits="userSpaceOnUse" x="0" y="0" width="95" height="42">
<path d="M94.385 0.195312H0.088562V41.7855H94.385V0.195312Z" fill="white"/>
</mask>
<g mask="url(#mask14_5_10380)">
<path d="M47.2097 20.5011C47.2097 19.4577 47.2097 18.4386 47.2097 17.3952C47.2097 17.3467 47.2097 17.2982 47.2097 17.2496C47.2097 17.0313 47.2097 17.0312 47.4565 17.0312C48.1724 17.0312 48.8882 17.0312 49.6288 17.0312C49.6781 17.0312 49.7028 17.0312 49.7522 17.0312C49.8263 17.0312 49.8509 17.0798 49.8509 17.1526C49.8509 17.2011 49.8509 17.2496 49.8509 17.2982C49.8509 19.4335 49.8509 21.5688 49.8509 23.7041C49.8509 23.7284 49.8509 23.7526 49.8509 23.8012C49.8509 23.9468 49.8263 23.971 49.6781 23.971C48.9129 23.971 48.1477 23.971 47.4071 23.971H47.3825C47.2837 23.971 47.259 23.9468 47.259 23.8254C47.259 23.7526 47.259 23.6798 47.259 23.5828C47.2097 22.5637 47.2097 21.5445 47.2097 20.5011Z" fill="white"/>
</g>
<mask id="mask15_5_10380" style="mask-type:luminance" maskUnits="userSpaceOnUse" x="0" y="0" width="95" height="42">
<path d="M94.385 0.195312H0.088562V41.7855H94.385V0.195312Z" fill="white"/>
</mask>
<g mask="url(#mask15_5_10380)">
<path d="M8.77548 23.8254C8.70142 23.874 8.65205 23.874 8.578 23.874C7.86214 23.874 7.14627 23.874 6.40572 23.874C6.35635 23.874 6.33167 23.874 6.2823 23.874C6.20824 23.874 6.15887 23.8497 6.15887 23.7769C6.15887 23.7041 6.15887 23.6313 6.15887 23.5585C6.15887 21.5203 6.15887 19.482 6.15887 17.4438C6.15887 17.3467 6.15887 17.2739 6.15887 17.1768C6.15887 17.0555 6.18356 17.0555 6.30698 17.0312C6.35635 17.0312 6.40572 17.0312 6.45509 17.0312C7.12159 17.0312 7.78808 17.0312 8.47926 17.0312C8.55331 17.0312 8.62737 17.0312 8.67674 17.0312C8.72611 17.0312 8.77548 17.0555 8.77548 17.1283C8.77548 17.2011 8.77548 17.2739 8.77548 17.371C8.77548 19.4335 8.77548 21.496 8.77548 23.5585C8.80016 23.6556 8.82485 23.7526 8.77548 23.8254Z" fill="white"/>
</g>
<mask id="mask16_5_10380" style="mask-type:luminance" maskUnits="userSpaceOnUse" x="0" y="0" width="95" height="42">
<path d="M94.385 0.195312H0.088562V41.7855H94.385V0.195312Z" fill="white"/>
</mask>
<g mask="url(#mask16_5_10380)">
<path d="M16.838 20.5603C16.838 21.5795 16.838 22.5743 16.838 23.5934C16.838 23.6662 16.838 23.739 16.838 23.8118C16.838 23.9574 16.8133 23.9817 16.6652 23.9817C15.8999 23.9817 15.1347 23.9817 14.3942 23.9817C14.3695 23.9817 14.3448 23.9817 14.2954 23.9817C14.2461 23.9817 14.2214 23.9332 14.2214 23.9089C14.2214 23.8361 14.2214 23.7633 14.2214 23.7148C14.2214 21.6523 14.2214 19.5655 14.2214 17.5029C14.2214 17.4787 14.2214 17.4544 14.2214 17.4544C14.2214 17.1875 14.2214 17.1875 14.4929 17.1875C15.1841 17.1875 15.8999 17.1875 16.5911 17.1875C16.6405 17.1875 16.6652 17.1875 16.7146 17.1875C16.8133 17.1875 16.838 17.2118 16.8627 17.3331C16.8627 17.4301 16.8627 17.5029 16.8627 17.6C16.838 18.5463 16.838 19.5655 16.838 20.5603Z" fill="white"/>
</g>
<mask id="mask17_5_10380" style="mask-type:luminance" maskUnits="userSpaceOnUse" x="0" y="0" width="95" height="42">
<path d="M94.385 0.195312H0.088562V41.7855H94.385V0.195312Z" fill="white"/>
</mask>
<g mask="url(#mask17_5_10380)">
<path d="M53.4414 20.5011C53.4414 19.4577 53.4414 18.4386 53.4414 17.3952C53.4414 17.2982 53.4414 17.2254 53.4414 17.1283C53.4414 17.0798 53.4661 17.0312 53.5401 17.0312C53.5895 17.0312 53.6389 17.0312 53.6882 17.0312C54.3794 17.0312 55.0953 17.0312 55.7864 17.0312C55.8358 17.0312 55.8605 17.0312 55.9099 17.0312C56.0086 17.0312 56.0333 17.0555 56.0333 17.1526C56.0333 17.2254 56.0333 17.2982 56.0333 17.371C56.0333 19.482 56.0333 21.5931 56.0333 23.6798C56.0333 23.7284 56.0333 23.8012 56.0333 23.8497C56.0333 23.8982 56.0086 23.9468 55.9345 23.9468C55.8852 23.9468 55.8605 23.9468 55.8111 23.9468C55.0953 23.9468 54.3794 23.9468 53.6388 23.9468C53.6142 23.9468 53.5895 23.9468 53.5895 23.9468C53.4414 23.9468 53.4414 23.9225 53.4167 23.8012C53.4167 23.7284 53.4167 23.6556 53.4167 23.5585C53.4414 22.5637 53.4414 21.5445 53.4414 20.5011Z" fill="white"/>
</g>
<mask id="mask18_5_10380" style="mask-type:luminance" maskUnits="userSpaceOnUse" x="0" y="0" width="95" height="42">
<path d="M94.385 0.195312H0.088562V41.7855H94.385V0.195312Z" fill="white"/>
</mask>
<g mask="url(#mask18_5_10380)">
<path d="M88.1113 20.5514V23.6816C88.1113 23.9971 88.1359 23.9728 87.815 23.9728C87.1239 23.9728 86.4574 23.9728 85.7662 23.9728C85.7168 23.9728 85.6428 23.9728 85.5934 23.9728C85.544 23.9728 85.4947 23.9243 85.4947 23.8757C85.4947 23.8029 85.4947 23.7301 85.4947 23.6573C85.4947 21.5706 85.4947 19.4838 85.4947 17.397C85.4947 16.9845 85.4453 17.033 85.8649 17.033C86.5067 17.033 87.1239 17.033 87.7657 17.033C87.8397 17.033 87.9138 17.033 88.0125 17.033C88.0619 17.033 88.1113 17.0815 88.1113 17.1301C88.1113 17.2271 88.1113 17.2999 88.1113 17.397C88.1113 18.4646 88.1113 19.508 88.1113 20.5514Z" fill="white"/>
</g>
<mask id="mask19_5_10380" style="mask-type:luminance" maskUnits="userSpaceOnUse" x="0" y="0" width="95" height="42">
<path d="M94.385 0.195312H0.088562V41.7855H94.385V0.195312Z" fill="white"/>
</mask>
<g mask="url(#mask19_5_10380)">
<path d="M79.3914 13.5921C79.3914 14.3928 79.3914 15.1936 79.3914 15.9943C79.3914 16.0671 79.3914 16.1399 79.3914 16.2127C79.3914 16.3583 79.3667 16.3825 79.2186 16.3825C78.4534 16.3825 77.6882 16.3825 76.9476 16.3825C76.8242 16.3825 76.7995 16.3583 76.7995 16.237C76.7995 16.1884 76.7995 16.1156 76.7995 16.0671V11.1413C76.7995 11.0685 76.7995 10.9957 76.7995 10.9229C76.7995 10.8016 76.8242 10.8016 76.9476 10.7773H76.9723C77.7375 10.7773 78.5028 10.7773 79.2433 10.7773C79.3914 10.7773 79.3914 10.8016 79.4161 10.9229C79.4161 10.9957 79.4161 11.0685 79.4161 11.1413C79.3914 11.9663 79.3914 12.7913 79.3914 13.5921Z" fill="white"/>
</g>
<mask id="mask20_5_10380" style="mask-type:luminance" maskUnits="userSpaceOnUse" x="0" y="0" width="95" height="42">
<path d="M94.385 0.195312H0.088562V41.7855H94.385V0.195312Z" fill="white"/>
</mask>
<g mask="url(#mask20_5_10380)">
<path d="M47.2097 13.5709C47.2097 12.7459 47.2097 11.8966 47.2097 11.0716C47.2097 10.8047 47.2097 10.8047 47.4812 10.8047C48.1724 10.8047 48.8882 10.8047 49.5794 10.8047C49.6288 10.8047 49.7028 10.8047 49.7522 10.8047C49.8016 10.8047 49.8263 10.829 49.8263 10.8775C49.8263 10.9503 49.8263 11.0231 49.8263 11.0716C49.8263 12.7216 49.8263 14.3716 49.8263 16.0217C49.8263 16.3128 49.8263 16.3128 49.53 16.3128C48.8389 16.3128 48.1724 16.3128 47.4812 16.3128C47.4071 16.3128 47.3331 16.3128 47.2837 16.3128C47.2343 16.3128 47.2097 16.2886 47.2097 16.24C47.2097 16.1672 47.2097 16.0944 47.2097 15.9974C47.2097 15.2209 47.2097 14.3959 47.2097 13.5709Z" fill="white"/>
</g>
<mask id="mask21_5_10380" style="mask-type:luminance" maskUnits="userSpaceOnUse" x="0" y="0" width="95" height="42">
<path d="M94.385 0.195312H0.088562V41.7855H94.385V0.195312Z" fill="white"/>
</mask>
<g mask="url(#mask21_5_10380)">
<path d="M38.2589 13.5681C38.2589 14.3932 38.2589 15.2424 38.2589 16.0674C38.2589 16.3344 38.2589 16.3344 38.0121 16.3344C37.3209 16.3344 36.6051 16.3344 35.9139 16.3344C35.8645 16.3344 35.8151 16.3344 35.7658 16.3344C35.7164 16.3344 35.667 16.2858 35.667 16.2373C35.667 16.1645 35.667 16.0917 35.667 15.9946C35.667 14.3689 35.667 12.7431 35.667 11.1174C35.667 10.7534 35.6423 10.7777 36.0126 10.7777C36.6791 10.7777 37.3456 10.7777 37.9874 10.7777C38.0368 10.7777 38.1108 10.7777 38.1602 10.7777C38.2343 10.7777 38.2589 10.8262 38.2589 10.899C38.2589 10.9718 38.2589 11.0446 38.2589 11.1417C38.2589 11.9667 38.2589 12.7674 38.2589 13.5681Z" fill="white"/>
</g>
</g>
</g>
<defs>
<clipPath id="clip0_5_10380">
<rect width="94.2964" height="41.5901" fill="white" transform="translate(0.0846558 0.207031)"/>
</clipPath>
</defs>
</svg>
