<svg width="83" height="20" viewBox="0 0 83 20" fill="none" xmlns="http://www.w3.org/2000/svg">
<g clip-path="url(#clip0_5_10475)">
<path d="M10.2265 0.0898438C4.56221 0.0898438 -0.00195312 4.52166 -0.00195312 10.0444C-0.00195312 11.0217 0.138483 11.9989 0.44276 12.9308C0.630008 12.6808 0.817256 12.4308 0.981098 12.1353C1.70668 11.1126 2.38546 10.0898 3.08764 9.04439L3.60257 8.24894C3.76641 7.99894 3.93025 7.72621 4.09409 7.45348C4.42178 6.93075 4.74946 6.3853 5.05374 5.86257C5.19417 5.58984 5.35801 5.33984 5.52186 5.06712C5.6857 4.79439 5.82613 4.54439 5.96657 4.27166C6.10701 3.99894 6.27085 3.72621 6.38788 3.47621L6.80919 2.65802L6.856 2.61257C7.06665 2.18075 7.62839 1.99893 8.09651 2.20348C8.4242 2.3853 8.63485 2.72621 8.61145 3.11257C8.61145 3.58984 8.51782 4.06712 8.47101 4.54439C8.4242 5.02166 8.4242 5.49893 8.37739 5.99893C8.33057 6.95348 8.33057 7.95348 8.33057 8.93075C8.33057 9.8853 8.37739 10.8626 8.47101 11.7944C8.51782 12.2489 8.61144 12.7035 8.68166 13.158C8.75188 13.5671 8.89232 13.9535 9.07956 14.3171C9.12638 14.4308 9.22 14.5217 9.29022 14.6353C9.33703 14.6808 9.31362 14.658 9.33703 14.658C9.36044 14.658 9.36044 14.658 9.38384 14.658L9.43065 14.6353H9.45406L9.50087 14.6126C9.52428 14.5898 9.54768 14.5671 9.57109 14.5671C9.71153 14.4535 9.85196 14.3171 9.9924 14.1808C10.2967 13.8398 10.5775 13.4762 10.8116 13.1126C11.0691 12.7262 11.3265 12.3171 11.5606 11.8853C12.0521 11.0444 12.4968 10.1808 12.9181 9.31712C13.1288 8.8853 13.3395 8.45348 13.5501 7.99893C13.7608 7.56712 13.9714 7.08984 14.1587 6.68075C14.3459 6.22621 14.8842 5.99893 15.3524 6.18075C15.6566 6.29439 15.8673 6.54439 15.9141 6.86257C15.9141 6.97621 15.9375 7.11257 15.9609 7.27166L16.0077 7.68075C16.0545 7.95348 16.078 8.22621 16.1482 8.49893C16.2418 9.04439 16.3588 9.58984 16.4993 10.1126C16.6397 10.6353 16.8269 11.1808 17.061 11.6808C17.2717 12.1808 17.5759 12.658 17.927 13.1126C17.9972 13.2262 17.9738 13.3626 17.8802 13.4308C17.7866 13.4989 17.6696 13.4989 17.5759 13.4308C17.1078 13.0217 16.6865 12.5671 16.3354 12.0671C15.9843 11.5671 15.68 11.0444 15.3992 10.5217C15.2119 10.158 15.0715 9.79439 14.8842 9.43075C14.7672 9.6353 14.6736 9.86257 14.5566 10.0671C14.1118 10.9762 13.6671 11.8398 13.1288 12.7489C12.8713 13.2262 12.6139 13.658 12.3096 14.1126C12.0053 14.5671 11.6776 15.0217 11.3265 15.408C11.1159 15.658 10.8818 15.8398 10.6244 16.0444C10.5541 16.0898 10.4839 16.158 10.3669 16.1808L10.2031 16.2717L10.1094 16.3171H10.086L10.0392 16.3398H9.9924L9.92218 16.3626C9.87537 16.3853 9.82856 16.408 9.78174 16.408C9.66471 16.4308 9.57109 16.4535 9.45406 16.4535C9.1966 16.4762 8.93913 16.4308 8.72847 16.3626C8.51782 16.2717 8.30717 16.158 8.09651 16.0217C7.81564 15.7717 7.58158 15.4989 7.39433 15.158C7.13687 14.658 6.94962 14.0898 6.83259 13.5444C6.71556 13.0444 6.64534 12.4989 6.57513 11.9989C6.4581 10.9762 6.43469 9.97621 6.41128 8.95348C6.41128 8.47621 6.41128 7.99893 6.41128 7.52166C6.22404 7.86257 6.03679 8.22621 5.84954 8.54439C5.7091 8.81712 5.54526 9.08984 5.38142 9.36257L4.9133 10.1808C4.28134 11.2717 3.62597 12.3626 2.92379 13.4308C2.50249 14.1353 2.03437 14.8171 1.58965 15.4989C4.67924 20.0898 11.0457 21.3626 15.7737 18.3626C20.5017 15.3626 21.8124 9.18075 18.7228 4.58984C16.8972 1.77166 13.6905 0.0898438 10.2265 0.0898438Z" fill="url(#paint0_linear_5_10475)"/>
<path d="M29.3511 13.6126V6.99893H29.1873L27.0105 13.6353H26.4722L24.2954 6.99893H24.1082V13.6353H23.2188V6.33984H24.8104L26.7531 12.158L28.6489 6.33984H30.2639V13.658H29.3511V13.6126Z" fill="url(#paint1_linear_5_10475)"/>
<path d="M31.5723 7.27095V6.31641H32.5553V7.27095H31.5723ZM31.5957 13.6119V7.9755H32.5553V13.6119H31.5957Z" fill="url(#paint2_linear_5_10475)"/>
<path d="M38.3607 11.7717C38.3607 12.8626 37.9394 13.7035 36.0435 13.7035C33.6795 13.7035 33.5391 12.3853 33.5391 10.7717C33.5391 9.15803 33.6795 7.83984 36.0435 7.83984C37.916 7.83984 38.3607 8.68075 38.3607 9.77166H37.4479C37.4479 8.86257 37.1202 8.45348 36.0435 8.45348C34.5689 8.45348 34.4987 9.22621 34.4987 10.7489C34.4987 12.2717 34.5689 13.0444 36.0435 13.0444C37.1436 13.0444 37.4479 12.6126 37.4479 11.7262L38.3607 11.7717Z" fill="url(#paint3_linear_5_10475)"/>
<path d="M40.2097 8.58807C40.6544 8.31534 41.2396 7.9517 41.7779 7.92898C41.8949 7.90625 41.9886 7.90625 42.1056 7.90625C42.246 7.90625 42.3865 7.90625 42.5503 7.92898L42.4801 8.6108C42.3397 8.58807 42.1992 8.58807 42.0588 8.58807C41.9418 8.58807 41.8481 8.58807 41.7077 8.6108C41.1928 8.63352 40.6544 8.99716 40.2565 9.22443V13.6335H39.2969V7.97443H40.0459L40.2097 8.58807Z" fill="url(#paint4_linear_5_10475)"/>
<path d="M47.958 10.8185C47.958 12.4322 47.8175 13.7504 45.4067 13.7504C42.9959 13.7504 42.8555 12.4322 42.8555 10.8185C42.8555 9.2049 42.9959 7.88672 45.4067 7.88672C47.8175 7.88672 47.958 9.2049 47.958 10.8185ZM43.8385 10.8185C43.8385 12.3413 43.9087 13.114 45.4067 13.114C46.9047 13.114 46.9749 12.364 46.9749 10.8185C46.9749 9.27308 46.9047 8.52308 45.4067 8.52308C43.9087 8.52308 43.8385 9.25036 43.8385 10.8185Z" fill="url(#paint5_linear_5_10475)"/>
<path d="M49.7136 14.9308C50.0647 14.9762 50.5329 14.9762 51.0712 14.9762C52.5458 14.9762 52.733 14.5898 52.733 13.0898C52.3117 13.3398 51.7032 13.5898 51.0712 13.6126C48.9412 13.658 48.8242 12.5444 48.8242 10.7717C48.8242 8.99893 48.9412 7.83984 50.9776 7.83984C51.6797 7.83984 52.3117 8.15802 52.8032 8.45348L52.8969 7.95348H53.6458V12.9535C53.6458 14.9762 53.1777 15.5898 51.2584 15.5898C50.6967 15.5898 50.135 15.5444 49.5966 15.4535L49.7136 14.9308ZM52.733 9.02166C52.3117 8.77166 51.7968 8.52166 51.2818 8.52166C49.8775 8.52166 49.7839 9.29439 49.7839 10.8171C49.7839 12.3171 49.8775 13.0217 51.2818 13.0217C51.7968 13.0217 52.3351 12.7489 52.733 12.5444V9.02166Z" fill="url(#paint6_linear_5_10475)"/>
<path d="M58.889 13.6133L58.7954 13.1133C58.3272 13.4087 57.6953 13.7269 57.0165 13.7269C54.8866 13.7724 54.7695 12.5906 54.7695 10.7951C54.7695 9.02237 54.8866 7.86328 56.9931 7.86328C57.6953 7.86328 58.3038 8.18146 58.772 8.45419L58.8656 7.95419H59.6146V13.5906L58.889 13.6133ZM58.6783 8.97692C58.2804 8.77237 57.7421 8.49965 57.2272 8.49965C55.8228 8.49965 55.7292 9.27237 55.7292 10.7951C55.7292 12.3178 55.8228 13.0906 57.2272 13.0906C57.7421 13.0906 58.257 12.8178 58.6783 12.5906V8.97692Z" fill="url(#paint7_linear_5_10475)"/>
<path d="M61.6493 8.47513C62.0706 8.22513 62.6557 7.90694 63.2877 7.88421C64.2708 7.83876 64.7623 8.08876 65.0197 8.49785C65.4645 8.22512 66.073 7.88421 66.7284 7.88421C68.7179 7.83876 68.8583 8.81603 68.8583 10.1797V13.6115H67.8753V10.2251C67.8753 9.06603 67.8051 8.49785 66.5177 8.49785C66.0496 8.49785 65.5581 8.77058 65.1602 8.99785C65.2538 9.40694 65.3006 9.81603 65.2772 10.2479V13.6342H64.458V10.2479C64.458 9.08876 64.3878 8.52058 63.1005 8.52058C62.6557 8.52058 62.1642 8.79331 61.7897 8.99785V13.6342H60.8301V7.99785H61.5791L61.6493 8.47513Z" fill="url(#paint8_linear_5_10475)"/>
<path d="M70.0059 7.27095V6.31641H70.9889V7.27095H70.0059ZM70.0293 13.6119V7.9755H70.9889V13.6119H70.0293Z" fill="url(#paint9_linear_5_10475)"/>
<path d="M73.0262 8.47915C73.4943 8.22915 74.1263 7.91097 74.8051 7.88824C76.935 7.84279 77.052 8.82006 77.052 10.1837V13.6155H76.0924V10.2292C76.0924 9.07006 75.9988 8.50188 74.5944 8.50188C74.0795 8.50188 73.5411 8.77461 73.1432 9.00188V13.6382H72.1836V7.97915H72.9326L73.0262 8.47915Z" fill="url(#paint10_linear_5_10475)"/>
<path d="M78.9011 14.9308C79.2522 14.9762 79.7204 14.9762 80.2587 14.9762C81.7333 14.9762 81.9205 14.5898 81.9205 13.0898C81.4992 13.3398 80.8907 13.5898 80.2587 13.6126C78.1287 13.658 78.0117 12.5444 78.0117 10.7717C78.0117 8.99893 78.1288 7.83984 80.1651 7.83984C80.8672 7.83984 81.4992 8.15802 81.9907 8.45348L82.0844 7.95348H82.8334V12.9535C82.8334 14.9762 82.3652 15.5898 80.4459 15.5898C79.8842 15.5898 79.3225 15.5444 78.7841 15.4535L78.9011 14.9308ZM81.9205 9.02166C81.4992 8.77166 80.9843 8.52166 80.4693 8.52166C79.065 8.52166 78.9714 9.29439 78.9714 10.8171C78.9714 12.3171 79.065 13.0217 80.4693 13.0217C80.9843 13.0217 81.5226 12.7489 81.9205 12.5444V9.02166Z" fill="url(#paint11_linear_5_10475)"/>
</g>
<defs>
<linearGradient id="paint0_linear_5_10475" x1="-1.60016" y1="12.7668" x2="80.8089" y2="-7.67915" gradientUnits="userSpaceOnUse">
<stop stop-color="#21E418"/>
<stop offset="0.3" stop-color="#31B6E9"/>
<stop offset="0.9757" stop-color="#21E418"/>
</linearGradient>
<linearGradient id="paint1_linear_5_10475" x1="-0.69474" y1="16.4082" x2="81.7143" y2="-4.03777" gradientUnits="userSpaceOnUse">
<stop stop-color="#21E418"/>
<stop offset="0.3" stop-color="#31B6E9"/>
<stop offset="0.9757" stop-color="#21E418"/>
</linearGradient>
<linearGradient id="paint2_linear_5_10475" x1="-0.411855" y1="17.5578" x2="81.9974" y2="-2.88827" gradientUnits="userSpaceOnUse">
<stop stop-color="#21E418"/>
<stop offset="0.3" stop-color="#31B6E9"/>
<stop offset="0.9757" stop-color="#21E418"/>
</linearGradient>
<linearGradient id="paint3_linear_5_10475" x1="-0.000369921" y1="19.2138" x2="82.4086" y2="-1.2321" gradientUnits="userSpaceOnUse">
<stop stop-color="#21E418"/>
<stop offset="0.3" stop-color="#31B6E9"/>
<stop offset="0.9757" stop-color="#21E418"/>
</linearGradient>
<linearGradient id="paint4_linear_5_10475" x1="0.212365" y1="20.07" x2="82.6214" y2="-0.37602" gradientUnits="userSpaceOnUse">
<stop stop-color="#21E418"/>
<stop offset="0.3" stop-color="#31B6E9"/>
<stop offset="0.9757" stop-color="#21E418"/>
</linearGradient>
<linearGradient id="paint5_linear_5_10475" x1="0.520524" y1="21.3114" x2="82.9295" y2="0.865506" gradientUnits="userSpaceOnUse">
<stop stop-color="#21E418"/>
<stop offset="0.3" stop-color="#31B6E9"/>
<stop offset="0.9757" stop-color="#21E418"/>
</linearGradient>
<linearGradient id="paint6_linear_5_10475" x1="1.05913" y1="23.4799" x2="83.4681" y2="3.03401" gradientUnits="userSpaceOnUse">
<stop stop-color="#21E418"/>
<stop offset="0.3" stop-color="#31B6E9"/>
<stop offset="0.9757" stop-color="#21E418"/>
</linearGradient>
<linearGradient id="paint7_linear_5_10475" x1="1.19669" y1="24.0345" x2="83.6057" y2="3.58853" gradientUnits="userSpaceOnUse">
<stop stop-color="#21E418"/>
<stop offset="0.3" stop-color="#31B6E9"/>
<stop offset="0.9757" stop-color="#21E418"/>
</linearGradient>
<linearGradient id="paint8_linear_5_10475" x1="1.58257" y1="25.5945" x2="83.9917" y2="5.14857" gradientUnits="userSpaceOnUse">
<stop stop-color="#21E418"/>
<stop offset="0.3" stop-color="#31B6E9"/>
<stop offset="0.9757" stop-color="#21E418"/>
</linearGradient>
<linearGradient id="paint9_linear_5_10475" x1="1.69838" y1="26.0577" x2="84.1071" y2="5.61194" gradientUnits="userSpaceOnUse">
<stop stop-color="#21E418"/>
<stop offset="0.3" stop-color="#31B6E9"/>
<stop offset="0.9757" stop-color="#21E418"/>
</linearGradient>
<linearGradient id="paint10_linear_5_10475" x1="2.11939" y1="27.7557" x2="84.5285" y2="7.30979" gradientUnits="userSpaceOnUse">
<stop stop-color="#21E418"/>
<stop offset="0.3" stop-color="#31B6E9"/>
<stop offset="0.9757" stop-color="#21E418"/>
</linearGradient>
<linearGradient id="paint11_linear_5_10475" x1="2.66097" y1="29.9354" x2="85.07" y2="9.48946" gradientUnits="userSpaceOnUse">
<stop stop-color="#21E418"/>
<stop offset="0.3" stop-color="#31B6E9"/>
<stop offset="0.9757" stop-color="#21E418"/>
</linearGradient>
<clipPath id="clip0_5_10475">
<rect width="82.8571" height="20" fill="white"/>
</clipPath>
</defs>
</svg>
