<svg width="78" height="20" viewBox="0 0 78 20" fill="none" xmlns="http://www.w3.org/2000/svg">
<g clip-path="url(#clip0_5_10495)">
<path d="M19.9228 6.53188C18.86 3.89337 14.4314 3.28964 9.62638 5.01138L7.50067 3.66977C6.83638 3.28964 6.08353 3.75921 6.03924 4.51946V6.71076C1.89853 9.21511 -0.492901 12.7927 0.525671 15.3418C1.69924 18.271 6.99138 18.6735 12.35 16.2586C17.7085 13.799 21.0964 9.46107 19.9228 6.53188ZM8.14281 5.36915L13.2357 8.61138C13.6121 8.83499 13.6564 9.43871 13.2578 9.68468L8.12067 12.8375C7.7221 13.0611 7.16853 12.7928 7.19067 12.2114L7.16853 5.92815C7.19067 5.41387 7.69996 5.10083 8.14281 5.36915ZM5.44138 17.153C3.11638 16.9741 2.18639 15.4313 2.80639 13.307C2.80639 13.6648 2.85067 14.0002 2.98353 14.3132C3.89139 16.5716 7.96567 16.8847 12.1064 15.0064C12.195 14.9617 12.2835 14.917 12.35 14.8946C10.025 16.4151 7.45639 17.3095 5.44138 17.153ZM15.0957 11.4511C13.0364 14.0896 9.29424 15.9232 6.76996 15.7443C4.24567 15.5431 3.8471 13.24 5.92853 10.6014C5.97281 10.5567 6.0171 10.4896 6.06138 10.4449V13.7766C6.03924 14.6263 6.85853 15.0288 7.43424 14.6934L15.0071 9.99772C15.605 9.61759 15.5385 8.74555 14.985 8.41014L11.9071 6.62132C12.7485 6.37536 13.5457 6.2412 14.2542 6.30828C16.7785 6.48716 17.155 8.79027 15.0957 11.4511ZM17.9742 7.62753C17.9521 7.60517 17.9521 7.56045 17.9521 7.53809C17.2214 5.72691 14.4314 5.1679 11.2207 5.99523L10.6892 5.65983C12.2835 4.96666 13.8557 4.6089 15.1621 4.7207C17.1107 4.87722 18.085 6.0176 17.9742 7.62753Z" fill="#7286DF"/>
<path d="M73.0201 12.5899L72.7101 12.3216C72.4223 12.6793 72.1344 12.9476 71.8687 13.1489C71.603 13.3501 71.4037 13.529 71.2487 13.5066C71.1823 13.5066 71.1159 13.4172 71.0494 13.3725C71.0051 13.3278 70.9609 13.2607 70.9609 13.1936C70.9609 13.0818 70.9608 12.9476 70.983 12.8358C71.0051 12.724 71.0273 12.6122 71.0494 12.5004L72.5773 7.31286C72.6216 7.15634 72.6437 7.02218 72.6659 6.88801C72.688 6.75385 72.7101 6.66441 72.7101 6.57497C72.7101 6.28429 72.6437 6.08305 72.5109 5.94888C72.378 5.81472 72.1787 5.74764 71.8909 5.74764C71.3594 5.74764 70.6509 6.06069 69.743 6.64205C68.8573 7.24578 67.8609 8.09547 66.798 9.19112L68.9016 1.58864H68.348C67.9273 1.76752 67.4623 1.87932 66.9973 1.99112C66.5101 2.08056 66.0009 2.14764 65.4473 2.17L65.3366 2.66193H66.023C66.4659 2.66193 66.7537 2.70665 66.8423 2.77373C66.9309 2.84081 66.9751 2.97497 66.9751 3.17621C66.9751 3.24329 66.9751 3.31038 66.953 3.37746C66.953 3.44454 66.9309 3.51162 66.9087 3.5787L64.8716 11.0247C64.0966 12.2321 63.3659 12.7911 62.923 13.0818C62.4801 13.3725 62.0373 13.5737 61.5723 13.5737C60.9966 13.5737 60.5316 13.3054 60.1994 12.9253C59.8673 12.5452 59.6901 12.0085 59.6901 11.3377C59.6901 10.734 59.8009 10.1526 60.0001 9.52652C60.2216 8.90044 60.5094 8.31907 60.908 7.78242C61.218 7.33522 61.5944 6.97746 62.0151 6.70913C62.4359 6.44081 62.8566 6.32901 63.2773 6.32901C63.4766 6.32901 63.6316 6.35137 63.7423 6.41845C63.853 6.48553 63.9194 6.57497 63.9194 6.66441C63.9194 6.73149 63.8751 6.86565 63.7423 7.08926C63.6316 7.31286 63.5651 7.5141 63.5651 7.69298C63.5651 7.93895 63.6316 8.14019 63.7866 8.29671C63.9194 8.45323 64.1187 8.52031 64.3401 8.52031C64.628 8.52031 64.8716 8.40851 65.0709 8.18491C65.2701 7.96131 65.3809 7.69298 65.3809 7.4023C65.3809 6.88802 65.1816 6.48553 64.783 6.17249C64.3844 5.85944 63.853 5.70292 63.1887 5.70292C62.5466 5.70292 61.9487 5.83708 61.3287 6.12777C60.7309 6.39609 60.1773 6.82093 59.6901 7.33522C59.1587 7.91659 58.738 8.56503 58.428 9.28056C58.118 9.99609 57.963 10.7116 57.963 11.4048C57.963 11.5389 57.963 11.6507 57.9851 11.7849C57.3209 12.3439 56.7009 12.7911 56.1694 13.0818C55.5716 13.3948 55.0401 13.6184 54.5751 13.6184C54.1101 13.6184 53.7337 13.4172 53.4901 13.1489C53.2466 12.8806 53.1137 12.5004 53.1137 11.9862C53.1137 11.8296 53.1137 11.6507 53.158 11.4495C53.1801 11.2483 53.2244 11.047 53.2687 10.8234C54.9516 10.6893 56.3023 10.2868 57.343 9.63833C58.3837 8.98988 58.893 8.18491 58.893 7.2905C58.893 6.79857 58.7159 6.39609 58.3616 6.10541C58.0073 5.81472 57.5201 5.68056 56.9001 5.68056C56.2359 5.68056 55.5937 5.83708 54.9516 6.15013C54.3316 6.46317 53.7337 6.91038 53.2023 7.5141C52.6487 8.14019 52.228 8.85572 51.8959 9.63833C51.5859 10.4433 51.4309 11.2259 51.4087 12.0085C51.0544 12.4557 50.7666 12.7911 50.523 12.9924C50.2573 13.2383 50.0359 13.3501 49.8366 13.3501C49.6816 13.3501 49.5709 13.3054 49.4823 13.1936C49.3937 13.0818 49.3494 12.9476 49.3494 12.7464C49.3494 12.657 49.3716 12.5675 49.3716 12.4557C49.3937 12.3439 49.4159 12.2321 49.4601 12.098L50.9437 6.26193H52.4716L52.6266 5.61348H51.1651L51.8959 2.57249H51.3423C50.9216 3.48926 50.4344 4.20479 49.903 4.71907C49.3716 5.23336 48.7516 5.56876 48.0651 5.72528L48.043 5.79236C47.8437 5.6582 47.6001 5.59112 47.3123 5.59112C46.9359 5.59112 46.6259 5.70292 46.4044 5.92652C46.1609 6.15013 46.0501 6.46317 46.0501 6.84329C46.0501 7.1787 46.2273 7.46938 46.5594 7.7377C46.8916 7.98367 47.0466 8.22963 47.0466 8.40851C47.0466 8.65447 46.958 9.01224 46.7587 9.52652C46.5594 10.0408 46.183 10.8458 45.6516 11.9414C45.5409 11.3377 45.3859 10.5104 45.2087 9.50416C44.7659 6.9551 44.3894 5.70292 44.1016 5.68056C44.0573 5.68056 43.6587 5.72528 42.9501 5.83708C42.5073 5.90416 42.0644 5.97124 41.6216 6.01596L41.6659 5.8818H39.1859L38.9201 6.93274C38.8316 6.48553 38.6766 6.12777 38.4109 5.90416C38.1451 5.68056 37.7909 5.56876 37.348 5.56876C36.883 5.56876 36.3737 5.70292 35.8644 6.01596C35.3551 6.30665 34.868 6.73149 34.3809 7.2905C33.783 7.98367 33.2959 8.76628 32.9416 9.66069C32.6094 10.488 32.4323 11.2706 32.4101 12.0309C32.1887 12.3663 32.0337 12.5899 31.9451 12.6793C31.8123 12.8135 31.7016 12.8806 31.613 12.8806C31.5244 12.8806 31.4359 12.8358 31.3916 12.7688C31.3473 12.7017 31.3251 12.5899 31.3251 12.4781C31.3251 12.4334 31.3473 12.3439 31.3694 12.2098C31.3916 12.1203 31.4137 12.0532 31.4359 11.9862L34.1151 1.32031C33.5173 1.45447 32.8751 1.56628 32.2109 1.65572C31.5466 1.74516 30.838 1.8346 30.1073 1.87932V2.32652H30.2623C30.528 2.32652 30.7051 2.37125 30.8159 2.46069C30.9266 2.55013 30.993 2.66193 30.993 2.84081C30.993 2.97497 30.9487 3.26566 30.838 3.71286C30.8159 3.84702 30.7937 3.93646 30.7716 4.00354L29.598 8.56503C29.6201 8.38615 29.6201 8.20727 29.6201 8.02839C29.6201 7.22342 29.443 6.61969 29.0666 6.17249C28.7123 5.74764 28.1809 5.52404 27.4944 5.52404C27.0073 5.52404 26.5201 5.68056 26.0773 6.01596C25.6123 6.32901 25.1251 6.86565 24.6159 7.58118L25.1251 5.74764C24.5273 5.85944 23.8851 5.97125 23.243 6.03833C22.6009 6.12777 21.9144 6.19485 21.1837 6.26193V6.70913C21.538 6.70913 21.7816 6.75385 21.9144 6.84329C22.0473 6.93274 22.1137 7.0669 22.1137 7.2905C22.1137 7.35758 22.0916 7.44702 22.0916 7.58118C22.0694 7.71534 22.0473 7.82715 22.003 7.96131L20.0544 15.9216C19.8994 16.5924 19.7444 17.0172 19.5894 17.1737C19.4344 17.3303 19.213 17.4197 18.903 17.4197C18.8809 17.4197 18.8587 17.4197 18.8366 17.4197C18.8144 17.4197 18.7923 17.4197 18.7701 17.4197V17.9116H23.6194V17.4421C23.1987 17.4197 22.9109 17.3526 22.7559 17.2632C22.623 17.1737 22.5566 16.9948 22.5566 16.7489C22.5566 16.6147 22.5566 16.5029 22.5787 16.3688C22.6009 16.2346 22.623 16.1228 22.6673 15.9886L23.1987 13.9986C23.398 14.1551 23.6194 14.2669 23.8409 14.3563C24.0844 14.4458 24.3501 14.4681 24.6159 14.4681C25.2801 14.4681 25.9223 14.2893 26.5201 13.9091C27.118 13.529 27.6716 12.97 28.203 12.2321C28.5573 11.7178 28.8673 11.1812 29.0887 10.5998L29.0001 10.9352L28.978 11.047C28.7123 12.098 28.5794 12.724 28.5794 12.97C28.5794 13.4619 28.7123 13.8421 28.9559 14.1104C29.1994 14.3787 29.5759 14.5129 30.0409 14.5129C30.5723 14.5129 31.0816 14.3116 31.5466 13.9091C31.8344 13.6632 32.1444 13.3278 32.4544 12.8806C32.543 13.283 32.698 13.6184 32.9416 13.8868C33.318 14.2893 33.8273 14.4905 34.4473 14.4905C35.0673 14.4905 35.6209 14.2893 36.1301 13.9091C36.6394 13.529 37.1044 12.9476 37.5473 12.1427C37.503 12.4334 37.4587 12.657 37.4366 12.8358C37.4144 13.0147 37.3923 13.1712 37.3923 13.283C37.3923 13.6855 37.503 13.9762 37.7466 14.1775C37.9901 14.3787 38.3223 14.4905 38.7873 14.4905C39.3409 14.4905 39.8501 14.2893 40.3151 13.9091C40.7801 13.529 41.2451 12.9029 41.7101 12.098L41.2894 11.7625C41.223 11.852 41.1566 11.9862 41.0459 12.1427C40.6916 12.7017 40.3816 12.9924 40.1601 12.9924C40.0716 12.9924 40.0273 12.9476 39.9609 12.8806C39.9166 12.7911 39.8944 12.7017 39.8944 12.5675C39.8944 12.4334 40.0051 11.9638 40.2266 11.1365V11.1141L41.4444 6.61969C41.533 6.64205 41.5994 6.68677 41.6659 6.75385C41.7987 6.88801 41.9094 7.1787 42.0423 7.60354C42.1751 8.11783 42.3301 8.811 42.5073 9.70541C42.6844 10.5998 42.8394 11.5837 43.0166 12.657C43.1051 13.1712 43.1494 13.5961 43.1937 13.9315C43.238 14.2669 43.2601 14.5576 43.2601 14.7812C43.2601 15.0942 43.1273 15.4073 42.8616 15.7427C42.618 16.0781 42.3744 16.2346 42.1751 16.2346C42.0644 16.2346 41.843 16.1228 41.5109 15.8992C41.1787 15.6756 40.8687 15.5414 40.5809 15.5414C40.2044 15.5414 39.9166 15.6532 39.673 15.8768C39.4294 16.1004 39.3187 16.3911 39.3187 16.7265C39.3187 17.1066 39.4516 17.4197 39.7394 17.6209C40.0273 17.8445 40.4037 17.9563 40.8909 17.9563C41.6216 17.9563 42.3744 17.5762 43.1716 16.816C43.9687 16.0557 44.8323 14.8483 45.8066 13.216C46.648 11.7625 47.3344 10.4657 47.8216 9.32528C48.3087 8.16255 48.5523 7.33522 48.5523 6.82093C48.5523 6.57497 48.508 6.35137 48.4194 6.15013H49.5487L48.0209 12.1874C47.9766 12.3886 47.9323 12.5675 47.9101 12.724C47.888 12.8806 47.8659 13.0371 47.8659 13.1712C47.8659 13.5514 47.9544 13.8421 48.1537 14.0657C48.353 14.2893 48.6187 14.4011 48.9509 14.4011C49.3716 14.4011 49.8366 14.1998 50.3459 13.7973C50.7444 13.4843 51.1209 13.0818 51.5416 12.5675C51.6301 13.0594 51.8073 13.4619 52.0951 13.7526C52.4937 14.1998 53.0694 14.4234 53.8001 14.4234C54.553 14.4234 55.3059 14.2445 56.0809 13.8421C56.7451 13.529 57.4316 13.0594 58.1623 12.4334C58.2951 12.8582 58.4944 13.2383 58.7823 13.529C59.3137 14.1104 60.0223 14.4011 60.8637 14.4011C61.6387 14.4011 62.3694 14.1998 63.0116 13.7973C63.4766 13.5066 63.9194 13.1042 64.3401 12.5899L63.8309 14.4011C63.9637 14.3787 64.0744 14.3787 64.2073 14.3563C64.3401 14.3563 64.4509 14.3563 64.5837 14.3563C64.7166 14.3563 64.5394 14.3563 64.6501 14.3563C64.783 14.3563 65.1816 14.3787 65.3144 14.4011L66.3551 10.7116C66.4659 10.3539 66.643 10.0184 66.8644 9.68305C67.108 9.34764 67.4844 8.96752 67.9937 8.49795C68.5694 7.98367 69.0566 7.58118 69.4994 7.2905C69.9423 6.99982 70.2523 6.86565 70.4737 6.86565C70.6066 6.86565 70.7173 6.91038 70.8059 6.97746C70.8944 7.04454 70.9166 7.15634 70.9166 7.2905C70.9166 7.33522 70.9166 7.4023 70.8944 7.44702C70.8944 7.5141 70.8723 7.60354 70.828 7.71534L69.2559 13.0818C69.2116 13.1936 69.1894 13.283 69.1673 13.3948C69.1451 13.4843 69.1451 13.5737 69.1451 13.6632C69.1451 13.8868 69.2116 14.0657 69.3666 14.1998C69.5216 14.334 69.7209 14.4011 70.0087 14.4011C70.4073 14.4011 70.8723 14.2222 71.3594 13.8868C71.9794 13.7526 72.4887 13.2607 73.0201 12.5899ZM54.9516 7.46938C55.5716 6.79857 56.2359 6.46317 56.9444 6.46317C57.2101 6.46317 57.3873 6.53025 57.5201 6.64205C57.653 6.77621 57.7194 6.9551 57.7194 7.22342C57.7194 7.98367 57.3209 8.65447 56.5016 9.2582C55.7044 9.83957 54.708 10.175 53.5123 10.2197C53.8666 9.05696 54.3316 8.14019 54.9516 7.46938ZM26.5423 9.83957C26.343 10.5775 26.0773 11.293 25.7451 12.0309C25.4794 12.6122 25.1916 13.0594 24.9037 13.3501C24.6159 13.6632 24.328 13.8197 24.0623 13.8197C23.8851 13.8197 23.7523 13.775 23.6416 13.6632C23.5309 13.5514 23.4866 13.4172 23.4866 13.2383C23.4866 13.1489 23.5087 12.9924 23.553 12.7688C23.5973 12.5675 23.6416 12.3216 23.708 12.0532L24.173 10.3315C24.4609 9.23584 24.7709 8.45323 25.103 7.91659C25.4351 7.4023 25.8116 7.13398 26.2101 7.13398C26.3873 7.13398 26.5423 7.22342 26.653 7.4023C26.7637 7.58118 26.8301 7.80478 26.8301 8.11783C26.8301 8.54267 26.7416 9.12404 26.5423 9.83957ZM38.278 9.0346C38.1009 9.68305 37.8794 10.3762 37.5916 11.0917C37.3259 11.7178 37.038 12.2098 36.728 12.5675C36.418 12.9253 36.1301 13.0818 35.8423 13.0818C35.643 13.0818 35.488 12.9924 35.3773 12.8358C35.2666 12.657 35.2001 12.4334 35.2001 12.1427C35.2001 11.6731 35.3109 11.0917 35.5101 10.3986C35.7094 9.72777 35.9973 9.0346 36.3737 8.31907C36.6837 7.7377 36.9494 7.31286 37.193 7.04454C37.4366 6.79857 37.6801 6.66441 37.9237 6.66441C38.1009 6.66441 38.2559 6.73149 38.3444 6.88801C38.4551 7.04454 38.4994 7.24578 38.4994 7.49174C38.5437 7.87187 38.4551 8.36379 38.278 9.0346Z" fill="#7286DF"/>
<path d="M47.0923 17.2663C47.0037 17.2216 46.893 17.1545 46.738 17.0874C46.6051 17.0204 46.4723 16.9756 46.3615 16.9086C46.1844 16.8191 46.0958 16.685 46.0958 16.5508C46.0958 16.3048 46.2508 16.193 46.5387 16.193C46.7601 16.193 46.893 16.2825 46.9151 16.4837V16.6179V16.685H47.358V16.6402C47.358 16.3719 47.3137 16.193 47.203 16.0812C47.0701 15.9694 46.8487 15.9023 46.5387 15.9023C46.2951 15.9023 46.0958 15.9471 45.9408 16.0141C45.7415 16.1259 45.653 16.3048 45.653 16.5508C45.653 16.7744 45.7415 16.9533 45.9187 17.0874C46.0073 17.1545 46.0958 17.1992 46.2287 17.2663L46.5387 17.4005C46.6494 17.4452 46.738 17.4899 46.8044 17.557C46.9151 17.6241 46.9594 17.7359 46.9594 17.87C46.9594 18.0713 46.8708 18.1831 46.7158 18.2278C46.6494 18.2502 46.5608 18.2725 46.4723 18.2725C46.2287 18.2725 46.0958 18.1831 46.0515 18.0042C46.0294 17.9371 46.0294 17.87 46.0294 17.803V17.6688H45.5865V17.7806V17.9818C45.6087 18.1831 45.6973 18.3396 45.8523 18.4291C45.9851 18.5185 46.2065 18.5632 46.4501 18.5632C47.0701 18.5632 47.3801 18.3173 47.3801 17.87C47.4244 17.5794 47.3137 17.4005 47.0923 17.2663Z" fill="#7286DF"/>
<path d="M49.0649 15.9694C48.9099 15.9247 48.777 15.9023 48.5999 15.9023C48.4449 15.9023 48.2899 15.9247 48.1349 15.9694C47.9356 16.0365 47.8027 16.1483 47.7584 16.3048C47.7142 16.3943 47.692 16.5508 47.692 16.7744V17.6464C47.692 17.9818 47.7363 18.2054 47.847 18.3173C47.9799 18.4738 48.2234 18.5632 48.622 18.5632C49.1534 18.5632 49.4413 18.3843 49.4856 18.0489C49.5077 17.9371 49.5077 17.803 49.5077 17.6464V16.7744C49.5077 16.5732 49.4856 16.4166 49.4413 16.3048C49.397 16.1483 49.2642 16.0365 49.0649 15.9694ZM49.0649 17.6241C49.0649 17.7359 49.0649 17.8253 49.0427 17.9148C49.0206 18.0489 48.9542 18.1607 48.8213 18.2054C48.7549 18.2278 48.6663 18.2502 48.5999 18.2502C48.5113 18.2502 48.4227 18.2278 48.3563 18.1831C48.2677 18.1384 48.2234 18.0936 48.1792 18.0266C48.157 17.9595 48.1349 17.8253 48.1349 17.6017V16.7297C48.1349 16.6402 48.1349 16.5508 48.157 16.4837C48.1792 16.3272 48.2456 16.2377 48.4006 16.193C48.467 16.1707 48.5334 16.1483 48.622 16.1483C48.8213 16.1483 48.9542 16.2154 49.0206 16.3272C49.0649 16.3943 49.087 16.5284 49.087 16.7297L49.0649 17.6241Z" fill="#7286DF"/>
<path d="M51.2315 17.6671C51.2315 17.7565 51.2315 17.8459 51.2094 17.913C51.1872 18.159 51.0322 18.2708 50.7665 18.2708C50.5008 18.2708 50.3458 18.1366 50.3458 17.8907V17.6671V15.9453H49.903V17.6894C49.903 17.8459 49.903 17.9577 49.903 18.0248C49.903 18.1366 49.9694 18.2484 50.0358 18.3379C50.1908 18.4944 50.4344 18.5615 50.7665 18.5615C51.0987 18.5615 51.3422 18.4944 51.4972 18.3379C51.5858 18.2484 51.6301 18.159 51.6522 18.0472C51.6522 17.9577 51.6744 17.8683 51.6744 17.7118V15.9677H51.2315V17.6671Z" fill="#7286DF"/>
<path d="M53.7343 18.0472L53.7121 17.7341C53.7121 17.6447 53.69 17.5552 53.69 17.4882C53.6678 17.3764 53.6014 17.3093 53.5128 17.2646C53.4464 17.2422 53.3357 17.2198 53.2028 17.1975C53.4243 17.1528 53.6014 17.108 53.6678 17.0186C53.7564 16.9068 53.8007 16.7726 53.8007 16.5938C53.8007 16.236 53.6457 16.0348 53.3135 15.9677C53.225 15.9453 53.1364 15.9453 53.0478 15.9453H52.7821H52.0514V18.5167H52.4942V17.354H52.8043C52.8928 17.354 52.9593 17.354 53.0257 17.3764C53.1807 17.4211 53.2693 17.5329 53.2914 17.7118L53.3135 17.9577L53.3357 18.1813C53.3357 18.2484 53.3578 18.3155 53.3578 18.3602L53.4021 18.5167H53.845C53.8007 18.4273 53.8007 18.3602 53.7785 18.3155C53.7564 18.2484 53.7564 18.159 53.7343 18.0472ZM52.8043 17.0633H52.4942V16.236H52.8264C53.0257 16.236 53.1585 16.2584 53.225 16.3031C53.3135 16.3478 53.38 16.4596 53.38 16.5938C53.38 16.7279 53.3578 16.8174 53.3357 16.8844C53.2914 16.9739 53.2028 17.0186 53.07 17.041C52.9814 17.0633 52.915 17.0633 52.8043 17.0633Z" fill="#7286DF"/>
<path d="M55.4405 17.7799L55.4183 17.9365C55.3962 18.1601 55.2633 18.2719 55.0198 18.2719C54.8426 18.2719 54.7098 18.2048 54.6433 18.1153C54.6212 18.0706 54.5991 17.9365 54.5991 17.7576V16.7514V16.5501C54.5991 16.5054 54.6212 16.4383 54.6655 16.3936C54.7319 16.2818 54.8648 16.2371 55.0641 16.2371C55.3076 16.2371 55.4183 16.3489 55.4183 16.5501V16.6619V16.729H55.8612V16.6396C55.8612 16.5725 55.8612 16.5054 55.8612 16.4383C55.8169 16.1253 55.5512 15.9688 55.0641 15.9688C54.7098 15.9688 54.4662 16.0582 54.3112 16.2371C54.2448 16.3042 54.2005 16.416 54.2005 16.5278C54.1783 16.6172 54.1783 16.729 54.1783 16.8408V17.8694C54.1783 18.2942 54.3555 18.5178 54.7098 18.5849C54.8205 18.6073 54.9312 18.6073 55.0419 18.6073C55.1748 18.6073 55.3076 18.5849 55.4183 18.5625C55.5069 18.5402 55.5955 18.4955 55.6619 18.4284C55.7726 18.3166 55.8391 18.1824 55.8612 17.9812V17.8247V17.7352H55.4183L55.4405 17.7799Z" fill="#7286DF"/>
<path d="M56.6798 17.3316L57.6098 17.354V17.0633H56.6798V16.236H57.6762V15.9453H56.2591L56.2369 18.5167H57.6984V18.2261H56.6798V17.3316Z" fill="#7286DF"/>
<path d="M60.1782 15.9929C60.0232 15.9481 59.8903 15.9258 59.7132 15.9258C59.5582 15.9258 59.4032 15.9481 59.2482 15.9929C59.0489 16.0599 58.916 16.1717 58.8717 16.3283C58.8274 16.4177 58.8053 16.5742 58.8053 16.7978V17.6699C58.8053 18.0053 58.8496 18.2289 58.9603 18.3407C59.0932 18.4972 59.3367 18.5866 59.7353 18.5866C60.2667 18.5866 60.5546 18.4078 60.5989 18.0724C60.621 17.9606 60.621 17.8264 60.621 17.6699V16.7978C60.621 16.5966 60.5989 16.4401 60.5546 16.3283C60.4882 16.1717 60.3774 16.0599 60.1782 15.9929ZM60.1782 17.6475C60.1782 17.7593 60.1782 17.8488 60.156 17.9382C60.1339 18.0724 60.0674 18.1842 59.9346 18.2289C59.8682 18.2512 59.7796 18.2736 59.7132 18.2736C59.6246 18.2736 59.536 18.2512 59.4696 18.2065C59.381 18.1618 59.3367 18.1171 59.3146 18.05C59.2924 17.9829 59.2703 17.8488 59.2703 17.6252V16.7531C59.2703 16.6637 59.2703 16.5742 59.2924 16.5071C59.3146 16.3506 59.381 16.2612 59.536 16.2165C59.6024 16.1941 59.6689 16.1717 59.7574 16.1717C59.9567 16.1717 60.0896 16.2388 60.156 16.3506C60.2003 16.4177 60.2224 16.5519 60.2224 16.7531L60.1782 17.6475Z" fill="#7286DF"/>
<path d="M60.9967 18.5167H61.4396V17.354H62.3474V17.0633H61.4396V16.236H62.3917V15.9453H60.9967V18.5167Z" fill="#7286DF"/>
<path d="M64.895 17.2898C64.8064 17.245 64.6957 17.178 64.5407 17.1109C64.4079 17.0438 64.275 16.9991 64.1643 16.932C63.9871 16.8426 63.8986 16.7084 63.8986 16.5742C63.8986 16.3283 64.0536 16.2165 64.3414 16.2165C64.5629 16.2165 64.6957 16.3059 64.7179 16.5071V16.6413V16.7084H65.1607V16.6637C65.1607 16.3953 65.1164 16.2165 65.0057 16.1047C64.8729 15.9929 64.6514 15.9258 64.3414 15.9258C64.0979 15.9258 63.8986 15.9705 63.7436 16.0376C63.5443 16.1494 63.4557 16.3283 63.4557 16.5742C63.4557 16.7978 63.5443 16.9767 63.7214 17.1109C63.81 17.178 63.9207 17.2227 64.0314 17.2898L64.3414 17.4239C64.4521 17.4686 64.5407 17.5134 64.6071 17.5804C64.7179 17.6475 64.7621 17.7593 64.7621 17.8935C64.7621 18.0947 64.6736 18.2065 64.5186 18.2512C64.4521 18.2736 64.3636 18.296 64.275 18.296C64.0314 18.296 63.8986 18.2065 63.8543 18.0276C63.8321 17.9606 63.8321 17.8935 63.8321 17.8264V17.6922H63.3893V17.804V18.0053C63.4114 18.2065 63.5 18.363 63.655 18.4525C63.7879 18.5419 63.9871 18.5866 64.2529 18.5866C64.8729 18.5866 65.1829 18.3407 65.1829 17.8935C65.205 17.6028 65.0943 17.4239 64.895 17.2898Z" fill="#7286DF"/>
<path d="M66.8429 17.6671C66.8429 17.7565 66.8429 17.8459 66.8207 17.913C66.7986 18.159 66.6436 18.2708 66.3779 18.2708C66.1121 18.2708 65.9571 18.1366 65.9571 17.8907V17.6671V15.9453H65.5143V17.6894C65.5143 17.8459 65.5143 17.9577 65.5143 18.0248C65.5143 18.1366 65.5807 18.2484 65.6471 18.3379C65.8021 18.4944 66.0457 18.5615 66.3779 18.5615C66.71 18.5615 66.9536 18.4944 67.1086 18.3379C67.1971 18.2484 67.2414 18.159 67.2414 18.0472C67.2414 17.9577 67.2636 17.8683 67.2636 17.7118V15.9677H66.8207L66.8429 17.6671Z" fill="#7286DF"/>
<path d="M68.5719 15.9258C68.2176 15.9258 67.974 16.0152 67.819 16.1941C67.7526 16.2612 67.7083 16.373 67.7083 16.4848C67.6862 16.5742 67.6862 16.686 67.6862 16.7978V17.8264C67.6862 18.2512 67.8633 18.4748 68.2176 18.5419C68.3283 18.5643 68.439 18.5643 68.5497 18.5643C68.6826 18.5643 68.8154 18.5419 68.9262 18.5196C69.0147 18.4972 69.1033 18.4525 69.1697 18.3854C69.2804 18.2736 69.3469 18.1394 69.369 17.9382V17.7817V17.6922H68.9262V17.7817L68.904 17.9382C68.8819 18.1618 68.749 18.2736 68.5054 18.2736C68.3283 18.2736 68.1954 18.2065 68.129 18.1171C68.0847 18.0724 68.0847 17.9382 68.0847 17.7593V16.7531V16.5519C68.0847 16.5071 68.1069 16.4401 68.1512 16.3953C68.2176 16.2835 68.3504 16.2388 68.5497 16.2388C68.7933 16.2388 68.904 16.3506 68.904 16.5519V16.6637V16.7308H69.3469V16.6413C69.3469 16.5742 69.3469 16.5071 69.3469 16.4401C69.3469 16.0823 69.0812 15.9258 68.5719 15.9258Z" fill="#7286DF"/>
<path d="M71.0518 17.8034L71.0297 17.9599C71.0075 18.1835 70.8747 18.2953 70.6311 18.2953C70.454 18.2953 70.3432 18.2282 70.2547 18.1388C70.2325 18.094 70.2104 17.9599 70.2104 17.781V16.7748V16.5736C70.2104 16.5288 70.2325 16.4618 70.2768 16.417C70.3432 16.3052 70.4761 16.2605 70.6754 16.2605C70.919 16.2605 71.0297 16.3723 71.0297 16.5736V16.6854V16.7524H71.4725V16.663C71.4725 16.5959 71.4725 16.5288 71.4725 16.4618C71.4282 16.1487 71.1625 15.9922 70.6754 15.9922C70.3211 15.9922 70.0775 16.0816 69.9225 16.2605C69.8561 16.3276 69.8118 16.4394 69.8118 16.5512C69.7897 16.6406 69.7897 16.7524 69.7897 16.8642V17.8928C69.7897 18.3177 69.9668 18.5413 70.3211 18.6083C70.4318 18.6307 70.5425 18.6307 70.6532 18.6307C70.7861 18.6307 70.919 18.6083 71.0297 18.586C71.1182 18.5636 71.2068 18.5189 71.2732 18.4518C71.384 18.34 71.4504 18.2059 71.4725 18.0046V17.8481V17.7586H71.0297L71.0518 17.8034Z" fill="#7286DF"/>
<path d="M72.2911 17.3551H73.2211V17.0644H72.2911V16.2594H73.2654V15.9688H71.8704L71.8483 18.5402H73.3097V18.2495H72.2911V17.3551Z" fill="#7286DF"/>
<path d="M74.9926 17.2898C74.9041 17.245 74.7934 17.178 74.6384 17.1109C74.5055 17.0438 74.3727 16.9991 74.2619 16.932C74.0848 16.8426 73.9962 16.7084 73.9962 16.5742C73.9962 16.3283 74.1512 16.2165 74.4391 16.2165C74.6605 16.2165 74.7934 16.3059 74.8155 16.5071V16.6413V16.7084H75.2584V16.6637C75.2584 16.3953 75.2141 16.2165 75.1034 16.1047C74.9705 15.9929 74.7491 15.9258 74.4391 15.9258C74.1955 15.9258 73.9962 15.9705 73.8412 16.0376C73.6419 16.1494 73.5534 16.3283 73.5534 16.5742C73.5534 16.7978 73.6419 16.9767 73.8191 17.1109C73.9077 17.178 73.9962 17.2227 74.1291 17.2898L74.4391 17.4239C74.5498 17.4686 74.6384 17.5134 74.7048 17.5804C74.8155 17.6475 74.8598 17.7593 74.8598 17.8935C74.8598 18.0947 74.7712 18.2065 74.6162 18.2512C74.5498 18.2736 74.4612 18.296 74.3727 18.296C74.1291 18.296 73.9962 18.2065 73.9519 18.0276C73.9298 17.9606 73.9298 17.8935 73.9298 17.8264V17.6922H73.4869V17.804V18.0053C73.5091 18.2065 73.5976 18.363 73.7526 18.4525C73.8855 18.5419 74.0848 18.5866 74.3505 18.5866C74.9705 18.5866 75.2805 18.3407 75.2805 17.8935C75.3027 17.6252 75.2141 17.4239 74.9926 17.2898Z" fill="#7286DF"/>
<path d="M77.0063 17.2898C76.9178 17.245 76.807 17.178 76.652 17.1109C76.5192 17.0438 76.3863 16.9991 76.2756 16.932C76.0985 16.8426 76.0099 16.7084 76.0099 16.5742C76.0099 16.3283 76.1649 16.2165 76.4528 16.2165C76.6742 16.2165 76.807 16.3059 76.8292 16.5071V16.6413V16.7084H77.272V16.6637C77.272 16.3953 77.2278 16.2165 77.117 16.1047C76.9842 15.9929 76.7628 15.9258 76.4528 15.9258C76.2092 15.9258 76.0099 15.9705 75.8549 16.0376C75.6556 16.1494 75.567 16.3283 75.567 16.5742C75.567 16.7978 75.6556 16.9767 75.8328 17.1109C75.9213 17.178 76.0099 17.2227 76.1428 17.2898L76.4528 17.4239C76.5635 17.4686 76.652 17.5134 76.7185 17.5804C76.8292 17.6475 76.8735 17.7593 76.8735 17.8935C76.8735 18.0947 76.7849 18.2065 76.6299 18.2512C76.5635 18.2736 76.4749 18.296 76.3863 18.296C76.1428 18.296 76.0099 18.2065 75.9656 18.0276C75.9435 17.9606 75.9435 17.8935 75.9435 17.8264V17.6922H75.5006V17.804V18.0053C75.5228 18.2065 75.6113 18.363 75.7663 18.4525C75.8992 18.5419 76.0985 18.5866 76.3642 18.5866C76.9842 18.5866 77.2942 18.3407 77.2942 17.8935C77.3163 17.6252 77.2056 17.4239 77.0063 17.2898Z" fill="#7286DF"/>
</g>
<defs>
<clipPath id="clip0_5_10495">
<rect width="77.1429" height="20" fill="white" transform="translate(0.238892)"/>
</clipPath>
</defs>
</svg>
