<svg width="81" height="32" viewBox="0 0 81 32" fill="none" xmlns="http://www.w3.org/2000/svg">
<g clip-path="url(#clip0_5_10590)">
<path fillRule="evenodd" clipRule="evenodd" d="M5.62713 31.6445C7.12713 31.6445 7.68269 30.8112 7.68269 30.0056C7.68269 27.9223 4.40491 28.6445 4.40491 27.3945C4.40491 26.8668 4.87713 26.5056 5.5438 26.5056C6.15491 26.5056 6.73824 26.7001 7.15491 27.1723L7.57157 26.6723C7.09935 26.1723 6.46046 25.8945 5.59935 25.8945C4.48824 25.8945 3.68268 26.5334 3.68268 27.4501C3.68268 29.4223 6.96046 28.6445 6.96046 30.0612C6.96046 30.5056 6.65491 31.0334 5.65491 31.0334C4.98824 31.0334 4.34935 30.7556 3.90491 30.2279L3.48824 30.7556C3.96046 31.2834 4.68269 31.6445 5.62713 31.6445ZM17.4049 31.5334V26.589H19.1827V25.9779H14.9605V26.589H16.7105V31.5334H17.4049ZM29.016 31.6445C30.516 31.6445 31.2938 30.7556 31.2938 29.3668V25.9779H30.5994V29.3668C30.5994 30.3945 30.0438 31.0334 29.016 31.0334C27.9882 31.0334 27.4605 30.3945 27.4605 29.3668V25.9779H26.766V29.3668C26.7382 30.7556 27.516 31.6445 29.016 31.6445ZM41.1549 30.9223H39.9605V26.589H41.1549C42.516 26.589 43.2938 27.5612 43.2938 28.7556C43.2938 29.9501 42.4882 30.9223 41.1549 30.9223ZM41.1549 31.5334C42.8771 31.5334 44.016 30.339 44.016 28.7556C44.016 27.1723 42.9049 25.9779 41.1549 25.9779H39.266V31.5334C39.2382 31.5334 41.1549 31.5334 41.1549 31.5334ZM51.7382 31.5334H52.4327V25.9779H51.7382V31.5334ZM62.9327 31.0334C61.6827 31.0334 60.9049 30.0612 60.9049 28.7834C60.9049 27.4779 61.6827 26.5334 62.9327 26.5334C64.1827 26.5334 64.9882 27.4779 64.9882 28.7834C64.9882 30.0612 64.1827 31.0334 62.9327 31.0334ZM62.9327 31.6445C64.5716 31.6445 65.7105 30.4223 65.7105 28.7834C65.7105 27.1445 64.5994 25.9223 62.9327 25.9223C61.266 25.9223 60.1827 27.1445 60.1827 28.7834C60.1827 30.3945 61.2938 31.6445 62.9327 31.6445ZM75.2382 31.6445C76.7382 31.6445 77.2938 30.8112 77.2938 30.0056C77.2938 27.9223 74.016 28.6445 74.016 27.3945C74.016 26.8668 74.4882 26.5056 75.1549 26.5056C75.766 26.5056 76.3493 26.7001 76.766 27.1723L77.1827 26.6723C76.7105 26.1723 76.0716 25.8945 75.2105 25.8945C74.0994 25.8945 73.2938 26.5334 73.2938 27.4501C73.2938 29.4223 76.5716 28.6445 76.5716 30.0612C76.5716 30.5056 76.266 31.0334 75.266 31.0334C74.5993 31.0334 73.9605 30.7556 73.516 30.2279L73.0994 30.7556C73.5716 31.2834 74.266 31.6445 75.2382 31.6445ZM58.3494 14.3668V20.5334H51.8216L27.766 20.589H8.2938C8.21046 20.589 8.15491 20.589 8.07157 20.589C7.34935 20.589 5.51602 20.4501 4.21046 19.0612C2.76602 17.5334 2.73824 15.6723 2.73824 15.3945V7.53342C2.71046 7.14453 2.71046 5.17231 4.21046 3.5612C5.43269 2.22787 7.34935 2.11675 7.90491 2.11675L34.6549 2.08898V13.7556H50.4049V2.20009H58.3494L58.2938 7.64453L65.9049 2.20009H76.4049L65.4605 11.2556L76.516 20.5334H65.6827L58.3494 14.3668ZM67.4049 11.2556L79.8493 0.977864H65.5438L59.5716 5.25564L59.5994 0.977864H49.1827V12.5612H35.9049V0.894531H7.90491C7.21046 0.894531 4.87713 1.03342 3.2938 2.72787C1.5438 4.61675 1.48824 6.86675 1.51602 7.5612V15.3668C1.51602 15.8112 1.57157 18.0612 3.32158 19.8945C4.96046 21.6168 7.18269 21.8112 8.07157 21.8112H28.9882L53.0438 21.7556H59.5438V17.0056L65.2105 21.7556H79.8771C79.9049 21.7556 67.4049 11.2556 67.4049 11.2556Z" fill="#259BFF"/>
<path fillRule="evenodd" clipRule="evenodd" d="M26.5444 3.37153V7.70486H10.6C10.6 7.70486 10.1277 7.67708 9.82219 7.98264C9.54441 8.28819 9.57219 8.70486 9.57219 8.70486V9.28819H26.4889V13.5104H9.59997V14.0937C9.59997 14.0937 9.62775 14.5104 9.87775 14.7604C10.2389 15.066 10.5444 15.0382 10.5444 15.0382H26.5444V19.3715H8.26664C8.26664 19.3715 6.34997 19.5104 5.12775 18.2326C3.96108 16.9826 3.98886 15.4271 3.98886 15.4271V7.53819C3.98886 7.53819 3.87775 5.78819 5.12775 4.42708C6.12775 3.34375 7.96108 3.3993 7.96108 3.3993L26.5444 3.37153ZM27.85 3.34375H33.4333V15.0104H50.6V19.3715H27.85V3.34375ZM66.3222 3.42708H72.9889L63.5444 11.2326L73.1277 19.2882H66.1277L57.1 11.7326L57.0722 19.2882H51.6V3.42708H57.1L57.0722 10.066L66.3222 3.42708Z" fill="#259BFF"/>
</g>
<defs>
<clipPath id="clip0_5_10590">
<rect width="80" height="31.1111" fill="white" transform="translate(0.712891 0.691406)"/>
</clipPath>
</defs>
</svg>
