<svg width="81" height="14" viewBox="0 0 81 14" fill="none" xmlns="http://www.w3.org/2000/svg">
<g clip-path="url(#clip0_5_10597)">
<path d="M0.714172 10.7188V13.5045H8.54751L9.73798 10.7188H0.714172Z" fill="#0099FA"/>
<path d="M0.714172 7.36012V10.1935L10.5475 8.8125L11.8332 5.8125L0.714172 7.36012Z" fill="#0099FA"/>
<path d="M0.714172 3.88746V6.79222L12.7142 3.69699L14.1427 0.339844L0.714172 3.88746Z" fill="#0099FA"/>
<path d="M19.9754 8.48028H22.5945L23.4516 6.40885H19.9516V4.98028H24.0469L24.9754 2.766V2.74219H17.3802V12.1946H24.9992V9.98028H19.9516V8.48028H19.9754Z" fill="white"/>
<path d="M49.9059 2.76397H45.8821V12.2164H48.5012V9.52588H49.8107C50.8583 9.5735 51.8821 9.26397 52.7393 8.64492C53.1202 8.3354 53.4059 7.95445 53.5964 7.52588C53.7869 7.0973 53.8821 6.62111 53.8583 6.14492C53.8821 5.66873 53.8107 5.21635 53.6202 4.78778C53.4298 4.35921 53.1679 3.97826 52.8107 3.66873C51.9774 3.00207 50.9536 2.69254 49.9059 2.76397ZM50.7869 7.12111C50.4774 7.3354 50.0964 7.45445 49.7155 7.43064H48.4774V4.97826H49.6917C50.0964 4.95445 50.4774 5.07349 50.7869 5.28778C50.9059 5.40683 51.025 5.52588 51.0726 5.69254C51.144 5.8354 51.1679 6.00207 51.1679 6.16873C51.1917 6.35921 51.144 6.52588 51.0964 6.69254C51.025 6.85921 50.9298 7.00207 50.7869 7.12111Z" fill="white"/>
<path d="M57.3114 2.76562H54.7161V12.218H60.478L61.4542 9.93229H57.3352V2.76562H57.3114Z" fill="white"/>
<path d="M65.8587 2.69531L62.5016 10.6953L61.8587 12.2191H64.5968L65.2635 10.5286H68.8825L69.573 12.2191H72.3587L68.3587 2.69531H65.8587ZM66.0254 8.48103L67.0968 5.83817L68.1444 8.48103H66.0254Z" fill="white"/>
<path d="M77.6217 2.76562L75.6693 6.21801L73.7408 2.76562H70.7884L74.3598 8.67039V12.218H76.9789V8.64658L80.5503 2.76562H77.6217Z" fill="white"/>
<path d="M32.7145 2.76562L30.5954 8.74182L28.4764 2.76562H25.5716L29.3811 12.2894H31.7859L35.5954 2.76562H32.7145Z" fill="white"/>
<path d="M39.9533 2.59766C39.0009 2.59766 38.0485 2.88337 37.239 3.43099C36.4295 3.97861 35.8104 4.74051 35.4533 5.64527C35.0961 6.55004 34.9771 7.52623 35.1676 8.47861C35.358 9.43099 35.8104 10.3119 36.5009 11.0024C37.1914 11.6929 38.0485 12.1453 39.0009 12.3358C39.9533 12.5262 40.9295 12.431 41.8104 12.05C42.6914 11.6691 43.4533 11.05 44.0009 10.2405C44.5247 9.43099 44.8342 8.47861 44.8342 7.50242C44.8342 6.19289 44.3104 4.9548 43.4057 4.02623C42.5009 3.09766 41.239 2.59766 39.9533 2.59766ZM39.9533 10.0738C39.4533 10.0738 38.9533 9.93099 38.5247 9.64528C38.0961 9.35956 37.7866 8.9548 37.5723 8.47861C37.3818 8.00242 37.3342 7.47861 37.4295 6.97861C37.5247 6.47861 37.7628 6.02623 38.1199 5.66908C38.4771 5.31194 38.9295 5.07385 39.4295 4.9548C39.9295 4.85956 40.4295 4.90718 40.9057 5.09766C41.3818 5.28813 41.7628 5.62147 42.0485 6.05004C42.3342 6.47861 42.4771 6.97861 42.4771 7.47861C42.4771 8.16909 42.2152 8.81194 41.7152 9.28813C41.2866 9.78813 40.6438 10.0738 39.9533 10.0738Z" fill="white"/>
</g>
<defs>
<clipPath id="clip0_5_10597">
<rect width="80" height="13.3333" fill="white" transform="translate(0.620422 0.265625)"/>
</clipPath>
</defs>
</svg>
