<svg width="21" height="20" viewBox="0 0 21 20" fill="none" xmlns="http://www.w3.org/2000/svg">
<g clip-path="url(#clip0_5_7817)">
<path d="M10.5 20C16.0228 20 20.5 15.5228 20.5 10C20.5 4.47715 16.0228 0 10.5 0C4.97715 0 0.5 4.47715 0.5 10C0.5 15.5228 4.97715 20 10.5 20Z" fill="#FFDA44"/>
<path d="M10.5002 19.998C13.7814 19.998 16.6935 18.4176 18.5169 15.9766H2.4834C4.30684 18.4176 7.21891 19.998 10.5002 19.998Z" fill="#0052B4"/>
<path d="M20.5 10C20.5 4.47719 16.0228 0 10.5 0C4.97719 0 0.5 4.47719 0.5 10C0.5 11.1825 0.70582 12.3169 1.08266 13.3699H19.9173C20.2942 12.3169 20.5 11.1825 20.5 10Z" fill="#0052B4"/>
<path d="M7.34312 6.41406L7.88269 8.07469H9.62894L8.21624 9.10117L8.75581 10.7619L7.34312 9.73547L5.93042 10.7619L6.47007 9.10117L5.05737 8.07469H6.80354L7.34312 6.41406Z" fill="#F0F0F0"/>
<path d="M4.34553 4.67383L4.66928 5.67023H5.71705L4.86943 6.28609L5.19318 7.28254L4.34553 6.66668L3.49791 7.28254L3.8217 6.28609L2.97412 5.67023H4.02186L4.34553 4.67383Z" fill="#F0F0F0"/>
</g>
<defs>
<clipPath id="clip0_5_7817">
<rect x="0.5" width="20" height="20" rx="10" fill="white"/>
</clipPath>
</defs>
</svg>
