<svg width="26" height="24" viewBox="0 0 26 24" fill="none" xmlns="http://www.w3.org/2000/svg">
<path d="M25.2453 14.8318L20.4265 0H4.82805L3.71723 3.42634L2.96625 5.74185L0.00927734 14.8318L12.6194 24L19.566 18.9465L22.1475 17.0691L25.2453 14.8318ZM21.2713 15.0821L18.9402 16.7718L12.6194 21.3716L7.62857 17.7575L7.03405 17.3351L2.48125 14.0339L5.25048 5.49153L5.82936 3.70795L6.34565 2.14342H18.8619L22.7264 14.0339L21.2713 15.0821Z" fill="white" fill-opacity="0.5"/>
<path d="M16.695 9.24394L12.6116 12.2009L6.68197 7.89844L6.05615 9.83846L12.6116 14.6103L17.0079 11.4186L19.1826 9.83846L18.5568 7.89844L16.695 9.24394Z" fill="white" fill-opacity="0.5"/>
</svg>
