<svg width="26" height="24" viewBox="0 0 26 24" fill="none" xmlns="http://www.w3.org/2000/svg">
<path d="M25.2453 14.8318L20.4265 0H4.82805L3.71723 3.42634L2.96625 5.74185L0.00927734 14.8318L12.6194 24L19.566 18.9622L25.2453 14.8318ZM21.287 15.0978L19.2061 16.5997L12.6351 21.3716L2.51254 14.0183L5.28177 5.47588L5.86065 3.69231L6.37694 2.12777H18.8932L22.7576 14.0183L21.287 15.0978Z" fill="#76DBA1"/>
<path d="M12.6358 14.3616L6.12728 9.65234L5.50146 11.5767L12.6358 16.7553L17.9082 12.9222L19.7544 11.5767L19.1286 9.65234L16.9069 11.2638L12.6358 14.3616Z" fill="#76DBA1"/>
<path d="M15.6693 9.74346L16.5454 9.102L18.5011 7.69391L17.8753 5.76953L12.6341 9.55571L7.3929 5.76953L6.76709 7.69391L12.6341 11.9651L15.6693 9.74346Z" fill="#76DBA1"/>
</svg>
