<svg width="26" height="24" viewBox="0 0 26 24" fill="none" xmlns="http://www.w3.org/2000/svg">
<path d="M20.4221 0H4.81395L3.70244 3.42634L-0.0078125 14.8318L12.6102 24L25.2282 14.8318L20.4221 0ZM2.497 14.0183L6.3638 2.12777H18.8879L22.7547 14.0183L21.2831 15.0821L12.6258 21.3716L2.497 14.0183Z" fill="#ACE54E"/>
<path d="M12.6822 15.8348L5.63743 10.7344L5.01123 12.6588L12.6822 18.2285L20.3532 12.6588L19.7113 10.7344L12.6822 15.8348Z" fill="#ACE54E"/>
<path d="M19.2401 9.26032L18.6139 7.33594L15.5298 9.57323L12.6806 11.6384L6.73167 7.33594L6.10547 9.26032L12.6806 14.0322L19.2401 9.26032Z" fill="#ACE54E"/>
<path d="M14.3775 8.51024L18.119 5.78795L17.4146 3.64453H7.94325L7.23877 5.78795L12.6867 9.73058L14.3775 8.51024Z" fill="#ACE54E"/>
</svg>
