<svg width="26" height="24" viewBox="0 0 26 24" fill="none" xmlns="http://www.w3.org/2000/svg">
<path d="M22.0941 5.22417V5.20858L20.4097 0H4.81265L3.68966 3.4308L2.941 5.73879L2.00518 8.63938L1.72444 9.51267L-0.00683594 14.8304L12.6112 24L19.5518 18.9474L22.1409 17.076L25.2291 14.8304L22.0941 5.22417ZM21.2519 15.0955L20.1289 15.9064H20.1133L19.1775 16.5926L12.5956 21.3801L7.01182 17.3255L2.4575 14.0195L5.23377 5.47368L5.81086 3.68031L6.32556 2.10526H18.85L22.718 14.0039L21.2519 15.0955Z" fill="#83D1FC"/>
<path d="M16.6037 9.05815L16.6349 9.01137L16.7129 8.87102L17.4304 7.63905H14.2018L13.7651 6.87492L12.5953 4.83203L12.0182 5.84568L11.4879 6.75016L10.9732 7.63905H7.74463L8.4621 8.87102L8.64925 9.1985L9.36672 10.4305L9.16396 10.7736L9.07038 10.9451L8.82083 11.3817L7.74463 13.2219H10.9732L12.5953 16.0133L14.2018 13.2219H17.4304L16.3698 11.3817L16.1202 10.9451L16.0422 10.8203L15.8239 10.4305L15.9955 10.1186L16.6037 9.05815Z" fill="#83D1FC"/>
</svg>
