<svg width="26" height="24" viewBox="0 0 26 24" fill="none" xmlns="http://www.w3.org/2000/svg">
<path d="M25.2472 14.8265L20.4277 -0.00390625H4.8307L0.0112305 14.8265L12.6292 23.9961L19.5699 18.9435L25.2472 14.8265ZM18.8836 2.11695L22.7517 14.0156L12.6292 21.3762L2.50675 14.0156L5.28302 5.46978L6.37481 2.11695H18.8836Z" fill="#5E78FF"/>
<path d="M8.00095 12.0372L8.95238 13.6902L9.90379 12.0372H11.8066L10.8552 10.3842L11.8066 8.73115H9.90379L8.95238 7.07812L8.00095 8.73115H6.08252L7.04954 10.3842L6.08252 12.0372H8.00095Z" fill="#5E78FF"/>
<path d="M13.3804 12.0372H15.2832L16.2346 13.6902L16.453 13.3159L17.186 12.0372H17.4668H19.1045L18.1531 10.3842L19.1045 8.73115H17.186L16.2346 7.07812L15.2832 8.73115H14.6749H13.3804L14.3318 10.3842L13.3804 12.0372Z" fill="#5E78FF"/>
</svg>
