<svg width="26" height="24" viewBox="0 0 26 24" fill="none" xmlns="http://www.w3.org/2000/svg">
<path d="M20.4433 -0.00390625H4.84631L2.97466 5.73489L2.2728 7.87134L0.0112305 14.8265L12.6292 23.9961L19.5699 18.9435L25.2472 14.8265L20.4433 -0.00390625ZM2.52236 14.0156L5.29862 5.46978L6.39041 2.11695H18.8992L22.7673 14.0156L12.6448 21.3762L2.52236 14.0156Z" fill="#AD7BFF"/>
<path d="M13.396 11.0203L14.3162 12.6266L13.396 14.2172H15.2364L16.1723 15.8079L17.0925 14.2172H18.9329L18.0127 12.6266L18.9329 11.0203H17.0925L16.1723 9.42969L15.2364 11.0203H13.396Z" fill="#AD7BFF"/>
<path d="M10.0525 11.0203L9.13225 9.42969L8.21203 11.0203H6.37158L7.2918 12.6266L6.37158 14.2172H8.21203L9.13225 15.8079L10.0525 14.2172H11.9085L10.9727 12.6266L11.9085 11.0203H10.0525Z" fill="#AD7BFF"/>
<path d="M11.736 8.1664L12.6718 9.75704L13.592 8.1664H15.4324L14.5122 6.56016L15.4324 4.96952H13.592L12.6718 3.36328L11.736 4.96952H9.89551L10.8157 6.56016L9.89551 8.1664H11.736Z" fill="#AD7BFF"/>
</svg>
