<svg width="26" height="24" viewBox="0 0 26 24" fill="none" xmlns="http://www.w3.org/2000/svg">
<path d="M20.4198 0H4.8191L-0.00634766 14.8341L12.6117 24L25.2296 14.8341L20.4198 0ZM2.49226 14.0377L6.36512 2.13923H18.8894L22.7623 14.0377L12.6273 21.3923L2.49226 14.0377Z" fill="#E100E6"/>
<path d="M14.71 7.58749L15.7563 5.77617H13.6637L12.6174 3.96484L11.5867 5.77617H9.49414L10.5404 7.58749L9.49414 9.39881H11.5867L12.6174 11.1945L13.6637 9.39881H15.7563L14.71 7.58749Z" fill="#E100E6"/>
<path d="M12.5762 14.286L6.17348 9.64839L5.54883 11.5846L12.5762 16.6751L19.7128 11.5066L19.0882 9.57031L12.5762 14.286Z" fill="#E100E6"/>
</svg>
