<svg width="26" height="24" viewBox="0 0 26 24" fill="none" xmlns="http://www.w3.org/2000/svg">
<path d="M20.4198 0H4.8191L-0.00634766 14.8341L12.6117 24L25.2296 14.8341L20.4198 0ZM2.49226 14.0221L6.36512 2.12362H18.8894L22.7623 14.0221L12.6273 21.3767L2.49226 14.0221Z" fill="#D4A500"/>
<path d="M11.6728 7.72727L12.6254 9.36682L13.5623 7.72727H15.4675L14.5149 6.08771L15.4675 4.44815H13.5623L12.6254 2.80859L11.6728 4.44815H9.7832L10.7358 6.08771L9.7832 7.72727H11.6728Z" fill="#D4A500"/>
<path d="M19.4393 10.9258L12.6306 15.8757L5.80629 10.9258L5.18164 12.862L12.6306 18.2648L20.0796 12.862L19.4393 10.9258Z" fill="#D4A500"/>
<path d="M18.9793 9.52218L18.3546 7.58594L12.6234 11.7395L6.89223 7.58594L6.26758 9.52218L12.6234 14.1442L18.9793 9.52218Z" fill="#D4A500"/>
</svg>
