<svg width="26" height="24" viewBox="0 0 26 24" fill="none" xmlns="http://www.w3.org/2000/svg">
<path d="M20.4198 0H4.81908L-0.00634766 14.8341L12.6116 24L25.2296 14.8341L20.4198 0ZM2.49226 14.0221L6.3651 2.12362H18.8894L22.7622 14.0221L12.6272 21.3767L2.49226 14.0221Z" fill="#F96B2F"/>
<path d="M14.4042 7.44719L12.6083 4.32422L10.8124 7.44719H7.20508L9.00096 10.5702L7.20508 13.6931H10.8124L12.6083 16.8161L14.4042 13.6931H18.0116L16.2157 10.5702L18.0116 7.44719H14.4042ZM15.5286 12.2409H13.5765L12.6083 13.9273L11.6401 12.2409H9.68808L10.6563 10.5545L9.68808 8.86814H11.6401L12.6083 7.18173L13.5765 8.86814H15.5286L14.5604 10.5545L15.5286 12.2409Z" fill="#F96B2F"/>
</svg>
