<svg width="24" height="25" viewBox="0 0 24 25" fill="none" xmlns="http://www.w3.org/2000/svg">
<path d="M2.86959 5.41765H4.3982C4.19657 5.09855 4.06351 4.74036 4.02557 4.36154C3.90437 3.15088 4.54196 2.06561 5.62743 1.58446C6.62518 1.14219 7.74642 1.32298 8.55381 2.05527L10.484 3.80459C10.8599 3.39345 11.4003 3.13505 12 3.13505C12.6008 3.13505 13.1421 3.39427 13.518 3.80668L15.4507 2.05507C16.2594 1.32278 17.3802 1.14268 18.3775 1.5847C19.4627 2.0659 20.1004 3.15154 19.9788 4.36215C19.9408 4.74069 19.8078 5.09871 19.6062 5.41765H21.1304C21.8869 5.41765 22.5 6.03083 22.5 6.7872V8.84154C22.5 9.21971 22.1934 9.52634 21.8152 9.52634H2.18479C1.80663 9.52634 1.5 9.21975 1.5 8.84154V6.7872C1.50004 6.03083 2.11318 5.41765 2.86959 5.41765ZM14.0544 5.1894V5.41765H17.2758C18.127 5.41765 18.7969 4.62416 18.5843 3.73798C18.4906 3.34772 18.209 3.01504 17.8446 2.84663C17.3443 2.61538 16.7901 2.68962 16.3699 3.06996L14.0538 5.16922C14.0539 5.17598 14.0544 5.18263 14.0544 5.1894ZM5.38446 4.17972C5.43548 4.89146 6.0784 5.41773 6.79195 5.41773H9.94567V5.18948C9.94567 5.1814 9.94617 5.1734 9.94625 5.16532C9.42158 4.6897 8.28336 3.65808 7.66603 3.0985C7.31518 2.78051 6.82427 2.63208 6.37047 2.76743C5.71927 2.96168 5.33684 3.51547 5.38446 4.17972Z" fill="white"/>
<path d="M21.1318 10.895V20.9385C21.1318 21.6949 20.5187 22.308 19.7623 22.308H13.371V10.895H21.1318Z" fill="white"/>
<path d="M10.6318 10.895V22.308H4.24055C3.48414 22.308 2.871 21.6949 2.871 20.9385V10.895H10.6318Z" fill="white"/>
</svg>
