<svg width="24" height="25" viewBox="0 0 24 25" fill="none" xmlns="http://www.w3.org/2000/svg">
<path fillRule="evenodd" clipRule="evenodd" d="M18.6283 3.70838C18.6283 3.8018 16.1099 7.95801 16.0193 8.01386C15.9482 8.05785 15.6195 7.60451 13.5631 4.6254L12.8869 3.646H15.7577C17.3365 3.646 18.6283 3.67412 18.6283 3.70838ZM11.395 4.09904C11.2237 4.34816 10.5236 5.34444 9.83943 6.3129L8.59543 8.07393L7.9006 6.8896C6.31567 4.18814 6.07177 3.76353 6.07177 3.70617C6.07177 3.67312 7.33968 3.646 8.88925 3.646H11.7067L11.395 4.09904ZM5.30723 4.57518C5.60095 5.03545 7.57855 8.4676 7.57855 8.51702C7.57855 8.54515 6.28724 8.56815 4.70894 8.56815H1.83922L1.90471 8.34213C1.94067 8.21788 2.06493 7.98051 2.18086 7.81476C2.42264 7.4689 5.07599 4.34916 5.12842 4.34916C5.14751 4.34916 5.22797 4.45092 5.30723 4.57518ZM20.9009 5.98151C22.342 7.67091 22.5981 8.00793 22.6949 8.34213L22.7604 8.56815H19.8823C18.2994 8.56815 17.0193 8.53169 17.0378 8.48719C17.1477 8.22139 19.4744 4.44961 19.5284 4.44961C19.5646 4.44961 20.1822 5.13892 20.9009 5.98151ZM13.6417 6.61596C14.3521 7.64078 14.9127 8.50015 14.8873 8.52546C14.8619 8.55077 13.6594 8.55951 12.215 8.54475L9.5888 8.51793L10.8982 6.65956C11.6184 5.63746 12.2397 4.79025 12.2788 4.77689C12.318 4.76343 12.9312 5.59105 13.6417 6.61596ZM22.7854 9.65424C22.9347 9.89573 21.9694 11.2121 17.7291 16.5499C15.1629 19.7805 13.0534 22.414 13.0414 22.402C13.0115 22.372 16.4086 9.77016 16.4761 9.66087C16.5447 9.54987 22.7169 9.54334 22.7854 9.65424ZM15.3152 9.64801C15.3191 9.80894 12.3471 20.8206 12.2998 20.8206C12.2525 20.8206 9.28051 9.80894 9.28443 9.64801C9.28543 9.60663 10.6423 9.57267 12.2998 9.57267C13.9573 9.57267 15.3142 9.60663 15.3152 9.64801ZM8.12351 9.66087C8.19101 9.77016 11.5881 22.372 11.5582 22.402C11.5462 22.414 9.43672 19.7805 6.87047 16.5499C2.63018 11.2121 1.66493 9.89573 1.81421 9.65424C1.88271 9.54334 8.0549 9.54987 8.12351 9.66087Z" fill="white"/>
</svg>
