<svg width="24" height="25" viewBox="0 0 24 25" fill="none" xmlns="http://www.w3.org/2000/svg">
<path fillRule="evenodd" clipRule="evenodd" d="M19.0274 3.77059C19.9146 4.0092 20.5195 4.36807 21.2177 5.0701C22.2338 6.09191 22.6905 7.16102 22.7889 8.74884C22.8952 10.463 22.2261 12.2769 20.7473 14.283C19.9008 15.4313 17.7119 17.6213 16.2438 18.7885C15.0269 19.7561 12.5257 21.4648 12.3262 21.4648C12.2001 21.4648 10.987 20.7436 10.987 20.6687C10.987 20.6468 11.154 20.438 11.358 20.2049C12.2067 19.2351 12.7119 17.8357 12.7119 16.4543C12.7119 12.6518 9.13484 9.88202 5.44264 10.8255C4.72401 11.0091 3.68545 11.5563 3.15007 12.0335C2.89347 12.2622 2.67358 12.4357 2.66151 12.419C2.64943 12.4022 2.54438 12.1667 2.42807 11.8956C1.91964 10.7109 1.74673 9.82559 1.81351 8.74884C1.91191 7.16061 2.36877 6.09125 3.38474 5.07084C4.47693 3.97396 5.48017 3.59498 7.12434 3.65822C7.90917 3.68845 8.19493 3.7379 8.79553 3.94735C9.71031 4.26646 10.624 4.8172 11.514 5.58593C11.8967 5.91654 12.2519 6.18702 12.3032 6.18702C12.3544 6.18702 12.6689 5.9494 13.0018 5.65887C14.6409 4.22942 16.045 3.63498 17.756 3.64615C18.2118 3.64911 18.784 3.70513 19.0274 3.77059ZM8.19427 11.4907C9.89684 11.9358 11.3371 13.3541 11.8588 15.099C12.0599 15.7714 12.0599 17.1373 11.8588 17.8096C11.3271 19.588 9.90185 20.9788 8.15649 21.4225C7.58415 21.5679 6.41721 21.5852 5.79575 21.4574C5.5564 21.4081 5.04632 21.2185 4.66232 21.0361C4.09589 20.7669 3.83979 20.5785 3.30523 20.0373C2.20301 18.9215 1.72505 17.6799 1.81516 16.1668C1.89557 14.8179 2.34807 13.8301 3.34244 12.8328C4.02008 12.1532 4.78019 11.7164 5.68577 11.4862C6.29795 11.3306 7.5908 11.3329 8.19427 11.4907ZM6.19001 14.5718L5.83049 15.3588L4.85625 15.46C4.32038 15.5157 3.74598 15.5817 3.57965 15.6067L3.2773 15.6522L3.785 16.1148C4.06427 16.3692 4.49131 16.7648 4.73403 16.9939L5.17544 17.4103L4.92204 18.6331C4.78274 19.3056 4.68064 19.8677 4.69518 19.8822C4.70971 19.8968 5.20583 19.6305 5.79764 19.2904C6.38945 18.9503 6.88885 18.6721 6.90741 18.6721C6.92597 18.6721 7.43211 18.9498 8.03205 19.2893C8.63199 19.6287 9.13098 19.8967 9.14084 19.8848C9.1507 19.8729 9.04523 19.3115 8.90658 18.6374L8.65433 17.4117L9.59482 16.5246C10.112 16.0367 10.4798 15.6334 10.412 15.6283C10.3442 15.6232 9.77183 15.5575 9.13994 15.4822L7.99107 15.3455L7.4561 14.1735L6.92113 13.0016L6.73533 13.3932C6.63307 13.6086 6.38772 14.139 6.19001 14.5718Z" fill="#FFCF23"/>
</svg>
