<svg width="24" height="25" viewBox="0 0 24 25" fill="none" xmlns="http://www.w3.org/2000/svg">
<path fillRule="evenodd" clipRule="evenodd" d="M14.5955 1.35547C18.1143 1.99396 20.8619 4.759 21.479 8.28286C21.5773 8.84378 21.5995 10.0342 21.5995 14.7319C21.5995 21.2293 21.6201 20.9985 20.9861 21.6324C20.3455 22.2731 20.6937 22.2459 13.1455 22.2459C5.56215 22.2459 5.93922 22.2763 5.29261 21.6111C4.69303 20.9941 4.69147 20.9806 4.69147 16.3276V12.2448L3.5487 12.2181C2.47068 12.1928 2.39402 12.1801 2.19441 11.9924L1.98289 11.7933V8.54115V5.28898L1.55346 5.00565C0.436709 4.26859 0.270337 2.77805 1.20102 1.84737C2.11545 0.932936 3.61247 1.08306 4.33796 2.16197C4.98178 3.11941 4.69656 4.40968 3.70489 5.02617L3.29401 5.28159L3.31559 8.03884L3.33718 10.796L4.00226 10.8196L4.66742 10.8433L4.71404 9.62951C4.74917 8.71746 4.81196 8.21777 4.96667 7.61909C5.81232 4.3482 8.41814 1.94332 11.7525 1.35654C12.5867 1.2097 13.7897 1.20921 14.5955 1.35547ZM12.0374 4.1183C11.2287 4.29239 10.4522 4.73774 9.78531 5.40996C8.48889 6.71673 8.23157 8.04639 9.27511 8.04639C9.64832 8.04639 9.74878 7.94937 10.0978 7.25163C10.5861 6.27539 11.5313 5.58101 12.6272 5.39322C14.051 5.14936 15.5767 5.94782 16.2128 7.26952C16.5294 7.9277 16.6467 8.04639 16.9803 8.04639C17.3609 8.04639 17.544 7.93296 17.6488 7.63231C17.8168 7.15018 17.2768 6.11173 16.4477 5.32271C15.2363 4.16976 13.7211 3.75601 12.0374 4.1183ZM12.6904 6.93464C12.2701 7.35488 12.546 8.04639 13.134 8.04639C13.5355 8.04639 13.8021 7.78103 13.8021 7.38139C13.8021 6.79971 13.1053 6.51966 12.6904 6.93464ZM7.91762 9.63977L7.68731 9.83774L7.66351 12.9434C7.65038 14.6514 7.66006 16.1311 7.68502 16.2314C7.70997 16.3318 7.81076 16.4887 7.90901 16.5802C8.08449 16.7437 8.17625 16.7466 13.1405 16.744C16.983 16.7421 18.2245 16.7175 18.3236 16.6414C18.6308 16.4055 18.6447 16.2501 18.6447 13.0522V9.92154L18.4048 9.68163L18.1649 9.44171H13.1564H8.14794L7.91762 9.63977ZM17.2494 13.1352V15.4334H16.3465H15.4437V13.1352V10.837H16.3465H17.2494V13.1352ZM14.0484 13.1352V15.4334H13.1455H12.2426V13.1352V10.837H13.1455H14.0484V13.1352ZM10.8473 13.1352V15.4334H9.94446H9.0416V13.1352V10.837H9.94446H10.8473V13.1352ZM9.2431 18.3435C8.98218 18.6043 8.98086 18.9651 9.23965 19.266L9.43779 19.4963H13.1455H16.8532L17.0513 19.266C17.3101 18.9651 17.3088 18.6043 17.0479 18.3435L16.8465 18.142H13.1455H9.44452L9.2431 18.3435Z" fill="white"/>
</svg>
