<svg width="20" height="13" viewBox="0 0 20 13" fill="none" xmlns="http://www.w3.org/2000/svg">
<path d="M18.7987 4.46315L17.8504 4.58887L18.3772 4.27457C18.5037 4.31647 18.6512 4.33743 18.8198 4.33743C19.3045 4.33743 19.705 4.10694 19.705 3.81359C19.705 3.52024 19.3045 3.28975 18.8198 3.28975C18.3351 3.28975 17.9347 3.52024 17.9347 3.81359C17.9347 3.8974 17.9768 3.98122 18.04 4.06503L17.5132 4.37933L15.1528 1.61347C15.1528 1.61347 12.2866 0.796285 9.98946 0.796285C7.69231 0.775331 4.82613 1.61347 4.82613 1.61347L2.48683 4.35838L2.00211 4.06503C2.06533 3.98122 2.10748 3.8974 2.10748 3.81359C2.10748 3.52024 1.70706 3.28975 1.22234 3.28975C0.737619 3.28975 0.337197 3.52024 0.337197 3.81359C0.337197 4.10694 0.737619 4.33743 1.22234 4.33743C1.36986 4.33743 1.51739 4.31647 1.66491 4.27457L2.21286 4.58887L1.20126 4.44219C0.547945 4.44219 0 4.96603 0 5.63654V6.41182V6.95662V10.1625C0 10.4559 0.105374 10.7282 0.273973 10.9378V12.9284H2.99262V11.3988H17.0074V12.9284H19.726V10.9378C19.8946 10.7282 20 10.4559 20 10.1625V6.95662V6.41182V5.63654C20 4.98699 19.4731 4.46315 18.7987 4.46315ZM0.864067 5.6994C2.08641 5.57368 3.3509 5.86703 3.3509 5.86703C3.3509 5.86703 3.73024 6.53755 4.00421 7.35473C1.85458 7.27092 1.13804 6.03466 0.864067 5.6994ZM13.6565 10.2044H6.30137L5.6059 8.21383H14.3519L13.6565 10.2044ZM9.88409 4.56792C6.72287 4.56792 4.65753 5.00794 4.36249 5.0708C4.15174 4.90317 3.89884 4.81936 3.62487 4.81936L2.90832 4.71459L5.14225 2.07445C5.14225 2.07445 7.83983 1.29917 9.98946 1.29917C12.1391 1.29917 14.8367 2.07445 14.8367 2.07445L17.0706 4.71459L16.3541 4.81936C16.0801 4.81936 15.8061 4.92412 15.5954 5.09175C15.5954 5.0708 13.3193 4.56792 9.88409 4.56792ZM15.9958 7.35473C16.2698 6.51659 16.6491 5.86703 16.6491 5.86703C16.6491 5.86703 17.9136 5.57368 19.1359 5.6994C18.883 6.03466 18.1665 7.27092 15.9958 7.35473Z" fill="#FFCF23"/>
</svg>
