<svg width="20" height="18" viewBox="0 0 20 18" fill="none" xmlns="http://www.w3.org/2000/svg">
<path d="M9.64251 6.95801C9.24507 7.04817 8.95437 7.38916 8.92822 7.79587C8.95437 8.20257 9.24507 8.54356 9.64251 8.63372V6.95801Z" fill="#FFCF23"/>
<path d="M5.71533 9.04618C5.71533 11.6062 7.63783 13.689 10.001 13.689C12.3643 13.689 14.2868 11.6062 14.2868 9.04618C14.2868 6.48618 12.3643 4.40332 10.001 4.40332C7.63783 4.40332 5.71533 6.48618 5.71533 9.04618ZM8.21533 7.79618C8.24981 6.99561 8.85046 6.33354 9.6439 6.22153V6.18903C9.6439 5.99179 9.8038 5.83189 10.001 5.83189C10.1983 5.83189 10.3582 5.99179 10.3582 6.18903V6.22153C11.1516 6.33354 11.7523 6.99561 11.7868 7.79618C11.7868 7.99342 11.6269 8.15332 11.4296 8.15332C11.2324 8.15332 11.0725 7.99342 11.0725 7.79618C11.0463 7.38947 10.7556 7.04848 10.3582 6.95832V8.72153C11.1516 8.83354 11.7523 9.49561 11.7868 10.2962C11.7523 11.0967 11.1516 11.7588 10.3582 11.8708V11.9033C10.3582 12.1006 10.1983 12.2605 10.001 12.2605C9.8038 12.2605 9.6439 12.1006 9.6439 11.9033V11.8708C8.85046 11.7588 8.24981 11.0967 8.21533 10.2962C8.21533 10.0989 8.37523 9.93903 8.57247 9.93903C8.76972 9.93903 8.92962 10.0989 8.92962 10.2962C8.95576 10.7029 9.24646 11.0439 9.6439 11.134V9.37082C8.85046 9.25881 8.24981 8.59675 8.21533 7.79618Z" fill="#FFCF23"/>
<path d="M19.3763 4.40332H12.4834C14.0686 5.4117 15.0204 7.16751 15.0002 9.04618C15.0206 10.9247 14.0691 12.6805 12.4841 13.689H19.8216C19.9202 13.689 20.0002 13.6091 20.0002 13.5105V4.58189C20.0002 4.48327 19.9202 4.40332 19.8216 4.40332H19.3763ZM19.2859 12.6176C19.2859 12.8149 19.126 12.9747 18.9288 12.9747H17.5002C17.3029 12.9747 17.143 12.8149 17.143 12.6176C17.143 12.4204 17.3029 12.2605 17.5002 12.2605H18.5716V11.189C18.5716 10.9918 18.7315 10.8319 18.9288 10.8319C19.126 10.8319 19.2859 10.9918 19.2859 11.189V12.6176ZM19.2859 6.90332C19.2859 7.10057 19.126 7.26046 18.9288 7.26046C18.7315 7.26046 18.5716 7.10057 18.5716 6.90332V5.83189H17.5002C17.3029 5.83189 17.143 5.67199 17.143 5.47475C17.143 5.2775 17.3029 5.11761 17.5002 5.11761H18.9288C19.126 5.11761 19.2859 5.2775 19.2859 5.47475V6.90332Z" fill="#FFCF23"/>
<path d="M17.6328 0.530691L8.21777 3.68891H18.8799L17.8585 0.643191C17.8271 0.54989 17.7262 0.499572 17.6328 0.530691Z" fill="#FFCF23"/>
<path d="M11.0707 10.2959C11.0446 9.88916 10.7539 9.54817 10.3564 9.45801V11.1337C10.7539 11.0436 11.0446 10.7026 11.0707 10.2959Z" fill="#FFCF23"/>
<path d="M5 9.04618C4.97961 7.16765 5.9311 5.41187 7.51607 4.40332H0.178571C0.0799492 4.40332 0 4.48327 0 4.58189V13.5105C0 13.6091 0.0799492 13.689 0.178571 13.689H7.51607C5.9311 12.6805 4.97961 10.9247 5 9.04618ZM2.5 12.9747H1.07143C0.874184 12.9747 0.714286 12.8149 0.714286 12.6176V11.189C0.714286 10.9918 0.874184 10.8319 1.07143 10.8319C1.26867 10.8319 1.42857 10.9918 1.42857 11.189V12.2605H2.5C2.69724 12.2605 2.85714 12.4204 2.85714 12.6176C2.85714 12.8149 2.69724 12.9747 2.5 12.9747ZM2.5 5.83189H1.42857V6.90332C1.42857 7.10057 1.26867 7.26046 1.07143 7.26046C0.874184 7.26046 0.714286 7.10057 0.714286 6.90332V5.47475C0.714286 5.2775 0.874184 5.11761 1.07143 5.11761H2.5C2.69724 5.11761 2.85714 5.2775 2.85714 5.47475C2.85714 5.67199 2.69724 5.83189 2.5 5.83189Z" fill="#FFCF23"/>
<path d="M2.36775 17.5615L11.7849 14.4033H1.12061L2.14203 17.449C2.17341 17.5423 2.27436 17.5927 2.36775 17.5615Z" fill="#FFCF23"/>
</svg>
