<svg width="14" height="21" viewBox="0 0 14 21" fill="none" xmlns="http://www.w3.org/2000/svg">
<path fillRule="evenodd" clipRule="evenodd" d="M2.62474 2.5459H11.3747C11.3747 1.2959 10.9037 0.0469171 9.46301 0.0469171C7.7612 0.0460349 6.05851 0.0451527 4.35582 0.0469171C3.08983 0.0486816 2.62474 1.2959 2.62474 2.5459ZM11.3745 17.5459H2.62446C2.62446 18.7959 3.08673 20.0452 4.60416 20.0452C6.26274 20.046 7.92043 20.046 9.57901 20.0452C10.8997 20.0443 11.3745 18.7959 11.3745 17.5459ZM13.868 6.69405C13.8604 4.96672 12.7007 3.80404 10.9983 3.79805C10.0839 3.79509 9.16914 3.79582 8.25452 3.79655H8.25444H8.25435H8.25409H8.254H8.25391H8.25381C7.84738 3.79687 7.44098 3.79719 7.03466 3.79719C6.61936 3.79719 6.20413 3.79687 5.78894 3.79655C4.85486 3.79582 3.92095 3.79509 2.98663 3.79805C1.30951 3.80404 0.140512 4.97014 0.132916 6.66582C0.121943 8.91675 0.122788 11.1677 0.132916 13.4186C0.140512 15.1151 1.30867 16.2889 2.98072 16.2924C5.65127 16.2975 8.32183 16.2966 10.9924 16.2924C12.6957 16.2898 13.8604 15.1237 13.868 13.4032C13.8773 11.1677 13.8773 8.93043 13.868 6.69405ZM7.82083 13.3292C8.25 13.5167 8.69583 13.5792 9.10417 13.1834L9.1 13.1876C9.6125 12.7292 9.92083 12.1084 10.1583 11.4834C8.96667 11.0042 8.65833 9.29173 9.95833 8.51256C9.64583 8.06256 9.17083 7.81256 8.54167 7.76256C8.20651 7.73862 7.89342 7.84714 7.5829 7.95476C7.40702 8.01573 7.23195 8.0764 7.05417 8.11256C6.91464 8.10197 6.76389 8.0457 6.59365 7.98217C6.36227 7.89582 6.0949 7.79603 5.77083 7.77923C3.4625 7.8959 3.1625 11.0876 5.19583 13.1834C5.55417 13.5126 5.87083 13.5876 6.47083 13.3292C6.95 13.1292 7.36667 13.1376 7.82083 13.3292ZM7.0125 7.75423C6.95 6.82506 7.70417 6.0584 8.57083 5.9834C8.69167 7.0584 7.59583 7.8584 7.0125 7.75423Z" fill="#FFCF23"/>
</svg>
