<svg width="18" height="18" viewBox="0 0 18 18" fill="none" xmlns="http://www.w3.org/2000/svg">
<path d="M16.6087 3.52268H15.3348C15.5029 3.25676 15.6137 2.95827 15.6454 2.64259C15.7464 1.63371 15.215 0.729317 14.3105 0.328356C13.479 -0.0402028 12.5447 0.110461 11.8718 0.720704L10.2633 2.17846C9.95008 1.83585 9.49976 1.62052 8.99998 1.62052C8.49932 1.62052 8.04829 1.83653 7.73496 2.18021L6.12442 0.720533C5.4505 0.11029 4.51651 -0.0397926 3.68543 0.328561C2.7811 0.729557 2.24968 1.63426 2.35099 2.6431C2.38267 2.95855 2.49348 3.2569 2.66148 3.52268H1.39129C0.760951 3.52268 0.25 4.03367 0.25 4.66397V6.37593C0.25 6.69106 0.505493 6.94659 0.820663 6.94659H17.1793C17.4945 6.94659 17.75 6.6911 17.75 6.37593V4.66397C17.75 4.03367 17.239 3.52268 16.6087 3.52268ZM7.28803 3.33247V3.52268H4.60346C3.89416 3.52268 3.33594 2.86144 3.51309 2.12296C3.59113 1.79774 3.82587 1.52051 4.12949 1.38017C4.54641 1.18746 5.00825 1.24933 5.35842 1.56627L7.28851 3.31566C7.2884 3.32129 7.28803 3.32683 7.28803 3.33247ZM14.513 2.49107C14.4704 3.08419 13.9347 3.52275 13.34 3.52275H10.7119V3.33254C10.7119 3.32581 10.7115 3.31914 10.7115 3.31241C11.1487 2.91606 12.0972 2.05638 12.6116 1.59006C12.904 1.32507 13.3131 1.20137 13.6913 1.31416C14.2339 1.47604 14.5526 1.93753 14.513 2.49107Z" fill="#FFCF23"/>
<path d="M1.39014 8.08789V16.4575C1.39014 17.0878 1.90109 17.5987 2.53143 17.5987H7.8575V8.08789H1.39014Z" fill="#FFCF23"/>
<path d="M10.1401 8.08789V17.5987H15.4662C16.0966 17.5987 16.6075 17.0878 16.6075 16.4575V8.08789H10.1401Z" fill="#FFCF23"/>
</svg>
