<svg width="18" height="20" viewBox="0 0 18 20" fill="none" xmlns="http://www.w3.org/2000/svg">
<path d="M9 12.5459C11.75 12.5459 14 10.2959 14 7.5459C14 4.7959 11.75 2.5459 9 2.5459C6.25 2.5459 4 4.7959 4 7.5459C4 10.2959 6.25 12.5459 9 12.5459Z" fill="#FFCF23"/>
<path d="M17.3735 16.3584L15.186 11.7959C15.9985 10.6084 16.4985 9.1084 16.4985 7.5459C16.4985 3.4209 13.1235 0.0458984 8.99855 0.0458984C4.87353 0.0458984 1.49854 3.4209 1.49854 7.5459C1.49854 9.1709 1.99854 10.6084 2.87353 11.8584L0.748535 16.3584C0.686035 16.5459 0.686035 16.7959 0.748535 16.9209C0.811035 17.0459 1.06104 17.2334 1.24854 17.2334L4.18603 17.4209L6.18605 19.6084C6.31105 19.7334 6.49855 19.7959 6.62355 19.7959H6.74855C6.93605 19.7959 7.12355 19.6084 7.24855 19.4209L9.06105 15.6709L10.8735 19.4209C10.936 19.6084 11.1235 19.7334 11.3735 19.7959H11.4985C11.686 19.7959 11.811 19.7334 11.936 19.6084L13.936 17.4209L16.8735 17.2334C17.061 17.2334 17.2485 17.1084 17.3735 16.9209C17.4985 16.7334 17.436 16.5459 17.3735 16.3584ZM8.99855 1.2959C12.436 1.2959 15.2485 4.1084 15.2485 7.5459C15.2485 10.9834 12.436 13.7959 8.99855 13.7959C5.56105 13.7959 2.74853 10.9834 2.74853 7.5459C2.74853 4.1084 5.56105 1.2959 8.99855 1.2959Z" fill="#FFCF23"/>
</svg>
