<svg width="18" height="21" viewBox="0 0 18 21" fill="none" xmlns="http://www.w3.org/2000/svg">
<path fillRule="evenodd" clipRule="evenodd" d="M14.0244 0.098292L13.1916 0.465193C11.8535 1.05475 10.5155 1.64428 9.17542 2.22844C9.08174 2.26911 8.9416 2.27849 8.85102 2.23861C7.2205 1.53091 5.59462 0.813817 3.97726 0.0458984H14.012L14.012 0.0459782C14.0159 0.0631555 14.0198 0.0803339 14.0244 0.098292ZM7.53708 2.94423C5.57981 2.08356 3.73233 1.27118 1.90099 0.46661C1.87789 0.482939 1.85986 0.494155 1.84557 0.503043L1.84556 0.503046L1.84556 0.503048C1.82632 0.515014 1.81387 0.52276 1.80498 0.53308L1.53307 0.892978C1.17821 1.36252 0.82327 1.83217 0.471764 2.3043C0.165945 2.71563 0.173687 2.91738 0.512024 3.30056C1.5162 4.43679 2.52192 5.57069 3.52996 6.70301C3.90469 7.12373 4.21206 7.12842 4.60304 6.72022C5.00276 6.30308 5.40091 5.8845 5.79902 5.46597C6.32933 4.90845 6.85957 4.351 7.39335 3.79712C7.52268 3.66338 7.66812 3.54556 7.83401 3.41118L7.83402 3.41118L7.83402 3.41117L7.83404 3.41116C7.91742 3.34362 8.00597 3.27189 8.10022 3.19186L7.53708 2.94423ZM10.0443 3.13165L10.4656 2.94506C10.9349 2.73722 11.4047 2.52913 11.8754 2.3215C12.2361 2.16246 12.5973 2.0045 12.9584 1.84655L12.9584 1.84655L12.9584 1.84655C13.8971 1.43603 14.8355 1.02561 15.7659 0.596422C16.0701 0.456445 16.2118 0.518223 16.3891 0.773153C16.6211 1.10651 16.8674 1.43004 17.1137 1.75356L17.1137 1.75357L17.1137 1.75358L17.1138 1.7536C17.2603 1.94612 17.4069 2.13864 17.5505 2.33323C17.8253 2.70624 17.8191 2.92364 17.5141 3.26928C16.4944 4.42585 15.4709 5.58007 14.4443 6.73116C14.1191 7.09557 13.7908 7.12842 13.4811 6.80545C12.5748 5.86272 11.6754 4.91357 10.7762 3.96467L10.776 3.96453C10.5438 3.71943 10.3115 3.47435 10.0792 3.2294C10.07 3.2201 10.0659 3.2053 10.0596 3.18231L10.0596 3.18228C10.0558 3.16852 10.0513 3.15184 10.0443 3.13165ZM7.23396 8.15205H10.9317C10.9399 8.19325 10.9488 8.23468 10.9577 8.27632C10.9774 8.36823 10.9973 8.46113 11.0106 8.55478C11.1226 9.34283 11.234 10.1309 11.3454 10.9191L11.3455 10.9199C11.6093 12.7858 11.8731 14.6518 12.1441 16.517C12.1882 16.8197 12.1255 17.0339 11.9095 17.2482C11.3838 17.7694 10.8641 18.297 10.3445 18.8246L10.3437 18.8253L10.3434 18.8257L10.3431 18.8259C10.0267 19.1471 9.71027 19.4684 9.3925 19.7881C9.05339 20.1299 8.92022 20.1314 8.58886 19.7952L8.22625 19.4272C7.50124 18.6916 6.77623 17.9561 6.06488 17.2068C5.93945 17.0746 5.82564 16.8345 5.85196 16.668C6.21628 14.3539 6.59564 12.0424 6.97857 9.70918L6.97859 9.70907L6.97864 9.70875L6.97905 9.70627C7.06388 9.18936 7.1489 8.67137 7.23396 8.15205ZM9.30262 4.37016C9.18966 4.26831 9.07886 4.16841 8.9707 4.07082C8.83117 4.19728 8.68292 4.33419 8.52764 4.4776C8.13752 4.83789 7.70304 5.23914 7.25114 5.61839C6.88725 5.92337 6.90506 6.1783 7.14042 6.55913C7.32701 6.86098 7.51205 6.98375 7.86587 6.97202C8.44096 6.95257 9.01682 6.95642 9.59291 6.96028C9.82731 6.96185 10.0617 6.96342 10.2962 6.96342C10.7623 6.96342 11.1246 6.62951 11.1532 6.16109C11.1571 6.09619 11.113 6.00938 11.0634 5.96403C10.461 5.41463 9.85587 4.86901 9.30262 4.37016Z" fill="#FFCF23"/>
</svg>
