<svg width="18" height="20" viewBox="0 0 18 20" fill="none" xmlns="http://www.w3.org/2000/svg">
<path fillRule="evenodd" clipRule="evenodd" d="M0.25 6.84273V13.249C0.25 13.9244 0.590907 14.5542 1.15642 14.9235L7.90642 19.3317C8.5709 19.7656 9.4291 19.7656 10.0936 19.3317L16.8436 14.9235C17.4091 14.5542 17.75 13.9244 17.75 13.249V6.84273C17.75 6.16731 17.4091 5.53751 16.8436 5.16819L10.0936 0.760029C9.4291 0.326084 8.5709 0.326084 7.90642 0.760029L1.15642 5.16819C0.590908 5.53751 0.25 6.16731 0.25 6.84273ZM8.68768 5.90542C8.87029 5.75933 9.12976 5.75933 9.31237 5.90542L12.4374 8.40542C12.653 8.57793 12.688 8.89257 12.5155 9.1082C12.343 9.32383 12.0283 9.35879 11.8127 9.18629L9.00002 6.93617L6.18737 9.18629C5.97174 9.35879 5.65709 9.32383 5.48459 9.1082C5.31208 8.89257 5.34704 8.57793 5.56267 8.40542L8.68768 5.90542ZM9.31237 9.65542L12.4374 12.1554C12.653 12.3279 12.688 12.6426 12.5155 12.8582C12.343 13.0738 12.0283 13.1088 11.8127 12.9363L9.00002 10.6862L6.18737 12.9363C5.97174 13.1088 5.65709 13.0738 5.48459 12.8582C5.31208 12.6426 5.34704 12.3279 5.56267 12.1554L8.68768 9.65542C8.87029 9.50933 9.12976 9.50933 9.31237 9.65542Z" fill="#FFCF23"/>
</svg>
