<svg width="104" height="104" viewBox="0 0 104 104" fill="none" xmlns="http://www.w3.org/2000/svg">
<path d="M0 82.2422H6.22222V88.4644L0.355556 82.5977" fill="#F96B2F"/>
<path d="M17.0742 97.7734H23.2964V103.996L17.4298 98.129" fill="#F96B2F"/>
<path d="M49.6758 65.1797H55.898V71.4019L50.0313 65.5352" fill="#F96B2F"/>
<path d="M66.7441 31.0312H72.9664V37.249L67.0997 31.3868" fill="#F96B2F"/>
<path d="M104 23.2847H97.7773V17.0625L103.644 22.9292" fill="#F96B2F"/>
<path d="M104 55.8941H97.7773V49.6719L103.644 55.5385" fill="#F96B2F"/>
<path d="M23.2938 23.2977H6.22266V88.4843H23.2938V104.004H88.4804V88.4843H104V55.8932H55.8893V71.4132H72.9604V90.0355H37.2627V21.7466H72.9604V37.2666H104V23.2977H86.9293V6.22656H23.2938V23.2977Z" fill="#F96B2F"/>
<path d="M86.9268 6.22222H80.709V0L86.5712 5.86667" fill="#F96B2F"/>
<path d="M17.0711 17.0711H0V82.2578H17.0711V97.7778H82.2578V82.2578H97.7778V49.6667H49.6667V65.1867H66.7378V83.8089H31.04V15.52H66.7378V31.04H97.7778V17.0711H80.7067V0H17.0711V17.0711Z" fill="#FFCF23"/>
</svg>
