<svg width="16" height="16" viewBox="0 0 16 16" fill="none" xmlns="http://www.w3.org/2000/svg">
<path fillRule="evenodd" clipRule="evenodd" d="M2.39944 0.106936C1.29877 0.413173 0.405839 1.31529 0.112381 2.41746C-0.0358053 2.97389 -0.0381967 13.0096 0.109691 13.5632C0.411294 14.6923 1.30505 15.5892 2.4256 15.8876C2.99024 16.038 13.0179 16.038 13.5825 15.8876C14.7031 15.5892 15.5968 14.6923 15.8984 13.5632C15.9715 13.2896 15.9984 12.5624 15.9991 10.8468L16 8.50409L15.7459 8.25001C15.5377 8.04174 15.4353 7.99593 15.178 7.99593C14.9207 7.99593 14.8183 8.04174 14.6101 8.25001L14.356 8.50409L14.3555 10.7347C14.3553 12.138 14.3244 13.0761 14.2722 13.2641C14.164 13.6539 13.662 14.1559 13.2722 14.2641C12.8548 14.38 3.1533 14.38 2.73594 14.2641C2.34609 14.1559 1.84414 13.6539 1.73593 13.2641C1.62003 12.8467 1.62003 3.14517 1.73593 2.72781C1.84414 2.33795 2.34609 1.836 2.73594 1.72779C2.92389 1.67563 3.86195 1.6447 5.26527 1.64447L7.49591 1.64402L7.74999 1.38995C7.95826 1.18168 8.00407 1.0793 8.00407 0.822012C8.00407 0.564722 7.95826 0.462344 7.74999 0.254076L7.49591 0L5.11582 0.00665087C3.4573 0.0113588 2.63379 0.0416984 2.39944 0.106936ZM10.0591 0.0692732C9.75899 0.194892 9.61073 0.445829 9.61073 0.82814C9.61073 1.12631 9.64824 1.2298 9.8178 1.39944L10.0248 1.60666L11.6066 1.62968L13.1883 1.65262L10.2039 4.63779L7.21942 7.62296V7.99459C7.21942 8.30105 7.25574 8.40245 7.42664 8.57336C7.59755 8.74426 7.69895 8.78058 8.00541 8.78058H8.37704L11.3622 5.79608L14.3474 2.81165L14.3703 4.39343L14.3933 5.9752L14.6006 6.1822C14.7712 6.35273 14.8731 6.38927 15.178 6.38927C15.483 6.38927 15.5847 6.35273 15.7554 6.18205L15.9626 5.9749V3.21332V0.451733L15.7555 0.244586L15.5484 0.0373642L12.8784 0.0220449C11.41 0.0136006 10.1413 0.0348234 10.0591 0.0692732Z" fill="black"/>
</svg>
