<svg width="11" height="12" viewBox="0 0 11 12" fill="none" xmlns="http://www.w3.org/2000/svg">
<path fillRule="evenodd" clipRule="evenodd" d="M4.5804 0.260597C3.5683 1.15176 2.49375 1.58262 1.00292 1.69489C0.583356 1.72649 0.257926 1.77346 0.196094 1.81138C0.00243862 1.93008 -0.0169691 2.1558 0.00937656 3.98467C0.0340815 5.70014 0.0612709 6.05707 0.231627 6.89882C0.696333 9.19521 2.04639 10.8033 4.30644 11.7524C4.62948 11.8881 4.96185 11.9995 5.04497 12C5.36435 12.0019 6.47298 11.4914 7.20081 11.0072C8.59175 10.082 9.53124 8.64293 9.88475 6.89601C10.0544 6.05735 10.0818 5.69883 10.1064 3.98467C10.1328 2.1558 10.1134 1.93008 9.91972 1.81138C9.85789 1.77346 9.53246 1.72649 9.11289 1.69489C7.62206 1.58262 6.54752 1.15176 5.53541 0.260597C5.28508 0.0402216 5.21143 0 5.05791 0C4.90438 0 4.83073 0.0402216 4.5804 0.260597ZM7.15609 4.94933C6.07967 5.99083 4.62109 7.31501 4.52321 7.33957C4.45631 7.35636 4.35267 7.35781 4.2929 7.34281C4.20425 7.32054 2.8632 5.89098 2.81857 5.77121C2.81168 5.7526 2.94144 5.61773 3.10701 5.47147L3.40797 5.20557L3.91027 5.76708C4.18658 6.07592 4.43269 6.32859 4.4573 6.32859C4.48186 6.32859 5.01136 5.84326 5.6339 5.25011L6.76583 4.17157L7.06079 4.46391L7.3557 4.75619L7.15609 4.94933Z" fill="#ACE54E"/>
</svg>
