<svg width="13" height="17" viewBox="0 0 13 17" fill="none" xmlns="http://www.w3.org/2000/svg">
<path fillRule="evenodd" clipRule="evenodd" d="M5.00288 0.12184C4.69597 0.21858 4.1725 0.760619 4.07839 1.07916C4.03655 1.22074 4.00235 1.49332 4.00235 1.68499V2.03336L2.41863 2.05293L0.834909 2.07244L0.581586 2.24022C0.442262 2.33246 0.261478 2.51537 0.179872 2.64669C0.0481142 2.85868 0.0290416 2.9743 0.00965621 3.6793C-0.0118553 4.46059 -0.0096042 4.47585 0.147542 4.63293L0.30719 4.79264H6.50368H12.7002L12.8598 4.63293C13.0171 4.47573 13.0192 4.46091 12.9977 3.67467C12.9774 2.93165 12.9642 2.85836 12.8081 2.62261C12.7159 2.48329 12.533 2.30244 12.4016 2.22084C12.1694 2.07645 12.1202 2.07194 10.584 2.05293L9.00502 2.03336V1.68499C9.00502 1.49332 8.97081 1.22074 8.92898 1.07916C8.82749 0.735668 8.30946 0.217642 7.96596 0.11615C7.63829 0.0193483 5.31392 0.0238507 5.00288 0.12184ZM7.85096 1.19416C7.97703 1.32017 8.00448 1.40959 8.00448 1.69443V2.04118H6.50368H5.00288V1.69443C5.00288 1.40959 5.03033 1.32017 5.1564 1.19416C5.30861 1.04189 5.31955 1.04064 6.50368 1.04064C7.68782 1.04064 7.69876 1.04189 7.85096 1.19416ZM0.83322 5.89367C0.792824 5.99885 1.1644 14.3314 1.22887 14.7667C1.30547 15.2842 1.6217 15.6901 2.12635 15.9185C2.40024 16.0425 2.51674 16.0459 6.50368 16.0459C10.4906 16.0459 10.6071 16.0425 10.881 15.9185C11.3857 15.6901 11.7019 15.2842 11.7785 14.7667C11.843 14.3314 12.2145 5.99885 12.1741 5.89367C12.1391 5.80237 11.619 5.79318 6.50368 5.79318C1.38833 5.79318 0.868239 5.80237 0.83322 5.89367ZM4.3491 6.6971L4.50262 6.85056V10.2956V13.7406L4.3491 13.8941C4.14605 14.0972 3.85865 14.0972 3.6556 13.8941L3.50208 13.7406V10.2956V6.85056L3.6556 6.6971C3.75234 6.6003 3.88053 6.54358 4.00235 6.54358C4.12416 6.54358 4.25236 6.6003 4.3491 6.6971ZM6.85043 6.6971L7.00395 6.85056V10.2956V13.7406L6.85043 13.8941C6.64739 14.0972 6.35998 14.0972 6.15694 13.8941L6.00342 13.7406V10.2956V6.85056L6.15694 6.6971C6.25368 6.6003 6.38187 6.54358 6.50368 6.54358C6.6255 6.54358 6.75369 6.6003 6.85043 6.6971ZM9.35177 6.6971L9.50529 6.85056V10.2956V13.7406L9.35177 13.8941C9.14872 14.0972 8.86132 14.0972 8.65827 13.8941L8.50475 13.7406V10.2956V6.85056L8.65827 6.6971C8.75501 6.6003 8.8832 6.54358 9.00502 6.54358C9.12683 6.54358 9.25503 6.6003 9.35177 6.6971Z" fill="white" fill-opacity="0.5"/>
</svg>
