<svg width="13" height="13" viewBox="0 0 13 13" fill="none" xmlns="http://www.w3.org/2000/svg">
<path fillRule="evenodd" clipRule="evenodd" d="M0.427239 0.107316C0.082244 0.289566 -0.0857764 0.721846 0.0482952 1.08228C0.0758756 1.15637 1.20059 2.31909 2.54998 3.66845L5.00162 6.11996L2.57636 8.54756C1.24244 9.88272 0.116672 11.044 0.0746306 11.1282C-0.0836217 11.4452 0.0353668 11.8873 0.336693 12.1016C0.49959 12.2175 0.825049 12.2734 1.03679 12.2218C1.12882 12.1994 1.9546 11.4077 3.64927 9.71721L6.1272 7.24532L8.60513 9.71688C11.2829 12.3878 11.176 12.2985 11.6129 12.2276C12.097 12.1491 12.398 11.5654 12.1798 11.1282C12.1377 11.044 11.012 9.88272 9.67803 8.54756L7.25278 6.11996L9.70442 3.66845C11.0538 2.31909 12.1785 1.15637 12.2061 1.08228C12.3402 0.721846 12.1721 0.289566 11.8272 0.107316C11.5832 -0.0215498 11.4113 -0.031021 11.1653 0.0709142C11.0428 0.121667 10.2289 0.901512 8.55724 2.56964L6.1272 4.99456L3.69715 2.56964C2.02552 0.901512 1.21156 0.121667 1.08907 0.0709142C0.8431 -0.031021 0.671153 -0.0215498 0.427239 0.107316Z" fill="white"/>
</svg>
