<svg width="16" height="16" viewBox="0 0 16 16" fill="none" xmlns="http://www.w3.org/2000/svg">
<path fillRule="evenodd" clipRule="evenodd" d="M6.59055 0.116882C5.98272 0.226584 4.95363 0.56568 4.42236 0.831287C3.9838 1.0505 3.12735 1.61094 2.84663 1.86244L2.66513 2.02502L3.50484 2.8648L4.34456 3.70452L4.84462 3.36979C5.61609 2.85344 6.16335 2.64964 7.4144 2.41294C7.5542 2.38647 7.55489 2.38073 7.55489 1.20123V0.0161087L7.32075 0.0217281C7.192 0.0247875 6.8634 0.0676192 6.59055 0.116882ZM8.42901 1.18768C8.42901 2.46851 8.42439 2.45115 8.76754 2.45115C9.30974 2.45115 10.5167 2.92911 11.2252 3.42442L11.6332 3.70957L12.4661 2.87829C12.9242 2.42112 13.2978 2.03264 13.2962 2.01497C13.2896 1.94429 12.5924 1.42825 12.119 1.14372C11.1729 0.575046 9.90596 0.145541 8.87549 0.0439556L8.42901 0V1.18768ZM1.80406 2.90832C1.50249 3.27614 1.05375 3.96794 0.834722 4.40288C0.425259 5.21612 0 6.73871 0 7.39186V7.57099H1.18212C2.51016 7.57099 2.38791 7.62107 2.46651 7.04459C2.56541 6.31963 3.04137 5.21106 3.50522 4.6254L3.70271 4.37609L2.8668 3.5385C2.40707 3.07784 2.01653 2.7029 1.99886 2.7054C1.98119 2.7079 1.89353 2.79918 1.80406 2.90832ZM13.1171 3.5385L12.2812 4.37609L12.4787 4.6254C12.9425 5.21106 13.4185 6.31963 13.5174 7.04459C13.596 7.62107 13.4737 7.57099 14.8018 7.57099H15.9839V7.39186C15.9839 6.74002 15.5588 5.21631 15.151 4.40656C14.8665 3.84169 14.0789 2.7009 13.9735 2.7009C13.9622 2.7009 13.5768 3.07784 13.1171 3.5385ZM7.33879 3.32865C6.77386 3.41649 6.37626 3.54724 5.79997 3.83476C5.37714 4.04574 5.15999 4.21188 4.67566 4.69514C4.15856 5.21112 4.03556 5.37621 3.78806 5.88626C3.414 6.65698 3.29025 7.1847 3.29025 8.00805C3.29025 8.83141 3.414 9.35913 3.78806 10.1299C4.03525 10.6393 4.15931 10.8059 4.67666 11.3233C5.19408 11.8407 5.36066 11.9648 5.87015 12.2119C6.65773 12.5941 7.16765 12.7115 8.02316 12.7076C9.36594 12.7013 10.3262 12.2954 11.3082 11.3189C11.8265 10.8035 11.9478 10.6411 12.1958 10.1299C12.5699 9.35913 12.6936 8.83141 12.6936 8.00805C12.6936 7.1847 12.5699 6.65698 12.1958 5.88626C11.9478 5.37502 11.8265 5.21256 11.3082 4.6972C10.6264 4.01926 10.0175 3.65681 9.21578 3.45177C8.64079 3.30473 7.83336 3.25172 7.33879 3.32865ZM0 8.62425C0 9.27609 0.425134 10.7998 0.83291 11.6095C1.059 12.0585 1.53096 12.777 1.83109 13.1291L2.0076 13.3362L2.85537 12.4884L3.70321 11.6406L3.50547 11.391C3.04137 10.805 2.56541 9.69666 2.46651 8.97152C2.38791 8.39504 2.51016 8.44511 1.18212 8.44511H0V8.62425ZM13.5895 8.55438C13.5729 8.61451 13.5405 8.80219 13.5174 8.97152C13.4185 9.69648 12.9425 10.805 12.4787 11.3907L12.2812 11.64L13.1171 12.4776C13.5768 12.9383 13.9674 13.3146 13.985 13.314C14.0661 13.3107 14.8183 12.2305 15.0711 11.7543C15.5316 10.8867 15.9839 9.33584 15.9839 8.62425V8.44511H14.8018C13.7291 8.44511 13.6169 8.45523 13.5895 8.55438ZM3.50103 13.1546L2.66438 13.9929L2.87117 14.1692C3.223 14.469 3.94165 14.9411 4.39045 15.1671C5.2002 15.5749 6.72391 16 7.37575 16H7.55489V14.8149C7.55489 13.6354 7.5542 13.6296 7.4144 13.6032C6.16466 13.3667 5.61603 13.1626 4.84805 12.6486C4.57495 12.4658 4.34837 12.3162 4.34456 12.3162C4.34075 12.3162 3.96113 12.6935 3.50103 13.1546ZM11.2387 12.5785C10.5915 13.0528 9.30849 13.565 8.76754 13.565C8.42451 13.565 8.42901 13.5483 8.42901 14.8204V16H8.60814C9.24506 16 10.7765 15.5773 11.5615 15.1848C11.9999 14.9657 12.8565 14.4052 13.137 14.154L13.3182 13.9916L12.4822 13.1539C12.0224 12.6931 11.6318 12.3186 11.6142 12.3216C11.5965 12.3245 11.4275 12.4402 11.2387 12.5785Z" fill="#FFCF23"/>
</svg>
