<svg width="16" height="13" viewBox="0 0 16 13" fill="none" xmlns="http://www.w3.org/2000/svg">
<path fillRule="evenodd" clipRule="evenodd" d="M9.85924 0.0465486C9.24701 0.0467525 8.63477 0.0469564 8.02247 0.0469564H6.18171C5.69745 0.0471502 5.21319 0.0468027 4.72893 0.0464552C3.65279 0.0456831 2.57666 0.0449109 1.50052 0.0500785C0.816794 0.0532005 0.268563 0.472803 0.0768698 1.10595C-0.106082 1.70913 0.102471 2.32667 0.646955 2.69195C2.82364 4.15057 5.00345 5.60419 7.18763 7.05157C7.71339 7.40061 8.27847 7.41373 8.80423 7.06656C11.0078 5.61106 13.2026 4.14245 15.3967 2.67197C15.7832 2.41284 15.9855 2.03133 15.9993 1.56427C16.0249 0.705083 15.3593 0.0500785 14.4508 0.0482052C12.9201 0.0455292 11.3897 0.0460389 9.85924 0.0465486ZM15.9962 5.46833C15.9946 4.78618 15.993 4.10107 15.993 3.41189C15.9498 3.43962 15.9108 3.46443 15.8749 3.48727C15.7913 3.54056 15.7244 3.58317 15.6584 3.62731C14.9749 4.0829 14.2915 4.53856 13.608 4.99421C12.2411 5.9056 10.8742 6.81698 9.50669 7.7278C8.46705 8.4209 7.55354 8.42152 6.51827 7.73218C5.49274 7.04912 4.46753 6.36574 3.44231 5.68237C2.41697 4.99891 1.39163 4.31545 0.365971 3.63231C0.298696 3.58718 0.230022 3.54485 0.147974 3.49427C0.107417 3.46927 0.0635923 3.44226 0.0150533 3.41189V3.78966C0.0150533 4.42087 0.0180589 5.05218 0.0210646 5.68352C0.028311 7.2056 0.0355581 8.72785 0.000691923 10.2492C-0.0261576 11.4162 0.73125 12.05 1.77589 12.0387C4.21305 12.0125 6.65022 12.017 9.08738 12.0215C10.0208 12.0233 10.9542 12.025 11.8876 12.025C12.1472 12.025 12.4069 12.0256 12.6667 12.0262C13.2808 12.0276 13.8949 12.0291 14.5088 12.0225C15.2862 12.0144 15.9706 11.468 15.9806 10.7293C16.0044 8.98273 16.0004 7.23547 15.9962 5.46833Z" fill="#FFCF23"/>
</svg>
