<svg width="20" height="18" viewBox="0 0 20 18" fill="none" xmlns="http://www.w3.org/2000/svg">
<path d="M12.25 3.30811H1H12.25Z" fill="white"/>
<path d="M3.25 14.7837H1M3.25 14.7837C3.25 15.3837 3.48705 15.9591 3.90901 16.3833C4.33097 16.8076 4.90326 17.0459 5.5 17.0459C6.09674 17.0459 6.66903 16.8076 7.09099 16.3833C7.51295 15.9591 7.75 15.3837 7.75 14.7837M3.25 14.7837C3.25 14.1837 3.48705 13.6083 3.90901 13.1841C4.33097 12.7598 4.90326 12.5215 5.5 12.5215C6.09674 12.5215 6.66903 12.7598 7.09099 13.1841C7.51295 13.6083 7.75 14.1837 7.75 14.7837M7.75 14.7837H19M16.75 3.30811C16.75 2.70813 16.5129 2.13273 16.091 1.70849C15.669 1.28424 15.0967 1.0459 14.5 1.0459C13.9033 1.0459 13.331 1.28424 12.909 1.70849C12.4871 2.13273 12.25 2.70813 12.25 3.30811M16.75 3.30811C16.75 3.90808 16.5129 4.48349 16.091 4.90773C15.669 5.33198 15.0967 5.57032 14.5 5.57032C13.9033 5.57032 13.331 5.33198 12.909 4.90773C12.4871 4.48349 12.25 3.90808 12.25 3.30811M16.75 3.30811H19M12.25 3.30811H1" stroke="white" strokeWidth="1.8" strokeLinecap="round" strokeLinejoin="round"/>
</svg>
