<svg width="21" height="21" viewBox="0 0 21 21" fill="none" xmlns="http://www.w3.org/2000/svg">
<path fillRule="evenodd" clipRule="evenodd" d="M10.9352 2.08678C10.7007 2.30895 10.4611 2.53598 10.2138 2.77069C10.0207 2.57302 9.83187 2.37624 9.64478 2.1813C9.22577 1.7447 8.8156 1.31731 8.38639 0.909695C7.59686 0.158426 6.65035 -0.116467 5.57968 0.138902C3.96 0.52547 2.92603 2.21465 3.36336 3.7539C3.39538 3.86479 3.51798 4.03035 3.60311 4.03269C4.14492 4.04942 4.68718 4.04787 5.26521 4.04622C5.44284 4.04571 5.62386 4.04519 5.80928 4.04519C5.77437 4.00525 5.74582 3.9724 5.72141 3.94431C5.67375 3.88945 5.64189 3.85279 5.60935 3.81715C5.14079 3.30173 5.12283 2.74648 5.56172 2.33804C6.00061 1.93039 6.55352 1.97178 7.04395 2.45675C7.19807 2.60931 7.35055 2.76352 7.50299 2.9177C7.80783 3.22601 8.11256 3.53421 8.43013 3.82887C8.55586 3.94601 8.76203 4.03269 8.93305 4.0366C9.77804 4.05768 10.6238 4.0569 11.4688 4.03738C11.6281 4.03347 11.8202 3.94913 11.9374 3.83902C12.2024 3.58895 12.4591 3.33004 12.7157 3.07114C12.9536 2.83119 13.1914 2.59125 13.436 2.35835C13.8538 1.96007 14.4083 1.96007 14.805 2.32867C15.197 2.69337 15.2345 3.20021 14.9042 3.66487C14.8537 3.73645 14.8056 3.80973 14.748 3.89746C14.7183 3.94278 14.686 3.99196 14.6496 4.04675C14.866 4.04675 15.0751 4.04351 15.2788 4.04036C15.7387 4.03324 16.1714 4.02653 16.6012 4.05847C17.0119 4.08892 17.1111 3.89759 17.1689 3.56413C17.3876 2.30446 16.7456 1.01044 15.5844 0.395833C14.445 -0.207837 13.1502 -0.0196294 12.2013 0.884705C11.786 1.28073 11.3694 1.67544 10.9352 2.08678ZM11.2564 9.00888V5.04714H11.6382L13.4811 5.04705H13.4812C15.3243 5.0469 17.1671 5.04675 19.0104 5.04792C19.9116 5.0487 20.2349 5.37045 20.2364 6.26385C20.2367 6.41554 20.2372 6.56722 20.2378 6.7189C20.2394 7.15215 20.241 7.58539 20.2341 8.01864C20.224 8.65589 19.8757 9.03621 19.2525 9.03777C17.2827 9.0448 15.313 9.0426 13.3436 9.04041H13.3434C12.687 9.03967 12.0306 9.03894 11.3743 9.03855C11.3579 9.03855 11.3421 9.03379 11.3152 9.02569C11.2999 9.02108 11.281 9.01539 11.2564 9.00888ZM9.21889 9.0448V5.09166C9.19922 5.08428 9.18357 5.07758 9.1705 5.07197L9.17048 5.07197C9.14617 5.06155 9.13076 5.05495 9.11502 5.05495C8.5194 5.05442 7.92374 5.05361 7.32806 5.05281H7.32787H7.32768H7.32761H7.32754C5.28431 5.05004 3.24082 5.04727 1.1978 5.05573C0.61678 5.05807 0.259107 5.44152 0.24505 6.02488C0.235009 6.44214 0.236922 6.8602 0.238835 7.27819C0.2396 7.44538 0.240365 7.61256 0.240365 7.77967C0.241146 8.74179 0.537905 9.04324 1.493 9.04402C3.31691 9.04519 5.14038 9.04504 6.96374 9.0449L8.78703 9.0448H9.21889ZM9.2189 11.0745V20.0436H8.85264L7.24468 20.0437C5.63541 20.0439 4.02614 20.044 2.41687 20.0428C1.5836 20.0421 1.24623 19.7149 1.24545 18.8941C1.24277 16.7547 1.24354 14.6147 1.24431 12.4752L1.24467 11.4056C1.24467 11.3411 1.24845 11.2764 1.25261 11.2051L1.25261 11.2051L1.25261 11.205L1.25261 11.205C1.255 11.1641 1.25751 11.1209 1.25951 11.0745H9.2189ZM11.2548 20.0436V11.0799H19.2119C19.2142 11.1187 19.2172 11.157 19.2202 11.195V11.195V11.195V11.195C19.2262 11.272 19.2322 11.3478 19.2322 11.4236L19.2326 12.6623V12.6624V12.6625V12.6625C19.2334 14.7329 19.2341 16.8032 19.2322 18.873C19.2314 19.7063 18.8995 20.0421 18.0811 20.0429C16.5391 20.0445 14.9975 20.0442 13.4557 20.0439L11.6063 20.0436H11.2548Z" fill="#020202"/>
</svg>
