<svg width="17" height="22" viewBox="0 0 17 22" fill="none" xmlns="http://www.w3.org/2000/svg">
<path d="M16.1673 17.9887C14.6148 20.9875 10.8065 21.6289 10.6429 21.6554C10.6208 21.6598 10.5942 21.6598 10.5721 21.6598C10.5456 21.6598 10.519 21.6554 10.4925 21.651C10.4748 21.651 10.4571 21.6466 10.4394 21.6377C10.4068 21.6329 10.3762 21.6191 10.351 21.5979C10.3289 21.5846 10.3067 21.5714 10.289 21.5537C10.27 21.5443 10.2534 21.5307 10.2404 21.5139C10.236 21.5094 10.2315 21.505 10.2315 21.5006C10.1829 21.4387 10.1519 21.3679 10.1387 21.2971C10.1342 21.2927 10.1342 21.2927 10.1342 21.2883C10.1298 21.2662 10.1298 21.2441 10.1298 21.2219C10.1298 21.1954 10.1342 21.1689 10.1387 21.1423C10.1387 21.1246 10.1475 21.1025 10.1519 21.0804C10.1564 21.0716 10.1564 21.0671 10.1564 21.0627C10.1696 21.0406 10.1785 21.0185 10.1917 21.0008C10.205 20.9787 10.2183 20.9566 10.236 20.9389C10.2448 20.9212 10.2625 20.9035 10.2802 20.8902L10.2935 20.8769C13.31 18.1877 12.6112 15.671 12.5802 15.5648C12.5669 15.5339 12.5625 15.4985 12.5581 15.4675C12.4165 13.2471 10.6739 10.7702 9.57693 9.42117C9.36905 11.5177 8.07308 14.6714 7.74578 15.4366C7.66174 15.6356 7.44501 15.7417 7.24154 15.6975C7.14023 15.6748 7.05014 15.6171 6.98707 15.5346C6.92399 15.4521 6.89195 15.3501 6.89655 15.2464C6.92308 14.5519 6.36135 13.6275 5.86597 12.9685C5.64481 13.5258 5.2202 14.3883 4.4152 15.755C4.05693 16.3654 3.84904 16.9891 3.80039 17.5994C3.62789 19.7977 5.04328 20.6071 5.39712 20.7708C5.44578 20.7929 5.47231 20.8017 5.47674 20.8017C5.54308 20.8283 5.60058 20.8637 5.64481 20.9167C5.66251 20.93 5.67578 20.9477 5.68904 20.9654C5.71116 21.0052 5.73328 21.045 5.74212 21.0848C5.76866 21.1512 5.77308 21.2219 5.75981 21.2927C5.75539 21.3192 5.74654 21.3458 5.7377 21.3723C5.68904 21.505 5.58289 21.6023 5.45462 21.6377C5.43251 21.6466 5.41039 21.651 5.38828 21.6554C5.36616 21.6598 5.34404 21.6598 5.32193 21.6598C5.27328 21.6598 5.2202 21.651 5.17155 21.6333H5.1627C2.82731 20.7266 1.29251 19.351 0.60693 17.5464C-0.445762 14.7819 0.814815 11.8008 1.40308 10.6464C1.69943 10.0714 2.07981 9.48752 2.60174 8.80636C5.48116 5.05117 6.26847 0.835979 6.27731 0.796172C6.30385 0.632518 6.42328 0.499826 6.58251 0.451172C6.73731 0.402518 6.90981 0.446749 7.02924 0.561749C9.49289 3.0829 11.4169 5.09983 12.7394 6.55944C13.9071 7.84656 14.8492 9.20886 15.5392 10.6198C16.9723 13.5435 17.1846 16.0204 16.1673 17.9887Z" fill="#FEC107"/>
</svg>
