<svg width="16" height="16" viewBox="0 0 16 16" fill="none" xmlns="http://www.w3.org/2000/svg">
<path opacity="0.25" d="M8 0C3.58176 0 0 3.5816 0 8C0 12.4184 3.58176 16 8 16C12.4182 16 16 12.4184 16 8C16 3.5816 12.4182 0 8 0ZM8 1.6C11.5346 1.6 14.4 4.4656 14.4 8C14.4 11.5344 11.5346 14.4 8 14.4C4.46536 14.4 1.6 11.5344 1.6 8C1.6 4.4656 4.46536 1.6 8 1.6ZM8 4C7.55816 4 7.2 4.3584 7.2 4.8C7.2 5.2416 7.55816 5.6 8 5.6C8.44184 5.6 8.8 5.2416 8.8 4.8C8.8 4.3584 8.44184 4 8 4ZM8 6.4C7.55816 6.4 7.2 6.7584 7.2 7.2V11.2C7.2 11.6416 7.55816 12 8 12C8.44184 12 8.8 11.6416 8.8 11.2V7.2C8.8 6.7584 8.44184 6.4 8 6.4Z" fill="white"/>
</svg>
