<svg width="32" height="33" viewBox="0 0 32 33" fill="none" xmlns="http://www.w3.org/2000/svg">
<path fillRule="evenodd" clipRule="evenodd" d="M31.0896 21.3796C31.6792 19.7114 32 17.9163 32 16.0462C32 14.1762 31.6792 12.381 31.0896 10.7129H0.91043C0.320823 12.381 0 14.1762 0 16.0462C0 17.9163 0.320823 19.7114 0.91043 21.3796H31.0896Z" fill="white"/>
<path fillRule="evenodd" clipRule="evenodd" d="M31.0893 21.3792C28.8928 27.5936 22.9662 32.0459 15.9997 32.0459C9.03323 32.0459 3.10662 27.5936 0.910156 21.3792H31.0893ZM31.0893 10.7126C28.8928 4.49821 22.9662 0.0458984 15.9997 0.0458984C9.03323 0.0458984 3.10662 4.49821 0.910156 10.7126H31.0893Z" fill="#AA3751"/>
</svg>
