<svg width="24" height="24" viewBox="0 0 24 24" fill="none" xmlns="http://www.w3.org/2000/svg">
<g clip-path="url(#clip0_570_106664)">
<path d="M16.8768 0.101991C17.0236 0.187099 17.1372 0.319476 17.1991 0.477498C17.2609 0.635519 17.2673 0.809843 17.2173 0.971991L13.5 9.74999H19.5003C19.6468 9.74993 19.7901 9.79277 19.9125 9.87322C20.0349 9.95366 20.1311 10.0682 20.1892 10.2027C20.2472 10.3372 20.2646 10.4857 20.2393 10.63C20.2139 10.7742 20.1468 10.9079 20.0463 11.0145L8.0463 23.7645C7.93019 23.888 7.77568 23.9685 7.60796 23.9929C7.44024 24.0173 7.26919 23.9842 7.1227 23.8989C6.97622 23.8137 6.86292 23.6813 6.80129 23.5234C6.73965 23.3655 6.73331 23.1914 6.7833 23.0295L10.5 14.25H4.5003C4.35382 14.25 4.21052 14.2072 4.08811 14.1268C3.96569 14.0463 3.86951 13.9318 3.81145 13.7973C3.75338 13.6628 3.73596 13.5143 3.76135 13.37C3.78674 13.2257 3.85381 13.0921 3.9543 12.9855L15.9543 0.235491C16.0703 0.11219 16.2245 0.0317441 16.392 0.00723405C16.5595 -0.017276 16.7304 0.015591 16.8768 0.100491V0.101991Z" fill="#FFCF23"/>
</g>
<defs>
<clipPath id="clip0_570_106664">
<rect width="24" height="24" fill="white"/>
</clipPath>
</defs>
</svg>
