<svg width="12" height="13" viewBox="0 0 12 13" fill="none" xmlns="http://www.w3.org/2000/svg">
<path fillRule="evenodd" clipRule="evenodd" d="M3.26796 7.77718C3.26675 8.0186 3.26554 8.26001 3.26554 8.50139C3.26554 8.75926 3.26611 9.01711 3.26667 9.27492C3.26813 9.93777 3.26958 10.6004 3.26143 11.2631C3.25886 11.4545 3.3309 11.534 3.5213 11.5569C3.76454 11.5862 4.00746 11.619 4.25036 11.6518C4.76234 11.7209 5.27419 11.7901 5.78865 11.8259C6.8652 11.9012 7.94638 11.9569 9.02345 11.8069C9.5432 11.7345 10.0537 11.6326 10.506 11.3679C11.0145 11.0698 11.1879 10.6693 11.0741 10.127C11.0603 10.0608 11.1163 9.95367 11.1771 9.90653C11.7282 9.47942 11.9001 8.96612 11.6716 8.3314C11.6258 8.20379 11.6443 8.1176 11.7205 8.00761C12.0344 7.55573 12.0931 7.06672 11.8497 6.57961C11.7447 6.3701 11.7375 6.18916 11.7812 5.9725C11.9217 5.27445 11.5954 4.77163 10.8637 4.55926C10.6125 4.48641 10.3455 4.44356 10.083 4.42641C9.21951 4.36975 8.37196 4.4907 7.53521 4.67592C7.33709 4.71973 7.24344 4.67878 7.27946 4.4926C7.29227 4.42636 7.30454 4.35987 7.31683 4.2933C7.36918 4.00962 7.42176 3.72475 7.5172 3.45362L7.52761 3.42401C7.75573 2.77502 7.98235 2.13029 7.94484 1.43566C7.90213 0.640947 7.37209 0.104792 6.57702 0.0490811C6.24665 0.0257493 6.08352 0.1286 5.99398 0.427152C5.9667 0.518098 5.94509 0.61333 5.94046 0.70761C5.8926 1.68231 5.54884 2.57035 5.01623 3.40077C4.59991 4.0493 4.17382 4.69259 3.57379 5.21589C3.34222 5.41778 3.24959 5.65014 3.25783 5.95441C3.27403 6.56169 3.27099 7.16945 3.26796 7.77718ZM2.46275 9.47506C2.46266 9.19847 2.46258 8.92187 2.46258 8.64527C2.46258 8.36403 2.46266 8.08283 2.46275 7.80165C2.46296 7.09884 2.46317 6.3962 2.46206 5.69356C2.46155 5.34739 2.32569 5.22407 1.949 5.22216C1.46888 5.21978 0.988753 5.21978 0.508627 5.22216C0.148404 5.22407 0.00225672 5.35215 0.00174212 5.67975C-0.000830904 7.64772 -0.0003163 9.61521 0.00174212 11.5827C0.00174212 11.9093 0.152007 12.0427 0.506054 12.0446C0.977431 12.047 1.44932 12.046 1.9207 12.0451C2.32827 12.0441 2.46155 11.9227 2.46206 11.5489C2.46317 10.8578 2.46296 10.1665 2.46275 9.47506Z" fill="white" fill-opacity="0.5"/>
</svg>
