<svg width="16" height="16" viewBox="0 0 16 16" fill="none" xmlns="http://www.w3.org/2000/svg">
<path fillRule="evenodd" clipRule="evenodd" d="M4.35734 10.3084C4.35573 10.6303 4.35413 10.9522 4.35413 11.274C4.35413 11.6178 4.35488 11.9616 4.35563 12.3053C4.35757 13.1891 4.3595 14.0727 4.34864 14.9563C4.34521 15.2115 4.44126 15.3175 4.69514 15.348C5.01947 15.387 5.34337 15.4308 5.66724 15.4745C6.34987 15.5667 7.03233 15.6589 7.71826 15.7067C9.15367 15.807 10.5952 15.8813 12.0313 15.6813C12.7243 15.5848 13.405 15.4489 14.0081 15.096C14.686 14.6985 14.9172 14.1646 14.7656 13.4415C14.7471 13.3532 14.8219 13.2104 14.9028 13.1475C15.6377 12.578 15.8668 11.8936 15.5622 11.0473C15.5011 10.8772 15.5258 10.7623 15.6274 10.6156C16.0459 10.0131 16.1242 9.36109 15.7996 8.71161C15.6596 8.43226 15.65 8.19101 15.7084 7.90214C15.8957 6.97141 15.4607 6.30098 14.485 6.01782C14.1501 5.92068 13.794 5.86354 13.4441 5.84069C12.2928 5.76514 11.1627 5.9264 10.047 6.17337C9.78285 6.23177 9.65798 6.17717 9.70601 5.92894C9.72309 5.84062 9.73945 5.75196 9.75583 5.66321C9.82564 5.28496 9.89574 4.90513 10.023 4.54363L10.0369 4.50416C10.341 3.63883 10.6432 2.77919 10.5932 1.85301C10.5362 0.793398 9.82951 0.0785245 8.76943 0.0042436C8.32893 -0.0268655 8.11142 0.110268 7.99203 0.508338C7.95567 0.6296 7.92685 0.756575 7.92067 0.882281C7.85686 2.18188 7.39852 3.36593 6.68837 4.47316C6.13328 5.33786 5.56516 6.19559 4.76512 6.89332C4.45636 7.16251 4.33285 7.47233 4.34383 7.87802C4.36544 8.68772 4.36139 9.49807 4.35734 10.3084ZM3.28366 12.572C3.28355 12.2032 3.28344 11.8344 3.28344 11.4656C3.28344 11.0907 3.28355 10.7157 3.28366 10.3409C3.28394 9.40376 3.28422 8.4669 3.28275 7.53003C3.28207 7.06847 3.10093 6.90404 2.59867 6.9015C1.9585 6.89833 1.31834 6.89833 0.67817 6.9015C0.197872 6.90404 0.00300896 7.07482 0.00232282 7.51162C-0.00110787 10.1356 -0.000421733 12.7589 0.00232282 15.3822C0.00232282 15.8177 0.202675 15.9955 0.674739 15.9981C1.30324 16.0012 1.93243 16 2.56093 15.9987C3.10436 15.9974 3.28207 15.8355 3.28275 15.3371C3.28422 14.4157 3.28394 13.4939 3.28366 12.572Z" fill="white" fill-opacity="0.5"/>
</svg>
