<svg width="14" height="14" viewBox="0 0 14 14" fill="none" xmlns="http://www.w3.org/2000/svg">
<path d="M9.96855 8.62177C7.39269 8.30336 5.19482 6.52446 4.23027 4.11494C3.80245 3.06261 3.64291 1.92043 3.766 0.791148C3.77187 0.732804 3.7611 0.67399 3.73492 0.621518C3.70875 0.569045 3.66824 0.525062 3.6181 0.494664C3.56795 0.464266 3.51022 0.448696 3.45159 0.449758C3.39296 0.45082 3.33583 0.468471 3.28682 0.500665C1.15972 1.86742 -0.196486 4.32846 0.0244798 7.09177C0.298825 10.5205 3.10248 13.3334 6.53055 13.6171C10.035 13.9076 13.0614 11.6631 13.985 8.51935C14.0583 8.26984 13.815 8.03894 13.5748 8.13825C12.4352 8.61017 11.1922 8.77682 9.96855 8.62177Z" fill="white"/>
</svg>
