<svg width="21" height="20" viewBox="0 0 21 20" fill="none" xmlns="http://www.w3.org/2000/svg">
<path fillRule="evenodd" clipRule="evenodd" d="M16.5356 0.326688C16.3963 0.518919 16.1325 0.92631 15.9494 1.23198L15.6164 1.78773L14.6681 2.01771C13.7433 2.2421 13.4182 2.4208 13.4182 2.70466C13.4182 2.76621 13.7137 3.17075 14.0749 3.60357L14.7316 4.39069L14.67 5.45744L14.6086 6.52419L14.8233 6.66495C15.0292 6.79986 15.0776 6.78977 16.0047 6.41712L16.9713 6.02852L17.9166 6.4085C18.8908 6.80012 19.1864 6.82098 19.307 6.50651C19.3349 6.43393 19.3224 5.93991 19.2792 5.40856C19.236 4.8773 19.2211 4.40956 19.246 4.36913C19.271 4.32879 19.5604 3.97786 19.8891 3.58926C20.4882 2.8812 20.6362 2.50501 20.379 2.34399C20.3198 2.30692 19.836 2.15917 19.3039 2.01565L18.3366 1.7548L17.7936 0.892777C17.3509 0.190231 17.2077 0.025757 17.0196 0.00386171C16.8342 -0.0176888 16.7391 0.0457558 16.5356 0.326688ZM2.38529 2.93671C1.73464 3.18644 1.01537 3.91338 0.739266 4.60007L0.531519 5.11668L0.505313 9.49135C0.48859 12.2957 0.511692 14.042 0.569706 14.3562C0.758402 15.3768 1.37087 16.1832 2.28125 16.61C2.74269 16.8263 2.86035 16.8419 4.23769 16.8683L5.70313 16.8965L5.67554 17.7123C5.65209 18.4085 5.67537 18.5846 5.83467 18.9138C6.15155 19.5682 6.99245 19.9053 7.66767 19.6486C7.78232 19.605 8.67244 18.9673 9.64566 18.2315L11.415 16.8935L13.7743 16.8669L16.1336 16.8402L16.6241 16.5993C17.2555 16.2892 17.917 15.5714 18.1532 14.9402C18.3228 14.4871 18.3317 14.291 18.3317 11.0398V7.61645L17.6523 7.34009L16.9728 7.06364L16.2571 7.36543C15.2916 7.77274 14.9423 7.80998 14.4577 7.5574C13.7918 7.21044 13.72 7.03717 13.7195 5.77647L13.7191 4.68291L13.1787 4.04088C12.8814 3.68771 12.5943 3.25196 12.5405 3.07248L12.4427 2.74612L7.6506 2.7506C2.99017 2.755 2.84544 2.76009 2.38529 2.93671ZM13.4119 7.88678C13.6254 8.15815 13.6365 8.33167 13.4564 8.58864L13.3223 8.78027H9.58222H5.84217L5.70804 8.58864C5.52495 8.32736 5.53951 8.03876 5.74623 7.83204C5.9132 7.66507 6.03354 7.65964 9.57593 7.65964H13.2333L13.4119 7.88678ZM10.1474 10.9219C10.4142 11.138 10.4142 11.5947 10.1474 11.8108C9.96944 11.9548 9.76738 11.9697 7.98955 11.9697C6.13569 11.9697 6.01561 11.9599 5.80096 11.791C5.49572 11.5511 5.49572 11.1816 5.80096 10.9416C6.01561 10.7727 6.13569 10.7629 7.98955 10.7629C9.76738 10.7629 9.96944 10.7778 10.1474 10.9219Z" fill="#FFCF23"/>
</svg>
