<svg width="28" height="29" viewBox="0 0 28 29" fill="none" xmlns="http://www.w3.org/2000/svg">
<path fillRule="evenodd" clipRule="evenodd" d="M14.001 0.0466309C6.27887 0.0466309 0.000976562 6.32453 0.000976562 14.0466C0.000976562 21.7687 6.27887 28.0466 14.001 28.0466C21.7231 28.0466 28.001 21.7687 28.001 14.0466C28.001 6.32453 21.7231 0.0466309 14.001 0.0466309ZM14.001 26.1898C7.31045 26.1898 1.85782 20.7372 1.85782 14.0466C1.85782 7.3561 7.31045 1.90347 14.001 1.90347C20.6915 1.90347 26.1441 7.3561 26.1441 14.0466C26.1441 20.7372 20.6915 26.1898 14.001 26.1898ZM14.001 3.26538C15.177 3.26538 16.297 3.46138 17.333 3.79738L16.297 6.96138C15.569 6.73738 14.813 6.59738 14.001 6.59738V3.26538ZM22.7082 7.71765L20.0202 9.67765C19.5722 9.03365 19.0122 8.47365 18.3682 8.02565L20.3282 5.33765C21.2522 6.00965 22.0362 6.79365 22.7082 7.71765ZM20.0205 18.4136L22.7085 20.3736C23.3805 19.4776 23.8845 18.4696 24.2485 17.3776L21.0845 16.3416C20.8605 17.0976 20.4965 17.7976 20.0205 18.4136ZM13.999 24.8266C12.851 24.8266 11.731 24.6306 10.667 24.2946L11.703 21.1306C12.431 21.3546 13.187 21.4946 13.999 21.4946V24.8266ZM7.97999 18.4138L5.29199 20.3738C5.96399 21.2978 6.74799 22.0818 7.67199 22.7538L9.63199 20.0658C8.98799 19.6178 8.42799 19.0578 7.97999 18.4138ZM3.21973 14.0466H6.55173C6.55173 14.8586 6.66373 15.6146 6.91573 16.3426L3.75173 17.3786C3.41573 16.3426 3.21973 15.2226 3.21973 14.0466ZM7.97898 9.67851L5.29098 7.71851C4.61898 8.61451 4.11498 9.62251 3.75098 10.7145L6.91498 11.7505C7.16698 10.9945 7.50298 10.2945 7.97898 9.67851ZM10.6689 3.79663L11.7049 6.96063C10.9489 7.21263 10.2489 7.54863 9.63285 8.02463L7.67285 5.33663C8.56885 4.66463 9.57685 4.16063 10.6689 3.79663ZM21.449 14.0446H24.781C24.781 12.8686 24.585 11.7486 24.249 10.7126L21.085 11.7486C21.337 12.4766 21.449 13.2326 21.449 14.0446ZM17.3319 24.2942L16.2959 21.1302C17.0519 20.8782 17.7519 20.5422 18.3679 20.0662L20.3279 22.7542C19.4319 23.4262 18.4239 23.9302 17.3319 24.2942ZM14.001 20.0466C10.6872 20.0466 8.00098 17.3604 8.00098 14.0466C8.00098 10.7328 10.6872 8.04663 14.001 8.04663C17.3148 8.04663 20.001 10.7328 20.001 14.0466C20.001 17.3604 17.3148 20.0466 14.001 20.0466ZM10.9884 13.419C10.888 13.3688 10.7625 13.3186 10.6119 13.3186C10.2102 13.3186 9.88382 13.645 9.88382 14.0466C9.88382 14.4483 10.2102 14.7747 10.6119 14.7747C10.7374 14.7747 10.888 14.7496 10.9884 14.6742C11.3399 14.4734 11.7667 14.3981 12.1934 14.3981H12.5951C12.7206 14.9253 13.1223 15.327 13.6495 15.4525V15.8542C13.6495 16.2809 13.5993 16.7077 13.3734 17.0592C13.3232 17.1596 13.2729 17.2851 13.2729 17.4358C13.2729 17.8374 13.5993 18.1638 14.001 18.1638C14.4026 18.1638 14.729 17.8374 14.729 17.4358C14.729 17.3102 14.7039 17.1596 14.6286 17.0592C14.4278 16.7077 14.3524 16.2809 14.3524 15.8542V15.4525C14.8796 15.327 15.2813 14.9253 15.4068 14.3981H15.8085C16.2353 14.3981 16.6621 14.4483 17.0135 14.6742C17.1139 14.7245 17.2395 14.7747 17.3901 14.7747C17.7918 14.7747 18.1181 14.4483 18.1181 14.0466C18.1181 13.645 17.7918 13.3186 17.3901 13.3186C17.2646 13.3186 17.1139 13.3437 17.0135 13.419C16.6621 13.6199 16.2353 13.6952 15.8085 13.6952H15.4068C15.2813 13.168 14.8796 12.7663 14.3524 12.6408V12.2391C14.3524 11.8123 14.4026 11.3855 14.6286 11.0341C14.6788 10.9337 14.729 10.8081 14.729 10.6575C14.729 10.2558 14.4026 9.92948 14.001 9.92948C13.5993 9.92948 13.2729 10.2558 13.2729 10.6575C13.2729 10.783 13.298 10.9337 13.3734 11.0341C13.5742 11.3855 13.6495 11.8123 13.6495 12.2391V12.6408C13.1223 12.7663 12.7206 13.168 12.5951 13.6952H12.1934C11.7667 13.6952 11.3399 13.645 10.9884 13.419Z" fill="#FFCF23"/>
</svg>
