<svg width="19" height="19" viewBox="0 0 19 19" fill="none" xmlns="http://www.w3.org/2000/svg">
<path fillRule="evenodd" clipRule="evenodd" d="M0.25 7.72106C0.25 11.8335 3.60084 15.1462 7.67516 15.1462C9.49785 15.1462 11.1681 14.4832 12.461 13.3822L17.5753 18.459L18.375 17.6593L13.299 12.5458C14.4072 11.2497 15.0832 9.56584 15.1003 7.72106C15.1003 3.60866 11.7876 0.295898 7.67516 0.295898C3.56276 0.295898 0.25 3.64674 0.25 7.72106ZM1.31618 7.75913C1.31618 4.25598 4.17201 1.40015 7.67516 1.40015C11.1402 1.40015 13.9961 4.25598 14.0341 7.75913C14.0341 11.2623 11.1783 14.1181 7.67516 14.1181C4.17201 14.1181 1.31618 11.2623 1.31618 7.75913Z" fill="white" fill-opacity="0.5"/>
</svg>
