<svg width="18" height="19" viewBox="0 0 18 19" fill="none" xmlns="http://www.w3.org/2000/svg">
<path fillRule="evenodd" clipRule="evenodd" d="M2 8.0459C2 4.7369 4.691 2.0459 8 2.0459C11.309 2.0459 14 4.7369 14 8.0459C14 11.3549 11.309 14.0459 8 14.0459C4.691 14.0459 2 11.3549 2 8.0459ZM17.707 16.3389L14.312 12.9429C15.365 11.5889 16 9.8919 16 8.0459C16 3.6349 12.411 0.0458984 8 0.0458984C3.589 0.0458984 0 3.6349 0 8.0459C0 12.4569 3.589 16.0459 8 16.0459C9.846 16.0459 11.543 15.4109 12.897 14.3579L16.293 17.7529C16.488 17.9479 16.744 18.0459 17 18.0459C17.256 18.0459 17.512 17.9479 17.707 17.7529C18.098 17.3619 18.098 16.7299 17.707 16.3389Z" fill="white"/>
</svg>
