<svg width="21" height="25" viewBox="0 0 21 25" fill="none" xmlns="http://www.w3.org/2000/svg">
<path fillRule="evenodd" clipRule="evenodd" d="M9.1608 0.567093C7.13659 2.34941 4.98749 3.21113 2.00584 3.43568C1.16671 3.49887 0.515852 3.59282 0.392187 3.66867C0.00487724 3.90606 -0.0339383 4.3575 0.0187531 8.01524C0.068163 11.4462 0.122542 12.16 0.463254 13.8435C1.39267 18.4363 4.09277 21.6525 8.61289 23.5508C9.25897 23.8221 9.9237 24.0449 10.0899 24.0459C10.7287 24.0496 12.946 23.0286 14.4016 22.0604C17.1835 20.2099 19.0625 17.3318 19.7695 13.8379C20.1089 12.1606 20.1636 11.4436 20.2129 8.01524C20.2656 4.3575 20.2267 3.90606 19.8394 3.66867C19.7158 3.59282 19.0649 3.49887 18.2258 3.43568C15.2441 3.21113 13.095 2.34941 11.0708 0.567093C10.5702 0.126342 10.4229 0.0458984 10.1158 0.0458984C9.80876 0.0458984 9.66146 0.126342 9.1608 0.567093ZM14.3122 9.94457C12.1593 12.0276 9.24218 14.6759 9.04642 14.725C8.91263 14.7586 8.70533 14.7615 8.58579 14.7315C8.4085 14.687 5.72639 11.8279 5.63714 11.5883C5.62335 11.5511 5.88287 11.2814 6.21402 10.9888L6.81594 10.457L7.82055 11.5801C8.37315 12.1977 8.86538 12.7031 8.9146 12.7031C8.96373 12.7031 10.0227 11.7324 11.2678 10.5461L13.5317 8.38905L14.1216 8.97371L14.7114 9.55829L14.3122 9.94457Z" fill="#FFCF23"/>
</svg>
