<svg width="11" height="13" viewBox="0 0 11 13" fill="none" xmlns="http://www.w3.org/2000/svg">
<path fillRule="evenodd" clipRule="evenodd" d="M4.95423 0.28109C3.71015 1.08276 1.93577 1.68365 0.56182 1.76853L0 1.80321L0.00434129 2.79917C0.00725253 3.45583 0.0385613 3.99523 0.0962755 4.38247C0.639708 8.02848 2.28318 10.5635 4.91796 11.8196L5.3927 12.0459L5.863 11.8199C7.90501 10.8388 9.33856 9.11688 10.1417 6.68052C10.5848 5.33639 10.7685 4.20014 10.7734 2.77363L10.7767 1.80321L10.2076 1.76761C8.84794 1.68257 7.16182 1.1159 5.85677 0.30535C5.62279 0.160043 5.40445 0.043287 5.37156 0.0459429C5.33867 0.0485477 5.15086 0.154374 4.95423 0.28109Z" fill="#FFCF23"/>
</svg>
