<svg width="28" height="30" viewBox="0 0 28 30" fill="none" xmlns="http://www.w3.org/2000/svg">
<path d="M19.6523 4.95051C19.9967 5.14606 20.4045 5.19746 20.7867 5.09349C21.1688 4.98951 21.4944 4.7386 21.6923 4.39551C21.856 4.10654 22.111 3.88009 22.4173 3.75168C22.7236 3.62326 23.0639 3.60013 23.3848 3.68592C23.7056 3.77172 23.9889 3.96157 24.1903 4.22572C24.3916 4.48988 24.4996 4.81338 24.4973 5.14551C24.4973 5.54333 24.3392 5.92486 24.0579 6.20617C23.7766 6.48747 23.3951 6.64551 22.9973 6.64551C22.5994 6.64551 22.2179 6.80354 21.9366 7.08485C21.6553 7.36615 21.4973 7.74768 21.4973 8.1455C21.4973 8.54333 21.6553 8.92486 21.9366 9.20616C22.2179 9.48747 22.5994 9.6455 22.9973 9.6455C23.7871 9.645 24.5628 9.43664 25.2466 9.04136C25.9303 8.64608 26.498 8.0778 26.8926 7.39363C27.2871 6.70946 27.4947 5.9335 27.4944 5.1437C27.4941 4.35391 27.2859 3.57811 26.8908 2.89426C26.4957 2.2104 25.9275 1.64258 25.2434 1.24785C24.5594 0.853121 23.7835 0.645381 22.9937 0.645508C22.2039 0.645634 21.428 0.853622 20.7441 1.24857C20.0601 1.64352 19.4922 2.21153 19.0973 2.89551C18.9981 3.06671 18.9338 3.25584 18.908 3.452C18.8822 3.64817 18.8955 3.8475 18.9471 4.03851C18.9987 4.22952 19.0875 4.40844 19.2086 4.56496C19.3296 4.72148 19.4804 4.85251 19.6523 4.95051ZM26.1023 15.6455C25.7085 15.5944 25.3106 15.7015 24.9957 15.9433C24.6808 16.1851 24.4746 16.5419 24.4223 16.9355C24.1075 19.4782 22.8739 21.8181 20.9537 23.5145C19.0336 25.2109 16.5594 26.1466 13.9973 26.1455H5.61228L6.58728 25.1705C6.86665 24.8895 7.02347 24.5093 7.02347 24.113C7.02347 23.7167 6.86665 23.3365 6.58728 23.0555C5.1247 21.5872 4.12936 19.7189 3.72662 17.6859C3.32388 15.653 3.53176 13.5463 4.32408 11.6312C5.11639 9.71622 6.45771 8.07848 8.17906 6.92434C9.90041 5.7702 11.9248 5.15126 13.9973 5.14551C14.3951 5.14551 14.7766 4.98747 15.0579 4.70617C15.3392 4.42486 15.4973 4.04333 15.4973 3.64551C15.4973 3.24768 15.3392 2.86615 15.0579 2.58485C14.7766 2.30354 14.3951 2.14551 13.9973 2.14551C11.4611 2.15609 8.97924 2.88086 6.83597 4.2368C4.6927 5.59273 2.97473 7.52499 1.87888 9.81219C0.783023 12.0994 0.353616 14.649 0.639848 17.169C0.92608 19.689 1.91637 22.0773 3.49728 24.0605L0.932279 26.5805C0.724143 26.7914 0.583149 27.0593 0.527088 27.3503C0.471026 27.6413 0.50241 27.9423 0.617279 28.2155C0.72981 28.4894 0.920906 28.7239 1.16649 28.8894C1.41207 29.0549 1.70114 29.144 1.99728 29.1455H13.9973C17.2845 29.1459 20.4589 27.947 22.925 25.7736C25.3911 23.6002 26.9795 20.6017 27.3923 17.3405C27.4197 17.1444 27.408 16.9448 27.3579 16.7532C27.3078 16.5616 27.2203 16.3819 27.1004 16.2243C26.9804 16.0667 26.8305 15.9344 26.6592 15.8351C26.4879 15.7358 26.2986 15.6713 26.1023 15.6455ZM23.5673 11.2505C23.2942 11.1297 22.9913 11.0931 22.6973 11.1455L22.4273 11.2355L22.1573 11.3705L21.9323 11.5655C21.7973 11.7037 21.6904 11.8667 21.6173 12.0455C21.5286 12.2326 21.4874 12.4387 21.4973 12.6455C21.4929 12.8456 21.5286 13.0445 21.6023 13.2305C21.6799 13.4105 21.792 13.5736 21.9323 13.7105C22.0724 13.8495 22.2387 13.9595 22.4214 14.0342C22.6042 14.1088 22.7999 14.1466 22.9973 14.1455C23.3951 14.1455 23.7766 13.9875 24.0579 13.7062C24.3392 13.4249 24.4973 13.0433 24.4973 12.6455C24.5023 12.4487 24.4612 12.2535 24.3773 12.0755C24.2161 11.7151 23.9277 11.4267 23.5673 11.2655V11.2505Z" fill="white"/>
</svg>
