<svg width="23" height="22" viewBox="0 0 23 22" fill="none" xmlns="http://www.w3.org/2000/svg">
<path d="M11.5 15C10.7044 15 9.94129 14.6839 9.37868 14.1213C8.81608 13.5587 8.50001 12.7956 8.50001 12C8.50001 10.88 9.11001 9.9 10 9.39L19.71 3.77L14.18 13.35C13.68 14.33 12.67 15 11.5 15ZM11.5 2C13.31 2 15 2.5 16.47 3.32L14.37 4.53C13.5 4.19 12.5 4 11.5 4C9.37827 4 7.34344 4.84285 5.84315 6.34315C4.34286 7.84344 3.50001 9.87827 3.50001 12C3.50001 14.21 4.39001 16.21 5.84001 17.65H5.85001C6.24001 18.04 6.24001 18.67 5.85001 19.06C5.46001 19.45 4.82 19.45 4.43001 19.07C3.50002 18.1426 2.76244 17.0406 2.25962 15.8273C1.7568 14.614 1.49865 13.3134 1.50001 12C1.50001 9.34784 2.55357 6.8043 4.42894 4.92893C6.3043 3.05357 8.84784 2 11.5 2ZM21.5 12C21.5 14.76 20.38 17.26 18.57 19.07C18.18 19.45 17.55 19.45 17.16 19.06C17.0673 18.9675 16.9938 18.8576 16.9436 18.7366C16.8934 18.6157 16.8676 18.486 16.8676 18.355C16.8676 18.224 16.8934 18.0943 16.9436 17.9734C16.9938 17.8524 17.0673 17.7425 17.16 17.65C17.9037 16.9093 18.4934 16.0287 18.895 15.059C19.2966 14.0893 19.5023 13.0496 19.5 12C19.5 11 19.31 10 18.96 9.1L20.17 7C21 8.5 21.5 10.18 21.5 12Z" fill="#76DBA1"/>
</svg>
