<svg width="22" height="22" viewBox="0 0 22 22" fill="none" xmlns="http://www.w3.org/2000/svg">
<path d="M11 15C12.66 15 14 13.66 14 12C14 10.88 13.39 9.9 12.5 9.39L2.79 3.77L8.32 13.35C8.82 14.33 9.83 15 11 15ZM11 2C9.19 2 7.5 2.5 6.03 3.32L8.13 4.53C9 4.19 10 4 11 4C15.42 4 19 7.58 19 12C19 14.21 18.11 16.21 16.66 17.65H16.65C16.5573 17.7425 16.4837 17.8524 16.4336 17.9734C16.3834 18.0943 16.3576 18.224 16.3576 18.355C16.3576 18.486 16.3834 18.6157 16.4336 18.7366C16.4837 18.8576 16.5573 18.9675 16.65 19.06C17.04 19.45 17.68 19.45 18.07 19.07C19 18.1426 19.7376 17.0406 20.2404 15.8273C20.7432 14.614 21.0014 13.3134 21 12C21 6.5 16.5 2 11 2ZM1 12C1 14.76 2.12 17.26 3.93 19.07C4.32 19.45 4.95 19.45 5.34 19.06C5.4327 18.9675 5.50625 18.8576 5.55643 18.7366C5.60661 18.6157 5.63244 18.486 5.63244 18.355C5.63244 18.224 5.60661 18.0943 5.55643 17.9734C5.50625 17.8524 5.4327 17.7425 5.34 17.65C4.5963 16.9093 4.00662 16.0287 3.605 15.059C3.20338 14.0893 2.99775 13.0496 3 12C3 11 3.19 10 3.54 9.1L2.33 7C1.5 8.5 1 10.18 1 12Z" fill="#FF3232"/>
</svg>
