<svg width="23" height="22" viewBox="0 0 23 22" fill="none" xmlns="http://www.w3.org/2000/svg">
<path d="M11.5 0.378906L8.64 11.0589C8.3 12.0989 8.54 13.2889 9.36 14.1189C9.92421 14.6813 10.6884 14.9971 11.485 14.9971C12.2816 14.9971 13.0458 14.6813 13.61 14.1189C14.4 13.3289 14.66 12.1989 14.39 11.2089M14.1 2.34891L14.72 4.67891C16.1418 5.30267 17.3511 6.32717 18.2 7.62715C19.0489 8.92714 19.5006 10.4463 19.5 11.9989C19.5 14.2089 18.61 16.2089 17.16 17.6489H17.15C17.0573 17.7414 16.9837 17.8513 16.9336 17.9723C16.8834 18.0933 16.8576 18.2229 16.8576 18.3539C16.8576 18.4849 16.8834 18.6146 16.9336 18.7355C16.9837 18.8565 17.0573 18.9664 17.15 19.0589C17.54 19.4489 18.18 19.4489 18.57 19.0689C19.5 18.1415 20.2376 17.0395 20.7404 15.8262C21.2432 14.6129 21.5014 13.3123 21.5 11.9989C21.5 7.37891 18.36 3.49891 14.1 2.34891ZM8.9 2.35891C4.65 3.49891 1.5 7.39891 1.5 11.9989C1.5 14.7589 2.62 17.2589 4.43 19.0689C4.82 19.4489 5.45 19.4489 5.84 19.0589C5.9327 18.9664 6.00625 18.8565 6.05643 18.7355C6.10661 18.6146 6.13244 18.4849 6.13244 18.3539C6.13244 18.2229 6.10661 18.0933 6.05643 17.9723C6.00625 17.8513 5.9327 17.7414 5.84 17.6489C5.0963 16.9082 4.50662 16.0276 4.105 15.0579C3.70338 14.0882 3.49775 13.0485 3.5 11.9989C3.5 8.64891 5.44 5.85891 8.29 4.64891" fill="#FFCF23"/>
</svg>
