<svg width="12" height="11" viewBox="0 0 12 11" fill="none" xmlns="http://www.w3.org/2000/svg">
<path d="M5.71468 0.924014C5.80449 0.647621 6.19551 0.64762 6.28532 0.924014L7.27973 3.9845C7.31989 4.10811 7.43508 4.1918 7.56505 4.1918H10.783C11.0737 4.1918 11.1945 4.56368 10.9594 4.7345L8.35596 6.62599C8.25082 6.70238 8.20682 6.83779 8.24698 6.9614L9.24139 10.0219C9.3312 10.2983 9.01486 10.5281 8.77974 10.3573L6.17634 8.46581C6.07119 8.38942 5.92881 8.38942 5.82366 8.46581L3.22026 10.3573C2.98514 10.5281 2.6688 10.2983 2.75861 10.0219L3.75302 6.9614C3.79318 6.83779 3.74918 6.70238 3.64404 6.62599L1.04063 4.7345C0.805517 4.56368 0.926349 4.1918 1.21697 4.1918H4.43495C4.56492 4.1918 4.68011 4.10811 4.72027 3.9845L5.71468 0.924014Z" fill="#FFCF23"/>
</svg>
