<svg width="64" height="64" viewBox="0 0 64 64" fill="none" xmlns="http://www.w3.org/2000/svg">
<path fillRule="evenodd" clipRule="evenodd" d="M30.6806 0.659794C30.3177 1.02268 30.0208 1.61649 30.0208 1.97938C30.0208 2.34227 30.3177 2.93608 30.6806 3.29897C31.0435 3.66186 31.6373 3.95876 32.0002 3.95876C32.3631 3.95876 32.9569 3.66186 33.3198 3.29897C33.6827 2.93608 33.9796 2.34227 33.9796 1.97938C33.9796 1.61649 33.6827 1.02268 33.3198 0.659794C32.9569 0.296907 32.3631 0 32.0002 0C31.6373 0 31.0435 0.296907 30.6806 0.659794ZM24.9044 13.7732C21.7302 18.5362 19.0013 22.433 18.8403 22.433C18.6793 22.433 15.3295 19.5975 11.3961 16.1323C7.46245 12.6667 4.18327 9.89229 4.10905 9.96684C4.03449 10.0414 5.63911 15.1033 7.67457 21.216L11.3754 32.3299H32.0002H52.625L56.3258 21.216C58.3613 15.1033 59.9675 10.0427 59.8949 9.97014C59.8224 9.89757 56.5435 12.672 52.6092 16.1356C48.6745 19.5992 45.3234 22.433 45.1627 22.433C45.0017 22.433 42.2817 18.5527 39.1187 13.8101L33.3676 5.18697L32.022 5.15035L30.6763 5.1134L24.9044 13.7732ZM0.989872 5.93814C0.626985 6.30103 0.330078 6.89485 0.330078 7.25773C0.330078 8.10755 1.45965 9.23711 2.30946 9.23711C2.67235 9.23711 3.26616 8.94021 3.62905 8.57732C3.99193 8.21443 4.28884 7.62062 4.28884 7.25773C4.28884 6.89485 3.99193 6.30103 3.62905 5.93814C3.26616 5.57526 2.67235 5.27835 2.30946 5.27835C1.94657 5.27835 1.35276 5.57526 0.989872 5.93814ZM60.3713 5.93814C60.0084 6.30103 59.7115 6.89485 59.7115 7.25773C59.7115 7.62062 60.0084 8.21443 60.3713 8.57732C60.7342 8.94021 61.328 9.23711 61.6909 9.23711C62.0538 9.23711 62.6476 8.94021 63.0105 8.57732C63.3734 8.21443 63.6703 7.62062 63.6703 7.25773C63.6703 6.89485 63.3734 6.30103 63.0105 5.93814C62.6476 5.57526 62.0538 5.27835 61.6909 5.27835C61.328 5.27835 60.7342 5.57526 60.3713 5.93814ZM16.5082 9.05633C15.6317 10.1123 16.9189 11.7344 18.062 11.0146C19.2041 10.2951 18.7974 8.57732 17.4847 8.57732C17.1664 8.57732 16.7269 8.79274 16.5082 9.05633ZM45.5391 9.05633C44.6626 10.1123 45.9499 11.7344 47.093 11.0146C48.2351 10.2951 47.8283 8.57732 46.5156 8.57732C46.1973 8.57732 45.7579 8.79274 45.5391 9.05633ZM14.6733 14.0968C13.3415 16.1026 13.3122 16.2619 14.1613 16.867C14.5107 17.116 15.6782 18.0962 16.756 19.0456L18.7152 20.7716L20.2169 18.5135L21.7186 16.2553L20.4442 14.3363C19.1761 12.4266 19.1622 12.4173 17.4953 12.3932C15.8329 12.3692 15.8121 12.3817 14.6733 14.0968ZM43.5654 14.3152L42.286 16.2619L43.7857 18.5168L45.2851 20.7716L47.2444 19.0456C48.3222 18.0962 49.4897 17.116 49.839 16.867C50.6905 16.2606 50.6572 16.0805 49.3323 14.113C48.2149 12.4539 48.1539 12.4167 46.5173 12.3929L44.8447 12.3688L43.5654 14.3152ZM9.0575 33.7996C8.54682 34.3099 8.2476 34.9862 8.2476 35.6289C8.2476 36.2715 8.54682 36.9478 9.0575 37.4581L9.86707 38.268H32.0002H54.1333L54.9429 37.4581C56.0144 36.387 56.0144 34.8708 54.9429 33.7996L54.1333 32.9897H32.0002H9.86707L9.0575 33.7996ZM9.30327 42.6227C9.08554 42.8404 8.9074 43.2158 8.9074 43.4567C8.9074 44.1138 13.8799 62.7553 14.2333 63.4227C14.4787 63.8865 14.9828 64 16.7962 64C18.2029 64 19.1801 63.8446 19.3892 63.5876C19.766 63.1251 24.7424 44.5638 24.7424 43.6216C24.7424 42.5973 24.0269 42.2268 22.0488 42.2268C20.5729 42.2268 20.0794 42.3561 19.8441 42.8041C19.6775 43.1218 18.9795 46.0952 18.2923 49.4123C17.6055 52.7294 16.9407 55.3273 16.8157 55.1855C16.6903 55.0436 16.0292 52.2557 15.3463 48.9897C14.6634 45.7237 13.9565 42.8661 13.775 42.6392C13.3495 42.1071 9.83177 42.0942 9.30327 42.6227ZM29.7569 42.6227C29.1911 43.1884 29.1911 63.0383 29.7569 63.6041C29.9746 63.8219 30.9841 64 32.0002 64C33.0163 64 34.0257 63.8219 34.2435 63.6041C34.8093 63.0383 34.8093 43.1884 34.2435 42.6227C34.0257 42.4049 33.0163 42.2268 32.0002 42.2268C30.9841 42.2268 29.9746 42.4049 29.7569 42.6227ZM38.994 42.6227C38.4282 43.1884 38.4282 63.0383 38.994 63.6041C39.2117 63.8219 40.2212 64 41.2373 64C42.2534 64 43.2629 63.8219 43.4806 63.6041C43.7208 63.364 43.8765 62.1965 43.8765 60.6351V58.0619H46.127C49.9819 58.0619 52.7797 56.5681 54.3438 53.6752C55.1306 52.2194 55.1306 48.0693 54.3438 46.6134C53.4501 44.96 51.5492 43.3075 49.8921 42.7428C47.9867 42.0935 39.6155 42.0012 38.994 42.6227ZM48.3152 47.71C49.0964 48.0099 49.9001 49.7597 49.6724 50.6656C49.2927 52.1785 48.2318 52.7835 45.9585 52.7835H43.8765V50.1443V47.5052H45.8288C46.9026 47.5052 48.0216 47.5975 48.3152 47.71Z" fill="#FFCF23"/>
</svg>
