<svg width="20" height="21" viewBox="0 0 20 21" fill="none" xmlns="http://www.w3.org/2000/svg">
<path d="M17.5318 4.74982C15.0811 2.99714 12.7333 3.04624 12.7333 3.04624L12.4933 3.30823C15.4067 4.14373 16.7606 5.37221 16.7606 5.37221C12.5925 3.17864 7.28306 3.19434 2.94754 5.37221C2.94754 5.37221 4.35278 4.07813 7.43758 3.24263L7.26622 3.04604C7.26622 3.04604 4.93551 2.99694 2.46776 4.74962C2.46776 4.74962 0 8.99228 0 14.2177C0 14.2177 1.43956 16.5765 5.22709 16.6912C5.22709 16.6912 5.86118 15.9704 6.37528 15.348C4.19868 14.7256 3.37617 13.4315 3.37617 13.4315C4.74352 14.2493 6.12623 14.7612 7.84916 15.086C10.6525 15.6376 14.1394 15.0705 16.7436 13.4315C16.7436 13.4315 15.8867 14.7584 13.6417 15.3645C14.1558 15.9706 14.7729 16.6749 14.7729 16.6749C18.56 16.5604 19.9995 14.2016 19.9995 14.2179C19.9995 8.99248 17.5318 4.74982 17.5318 4.74982ZM6.80349 12.6946C5.84371 12.6946 5.05551 11.8919 5.05551 10.8927C5.12562 8.49967 8.49904 8.50712 8.55167 10.8927C8.55146 11.8919 7.78032 12.6946 6.80349 12.6946ZM13.0588 12.6946C12.099 12.6946 11.3108 11.8919 11.3108 10.8927C11.3878 8.5043 14.7192 8.5033 14.807 10.8927C14.8067 11.8919 14.0356 12.6946 13.0588 12.6946Z" fill="white" fill-opacity="0.5"/>
</svg>
