<svg width="20" height="21" viewBox="0 0 20 21" fill="none" xmlns="http://www.w3.org/2000/svg">
<path d="M6.66731 10.0459C6.66731 8.20502 8.15925 6.7123 10.0002 6.7123C11.8411 6.7123 13.3338 8.20502 13.3338 10.0459C13.3338 11.8868 11.8411 13.3795 10.0002 13.3795C8.15925 13.3795 6.66731 11.8868 6.66731 10.0459ZM4.8652 10.0459C4.8652 12.8819 7.16411 15.1808 10.0002 15.1808C12.8362 15.1808 15.1351 12.8819 15.1351 10.0459C15.1351 7.2099 12.8362 4.91102 10.0002 4.91102C7.16411 4.91102 4.8652 7.2099 4.8652 10.0459ZM14.1384 4.70742C14.1383 4.94476 14.2086 5.17679 14.3404 5.37418C14.4721 5.57158 14.6595 5.72546 14.8787 5.81637C15.098 5.90728 15.3392 5.93114 15.572 5.88493C15.8048 5.83873 16.0187 5.72452 16.1866 5.55677C16.3545 5.38901 16.4689 5.17524 16.5153 4.94248C16.5617 4.70972 16.538 4.46843 16.4473 4.24912C16.3565 4.02981 16.2028 3.84234 16.0055 3.7104C15.8082 3.57847 15.5762 3.50799 15.3389 3.5079H15.3384C15.0203 3.50805 14.7152 3.63446 14.4902 3.85936C14.2652 4.08427 14.1387 4.38929 14.1384 4.70742ZM5.9601 18.1857C4.98512 18.1413 4.45519 17.9789 4.10303 17.8417C3.63614 17.6599 3.30301 17.4434 2.95277 17.0937C2.60252 16.7439 2.38572 16.4111 2.20476 15.9442C2.06747 15.5922 1.90507 15.0621 1.86075 14.0872C1.81227 13.0331 1.80259 12.7165 1.80259 10.046C1.80259 7.3755 1.81307 7.05974 1.86075 6.00478C1.90515 5.02982 2.06875 4.50078 2.20476 4.14774C2.38652 3.68086 2.603 3.34774 2.95277 2.9975C3.30253 2.64726 3.63534 2.43046 4.10303 2.2495C4.45503 2.11222 4.98512 1.94982 5.9601 1.9055C7.01419 1.85702 7.33084 1.84734 10.0002 1.84734C12.6695 1.84734 12.9864 1.85782 14.0414 1.9055C15.0164 1.9499 15.5454 2.1135 15.8985 2.2495C16.3654 2.43046 16.6985 2.64774 17.0488 2.9975C17.399 3.34726 17.615 3.68086 17.7968 4.14774C17.934 4.49974 18.0965 5.02982 18.1408 6.00478C18.1893 7.05974 18.1989 7.3755 18.1989 10.046C18.1989 12.7165 18.1893 13.0322 18.1408 14.0872C18.0964 15.0621 17.9332 15.5921 17.7968 15.9442C17.615 16.4111 17.3985 16.7442 17.0488 17.0937C16.699 17.4431 16.3654 17.6599 15.8985 17.8417C15.5465 17.9789 15.0164 18.1413 14.0414 18.1857C12.9873 18.2341 12.6707 18.2438 10.0002 18.2438C7.32964 18.2438 7.01387 18.2341 5.9601 18.1857ZM5.87729 0.106458C4.81272 0.154938 4.08527 0.323738 3.44998 0.570938C2.79204 0.826218 2.23508 1.1687 1.67851 1.72438C1.12194 2.28006 0.780332 2.8379 0.525048 3.49582C0.277844 4.1315 0.109042 4.85854 0.060561 5.9231C0.0112802 6.98934 0 7.33022 0 10.0459C0 12.7616 0.0112802 13.1025 0.060561 14.1687C0.109042 15.2333 0.277844 15.9603 0.525048 16.596C0.780332 17.2535 1.12202 17.812 1.67851 18.3674C2.235 18.9229 2.79204 19.2649 3.44998 19.5209C4.08647 19.7681 4.81272 19.9369 5.87729 19.9853C6.94411 20.0338 7.28444 20.0459 10.0002 20.0459C12.7159 20.0459 13.0568 20.0346 14.123 19.9853C15.1877 19.9369 15.9147 19.7681 16.5503 19.5209C17.2079 19.2649 17.7652 18.9231 18.3218 18.3674C18.8784 17.8117 19.2193 17.2535 19.4753 16.596C19.7225 15.9603 19.8921 15.2333 19.9398 14.1687C19.9882 13.1017 19.9995 12.7616 19.9995 10.0459C19.9995 7.33022 19.9882 6.98934 19.9398 5.9231C19.8913 4.85846 19.7225 4.1311 19.4753 3.49582C19.2193 2.8383 18.8775 2.28094 18.3218 1.72438C17.7661 1.16782 17.2079 0.826218 16.5511 0.570938C15.9147 0.323738 15.1876 0.154138 14.1238 0.106458C13.0576 0.0579784 12.7167 0.0458984 10.001 0.0458984C7.28524 0.0458984 6.94411 0.0571784 5.87729 0.106458Z" fill="white" fill-opacity="0.5"/>
</svg>
