<svg width="20" height="21" viewBox="0 0 20 21" fill="none" xmlns="http://www.w3.org/2000/svg">
<path d="M6.62765 13.093C6.56098 13.2297 6.56098 13.3647 6.56098 13.5005C6.62765 13.9339 7.00097 14.2526 7.43764 14.2467H8.51595V18.2511C8.51595 18.6586 8.17928 18.9973 7.77429 18.9973H5.481C5.28484 18.9954 5.0973 18.916 4.95874 18.7763C4.82019 18.6365 4.74169 18.4477 4.74017 18.2503V14.2475H0.826906C0.220248 14.2475 -0.184745 13.6364 0.0852507 13.093L5.88516 2.50598C5.96196 2.36656 6.07444 2.25037 6.21094 2.16947C6.34744 2.08857 6.50297 2.0459 6.66139 2.0459C6.81981 2.0459 6.97535 2.08857 7.11185 2.16947C7.24835 2.25037 7.36084 2.36656 7.43764 2.50598L9.86509 7.18868L6.62765 13.093ZM19.9149 13.093L14.115 2.50598C14.0382 2.36677 13.9257 2.25077 13.7892 2.17001C13.6529 2.08924 13.4975 2.04665 13.3392 2.04665C13.1809 2.04665 13.0255 2.08924 12.8891 2.17001C12.7527 2.25077 12.6402 2.36677 12.5634 2.50598L10.0676 7.18953L13.305 13.0922C13.3725 13.2297 13.3725 13.3655 13.3725 13.5005C13.3058 13.9339 12.9317 14.2526 12.4958 14.2467H11.4159V18.2511C11.4201 18.6619 11.7492 18.9948 12.1575 18.9973H14.5858C14.7822 18.9956 14.9699 18.9164 15.109 18.7769C15.2479 18.6374 15.327 18.4486 15.3292 18.2511V14.2475H19.1724C19.7808 14.2475 20.1849 13.6364 19.9149 13.093Z" fill="white" fill-opacity="0.5"/>
</svg>
