<svg width="20" height="21" viewBox="0 0 20 21" fill="none" xmlns="http://www.w3.org/2000/svg">
<path fillRule="evenodd" clipRule="evenodd" d="M1.90487 4.46901C3.27219 4.70175 4.46495 4.03263 4.75587 2.86896C5.13406 1.32709 4.05767 0.0179587 2.42852 0.0470505C1.35212 0.0179587 0.508459 0.541612 0.159357 1.41437C-0.364296 2.81078 0.450276 4.23628 1.90487 4.46901ZM19.679 19.1595C18.4572 19.1304 17.2645 19.1304 16.0426 19.1595C15.7808 19.1595 15.7226 19.1013 15.7226 18.8395V12.352C15.7226 11.8574 15.6935 11.3629 15.5481 10.8974C15.1117 9.38462 13.3662 8.83187 12.1153 9.85009C11.4462 10.3737 11.1844 11.101 11.1844 11.9738V18.0831C11.1844 18.1693 11.1812 18.2555 11.178 18.3428C11.1715 18.5205 11.1649 18.7025 11.1844 18.8977C11.2135 19.1304 11.0971 19.1886 10.8935 19.1595H7.16982C6.93709 19.1595 6.87891 19.1013 6.87891 18.8686C6.908 17.0358 6.908 15.203 6.908 13.3411C6.908 11.0719 6.908 8.80278 6.87891 6.56271C6.87891 6.30088 6.93709 6.2427 7.16982 6.2427H10.8935C11.1262 6.2427 11.1844 6.30088 11.1844 6.53362V8.0173L11.3299 7.87184C12.4644 6.21361 14.0644 5.74814 15.9553 6.03906C18.1372 6.38816 19.5336 7.90093 19.8827 10.2283C19.9699 10.781 19.999 11.3338 19.999 11.8865V18.8395C19.999 19.0722 19.9408 19.1595 19.679 19.1595ZM4.55189 12.7016V18.8108C4.55189 19.0727 4.49371 19.1599 4.23188 19.1599C3.41731 19.1406 2.60274 19.147 1.78817 19.1535C1.38088 19.1567 0.973595 19.1599 0.566309 19.1599C0.333574 19.1599 0.275391 19.1018 0.275391 18.869V6.53408C0.275391 6.33044 0.333574 6.24316 0.566309 6.24316H4.31916C4.58099 6.24316 4.61008 6.33044 4.61008 6.56317C4.55189 8.5996 4.55189 10.636 4.55189 12.7016Z" fill="white" fill-opacity="0.5"/>
</svg>
