<svg width="20" height="21" viewBox="0 0 20 21" fill="none" xmlns="http://www.w3.org/2000/svg">
<path fillRule="evenodd" clipRule="evenodd" d="M19.6037 8.88721C19.8464 9.23352 19.9838 9.64266 19.9993 10.0653C20.0057 10.479 19.8948 10.886 19.6796 11.2394C19.4644 11.5928 19.1536 11.878 18.7831 12.0622C18.8 12.2821 18.8 12.5029 18.7831 12.7228C18.7831 16.086 14.8645 18.8186 10.03 18.8186C5.19553 18.8186 1.2769 16.086 1.2769 12.7228C1.25999 12.5029 1.25999 12.2821 1.2769 12.0622C0.988118 11.9295 0.731641 11.7356 0.525241 11.494C0.31884 11.2523 0.167451 10.9687 0.081566 10.6627C-0.00431937 10.3567 -0.0226474 10.0357 0.027852 9.72193C0.0783514 9.40816 0.196471 9.10913 0.374024 8.84555C0.551577 8.58197 0.784318 8.36015 1.05612 8.19547C1.32792 8.03078 1.63227 7.92716 1.9481 7.89179C2.26392 7.85643 2.58366 7.89016 2.88515 7.99065C3.18665 8.09114 3.46268 8.25599 3.69414 8.47376C5.42415 7.30044 7.45945 6.65852 9.54957 6.62701L10.6606 1.41705C10.6731 1.35674 10.6974 1.2995 10.7322 1.24866C10.7669 1.19781 10.8114 1.15437 10.8631 1.12085C10.9148 1.08734 10.9726 1.06441 11.0332 1.0534C11.0938 1.04239 11.156 1.04351 11.2161 1.05671L14.8945 1.79241C15.0742 1.48377 15.3579 1.24927 15.6949 1.131C16.0318 1.01272 16.3999 1.01842 16.733 1.14708C17.0661 1.27573 17.3425 1.5189 17.5125 1.83296C17.6825 2.14701 17.735 2.51137 17.6605 2.86064C17.5861 3.2099 17.3896 3.5212 17.1064 3.73866C16.8231 3.95611 16.4716 4.06548 16.115 4.04713C15.7583 4.02878 15.4199 3.88392 15.1605 3.63854C14.901 3.39316 14.7375 3.06334 14.6993 2.70828L11.4864 2.03264L10.5105 6.71709C12.5752 6.76139 14.5829 7.40282 16.2908 8.56385C16.5959 8.27101 16.9792 8.07268 17.3945 7.99277C17.8098 7.91286 18.2393 7.95479 18.6313 8.11349C19.0233 8.27219 19.361 8.5409 19.6037 8.88721ZM13.4452 13.0662C14.2739 13.0662 14.9457 12.3944 14.9457 11.5657C14.9457 10.737 14.2739 10.0653 13.4452 10.0653C12.6166 10.0653 11.9448 10.737 11.9448 11.5657C11.9448 12.3944 12.6166 13.0662 13.4452 13.0662ZM7.99113 11.5657C7.99113 12.3944 7.31935 13.0662 6.49068 13.0662C5.662 13.0662 4.99023 12.3944 4.99023 11.5657C4.99023 10.737 5.662 10.0653 6.49068 10.0653C7.31935 10.0653 7.99113 10.737 7.99113 11.5657ZM10 16.0534L9.98941 16.0534L9.9852 16.0534V16.0535C8.91505 16.0599 8.12373 15.8202 7.60582 15.5853C7.34491 15.467 7.15236 15.3494 7.02797 15.2641C6.96579 15.2215 6.92071 15.187 6.89273 15.1645C6.87874 15.1533 6.86903 15.1451 6.86361 15.1404L6.85921 15.1366C6.85918 15.1366 6.85915 15.1366 6.85912 15.1365C6.69372 14.9856 6.43728 14.9968 6.28566 15.1618C6.1337 15.3272 6.14457 15.5844 6.30993 15.7364L6.31057 15.737L6.31133 15.7376L6.31315 15.7393L6.31809 15.7437L6.33312 15.7569C6.34543 15.7675 6.36233 15.7816 6.38381 15.7989C6.42678 15.8334 6.48816 15.8801 6.56802 15.9349C6.72772 16.0444 6.96158 16.1862 7.26995 16.326C7.88458 16.6047 8.7913 16.8738 9.98903 16.8667C11.1903 16.8749 12.0994 16.6053 12.7152 16.326C13.0236 16.1862 13.2575 16.0444 13.4172 15.9349C13.497 15.8801 13.5584 15.8334 13.6014 15.7989C13.6229 15.7817 13.6398 15.7675 13.6521 15.7569L13.6671 15.7438L13.672 15.7394L13.6739 15.7377L13.6746 15.737L13.6753 15.7364C13.8406 15.5845 13.8515 15.3272 13.6995 15.1619C13.5479 14.9968 13.2914 14.9857 13.126 15.1367L13.1216 15.1405C13.1162 15.1451 13.1065 15.1533 13.0925 15.1646C13.0645 15.187 13.0194 15.2215 12.9572 15.2642C12.8328 15.3495 12.6403 15.4671 12.3794 15.5854C11.8615 15.8202 11.0702 16.06 10 16.0535V16.0534Z" fill="white" fill-opacity="0.5"/>
</svg>
