<svg width="20" height="21" viewBox="0 0 20 21" fill="none" xmlns="http://www.w3.org/2000/svg">
<path d="M18.8062 8.61996V5.12887C17.1437 5.12887 15.875 4.69249 15.0563 3.8443C14.216 2.87629 13.7452 1.65041 13.7251 0.377798V0.1258L10.3689 0.0458984V14.2254C10.2538 14.844 9.94841 15.4131 9.49402 15.8556C9.03963 16.2982 8.4581 16.593 7.82793 16.7003C7.19777 16.8075 6.54931 16.7221 5.97011 16.4554C5.3909 16.1887 4.90884 15.7537 4.589 15.2091C4.26915 14.6645 4.12693 14.0364 4.18152 13.4098C4.23612 12.7832 4.4849 12.1881 4.89429 11.7049C5.30368 11.2217 5.85397 10.8737 6.47086 10.7078C7.08774 10.5419 7.74153 10.5662 8.34396 10.7773V7.39685C7.99271 7.34025 7.63741 7.31148 7.28149 7.3108C6.00088 7.3108 4.74904 7.68425 3.68426 8.38393C2.61947 9.0836 1.78958 10.0781 1.29951 11.2416C0.809446 12.4051 0.681223 13.6854 0.931056 14.9206C1.18089 16.1558 1.79756 17.2904 2.70308 18.1809C3.6086 19.0714 4.76231 19.6779 6.01831 19.9235C7.2743 20.1692 8.57618 20.0431 9.7593 19.5612C10.9424 19.0793 11.9537 18.2631 12.6651 17.216C13.3766 16.1688 13.7563 14.9377 13.7563 13.6783C13.7556 13.4174 13.7389 13.1567 13.7063 12.8978V7.27392C15.2324 8.2112 17.008 8.67983 18.8062 8.61996Z" fill="white" fill-opacity="0.5"/>
</svg>
