<svg width="20" height="21" viewBox="0 0 20 21" fill="none" xmlns="http://www.w3.org/2000/svg">
<path d="M19.9995 3.98128C19.2472 4.31142 18.4516 4.53083 17.6371 4.63275C18.4954 4.12041 19.1371 3.30914 19.4408 2.3526C18.6371 2.8322 17.7577 3.16993 16.8408 3.35119C16.2787 2.74723 15.5489 2.32735 14.7465 2.14609C13.9441 1.96483 13.106 2.03057 12.3412 2.33477C11.5764 2.63898 10.9201 3.16758 10.4578 3.85191C9.99542 4.53624 9.7483 5.34465 9.74852 6.17213C9.74852 6.49912 9.77602 6.81354 9.84351 7.11286C8.2124 7.0324 6.61654 6.60646 5.16025 5.86289C3.70397 5.11932 2.42006 4.07487 1.39247 2.79782C0.866003 3.70567 0.703244 4.78129 0.937331 5.80565C1.17142 6.83001 1.78475 7.72609 2.65244 8.31142C2.0034 8.29391 1.36806 8.11964 0.799981 7.80332V7.8486C0.801068 8.80119 1.1283 9.72432 1.72661 10.4626C2.32491 11.2009 3.15774 11.7092 4.0849 11.9021C3.73414 11.9951 3.37265 12.0407 3.00993 12.0379C2.74942 12.0425 2.48917 12.0189 2.2337 11.9674C2.49862 12.7862 3.00929 13.5022 3.6954 14.0169C4.38152 14.5315 5.20933 14.8195 6.06485 14.8412C4.61356 15.9832 2.82365 16.6027 0.981226 16.6007C0.644985 16.6007 0.322492 16.5856 0 16.5441C1.87481 17.7597 4.0595 18.4027 6.28985 18.3954C13.8347 18.3954 17.9596 12.107 17.9596 6.65633C17.9596 6.47397 17.9533 6.2979 17.9446 6.12308C18.7533 5.54076 19.4496 4.81496 19.9995 3.98128Z" fill="white" fill-opacity="0.5"/>
</svg>
