<svg width="20" height="21" viewBox="0 0 20 21" fill="none" xmlns="http://www.w3.org/2000/svg">
<path fillRule="evenodd" clipRule="evenodd" d="M19.1495 4.37902C18.6071 3.40811 18.0183 3.22952 16.8196 3.1616C15.6221 3.07986 12.6109 3.0459 10.0023 3.0459C7.38857 3.0459 4.37614 3.07986 3.17992 3.16035C1.9837 3.22952 1.39372 3.40685 0.84623 4.37902C0.287493 5.34868 0 7.01886 0 9.95928V9.96934C0 12.8972 0.287493 14.5799 0.84623 15.5395C1.39372 16.5105 1.98245 16.6865 3.17867 16.7683C4.37614 16.8387 7.38857 16.8802 10.0023 16.8802C12.6109 16.8802 15.6221 16.8387 16.8208 16.7695C18.0196 16.6878 18.6083 16.5117 19.1508 15.5408C19.7145 14.5812 19.9995 12.8984 19.9995 9.9706V9.96054C19.9995 7.01886 19.7145 5.34868 19.1495 4.37902ZM7.49982 13.736V6.19006L13.7497 9.96305L7.49982 13.736Z" fill="white" fill-opacity="0.5"/>
</svg>
