<svg width="233" height="28" viewBox="0 0 233 28" fill="none" xmlns="http://www.w3.org/2000/svg">
<g clip-path="url(#clip0_570_121117)">
<mask id="mask0_570_121117" style="mask-type:luminance" maskUnits="userSpaceOnUse" x="0" y="0" width="233" height="28">
<path d="M233 0H0V28H233V0Z" fill="white"/>
</mask>
<g mask="url(#mask0_570_121117)">
<path d="M11.6912 6.94645C13.2291 6.94645 14.5667 7.77362 15.701 9.43135L19.6078 5.40445C18.7003 4.03265 17.5454 2.98082 16.1489 2.25577C14.7494 1.52732 13.1613 1.1665 11.3789 1.1665C9.44021 1.1665 7.69012 1.63625 6.13744 2.57575C4.5818 3.51524 3.36205 4.82578 2.48111 6.51415C1.59428 8.19231 1.15234 10.1053 1.15234 12.2464C1.15234 14.3875 1.59428 16.3006 2.47522 17.9855C3.35616 19.6705 4.57591 20.9844 6.13154 21.9239C7.68717 22.8634 9.43431 23.3332 11.373 23.3332C13.1555 23.3332 14.7464 22.9689 16.143 22.2439C17.5395 21.5154 18.6944 20.467 19.6019 19.0952L15.6951 15.0683C14.5579 16.7227 13.2232 17.5532 11.6853 17.5532C10.3919 17.5532 9.35182 17.0733 8.56516 16.1133C7.77851 15.1534 7.38665 13.8667 7.38665 12.2532C7.38665 10.6398 7.77851 9.34966 8.56516 8.39314C9.35182 7.43322 10.3919 6.95326 11.6853 6.95326L11.6912 6.94645Z" fill="white"/>
<path d="M31.1429 6.14776V5.8335C29.0774 5.8335 27.5148 6.55737 26.4553 8.00158V5.8335H20.7617V23.3335H26.747V15.6993C26.747 13.2276 27.7708 11.9917 29.8185 11.9917C30.2232 11.9917 30.6667 12.0341 31.1429 12.1188" fill="white"/>
<path d="M44.2261 5.8335L41.2438 14.4819L38.3139 5.8335H32.2969L33.0228 7.82392L38.2615 22.1848C37.932 22.6161 37.4481 22.835 36.8097 22.835C36.4628 22.835 36.1042 22.7554 35.7339 22.5995C35.3608 22.4403 35.0285 22.2346 34.734 21.9791L32.7896 26.5538C33.256 26.985 33.8915 27.3367 34.6961 27.6021C35.5007 27.8675 36.2995 28.0002 37.0954 28.0002C38.7046 28.0002 40.0602 27.5755 41.168 26.7296C42.2758 25.8837 43.1999 24.4075 43.9433 22.3009L49.5989 6.34437V5.8335H44.229H44.2261Z" fill="white"/>
<path d="M67.814 11.8844L67.4739 10.7133C67.3564 10.3949 67.2266 10.0864 67.0751 9.7878C66.4229 8.51061 65.5449 7.52867 64.4352 6.85193C63.3254 6.17187 62.1105 5.8335 60.7905 5.8335C58.9388 5.8335 57.5632 6.37423 56.6636 7.45569L56.6636 5.8335H50.75V28.0002H56.9666V21.183C57.8476 22.1085 59.1212 22.5696 60.7905 22.5696C62.1105 22.5696 63.3254 22.2313 64.4352 21.5512C65.5449 20.8711 66.426 19.8991 67.0751 18.6286C67.7243 17.358 68.052 15.8884 68.052 14.2165C68.052 13.3905 67.9716 12.6142 67.814 11.8844ZM61.6839 16.5486C61.2264 17.0993 60.6391 17.3746 59.925 17.3746C59.2109 17.3746 58.6235 17.0993 58.166 16.5486C57.7085 15.9979 57.4798 15.2217 57.4798 14.2165C57.4798 13.2113 57.7085 12.4317 58.166 11.8711C58.6235 11.3105 59.2109 11.0285 59.925 11.0285C60.6391 11.0285 61.2264 11.3105 61.6839 11.8711C62.1414 12.4317 62.3702 13.2146 62.3702 14.2165C62.3702 15.2183 62.1414 15.9979 61.6839 16.5486Z" fill="white"/>
<path d="M77.1829 18.344C76.8609 18.344 76.6034 18.2096 76.4025 17.9342C76.2042 17.6621 76.1038 17.2819 76.1038 16.7967V10.4969H78.6688V5.8335H76.1038V2.3335H70.9248V5.83677H69.207V10.5002H70.9248V16.859C70.9248 19.0161 71.3986 20.6355 72.3464 21.714C73.2941 22.7926 74.6461 23.3335 76.4025 23.3335C77.7469 23.3335 78.8079 23.0516 79.5882 22.4877L78.3521 17.908C78.0147 18.1998 77.6258 18.344 77.1829 18.344Z" fill="white"/>
<path d="M92.7184 6.94373C91.4037 6.20126 89.9117 5.8335 88.2424 5.8335C86.573 5.8335 85.1085 6.20473 83.7938 6.94373C82.4791 7.68619 81.4488 8.72009 80.7058 10.0454C79.9629 11.3742 79.5898 12.88 79.5898 14.5661C79.5898 16.2523 79.9598 17.7615 80.7058 19.0869C81.4488 20.4157 82.4791 21.453 83.7938 22.2059C85.1085 22.9588 86.5914 23.3335 88.2424 23.3335C89.8934 23.3335 91.4007 22.9588 92.7184 22.2059C94.0331 21.4565 95.0574 20.4157 95.7911 19.0869C96.5249 17.7581 96.8918 16.2523 96.8918 14.5661C96.8918 12.88 96.5249 11.3708 95.7911 10.0454C95.0574 8.71662 94.0331 7.68272 92.7184 6.94373ZM89.9851 17.0225C89.5326 17.6089 88.9517 17.9038 88.2454 17.9038C87.5392 17.9038 86.9582 17.6089 86.5057 17.0225C86.0532 16.4362 85.827 15.6174 85.827 14.5696C85.827 13.5218 86.0532 12.7065 86.5057 12.1306C86.9582 11.5547 87.5392 11.2667 88.2454 11.2667C88.9517 11.2667 89.5326 11.5547 89.9851 12.1306C90.4376 12.7065 90.6638 13.5184 90.6638 14.5696C90.6638 15.6209 90.4376 16.4362 89.9851 17.0225Z" fill="white"/>
<path d="M132.956 7.82418C131.617 6.4959 129.683 5.8335 127.148 5.8335C125.985 5.8335 124.822 6.00343 123.65 6.34331C122.477 6.68318 121.48 7.15137 120.652 7.74788L122.555 12.3466C123.029 11.9339 123.602 11.6113 124.27 11.3755C124.938 11.1397 125.599 11.0218 126.249 11.0218C127.869 11.0218 128.775 11.6807 128.967 12.9951H126.564C124.347 12.9951 122.691 13.4286 121.599 14.2922C120.507 15.1557 119.961 16.4216 119.961 18.0863C119.961 19.0747 120.169 19.9625 120.581 20.7567C120.994 21.5474 121.602 22.1752 122.403 22.6399C123.204 23.1011 124.175 23.3335 125.32 23.3335C127.362 23.3335 128.727 22.4908 129.413 20.8018L129.413 23.3335H134.956L134.956 13.9523C134.956 11.1952 134.288 9.15593 132.95 7.82765L132.956 7.82418ZM128.997 17.5279C128.84 18.062 128.591 18.4643 128.258 18.7313C127.923 18.9984 127.546 19.1336 127.122 19.1336C126.697 19.1336 126.332 19.0053 126.08 18.7487C125.825 18.492 125.697 18.1695 125.697 17.7776C125.697 16.8308 126.306 16.3592 127.519 16.3592H128.997V17.5314V17.5279Z" fill="white"/>
<path d="M155.612 5.84056C154.607 5.84056 153.681 6.06645 152.839 6.51472C151.994 6.96651 151.277 7.60891 150.684 8.44544C150.181 7.56655 149.533 6.91357 148.743 6.48295C147.953 6.05233 147.063 5.84056 146.076 5.84056C144.386 5.84056 142.997 6.47942 141.901 7.75716L141.901 5.84056H136.109L136.109 23.3335H142.198V14.9471C142.198 13.8599 142.373 13.0622 142.721 12.561C143.073 12.0598 143.533 11.8057 144.108 11.8057C145.204 11.8057 145.752 12.7904 145.752 14.7564V23.33H151.84V14.9435C151.84 13.8564 152.016 13.0587 152.367 12.5575C152.718 12.0563 153.178 11.8021 153.753 11.8021C154.849 11.8021 155.397 12.7869 155.397 14.7529V23.3264H161.486V13.5281C161.486 10.9515 160.953 9.02783 159.884 7.7501C158.815 6.47236 157.392 5.8335 155.615 5.8335L155.612 5.84056Z" fill="white"/>
<path d="M176.322 6.81064C175.212 6.09575 173.997 5.74005 172.677 5.74005C171.008 5.74005 169.734 6.22478 168.853 7.19773V0H162.637V23.3333H168.55L168.55 21.6281C169.45 22.7649 170.822 23.3333 172.677 23.3333C173.997 23.3333 175.212 22.9776 176.322 22.2627C177.432 21.5478 178.313 20.5191 178.962 19.1765C179.611 17.8339 179.939 16.2821 179.939 14.521C179.939 12.7599 179.614 11.2151 178.962 9.88293C178.31 8.5473 177.432 7.52553 176.322 6.81064ZM172.955 16.9865C172.498 17.5758 171.911 17.8723 171.197 17.8723C170.482 17.8723 169.895 17.5758 169.438 16.9865C168.98 16.3971 168.751 15.5742 168.751 14.521C168.751 13.4678 168.98 12.6483 169.438 12.0694C169.895 11.4906 170.482 11.2011 171.197 11.2011C171.911 11.2011 172.498 11.4906 172.955 12.0694C173.413 12.6483 173.642 13.4644 173.642 14.521C173.642 15.5776 173.413 16.3971 172.955 16.9865Z" fill="white"/>
<path d="M186.861 0H181.094V23.3333H186.861V0Z" fill="white"/>
<path d="M201.084 6.85352C199.792 6.1735 198.36 5.8335 196.794 5.8335C195.132 5.8335 193.637 6.20473 192.306 6.94373C190.976 7.68272 189.929 8.72009 189.161 10.0454C188.394 11.3708 188.016 12.88 188.016 14.5661C188.016 16.2523 188.401 17.7372 189.177 19.073C189.951 20.4122 191.046 21.4565 192.462 22.2059C193.878 22.9588 195.521 23.3335 197.389 23.3335C200.391 23.3335 202.647 22.428 204.156 20.6169L200.814 16.9427C200.266 17.3972 199.76 17.713 199.299 17.9003C198.834 18.0842 198.264 18.1779 197.586 18.1779C196.794 18.1779 196.132 18.0079 195.604 17.6679C195.075 17.3278 194.696 16.8387 194.47 16.2003H205.232C205.289 15.2115 205.318 14.6668 205.318 14.5627C205.318 12.7308 204.936 11.1557 204.172 9.84073C203.408 8.5258 202.377 7.5266 201.084 6.84658V6.85352ZM194.359 12.8418C194.493 12.1202 194.773 11.5651 195.209 11.1765C195.642 10.7844 196.189 10.5901 196.851 10.5901C197.513 10.5901 198.058 10.7914 198.494 11.1904C198.926 11.5928 199.21 12.141 199.343 12.8418H194.359Z" fill="white"/>
<path d="M216.85 6.14776V5.8335C214.784 5.8335 213.222 6.55737 212.162 8.00158V5.8335H206.469V23.3335H212.454V15.6993C212.454 13.2276 213.478 11.9917 215.526 11.9917C215.93 11.9917 216.374 12.0341 216.85 12.1188" fill="white"/>
<path d="M230.926 14.4481C230.308 13.7054 229.596 13.2021 228.79 12.9348C227.982 12.6676 226.994 12.4524 225.831 12.2858C225.084 12.1817 224.537 12.0741 224.188 11.963C223.839 11.8485 223.666 11.661 223.666 11.3903C223.666 10.8558 224.308 10.5886 225.594 10.5886C227.088 10.5886 228.462 11.0016 229.713 11.8242L231.33 7.22183C230.6 6.77062 229.719 6.42354 228.685 6.18752C227.651 5.9515 226.596 5.8335 225.518 5.8335C223.971 5.8335 222.647 6.09034 221.543 6.60402C220.438 7.11771 219.609 7.80841 219.053 8.67265C218.692 9.23492 218.449 9.84579 218.323 10.5018C218.256 10.8558 218.218 11.2237 218.218 11.6055C218.218 11.7374 218.224 11.8658 218.229 11.9942C218.282 13.1847 218.587 14.1184 219.143 14.7848C219.759 15.5276 220.476 16.0239 221.294 16.2807C222.111 16.5376 223.101 16.7493 224.264 16.9124C225.029 17.0166 225.579 17.1172 225.919 17.2213C226.259 17.3255 226.426 17.5094 226.426 17.7767C226.426 18.0439 226.291 18.2452 226.022 18.3771C225.752 18.5125 225.278 18.5784 224.601 18.5784C223.749 18.5784 222.873 18.4431 221.967 18.1758C221.065 17.9086 220.283 17.5372 219.621 17.0652L218.004 21.6675C218.733 22.1604 219.688 22.563 220.872 22.8719C222.052 23.1808 223.251 23.3335 224.469 23.3335C226.051 23.3335 227.396 23.0767 228.509 22.563C229.619 22.0493 230.454 21.3586 231.011 20.4943C231.567 19.6301 231.845 18.6722 231.845 17.624C231.845 16.246 231.538 15.184 230.92 14.4447L230.926 14.4481Z" fill="white"/>
<path d="M118.219 10.4769H110.51V14.3596H112.283V17.0309C111.491 17.3746 110.66 17.5448 109.79 17.5448C108.32 17.5448 107.146 17.0616 106.266 16.0917C105.386 15.1219 104.946 13.8424 104.946 12.2464C104.946 10.6505 105.39 9.31991 106.279 8.3705C107.169 7.42108 108.369 6.94807 109.875 6.94807C111.635 6.94807 113.15 7.72394 114.428 9.27908L118.805 5.25341C117.762 3.92287 116.452 2.9054 114.875 2.2112C113.3 1.5136 111.514 1.1665 109.523 1.1665C107.319 1.1665 105.341 1.63611 103.594 2.57532C101.843 3.51452 100.481 4.82464 99.5064 6.5125C98.5286 8.19695 98.043 10.1094 98.043 12.2498C98.043 14.3903 98.5319 16.3027 99.5064 17.9872C100.481 19.6716 101.83 20.9852 103.551 21.9244C105.272 22.8636 107.215 23.3332 109.379 23.3332C110.908 23.3332 112.463 23.1018 114.05 22.6356C115.634 22.1728 117.026 21.5058 118.225 20.6381V11.6747H118.215V10.4803L118.219 10.4769Z" fill="white"/>
</g>
</g>
<defs>
<clipPath id="clip0_570_121117">
<rect width="233" height="28" fill="white"/>
</clipPath>
</defs>
</svg>
