<svg width="140" height="25" viewBox="0 0 140 25" fill="none" xmlns="http://www.w3.org/2000/svg">
<mask id="mask0_383_28653" style="mask-type:luminance" maskUnits="userSpaceOnUse" x="0" y="0" width="140" height="25">
<path d="M139.505 0.0458984H0V24.0419H139.505V0.0458984Z" fill="white"/>
</mask>
<g mask="url(#mask0_383_28653)">
<path d="M38.8273 7.49417C40.7966 7.49417 42.4019 8.2315 43.8113 9.78085L47.5073 6.4395C45.4819 4.0035 42.3739 2.6875 38.5286 2.6875C31.8739 2.6875 27.0859 7.12083 27.0859 13.3649C27.0859 19.6089 31.8646 24.0422 38.4073 24.0422C41.4033 24.0422 44.6513 23.1369 47.0313 21.4289V11.9649H39.0886V15.6609H41.8979V18.5542C40.8713 19.0208 39.8446 19.2262 38.7619 19.2262C35.2993 19.2262 32.9566 16.8182 32.9566 13.3555C32.9566 9.89285 35.2993 7.48483 38.8273 7.48483V7.49417Z" fill="white"/>
<path d="M18.9928 7.46582C16.9955 7.46582 15.2128 8.13782 13.9435 9.46315V7.73649H8.63281V23.6312H14.2048V15.9498C14.2048 13.3085 15.5861 12.1978 17.3688 12.1978C18.9835 12.1978 19.9821 13.1685 19.9821 15.4552V23.6405H25.5541V14.5498C25.5541 9.62182 22.7075 7.48449 18.9835 7.48449L18.9928 7.46582Z" fill="white"/>
<path d="M3.40667 0.0458984C1.35333 0.0458984 0 1.3339 0 3.00457C0 4.67523 1.35333 5.96323 3.40667 5.96323C5.46 5.96323 6.81333 4.67523 6.81333 2.91123C6.81333 1.14723 5.46 0.0458984 3.40667 0.0458984Z" fill="white"/>
<path d="M6.18919 7.72754H0.617188V23.6222H6.18919V7.72754Z" fill="white"/>
<path d="M87.2458 7.46582C84.9592 7.46582 82.9898 8.37115 81.7298 9.95782C80.6192 8.25915 78.7712 7.46582 76.5965 7.46582C74.7205 7.46582 73.0498 8.10982 71.8458 9.39782V7.72715H66.5352V23.6218H72.1072V15.7352C72.1072 13.2712 73.2832 12.1885 74.9258 12.1885C76.4192 12.1885 77.3338 13.1592 77.3338 15.4458V23.6312H82.9058V15.7445C82.9058 13.2805 84.0818 12.1978 85.6965 12.1978C87.1618 12.1978 88.1045 13.1685 88.1045 15.4552V23.6405H93.6765V14.5498C93.6765 9.62182 90.9512 7.48449 87.2552 7.48449L87.2458 7.46582Z" fill="white"/>
<path d="M139.502 15.7072C139.502 10.4525 135.685 7.46582 130.999 7.46582C125.987 7.46582 122.254 10.8725 122.254 15.6512C122.254 20.4298 125.922 23.8925 131.578 23.8925C134.602 23.8925 136.823 23.0152 138.354 21.3072L135.423 18.2552C134.341 19.1978 133.314 19.6365 131.755 19.6365C129.702 19.6365 128.321 18.6938 127.854 17.0885H139.409C139.437 16.6498 139.493 16.1178 139.493 15.7072H139.502ZM127.77 14.1485C128.097 12.4778 129.291 11.4232 131.027 11.4232C132.763 11.4232 133.986 12.4778 134.285 14.1485H127.77Z" fill="white"/>
<path d="M120.81 1.86621H115.238V23.6315H120.81V1.86621Z" fill="white"/>
<path d="M56.0641 7.46539C53.5721 7.46539 50.8748 8.10939 49.0548 9.31339L50.9308 13.0934C52.0135 12.244 53.7215 11.712 55.2428 11.712C57.4455 11.712 58.5281 12.6174 58.6121 14.232H55.4481C50.5201 14.232 48.3828 16.052 48.3828 18.9827C48.3828 21.736 50.4921 23.8827 54.3095 23.8827C56.6241 23.8827 58.2108 23.0894 59.0041 21.568V23.6214H64.1935V14.792C64.1935 9.74268 61.2348 7.45605 56.0641 7.45605V7.46539ZM58.6121 18.5254C58.1735 19.7854 57.0908 20.3734 55.8588 20.3734C54.5428 20.3734 53.7775 19.7014 53.7775 18.7587C53.7775 17.816 54.4215 17.144 56.2135 17.144H58.6215V18.5254H58.6121Z" fill="white"/>
<path d="M106.017 7.46621C104.169 7.46621 102.676 7.99821 101.584 9.10888V1.86621H96.0117V23.6315H101.322V22.0449C102.377 23.3049 103.936 23.8929 106.017 23.8929C110.329 23.8929 113.82 20.7289 113.82 15.6515C113.82 10.5742 110.329 7.46621 106.017 7.46621ZM104.841 19.4595C102.965 19.4595 101.5 18.0782 101.5 15.6422C101.5 13.2062 102.965 11.8902 104.841 11.8902C106.717 11.8902 108.182 13.2435 108.182 15.6422C108.182 18.0409 106.717 19.4595 104.841 19.4595Z" fill="white"/>
</g>
</svg>
