<svg width="110" height="111" viewBox="0 0 110 111" fill="none" xmlns="http://www.w3.org/2000/svg">
<g clip-path="url(#clip0_383_28468)">
<path d="M0 87.0532H6.5812V93.6344L0.376068 87.4293" fill="#F96B2F"/>
<path d="M18.0576 103.465H24.6388V110.047L18.4337 103.841" fill="#F96B2F"/>
<path d="M52.54 68.9937H59.1212V75.5748L52.9161 69.3697" fill="#F96B2F"/>
<path d="M70.5933 32.874H77.1745V39.4505L70.9693 33.2501" fill="#F96B2F"/>
<path d="M110.001 24.6847H103.419V18.1035L109.625 24.3086" fill="#F96B2F"/>
<path d="M110.001 59.1608H103.419V52.5796L109.625 58.7847" fill="#F96B2F"/>
<path d="M24.639 24.6849H6.58301V93.6323H24.639V110.048H93.5864V93.6323H110.002V59.161H59.1151V75.5763H77.171V95.2729H39.4138V23.0443H77.171V39.4597H110.002V24.6849H91.9458V6.62891H24.639V24.6849Z" fill="#F96B2F"/>
<path d="M91.9403 6.62709H85.3638V0.0458984L91.5642 6.25103" fill="#F96B2F"/>
<path d="M18.056 18.1019H0V87.0493H18.056V103.465H87.0034V87.0493H103.419V52.5779H52.532V68.9933H70.588V88.6899H32.8308V16.4613H70.588V32.8767H103.419V18.1019H85.3628V0.0458984H18.056V18.1019Z" fill="#FFCF23"/>
</g>
<defs>
<clipPath id="clip0_383_28468">
<rect width="110" height="110" fill="white" transform="translate(0 0.0458984)"/>
</clipPath>
</defs>
</svg>
