<svg width="194" height="35" viewBox="0 0 194 26" fill="none" xmlns="http://www.w3.org/2000/svg">
<g clip-path="url(#clip0_2373_3340)">
<path d="M0.697998 20.0889V1.88888H9.10697C11.0716 1.88888 12.7991 2.26154 14.2896 3.00688C15.7799 3.75221 16.9401 4.80088 17.7701 6.15288C18.6168 7.50488 19.0403 9.11688 19.0403 10.9889C19.0403 12.8435 18.6168 14.4555 17.7701 15.8249C16.9401 17.1769 15.7799 18.2255 14.2896 18.9709C12.7991 19.7163 11.0716 20.0889 9.10697 20.0889H0.697998ZM5.72814 15.9809H8.90373C9.91992 15.9809 10.8006 15.7903 11.5458 15.4089C12.308 15.0103 12.9008 14.4383 13.3242 13.6929C13.7476 12.9303 13.9593 12.0289 13.9593 10.9889C13.9593 9.93154 13.7476 9.03021 13.3242 8.28488C12.9008 7.53954 12.308 6.97621 11.5458 6.59488C10.8006 6.19621 9.91992 5.99688 8.90373 5.99688H5.72814V15.9809ZM27.6568 20.3229C26.0309 20.3229 24.6082 20.0109 23.3888 19.3869C22.1863 18.7455 21.2463 17.8789 20.5689 16.7869C19.9083 15.6775 19.5781 14.4209 19.5781 13.0169C19.5781 11.6129 19.8999 10.3649 20.5434 9.27288C21.204 8.16354 22.1101 7.30554 23.2618 6.69888C24.4135 6.07488 25.7092 5.76288 27.1487 5.76288C28.5037 5.76288 29.74 6.04888 30.8578 6.62088C31.9756 7.17554 32.8648 7.99888 33.5253 9.09088C34.1858 10.1829 34.5161 11.5089 34.5161 13.0689C34.5161 13.2423 34.5076 13.4415 34.4907 13.6669C34.4738 13.8922 34.4568 14.1002 34.4398 14.2909H23.5412V11.6909H31.874L30.0448 12.4189C30.0618 11.7775 29.9432 11.2229 29.6892 10.7549C29.4521 10.2869 29.1134 9.92288 28.673 9.66288C28.2496 9.40288 27.75 9.27288 27.1741 9.27288C26.5983 9.27288 26.0902 9.40288 25.6498 9.66288C25.2265 9.92288 24.8962 10.2955 24.659 10.7809C24.4219 11.2489 24.3033 11.8035 24.3033 12.4449V13.1989C24.3033 13.8923 24.4389 14.4902 24.7098 14.9929C24.9978 15.4955 25.4043 15.8855 25.9293 16.1629C26.4543 16.4229 27.081 16.5529 27.8092 16.5529C28.4867 16.5529 29.0626 16.4575 29.5367 16.2669C30.028 16.0589 30.5107 15.7469 30.9848 15.3309L33.5253 18.0349C32.8648 18.7803 32.0518 19.3523 31.0864 19.7509C30.121 20.1323 28.9778 20.3229 27.6568 20.3229ZM42.4577 25.3669C41.1367 25.3669 39.8748 25.2109 38.6724 24.8989C37.4868 24.5869 36.4706 24.1275 35.6238 23.5209L37.3768 20.0629C37.9525 20.5309 38.6639 20.8949 39.5108 21.1549C40.3745 21.4323 41.2129 21.5709 42.0258 21.5709C43.3299 21.5709 44.2699 21.2763 44.8458 20.6869C45.4215 20.1149 45.7095 19.2743 45.7095 18.1649V16.5009L45.9636 12.5489L45.9382 8.57088V5.99688H50.5364V17.5149C50.5364 20.1842 49.8335 22.1602 48.4278 23.4429C47.022 24.7255 45.032 25.3669 42.4577 25.3669ZM41.6193 19.3609C40.3999 19.3609 39.2736 19.0835 38.2405 18.5289C37.2243 17.9569 36.4028 17.1683 35.7763 16.1629C35.1665 15.1403 34.8617 13.9355 34.8617 12.5489C34.8617 11.1622 35.1665 9.96621 35.7763 8.96088C36.4028 7.93821 37.2243 7.14954 38.2405 6.59488C39.2736 6.04021 40.3999 5.76288 41.6193 5.76288C42.788 5.76288 43.7872 6.00554 44.6171 6.49088C45.4469 6.95888 46.0736 7.69554 46.4971 8.70088C46.9374 9.70621 47.1576 10.9889 47.1576 12.5489C47.1576 14.1089 46.9374 15.3915 46.4971 16.3969C46.0736 17.4023 45.4469 18.1475 44.6171 18.6329C43.7872 19.1182 42.788 19.3609 41.6193 19.3609ZM42.7626 15.4349C43.3383 15.4349 43.8464 15.3135 44.2869 15.0709C44.7441 14.8282 45.0998 14.4902 45.3539 14.0569C45.6248 13.6235 45.7603 13.1209 45.7603 12.5489C45.7603 11.9769 45.6248 11.4742 45.3539 11.0409C45.0998 10.6075 44.7441 10.2782 44.2869 10.0529C43.8464 9.81021 43.3383 9.68888 42.7626 9.68888C42.1867 9.68888 41.6702 9.81021 41.2129 10.0529C40.7556 10.2782 40.3914 10.6075 40.1205 11.0409C39.8664 11.4742 39.7394 11.9769 39.7394 12.5489C39.7394 13.1209 39.8664 13.6235 40.1205 14.0569C40.3914 14.4902 40.7556 14.8282 41.2129 15.0709C41.6702 15.3135 42.1867 15.4349 42.7626 15.4349ZM59.8365 20.3229C58.2106 20.3229 56.788 20.0109 55.5685 19.3869C54.3661 18.7455 53.4261 17.8789 52.7486 16.7869C52.0881 15.6775 51.7578 14.4209 51.7578 13.0169C51.7578 11.6129 52.0796 10.3649 52.7232 9.27288C53.3837 8.16354 54.2899 7.30554 55.4415 6.69888C56.5931 6.07488 57.8888 5.76288 59.3284 5.76288C60.6833 5.76288 61.9197 6.04888 63.0375 6.62088C64.1553 7.17554 65.0445 7.99888 65.705 9.09088C66.3656 10.1829 66.6958 11.5089 66.6958 13.0689C66.6958 13.2423 66.6874 13.4415 66.6704 13.6669C66.6534 13.8922 66.6366 14.1002 66.6196 14.2909H55.721V11.6909H64.0537L62.2246 12.4189C62.2415 11.7775 62.123 11.2229 61.8689 10.7549C61.6318 10.2869 61.293 9.92288 60.8527 9.66288C60.4293 9.40288 59.9297 9.27288 59.3538 9.27288C58.778 9.27288 58.2699 9.40288 57.8296 9.66288C57.4061 9.92288 57.0758 10.2955 56.8388 10.7809C56.6017 11.2489 56.4831 11.8035 56.4831 12.4449V13.1989C56.4831 13.8923 56.6186 14.4902 56.8896 14.9929C57.1775 15.4955 57.5839 15.8855 58.109 16.1629C58.6341 16.4229 59.2606 16.5529 59.989 16.5529C60.6665 16.5529 61.2422 16.4575 61.7165 16.2669C62.2076 16.0589 62.6903 15.7469 63.1645 15.3309L65.705 18.0349C65.0445 18.7803 64.2316 19.3523 63.2662 19.7509C62.3008 20.1323 61.1576 20.3229 59.8365 20.3229ZM76.873 5.76288C77.94 5.76288 78.9053 5.98821 79.7691 6.43888C80.6329 6.87221 81.3104 7.54821 81.8015 8.46688C82.3096 9.38554 82.5636 10.5729 82.5636 12.0289V20.0889H77.7367V12.8349C77.7367 11.8295 77.5335 11.1015 77.127 10.6509C76.7375 10.1829 76.187 9.94888 75.4757 9.94888C74.9676 9.94888 74.5019 10.0702 74.0784 10.3129C73.6551 10.5382 73.3248 10.8935 73.0877 11.3789C72.8506 11.8643 72.732 12.4969 72.732 13.2769V20.0889H67.9051V5.99688H72.5033V10.0009L71.6142 8.83088C72.1392 7.80821 72.859 7.04554 73.7736 6.54288C74.6881 6.02288 75.7213 5.76288 76.873 5.76288ZM93.6729 20.4529C92.2671 20.4529 90.963 20.2275 89.7606 19.7769C88.575 19.3089 87.5418 18.6503 86.6612 17.8009C85.7974 16.9515 85.1199 15.9549 84.6288 14.8109C84.1376 13.6495 83.8921 12.3755 83.8921 10.9889C83.8921 9.60221 84.1376 8.33688 84.6288 7.19288C85.1199 6.03154 85.7974 5.02621 86.6612 4.17688C87.5418 3.32754 88.575 2.67754 89.7606 2.22688C90.963 1.75888 92.2671 1.52488 93.6729 1.52488C95.3157 1.52488 96.7807 1.81954 98.0679 2.40888C99.372 2.99821 100.456 3.84754 101.32 4.95688L98.1187 7.92088C97.5429 7.22754 96.9077 6.69888 96.2134 6.33488C95.5359 5.97088 94.7737 5.78888 93.9269 5.78888C93.1986 5.78888 92.5297 5.91021 91.92 6.15288C91.3103 6.39554 90.7852 6.75088 90.3449 7.21888C89.9214 7.66954 89.5827 8.21554 89.3287 8.85688C89.0915 9.49821 88.973 10.2089 88.973 10.9889C88.973 11.7689 89.0915 12.4795 89.3287 13.1209C89.5827 13.7623 89.9214 14.3169 90.3449 14.7849C90.7852 15.2355 91.3103 15.5823 91.92 15.8249C92.5297 16.0675 93.1986 16.1889 93.9269 16.1889C94.7737 16.1889 95.5359 16.0069 96.2134 15.6429C96.9077 15.2789 97.5429 14.7502 98.1187 14.0569L101.32 17.0209C100.456 18.1129 99.372 18.9622 98.0679 19.5689C96.7807 20.1582 95.3157 20.4529 93.6729 20.4529ZM110.677 20.0889V17.4629L110.347 16.8129V11.9769C110.347 11.1969 110.11 10.5989 109.635 10.1829C109.178 9.74954 108.441 9.53288 107.425 9.53288C106.765 9.53288 106.096 9.64554 105.418 9.87088C104.741 10.0789 104.165 10.3735 103.691 10.7549L102.065 7.40088C102.844 6.88088 103.775 6.48221 104.859 6.20488C105.96 5.91021 107.053 5.76288 108.137 5.76288C110.372 5.76288 112.1 6.29154 113.319 7.34888C114.556 8.38888 115.174 10.0269 115.174 12.2629V20.0889H110.677ZM106.612 20.3229C105.511 20.3229 104.58 20.1323 103.818 19.7509C103.056 19.3695 102.471 18.8495 102.065 18.1909C101.675 17.5323 101.48 16.7955 101.48 15.9809C101.48 15.1143 101.692 14.3689 102.116 13.7449C102.556 13.1035 103.225 12.6182 104.123 12.2889C105.02 11.9422 106.18 11.7689 107.603 11.7689H110.855V14.3429H108.264C107.484 14.3429 106.934 14.4729 106.612 14.7329C106.307 14.9929 106.155 15.3395 106.155 15.7729C106.155 16.2062 106.316 16.5529 106.638 16.8129C106.959 17.0729 107.4 17.2029 107.959 17.2029C108.484 17.2029 108.958 17.0729 109.381 16.8129C109.822 16.5355 110.143 16.1195 110.347 15.5649L111.007 17.3849C110.753 18.3555 110.254 19.0923 109.508 19.5949C108.78 20.0803 107.815 20.3229 106.612 20.3229ZM123.352 20.3229C121.591 20.3229 120.219 19.8809 119.236 18.9969C118.255 18.0955 117.763 16.7435 117.763 14.9409V2.85088H122.59V14.8889C122.59 15.3915 122.726 15.7903 122.996 16.0849C123.267 16.3623 123.615 16.5009 124.038 16.5009C124.614 16.5009 125.105 16.3535 125.511 16.0589L126.705 19.5169C126.299 19.7943 125.8 19.9935 125.206 20.1149C124.614 20.2535 123.996 20.3229 123.352 20.3229ZM115.756 10.2089V6.51688H125.74V10.2089H115.756ZM135.959 20.0889V17.4629L135.629 16.8129V11.9769C135.629 11.1969 135.392 10.5989 134.918 10.1829C134.46 9.74954 133.724 9.53288 132.708 9.53288C132.047 9.53288 131.378 9.64554 130.701 9.87088C130.024 10.0789 129.448 10.3735 128.973 10.7549L127.347 7.40088C128.127 6.88088 129.058 6.48221 130.142 6.20488C131.243 5.91021 132.336 5.76288 133.419 5.76288C135.655 5.76288 137.382 6.29154 138.601 7.34888C139.838 8.38888 140.456 10.0269 140.456 12.2629V20.0889H135.959ZM131.895 20.3229C130.794 20.3229 129.862 20.1323 129.1 19.7509C128.338 19.3695 127.754 18.8495 127.347 18.1909C126.958 17.5323 126.763 16.7955 126.763 15.9809C126.763 15.1143 126.975 14.3689 127.398 13.7449C127.839 13.1035 128.508 12.6182 129.405 12.2889C130.303 11.9422 131.463 11.7689 132.885 11.7689H136.137V14.3429H133.546C132.768 14.3429 132.217 14.4729 131.895 14.7329C131.59 14.9929 131.437 15.3395 131.437 15.7729C131.437 16.2062 131.599 16.5529 131.92 16.8129C132.242 17.0729 132.682 17.2029 133.241 17.2029C133.766 17.2029 134.241 17.0729 134.664 16.8129C135.105 16.5355 135.426 16.1195 135.629 15.5649L136.29 17.3849C136.036 18.3555 135.537 19.0923 134.791 19.5949C134.063 20.0803 133.098 20.3229 131.895 20.3229ZM151.15 20.3229C149.982 20.3229 148.982 20.0629 148.152 19.5429C147.322 19.0055 146.687 18.2083 146.247 17.1509C145.823 16.0763 145.612 14.7069 145.612 13.0429C145.612 11.3615 145.815 9.99221 146.222 8.93488C146.628 7.86021 147.238 7.06288 148.051 6.54288C148.88 6.02288 149.914 5.76288 151.15 5.76288C152.403 5.76288 153.538 6.06621 154.554 6.67288C155.587 7.26221 156.4 8.10288 156.993 9.19488C157.603 10.2695 157.908 11.5522 157.908 13.0429C157.908 14.5335 157.603 15.8249 156.993 16.9169C156.4 18.0089 155.587 18.8495 154.554 19.4389C153.538 20.0283 152.403 20.3229 151.15 20.3229ZM142.487 25.1329V5.99688H147.085V8.38888L147.06 13.0429L147.314 17.7229V25.1329H142.487ZM150.134 16.3969C150.676 16.3969 151.158 16.2669 151.582 16.0069C152.022 15.7469 152.37 15.3655 152.624 14.8629C152.894 14.3603 153.03 13.7535 153.03 13.0429C153.03 12.3323 152.894 11.7255 152.624 11.2229C152.37 10.7202 152.022 10.3389 151.582 10.0789C151.158 9.81888 150.676 9.68888 150.134 9.68888C149.591 9.68888 149.101 9.81888 148.661 10.0789C148.237 10.3389 147.889 10.7202 147.619 11.2229C147.365 11.7255 147.238 12.3323 147.238 13.0429C147.238 13.7535 147.365 14.3603 147.619 14.8629C147.889 15.3655 148.237 15.7469 148.661 16.0069C149.101 16.2669 149.591 16.3969 150.134 16.3969ZM164.928 20.3229C163.81 20.3229 162.802 20.0975 161.905 19.6469C161.023 19.1962 160.329 18.4943 159.821 17.5409C159.329 16.5702 159.085 15.3482 159.085 13.8749V5.99688H163.912V13.0689C163.912 14.1609 164.106 14.9409 164.496 15.4089C164.902 15.8769 165.469 16.1109 166.198 16.1109C166.671 16.1109 167.103 15.9982 167.494 15.7729C167.883 15.5475 168.196 15.1923 168.434 14.7069C168.67 14.2043 168.789 13.5629 168.789 12.7829V5.99688H173.616V20.0889H169.018V16.1109L169.907 17.2289C169.432 18.2689 168.747 19.0489 167.849 19.5689C166.951 20.0715 165.977 20.3229 164.928 20.3229ZM175.709 20.0889V0.796875H180.535V20.0889H175.709ZM190.194 20.3229C188.432 20.3229 187.06 19.8809 186.078 18.9969C185.096 18.0955 184.605 16.7435 184.605 14.9409V2.85088H189.432V14.8889C189.432 15.3915 189.567 15.7903 189.838 16.0849C190.108 16.3623 190.456 16.5009 190.88 16.5009C191.455 16.5009 191.947 16.3535 192.353 16.0589L193.547 19.5169C193.141 19.7943 192.641 19.9935 192.048 20.1149C191.455 20.2535 190.837 20.3229 190.194 20.3229ZM182.598 10.2089V6.51688H192.582V10.2089H182.598Z" fill="white"/>
</g>
<defs>
<clipPath id="clip0_2373_3340">
<rect width="194" height="26" fill="white"/>
</clipPath>
</defs>
</svg>
