<svg width="330" height="330" viewBox="0 0 330 330" fill="none" xmlns="http://www.w3.org/2000/svg">
<path fill-rule="evenodd" clip-rule="evenodd" d="M244.035 157.848C239.572 157.848 235.152 158.727 231.029 160.435C226.905 162.143 223.158 164.647 220.002 167.803C216.846 170.959 214.342 174.706 212.634 178.829C210.926 182.953 210.047 187.373 210.047 191.836C210.047 196.3 210.926 200.719 212.634 204.843C214.342 208.967 216.846 212.714 220.002 215.87C223.158 219.026 226.905 221.529 231.029 223.238C235.152 224.946 239.572 225.825 244.035 225.825C253.05 225.825 261.695 222.244 268.069 215.87C274.443 209.496 278.024 200.851 278.024 191.836C278.024 182.822 274.443 174.177 268.069 167.803C261.695 161.429 253.05 157.848 244.035 157.848ZM228.732 154.892C233.584 152.882 238.784 151.848 244.035 151.848C254.641 151.848 264.812 156.061 272.312 163.56C279.811 171.059 284.024 181.231 284.024 191.836C284.024 201.437 280.571 210.682 274.353 217.911L295.475 239.033L291.232 243.276L270.111 222.154C262.882 228.372 253.637 231.825 244.035 231.825C238.784 231.825 233.584 230.79 228.732 228.781C223.881 226.771 219.473 223.826 215.759 220.112C212.046 216.399 209.1 211.991 207.091 207.139C205.081 202.288 204.047 197.088 204.047 191.836C204.047 186.585 205.081 181.385 207.091 176.533C209.1 171.682 212.046 167.273 215.759 163.56C219.473 159.847 223.881 156.901 228.732 154.892Z" fill="#2C2C28"/>
<path d="M126.07 149.759C129.861 149.759 132.934 146.686 132.934 142.895C132.934 139.104 129.861 136.031 126.07 136.031C122.279 136.031 119.206 139.104 119.206 142.895C119.206 146.686 122.279 149.759 126.07 149.759Z" fill="#2C2C28"/>
<path d="M178.504 149.759C182.295 149.759 185.368 146.686 185.368 142.895C185.368 139.104 182.295 136.031 178.504 136.031C174.713 136.031 171.64 139.104 171.64 142.895C171.64 146.686 174.713 149.759 178.504 149.759Z" fill="#2C2C28"/>
<path d="M136.086 168.524C140.948 166.017 146.339 164.708 151.81 164.707C157.147 164.706 162.412 165.949 167.185 168.339C171.958 170.729 176.107 174.199 179.304 178.473C179.911 179.282 180.171 180.299 180.028 181.3C179.885 182.302 179.35 183.205 178.541 183.812C177.732 184.419 176.715 184.679 175.714 184.536C174.713 184.393 173.809 183.858 173.203 183.049C170.686 179.681 167.41 176.956 163.641 175.094C159.872 173.232 155.716 172.287 151.512 172.335C147.308 172.383 143.176 173.424 139.45 175.372C135.725 177.32 132.512 180.12 130.074 183.545C129.487 184.369 128.597 184.927 127.6 185.095C126.602 185.263 125.578 185.028 124.754 184.441C123.93 183.854 123.372 182.964 123.204 181.967C123.036 180.969 123.271 179.946 123.858 179.121C127.031 174.665 131.223 171.032 136.086 168.524Z" fill="#2C2C28"/>
<path fill-rule="evenodd" clip-rule="evenodd" d="M56.46 84.6406C56.46 74.1472 64.9666 65.6406 75.46 65.6406H226.94C237.433 65.6406 245.94 74.1472 245.94 84.6406V135.961H239.94V100.681H62.46V220.941C62.46 228.12 68.2803 233.941 75.46 233.941H198.72V239.941H75.46C64.9666 239.941 56.46 231.434 56.46 220.941V84.6406ZM62.46 94.6806H239.94V84.6406C239.94 77.4609 234.12 71.6406 226.94 71.6406H75.46C68.2803 71.6406 62.46 77.4609 62.46 84.6406V94.6806Z" fill="#2C2C28"/>
<path d="M239.94 94.6806H62.46V84.6406C62.46 77.4609 68.2803 71.6406 75.46 71.6406H226.94C234.12 71.6406 239.94 77.4609 239.94 84.6406V94.6806Z" fill="#2C2C28"/>
</svg>
