<svg width="53" height="19" viewBox="0 0 53 19" fill="none" xmlns="http://www.w3.org/2000/svg">
<path d="M0 15.7958V2.09706C0 2.09706 0.592617 -0.254443 2.83556 0.0825326L49.7873 0.0459049C49.7873 0.0459049 51.7827 0.0239283 52.1053 2.55124V15.7958C52.1053 15.7958 51.1076 18.2059 48.8646 18.0375H3.18063C3.18063 18.0375 0.382575 17.869 0 15.7958Z" fill="#A3A3A0"/>
<path d="M38.9553 12.6968L37.3199 12.3232C37.2074 12.8433 37.0199 13.2169 36.7648 13.4514C36.5335 13.676 36.2208 13.8023 35.8947 13.803C35.3846 13.803 34.987 13.5759 34.7019 13.1217C34.5144 12.8067 34.4169 12.2646 34.4169 11.5321C34.4169 10.7995 34.5519 10.2501 34.8369 9.91312C35.122 9.57614 35.4671 9.40033 35.8797 9.40033C36.2128 9.39098 36.5381 9.50034 36.7948 9.708C37.0499 9.91312 37.2224 10.2208 37.3199 10.6457L38.8877 10.4113C38.7569 9.79539 38.4026 9.24645 37.8901 8.86557C37.3649 8.46266 36.7198 8.26487 35.9547 8.26487C35.002 8.26487 34.2143 8.57987 33.5842 9.20254C32.9541 9.82521 32.639 10.5651 32.639 11.576C32.639 12.5869 32.9466 13.3928 33.5617 14.0081C34.1768 14.6234 35.0545 14.9311 35.9472 14.9311C36.8398 14.9311 37.5675 14.6674 38.1226 14.1473C38.4727 13.8103 38.7502 13.3268 38.9553 12.6968Z" fill="#2F2F2F"/>
<path fillRule="evenodd" clipRule="evenodd" d="M41.1638 14.5539C41.697 13.6531 41.9779 12.6311 41.9784 11.5907C41.9747 10.5503 41.6924 9.52893 41.1594 8.62807C40.6264 7.72721 39.8614 6.97821 38.9403 6.45546C37.5484 5.69871 35.9076 5.50676 34.3721 5.92105C32.8365 6.33534 31.5294 7.32265 30.7328 8.66987C29.9361 10.0171 29.7139 11.6162 30.1141 13.122C30.5142 14.6278 31.5046 15.9196 32.8716 16.7186C33.7939 17.2394 34.8404 17.514 35.9058 17.5147C36.9712 17.5153 38.0181 17.242 38.9411 16.7223C39.8641 16.2026 40.6307 15.4547 41.1638 14.5539ZM39.3678 8.20627C40.323 9.14394 40.8006 10.2721 40.8006 11.5907C40.8103 12.2192 40.6882 12.8431 40.4418 13.4239C40.1954 14.0047 39.8299 14.5301 39.3678 14.9677C38.4076 15.9054 37.2524 16.3743 35.9022 16.3743C34.6048 16.3685 33.3623 15.8626 32.445 14.9668C31.5276 14.0709 31.0096 12.8576 31.0037 11.5907C31.0037 10.2721 31.4838 9.14394 32.444 8.20627C32.8922 7.75501 33.4302 7.39809 34.0249 7.15746C34.6196 6.91684 35.2585 6.7976 35.9022 6.80709C37.2574 6.8022 38.4127 7.2686 39.3678 8.20627Z" fill="#2F2F2F"/>
<path fillRule="evenodd" clipRule="evenodd" d="M16.1357 7.9502H12.7075V15.2318H16.1357C16.6001 15.224 17.0615 15.1575 17.5085 15.034C17.8962 14.9253 18.2513 14.7268 18.5437 14.4553C18.8732 14.1542 19.1317 13.7868 19.3013 13.3784C19.4814 12.9462 19.5714 12.3455 19.5714 11.5617C19.574 11.0872 19.5135 10.6144 19.3913 10.1552C19.2787 9.72877 19.0769 9.32972 18.7987 8.9831C18.5236 8.65056 18.1713 8.38687 17.771 8.21391C17.3509 8.0381 16.8108 7.9502 16.1357 7.9502ZM15.018 13.5762V9.59844H15.5881C16.1882 9.59844 16.6158 9.73763 16.8708 10.0233C17.1259 10.309 17.2609 10.8365 17.2609 11.6056C17.2609 12.1917 17.2009 12.6166 17.0884 12.873C16.9958 13.1034 16.8268 13.2969 16.6083 13.4224C16.4057 13.5249 16.0607 13.5762 15.5806 13.5762H15.018Z" fill="#2F2F2F"/>
<path d="M23.6672 7.9502H20.6366V15.2318H22.5195V9.67902L23.9748 15.2318H25.6851L27.1404 9.67902V15.2318H29.0232V7.9502H25.9927L24.8374 12.3822L23.6672 7.9502Z" fill="#2F2F2F"/>
<path fillRule="evenodd" clipRule="evenodd" d="M46.8618 14.0304H44.2438L43.8837 15.2318H41.5283L44.3338 7.9502H46.8468L49.6449 15.2318H47.2369L46.8618 14.0304ZM46.3817 12.4554L45.5566 9.83286L44.7464 12.4554H46.3817Z" fill="#2F2F2F"/>
<path fillRule="evenodd" clipRule="evenodd" d="M19.0611 3.02806C19.0611 2.6398 19.1737 2.33946 19.3987 2.11969C19.6238 1.89992 19.9313 1.79004 20.3289 1.79004C20.7265 1.79004 21.049 1.89992 21.2666 2.11236C21.4841 2.3248 21.5966 2.62515 21.5966 3.01341C21.6064 3.25078 21.5575 3.48697 21.4541 3.70201C21.3586 3.87809 21.2126 4.02319 21.034 4.11956C20.825 4.22266 20.5929 4.27303 20.3589 4.26608C20.1216 4.27347 19.8857 4.22839 19.6688 4.13422C19.4849 4.04666 19.333 3.906 19.2337 3.73131C19.1127 3.51622 19.0531 3.27333 19.0611 3.02806ZM19.8188 3.03538C19.8188 3.27713 19.8638 3.44561 19.9538 3.5555C20.001 3.60639 20.059 3.64655 20.1238 3.67313C20.1887 3.69971 20.2587 3.71207 20.3289 3.70933C20.4004 3.71317 20.4718 3.70134 20.538 3.67473C20.6042 3.64811 20.6635 3.60737 20.7115 3.5555C20.8015 3.45294 20.8465 3.2698 20.8465 2.99875C20.8465 2.72771 20.794 2.6105 20.704 2.50794C20.6571 2.45664 20.5991 2.41621 20.5342 2.3896C20.4694 2.36298 20.3992 2.35086 20.3289 2.35411C20.2597 2.35091 20.1907 2.36309 20.127 2.38974C20.0633 2.41638 20.0067 2.4568 19.9613 2.50794C19.8638 2.61783 19.8188 2.79364 19.8188 3.03538Z" fill="#2F2F2F"/>
<path fillRule="evenodd" clipRule="evenodd" d="M16.0381 1.83289V4.22102H16.7957V3.25405H16.8632C16.9296 3.25278 16.9948 3.27061 17.0508 3.30533C17.1066 3.36082 17.1523 3.42524 17.1858 3.49579L17.5909 4.22102H18.4461L18.0785 3.53242C18.0512 3.47874 18.0158 3.42936 17.9735 3.38591C17.9364 3.33946 17.8963 3.29541 17.8534 3.25405C17.7908 3.21512 17.7225 3.18549 17.6509 3.16614C17.7463 3.1515 17.838 3.11917 17.921 3.07091C18.0203 3.01427 18.103 2.93353 18.161 2.83649C18.2172 2.73276 18.2455 2.61684 18.2435 2.49952C18.2485 2.3618 18.2091 2.22602 18.131 2.11126C18.0616 2.0049 17.9549 1.9268 17.8309 1.8915C17.6572 1.84726 17.4778 1.82753 17.2983 1.83289H16.0381ZM17.1183 2.79987H16.7957V2.31638H17.1258C17.2247 2.30801 17.3238 2.3284 17.4109 2.37498C17.4371 2.39769 17.4576 2.42608 17.4706 2.45787C17.4836 2.48967 17.4888 2.524 17.4859 2.55812C17.4859 2.60794 17.4702 2.65655 17.4409 2.69731C17.4059 2.73254 17.3618 2.75786 17.3133 2.77056C17.2495 2.78651 17.1841 2.79632 17.1183 2.79987Z" fill="#2F2F2F"/>
<path fillRule="evenodd" clipRule="evenodd" d="M14.2827 1.83301H13.0225V4.22114H13.7876V3.33475H14.2002C14.5003 3.33475 14.7253 3.26149 14.8753 3.12963C15.0254 2.99777 15.1004 2.79998 15.1004 2.56556C15.1004 2.33115 15.0329 2.14801 14.8978 2.02347C14.7628 1.89894 14.5528 1.83301 14.2827 1.83301ZM13.9676 2.85126H13.7876V2.31649H13.9977C14.1402 2.31649 14.2377 2.3458 14.2902 2.39708C14.3154 2.42212 14.3351 2.45194 14.348 2.48471C14.3609 2.51747 14.3667 2.55247 14.3652 2.58754C14.3664 2.62393 14.3589 2.66009 14.3433 2.69315C14.3276 2.72621 14.3043 2.75526 14.2752 2.778C14.2152 2.82928 14.1177 2.85126 13.9676 2.85126Z" fill="#2F2F2F"/>
<path d="M24.5747 1.83301H22.2793V2.42638H23.0444V4.22114H23.8021V2.42638H24.5747V1.83301Z" fill="#2F2F2F"/>
<path d="M25.4449 1.83301H27.4703V2.3458H26.2025V2.72672H27.3803V3.21021H26.2025V3.67905H27.5078V4.22114H25.4449V1.83301Z" fill="#2F2F2F"/>
<path d="M30.741 3.43829L30.0733 3.24782C30.0532 3.37425 29.9988 3.49312 29.9158 3.59212C29.8724 3.63337 29.8206 3.66514 29.7637 3.68535C29.7068 3.70556 29.6461 3.71373 29.5857 3.70933C29.5204 3.71399 29.4548 3.7031 29.3947 3.67758C29.3346 3.65206 29.2818 3.61268 29.2407 3.56282C29.1582 3.46759 29.1131 3.28445 29.1131 3.02073C29.1027 2.85561 29.1391 2.69087 29.2182 2.54457C29.2604 2.48566 29.3161 2.4372 29.3809 2.40305C29.4457 2.36889 29.5177 2.35 29.5913 2.34786C29.6649 2.34573 29.738 2.36041 29.8048 2.39075C29.8715 2.42109 29.9301 2.46624 29.9758 2.52259C30.0079 2.5729 30.0331 2.62708 30.0508 2.68376L30.7185 2.53725C30.6499 2.31311 30.5108 2.11575 30.3209 1.97318C30.1484 1.85597 29.9833 1.79004 29.5932 1.79004C29.2032 1.79004 28.8881 1.89992 28.6781 2.11236C28.468 2.3248 28.3555 2.62515 28.3555 3.02073C28.3465 3.27725 28.4115 3.53108 28.543 3.75329C28.6443 3.92468 28.7958 4.06248 28.9781 4.14887C29.1841 4.23454 29.407 4.27457 29.6307 4.26607C29.8157 4.27322 30.0001 4.24072 30.1709 4.17084C30.312 4.11097 30.4357 4.01784 30.5309 3.8998C30.6302 3.76035 30.7015 3.60373 30.741 3.43829Z" fill="#2F2F2F"/>
<path d="M31.4611 1.83301H33.764V2.42638H32.9914V4.22114H32.2337V2.42638H31.4611V1.83301Z" fill="#2F2F2F"/>
<path d="M36.6596 1.83301H34.6342V4.22114H36.6971V3.67905H35.3919V3.21021H36.5696V2.72672H35.3919V2.3458H36.6596V1.83301Z" fill="#2F2F2F"/>
<path fillRule="evenodd" clipRule="evenodd" d="M37.6423 1.83304H38.7675C38.9518 1.82601 39.1356 1.85593 39.3076 1.92094C39.4397 1.97843 39.5556 2.06642 39.6452 2.17734C39.735 2.29068 39.8013 2.42008 39.8402 2.55826C39.8795 2.70912 39.8997 2.86412 39.9002 3.01977C39.9092 3.22136 39.8787 3.42277 39.8102 3.61314C39.7565 3.74737 39.6717 3.8677 39.5627 3.96477C39.4657 4.05543 39.3471 4.12092 39.2176 4.15524C39.0712 4.19652 38.9198 4.21869 38.7675 4.22117H37.6423V1.83304ZM38.3999 2.37513V3.67907H38.5875C38.7025 3.68756 38.818 3.67002 38.925 3.6278C38.9973 3.58941 39.0532 3.52706 39.0826 3.45198C39.1255 3.31699 39.1433 3.17556 39.1351 3.03443C39.1351 2.77803 39.0976 2.60954 39.0075 2.51431C38.9175 2.41908 38.7825 2.37513 38.5875 2.37513H38.3999Z" fill="#2F2F2F"/>
<path fillRule="evenodd" clipRule="evenodd" d="M43.9135 1.83337H42.4957V4.2215H43.801C43.914 4.21849 44.0268 4.20871 44.1386 4.1922C44.2404 4.18378 44.3397 4.15643 44.4311 4.11162C44.5305 4.05498 44.6132 3.97423 44.6712 3.8772C44.7313 3.77735 44.7624 3.66338 44.7612 3.54755C44.7665 3.40979 44.7213 3.27471 44.6336 3.16662C44.5341 3.0522 44.3956 2.97675 44.2436 2.95418C44.3455 2.92237 44.4381 2.8671 44.5136 2.79302C44.6042 2.69183 44.6524 2.56106 44.6487 2.42674C44.649 2.34644 44.6318 2.267 44.5981 2.19373C44.5645 2.12046 44.5152 2.05504 44.4536 2.00186C44.3012 1.88217 44.1087 1.82211 43.9135 1.83337ZM43.5909 2.77104H43.2609V2.31686H43.5909C43.6777 2.31041 43.7644 2.33092 43.8385 2.37546C43.8612 2.39584 43.879 2.42085 43.8906 2.4487C43.9023 2.47655 43.9075 2.50657 43.906 2.53662C43.9082 2.56893 43.9034 2.60134 43.8917 2.63166C43.8801 2.66199 43.8619 2.68953 43.8385 2.71244C43.764 2.75608 43.6776 2.77652 43.5909 2.77104ZM43.6435 3.70871H43.2609V3.22522H43.6435C43.741 3.21548 43.839 3.23876 43.921 3.29115C43.9466 3.3116 43.9672 3.33729 43.9815 3.36641C43.9958 3.39553 44.0033 3.42736 44.0035 3.45964C44.005 3.4943 43.9983 3.52882 43.984 3.56056C43.9697 3.59231 43.9482 3.62043 43.921 3.64278C43.839 3.69518 43.741 3.71846 43.6435 3.70871Z" fill="#2F2F2F"/>
<path d="M45.4363 1.83301H46.2765L46.7716 2.63882L47.2667 1.83301H48.0994L47.1467 3.22486V4.22114H46.389V3.22486L45.4363 1.83301Z" fill="#2F2F2F"/>
<path d="M49.3521 2.49316H48.6245V3.15979H49.3521V2.49316Z" fill="#2F2F2F"/>
<path d="M49.3521 3.56269H48.6245V4.22199H49.3521V3.56269Z" fill="#2F2F2F"/>
<path d="M3.7731 5.44509H2.7529C2.7529 5.44509 2.67788 2.83719 5.34091 1.84091C5.34091 1.84091 7.50884 1.14499 8.8741 2.78591C9.55835 3.5383 10.0222 4.45693 10.2169 5.44509H8.97913C8.97913 5.44509 8.62656 3.07161 6.7962 2.97637C6.7962 2.97637 4.57576 2.48556 3.7731 5.44509Z" fill="#2F2F2F"/>
<path fillRule="evenodd" clipRule="evenodd" d="M10.3669 6.13327H2.34033C2.34033 6.13327 1.36514 6.05269 1.44015 7.10024V15.2975C1.44015 15.2975 1.57518 16.118 2.63289 15.9715L10.3669 15.9861C10.3669 15.9861 11.042 15.9349 11.1546 15.2756C11.2671 14.6163 11.1546 6.99036 11.1546 6.99036C11.1546 6.99036 11.2521 6.13327 10.3669 6.13327ZM4.94336 13.6278H7.7039L6.63869 11.6279V10.7781C7.23131 10.7561 7.44135 9.90637 7.44135 9.90637C7.54637 8.70498 6.45866 8.51452 6.45866 8.51452C5.32593 8.33138 5.04088 9.33498 5.04088 9.33498C4.79333 10.3459 5.641 10.7635 5.641 10.7635L5.6635 11.6352L4.94336 13.6278Z" fill="#2F2F2F"/>
</svg>
