<svg width="20" height="21" viewBox="0 0 20 21" fill="none" xmlns="http://www.w3.org/2000/svg">
<path fillRule="evenodd" clipRule="evenodd" d="M10 20.0459C4.47733 20.0459 0 15.5686 0 10.0459C0 4.52323 4.47733 0.0458984 10 0.0458984C15.5227 0.0458984 20 4.52323 20 10.0459C20 15.5686 15.5227 20.0459 10 20.0459ZM5.41667 6.99059L3.61133 7.70721V8.6319L4.91 8.09059V12.8239H5.83333V6.99059H5.41667ZM10.186 9.77059C10.4233 9.6679 10.608 9.50921 10.7393 9.29459C10.8722 9.07621 10.9408 8.82484 10.9373 8.56921C10.9373 8.10259 10.7553 7.72259 10.3913 7.42921C10.028 7.13659 9.57469 6.99059 9.03131 6.99059C8.48331 6.99059 8.02731 7.13721 7.664 7.42921C7.48981 7.56296 7.34962 7.73584 7.25487 7.93396C7.16012 8.13202 7.11344 8.34971 7.11869 8.56921C7.11869 8.8379 7.184 9.0799 7.316 9.29459C7.448 9.50921 7.632 9.6679 7.86931 9.7699C7.58844 9.86615 7.34775 10.0533 7.18531 10.3019C7.02531 10.5486 6.94469 10.8359 6.94469 11.1639C6.94469 11.6686 7.14069 12.0719 7.53331 12.3726C7.92669 12.6732 8.42531 12.8239 9.032 12.8239C9.632 12.8239 10.1293 12.6732 10.522 12.3726C10.9153 12.0719 11.1113 11.6686 11.1113 11.1639C11.1113 10.8366 11.0313 10.5492 10.87 10.3019C10.7076 10.0533 10.4669 9.86615 10.186 9.7699V9.77059ZM9.03131 7.8239C9.334 7.8239 9.57131 7.9019 9.74269 8.05859C9.914 8.21521 10 8.43059 10 8.7039C10 9.2279 9.67731 9.49059 9.03131 9.49059C8.38069 9.49059 8.05531 9.2279 8.05531 8.7039C8.05531 8.43059 8.14131 8.21521 8.31269 8.05859C8.484 7.9019 8.724 7.8239 9.03131 7.8239ZM9.03131 11.9906C8.64469 11.9906 8.338 11.9172 8.114 11.7712C8.00819 11.7073 7.92131 11.6163 7.86225 11.5078C7.80325 11.3991 7.77413 11.2768 7.778 11.1532C7.778 10.5999 8.196 10.3239 9.03131 10.3239C9.86269 10.3239 10.278 10.5999 10.278 11.1532C10.278 11.4199 10.166 11.6252 9.94131 11.7712C9.71731 11.9179 9.414 11.9906 9.032 11.9906H9.03131ZM14.498 8.37921H13.558V10.0092H11.9447V10.9159H13.558V12.5459H14.498V10.9159H16.1113V10.0092H14.498V8.37921Z" fill="#A3A3A0"/>
</svg>
