<svg width="43" height="20" viewBox="0 0 43 20" fill="none" xmlns="http://www.w3.org/2000/svg">
<path d="M0 15.7463V3.97211C0 2.04288 1.66959 0.546265 3.62683 0.546265H39.5096C39.9686 0.53961 40.4243 0.623567 40.8498 0.793192C41.2754 0.962816 41.6622 1.21468 41.9875 1.53393C42.3127 1.85319 42.5699 2.23339 42.7438 2.65213C42.9177 3.07086 43.0048 3.51967 43 3.97211V15.7463" fill="#A3A3A0"/>
<path d="M0 15.7451V15.9556C0.0151732 16.9004 0.401699 17.8026 1.07819 18.4721C1.75468 19.1416 2.66836 19.5263 3.62683 19.5451H39.5096C41.4668 19.5451 43 17.8848 43 15.9556V15.7451" fill="#757573"/>
<path d="M11.4568 5.30381L10.7154 5.99658C10.2099 5.50157 9.61436 5.1049 8.95983 4.82735C8.37404 4.57083 7.7414 4.43457 7.10045 4.42689C6.34943 4.42752 5.6108 4.61557 4.95341 4.9735C4.29946 5.31402 3.75353 5.82584 3.37576 6.45258C3.01001 7.04764 2.81621 7.72991 2.81528 8.42566C2.82036 9.14178 3.02558 9.84267 3.40838 10.4513C3.7912 11.082 4.3406 11.5982 4.9979 11.945C5.68432 12.3144 6.45482 12.5056 7.23686 12.5004C8.14253 12.5268 9.02834 12.2358 9.73679 11.679C10.4065 11.1513 10.8406 10.3867 10.9467 9.54812H7.89521V8.63612H12.0232C12.0232 10.0957 11.5833 11.2542 10.7036 12.1117C9.82378 12.9691 8.65932 13.4007 7.21017 13.4066C5.43086 13.4066 4.02817 12.8122 3.0021 11.6235C2.22057 10.7424 1.79703 9.60763 1.81293 8.43735C1.80887 7.5596 2.04556 6.69708 2.49797 5.94104C2.94319 5.18116 3.59148 4.5563 4.37217 4.13458C5.19745 3.68719 6.12603 3.45761 7.06783 3.46812C7.85332 3.46286 8.6322 3.60985 9.36017 3.90073C10.1416 4.23565 10.8527 4.7115 11.4568 5.30381Z" fill="#14161B"/>
<path d="M13.8398 3.72127H15.7467C16.488 3.69425 17.2302 3.74125 17.9619 3.86158C18.4879 3.98173 18.959 4.26939 19.3023 4.68004C19.6594 5.12018 19.8446 5.67191 19.8243 6.23512C19.8467 6.79622 19.6671 7.34706 19.3172 7.79019C18.9572 8.21143 18.4644 8.50165 17.9174 8.6145C17.113 8.74506 16.2975 8.79696 15.4827 8.76942H14.7977V13.154H13.8398V3.72127ZM14.7977 4.63912V7.8545L16.4198 7.87496C16.9059 7.89828 17.3925 7.83895 17.8581 7.69958C18.1548 7.58571 18.4064 7.38073 18.5758 7.11496C18.7486 6.85441 18.8394 6.54932 18.8367 6.23804C18.8406 5.92659 18.7497 5.62114 18.5758 5.36112C18.4127 5.10682 18.1717 4.91027 17.8878 4.79989C17.4349 4.668 16.9625 4.61363 16.491 4.63912H14.7977Z" fill="#14161B"/>
<path d="M21.1973 3.72168H22.1818L24.1391 10.5266L26.8851 3.72168H27.0838L29.7973 10.5266L31.7871 3.72168H32.7628L30.0108 13.1632H29.8329L26.986 6.01922L24.0916 13.1632H23.9137L21.1973 3.72168Z" fill="#14161B"/>
<path d="M36.8562 3.72168L41.3223 13.1632H40.2873L38.7808 10.056H34.6558L33.1731 13.1632H32.1055L36.6308 3.72168H36.8562ZM36.7346 5.72691L35.0947 9.14399H38.3568L36.7346 5.72691Z" fill="#14161B"/>
<path d="M10.2814 16.5791H10.6521L11.3905 18.4674H11.0109L10.8597 18.0845H10.0827L9.92552 18.4733H9.54297L10.2814 16.5791ZM10.4682 17.0789L10.2102 17.7279H10.7232L10.4682 17.0789Z" fill="white"/>
<path d="M11.668 16.5788H12.0565C12.21 16.571 12.3638 16.5908 12.5102 16.6373C12.6015 16.6739 12.6784 16.7384 12.7296 16.8214C12.7819 16.9102 12.8095 17.011 12.8097 17.1137C12.8148 17.2323 12.7781 17.349 12.7059 17.444C12.63 17.535 12.5257 17.5987 12.4093 17.6253C12.2825 17.6499 12.1531 17.6598 12.0238 17.6545V18.4554H11.668V16.5788ZM12.0327 17.3183H12.1573C12.2212 17.3211 12.2852 17.3142 12.3471 17.2979C12.381 17.2857 12.4101 17.2632 12.4301 17.2336C12.451 17.2013 12.4613 17.1636 12.4598 17.1254C12.462 17.0934 12.4552 17.0614 12.44 17.033C12.4248 17.0045 12.4019 16.9809 12.3738 16.9646C12.3009 16.9338 12.2215 16.9208 12.1425 16.9266H12.0387L12.0327 17.3183Z" fill="white"/>
<path d="M13.1641 16.5788H13.5525C13.7061 16.571 13.8599 16.5908 14.0063 16.6373C14.0976 16.6739 14.1745 16.7384 14.2257 16.8214C14.278 16.9102 14.3056 17.011 14.3058 17.1137C14.3109 17.2323 14.2742 17.349 14.202 17.444C14.1261 17.535 14.0218 17.5987 13.9054 17.6253C13.7786 17.6499 13.6492 17.6598 13.5199 17.6545V18.4554H13.1641V16.5788ZM13.5288 17.3183H13.6415C13.7055 17.3211 13.7695 17.3142 13.8313 17.2979C13.8652 17.2857 13.8943 17.2632 13.9143 17.2336C13.9352 17.2013 13.9455 17.1636 13.944 17.1254C13.9463 17.0934 13.9394 17.0614 13.9242 17.033C13.909 17.0045 13.8861 16.9809 13.858 16.9646C13.7906 16.932 13.7166 16.915 13.6415 16.9149H13.5377L13.5288 17.3183Z" fill="white"/>
<path d="M14.6855 16.5791H15.0711C15.2245 16.5707 15.3781 16.5895 15.5248 16.6347C15.6148 16.6721 15.6905 16.7366 15.7413 16.8188C15.7972 16.9116 15.8259 17.0178 15.8243 17.1257C15.8282 17.237 15.796 17.3465 15.7324 17.4385C15.6637 17.5283 15.5683 17.5947 15.4595 17.6285L15.9133 18.4674H15.5159L15.0859 17.6665H15.0533V18.4674H14.6855V16.5791ZM15.0503 17.3187H15.166C15.2486 17.3263 15.3318 17.3111 15.4062 17.2748C15.4288 17.2573 15.4467 17.2345 15.4581 17.2085C15.4695 17.1824 15.4741 17.154 15.4714 17.1257C15.4723 17.0872 15.4609 17.0494 15.4388 17.0176C15.4174 16.988 15.3874 16.9656 15.3528 16.9533C15.288 16.9365 15.221 16.9296 15.1541 16.9328H15.0533L15.0503 17.3187Z" fill="white"/>
<path d="M17.1153 16.5303C17.246 16.529 17.3757 16.5543 17.4961 16.6046C17.6165 16.6549 17.7251 16.7291 17.8151 16.8226C17.9108 16.9145 17.9864 17.0246 18.0374 17.1462C18.0884 17.2678 18.1137 17.3984 18.1117 17.53C18.1135 17.6607 18.0882 17.7904 18.0372 17.9111C17.9862 18.0317 17.9106 18.1408 17.8151 18.2316C17.6272 18.4168 17.3722 18.5209 17.1064 18.5209C16.8405 18.5209 16.5856 18.4168 16.3976 18.2316C16.2589 18.0921 16.165 17.9155 16.1276 17.7237C16.0901 17.532 16.1108 17.3336 16.187 17.1534C16.2633 16.9731 16.3917 16.819 16.5562 16.7103C16.7208 16.6016 16.9142 16.543 17.1123 16.542L17.1153 16.5303ZM17.1153 16.8811C17.0319 16.8786 16.9489 16.8934 16.8718 16.9246C16.7946 16.9559 16.725 17.0028 16.6675 17.0623C16.6071 17.1238 16.5599 17.1966 16.5288 17.2765C16.4978 17.3564 16.4834 17.4416 16.4866 17.5271C16.4825 17.6218 16.5011 17.716 16.5407 17.8024C16.5804 17.8887 16.64 17.9646 16.7149 18.024C16.8288 18.1177 16.9728 18.1685 17.1212 18.1672C17.2038 18.1686 17.2858 18.1529 17.3619 18.1212C17.438 18.0895 17.5065 18.0424 17.5631 17.9831C17.6807 17.8595 17.7461 17.6965 17.7461 17.5271C17.7461 17.3577 17.6807 17.1946 17.5631 17.0711C17.5057 17.0101 17.4359 16.9619 17.3582 16.9296C17.2804 16.8974 17.1966 16.8818 17.1123 16.884L17.1153 16.8811Z" fill="white"/>
<path d="M18.3047 16.5791H18.6813L19.1647 17.9208L19.654 16.5791H20.0277L19.3337 18.4674H18.9779L18.3047 16.5791Z" fill="white"/>
<path d="M20.3203 16.5791H21.3671V16.9328H20.6821V17.2748H21.3671V17.6168H20.6821V18.1137H21.3671V18.4674H20.3203V16.5791Z" fill="white"/>
<path d="M21.707 16.5794H22.14C22.3517 16.5676 22.5635 16.6026 22.7598 16.6817C22.9027 16.7573 23.0194 16.8733 23.0949 17.0149C23.1701 17.1587 23.2142 17.3164 23.2244 17.4779C23.2346 17.6394 23.2107 17.8013 23.1542 17.9532C23.1081 18.064 23.0383 18.1637 22.9496 18.2455C22.87 18.3218 22.7736 18.3788 22.6679 18.4121C22.4958 18.4505 22.3193 18.4662 22.143 18.4589H21.707V16.5794ZM22.0688 16.9155V18.1081H22.2408C22.3641 18.1158 22.4876 18.0969 22.6026 18.0526C22.6825 18.0097 22.7468 17.9433 22.7865 17.8626C22.8372 17.7599 22.8617 17.6465 22.8577 17.5323C22.863 17.4469 22.8504 17.3613 22.8208 17.2809C22.7913 17.2004 22.7453 17.1268 22.6857 17.0646C22.5475 16.9537 22.3709 16.9002 22.1934 16.9155H22.0688Z" fill="white"/>
<path d="M24.3164 16.5788H24.7049C24.8585 16.571 25.0122 16.5908 25.1586 16.6373C25.2499 16.6739 25.3268 16.7384 25.3781 16.8214C25.4303 16.9102 25.4579 17.011 25.4581 17.1137C25.4632 17.2323 25.4266 17.349 25.3543 17.444C25.2784 17.535 25.1742 17.5987 25.0578 17.6253C24.9309 17.6499 24.8015 17.6598 24.6723 17.6545V18.4554H24.3164V16.5788ZM24.6812 17.3183H24.7968C24.8608 17.3211 24.9248 17.3142 24.9866 17.2979C25.0205 17.2857 25.0496 17.2632 25.0696 17.2336C25.0905 17.2013 25.1009 17.1636 25.0993 17.1254C25.1016 17.0934 25.0947 17.0614 25.0795 17.033C25.0643 17.0045 25.0414 16.9809 25.0133 16.9646C24.9404 16.9338 24.8611 16.9208 24.782 16.9266H24.6782L24.6812 17.3183Z" fill="white"/>
<path d="M26.7227 16.5303C26.8535 16.529 26.9831 16.5543 27.1035 16.6046C27.2239 16.6549 27.3325 16.7291 27.4226 16.8226C27.5182 16.9145 27.5938 17.0246 27.6448 17.1462C27.6958 17.2678 27.7211 17.3984 27.7191 17.53C27.721 17.6607 27.6956 17.7904 27.6446 17.9111C27.5936 18.0317 27.518 18.1408 27.4226 18.2316C27.2346 18.4168 26.9796 18.5209 26.7138 18.5209C26.448 18.5209 26.193 18.4168 26.005 18.2316C25.8664 18.0921 25.7724 17.9155 25.735 17.7237C25.6975 17.532 25.7182 17.3336 25.7945 17.1534C25.8707 16.9731 25.9991 16.819 26.1637 16.7103C26.3282 16.6016 26.5216 16.543 26.7197 16.542L26.7227 16.5303ZM26.7227 16.8811C26.6393 16.8786 26.5563 16.8934 26.4792 16.9246C26.402 16.9559 26.3324 17.0028 26.2749 17.0623C26.2147 17.1243 26.1678 17.1978 26.1373 17.2782C26.1067 17.3586 26.093 17.4442 26.097 17.53C26.0929 17.6247 26.1114 17.719 26.1511 17.8053C26.1908 17.8916 26.2504 17.9675 26.3253 18.0269C26.4392 18.1206 26.5832 18.1714 26.7316 18.1702C26.8142 18.1715 26.8962 18.1558 26.9722 18.1241C27.0483 18.0924 27.1169 18.0453 27.1734 17.986C27.291 17.8625 27.3565 17.6994 27.3565 17.53C27.3565 17.3606 27.291 17.1976 27.1734 17.074C27.1161 17.0121 27.0458 16.9631 26.9676 16.9303C26.8893 16.8976 26.8048 16.8818 26.7197 16.884L26.7227 16.8811Z" fill="white"/>
<path d="M28.082 16.5791H28.4675C28.6209 16.5707 28.7746 16.5895 28.9213 16.6347C29.0112 16.6721 29.087 16.7366 29.1378 16.8188C29.1936 16.9116 29.2224 17.0178 29.2208 17.1257C29.2247 17.237 29.1925 17.3465 29.1289 17.4385C29.0602 17.5283 28.9648 17.5947 28.856 17.6285L29.3098 18.4674H28.9124L28.4675 17.6665H28.4349V18.4674H28.082V16.5791ZM28.4468 17.3187H28.5624C28.6451 17.3263 28.7283 17.3111 28.8027 17.2748C28.8253 17.2573 28.8432 17.2345 28.8546 17.2085C28.866 17.1824 28.8705 17.154 28.8679 17.1257C28.8688 17.0872 28.8574 17.0494 28.8353 17.0176C28.8139 16.988 28.7839 16.9656 28.7493 16.9533C28.6845 16.9365 28.6175 16.9296 28.5506 16.9328H28.4498L28.4468 17.3187Z" fill="white"/>
<path d="M29.418 16.5791H30.4767V16.9328H30.1297V18.4674H29.759V16.9328H29.418V16.5791Z" fill="white"/>
<path d="M31.3126 16.5791H31.6833L32.4217 18.4674H32.0273L31.8909 18.0845H31.108L30.9508 18.4733H30.5742L31.3126 16.5791ZM31.4995 17.0789L31.2415 17.7279H31.7545L31.4995 17.0789Z" fill="white"/>
<path d="M32.7012 16.5791H33.0659V18.1254H33.5968V18.4674H32.7071L32.7012 16.5791Z" fill="white"/>
</svg>
