<svg width="146" height="20" viewBox="0 0 146 20" fill="none" xmlns="http://www.w3.org/2000/svg">
<path d="M3.66886 11.1661H3.91119C4.51702 11.1661 5.21978 11.1661 5.82561 11.1661C6.21334 11.1661 6.52837 11.0934 6.81917 10.8509C7.52193 10.3175 7.52193 9.32334 6.81917 8.86264C6.57684 8.71716 6.35874 8.54743 6.11641 8.54743C5.26825 8.47469 4.49279 8.54743 3.66886 8.47469V11.1661ZM3.66886 15.8458H3.91119C4.61395 15.8458 5.21978 15.8458 5.89831 15.8458C6.04371 15.8458 6.21334 15.8458 6.35874 15.8458C7.2796 15.7003 7.88543 14.8517 7.59463 13.9303C7.44923 13.3241 6.89187 13.0089 6.35874 12.8634C5.97101 12.7907 5.51058 12.7907 5.12285 12.7907C4.66242 12.7907 4.20199 12.7907 3.66886 12.7907V15.8458ZM0.591253 6.70465C1.43941 6.70465 2.36027 6.70465 3.20843 6.70465C4.37162 6.70465 5.51058 6.70465 6.67377 6.77739C7.59463 6.77739 8.37009 7.09261 8.90322 7.84427C9.50905 8.69292 9.67868 9.6143 9.36365 10.6084C9.21825 11.0691 8.90322 11.3843 8.51549 11.6026C8.37009 11.6753 8.27316 11.748 8.12776 11.845C8.44279 11.9905 8.73359 12.1602 8.97592 12.3785C9.58175 12.9119 9.89678 13.6878 9.89678 14.5365C9.89678 15.4578 9.58174 16.2337 8.83052 16.8399C8.29739 17.3006 7.66733 17.5431 6.9888 17.6158C6.74647 17.6158 6.52837 17.6886 6.28604 17.6886C4.44432 17.6886 2.6026 17.6886 0.760886 17.6886C0.688187 17.6886 0.615487 17.6886 0.518555 17.6886V15.9185H1.36671V8.54743H0.518555L0.591253 6.70465ZM140.295 14.3182C140.295 14.0758 140.295 13.8575 140.295 13.6151C140.223 13.0816 139.908 12.6937 139.447 12.4512C138.599 11.9178 137.605 12.2087 137.218 13.1544C136.975 13.8575 136.975 14.4637 137.145 15.1426C137.29 15.6761 137.533 16.064 138.066 16.3065C139.059 16.6944 140.295 15.8458 140.295 14.7789V14.3182ZM138.308 19.4586C137.993 19.3859 137.605 19.3131 137.387 19.1434C136.781 18.8282 136.394 18.3675 136.151 17.6886C136.466 17.6886 136.757 17.6886 137.072 17.6886C137.145 17.6886 137.145 17.7613 137.218 17.7613C137.751 18.6827 138.841 18.9252 139.762 18.3675C140.15 18.125 140.295 17.8341 140.368 17.3734C140.368 16.9127 140.368 16.452 140.368 15.9913C140.295 16.064 140.223 16.2338 140.126 16.3065C139.205 17.3734 137.508 17.1551 136.733 16.064C136.2 15.3609 136.127 14.6092 136.2 13.7606C136.2 13.2271 136.442 12.7664 136.66 12.3057C137.436 11.1419 139.277 10.9236 140.126 12.1602C140.198 12.233 140.271 12.3057 140.368 12.4755V11.4813H142.064V12.1845H141.216V12.427C141.216 14.0515 141.216 15.6518 141.216 17.2764C141.216 18.4402 140.513 19.1192 139.447 19.3616C139.302 19.3616 139.205 19.4344 139.059 19.4344H138.284V19.4586H138.308ZM145.457 3.31006C145.457 2.07346 144.463 1.07933 143.227 1.07933C141.992 1.07933 140.998 2.07346 140.925 3.31006C140.925 4.54666 141.919 5.54079 143.155 5.61353C144.463 5.54079 145.457 4.54666 145.457 3.31006ZM145.917 3.62528C145.845 4.08597 145.675 4.47392 145.384 4.86187C144.681 5.78326 143.542 6.17122 142.452 5.85601C141.386 5.54079 140.61 4.6194 140.538 3.55253C140.392 2.09771 141.386 0.788369 142.767 0.545898C142.767 0.545898 142.84 0.545898 142.912 0.545898H143.518H143.591C144.366 0.691381 144.9 1.00659 145.36 1.61277C145.675 2.00072 145.748 2.38868 145.893 2.84937V3.62528H145.917ZM92.3621 11.9178C92.2167 12.6937 91.9744 13.4453 91.829 14.2212C91.5867 15.2881 91.2959 16.3792 91.0535 17.4461C91.0535 17.5188 91.0535 17.5916 90.9081 17.5916C90.2054 17.5916 89.5268 17.5916 88.8241 17.5916C88.7514 17.3491 88.6787 17.1309 88.6787 16.8884C88.1456 14.9729 87.6124 13.0331 87.152 11.1176C87.152 10.9721 87.0793 10.8752 86.9097 10.8752C86.7643 10.8752 86.5946 10.8752 86.3765 10.8752V9.2506H89.6722V10.8752H88.8241C89.2118 12.4997 89.5995 14.1 89.9873 15.7246C90.06 15.5791 90.06 15.3366 90.1327 15.1911C90.5204 13.2756 90.9081 11.3358 91.3686 9.49307C91.3686 9.42033 91.4413 9.34758 91.514 9.34758C92.1198 9.34758 92.7499 9.34758 93.3557 9.34758C93.5011 9.34758 93.5011 9.42033 93.5011 9.49307C93.9615 11.4813 94.3492 13.4938 94.8097 15.4821C94.8097 15.5548 94.8097 15.5548 94.8824 15.6276L95.9486 10.8509H95.1005V9.22635H98.3962V10.8509C98.2508 10.8509 98.0084 10.8509 97.863 10.8509C97.7903 10.8509 97.7176 10.8509 97.7176 10.9964C97.1845 13.0816 96.5545 15.2154 96.0213 17.3006C95.9486 17.4461 95.9486 17.5431 95.779 17.5431C95.1732 17.5431 94.5431 17.5431 93.9373 17.5431C93.7919 17.5431 93.7919 17.5431 93.6949 17.3976C93.2345 15.6276 92.8468 13.8575 92.3864 12.0148C92.4348 11.9905 92.4348 11.9905 92.3621 11.9178ZM81.2876 8.83839C80.7544 10.4629 80.294 11.9905 79.8336 13.6151H82.6689C82.2084 11.9905 81.748 10.3902 81.2876 8.83839ZM86.425 15.8458V17.6158H83.9775C83.8321 17.0824 83.6624 16.549 83.517 15.9913C83.4443 15.7488 83.3716 15.5306 83.2747 15.2881C83.2747 15.2154 83.202 15.2154 83.1293 15.2154C81.8934 15.2154 80.6818 15.2154 79.5186 15.2154C79.3732 15.2154 79.3732 15.2881 79.3732 15.3609C79.1308 16.064 78.9854 16.7429 78.7673 17.4461C78.7673 17.5188 78.7673 17.5188 78.6946 17.5916H76.1502V15.8216C76.3925 15.8216 76.6106 15.8216 76.8529 15.8216C76.9983 15.8216 76.9983 15.8216 77.0952 15.6761C78.0161 12.6694 79.0097 9.75979 79.9305 6.75315C79.9305 6.60767 80.0032 6.60767 80.1729 6.60767C80.9483 6.60767 81.6995 6.60767 82.5477 6.60767C82.6931 6.60767 82.6931 6.68041 82.79 6.75315C83.7836 9.68705 84.7045 12.6694 85.7222 15.6033C85.7949 15.7488 85.7949 15.7488 85.9646 15.7488C85.9646 15.8458 86.2069 15.8458 86.425 15.8458ZM116.571 12.3785L120.109 12.4512C120.109 11.5298 119.406 10.8267 118.485 10.8267C117.565 10.7782 116.644 11.5298 116.571 12.3785ZM122.484 13.9303H116.571C116.644 14.7062 116.886 15.3851 117.492 15.8458C118.025 16.2338 118.655 16.3065 119.334 16.0883C119.794 15.9428 120.036 15.6276 120.254 15.1669C120.327 15.0941 120.327 15.0214 120.497 15.0214C121.103 15.0214 121.805 15.0214 122.411 14.9487C122.411 15.0941 122.339 15.1911 122.339 15.2639C121.878 16.7187 120.885 17.5673 119.334 17.8098C118.413 17.9553 117.565 17.8826 116.716 17.4219C115.65 16.8884 114.947 15.967 114.632 14.7304C114.317 13.2756 114.487 11.8935 115.408 10.6569C116.935 8.57167 120.182 8.66867 121.708 10.7297C122.169 11.5298 122.557 13.0089 122.484 13.9303ZM13.4348 12.3785L16.9728 12.4512C17.0455 11.6026 16.367 10.9236 15.4462 10.8267C14.5011 10.7054 13.5075 11.4571 13.4348 12.3785ZM19.2023 13.9303H13.2894C13.2894 14.0758 13.2894 14.2455 13.3621 14.391C13.4348 14.7062 13.5075 14.9972 13.6771 15.3124C14.0649 16.0155 14.7434 16.2338 15.5189 16.161C16.2216 16.0883 16.6821 15.7003 16.9002 15.0941C16.9002 15.0214 16.9729 15.0214 17.0455 15.0214C17.6514 15.0214 18.3541 14.9487 18.96 14.9487H19.0327C18.96 15.4094 18.7903 15.7973 18.5722 16.1853C17.9664 17.1066 17.1182 17.6401 16.0278 17.8098C15.1069 17.9553 14.186 17.8826 13.3379 17.4219C12.1747 16.8157 11.5689 15.7973 11.2538 14.585C11.0115 13.3484 11.1084 12.136 11.787 11.0449C13.1682 8.66866 16.7063 8.4262 18.3299 10.7297C18.9357 11.6511 19.2508 12.7179 19.2508 13.8818C19.275 13.8575 19.275 13.8575 19.2023 13.9303ZM104.333 13.6878C103.8 13.7605 103.267 13.7605 102.807 13.9303C102.419 14.003 102.104 14.0758 101.74 14.2455C101.28 14.391 101.135 14.7789 101.135 15.2396C101.135 15.7003 101.45 16.0155 101.91 16.161C102.613 16.4035 103.437 16.161 103.994 15.6276C104.43 15.0699 104.43 14.391 104.333 13.6878ZM104.333 12.3057C104.333 12.0633 104.261 11.7723 104.261 11.5298C104.188 11.0691 103.873 10.7539 103.412 10.6812C103.097 10.6084 102.71 10.6084 102.419 10.6812C101.886 10.8267 101.498 11.1419 101.498 11.748C101.498 11.8208 101.498 11.8935 101.498 11.9905L99.5109 11.9178C99.5109 11.5298 99.5836 11.1419 99.8259 10.8509C100.141 10.2447 100.674 9.78403 101.28 9.54156C102.516 9.08087 103.727 9.08087 104.963 9.6143C105.957 10.0023 106.417 10.8509 106.49 11.845C106.563 12.7664 106.49 13.6878 106.49 14.6819C106.49 15.1426 106.49 15.6033 106.49 16.1368H107.193V17.7613H104.576V16.8399C104.503 16.9127 104.333 17.0824 104.261 17.1551C103.025 18.222 100.965 18.1493 99.8017 17.0824C98.8081 16.0883 98.8081 14.0758 100.335 13.3241C101.038 12.9361 101.716 12.7907 102.492 12.7179C103.097 12.6452 103.727 12.5724 104.406 12.4755C104.261 12.3057 104.261 12.3057 104.333 12.3057ZM42.563 10.7782C42.8781 10.4629 43.0962 10.172 43.4112 9.85677C44.114 9.2506 44.8652 9.00813 45.786 9.15361C46.4888 9.29909 46.8523 9.68704 47.0946 10.3175C47.1673 10.4629 47.1673 10.6327 47.24 10.7782C47.3127 10.7054 47.3854 10.5357 47.4824 10.4629C47.8701 9.85677 48.4032 9.29909 49.1787 9.15361C49.8814 9.00813 50.56 9.00812 51.0931 9.46882C51.5535 9.85677 51.6989 10.3902 51.7959 10.9236C51.7959 11.0691 51.7959 11.3116 51.7959 11.4571C51.7959 13.0816 51.7959 14.6819 51.7959 16.2337V16.4762H52.959V17.4704H50.6569V17.2279C50.6569 15.3124 50.6569 13.4696 50.6569 11.5298C50.6569 11.2873 50.6569 11.1419 50.5842 10.9236C50.4388 10.1477 49.8814 9.75979 49.0575 10.0023C48.4517 10.1477 48.064 10.5357 47.6762 11.0691C47.3612 11.5298 47.2158 12.0633 47.2158 12.5967C47.2158 13.8333 47.2158 15.0456 47.2158 16.2822V16.5247H48.4517V17.5188H45.9314V17.2764C45.9314 15.3609 45.9314 13.4211 45.9314 11.5056C45.9314 11.2631 45.9314 11.0449 45.8587 10.8024C45.7133 10.3417 45.3983 10.0992 44.9379 10.0265C44.2351 9.95376 43.7747 10.269 43.3143 10.7297C42.7811 11.3358 42.4661 11.9663 42.5388 12.8149C42.5388 13.9788 42.5388 15.1184 42.5388 16.355V16.5975H43.7747V17.5916H40.2609V16.5975H41.4241V10.2205H40.2609V9.22635H42.7084C42.4903 9.75978 42.4903 10.2447 42.563 10.7782ZM28.4836 13.1544H25.9391C25.9391 12.8392 25.9391 12.4512 26.0118 12.1602H29.8649V17.5431H28.6532V15.8458C28.5805 15.9185 28.5805 15.9185 28.5805 15.9913C27.8051 17.1551 26.8115 17.7613 25.4302 17.8341C24.364 17.8341 23.5158 17.4461 22.6676 16.7672C21.7468 15.9185 21.2136 14.8517 20.9713 13.6878C20.6563 12.1602 20.8259 10.6084 21.4317 9.15361C21.8922 8.15948 22.5949 7.31083 23.5885 6.85014C25.2121 6.07423 27.1992 6.38944 28.3624 8.08674C28.3624 8.15948 28.4351 8.15947 28.5078 8.23222V6.53492H29.671V10.0023H28.4109C28.3382 9.54156 28.0959 9.15361 27.8778 8.76565C27.2719 7.91701 26.4238 7.45631 25.4302 7.45631C24.5094 7.45631 23.7339 7.91701 23.2008 8.62017C22.6676 9.22635 22.4253 10.0023 22.2799 10.8509C22.1345 12.0148 22.2072 13.0816 22.5949 14.1485C22.8373 14.7547 23.1281 15.3124 23.6612 15.7731C24.5821 16.6217 25.7452 16.7672 26.8115 16.2337C27.8778 15.7731 28.5805 14.4637 28.4836 13.1544ZM61.0771 13.3968C61.0771 13.2514 61.0771 13.0816 61.0771 12.8634C61.0044 12.2572 60.8348 11.6268 60.544 11.0934C59.9382 10.2447 58.9204 9.92952 57.9995 10.3902C57.1514 10.7782 56.3032 11.845 56.4729 13.0089C56.5456 13.6151 56.4729 14.1727 56.6183 14.7789C56.7637 15.7731 57.7814 16.6217 58.775 16.7672C59.6232 16.8399 60.3986 16.3792 60.7621 15.6033C60.9318 14.8517 61.0771 14.1485 61.0771 13.3968ZM55.1643 7.23809H54.098V6.24396H56.4002V11.0206C56.4729 10.9479 56.4729 10.8752 56.5456 10.8752C56.7879 10.4872 57.1514 10.0992 57.5391 9.80828C58.6054 9.03237 59.914 9.03237 61.0045 9.95376C61.7799 10.5599 62.1676 11.4086 62.3857 12.33C62.7008 13.7121 62.5311 15.0214 61.7799 16.258C61.3922 16.8642 60.8591 17.4219 60.1563 17.7128C59.09 18.1008 57.8541 17.7856 57.0787 16.9369C56.9333 16.6944 56.691 16.4762 56.4729 16.2337V17.6886H54.098V16.6944H55.2612V7.23809H55.1643ZM36.7229 13.3968C36.6502 13.3968 36.5775 13.3968 36.5775 13.3968C35.8747 13.4696 35.1962 13.6393 34.4207 13.7848C33.9603 13.8575 33.4998 14.0273 33.1121 14.3182C32.8698 14.4637 32.6517 14.7062 32.6517 15.0941C32.5063 16.0155 33.1848 16.9369 34.1784 17.0097C35.2446 17.0824 36.4078 16.2338 36.6259 15.1669C36.7229 14.4637 36.6259 13.9303 36.7229 13.3968ZM37.7891 16.6944H38.9523C38.9523 17.0097 39.025 17.3976 39.025 17.6886H36.6502V16.2337C36.5775 16.3065 36.5775 16.3065 36.5775 16.3065C35.9716 17.3006 35.0508 17.7613 33.8876 17.8341C32.894 17.9068 32.1186 17.5188 31.5854 16.6702C31.125 15.8943 30.9796 15.1426 31.44 14.294C31.6824 13.7605 32.1428 13.5181 32.6759 13.2999C33.3787 12.9846 34.1299 12.8392 34.9054 12.6937C35.4385 12.6209 36.0686 12.5482 36.6744 12.4512C36.6744 12.0633 36.6744 11.6026 36.6017 11.2146C36.4563 10.6084 35.9959 10.2932 35.4385 10.1477C34.9781 10.0023 34.4449 10.075 33.9845 10.1477C33.3787 10.2932 32.991 10.7539 32.8213 11.3116C32.7486 11.4571 32.7486 11.5541 32.5063 11.5541C32.1186 11.5541 31.8035 11.5541 31.44 11.5541C31.6824 10.5599 32.1428 9.85677 33.0637 9.39608C34.1299 8.93538 35.2204 8.93538 36.2867 9.39608C37.1348 9.78403 37.5952 10.4629 37.7406 11.3843C37.7406 11.6268 37.7406 11.7723 37.7406 11.9905C37.7406 13.4453 37.7406 14.8274 37.7406 16.3065L37.7891 16.6944ZM68.9045 12.7664H73.436C73.436 12.0633 73.1937 11.5298 72.9029 10.9964C72.4425 10.3902 71.9094 10.075 71.1339 10.2205C69.6799 10.3902 69.0014 11.4571 68.9045 12.7664ZM74.8416 13.6878H68.856C68.9287 14.003 68.9287 14.2212 69.0014 14.4637C69.0741 14.9244 69.2437 15.3851 69.5345 15.8458C70.1403 16.7672 71.5216 17.0824 72.3698 16.549C72.7575 16.3065 72.9756 15.9428 73.2179 15.5548C73.2906 15.4094 73.3633 15.3124 73.533 15.3124C73.9207 15.3124 74.3084 15.3124 74.6962 15.3124C74.6235 15.4578 74.6235 15.6276 74.5508 15.7731C74.0176 17.0097 72.5637 17.8583 71.1581 17.6886C69.2437 17.5431 67.9351 16.2337 67.6201 14.294C67.3778 13.0574 67.5474 11.845 68.2259 10.7539C68.759 9.83253 69.6072 9.22635 70.6735 9.05662C72.2002 8.81415 73.6057 9.59006 74.2842 10.9721C74.6719 11.748 74.8173 12.5967 74.8173 13.5181C74.8416 13.6878 74.8416 13.6878 74.8416 13.6878ZM111.022 15.9913H112.015V17.6158H108.162V15.9913H109.01V10.9236H108.162V9.29909H110.997V10.5357C111.07 10.4629 111.143 10.2932 111.143 10.2205C111.458 9.75978 111.846 9.29909 112.451 9.22635C112.912 9.08086 113.445 9.15361 113.905 9.22635L113.978 9.29909C113.978 9.90527 113.978 10.5357 113.978 11.1419C113.736 11.1419 113.518 11.0691 113.275 11.0691C112.669 10.9964 112.039 11.1419 111.579 11.5298C111.191 11.845 111.046 12.3057 110.973 12.7664C110.973 13.7606 110.973 14.7547 110.973 15.8458C110.949 15.9185 110.949 15.9185 111.022 15.9913ZM64.2275 7.16535H63.0643V6.24396H65.4391V16.6217H66.5054V17.6158H63.0643V16.6217H64.2275V7.16535ZM126.41 14.6092C126.41 15.0699 126.482 15.5306 126.652 15.9913C126.967 16.5975 127.427 16.9854 128.106 16.9854C128.785 16.9854 129.342 16.6702 129.633 16.064C129.778 15.6761 129.875 15.3609 129.948 14.9002C130.02 14.294 129.948 13.6636 129.633 13.1301C129.318 12.524 128.785 12.2087 128.106 12.2087C127.427 12.2087 127.04 12.5967 126.725 13.1301C126.41 13.6151 126.41 14.0758 126.41 14.6092ZM130.844 14.4637C130.844 15.2396 130.699 15.9185 130.311 16.452C129.705 17.3734 128.857 17.6886 127.767 17.6158C126.773 17.5431 126.07 16.9127 125.683 15.9913C125.295 14.9971 125.222 13.906 125.683 12.9119C126.143 11.9178 126.991 11.3843 128.13 11.3843C129.269 11.3843 130.045 11.9178 130.505 12.9119C130.772 13.4696 130.844 14.003 130.844 14.4637ZM134.237 17.5431H131.547V16.8399H132.395V12.3057H131.547V11.6026H133.316V12.8392C133.631 12.3057 134.019 11.7723 134.625 11.5298C134.94 11.4571 135.473 11.4571 135.788 11.5298V12.3785C135.643 12.3785 135.473 12.3785 135.327 12.3057C134.261 12.233 133.34 13.0089 133.34 14.0758C133.34 14.9244 133.34 15.8458 133.34 16.6944V16.7672H134.334L134.237 17.5431ZM123.477 16.549H124.471V17.5431H123.477V16.549ZM142.525 2.07346V2.99485C142.84 2.99485 143.131 2.99485 143.446 2.99485C143.518 2.99485 143.591 2.99485 143.688 2.92211C143.93 2.84937 144.003 2.67964 143.93 2.38867C143.93 2.1462 143.785 2.00072 143.542 2.00072C143.227 2.07346 142.912 2.07346 142.525 2.07346ZM143.833 3.23732C144.148 3.31006 144.221 3.55253 144.221 3.77076C144.221 3.98898 144.294 4.30419 144.294 4.54667C143.833 4.54667 143.906 4.6194 143.833 4.15871C143.833 4.01323 143.833 3.8435 143.761 3.69802C143.688 3.45555 143.615 3.31006 143.3 3.31006C142.985 3.31006 142.694 3.31006 142.379 3.31006V4.47392H141.992V1.70975C142.064 1.70975 142.137 1.70975 142.307 1.70975C142.694 1.70975 143.082 1.70975 143.47 1.70975C143.858 1.70975 144.076 1.95223 144.173 2.24319C144.391 2.70389 144.221 2.99485 143.833 3.23732Z" fill="#A3A3A0"/>
</svg>
