<svg width="70" height="21" viewBox="0 0 70 21" fill="none" xmlns="http://www.w3.org/2000/svg">
<path d="M26.1699 7.65895C26.2161 7.83227 26.1583 7.93625 26.0197 7.98247L24.691 8.3753C24.5292 8.42152 24.4483 8.3753 24.3906 8.21355C24.1826 7.53186 23.7436 7.17368 22.9232 7.17368C21.6754 7.17368 21.2479 7.91314 21.2479 8.90679V11.1945C21.2479 12.1881 21.6638 12.9276 22.9232 12.9276C23.9515 12.9276 24.4946 12.4539 24.4946 11.4025V11.1021H23.1427C23.0272 11.1021 22.9579 11.0443 22.9579 10.9056V9.63469C22.9463 9.54226 23.0156 9.44983 23.1196 9.43827C23.1312 9.43827 23.1427 9.43827 23.1427 9.43827H26.1468C26.2739 9.43827 26.3432 9.49604 26.3432 9.62314V11.518C26.3432 13.3204 25.0145 14.6838 22.9463 14.6838C20.4969 14.6838 19.353 13.228 19.353 11.2407V8.82591C19.353 6.83862 20.4969 5.38281 22.9463 5.38281C24.9221 5.39437 25.8117 6.52666 26.1699 7.65895ZM32.9059 9.91199V14.3487C32.9174 14.4412 32.8366 14.522 32.7441 14.5336C32.7326 14.5336 32.7326 14.5336 32.721 14.5336H31.3692C31.2768 14.5451 31.1843 14.4758 31.1728 14.3718C31.1728 14.3603 31.1728 14.3487 31.1728 14.3487V13.6208C30.7799 14.2794 30.0752 14.6838 29.301 14.6722C28.0185 14.6722 27.1982 13.8519 27.1982 12.581C27.1982 11.3447 27.9723 10.6168 29.8672 10.4781C30.2716 10.4435 30.6875 10.4435 31.1035 10.4666V9.96976C31.1035 9.31118 30.7568 9.04544 30.1676 9.04544C29.5668 9.04544 29.3935 9.28807 29.2317 9.66935C29.1739 9.81956 29.1162 9.84266 28.9891 9.808L27.6373 9.46138C27.4986 9.42672 27.4871 9.34584 27.5102 9.25341C27.695 8.28287 28.6193 7.56652 30.2369 7.56652C31.9469 7.57808 32.9059 8.39841 32.9059 9.91199ZM31.1035 12.2459V11.5989C30.7453 11.5873 30.3756 11.5989 30.0174 11.6335C29.3241 11.7144 28.966 11.9339 28.966 12.4539C28.966 12.9276 29.2895 13.1933 29.8094 13.1933C30.4102 13.1933 30.8839 12.8698 31.1035 12.2459ZM37.7817 7.57808C38.6367 7.57808 39.2028 8.08645 39.4686 8.81436C39.9769 8.0749 40.5893 7.57808 41.4443 7.57808C42.6344 7.57808 43.3161 8.5255 43.3161 9.93509V14.3487C43.3161 14.4643 43.2121 14.5336 43.0965 14.5336H41.6869C41.5598 14.5336 41.4674 14.4643 41.4674 14.3487V10.2586C41.4674 9.64625 41.2017 9.27652 40.7164 9.27652C40.208 9.27652 39.8383 9.69246 39.665 10.3279V14.3487C39.6765 14.4412 39.5957 14.522 39.5032 14.5336H39.4917H37.9665C37.851 14.5336 37.8048 14.4643 37.8048 14.3487V10.2586C37.8048 9.64625 37.5275 9.27652 37.0538 9.27652C36.5338 9.27652 36.1641 9.71557 36.0024 10.351V14.3603C36.0139 14.4527 35.9446 14.5336 35.8522 14.5451C35.8406 14.5451 35.8291 14.5451 35.8175 14.5451H34.327C34.2346 14.5567 34.1537 14.4874 34.1422 14.3949C34.1422 14.3834 34.1422 14.3718 34.1422 14.3603V7.91314C34.1422 7.82071 34.223 7.73983 34.3155 7.73983H34.327H35.7597C35.8522 7.72828 35.933 7.7976 35.9446 7.90159V7.91314V8.68726C36.3374 8.10956 36.9267 7.57808 37.7817 7.57808ZM51.0457 7.72828C51.0804 7.89003 51.0341 8.00557 50.8839 8.05179L49.5783 8.43307C49.4166 8.47929 49.3357 8.42152 49.2779 8.27132C49.0931 7.65895 48.7696 7.16213 47.8683 7.16213C46.7476 7.16213 46.3894 7.90159 46.3894 8.89523V11.1829C46.3894 12.1766 46.7938 12.916 47.8683 12.916C48.8273 12.916 49.197 12.373 49.3472 11.7029C49.3819 11.5527 49.4859 11.4833 49.6477 11.5411L50.9533 11.957C51.1035 12.0033 51.1497 12.1188 51.115 12.2806C50.8031 13.6093 49.8441 14.6953 47.8568 14.6953C45.6153 14.6953 44.4946 13.2395 44.4946 11.2523V8.83746C44.4946 6.85017 45.65 5.39437 47.8568 5.39437C49.7979 5.39437 50.7106 6.42267 51.0457 7.72828ZM57.5968 9.91199V14.3487C57.6084 14.4412 57.5275 14.522 57.4351 14.5336C57.4235 14.5336 57.4235 14.5336 57.4119 14.5336H56.0601C55.9677 14.5451 55.8753 14.4758 55.8637 14.3718C55.8637 14.3603 55.8637 14.3487 55.8637 14.3487V13.6208C55.4709 14.2794 54.7661 14.6838 53.992 14.6722C52.7095 14.6722 51.8891 13.8519 51.8891 12.581C51.8891 11.3447 52.6633 10.6168 54.5581 10.4781C54.9625 10.4435 55.3784 10.4435 55.7944 10.4666V9.96976C55.7944 9.31118 55.4478 9.04544 54.8585 9.04544C54.2577 9.04544 54.0844 9.28807 53.9226 9.66935C53.8649 9.81956 53.8071 9.84266 53.68 9.808L52.3282 9.46138C52.1895 9.42672 52.178 9.34584 52.2011 9.25341C52.386 8.28287 53.3103 7.56652 54.9278 7.56652C56.6378 7.57808 57.5968 8.39841 57.5968 9.91199ZM55.7828 12.2459V11.5989C55.4247 11.5873 55.0549 11.5989 54.6968 11.6335C54.0035 11.7144 53.6453 11.9339 53.6453 12.4539C53.6453 12.9276 53.9689 13.1933 54.4888 13.1933C55.1012 13.1933 55.5633 12.8698 55.7828 12.2459ZM62.8539 7.85537V9.17253C62.8539 9.33429 62.7961 9.39206 62.6344 9.39206H62.4379C61.4559 9.39206 60.8782 9.83111 60.6817 10.5706V14.3603C60.6933 14.4527 60.624 14.5336 60.5315 14.5451H60.52H58.9717C58.8793 14.5451 58.81 14.4643 58.81 14.3718C58.81 14.3718 58.81 14.3718 58.81 14.3603V7.90159C58.81 7.80916 58.8793 7.72828 58.9602 7.72828C58.9717 7.72828 58.9833 7.72828 58.9833 7.72828H60.3813C60.5315 7.72828 60.5662 7.82071 60.5662 7.9247V8.83746C60.8897 8.23665 61.4905 7.6474 62.5419 7.6474C62.8077 7.6474 62.8539 7.68206 62.8539 7.85537ZM65.2687 11.7029V11.957C65.2687 12.6734 65.6384 13.1702 66.505 13.1702C67.3484 13.1702 67.591 12.8467 67.8106 12.4423C67.9261 12.2575 67.9723 12.2343 68.1687 12.3152L69.1393 12.812C69.3357 12.916 69.3472 13.0085 69.2664 13.1933C68.8504 14.1408 67.799 14.6838 66.505 14.6838C64.5408 14.6838 63.5009 13.5168 63.5009 11.9224V10.351C63.5009 8.8028 64.4715 7.58963 66.4819 7.58963C68.3998 7.58963 69.3357 8.8028 69.3357 10.3164V11.4025C69.3357 11.5873 69.2779 11.7144 69.0122 11.7144L65.2687 11.7029ZM65.2687 10.2586V10.4897H67.6373V10.2586C67.6373 9.60003 67.2675 9.0801 66.4587 9.0801C65.65 9.0801 65.2687 9.60003 65.2687 10.2586Z" fill="#A3A3A0"/>
<path d="M8.50375 0.0458984H0.25419C0.115542 0.0458984 0 0.161438 0 0.300086V12.2932C0 16.5681 3.46621 20.0459 7.75274 20.0459H8.50375C12.7787 20.0459 16.2449 16.5797 16.2449 12.2932V7.79864C16.2565 3.5121 12.7903 0.0458984 8.50375 0.0458984ZM13.7724 12.4202C13.7724 15.3319 11.6233 17.5387 8.29578 17.5387C4.34431 17.5387 2.49567 15.1932 2.49567 11.9812V8.08749C2.49567 4.87548 4.34431 2.53001 8.29578 2.53001C11.4962 2.53001 12.9405 4.35555 13.5182 6.18108C13.5991 6.45838 13.4951 6.62013 13.2756 6.70101L11.1265 7.33648C10.8723 7.41736 10.7337 7.33648 10.6528 7.08229C10.3177 5.98466 9.60139 5.39541 8.29578 5.39541C6.27383 5.39541 5.59214 6.58547 5.59214 8.19148V11.8888C5.59214 13.4948 6.26228 14.6848 8.29578 14.6848C9.95956 14.6848 10.8377 13.9107 10.8377 12.2238V11.7501H8.6193C8.44598 11.7501 8.31889 11.6461 8.31889 11.4382V9.3931C8.31889 9.19668 8.43443 9.06958 8.6193 9.06958H13.4604C13.6568 9.06958 13.7724 9.17357 13.7724 9.36999V12.4202Z" fill="#A3A3A0"/>
</svg>
