<svg width="85" height="15" viewBox="0 0 85 15" fill="none" xmlns="http://www.w3.org/2000/svg">
<path d="M4.06885e-06 4.7922C4.06885e-06 9.94117 -0.00341783 9.85023 0.188209 10.5218C0.687806 12.2743 2.1079 13.593 3.89071 13.9568C4.34924 14.0478 5.27658 14.0408 5.73853 13.9393C6.40581 13.7924 6.89514 13.579 7.46317 13.1943C9.21519 11.9945 9.98512 9.7208 9.33838 7.64303C9.10569 6.90496 8.72586 6.27183 8.16124 5.69117C7.45975 4.9706 6.63849 4.52286 5.65641 4.32348C5.2013 4.23253 4.30134 4.23952 3.8428 4.34097C3.06603 4.51237 2.36796 4.84817 1.75544 5.35187L1.64252 5.44282V3.30208V1.16483L0.821261 0.605161L4.06885e-06 0.0454893V4.7922ZM5.55033 6.02348C6.40923 6.25084 7.14151 6.842 7.55899 7.64303C8.39051 9.23109 7.7643 11.2074 6.16969 12.0225C5.56402 12.3303 4.81804 12.4317 4.17473 12.2953C3.00786 12.0469 2.11132 11.2074 1.75544 10.0251C1.67331 9.74879 1.66305 9.66134 1.66305 9.15764C1.65963 8.67492 1.66989 8.55949 1.73833 8.31813C2.03604 7.26175 2.7957 6.43623 3.79147 6.09693C3.96257 6.03747 4.19526 5.97451 4.30476 5.95702C4.60589 5.90804 5.2492 5.94302 5.55033 6.02348Z" fill="#A3A3A0"/>
<path d="M20.7129 4.86493C20.7232 10.2343 20.7095 9.90197 20.9627 10.6785C21.4589 12.2036 22.6737 13.4034 24.1656 13.8442C24.4907 13.9386 25.0861 14.04 25.3359 14.04H25.4933V13.204V12.3715L25.2196 12.347C24.4838 12.2841 23.7344 11.9063 23.2143 11.3361C22.8379 10.9269 22.595 10.4651 22.4375 9.87399C22.3657 9.58716 22.3623 9.53119 22.3623 7.76123V5.9423L23.7584 5.9318L25.1511 5.92481V5.0853V4.24579H23.7481H22.3452V2.6962V1.14662L21.5684 0.621923C21.1441 0.335092 20.7745 0.0867376 20.7471 0.0727463C20.7061 0.0482607 20.7026 0.772335 20.7129 4.86493Z" fill="#A3A3A0"/>
<path d="M37.583 4.8982C37.5933 9.6764 37.5933 9.75685 37.6651 10.0857C37.8842 11.1071 38.2914 11.8731 38.9894 12.5902C39.3658 12.9715 39.8073 13.3073 40.2042 13.5136C40.738 13.7865 41.4429 13.9824 42.052 14.0278L42.3634 14.0488V13.2023V12.3593H42.2026C41.9562 12.3593 41.4532 12.2404 41.1623 12.118C40.4335 11.8066 39.7799 11.149 39.4788 10.425C39.424 10.285 39.3453 10.0612 39.3042 9.92825C39.2358 9.68689 39.2358 9.60294 39.2221 5.4159L39.2118 1.14841L38.9826 0.994497C38.856 0.907048 38.4864 0.658694 38.1613 0.441821L37.5693 0.0465536L37.583 4.8982Z" fill="#757573"/>
<path d="M62.3467 6.9892V13.9326H63.1679H63.9892V12.4635V10.9908L64.6736 10.1199C65.05 9.63714 65.3648 9.24537 65.3716 9.24537C65.3785 9.24537 65.9294 10.2983 66.5933 11.589L67.8046 13.9326H68.7525C69.276 13.9326 69.7038 13.9256 69.7038 13.9221C69.7038 13.9151 68.9886 12.5439 68.1126 10.8789C67.2366 9.21039 66.518 7.8357 66.5146 7.81821C66.5077 7.80422 67.1305 6.99269 67.9004 6.01677C68.6669 5.04084 69.2931 4.23631 69.2931 4.22582C69.2931 4.21533 68.8243 4.20833 68.2563 4.20833H67.216L65.6283 6.23364C64.7557 7.34949 64.0303 8.26245 64.0166 8.26245C63.9995 8.26595 63.9892 6.66389 63.9892 4.70504V1.14763L63.6538 0.923761C63.4725 0.797835 63.1029 0.54948 62.836 0.371086L62.3467 0.0457764V6.9892Z" fill="#757573"/>
<path d="M26.9302 4.84442C26.9302 10.0983 26.9234 9.89895 27.1424 10.609C27.6043 12.1027 28.7746 13.3129 30.2152 13.7852C30.8004 13.9776 31.0673 14.0195 31.7038 14.0195C32.3436 14.0195 32.6242 13.9741 33.1923 13.7887C34.3968 13.3899 35.4199 12.4874 35.9982 11.3121C36.1591 10.9868 36.3644 10.3222 36.426 9.94443C36.4944 9.51418 36.491 8.75512 36.4226 8.33187C36.0941 6.33455 34.6158 4.77796 32.6345 4.34072C32.176 4.24278 31.3102 4.23228 30.8517 4.32673C30.1468 4.46664 29.3974 4.79895 28.8738 5.20471C28.713 5.33064 28.5693 5.43208 28.559 5.43208C28.5488 5.43208 28.5385 4.46664 28.5385 3.28434V1.1366L27.7617 0.618905C27.3374 0.332074 26.9747 0.0907154 26.9576 0.0872173C26.9439 0.0802221 26.9302 2.22096 26.9302 4.84442ZM32.4908 6.02323C32.6414 6.06521 32.9048 6.16665 33.0725 6.2506C35.0641 7.25451 35.4644 9.93043 33.8561 11.487C33.5892 11.7424 33.3873 11.8788 33.0109 12.0607C32.5216 12.295 32.306 12.3405 31.6866 12.337C31.2144 12.3335 31.1255 12.3265 30.8551 12.2426C29.7019 11.8823 28.8602 10.9588 28.6172 9.78702C28.5522 9.46871 28.5522 8.80759 28.6206 8.48578C28.8909 7.20553 29.8799 6.21911 31.1494 5.97076C31.4882 5.9043 32.1383 5.93228 32.4908 6.02323Z" fill="#757573"/>
<path d="M80.2334 4.23281C80.2197 4.24331 80.2095 6.43302 80.2095 9.09496V13.9326H81.0307H81.8486L81.8588 11.2812C81.8725 8.66821 81.8725 8.62973 81.9478 8.35339C82.0436 8.0036 82.2523 7.54887 82.4474 7.27253C82.6185 7.02767 82.9949 6.64989 83.2207 6.49249C83.6485 6.19516 84.2405 5.97829 84.7264 5.93631L85.0001 5.91183V5.07232V4.23281L84.7024 4.2573C84.0694 4.30977 83.4158 4.49166 82.8614 4.775C82.5843 4.91841 82.0299 5.28919 81.9546 5.38364C81.9307 5.41162 81.8999 5.43261 81.8828 5.43261C81.8657 5.43261 81.852 5.15627 81.852 4.82047V4.20833H81.0547C80.6133 4.20833 80.2437 4.21882 80.2334 4.23281Z" fill="#757573"/>
<path d="M14.5293 4.27894C13.4171 4.42235 12.4967 4.88758 11.7028 5.70959C11.0013 6.43367 10.6078 7.17523 10.3956 8.17215C10.2861 8.69684 10.2861 9.60631 10.3956 10.117C10.5017 10.5997 10.6454 11.0125 10.8507 11.4112C11.5214 12.723 12.7328 13.6464 14.1836 13.9543C14.6148 14.0452 15.5661 14.0452 15.9973 13.9543C18.1565 13.496 19.7066 11.7016 19.8674 9.46289L19.8914 9.14108H19.0701H18.2489L18.2249 9.42091C18.1839 9.92462 17.982 10.5053 17.6911 10.9495C17.4995 11.2433 16.9999 11.7261 16.6987 11.9045C15.8193 12.4291 14.7927 12.4956 13.8449 12.0933C13.5745 11.9779 13.1297 11.6736 12.9415 11.4742L12.7944 11.3203L16.2163 9.45589C18.1017 8.431 19.6416 7.574 19.6416 7.54951C19.6416 7.45507 19.183 6.57709 18.9846 6.29375C18.2934 5.29684 17.2291 4.59375 16.0383 4.3454C15.6448 4.26494 14.8988 4.22996 14.5293 4.27894ZM15.8604 6.02441C16.3497 6.15733 16.9485 6.49313 17.2394 6.80795L17.3558 6.93038L16.709 7.28017C16.3566 7.47256 15.1589 8.12667 14.0468 8.73182L12.0278 9.83367L11.9971 9.73923C11.9799 9.69026 11.9663 9.41042 11.9663 9.12359C11.9663 8.65137 11.9731 8.56742 12.0586 8.28758C12.4214 7.0668 13.3453 6.2098 14.5532 5.97194C14.8886 5.90548 15.5079 5.93346 15.8604 6.02441Z" fill="#A3A3A0"/>
<path d="M46.9689 4.27904C45.145 4.5134 43.6189 5.76217 43.0166 7.50764C42.8216 8.07781 42.76 8.45908 42.76 9.14118C42.7565 9.83028 42.7976 10.0961 42.9995 10.7153C43.5367 12.3698 44.9055 13.5871 46.6404 13.9579C47.0476 14.0453 48.0126 14.0453 48.4198 13.9579C50.3805 13.5346 51.8075 12.0899 52.2249 10.1101C52.331 9.59941 52.331 8.68295 52.2249 8.17225C52.0162 7.18233 51.6022 6.40579 50.9041 5.69221C50.1992 4.96813 49.3779 4.5204 48.4164 4.33151C48.0742 4.26505 47.2974 4.23706 46.9689 4.27904ZM48.3 6.02451C48.6011 6.10497 49.0494 6.31134 49.3026 6.48624C49.5353 6.65064 49.9117 7.02842 50.0828 7.27328C50.5756 7.97637 50.7809 8.92781 50.6166 9.73583C50.4763 10.4389 50.1752 10.9881 49.6585 11.4883C49.0289 12.0969 48.2282 12.3978 47.359 12.3488C46.5754 12.3033 45.9389 12.02 45.364 11.4533C44.9021 10.9986 44.6283 10.5229 44.4641 9.89324C44.3683 9.51896 44.3751 8.72842 44.4778 8.36114C44.8336 7.09139 45.7575 6.2134 46.9929 5.97204C47.3282 5.90558 47.9476 5.93357 48.3 6.02451Z" fill="#A3A3A0"/>
<path d="M46.2061 7.07732C45.9563 7.24522 45.5627 7.66498 45.443 7.89584L45.3574 8.05675L46.976 9.71127L48.5911 11.3623L48.7519 11.2749C48.9641 11.1629 49.5082 10.6067 49.6177 10.3899L49.7032 10.2255L48.0949 8.58144C47.2087 7.67547 46.473 6.9374 46.4524 6.9374C46.4319 6.9374 46.3224 7.00037 46.2061 7.07732Z" fill="#757573"/>
<path d="M57.3167 4.28279C56.5091 4.38423 55.64 4.74452 55.0069 5.24123C54.6579 5.51407 54.148 6.06674 53.9188 6.41654C53.5355 7.00419 53.2925 7.64082 53.1694 8.3544C53.0838 8.87909 53.0975 9.67662 53.207 10.1593C53.6416 12.1042 55.024 13.5034 56.9437 13.9406C57.4057 14.0456 58.2954 14.0526 58.7642 13.9581C59.1372 13.8812 59.5991 13.7272 59.9413 13.5663C60.2185 13.4369 60.7694 13.0731 60.985 12.8772L61.115 12.7618L60.5607 12.1392L60.0097 11.52L59.9208 11.604C59.7531 11.7579 59.4075 11.9783 59.1269 12.1042C58.3159 12.461 57.2893 12.4365 56.5194 12.0412C55.8556 11.6984 55.3799 11.2052 55.0548 10.5231C54.8153 10.0194 54.7366 9.62765 54.7605 9.01901C54.7811 8.46983 54.8427 8.21798 55.0582 7.75975C55.3457 7.1546 55.7118 6.74185 56.2559 6.39905C57.3304 5.72045 58.6957 5.77991 59.7428 6.54596C59.8797 6.6474 60.0063 6.72086 60.0234 6.70337C60.0371 6.68938 60.2801 6.40954 60.5641 6.08423L61.0808 5.48958L60.9679 5.39164C60.4272 4.90892 59.5512 4.48917 58.7539 4.33176C58.4014 4.2618 57.6657 4.23732 57.3167 4.28279Z" fill="#757573"/>
<path d="M73.9679 4.27904C71.8292 4.55538 70.149 6.18542 69.7932 8.33316C69.7213 8.7599 69.7213 9.51896 69.7932 9.94921C69.8547 10.334 70.0635 10.9951 70.2209 11.3134C70.895 12.6846 72.12 13.6325 73.6394 13.9579C74.0432 14.0453 74.9808 14.0453 75.3845 13.9579C76.9039 13.6325 78.1289 12.6881 78.803 11.3134C79.0631 10.7887 79.2855 9.89674 79.2855 9.37904V9.14118H78.4848H77.6841L77.6635 9.27061C77.6533 9.34406 77.6362 9.49797 77.6259 9.6134C77.5985 9.86176 77.4651 10.313 77.3453 10.5578C77.1194 11.0126 76.6917 11.5163 76.2913 11.7996C76.0621 11.9605 75.5454 12.2019 75.2648 12.2753C75.08 12.3243 74.9055 12.3383 74.4948 12.3383C74.0192 12.3348 73.9337 12.3278 73.6565 12.2404C73.1637 12.0865 72.5923 11.7437 72.298 11.4253L72.2022 11.3239L75.6241 9.45949C77.7696 8.29118 79.046 7.5776 79.046 7.54612C79.046 7.45867 78.7243 6.78706 78.5498 6.51422C77.838 5.38789 76.7362 4.61484 75.4461 4.349C75.0526 4.26505 74.3306 4.23356 73.9679 4.27904ZM75.299 6.02451C75.7883 6.15394 76.3974 6.50373 76.6951 6.82554L76.7909 6.92698L74.139 8.37163C72.6812 9.16567 71.4767 9.81628 71.463 9.81978C71.3672 9.83377 71.3433 8.88233 71.4288 8.48707C71.7026 7.19982 72.6881 6.2204 73.9576 5.97204C74.2998 5.90558 74.9465 5.93357 75.299 6.02451Z" fill="#757573"/>
</svg>
