<svg width="89" height="17" viewBox="0 0 89 17" fill="none" xmlns="http://www.w3.org/2000/svg">
<path d="M43.246 15.8663L1.23922 15.8663C1.03252 15.8663 0.834293 15.7842 0.688137 15.638C0.541981 15.4919 0.459873 15.2936 0.459873 15.0869V7.80784C0.459873 5.79049 1.26126 3.85576 2.68775 2.42928C4.11423 1.0028 6.04895 0.201408 8.0663 0.201408L43.246 0.201408C43.4527 0.201408 43.651 0.283517 43.7971 0.429673C43.9433 0.575829 44.0254 0.774059 44.0254 0.980755V15.1181C44.0254 15.3248 43.9433 15.523 43.7971 15.6692C43.651 15.8154 43.4527 15.8975 43.246 15.8975V15.8663Z" fill="#A3A3A0"/>
<path d="M43.2541 16.0459H1.24725C1.00128 16.0459 0.765386 15.9482 0.59146 15.7743C0.417535 15.6003 0.319824 15.3644 0.319824 15.1185V7.83937C0.319824 5.77241 1.14092 3.79011 2.60248 2.32855C4.06404 0.866994 6.04634 0.0458984 8.1133 0.0458984H43.2541C43.5 0.0458984 43.7359 0.143609 43.9099 0.317535C44.0838 0.49146 44.1815 0.727353 44.1815 0.973321V15.1185C44.1815 15.3644 44.0838 15.6003 43.9099 15.7743C43.7359 15.9482 43.5 16.0459 43.2541 16.0459ZM8.09771 0.419985C6.12853 0.422048 4.2406 1.20521 2.84818 2.59763C1.45576 3.99005 0.672594 5.87799 0.670531 7.84716V15.1263C0.670531 15.2772 0.730471 15.4219 0.837165 15.5286C0.943859 15.6353 1.08857 15.6952 1.23945 15.6952H43.2541C43.3288 15.6952 43.4028 15.6805 43.4718 15.6519C43.5408 15.6233 43.6035 15.5814 43.6564 15.5286C43.7092 15.4757 43.7511 15.413 43.7797 15.344C43.8083 15.275 43.823 15.201 43.823 15.1263V0.981115C43.823 0.906403 43.8083 0.832422 43.7797 0.763397C43.7511 0.694372 43.7092 0.631655 43.6564 0.578826C43.6035 0.525996 43.5408 0.484089 43.4718 0.455498C43.4028 0.426907 43.3288 0.412192 43.2541 0.412192L8.09771 0.419985Z" fill="#CECECE"/>
<path d="M45.7325 0.233399H87.7549C87.9616 0.233399 88.1598 0.315508 88.306 0.461664C88.4521 0.60782 88.5342 0.80605 88.5342 1.01275V8.29185C88.5342 10.3092 87.7328 12.2439 86.3064 13.6704C84.8799 15.0969 82.9451 15.8983 80.9278 15.8983H45.7325C45.5258 15.8983 45.3275 15.8162 45.1814 15.67C45.0352 15.5239 44.9531 15.3256 44.9531 15.1189V0.981572C44.9612 0.780327 45.0468 0.590015 45.1921 0.450534C45.3374 0.311054 45.5311 0.233238 45.7325 0.233399Z" fill="#757573"/>
<path d="M80.8963 16.0459H45.7321C45.4861 16.0459 45.2502 15.9482 45.0763 15.7743C44.9024 15.6004 44.8047 15.3645 44.8047 15.1185V0.981134C44.8047 0.735166 44.9024 0.499272 45.0763 0.325346C45.2502 0.151421 45.4861 0.0537109 45.7321 0.0537109H87.7545C88.0005 0.0537109 88.2364 0.151421 88.4103 0.325346C88.5842 0.499272 88.6819 0.735166 88.6819 0.981134V8.26024C88.6799 10.3245 87.8589 12.3036 86.3993 13.7633C84.9396 15.2229 82.9605 16.0439 80.8963 16.0459ZM45.7321 0.420004C45.5812 0.420004 45.4365 0.479944 45.3298 0.586638C45.2231 0.693332 45.1632 0.83804 45.1632 0.988927V15.1185C45.1632 15.2694 45.2231 15.4141 45.3298 15.5208C45.4365 15.6275 45.5812 15.6874 45.7321 15.6874H80.8963C82.8654 15.6854 84.7534 14.9022 86.1458 13.5098C87.5382 12.1173 88.3214 10.2294 88.3234 8.26024V0.981134C88.3234 0.830246 88.2635 0.685538 88.1568 0.578844C88.0501 0.472151 87.9054 0.412211 87.7545 0.412211L45.7321 0.420004Z" fill="#CECECE"/>
<path d="M51.9049 13.4507C51.5598 13.45 51.2164 13.4029 50.8839 13.3105C50.5414 13.2154 50.2154 13.0682 49.9176 12.874C49.3979 12.5424 48.9714 12.0837 48.6784 11.5413C48.3992 11.0261 48.2469 10.4517 48.2342 9.86575C48.2331 9.85078 48.2351 9.83575 48.2401 9.8216C48.2451 9.80745 48.253 9.79448 48.2632 9.78351C48.2735 9.77254 48.2859 9.7638 48.2996 9.75783C48.3134 9.75187 48.3283 9.74881 48.3433 9.74885H50.6579C50.6869 9.74885 50.7146 9.76034 50.7351 9.7808C50.7555 9.80127 50.767 9.82902 50.767 9.85796C50.7686 10.0649 50.8339 10.2663 50.9541 10.4347C51.0481 10.5654 51.1641 10.6788 51.297 10.7698C51.4674 10.887 51.6671 10.9545 51.8737 10.9646C52.0828 10.9751 52.2913 10.935 52.4816 10.8477C52.6071 10.7987 52.7212 10.7245 52.8167 10.6295C52.8929 10.5529 52.9584 10.4664 53.0116 10.3723C53.0519 10.2971 53.0783 10.2153 53.0895 10.1307C53.1091 10.0042 53.1091 9.87539 53.0895 9.74885C53.0777 9.66192 53.0514 9.57761 53.0116 9.49946C52.9609 9.4038 52.8951 9.31695 52.8167 9.24227C52.7178 9.14953 52.6047 9.07323 52.4816 9.01626L52.1387 8.88377L50.9697 8.48631C50.697 8.38074 50.4359 8.24756 50.1903 8.08884C49.8528 7.88648 49.5566 7.62204 49.3175 7.30949C48.8488 6.67463 48.6297 5.88974 48.7018 5.10394C48.7371 4.70374 48.8509 4.31443 49.0369 3.9583C49.2066 3.63186 49.4306 3.33669 49.6993 3.08543C49.9582 2.84282 50.2559 2.64526 50.58 2.50092C50.9112 2.35708 51.2642 2.27014 51.6243 2.24373C52.0066 2.21409 52.3911 2.24833 52.7622 2.34505C53.121 2.4279 53.4634 2.57014 53.7753 2.7659C54.071 2.95329 54.3342 3.18756 54.5547 3.45952C54.7569 3.72027 54.9149 4.01254 55.0223 4.32459C55.1269 4.62573 55.1847 4.94114 55.1937 5.25981C55.1948 5.27478 55.1928 5.28981 55.1878 5.30396C55.1828 5.31811 55.1749 5.33108 55.1647 5.34205C55.1544 5.35302 55.142 5.36176 55.1283 5.36773C55.1145 5.37369 55.0996 5.37675 55.0846 5.37671H52.8245C52.7981 5.37698 52.7725 5.36765 52.7524 5.35045C52.7323 5.33325 52.7192 5.30935 52.7154 5.28319C52.7128 5.20856 52.6923 5.13566 52.6557 5.07058C52.619 5.00549 52.5674 4.95012 52.505 4.9091C52.3909 4.83628 52.2677 4.77865 52.1387 4.73765H52.014C51.9315 4.72308 51.8471 4.72308 51.7646 4.73765C51.6634 4.75451 51.5658 4.78878 51.4762 4.83896C51.3737 4.8986 51.2921 4.98841 51.2424 5.09614C51.1642 5.24769 51.1475 5.42355 51.1957 5.58713C51.241 5.75413 51.3465 5.89846 51.4918 5.99239C51.6394 6.0744 51.7931 6.14475 51.9516 6.20282L52.4816 6.38986L52.9882 6.55352C53.1596 6.61068 53.3337 6.67822 53.5103 6.75616C54.1239 7.02572 54.6462 7.46728 55.0141 8.02744C55.382 8.5876 55.5798 9.24235 55.5834 9.91251C55.5882 10.5879 55.3929 11.2495 55.0223 11.8141C54.4897 12.6148 53.6641 13.1744 52.7232 13.3728C52.4538 13.4269 52.1796 13.453 51.9049 13.4507Z" fill="#2F2F2F"/>
<path fillRule="evenodd" clipRule="evenodd" d="M85.2142 7.18322C85.219 7.78233 85.1024 8.37619 84.8713 8.92896C84.6461 9.46369 84.3207 9.95043 83.9127 10.363C83.5033 10.7771 83.0194 11.1102 82.4865 11.3449C81.9727 11.5732 81.4196 11.7002 80.8577 11.719C80.8434 11.719 80.8292 11.7218 80.8159 11.7273C80.8027 11.7328 80.7907 11.7409 80.7805 11.751C80.7704 11.7611 80.7624 11.7731 80.7569 11.7864C80.7514 11.7996 80.7486 11.8138 80.7486 11.8281V13.3401C80.7486 13.369 80.7371 13.3968 80.7166 13.4172C80.6962 13.4377 80.6684 13.4492 80.6395 13.4492H78.3716C78.3426 13.4492 78.3149 13.4377 78.2944 13.4172C78.2739 13.3968 78.2625 13.369 78.2625 13.3401V2.74094C78.2625 2.71201 78.2739 2.68426 78.2944 2.66379C78.3149 2.64333 78.3426 2.63184 78.3716 2.63184H80.7408C81.3403 2.6373 81.9321 2.76735 82.4787 3.01372C83.011 3.253 83.4945 3.58855 83.9049 4.00349C84.3129 4.41602 84.6383 4.90275 84.8635 5.43749C85.0973 5.9897 85.2166 6.58358 85.2142 7.18322ZM80.7408 9.13159C80.7407 9.1466 80.7438 9.16146 80.7498 9.17523C80.7557 9.189 80.7645 9.20139 80.7754 9.21163C80.7864 9.22188 80.7994 9.22974 80.8135 9.23474C80.8277 9.23975 80.8427 9.24177 80.8577 9.2407C81.0847 9.21987 81.3063 9.1592 81.5123 9.06145C81.7453 8.95229 81.9566 8.80178 82.1358 8.61722C82.3158 8.43019 82.4586 8.21069 82.5567 7.97037C82.7602 7.47074 82.7602 6.91129 82.5567 6.41167C82.4584 6.17144 82.3156 5.95196 82.1358 5.76481C81.9566 5.58026 81.7453 5.42975 81.5123 5.32058C81.3063 5.22299 81.0847 5.16232 80.8577 5.14133C80.8299 5.13907 80.8024 5.1475 80.7807 5.16488C80.7589 5.18227 80.7447 5.2073 80.7408 5.23486V9.13159Z" fill="#2F2F2F"/>
<path fillRule="evenodd" clipRule="evenodd" d="M72.6432 3.05372C71.9789 2.76703 71.2625 2.62108 70.539 2.62508C69.8149 2.62354 69.0984 2.77215 68.4347 3.06151C67.1414 3.61115 66.1128 4.64254 65.5667 5.93731C65.287 6.60494 65.1429 7.32157 65.1429 8.04544C65.1429 8.76931 65.287 9.48594 65.5667 10.1536C66.1128 11.4483 67.1414 12.4797 68.4347 13.0294C69.1005 13.311 69.8161 13.4561 70.539 13.4561C71.2619 13.4561 71.9774 13.311 72.6432 13.0294C73.2865 12.7493 73.8709 12.35 74.3656 11.8526C74.8585 11.3604 75.2527 10.7784 75.5268 10.138C75.8086 9.47089 75.9539 8.75405 75.9539 8.02985C75.9539 7.30566 75.8086 6.58881 75.5268 5.92172C75.2527 5.2813 74.8585 4.6993 74.3656 4.20716C73.8688 3.71819 73.2845 3.32693 72.6432 3.05372ZM71.6768 10.7303C71.3183 10.8827 70.9323 10.9596 70.5429 10.9563L70.5468 10.9563H70.539L70.5429 10.9563C70.1534 10.9596 69.7674 10.8827 69.4089 10.7303C68.7067 10.4327 68.1478 9.87376 67.8502 9.1716C67.6995 8.81254 67.6219 8.42704 67.6219 8.03765C67.6219 7.64825 67.6995 7.26276 67.8502 6.9037C68.1478 6.20153 68.7067 5.64259 69.4089 5.345C69.768 5.19432 70.1535 5.11671 70.5429 5.11671C70.9323 5.11671 71.3177 5.19432 71.6768 5.345C72.379 5.64259 72.9379 6.20153 73.2355 6.9037C73.3862 7.26276 73.4638 7.64825 73.4638 8.03765C73.4638 8.42704 73.3862 8.81254 73.2355 9.1716C72.9379 9.87376 72.379 10.4327 71.6768 10.7303Z" fill="#2F2F2F"/>
<path d="M59.4022 5.1345H57.446C57.3858 5.1345 57.3369 5.08565 57.3369 5.02539V2.73411C57.3369 2.67385 57.3858 2.625 57.446 2.625H63.8601C63.9203 2.625 63.9692 2.67385 63.9692 2.73411V5.02539C63.9692 5.08565 63.9203 5.1345 63.8601 5.1345H61.9117V13.341C61.9117 13.4012 61.8629 13.4501 61.8026 13.4501H59.5113C59.4511 13.4501 59.4022 13.4012 59.4022 13.341V5.1345Z" fill="#2F2F2F"/>
<path d="M15.1664 7.48928V13.3266C15.1664 13.3555 15.1549 13.3833 15.1345 13.4037C15.114 13.4242 15.0863 13.4357 15.0573 13.4357H12.766C12.7371 13.4357 12.7093 13.4242 12.6889 13.4037C12.6684 13.3833 12.6569 13.3555 12.6569 13.3266C12.6568 13.309 12.6525 13.2916 12.6442 13.276C12.6359 13.2604 12.624 13.2471 12.6094 13.2371C12.5949 13.2272 12.5781 13.2209 12.5606 13.2188C12.5431 13.2168 12.5253 13.219 12.5088 13.2253C12.2797 13.2982 12.0452 13.353 11.8074 13.3889C11.5213 13.4342 11.2321 13.4577 10.9424 13.4591C10.2406 13.4475 9.54759 13.3021 8.90047 13.0304C8.22469 12.7611 7.6118 12.3552 7.10018 11.838C6.59046 11.3355 6.18985 10.7333 5.92337 10.0689C5.66583 9.41896 5.53361 8.72615 5.53369 8.02703C5.53393 7.32541 5.66612 6.6301 5.92337 5.97734C6.18793 5.30098 6.5915 4.68766 7.10797 4.17705C7.61959 3.6599 8.23248 3.25395 8.90827 2.98465C10.2228 2.45173 11.6931 2.45173 13.0076 2.98465C13.6465 3.24041 14.2291 3.61905 14.7222 4.09912C14.7326 4.10928 14.7408 4.1214 14.7464 4.13478C14.752 4.14817 14.7549 4.16254 14.7549 4.17705C14.7549 4.19157 14.752 4.20594 14.7464 4.21932C14.7408 4.2327 14.7326 4.24483 14.7222 4.25499L13.1089 5.86824C13.0988 5.8786 13.0867 5.88684 13.0733 5.89247C13.0599 5.89809 13.0455 5.90098 13.031 5.90098C13.0165 5.90098 13.0021 5.89809 12.9887 5.89247C12.9754 5.88684 12.9632 5.8786 12.9531 5.86824C12.6933 5.62329 12.3891 5.43019 12.0568 5.29931C11.3466 5.01406 10.5537 5.01406 9.84348 5.29931C9.47783 5.44223 9.14602 5.65989 8.8693 5.93838C8.59572 6.21066 8.37863 6.53432 8.2305 6.89074C8.08237 7.24717 8.00611 7.62935 8.00611 8.01534C8.00611 8.40132 8.08237 8.7835 8.2305 9.13993C8.37863 9.49636 8.59572 9.82001 8.8693 10.0923C9.11792 10.3443 9.41128 10.5478 9.73437 10.6924C10.0471 10.8329 10.3821 10.9174 10.7241 10.9418C11.0647 10.9675 11.4072 10.9359 11.7373 10.8483C12.0523 10.7658 12.3504 10.6286 12.618 10.443C12.633 10.4326 12.6451 10.4185 12.6533 10.4022C12.6614 10.3859 12.6654 10.3677 12.6647 10.3495V9.9754C12.6647 9.94646 12.6532 9.91871 12.6328 9.89824C12.6123 9.87778 12.5845 9.86629 12.5556 9.86629H10.5994C10.5705 9.86629 10.5428 9.85479 10.5223 9.83433C10.5018 9.81387 10.4903 9.78612 10.4903 9.75718V7.48928C10.4903 7.46034 10.5018 7.43259 10.5223 7.41213C10.5428 7.39166 10.5705 7.38017 10.5994 7.38017H15.0495C15.0645 7.3791 15.0795 7.38112 15.0937 7.38613C15.1078 7.39113 15.1208 7.39899 15.1318 7.40924C15.1427 7.41948 15.1515 7.43187 15.1574 7.44564C15.1634 7.45941 15.1665 7.47427 15.1664 7.48928Z" fill="#2F2F2F"/>
<path fillRule="evenodd" clipRule="evenodd" d="M23.6925 13.3714L23.3184 12.2492C23.3115 12.2259 23.297 12.2056 23.2772 12.1914C23.2575 12.1773 23.2335 12.1702 23.2093 12.1712H19.9516C19.9287 12.1719 19.9065 12.1798 19.8883 12.1938C19.8702 12.2078 19.8568 12.2272 19.8503 12.2492L19.4606 13.4104C19.4541 13.4324 19.4408 13.4517 19.4226 13.4657C19.4044 13.4797 19.3822 13.4876 19.3593 13.4883H16.9589C16.9413 13.4882 16.9239 13.4838 16.9083 13.4756C16.8928 13.4673 16.8794 13.4554 16.8695 13.4408C16.8595 13.4263 16.8532 13.4095 16.8512 13.392C16.8491 13.3745 16.8513 13.3567 16.8576 13.3402L20.466 2.74111C20.4725 2.71912 20.4858 2.69975 20.504 2.68576C20.5222 2.67177 20.5444 2.66387 20.5673 2.66318H22.7651C22.7893 2.66217 22.8132 2.66929 22.833 2.68341C22.8528 2.69753 22.8672 2.71783 22.8742 2.74111L26.2955 13.3402C26.3021 13.3573 26.3043 13.3758 26.3018 13.394C26.2994 13.4122 26.2924 13.4294 26.2815 13.4442C26.2706 13.4589 26.2562 13.4707 26.2396 13.4784C26.223 13.4861 26.2047 13.4895 26.1864 13.4883H23.8016C23.7866 13.4884 23.7717 13.4853 23.7579 13.4793C23.7442 13.4734 23.7318 13.4646 23.7215 13.4537C23.7113 13.4427 23.7034 13.4297 23.6984 13.4156C23.6934 13.4014 23.6914 13.3864 23.6925 13.3714ZM20.8946 9.64613H22.3442C22.3625 9.64736 22.3808 9.64395 22.3974 9.63624C22.414 9.62852 22.4285 9.61675 22.4393 9.60199C22.4502 9.58723 22.4572 9.56998 22.4596 9.55181C22.4621 9.53365 22.4599 9.51516 22.4533 9.49806L21.7519 7.33147C21.7456 7.30842 21.7318 7.28809 21.7128 7.2736C21.6938 7.25911 21.6706 7.25126 21.6467 7.25126C21.6228 7.25126 21.5995 7.25911 21.5805 7.2736C21.5615 7.28809 21.5478 7.30842 21.5415 7.33147L20.7621 9.49806C20.7537 9.51724 20.7509 9.53844 20.7542 9.55914C20.7575 9.57984 20.7667 9.59915 20.7807 9.61477C20.7947 9.63039 20.8128 9.64165 20.833 9.64721C20.8532 9.65277 20.8746 9.6524 20.8946 9.64613Z" fill="#2F2F2F"/>
<path d="M38.2429 2.61035H35.8581C35.8341 2.61151 35.8112 2.62054 35.7929 2.63604C35.7746 2.65154 35.7619 2.67264 35.7568 2.69608L33.5746 9.10231C33.5683 9.12536 33.5545 9.14569 33.5355 9.16018C33.5165 9.17467 33.4933 9.18252 33.4694 9.18252C33.4455 9.18252 33.4222 9.17467 33.4032 9.16018C33.3842 9.14569 33.3705 9.12536 33.3642 9.10231L31.1196 2.69608C31.1131 2.67409 31.0998 2.65471 31.0816 2.64072C31.0634 2.62673 31.0413 2.61883 31.0183 2.61815H28.6335C28.6059 2.61807 28.5793 2.62849 28.559 2.6473C28.5388 2.6661 28.5264 2.6919 28.5244 2.71946L27.8386 13.2952C27.8375 13.3102 27.8396 13.3252 27.8446 13.3394C27.8496 13.3535 27.8574 13.3665 27.8677 13.3774C27.8779 13.3884 27.8903 13.3972 27.9041 13.4031C27.9178 13.4091 27.9327 13.4121 27.9477 13.4121H30.239C30.2666 13.4122 30.2933 13.4018 30.3135 13.3829C30.3338 13.3641 30.3461 13.3384 30.3481 13.3108L30.5975 9.36729C30.5975 9.33835 30.609 9.3106 30.6294 9.29014C30.6499 9.26968 30.6777 9.25818 30.7066 9.25818C30.7355 9.25818 30.7633 9.26968 30.7837 9.29014C30.8042 9.3106 30.8157 9.33835 30.8157 9.36729L32.2185 13.3731C32.2251 13.3951 32.2384 13.4145 32.2566 13.4285C32.2748 13.4425 32.2969 13.4504 32.3198 13.4511H34.6579C34.6808 13.4504 34.703 13.4425 34.7211 13.4285C34.7393 13.4145 34.7527 13.3951 34.7592 13.3731L36.0373 9.58551C36.0373 9.55657 36.0488 9.52882 36.0693 9.50836C36.0897 9.4879 36.1175 9.4764 36.1464 9.4764C36.1754 9.4764 36.2031 9.4879 36.2236 9.50836C36.2441 9.52882 36.2555 9.55657 36.2555 9.58551L36.4816 13.342C36.4835 13.3695 36.4959 13.3953 36.5161 13.4141C36.5364 13.4329 36.563 13.4433 36.5907 13.4433H38.8664C38.8814 13.4433 38.8962 13.4403 38.91 13.4343C38.9238 13.4283 38.9362 13.4196 38.9464 13.4086C38.9566 13.3976 38.9645 13.3847 38.9695 13.3705C38.9745 13.3564 38.9765 13.3413 38.9755 13.3264L38.352 2.71167C38.35 2.6841 38.3377 2.65831 38.3174 2.63951C38.2972 2.6207 38.2705 2.61028 38.2429 2.61035Z" fill="#2F2F2F"/>
</svg>
