<svg width="68" height="21" viewBox="0 0 68 21" fill="none" xmlns="http://www.w3.org/2000/svg">
<path d="M16.3279 16.0983L16.3178 16.1084C16.1974 16.2293 16.0736 16.3436 15.9465 16.4545L15.8244 16.5603C15.7257 16.6443 15.6253 16.7283 15.525 16.8039L15.4112 16.8913C15.2791 16.9921 15.1436 17.0861 15.0048 17.1769L14.8944 17.2457C14.7856 17.3146 14.6752 17.3818 14.5598 17.4457L14.4243 17.5213C14.2905 17.5935 14.155 17.6641 14.0178 17.7296L13.9794 17.7481C13.8272 17.8203 13.6716 17.8841 13.516 17.9463L13.4006 17.99C13.2718 18.0387 13.1413 18.0841 13.0109 18.1261C12.9791 18.1361 12.9473 18.1479 12.9138 18.1563C12.751 18.2067 12.5871 18.2521 12.4221 18.2924C12.4079 18.2949 12.394 18.2983 12.3802 18.3025C12.2297 18.3377 12.0792 18.368 11.9269 18.3932L11.8182 18.4117C11.6626 18.4369 11.5071 18.4587 11.3515 18.4755H11.3197C11.1525 18.4923 10.9852 18.5024 10.8179 18.5091H10.1789C10.0117 18.5091 9.85945 18.494 9.70054 18.4789L9.58345 18.4637C9.39494 18.445 9.2074 18.4175 9.02141 18.3814L8.76046 18.3293C8.60992 18.2974 8.46105 18.2605 8.31217 18.2201L8.1449 18.1748L8.05792 18.1462L10.2776 15.9286C11.306 15.9688 12.3258 15.7269 13.2276 15.229C14.1295 14.7311 14.8793 13.996 15.3967 13.1025C15.9141 12.209 16.1794 11.1909 16.1643 10.1574C16.1492 9.12397 15.8541 8.11413 15.3109 7.2363L13.9141 8.6391V12.0596H11.5723V7.34046L15.3426 3.5403C15.6919 3.79466 16.0213 4.07548 16.3279 4.3803C17.8711 5.93529 18.7377 8.04127 18.7377 10.2368C18.7377 12.4323 17.8711 14.5383 16.3279 16.0933M4.60541 16.1235C3.06188 14.569 2.1951 12.4632 2.1951 10.2679C2.1951 8.07249 3.06188 5.9667 4.60541 4.41222L4.61712 4.40046C4.73756 4.28118 4.86134 4.16526 4.98679 4.05438L5.11057 3.94854C5.20759 3.86454 5.30796 3.78054 5.40832 3.70494L5.52206 3.61758C5.65588 3.51846 5.79137 3.4227 5.92854 3.33198L6.03894 3.2631C6.14766 3.19422 6.25806 3.12702 6.37348 3.06318L6.50897 2.98758C6.64279 2.91534 6.77828 2.84478 6.91545 2.77926L6.95392 2.76078C7.10781 2.68854 7.2617 2.6247 7.41726 2.56254L7.53268 2.51886C7.66145 2.47025 7.79141 2.42487 7.92243 2.38278L8.01945 2.35254C8.18114 2.30214 8.34507 2.25678 8.51123 2.21646H8.55305C8.70327 2.18147 8.85443 2.15066 9.00636 2.12406L9.11508 2.10558C9.27065 2.08038 9.42621 2.05854 9.58177 2.04174H9.61356C9.78083 2.02494 9.9481 2.01486 10.1154 2.00814H10.7544C10.9216 2.00814 11.0738 2.02326 11.2328 2.03838L11.3498 2.0535C11.4686 2.06694 11.5857 2.08206 11.7045 2.10054L11.9119 2.13582C11.9989 2.15094 12.0792 2.16942 12.1728 2.1879C12.3234 2.21982 12.4722 2.25678 12.6211 2.2971L12.7884 2.34246L12.877 2.37102L10.6573 4.5819C9.62828 4.54077 8.60752 4.78213 7.70482 5.28003C6.80212 5.77794 6.05162 6.51356 5.53402 7.40778C5.01643 8.30201 4.75131 9.32102 4.76718 10.3552C4.78305 11.3895 5.07931 12.3998 5.6241 13.2776L7.01916 11.8748V8.4543H9.36097V13.1734L5.59065 16.9736C5.24139 16.7192 4.91201 16.4384 4.60541 16.1336M10.4666 0.0458984C8.45584 0.0458984 6.49018 0.644765 4.81825 1.76677C3.14633 2.88877 1.84322 4.48352 1.07371 6.34934C0.30421 8.21517 0.102872 10.2683 0.495162 12.249C0.887452 14.2298 1.85575 16.0492 3.27761 17.4772C4.69946 18.9053 6.51102 19.8778 8.4832 20.2718C10.4554 20.6658 12.4996 20.4636 14.3573 19.6907C16.2151 18.9179 17.8029 17.6091 18.9201 15.9299C20.0372 14.2507 20.6335 12.2765 20.6335 10.2569C20.6335 7.5488 19.5623 4.95158 17.6557 3.03664C15.749 1.1217 13.1631 0.0458984 10.4666 0.0458984Z" fill="#A3A3A0"/>
<path d="M34.2279 10.0087C34.2195 12.1558 32.8596 13.4175 30.844 13.4175C28.5021 13.4175 27.0469 11.7375 27.0469 9.87601C27.0469 7.96585 28.5289 6.32617 30.7403 6.32617C31.9781 6.32617 32.9248 6.77809 33.8248 7.63489L33.3096 8.12545C32.5501 7.38121 31.6368 6.98473 30.7603 6.98473C29.1461 6.98473 27.7494 8.22793 27.7494 9.85753C27.7494 11.4115 29.0525 12.7959 30.8624 12.7959C32.1387 12.7959 33.2811 12.0331 33.4685 10.6673H31.3224V10.0087H34.2279ZM35.8337 10.7614C35.8257 11.2918 36.0273 11.8038 36.3945 12.1852C36.7616 12.5665 37.2644 12.7861 37.7925 12.7959C38.1929 12.8072 38.5877 12.6984 38.9263 12.4835C39.2649 12.2685 39.5321 11.957 39.6937 11.5888C39.8553 11.2207 39.904 10.8125 39.8336 10.4164C39.7631 10.0203 39.5768 9.65427 39.2983 9.36503C39.0198 9.07578 38.6619 8.87644 38.2701 8.79245C37.8783 8.70846 37.4705 8.74364 37.0987 8.89348C36.7269 9.04333 36.408 9.30105 36.1827 9.63375C35.9573 9.96644 35.8359 10.359 35.8337 10.7614ZM39.7328 8.25649H40.3618V13.2579H39.7328V12.3994C39.4957 12.7065 39.1912 12.9547 38.8431 13.1245C38.495 13.2944 38.1126 13.3814 37.7256 13.3788C37.0433 13.3592 36.3957 13.0727 35.9209 12.5803C35.4461 12.0879 35.1817 11.4286 35.1841 10.7431C35.1865 10.0577 35.4556 9.40027 35.9338 8.91123C36.412 8.42218 37.0616 8.1402 37.744 8.12545C38.1356 8.11979 38.5225 8.21239 38.8695 8.39487C39.2165 8.57734 39.5127 8.84391 39.7312 9.17041L39.7328 8.25649ZM45.8283 13.2562H45.1909V10.6959C45.1909 10.3095 45.1541 9.99025 45.1441 9.76345C45.1268 9.47955 44.9991 9.21385 44.7885 9.02369C44.5779 8.83354 44.3013 8.73417 44.0184 8.74705C43.792 8.74875 43.5689 8.80211 43.3661 8.9031C43.1632 9.00409 42.9859 9.15007 42.8475 9.33001C42.4928 9.79201 42.4259 10.3851 42.4259 11.1377V13.2562H41.7886V8.25649H42.4259V9.11833C42.8675 8.47825 43.4195 8.13049 44.1321 8.13049C44.8915 8.13049 45.4352 8.52529 45.7078 9.33505C46.1494 8.53537 46.8051 8.13049 47.5361 8.13049C48.5665 8.13049 49.2323 8.87473 49.2323 10.296V13.2562H48.5949V10.5262C48.5949 10.1583 48.5481 9.86761 48.5398 9.68617C48.5113 9.24265 48.0898 8.75377 47.414 8.75377C47.1027 8.75672 46.7999 8.85586 46.5468 9.03771C46.2936 9.21956 46.1023 9.4753 45.9989 9.77017C45.8571 10.1911 45.7963 10.6352 45.8199 11.0789L45.8283 13.2562ZM55.1872 10.7429C55.1921 10.2117 54.9881 9.69992 54.6194 9.31895C54.2507 8.93798 53.7472 8.71857 53.2184 8.70841C52.9549 8.7042 52.6934 8.75369 52.4495 8.85388C52.2057 8.95407 51.9846 9.10288 51.7996 9.29132C51.6147 9.47976 51.4697 9.70392 51.3734 9.95024C51.2771 10.1966 51.2316 10.4599 51.2395 10.7244C51.2371 11.2502 51.4427 11.7554 51.8111 12.1289C52.1796 12.5024 52.6807 12.7136 53.2041 12.7161C53.7276 12.7185 54.2307 12.512 54.6025 12.142C54.9744 11.7719 55.1847 11.2687 55.1872 10.7429ZM51.2864 13.2629H50.6491V6.32617H51.2864V9.11833C51.5211 8.81042 51.8235 8.56109 52.1699 8.38975C52.5163 8.21842 52.8975 8.12969 53.2836 8.13049C53.9671 8.15008 54.616 8.43718 55.0917 8.93054C55.5675 9.42389 55.8324 10.0844 55.83 10.7712C55.8276 11.458 55.558 12.1167 55.0789 12.6067C54.5997 13.0966 53.9489 13.3792 53.2652 13.3939C52.8742 13.3965 52.4886 13.3014 52.1432 13.1173C51.7978 12.9331 51.5034 12.6656 51.2864 12.3389V13.2629ZM57.4286 10.7614C57.4206 11.2918 57.6222 11.8038 57.9894 12.1852C58.3566 12.5665 58.8593 12.7861 59.3874 12.7959C59.7878 12.8072 60.1826 12.6984 60.5212 12.4835C60.8598 12.2685 61.127 11.957 61.2886 11.5888C61.4502 11.2207 61.4989 10.8125 61.4285 10.4164C61.3581 10.0203 61.1717 9.65427 60.8932 9.36503C60.6147 9.07578 60.2568 8.87644 59.865 8.79245C59.4732 8.70846 59.0654 8.74364 58.6936 8.89348C58.3218 9.04333 58.0029 9.30105 57.7776 9.63375C57.5523 9.96644 57.4308 10.359 57.4286 10.7614ZM61.3294 8.25649H61.9567V13.2579H61.3294V12.3994C61.0921 12.7063 60.7876 12.9543 60.4395 13.1242C60.0914 13.294 59.7091 13.3811 59.3222 13.3788C58.6399 13.3585 57.9925 13.0712 57.5182 12.5781C57.0439 12.0851 56.7802 11.4254 56.7835 10.7398C56.7868 10.0543 57.0567 9.39716 57.5357 8.90871C58.0147 8.42027 58.6648 8.13918 59.3472 8.12545C59.7391 8.11966 60.1263 8.2122 60.4736 8.39467C60.8209 8.57714 61.1174 8.84378 61.3361 9.17041L61.3294 8.25649ZM64.0392 9.15193C64.5544 8.47993 65.1733 8.12545 65.906 8.12545C66.9933 8.12545 67.746 8.87809 67.746 10.4506V13.2562H67.1087V10.5363C67.1087 9.36025 66.7424 8.70841 65.7705 8.70841C65.514 8.70617 65.2607 8.76607 65.0321 8.88305C64.8035 9.00003 64.6064 9.17064 64.4574 9.38041C64.0827 9.86929 64.0259 10.3599 64.0259 11.1511V13.2562H63.3885V8.25649H64.0259L64.0392 9.15193Z" fill="#A3A3A0"/>
</svg>
