<svg width="68" height="19" viewBox="0 0 68 19" fill="none" xmlns="http://www.w3.org/2000/svg">
<path d="M23.0331 17.7231L22.9883 14.6095L22.8651 11.6745L22.6523 12.266L22.3948 12.9467L21.499 15.4019L20.648 17.7231H19.3267L18.2518 14.5649L17.3 11.6745L17.02 14.6207L16.8297 17.7231H15.486C15.6763 16.3951 15.8219 15.1117 15.9339 13.8172L16.169 9.93359H17.9606L18.6101 11.9423L19.7522 15.1675L20.1105 16.25L21.2863 13.1476L22.4284 9.93359H24.1416C24.1416 11.0496 24.1864 12.3553 24.2648 13.7056L24.5671 17.7231H23.0331Z" fill="#A3A3A0"/>
<path d="M1.26531 11.1382C0.481489 11.8747 0 12.9349 0 14.2517C0 15.3677 0.447897 16.3163 1.16453 16.997C1.90356 17.6666 2.92253 18.0461 4.08706 18.0461C4.61334 18.0461 5.07243 18.0014 5.48674 17.9121C5.90104 17.8229 6.28175 17.6778 6.66246 17.4657L6.23696 16.4725C5.94583 16.6622 5.6547 16.785 5.34117 16.8743C5.02764 16.9636 4.69172 16.997 4.3222 16.997C3.52719 16.997 2.82175 16.6957 2.31787 16.1824C1.81398 15.669 1.51165 14.9213 1.51165 14.0286C1.51165 13.0911 1.81398 12.3434 2.30667 11.8301C2.79935 11.3167 3.50479 11.0377 4.3222 11.0377C4.80369 11.0377 5.218 11.127 5.53153 11.2498C5.84505 11.3725 6.069 11.5288 6.16978 11.6738L6.64007 10.4128C6.32654 10.2677 6.00182 10.1673 5.6323 10.1003C5.26279 10.0334 4.83729 10.0111 4.3334 10.0111C3.13528 10.0111 2.04913 10.4128 1.26531 11.1382Z" fill="#A3A3A0"/>
<path fillRule="evenodd" clipRule="evenodd" d="M13.8064 11.0824C13.0786 10.4016 12.0484 10.0111 10.8167 10.0111C9.64095 10.0111 8.61079 10.4128 7.84937 11.1382C7.11034 11.8636 6.66244 12.9014 6.66244 14.1513C6.66244 15.3231 7.08794 16.294 7.81578 16.9747C8.54361 17.6555 9.58497 18.0349 10.8167 18.0349C11.97 18.0349 13.0002 17.6331 13.7504 16.9189C14.4894 16.1935 14.9485 15.1668 14.9485 13.917C14.9485 12.7452 14.5342 11.7631 13.8064 11.0824ZM12.6867 16.1935C12.2276 16.718 11.5893 17.0194 10.8167 17.0194C10.0329 17.0194 9.39461 16.718 8.93552 16.1935C8.48762 15.6579 8.24128 14.9102 8.24128 14.0174C8.24128 13.1358 8.47642 12.3881 8.92432 11.8636C9.37222 11.3391 10.0105 11.0377 10.8167 11.0377C11.5781 11.0377 12.2164 11.3279 12.6755 11.8524C13.1234 12.3658 13.3921 13.1135 13.3921 14.0174C13.3921 14.9213 13.1345 15.669 12.6867 16.1935Z" fill="#A3A3A0"/>
<path d="M32.5285 14.6095L32.5733 17.7231H34.0961L33.7938 13.7056C33.7154 12.3553 33.6706 11.0496 33.6706 9.93359H31.9574L30.8265 13.1476L29.662 16.25L29.2925 15.1675L28.867 13.9957L28.1503 11.9423L27.5121 9.93359H25.6981L25.4629 13.8172C25.3622 15.1117 25.2166 16.3951 25.0262 17.7231H26.3475L26.5379 14.6207L26.829 11.6745L27.7808 14.5649L28.8446 17.7231H30.1882L31.0393 15.4019L31.9238 12.9467L32.4053 11.6745L32.5285 14.6095Z" fill="#A3A3A0"/>
<path d="M34.8352 17.7231L34.9024 15.8594L34.9136 13.9623L34.9024 11.9312L34.8352 9.93359H36.3468L36.2796 11.9312L36.2684 13.9623L36.2796 15.8594L36.3468 17.7231H34.8352Z" fill="#A3A3A0"/>
<path d="M41.2961 11.1723C41.5872 11.2839 41.8112 11.429 41.9791 11.574L42.4494 10.38C42.2143 10.246 41.9231 10.1456 41.5648 10.0786C41.2065 10.0117 40.7922 9.96704 40.3107 9.96704C39.4373 9.96704 38.7207 10.2014 38.2168 10.592C37.7129 10.9714 37.433 11.5182 37.433 12.1432C37.433 12.6454 37.5673 13.036 37.8361 13.3708C38.1048 13.7055 38.5079 13.9845 39.0454 14.2301L39.4933 14.4309L39.9412 14.643C40.3443 14.8215 40.6354 15.0001 40.837 15.201C41.0273 15.4018 41.1281 15.6362 41.1281 15.9152C41.1281 16.2165 41.0273 16.4955 40.8034 16.6964C40.5683 16.8972 40.2099 17.02 39.6837 17.02C39.3141 17.02 38.9334 16.953 38.5751 16.8414C38.2168 16.7298 37.8697 16.5624 37.5785 16.3727L37.1418 17.511C37.5226 17.6896 37.9257 17.8123 38.3512 17.8904C38.7767 17.9797 39.2358 18.0132 39.7172 18.0132C40.5347 18.0132 41.2513 17.8123 41.7664 17.4329C42.2703 17.0535 42.5838 16.4843 42.5838 15.7255C42.5838 15.1898 42.4606 14.7657 42.1807 14.4198C41.9119 14.0738 41.4864 13.7837 40.8818 13.5158L40.098 13.181C39.5941 12.9578 39.2805 12.7681 39.1014 12.5784C38.9222 12.3887 38.8662 12.1878 38.8662 11.9535C38.8662 11.6745 38.9894 11.429 39.2246 11.2616C39.4597 11.0942 39.8068 10.9937 40.2883 10.9937C40.6802 10.9937 41.0161 11.0607 41.2961 11.1723Z" fill="#A3A3A0"/>
<path d="M47.8018 11.574C47.6226 11.429 47.3987 11.2839 47.1188 11.1723C46.8388 11.0607 46.5029 10.9937 46.1222 10.9937C45.6407 10.9937 45.2824 11.0942 45.0472 11.2616C44.8121 11.429 44.6889 11.6745 44.6889 11.9535C44.6889 12.1878 44.7449 12.3887 44.9353 12.5784C45.1144 12.7681 45.4279 12.9578 45.943 13.181L46.7268 13.5158C47.3315 13.7837 47.757 14.0738 48.0257 14.4198C48.3057 14.7657 48.4289 15.1898 48.4289 15.7255C48.4289 16.4843 48.1153 17.0535 47.6114 17.4329C47.0964 17.8123 46.3797 18.0132 45.5623 18.0132C45.0696 18.0132 44.6105 17.9797 44.185 17.8904C43.7595 17.8123 43.3564 17.6896 42.9869 17.511L43.4236 16.3727C43.7147 16.5624 44.0507 16.7298 44.409 16.8414C44.7673 16.953 45.148 17.02 45.5287 17.02C46.055 17.02 46.4133 16.8972 46.6485 16.6964C46.8724 16.4955 46.9732 16.2165 46.9732 15.9152C46.9732 15.6362 46.8724 15.4018 46.6821 15.201C46.4805 15.0001 46.1894 14.8215 45.7863 14.643L45.3384 14.4309L44.8905 14.2301C44.353 13.9845 43.9499 13.7055 43.6812 13.3708C43.4124 13.036 43.278 12.6454 43.278 12.1432C43.278 11.5182 43.558 10.9714 44.0619 10.592C44.5657 10.2014 45.2824 9.96704 46.1558 9.96704C46.6373 9.96704 47.0516 10.0117 47.4099 10.0786C47.7682 10.1456 48.0593 10.246 48.2945 10.38L47.8018 11.574Z" fill="#A3A3A0"/>
<path d="M49.2686 15.8594L49.2014 17.7231H50.7131L50.6459 15.8594L50.6347 13.9623L50.6459 11.9312L50.7131 9.93359H49.2014L49.2686 11.9312L49.2798 13.9623L49.2686 15.8594Z" fill="#A3A3A0"/>
<path fillRule="evenodd" clipRule="evenodd" d="M55.7295 10.0111C56.9724 10.0111 58.0026 10.4016 58.7304 11.0824C59.4582 11.7631 59.8725 12.7452 59.8725 13.917C59.8725 15.1668 59.4246 16.1935 58.6744 16.9189C57.9242 17.6331 56.894 18.0349 55.7183 18.0349C54.4866 18.0349 53.4564 17.6555 52.7286 16.9747C52.0008 16.294 51.5864 15.3231 51.5864 14.1513C51.5864 12.9014 52.0343 11.8636 52.7734 11.1382C53.5124 10.4128 54.5426 10.0111 55.7295 10.0111ZM55.7295 17.0194C56.5133 17.0194 57.1516 16.718 57.6107 16.1935C58.0586 15.669 58.3161 14.9213 58.3161 14.0174C58.3161 13.1135 58.0474 12.3658 57.5995 11.8524C57.1404 11.3279 56.4909 11.0377 55.7295 11.0377C54.9345 11.0377 54.285 11.3391 53.8483 11.8636C53.4004 12.3881 53.1541 13.1358 53.1541 14.0174C53.1541 14.9102 53.4116 15.6579 53.8595 16.1935C54.3074 16.718 54.9569 17.0194 55.7295 17.0194Z" fill="#A3A3A0"/>
<path d="M67.1509 11.9312L67.1845 9.93359H65.8632L65.9304 12.5784L65.9416 15.5246L64.206 12.969L62.0225 9.93359H60.4772L60.5332 11.641L60.5556 13.9623L60.522 15.9598L60.4772 17.4999V17.7231H61.8097L61.7313 14.922V11.6745L63.6685 14.4533L65.8744 17.7231H67.1845L67.1509 15.8594L67.1397 13.9623L67.1509 11.9312Z" fill="#A3A3A0"/>
<path d="M5.74428 8.00278C6.19217 7.93582 6.61767 7.83538 7.02078 7.6903V7.64567L6.99839 6.58549V4.7553L7.02078 4.02992H5.50913C5.53153 4.21963 5.54272 4.40935 5.55392 4.62138L5.56512 5.32445L5.55392 6.12794C5.54272 6.42926 5.53153 6.73057 5.50913 6.94261C5.36356 6.9984 5.1956 7.04304 4.99405 7.06536C4.80369 7.08768 4.57974 7.09884 4.31101 7.09884C3.58317 7.09884 2.87774 6.81985 2.36266 6.29534C1.84757 5.77083 1.51165 5.01197 1.51165 4.0634C1.51165 3.17062 1.76919 2.43408 2.27308 1.92073C2.77696 1.40739 3.50479 1.11723 4.44537 1.11723C5.05004 1.11723 5.53152 1.22883 5.87864 1.35159C6.23696 1.4855 6.47211 1.64174 6.58408 1.73102L7.02078 0.536927C6.68486 0.380691 6.31534 0.257934 5.90104 0.179816C5.48674 0.0905386 5.02764 0.0458984 4.52376 0.0458984C3.16887 0.0458984 2.03793 0.481128 1.24291 1.22883C0.447897 1.97653 0 3.04786 0 4.32007C0 5.45836 0.492686 6.40694 1.26531 7.06536C2.04913 7.73494 3.11288 8.10322 4.25502 8.10322C4.80369 8.10322 5.29638 8.06974 5.74428 8.00278Z" fill="#757573"/>
<path fillRule="evenodd" clipRule="evenodd" d="M13.7505 3.91772L12.2724 0.0564608H10.9176L9.12597 4.15208L7.39037 7.92406H8.81244C8.84118 7.80948 8.89452 7.68672 8.95141 7.5558L8.9804 7.48883L9.17076 7.03128L9.45069 6.40634L9.71943 5.74792H12.9331L13.1794 6.40634L13.4482 7.05361L13.6161 7.49999L13.7841 7.92406H15.4413L13.7505 3.91772ZM12.6196 4.6989H10.1337L10.3913 4.08512L10.6488 3.4825L11.0743 2.44464L11.4438 1.49606L11.9813 3.04726L12.6196 4.6989Z" fill="#757573"/>
<path d="M23.313 7.84654L23.2682 4.73298L23.145 1.78682L22.6635 3.08134L21.7901 5.52532L20.9391 7.8577H19.6178L18.5429 4.6995L17.5911 1.79798L17.3 4.7553L17.1208 7.8577H15.7771C15.9675 6.5297 16.113 5.24633 16.225 3.9518L16.4602 0.0570589H18.2517L18.9012 2.05465L19.629 4.09688L20.0321 5.26865L20.4016 6.3623L21.5662 3.24874L22.6859 0.0458984H24.4215C24.4215 1.16187 24.4663 2.46756 24.5447 3.81789L24.847 7.83538L23.313 7.84654Z" fill="#757573"/>
<path fillRule="evenodd" clipRule="evenodd" d="M30.9832 4.31976C30.6809 3.99612 30.233 3.76177 29.6843 3.65017C30.0986 3.53858 30.457 3.30422 30.7145 3.00291C30.972 2.7016 31.1288 2.33333 31.1288 1.96506C31.1288 1.37359 30.8489 0.893723 30.3338 0.570091C29.8187 0.246459 29.0573 0.0679034 28.1055 0.0679034H25.698L25.7652 2.05433L25.7764 4.06308L25.7652 5.96023L25.698 7.84622H28.1279C29.2476 7.84622 30.0762 7.63419 30.6361 7.2436C31.1848 6.85301 31.4647 6.27271 31.4647 5.51384C31.4647 5.04514 31.2856 4.64339 30.9832 4.31976ZM29.5836 6.4959C29.2588 6.7191 28.7437 6.83069 27.9599 6.83069L27.1649 6.84185L27.1425 5.59196V4.33091H27.9263C28.643 4.33091 29.1693 4.43135 29.5164 4.64339C29.8635 4.84426 30.0314 5.15673 30.0314 5.56964C30.0314 5.96023 29.9083 6.28387 29.5836 6.4959ZM27.1537 2.14361L27.1761 1.08344C27.2769 1.06112 27.4113 1.04996 27.5456 1.0388L27.9263 1.02764C28.5646 1.02764 29.0125 1.12808 29.3036 1.31779C29.5947 1.50751 29.7179 1.7865 29.7179 2.14361C29.7179 2.52304 29.5724 2.81319 29.27 3.00291C28.9677 3.20378 28.5086 3.30422 27.8815 3.30422H27.1537V2.14361Z" fill="#757573"/>
<path d="M33.5922 5.87068L33.6146 6.79693L35.507 6.78577L37.1194 6.75229L36.7163 7.84594H32.1254L32.2038 5.95995V2.04289L32.1254 0.0564608H33.6482L33.6258 0.804162L33.6146 1.46259L33.581 2.67899L33.5698 4.0628L33.581 5.01137L33.5922 5.87068Z" fill="#757573"/>
<path d="M38.0376 5.95995L37.9704 7.84594H39.4821V7.3326L39.4709 6.85273L39.4373 5.52472L39.4261 4.0628L39.4373 2.50044L39.4709 1.10547L39.4821 0.603286V0.0564608H37.9704L38.0376 2.04289L38.0488 4.0628L38.0376 5.95995Z" fill="#757573"/>
<path d="M46.962 0.0564608L46.9172 2.04289V5.95995L46.962 7.84594H45.6071L43.4348 4.57615L41.4977 1.78622L41.5089 5.0337L41.5761 7.84594H40.21L40.2772 5.95995L40.2884 4.0628L40.2772 2.04289L40.21 0.0564608H41.7776L43.9611 3.06958L45.6967 5.62516L45.6855 2.66783L45.6183 0.0564608H46.962Z" fill="#757573"/>
<path d="M53.5348 8.00278C53.9827 7.93582 54.4082 7.83538 54.8113 7.6903L54.8337 7.64567L54.8113 6.58549V4.7553C54.8113 4.49863 54.8225 4.25311 54.8337 4.02992H53.3109C53.3333 4.21963 53.3445 4.40935 53.3557 4.62138L53.3669 5.32445L53.3557 6.12794C53.3445 6.42926 53.3333 6.73057 53.3109 6.94261C53.1653 6.9984 52.9974 7.04304 52.807 7.06536C52.6055 7.08768 52.3927 7.09884 52.124 7.09884C51.3849 7.09884 50.6795 6.81985 50.1644 6.29534C49.6493 5.77083 49.3134 5.01197 49.3134 4.0634C49.3134 3.17062 49.571 2.43408 50.0748 1.92073C50.5787 1.40739 51.3289 1.11723 52.2919 1.11723C52.7286 1.11723 53.1765 1.18419 53.546 1.29579C53.9156 1.40739 54.2179 1.55246 54.3858 1.71986L54.8225 0.536927C54.4866 0.380691 54.1059 0.257934 53.6916 0.179816C53.2773 0.0905386 52.8294 0.0458984 52.3255 0.0458984C50.9594 0.0458984 49.8285 0.481128 49.0335 1.22883C48.2385 1.97653 47.7794 3.04786 47.7794 4.32007C47.7794 5.45836 48.2721 6.40694 49.0559 7.06536C49.8397 7.73494 50.9146 8.10322 52.0568 8.10322C52.5943 8.10322 53.0757 8.06974 53.5348 8.00278Z" fill="#757573"/>
</svg>
