<svg width="65" height="25" viewBox="0 0 65 25" fill="none" xmlns="http://www.w3.org/2000/svg">
<path d="M10.7678 16.4087C13.1235 16.4087 15.0331 14.4439 15.0331 12.0203C15.0331 9.5966 13.1235 7.63184 10.7678 7.63184C8.4121 7.63184 6.50244 9.5966 6.50244 12.0203C6.50244 14.4439 8.4121 16.4087 10.7678 16.4087Z" fill="#757573"/>
<path d="M10.7679 6.46701L12.7038 4.46701V2.07031H8.83203V4.46701L10.7679 6.46701Z" fill="#757573"/>
<path d="M8.06892 7.21128L8.77579 4.48401L7.61106 2.40137L4.25342 4.40137L5.41815 6.47575L8.06892 7.21128Z" fill="#A3A3A0"/>
<path d="M6.08444 9.24398L5.37757 6.51671L3.35335 5.31836L1.41748 8.77291L3.44171 9.97125L6.08444 9.24398Z" fill="#757573"/>
<path d="M5.36174 12.021L3.42588 10.0293H1.08838V14.0128H3.42588L5.36174 12.021Z" fill="#A3A3A0"/>
<path d="M6.08444 14.7976L3.44171 14.0703L1.41748 15.2687L3.35335 18.7232L5.37757 17.5249L6.08444 14.7976Z" fill="#757573"/>
<path d="M8.06062 16.8389L5.41788 17.5661L4.24512 19.6488L7.60276 21.6405L8.77553 19.5579L8.06062 16.8389Z" fill="#A3A3A0"/>
<path d="M10.7676 17.583L8.82373 19.5747V21.9797H12.7035V19.5747L10.7676 17.583Z" fill="#757573"/>
<path d="M13.4666 16.8389L12.7598 19.5579L13.9245 21.6405L17.2821 19.6488L16.1174 17.5661L13.4666 16.8389Z" fill="#A3A3A0"/>
<path d="M15.4429 14.8058L16.1497 17.5249L18.174 18.7315L20.1179 15.2769L18.0936 14.0703L15.4429 14.8058Z" fill="#757573"/>
<path d="M16.1655 12.021L18.1094 14.021H20.4389V10.0293H18.1094L16.1655 12.021Z" fill="#A3A3A0"/>
<path d="M15.4429 9.24398L18.0936 9.97125L20.1179 8.77291L18.174 5.31836L16.1578 6.51671L15.4429 9.24398Z" fill="#757573"/>
<path d="M13.4666 7.21128L16.1174 6.48401L17.2821 4.40137L13.9245 2.40137L12.7598 4.48401L13.4666 7.21128Z" fill="#A3A3A0"/>
<path d="M27.1464 4.44238C28.8413 4.44238 29.6928 5.30189 29.6928 5.30189L28.8734 6.85561C28.8734 6.85561 28.279 6.24404 27.299 6.24404C26.0701 6.24404 25.5801 7.01263 25.5801 7.88866C25.5801 8.91346 26.2387 9.64899 27.2348 9.64899C27.8453 9.64899 28.3272 9.31842 28.3835 9.23577V8.93825H27.5481V7.48371H30.0141V11.2854H28.4397V10.9961C28.4397 10.8887 28.4477 10.7978 28.4557 10.7812H28.4156C28.3353 10.8969 27.8131 11.4011 26.7609 11.4011C24.9856 11.4011 23.5317 10.0374 23.5317 7.93825C23.5558 5.96304 24.9696 4.44238 27.1464 4.44238Z" fill="#A3A3A0"/>
<path d="M38.1113 4.69043H40.8987C42.3044 4.69043 43.2683 5.47555 43.2683 6.85572C43.2683 7.61605 42.8907 8.32679 42.2883 8.69869V8.71522C42.3044 8.74828 42.4329 8.92183 42.5694 9.16977L43.694 11.2855H41.5895L40.5934 9.21936H40.0552V11.2855H38.1113V4.69043ZM40.6255 7.68216C41.0593 7.68216 41.3083 7.4177 41.3083 6.97969C41.3083 6.56646 41.1396 6.29374 40.5533 6.29374H40.0472V7.6739H40.6255V7.68216Z" fill="#A3A3A0"/>
<path d="M44.168 4.69043H46.7705C48.7546 4.69043 50.0157 5.89704 50.0157 7.97142C50.0157 10.0458 48.7546 11.2855 46.7705 11.2855H44.168V4.69043ZM46.6501 9.66564C47.5176 9.66564 48.0317 9.09539 48.0317 7.97969C48.0317 6.87225 47.4935 6.31853 46.6501 6.31853H46.1119V9.66564H46.6501Z" fill="#A3A3A0"/>
<path d="M58.0879 4.69043H59.9354L61.5178 7.39291C61.7829 7.84745 61.9757 8.40117 61.9757 8.40117H62.0078C62.0078 8.40117 61.9355 7.8144 61.9355 7.39291V4.69043H63.8071V11.2855H61.9275L60.337 8.45076C60.1041 8.05407 59.8792 7.45076 59.8792 7.45076H59.847C59.847 7.45076 59.9193 8.02927 59.9193 8.45076V11.2855H58.0879V4.69043Z" fill="#A3A3A0"/>
<path d="M24.0378 12.8057H26.1504L26.9537 15.4668C27.0822 15.8883 27.2188 16.5247 27.2188 16.5247H27.2509C27.2509 16.5247 27.3875 15.8883 27.516 15.4668L28.3192 12.8057H30.4238L30.8977 19.4007H29.0984L28.9217 16.6486C28.8896 16.1528 28.9217 15.5908 28.9217 15.5908H28.8896C28.8896 15.5908 28.7289 16.2354 28.5923 16.6486L28.006 18.5247H26.4637L25.8693 16.6486C25.7408 16.2354 25.5801 15.5908 25.5801 15.5908H25.548C25.548 15.5908 25.5721 16.1528 25.5399 16.6486L25.3713 19.4007H23.5479L24.0378 12.8057Z" fill="#A3A3A0"/>
<path d="M34.8174 12.6494C36.922 12.6494 38.3277 14.1288 38.3277 16.0874C38.3277 18.0957 36.922 19.6081 34.8174 19.6081C32.7129 19.6081 31.3072 18.0957 31.3072 16.0874C31.2991 14.1205 32.7129 12.6494 34.8174 12.6494ZM34.8174 17.8064C35.6769 17.8064 36.2954 17.1122 36.2954 16.0874C36.2954 15.1122 35.6769 14.4511 34.8174 14.4511C33.9579 14.4511 33.3394 15.1122 33.3394 16.0874C33.3314 17.104 33.9579 17.8064 34.8174 17.8064Z" fill="#A3A3A0"/>
<path d="M34.0464 4.56641C36.1509 4.56641 37.5567 6.04574 37.5567 8.00442C37.5567 10.0127 36.1509 11.5251 34.0464 11.5251C31.9418 11.5251 30.5361 10.0127 30.5361 8.00442C30.5361 6.04574 31.9418 4.56641 34.0464 4.56641ZM34.0464 9.72343C34.9059 9.72343 35.5244 9.02922 35.5244 8.00442C35.5244 7.02922 34.9059 6.36806 34.0464 6.36806C33.1869 6.36806 32.5684 7.02922 32.5684 8.00442C32.5604 9.02922 33.1869 9.72343 34.0464 9.72343Z" fill="#A3A3A0"/>
<path d="M53.9917 4.56641C56.0963 4.56641 57.502 6.04574 57.502 8.00442C57.502 10.0127 56.0963 11.5251 53.9917 11.5251C51.8872 11.5251 50.4814 10.0127 50.4814 8.00442C50.4814 6.04574 51.8872 4.56641 53.9917 4.56641ZM53.9917 9.72343C54.8512 9.72343 55.4697 9.02922 55.4697 8.00442C55.4697 7.02922 54.8512 6.36806 53.9917 6.36806C53.1322 6.36806 52.5137 7.02922 52.5137 8.00442C52.5137 9.02922 53.1322 9.72343 53.9917 9.72343Z" fill="#A3A3A0"/>
<path d="M42.2232 12.6494C44.3277 12.6494 45.7335 14.1288 45.7335 16.0874C45.7335 18.0957 44.3277 19.6081 42.2232 19.6081C40.1186 19.6081 38.7129 18.0957 38.7129 16.0874C38.7049 14.1205 40.1186 12.6494 42.2232 12.6494ZM42.2232 17.8064C43.0827 17.8064 43.7012 17.1122 43.7012 16.0874C43.7012 15.1122 43.0827 14.4511 42.2232 14.4511C41.3637 14.4511 40.7452 15.1122 40.7452 16.0874C40.7371 17.104 41.3637 17.8064 42.2232 17.8064Z" fill="#A3A3A0"/>
<path d="M46.3848 12.8057H48.9873C50.9714 12.8057 52.2325 14.0123 52.2325 16.0867C52.2325 18.161 50.9714 19.4007 48.9873 19.4007H46.3848V12.8057ZM48.8669 17.7809C49.7344 17.7809 50.2485 17.2106 50.2485 16.0949C50.2485 14.9875 49.7103 14.4338 48.8669 14.4338H48.3287V17.7809H48.8669Z" fill="#A3A3A0"/>
<path d="M53.9436 16.7979L51.8311 12.8145H53.9115L54.53 14.1781C54.7067 14.5913 54.8995 15.1781 54.8995 15.1781H54.9317C54.9317 15.1781 55.1164 14.5996 55.3092 14.1781L55.9116 12.8145H58.0001L55.8875 16.7979V19.4095H53.9517V16.7979H53.9436Z" fill="#A3A3A0"/>
</svg>
