<svg width="68" height="40" viewBox="0 0 68 40" fill="none" xmlns="http://www.w3.org/2000/svg">
<g clip-path="url(#clip0_5_9242)">
<path d="M15.2414 34.2829V31.2429C15.2414 30.1016 14.5161 29.3229 13.3321 29.3123C12.6494 29.2696 11.9988 29.6003 11.6254 30.1763C11.2841 29.6216 10.6761 29.2909 10.0254 29.3123C9.46011 29.2909 8.92678 29.5576 8.60678 30.0376V29.4296H7.55078V34.2829H8.61745V31.5843C8.61745 30.7416 9.08678 30.2936 9.80145 30.2936C10.5268 30.2936 10.8574 30.7523 10.8574 31.5736V34.2829H11.9134V31.5949C11.9134 30.7523 12.3934 30.3043 13.0974 30.3043C13.8014 30.3043 14.1641 30.7629 14.1641 31.5843V34.2829H15.2414ZM30.9961 29.4296H29.2681V27.9576H28.2121V29.4296H27.2201V30.3896H28.2121V32.5976C28.2121 33.7283 28.6494 34.3896 29.8974 34.3896C30.3668 34.3896 30.8148 34.2616 31.2201 34.0163L30.9214 33.1096C30.6441 33.2803 30.3241 33.3656 29.9934 33.3763C29.4708 33.3763 29.2894 33.0563 29.2894 32.5656V30.3789H31.0068L30.9961 29.4296ZM39.9881 29.3123C39.4654 29.3016 38.9748 29.5683 38.7081 30.0269V29.4403H37.6628V34.2829H38.7188V31.5629C38.7188 30.7523 39.0601 30.3149 39.7534 30.3149C39.9774 30.3149 40.2014 30.3576 40.4148 30.4323L40.7348 29.4403C40.4894 29.3549 40.2441 29.3123 39.9881 29.3123ZM26.3988 29.8136C25.8014 29.4616 25.1188 29.2803 24.4254 29.3123C23.1988 29.3123 22.3988 29.8989 22.3988 30.8589C22.3988 31.6483 22.9854 32.1389 24.0734 32.2883L24.5641 32.3523C25.1401 32.4376 25.4174 32.5869 25.4174 32.8536C25.4174 33.2269 25.0334 33.4403 24.3081 33.4403C23.7214 33.4616 23.1561 33.2803 22.6868 32.9389L22.2068 33.7603C22.8148 34.1869 23.5614 34.4109 24.3081 34.3896C25.7054 34.3896 26.5161 33.7283 26.5161 32.8109C26.5161 31.9576 25.8761 31.5096 24.8201 31.3603L24.3294 31.2856C23.8708 31.2216 23.5081 31.1363 23.5081 30.8163C23.5081 30.4643 23.8494 30.2509 24.4361 30.2509C24.9694 30.2616 25.4814 30.4003 25.9508 30.6669L26.3988 29.8136ZM54.6334 29.3123C54.1108 29.3016 53.6201 29.5683 53.3534 30.0269V29.4403H52.2974V34.2829H53.3534V31.5629C53.3534 30.7523 53.6948 30.3149 54.3881 30.3149C54.6121 30.3149 54.8361 30.3576 55.0494 30.4323L55.3694 29.4403C55.1348 29.3549 54.8788 29.3123 54.6334 29.3123ZM41.0548 31.8616C41.0548 33.3336 42.0788 34.4003 43.6361 34.4003C44.2654 34.4323 44.8948 34.2296 45.3748 33.8243L44.8734 32.9709C44.5108 33.2483 44.0628 33.4083 43.6041 33.4083C42.7614 33.4083 42.1428 32.7896 42.1428 31.8616C42.1428 30.9336 42.7614 30.3149 43.6041 30.3149C44.0628 30.3149 44.5108 30.4749 44.8734 30.7523L45.3748 29.8989C44.8841 29.4936 44.2654 29.2909 43.6361 29.3229C42.0788 29.3123 41.0548 30.3896 41.0548 31.8616ZM50.9214 31.8616V29.4296H49.8654V30.0163C49.5028 29.5469 48.9268 29.2803 48.3401 29.3123C46.9854 29.3123 45.9081 30.3789 45.9081 31.8509C45.9081 33.3336 46.9748 34.3896 48.3401 34.3896C48.9374 34.4109 49.5028 34.1549 49.8654 33.6749V34.2616H50.9214V31.8616ZM47.0068 31.8616C47.0068 31.0083 47.5614 30.3149 48.4788 30.3149C49.3534 30.3149 49.9401 30.9869 49.9401 31.8616C49.9401 32.7363 49.3534 33.4083 48.4788 33.4083C47.5614 33.4083 46.9961 32.7043 47.0068 31.8616ZM34.2921 29.3123C32.8734 29.3123 31.8814 30.3469 31.8814 31.8509C31.8814 33.3656 32.9161 34.3896 34.3668 34.3896C35.0921 34.4109 35.7961 34.1763 36.3508 33.7069L35.8388 32.9283C35.4334 33.2483 34.9428 33.4296 34.4201 33.4296C33.7374 33.4296 33.1188 33.1203 32.9694 32.2456H36.5641C36.5641 32.1176 36.5854 31.9789 36.5854 31.8403C36.5854 30.3256 35.6468 29.3016 34.2814 29.3016L34.2921 29.3123ZM34.2708 30.2509C34.9534 30.2509 35.3908 30.6776 35.4974 31.4243H32.9801C33.0868 30.7309 33.5028 30.2509 34.2708 30.2509ZM60.7028 31.8616V27.4883H59.6361V30.0163C59.2734 29.5469 58.6974 29.2803 58.1108 29.3123C56.7561 29.3123 55.6788 30.3789 55.6788 31.8509C55.6788 33.3336 56.7454 34.3896 58.1108 34.3896C58.7081 34.4109 59.2734 34.1549 59.6361 33.6749V34.2616H60.6921L60.7028 31.8616ZM61.9401 33.8349C61.9828 33.8349 62.0254 33.8456 62.0574 33.8563C62.0894 33.8669 62.1321 33.8989 62.1534 33.9203C62.1854 33.9523 62.2068 33.9843 62.2174 34.0163C62.2494 34.0909 62.2494 34.1763 62.2174 34.2509C62.2068 34.2829 62.1748 34.3149 62.1534 34.3469C62.1214 34.3789 62.0894 34.4003 62.0574 34.4109C61.8974 34.4749 61.7161 34.4003 61.6414 34.2509C61.6094 34.1763 61.6094 34.0909 61.6414 34.0163C61.6734 33.9416 61.7268 33.8776 61.8014 33.8456C61.8548 33.8349 61.8974 33.8243 61.9401 33.8349ZM61.9401 34.3789C61.9721 34.3789 62.0041 34.3789 62.0361 34.3576C62.0681 34.3469 62.0894 34.3256 62.1108 34.3043C62.2068 34.2083 62.2068 34.0589 62.1108 33.9629C62.0894 33.9416 62.0681 33.9203 62.0361 33.9096C62.0041 33.8989 61.9721 33.8883 61.9401 33.8883C61.9081 33.8883 61.8761 33.8883 61.8441 33.9096C61.7268 33.9629 61.6628 34.1016 61.7161 34.2189C61.7268 34.2509 61.7481 34.2723 61.7694 34.2936C61.7908 34.3149 61.8228 34.3363 61.8441 34.3469C61.8761 34.3789 61.9081 34.3789 61.9401 34.3789ZM61.9508 33.9949C61.9828 33.9949 62.0148 34.0056 62.0361 34.0163C62.0681 34.0483 62.0681 34.1123 62.0361 34.1443C62.0148 34.1549 61.9934 34.1656 61.9721 34.1763L62.0681 34.2829H61.9934L61.9081 34.1763H61.8761V34.2829H61.8014V33.9949H61.9508ZM61.8868 34.0483V34.1229H61.9614C61.9721 34.1229 61.9934 34.1229 62.0041 34.1229C62.0148 34.1123 62.0148 34.1016 62.0148 34.0909C62.0148 34.0803 62.0041 34.0696 62.0041 34.0589H61.9508L61.8868 34.0483ZM56.7881 31.8616C56.7881 31.0083 57.3428 30.3149 58.2601 30.3149C59.1348 30.3149 59.7214 30.9869 59.7214 31.8616C59.7214 32.7363 59.1348 33.4083 58.2601 33.4083C57.3428 33.4083 56.7774 32.7043 56.7881 31.8616ZM21.1934 31.8616V29.4296H20.1268V30.0163C19.7641 29.5469 19.1988 29.2909 18.6014 29.3123C17.2468 29.3123 16.1694 30.3789 16.1694 31.8509C16.1694 33.3336 17.2361 34.3896 18.6014 34.3896C19.1988 34.4109 19.7641 34.1549 20.1268 33.6749V34.2616H21.1828L21.1934 31.8616ZM17.2681 31.8616C17.2681 31.0083 17.8228 30.3149 18.7401 30.3149C19.6148 30.3149 20.2014 30.9869 20.2014 31.8616C20.2014 32.7363 19.6148 33.4083 18.7401 33.4083C17.8228 33.4083 17.2681 32.7043 17.2681 31.8616Z" fill="white"/>
<path d="M38.3947 8.16016H30V23.2428H38.3947V8.16016Z" fill="#FF5F00"/>
<path d="M30.5325 15.6941C30.5325 12.7501 31.8765 9.97677 34.1912 8.15277C30.0312 4.8781 23.9938 5.60344 20.7192 9.76344C17.4445 13.9234 18.1698 19.9608 22.3298 23.2354C25.8072 25.9661 30.7032 25.9661 34.1912 23.2354C31.8872 21.4221 30.5325 18.6381 30.5325 15.6941Z" fill="#EB001B"/>
<path d="M49.7192 15.6941C49.7192 20.9954 45.4312 25.2834 40.1299 25.2834C37.9752 25.2834 35.8952 24.5581 34.1992 23.2354C38.3592 19.9608 39.0846 13.9341 35.8099 9.76344C35.3406 9.1661 34.7966 8.6221 34.1992 8.15277C38.3592 4.8781 44.3966 5.60344 47.6712 9.76344C48.9939 11.4594 49.7192 13.5394 49.7192 15.6941Z" fill="#F79E1B"/>
<path d="M48.7946 21.6351V21.3257H48.9226V21.2724H48.6133V21.3364H48.7413V21.6457L48.7946 21.6351ZM49.4026 21.6351V21.2617H49.3173L49.2106 21.5284L49.1039 21.2617H49.0079V21.6351H49.0613V21.3577L49.1679 21.6031H49.2426L49.3493 21.3577V21.6351H49.4026Z" fill="#F79E1B"/>
</g>
<defs>
<clipPath id="clip0_5_9242">
<rect width="67.2" height="38.4" fill="white" transform="translate(0.398438 0.800781)"/>
</clipPath>
</defs>
</svg>
