<svg width="64" height="22" viewBox="0 0 64 22" fill="none" xmlns="http://www.w3.org/2000/svg">
<g clip-path="url(#clip0_5_9251)">
<path d="M33.1457 7.36955C33.1061 10.1693 35.6417 11.7409 37.5566 12.6653C39.5244 13.6162 40.1847 14.2368 40.1715 15.0821C40.1583 16.3895 38.5999 16.9706 37.1604 16.9838C34.6248 17.0234 33.1589 16.297 31.9836 15.7556L31.0723 20.0212C32.2477 20.5627 34.4267 21.0381 36.6718 21.0513C41.9676 21.0513 45.4276 18.4365 45.4408 14.3821C45.4672 9.24485 38.3358 8.95431 38.3754 6.65641C38.3886 5.95647 39.0622 5.21691 40.5149 5.03203C41.2412 4.93958 43.2222 4.86034 45.4804 5.90364L46.3653 1.77006C45.1503 1.33425 43.5919 0.898438 41.6506 0.898438C36.685 0.92485 33.1721 3.57933 33.1457 7.36955ZM54.8834 1.28142C53.9193 1.28142 53.1005 1.84929 52.7439 2.70771L45.1899 20.774H50.4724L51.5289 17.8686H57.9869L58.5943 20.774H63.2562L59.1886 1.29463H54.8834M55.6229 6.55076L57.1549 13.8671H52.9684L55.6229 6.55076ZM26.7406 1.28142L22.5674 20.774H27.6123L31.7855 1.29463H26.7406M19.2791 1.28142L14.0361 14.5406L11.9099 3.26237C11.659 2.00777 10.6817 1.28142 9.58559 1.28142H1.01467L0.895813 1.84929C2.65226 2.23228 4.65962 2.85298 5.87461 3.5133C6.61416 3.90949 6.82546 4.26606 7.07638 5.23012L11.0779 20.774H16.4001L24.5616 1.29463H19.2791" fill="url(#paint0_linear_5_9251)"/>
</g>
<defs>
<linearGradient id="paint0_linear_5_9251" x1="0.89127" y1="10.9999" x2="63.2607" y2="10.9999" gradientUnits="userSpaceOnUse">
<stop stop-color="#34369A"/>
<stop offset="1" stop-color="#3C62C0"/>
</linearGradient>
<clipPath id="clip0_5_9251">
<rect width="62.4" height="20.8" fill="white" transform="translate(0.884094 0.597656)"/>
</clipPath>
</defs>
</svg>
