<svg width="80" height="16" viewBox="0 0 80 16" fill="none" xmlns="http://www.w3.org/2000/svg">
<path d="M72.8858 2.69047C71.9562 2.05047 70.5626 1.73047 68.7258 1.73047H63.9258L62.1418 11.4105H55.8714L56.2762 9.21367H60.0602L60.5098 6.74807H56.7274L57.1322 4.56887H61.0314L61.5482 1.73847H53.6314L51.9386 10.9209H49.0346L50.7322 1.73847H46.5994L44.9082 10.9209H42.0778L43.7834 1.73847H39.649L37.8618 11.4185H31.5322L31.9338 9.22167H35.7322L36.1818 6.77047H32.3866L32.785 4.57527H36.7338L37.2458 1.73847H12.5738L11.1738 9.40407L8.37696 1.73847H4.07936L1.77216 14.2569H5.87296L7.26655 6.37527L9.98656 14.2569H24.6874L26.473 4.57527H28.7722L26.9834 14.2569H65.6442L66.7642 8.14487L68.5786 14.2569H72.681L70.8026 9.26167L71.2314 9.17207C72.1786 8.97047 72.9162 8.53207 73.4314 7.88087C73.9466 7.22967 74.2058 6.37047 74.2058 5.35767C74.209 4.17047 73.7722 3.29847 72.8858 2.69047ZM21.1114 11.4185H14.8394L15.2442 9.22167H19.1818L19.6298 6.74807H15.7242L16.1002 4.57527H22.3722L21.1114 11.4185ZM69.5034 7.19767C69.0906 7.48567 68.4922 7.62647 67.6746 7.62647H66.8618L67.4826 4.26647H68.0794C68.7594 4.26647 69.2538 4.37527 69.5962 4.59767C69.8633 4.77047 70.177 5.11607 70.177 5.76887C70.1866 6.55767 69.8138 6.98487 69.5034 7.19767Z" fill="#83BA3B"/>
<path d="M76.0605 13.45L75.9597 11.4756L76.8317 11.4308C76.9669 11.4183 77.1033 11.4291 77.2349 11.4628C77.3304 11.4934 77.4124 11.5562 77.4669 11.6404C77.5261 11.727 77.5599 11.8284 77.5645 11.9332C77.5739 12.0639 77.532 12.1931 77.4477 12.2932C77.3392 12.4068 77.1953 12.4802 77.0397 12.5012C77.0967 12.5239 77.1505 12.554 77.1997 12.5908C77.2875 12.6648 77.3655 12.7498 77.4317 12.8436L77.7997 13.362L77.4797 13.378L77.1981 12.9812C77.1149 12.866 77.0477 12.7796 76.9965 12.7204C76.9568 12.6714 76.9099 12.6288 76.8573 12.594C76.8192 12.5727 76.7783 12.5571 76.7357 12.5476C76.6824 12.5436 76.6289 12.5436 76.5757 12.5476L76.2749 12.562L76.3197 13.4372L76.0605 13.45ZM76.2637 12.338L76.8237 12.3092C76.9181 12.3076 77.0116 12.2903 77.1005 12.258C77.1625 12.234 77.2145 12.1894 77.2477 12.1316C77.2786 12.0771 77.2935 12.015 77.2909 11.9524C77.2899 11.9088 77.279 11.866 77.2591 11.8272C77.2391 11.7884 77.2106 11.7546 77.1757 11.7284C77.0816 11.6654 76.9679 11.6387 76.8557 11.6532L76.2349 11.6852L76.2637 12.338Z" fill="#83BA3B"/>
<path d="M76.6346 10.5768C76.2713 10.5963 75.9218 10.7231 75.6305 10.9412C75.3392 11.1593 75.1191 11.4588 74.9981 11.802C74.877 12.1452 74.8604 12.5165 74.9504 12.8691C75.0404 13.2217 75.2329 13.5397 75.5036 13.7829C75.7743 14.0261 76.111 14.1836 76.4712 14.2354C76.8314 14.2872 77.1989 14.2311 77.5272 14.074C77.8555 13.917 78.1298 13.6662 78.3155 13.3533C78.5013 13.0403 78.59 12.6794 78.5706 12.316C78.5442 11.8288 78.3254 11.3719 77.9625 11.0458C77.5995 10.7198 77.1219 10.5511 76.6346 10.5768ZM75.2042 12.4968C75.1983 12.107 75.3417 11.7297 75.6051 11.4422C75.8685 11.1548 76.2318 10.9791 76.6207 10.951C77.0095 10.923 77.3943 11.0448 77.6962 11.2915C77.9981 11.5381 78.1942 11.891 78.2442 12.2776C78.2442 12.2984 78.2442 12.3208 78.2442 12.3416V12.42C78.2461 12.8194 78.0914 13.2037 77.8132 13.4903C77.535 13.777 77.1556 13.9432 76.7563 13.9532C76.3569 13.9633 75.9696 13.8164 75.6773 13.5441C75.3851 13.2718 75.2112 12.8958 75.193 12.4968H75.2042Z" fill="#83BA3B"/>
</svg>
