<svg width="63" height="22" viewBox="0 0 63 22" fill="none" xmlns="http://www.w3.org/2000/svg">
<g clip-path="url(#clip0_5_9262)">
<path d="M50.1039 2.34306L55.3539 1.41006V21.5356H50.1039V2.34306ZM57.7539 2.34306V21.5251H63.0039V1.41006L57.7539 2.34306ZM42.6444 21.5251H47.8944V6.81156H42.6444V21.5251ZM7.98241 8.89506C7.31641 8.85006 5.78341 8.74506 5.78341 7.37256C5.78341 5.70606 7.99441 5.70606 8.81641 5.70606C10.2729 5.70606 12.1614 6.13956 13.5069 6.53856C13.5069 6.53856 14.2569 6.80556 14.8959 7.07256L14.9514 7.08306V2.52156L14.8734 2.49906C13.2834 1.94406 11.4399 1.41006 8.00491 1.41006C2.09341 1.41006 0.00390625 4.86006 0.00390625 7.80006C0.00390625 9.50106 0.737406 13.5001 7.50391 13.9681C8.08141 14.0011 9.60391 14.0896 9.60391 15.5236C9.60391 16.7011 8.35891 17.4016 6.25891 17.4016C4.24589 17.3829 2.25339 16.995 0.380407 16.2571V20.9581C2.40241 21.4921 4.69141 21.7576 7.37041 21.7576C13.1499 21.7576 15.7389 18.5026 15.7389 15.2686C15.7404 11.5951 12.8499 9.22206 7.98241 8.89506ZM39.6894 6.60006C34.8429 6.75006 32.3874 8.93406 32.3874 13.2571V21.5356H37.6779V14.7856C37.6779 12.1951 38.0109 11.0851 41.0889 10.9846V6.66606C40.6252 6.60395 40.1569 6.58186 39.6894 6.60006ZM25.4634 6.79506C24.7554 8.65582 23.7454 10.3871 22.4739 11.9191V1.41006L17.0619 2.47656V21.5266H22.4739V15.6346C24.0414 17.9911 24.8199 21.5251 24.8199 21.5251H31.2984C30.6534 18.8581 27.8484 13.9456 27.8484 13.9456C29.5146 11.796 30.8016 9.37777 31.6539 6.79506H25.4634ZM45.2634 5.39556C45.7751 5.39674 46.2756 5.24602 46.7015 4.96249C47.1275 4.67896 47.4597 4.27538 47.656 3.80288C47.8524 3.33038 47.9041 2.81023 47.8045 2.30832C47.705 1.80642 47.4587 1.34536 47.0969 0.983547C46.7351 0.621737 46.274 0.375464 45.7721 0.275932C45.2702 0.1764 44.7501 0.228088 44.2776 0.424446C43.8051 0.620804 43.4015 0.952995 43.118 1.37893C42.8344 1.80487 42.6837 2.30538 42.6849 2.81706C42.6869 3.49944 42.958 4.15348 43.4394 4.63712C43.9208 5.12076 44.5735 5.39492 45.2559 5.40006L45.2634 5.39556Z" fill="url(#paint0_linear_5_9262)"/>
</g>
<defs>
<linearGradient id="paint0_linear_5_9262" x1="0.352206" y1="11.0713" x2="63.2781" y2="11.0713" gradientUnits="userSpaceOnUse">
<stop stop-color="#872166"/>
<stop offset="1" stop-color="#773081"/>
</linearGradient>
<clipPath id="clip0_5_9262">
<rect width="63" height="21.6" fill="white" transform="translate(0 0.199219)"/>
</clipPath>
</defs>
</svg>
