<svg width="75" height="17" viewBox="0 0 75 17" fill="none" xmlns="http://www.w3.org/2000/svg">
<g clip-path="url(#clip0_5_9269)">
<path d="M15.782 10.2018C15.4155 11.6756 14.62 13.0076 13.4963 14.0292C12.3726 15.0508 10.9711 15.7162 9.46915 15.9412C7.96719 16.1662 6.43226 15.9406 5.05852 15.2931C3.68479 14.6455 2.53399 13.605 1.75171 12.3033C0.969424 11.0016 0.590814 9.49704 0.663774 7.98009C0.736733 6.46313 1.25798 5.00189 2.16158 3.78124C3.06518 2.56059 4.31053 1.63537 5.74007 1.12263C7.16961 0.609896 8.7191 0.532681 10.1925 0.900757C12.1666 1.39389 13.8641 2.6505 14.9122 4.3945C15.9602 6.13849 16.2731 8.22722 15.782 10.2018Z" fill="#F7931A"/>
<path d="M11.7188 7.25165C11.8665 6.23001 11.0943 5.68081 10.0314 5.31468L10.3754 3.93134L9.53384 3.7217L9.19723 5.06813C8.97578 5.0135 8.75433 4.96183 8.52254 4.91016L8.86062 3.55339L8.0191 3.34375L7.67364 4.72709C7.49057 4.68575 7.31046 4.64442 7.13625 4.60013L5.97436 4.30486L5.74995 5.20395C5.74995 5.20395 6.37445 5.35159 6.36116 5.35159C6.70368 5.43721 6.76421 5.6631 6.75387 5.84173L6.36116 7.41848C6.39083 7.42575 6.41993 7.43512 6.44827 7.44653L6.35969 7.42438L5.80901 9.63891C5.79693 9.67738 5.77735 9.71308 5.7514 9.74396C5.72546 9.77483 5.69366 9.80026 5.65784 9.81879C5.62202 9.83732 5.58289 9.84857 5.5427 9.85191C5.50251 9.85524 5.46206 9.85059 5.42368 9.83821C5.42368 9.8515 4.81099 9.69058 4.81099 9.69058L4.39319 10.6546L5.48864 10.9278L6.08951 11.0754L5.74257 12.4794L6.58409 12.689L6.92808 11.3042C7.15839 11.3662 7.38132 11.4238 7.59982 11.4784L7.25583 12.8573L8.09883 13.067L8.44725 11.6704C9.88373 11.942 10.957 11.8313 11.4177 10.5336C11.7838 9.48684 11.3999 8.88301 10.6441 8.49031C11.1947 8.36334 11.6096 8.00164 11.7188 7.25313V7.25165ZM9.79958 9.95042C9.53974 10.9971 7.77846 10.4317 7.20711 10.29L7.66921 8.43568C8.23613 8.57741 10.0668 8.85939 9.79515 9.95042H9.79958ZM10.0594 7.23689C9.82173 8.18766 8.35719 7.70489 7.8818 7.58678L8.30109 5.90522C8.77204 6.02333 10.303 6.24478 10.055 7.23689H10.0594Z" fill="white"/>
<path d="M23.1428 5.30771C23.6984 5.2937 24.2498 5.40682 24.755 5.63841C25.1928 5.84576 25.5787 6.14842 25.8844 6.52422C26.19 6.9192 26.4143 7.3708 26.5443 7.85294C26.6895 8.38494 26.761 8.93434 26.7569 9.48578C26.7609 11.2034 26.0995 12.8559 24.9115 14.0964C24.335 14.6893 23.6485 15.1642 22.8904 15.4945C22.0944 15.8417 21.2342 16.0173 20.3658 16.0098C20.2492 16.0098 20.044 16.0098 19.7531 15.9994C19.4186 15.9895 19.0849 15.9609 18.7536 15.9138C18.3513 15.8556 17.9522 15.7773 17.5578 15.6791C17.1452 15.5796 16.7443 15.4366 16.3619 15.2524L19.7236 1.12668L22.7353 0.660156L21.5306 5.68122C21.7814 5.56912 22.0412 5.47826 22.3072 5.40958C22.5808 5.34366 22.8614 5.31095 23.1428 5.31214V5.30771ZM20.6168 13.6255C21.0655 13.6257 21.507 13.5119 21.8997 13.2948C22.3005 13.0723 22.652 12.7709 22.9332 12.409C23.2288 12.0309 23.4616 11.6076 23.6226 11.1555C23.7905 10.6876 23.8759 10.194 23.8751 9.6969C23.8751 9.07535 23.7703 8.59111 23.5636 8.23974C23.3569 7.88837 22.973 7.71563 22.4179 7.71563C22.1791 7.72392 21.9417 7.75607 21.7093 7.8116C21.4159 7.87919 21.1446 8.02045 20.9209 8.22202L19.6394 13.5443L19.8432 13.5827C19.9035 13.5965 19.9646 13.6064 20.0262 13.6122C20.1042 13.6204 20.1826 13.6244 20.261 13.624L20.6168 13.6255Z" fill="white"/>
<path d="M29.8893 15.7431H27.0104L29.4464 5.52384H32.343L29.8893 15.7431ZM31.2888 4.2778C30.8964 4.28203 30.5137 4.15584 30.2008 3.91904C29.876 3.68086 29.7136 3.31522 29.7136 2.82212C29.7126 2.55728 29.7691 2.29538 29.8789 2.05441C29.986 1.82113 30.1363 1.61023 30.3218 1.43287C30.5055 1.25734 30.719 1.11587 30.9522 1.01506C31.1958 0.913504 31.4576 0.863246 31.7214 0.867429C32.1131 0.864745 32.4949 0.990789 32.808 1.22618C33.1308 1.46634 33.2927 1.83247 33.2937 2.32459C33.2955 2.58951 33.2391 2.8516 33.1284 3.09229C33.0218 3.32585 32.8714 3.53682 32.6855 3.71383C32.5022 3.88986 32.2886 4.03139 32.0551 4.13164C31.8122 4.23361 31.5507 4.28389 31.2874 4.27927L31.2888 4.2778Z" fill="white"/>
<path d="M34.8627 2.97972L37.87 2.51172L37.1318 5.52495H40.3562L39.7745 7.88711H36.5723L35.719 11.4614C35.6438 11.7342 35.5983 12.0144 35.5831 12.297C35.5638 12.5248 35.5966 12.754 35.6791 12.9672C35.7575 13.1623 35.9067 13.3205 36.0969 13.4101C36.3685 13.5295 36.6643 13.5836 36.9606 13.5681C37.2644 13.5688 37.5676 13.5391 37.8656 13.4795C38.1663 13.4201 38.4623 13.3392 38.7514 13.2374L38.9655 15.4519C38.5528 15.6008 38.1312 15.7236 37.7032 15.8195C37.1728 15.9312 36.6315 15.9832 36.0895 15.9746C35.1968 15.9746 34.5039 15.8422 34.0108 15.5774C33.5482 15.3428 33.1784 14.9589 32.9611 14.4879C32.7474 13.989 32.6544 13.4468 32.6895 12.9052C32.7214 12.2702 32.8123 11.6395 32.9611 11.0214L34.8627 2.97972Z" fill="white"/>
<path d="M40.2176 11.6585C40.2117 10.8111 40.3561 9.96931 40.6443 9.17234C40.9145 8.41782 41.3309 7.724 41.8696 7.13055C42.4105 6.54044 43.0694 6.07064 43.8036 5.75164C44.603 5.40632 45.4664 5.23424 46.3371 5.24673C46.8629 5.24007 47.3877 5.29558 47.9005 5.41208C48.3332 5.51518 48.7538 5.66364 49.1554 5.85498L48.1633 8.10937C47.9049 8.00455 47.6362 7.91154 47.3572 7.82739C47.0253 7.73509 46.6815 7.69231 46.3371 7.70042C45.3774 7.70042 44.6186 8.0326 44.0546 8.69105C43.4906 9.3495 43.2087 10.2397 43.2087 11.3485C43.2087 12.0089 43.3514 12.5433 43.6368 12.9518C43.9222 13.3603 44.4468 13.564 45.2106 13.563C45.5764 13.5637 45.9413 13.5246 46.2987 13.4464C46.6181 13.3767 46.9304 13.2778 47.2317 13.1511L47.4517 15.4675C47.0584 15.619 46.6561 15.7457 46.247 15.8469C45.7298 15.9644 45.2005 16.0199 44.6703 16.0123C43.9739 16.031 43.2806 15.9126 42.6299 15.6639C42.1076 15.4526 41.6372 15.1307 41.251 14.7205C40.8867 14.3231 40.6177 13.848 40.4641 13.3312C40.299 12.7891 40.2159 12.2253 40.2176 11.6585Z" fill="white"/>
<path d="M53.0076 16.0115C52.3971 16.0245 51.7899 15.9187 51.2198 15.6999C50.7427 15.5113 50.3164 15.2135 49.9752 14.8304C49.6382 14.4428 49.3835 13.9908 49.2267 13.5017C49.0525 12.9529 48.9677 12.3796 48.9757 11.8039C48.9777 11.0112 49.1053 10.2239 49.3537 9.47123C49.5964 8.71014 49.975 7.99935 50.4713 7.37334C50.9656 6.74906 51.5794 6.2296 52.2769 5.84531C53.0288 5.44221 53.8716 5.23887 54.7246 5.25477C55.3323 5.24315 55.9364 5.34944 56.5036 5.56776C56.987 5.75633 57.4193 6.05568 57.7659 6.44176C58.1024 6.82947 58.3565 7.28153 58.513 7.77047C58.6871 8.32034 58.7723 8.89449 58.7654 9.47123C58.7621 10.2629 58.6381 11.0495 58.3978 11.8039C58.1612 12.5617 57.7929 13.2718 57.3097 13.9018C56.8205 14.528 56.206 15.0454 55.5056 15.4209C54.737 15.8276 53.877 16.0309 53.0076 16.0115ZM54.4456 7.69518C54.0394 7.68874 53.6428 7.8187 53.3192 8.06427C52.989 8.31888 52.7121 8.63591 52.5042 8.99732C52.2799 9.3827 52.1124 9.79838 52.0067 10.2315C51.9014 10.6472 51.8463 11.0739 51.8428 11.5027C51.8428 12.1523 51.9476 12.6572 52.1528 13.0204C52.3581 13.3836 52.736 13.5637 53.2808 13.5637C53.6865 13.5701 54.0825 13.439 54.4043 13.1916C54.7344 12.9372 55.0117 12.6207 55.2207 12.2601C55.4447 11.8747 55.6118 11.459 55.7168 11.0258C55.8222 10.6097 55.8772 10.1824 55.8806 9.75321C55.8806 9.10657 55.7768 8.60117 55.5691 8.237C55.3654 7.87677 54.9948 7.6937 54.4456 7.6937V7.69518Z" fill="white"/>
<path d="M61.88 15.7431H59.0026L61.4312 5.52382H64.3278L61.88 15.7431ZM63.2781 4.27778C62.8857 4.28201 62.5029 4.15582 62.19 3.91903C61.8662 3.68084 61.7043 3.3152 61.7043 2.8221C61.7026 2.55719 61.7591 2.29514 61.8696 2.0544C61.9766 1.82106 62.1269 1.61015 62.3125 1.43285C62.4965 1.25698 62.7105 1.11548 62.9444 1.01505C63.1869 0.913642 63.4478 0.863382 63.7106 0.867412C64.1029 0.864294 64.4852 0.990366 64.7987 1.22617C65.122 1.46681 65.2859 1.83294 65.2859 2.32457C65.2865 2.58953 65.2296 2.85146 65.1191 3.09227C65.0153 3.32556 64.8674 3.53661 64.6836 3.71381C64.4997 3.8892 64.2863 4.03065 64.0532 4.13162C63.8098 4.23359 63.5478 4.28387 63.284 4.27926L63.2781 4.27778Z" fill="white"/>
<path d="M66.4013 5.98134C66.6198 5.91785 66.8634 5.8337 67.1276 5.75693C67.3919 5.68016 67.6916 5.59601 68.0238 5.52662C68.3889 5.44819 68.7581 5.38955 69.1296 5.35093C69.591 5.30149 70.0548 5.27832 70.5188 5.28155C72.0345 5.28155 73.0808 5.72445 73.6575 6.61026C74.2343 7.49607 74.3327 8.70028 73.9528 10.2229L72.6241 15.7415H69.7482L71.0311 10.3395C71.1079 10.0014 71.1699 9.67664 71.2156 9.35775C71.2624 9.08085 71.2589 8.79779 71.2053 8.52213C71.1581 8.29157 71.0311 8.08506 70.8466 7.93898C70.6576 7.78937 70.3692 7.71506 69.9814 7.71605C69.5966 7.71735 69.2128 7.75692 68.8358 7.83416L66.9431 15.7356H64.0494L66.4013 5.98134Z" fill="white"/>
</g>
<defs>
<clipPath id="clip0_5_9269">
<rect width="74.408" height="16.2768" fill="white" transform="translate(0.209595 0.363281)"/>
</clipPath>
</defs>
</svg>
