<svg width="73" height="22" viewBox="0 0 73 22" fill="none" xmlns="http://www.w3.org/2000/svg">
<g clip-path="url(#clip0_5_9281)">
<path d="M14.3636 0.628906H10.4946C10.4554 0.632339 10.4186 0.649496 10.3907 0.677364C10.3628 0.705231 10.3457 0.742027 10.3423 0.781287V14.488C10.3479 14.9628 10.2243 15.4302 9.98459 15.8401C9.74487 16.25 9.39812 16.587 8.9815 16.8148C8.63592 17.0016 8.24973 17.1005 7.85693 17.1028H7.77921C7.35143 17.1009 6.9305 16.9952 6.55256 16.7948C6.17461 16.5944 5.85093 16.3053 5.60931 15.9523C5.37332 15.5662 5.24641 15.1233 5.24207 14.6708C5.23863 14.6315 5.22148 14.5948 5.19361 14.5669C5.16574 14.539 5.12895 14.5219 5.08969 14.5184H1.13388C1.10413 14.5184 1.0748 14.5254 1.0483 14.5389C1.02181 14.5524 0.998907 14.572 0.981496 14.5961C0.955592 14.5961 0.929688 14.6495 0.929688 14.7013C0.977348 16.4657 1.712 18.1417 2.97716 19.3724C4.24232 20.6032 5.938 21.2913 7.70302 21.2902H7.83254C9.6189 21.2678 11.3242 20.5411 12.5777 19.2682C13.8312 17.9953 14.5316 16.279 14.5266 14.4925V0.785858C14.5232 0.746598 14.5061 0.709802 14.4782 0.681935C14.4503 0.654067 14.4135 0.63691 14.3743 0.633477L14.3636 0.628906Z" fill="#FF6300"/>
<path d="M56.8317 10.8274C56.4787 9.95283 55.9545 9.15763 55.2898 8.48851C54.6251 7.8194 53.8334 7.28986 52.9612 6.93102C51.0911 6.17404 48.9998 6.17404 47.1296 6.93102C46.2528 7.26952 45.4573 7.78923 44.7951 8.45618C44.1329 9.12313 43.6188 9.92231 43.2866 10.8015C42.91 11.7314 42.7224 12.727 42.735 13.7303C42.7323 14.7409 42.9189 15.743 43.2851 16.6849C43.6237 17.5588 44.13 18.3581 44.7753 19.0377C45.441 19.7136 46.2431 20.2398 47.1281 20.5813C49.0032 21.3128 51.0847 21.3128 52.9597 20.5813C53.8234 20.2138 54.6122 19.6905 55.2866 19.0377C55.9449 18.3578 56.4686 17.5595 56.8302 16.6849C57.1952 15.7427 57.3812 14.7407 57.3788 13.7303C57.3892 12.7359 57.2027 11.7494 56.8302 10.8274H56.8317ZM47.9403 11.1154C48.2055 10.8472 48.5272 10.6416 48.882 10.5135C49.6398 10.2255 50.477 10.2255 51.2348 10.5135C51.596 10.6561 51.925 10.8696 52.2024 11.1413C52.4916 11.4531 52.7223 11.8144 52.8835 12.208C53.2234 13.2262 53.2234 14.3273 52.8835 15.3455C52.7292 15.7521 52.4979 16.1251 52.2024 16.4442C51.9303 16.7288 51.6004 16.9517 51.2348 17.0979C50.4856 17.3843 49.6571 17.3843 48.9079 17.0979C48.5505 16.9505 48.2292 16.7275 47.9662 16.4442C47.6717 16.1246 47.441 15.7517 47.2866 15.3455C46.9209 14.3405 46.9209 13.2389 47.2866 12.2339C47.411 11.8137 47.6353 11.43 47.9403 11.1154Z" fill="#FF6300"/>
<path d="M72.0512 12.2643V21.1283C72.0478 21.1676 72.0307 21.2044 72.0028 21.2322C71.9749 21.2601 71.9381 21.2773 71.8989 21.2807H68.0314C67.9923 21.277 67.9556 21.2597 67.9278 21.2319C67.9 21.2041 67.8828 21.1675 67.8791 21.1283V12.9698C67.8968 12.6011 67.8619 12.2316 67.7754 11.8727C67.6678 11.5493 67.4892 11.2541 67.2528 11.0087C67.163 10.9232 67.0667 10.8447 66.9648 10.774C66.625 10.5378 65.9972 10.4342 65.604 10.4342C65.2444 10.435 64.8906 10.5244 64.5738 10.6945C64.257 10.8646 63.9869 11.1102 63.7876 11.4095C63.6385 11.6477 63.5409 11.9145 63.5011 12.1927C63.4569 12.4169 63.439 12.6455 63.4478 12.8738V21.1359C63.4444 21.1752 63.4272 21.212 63.3994 21.2399C63.3715 21.2677 63.3347 21.2849 63.2954 21.2883H59.4219C59.3827 21.2849 59.3459 21.2677 59.318 21.2399C59.2901 21.212 59.273 21.1752 59.2695 21.1359V6.81213C59.273 6.77287 59.2901 6.73607 59.318 6.70821C59.3459 6.68034 59.3827 6.66318 59.4219 6.65975H63.2909C63.3313 6.65975 63.37 6.6758 63.3986 6.70438C63.4272 6.73296 63.4432 6.77172 63.4432 6.81213V7.54508C63.4415 7.55915 63.4429 7.57344 63.4473 7.58689C63.4518 7.60035 63.4593 7.61262 63.4692 7.6228C63.4737 7.62909 63.4796 7.63421 63.4865 7.63775C63.4934 7.64129 63.501 7.64313 63.5088 7.64313C63.5165 7.64313 63.5241 7.64129 63.531 7.63775C63.5379 7.63421 63.5439 7.62909 63.5484 7.6228C63.7803 7.43995 64.0368 7.29068 64.3103 7.17937C65.061 6.84538 65.8707 6.66408 66.6921 6.64603C67.5136 6.62798 68.3304 6.77353 69.0951 7.07423C69.7463 7.35241 70.3212 7.78304 70.7712 8.32984C71.2191 8.85509 71.5491 9.47034 71.7389 10.134C71.9454 10.8253 72.0506 11.5429 72.0512 12.2643Z" fill="#FF6300"/>
<path d="M40.7708 6.64272H38.4637C38.4247 6.63872 38.3882 6.62138 38.3605 6.59362C38.3327 6.56586 38.3154 6.52939 38.3114 6.49034V0.785193C38.3079 0.745933 38.2908 0.709137 38.2629 0.68127C38.235 0.653402 38.1982 0.636245 38.159 0.632812H34.287C34.2477 0.636245 34.2109 0.653402 34.1831 0.68127C34.1552 0.709137 34.138 0.745933 34.1346 0.785193V6.22824C34.1306 6.26729 34.1133 6.30377 34.0855 6.33152C34.0577 6.35928 34.0213 6.37662 33.9822 6.38062H32.7266C32.6873 6.38406 32.6505 6.40121 32.6227 6.42908C32.5948 6.45695 32.5777 6.49374 32.5742 6.533V10.1414C32.5742 10.1818 32.5903 10.2206 32.6188 10.2491C32.6474 10.2777 32.6862 10.2938 32.7266 10.2938H33.9822C34.0214 10.2975 34.058 10.3147 34.0858 10.3425C34.1136 10.3704 34.1309 10.407 34.1346 10.4461V15.2842C34.1346 18.5254 36.7251 21.1677 39.9388 21.1677C40.2268 21.1677 40.5148 21.1402 40.8013 21.1143C40.8369 21.107 40.869 21.088 40.8928 21.0605C40.9165 21.0329 40.9304 20.9983 40.9323 20.962V16.997C40.9286 16.9578 40.9113 16.9212 40.8835 16.8934C40.8557 16.8656 40.8191 16.8483 40.7799 16.8446H39.8656C39.4865 16.855 39.1172 16.7237 38.8298 16.4763C38.5423 16.2289 38.3575 15.8832 38.3114 15.5067V10.722C38.3114 10.6815 38.3274 10.6428 38.356 10.6142C38.3846 10.5856 38.4233 10.5696 38.4637 10.5696H40.7647C40.8038 10.5659 40.8405 10.5486 40.8683 10.5208C40.8961 10.493 40.9134 10.4563 40.9171 10.4172V6.82557C40.9197 6.78142 40.9054 6.73792 40.8771 6.70395C40.8488 6.66997 40.8086 6.64807 40.7647 6.64272H40.7708Z" fill="#FF6300"/>
<path d="M28.1716 8.05677C28.1063 8.00037 28.0365 7.9494 27.9629 7.90439C27.2137 7.35751 26.3632 6.96502 25.461 6.74972C24.5587 6.53443 23.6227 6.50063 22.7073 6.6503H22.6021C21.0354 6.82894 19.5773 7.53944 18.4711 8.66325C17.8131 9.33357 17.2892 10.1233 16.9274 10.9901C16.1961 12.8741 16.1961 14.9636 16.9274 16.8476C17.2719 17.7188 17.7904 18.5105 18.4513 19.1745C19.1163 19.8326 19.905 20.3526 20.772 20.7044C21.5955 21.0415 22.473 21.2274 23.3625 21.253C23.5713 21.253 23.78 21.2789 24.0162 21.2789H24.4855C25.5792 21.2002 26.6397 20.8688 27.5836 20.3109C28.5276 19.753 29.3292 18.9838 29.9255 18.0636C29.946 18.0326 29.9552 17.9955 29.9514 17.9585C29.9514 17.9326 29.9255 17.8792 29.8996 17.8792C29.8996 17.8533 29.8722 17.8533 29.8463 17.8533L26.3933 16.8949C26.3017 16.8594 26.2019 16.8504 26.1053 16.869C25.9949 16.897 25.8891 16.9412 25.7914 17L25.7655 17.0259C25.3517 17.2942 24.881 17.4623 24.3908 17.5168C23.9007 17.5713 23.4046 17.5107 22.9419 17.3398C22.916 17.3398 22.916 17.3139 22.8901 17.3139C22.4615 17.1462 22.0752 16.8857 21.7591 16.5511C21.443 16.2165 21.2047 15.8161 21.0615 15.3787V15.301C21.089 15.2735 21.089 15.2735 21.1149 15.2735H30.1876C30.241 15.2735 30.3187 15.2476 30.3187 15.1699C30.7356 13.7488 30.6621 12.2287 30.1099 10.8545C29.7123 9.77223 29.0452 8.8093 28.1716 8.05677ZM26.2623 11.8663H21.0813C21.1049 11.7832 21.1397 11.7037 21.185 11.6301L21.2109 11.5783C21.316 11.4472 21.4212 11.2903 21.5248 11.1852C21.7817 10.9013 22.1054 10.6861 22.4665 10.5589C23.2248 10.2709 24.0624 10.2709 24.8208 10.5589C25.3904 10.7898 25.8744 11.1918 26.2059 11.7093C26.2129 11.7652 26.2321 11.8188 26.2623 11.8663Z" fill="#FF6300"/>
</g>
<defs>
<clipPath id="clip0_5_9281">
<rect width="72" height="21.12" fill="white" transform="translate(0.5 0.238281)"/>
</clipPath>
</defs>
</svg>
