<svg width="73" height="42" viewBox="0 0 73 42" fill="none" xmlns="http://www.w3.org/2000/svg">
<path d="M31.2806 11.3917C31.5299 11.2784 31.7906 11.1877 32.0399 11.1424C32.5046 8.92105 34.4879 7.24372 36.8453 7.24372C39.2139 7.24372 41.1859 8.90972 41.6506 11.1424C42.3873 11.2784 42.9879 11.5617 43.4413 12.0037C43.4526 11.5844 43.4413 11.1651 43.3959 10.7684C43.1013 7.40238 40.2793 4.76172 36.8339 4.76172C33.2866 4.76172 30.4079 7.57239 30.2606 11.0744C30.2493 11.3804 30.2266 11.6864 30.2493 12.0264C30.5326 11.7884 30.8613 11.5731 31.2806 11.3917Z" fill="#E3001B"/>
<path d="M40.6773 11.8906H32.778C32.3927 11.8906 32.0073 11.9813 31.6107 12.1513C31.214 12.3326 30.8967 12.5366 30.6473 12.786C30.16 13.3753 29.8993 14.2366 29.888 15.37V21.5353C29.8993 22.6573 30.1487 23.53 30.6473 24.1193C30.908 24.3686 31.214 24.5726 31.6107 24.754C32.0187 24.9353 32.4153 25.0146 32.778 25.0146H40.6773C42.7173 25.0033 43.7487 23.87 43.7827 21.66V15.2453C43.76 13.0126 42.7173 11.902 40.6773 11.8906Z" fill="#E3001B"/>
<path d="M10.4279 30.8035C10.4279 30.5655 10.3032 30.4408 10.0879 30.4408H8.92052C8.64852 30.4521 8.50119 30.6108 8.48985 30.8941V32.9795C8.48985 33.2741 8.64852 33.4215 8.95452 33.4328H10.0199C10.1219 33.4328 10.2239 33.3875 10.2919 33.3081C10.3712 33.2515 10.4052 33.1608 10.4052 33.0588L10.4279 30.8035ZM7.00519 30.5088C7.00519 29.9875 7.12985 29.5908 7.35652 29.3188C7.46985 29.2055 7.61719 29.1148 7.79852 29.0241C7.99119 28.9448 8.16119 28.8995 8.34252 28.8995H10.4732C11.4139 28.8995 11.8899 29.4208 11.9125 30.4408V33.5915C11.9125 33.9541 11.7652 34.2715 11.4819 34.5321C11.2099 34.8041 10.8812 34.9515 10.5072 34.9628H8.50119V37.2295H7.00519V30.5088ZM14.6099 33.1268C14.6099 33.2175 14.6552 33.2855 14.7345 33.3308C14.8025 33.3875 14.8932 33.4215 15.0065 33.4215H16.1512C16.4119 33.4215 16.5479 33.3195 16.5479 33.1155V32.6848C16.5479 32.4468 16.4119 32.3335 16.1399 32.3335H15.0065C14.8592 32.3335 14.7572 32.3561 14.7005 32.4128C14.6439 32.4695 14.6212 32.5715 14.6212 32.7415L14.6099 33.1268ZM16.5592 30.7581C16.5592 30.5315 16.4345 30.4181 16.1625 30.4295H13.1592V28.8995H16.5479C17.5339 28.9108 18.0325 29.3981 18.0552 30.3388V33.5461C18.0552 33.9541 17.9192 34.2828 17.6812 34.5548C17.4319 34.8268 17.1032 34.9628 16.7065 34.9628H14.6552C13.6579 34.9628 13.1479 34.4981 13.1365 33.5915V32.3561C13.1365 31.4041 13.6239 30.9281 14.5872 30.9168H16.5705L16.5592 30.7581ZM22.2259 35.6995C22.3392 35.6995 22.4525 35.6541 22.5319 35.5748C22.6112 35.4955 22.6565 35.4161 22.6565 35.3255V34.9628H20.7525C20.5032 34.9628 20.3105 34.9288 20.1519 34.8721C19.9932 34.8155 19.8459 34.7135 19.6759 34.5548C19.5285 34.3961 19.4152 34.2261 19.3472 34.0448C19.2792 33.8861 19.2452 33.6821 19.2452 33.4328V28.9108H20.7412V32.9568C20.7412 33.2855 20.8772 33.4441 21.1379 33.4441H22.1919C22.3165 33.4441 22.4299 33.3988 22.5205 33.3195C22.6112 33.2401 22.6452 33.1608 22.6452 33.0588V28.9108H24.1299V35.5861C24.1299 36.0848 23.9939 36.4815 23.7559 36.7761C23.5065 37.0708 23.1665 37.2295 22.7359 37.2408H19.2565V35.6995H22.2259ZM25.3085 33.4328H27.9719C28.2212 33.4328 28.3459 33.3308 28.3459 33.1381V33.0021C28.3459 32.9568 28.3345 32.9228 28.3119 32.8775C28.2552 32.7641 28.1759 32.7075 28.0965 32.7075H26.7705C26.3739 32.7075 26.0452 32.5601 25.7619 32.2995C25.4785 32.0501 25.3312 31.7668 25.3199 31.4155V30.2708C25.3312 29.3755 25.8185 28.9221 26.7705 28.9108H29.8532V30.4521H27.2465C26.9405 30.4521 26.7819 30.5428 26.7819 30.7355V30.8828C26.7819 31.0755 26.9405 31.1775 27.2579 31.1775H28.5725C28.9239 31.1775 29.2185 31.3248 29.4679 31.5855C29.7172 31.8461 29.8419 32.1635 29.8645 32.5261V33.6481C29.8645 33.9541 29.7059 34.2715 29.4339 34.5888C29.2979 34.7475 29.1619 34.8495 29.0259 34.9061C28.8785 34.9628 28.6859 34.9855 28.4365 34.9855H25.3199L25.3085 33.4328ZM32.4259 33.1268C32.4259 33.2175 32.4712 33.2855 32.5505 33.3308C32.6185 33.3875 32.7092 33.4215 32.8225 33.4215H33.9672C34.2279 33.4215 34.3639 33.3195 34.3639 33.1155V32.6848C34.3639 32.4468 34.2279 32.3335 33.9559 32.3335H32.8225C32.6752 32.3335 32.5732 32.3561 32.5165 32.4128C32.4599 32.4695 32.4372 32.5715 32.4372 32.7415L32.4259 33.1268ZM34.3639 30.7581C34.3639 30.5315 34.2392 30.4181 33.9559 30.4295H30.9525V28.8995H34.3412C35.3272 28.9108 35.8259 29.3981 35.8485 30.3388V33.5461C35.8485 33.9541 35.7125 34.2828 35.4745 34.5548C35.2252 34.8268 34.8965 34.9628 34.4999 34.9628H32.4485C31.4512 34.9628 30.9412 34.4981 30.9299 33.5915V32.3561C30.9299 31.4041 31.4172 30.9281 32.3805 30.9168H34.3639V30.7581ZM37.0612 28.0268C37.0612 27.6188 37.2199 27.2788 37.5259 27.0295C37.8205 26.7801 38.1945 26.6441 38.6705 26.6328H39.6225V28.1175H39.0445C38.7272 28.1175 38.5685 28.2761 38.5685 28.5708V28.8995H39.6225V30.4408H38.5685V34.9741H37.0725V28.0268M43.8499 30.7355V30.7015C43.8499 30.6221 43.8159 30.5541 43.7592 30.5088C43.6912 30.4635 43.6005 30.4295 43.4985 30.4295H42.4559C42.3199 30.4295 42.2065 30.4748 42.1272 30.5428C42.0252 30.6108 41.9685 30.7015 41.9685 30.8148V31.4268L43.8499 30.7355ZM42.0025 32.9115V33.0021C42.0025 33.1268 42.0365 33.2288 42.0932 33.2968C42.1385 33.3875 42.1952 33.4328 42.2859 33.4328H45.3572V34.9741H42.0932C41.7985 34.9741 41.5719 34.9515 41.4019 34.8948C41.2319 34.8381 41.0619 34.7361 40.9259 34.6001C40.7672 34.4415 40.6539 34.2715 40.5972 34.1015C40.5405 33.9315 40.5065 33.6935 40.5065 33.3988L40.4952 30.3275C40.5065 29.3981 40.9939 28.9221 41.9459 28.9108H43.9632C44.8925 28.9221 45.3685 29.4208 45.3799 30.3841V31.5968L42.0025 32.9115ZM48.5419 34.9628C48.3152 34.9628 48.1112 34.9401 47.9185 34.9061C47.7259 34.8721 47.5219 34.7815 47.3292 34.6341C47.1252 34.4641 46.9779 34.2601 46.8985 34.0335C46.8192 33.8181 46.7739 33.5688 46.7739 33.2968V30.4295C46.7739 30.2028 46.7852 29.9875 46.8419 29.8175C46.8872 29.6475 47.0005 29.4661 47.1592 29.2961C47.3405 29.1261 47.5219 29.0015 47.7259 28.9335C47.9185 28.8881 48.1225 28.8541 48.3605 28.8541H50.6499V29.2168H48.4172C48.0205 29.2168 47.7145 29.2961 47.4879 29.4661C47.2612 29.6361 47.1365 29.9421 47.1365 30.3841V33.2515C47.1365 33.4555 47.1705 33.6481 47.2272 33.8408C47.2839 34.0221 47.3972 34.1921 47.5445 34.3395C47.7032 34.4641 47.8732 34.5435 48.0205 34.5661C48.1792 34.6001 48.3605 34.6228 48.5419 34.6228H50.6725V34.9855L48.5419 34.9628ZM56.5432 31.2455H53.5399C53.1772 31.2455 52.8939 31.3701 52.6899 31.5741C52.4859 31.7895 52.3839 32.0955 52.3839 32.4695V33.3875C52.3839 33.5575 52.4065 33.7275 52.4405 33.8748C52.4859 34.0335 52.5652 34.1695 52.7125 34.2828C52.9732 34.4981 53.2565 34.6001 53.5739 34.6001H55.3985C56.1579 34.6001 56.5432 34.1921 56.5432 33.3988V31.2455ZM56.8945 33.3081C56.8945 33.5348 56.8719 33.7388 56.8492 33.9201C56.8039 34.1128 56.7019 34.2941 56.5545 34.4755C56.2485 34.8041 55.8519 34.9741 55.3872 34.9515H53.5965C53.1319 34.9515 52.7579 34.8155 52.4632 34.5435C52.1685 34.2715 52.0212 33.8975 52.0212 33.4101V32.4921C52.0325 31.4495 52.5539 30.9168 53.5739 30.8941H56.5432V30.4861C56.5432 30.1575 56.4525 29.8628 56.2485 29.6135C56.1239 29.4548 55.9879 29.3415 55.8179 29.2848C55.6592 29.2395 55.4665 29.2168 55.2625 29.2168H52.0212V28.8541H55.0925C55.3759 28.8541 55.6252 28.8768 55.8632 28.9108C55.9765 28.9335 56.0899 28.9788 56.1919 29.0468C56.2939 29.1035 56.3959 29.2055 56.4865 29.3188C56.7585 29.6815 56.8945 30.0895 56.8945 30.5428V33.3081ZM60.2492 29.2168C59.4219 29.2281 59.0025 29.6815 59.0252 30.5768V34.9515H58.6625V30.5768C58.6399 29.4321 59.1839 28.8541 60.3059 28.8541H60.7025V29.2168H60.2492ZM66.3012 29.2168H63.4679C63.2639 29.2168 63.0825 29.2395 62.9239 29.2848C62.7539 29.3301 62.5839 29.4321 62.4252 29.5908C62.2779 29.7495 62.1759 29.8968 62.1419 30.0555C62.0852 30.2141 62.0625 30.3955 62.0739 30.6108V33.4101C62.0739 33.8748 62.2099 34.1921 62.4819 34.3621C62.6179 34.4415 62.7652 34.4981 62.9239 34.5321C63.0825 34.5661 63.2752 34.6001 63.4679 34.6001H64.7032C65.1679 34.6001 65.5419 34.4981 65.8365 34.2828C66.1312 34.0788 66.2785 33.7388 66.2899 33.2401L66.3012 29.2168ZM66.6525 33.2628C66.6185 34.4188 66.0065 34.9855 64.8165 34.9628H63.4905C63.2185 34.9628 62.9692 34.9401 62.7425 34.8948C62.5159 34.8381 62.3005 34.7021 62.0852 34.4868C61.9265 34.2941 61.8245 34.0901 61.7905 33.8861C61.7339 33.6821 61.7112 33.4555 61.7225 33.2175V30.6108C61.7339 29.4435 62.3345 28.8541 63.4905 28.8655H66.3012V26.8821H66.6639L66.6525 33.2628Z" fill="#008AC9"/>
</svg>
