<svg width="81" height="27" viewBox="0 0 81 27" fill="none" xmlns="http://www.w3.org/2000/svg">
<path d="M61.9176 5.67199C61.5089 6.77455 60.7779 7.46268 59.3789 7.46268H59.371H58.6479L59.8819 4.1237H60.5814C61.8783 4.11588 62.3577 4.49122 61.9176 5.67199ZM65.6195 2.62234C64.9907 1.71526 63.7174 1.26955 61.7132 1.26955H57.0839L52.0772 15.0868H56.3372L58.1606 10.223C58.2471 10.4263 59.3239 15.0868 59.3239 15.0868H63.796C63.796 15.0868 62.9865 11.6618 62.3813 10.2777C62.2241 9.92585 62.0669 9.51923 61.8547 9.19081C63.1201 8.72163 64.9436 7.70508 65.706 5.65635C66.1697 4.38957 66.1382 3.3652 65.6195 2.62234ZM22.8941 1.25391H15.0108C13.769 1.25391 12.5586 1.25391 11.4818 1.80128C10.3972 2.35647 9.44615 3.45904 8.70734 5.66417C8.55015 6.14116 8.46369 6.54778 8.45583 6.89966C8.44797 7.25937 8.50299 7.55651 8.6366 7.82238C8.80166 8.14298 9.06889 8.44795 9.40686 8.69817C9.74482 8.9484 10.1457 9.15953 10.578 9.29247C10.5937 9.30029 10.8216 9.36284 11.0967 9.44104C11.3639 9.51923 11.6312 9.59743 11.8984 9.67563C12.0163 9.71472 12.1499 9.76164 12.2678 9.83202C12.3857 9.90239 12.4957 9.99623 12.5586 10.1292C12.6058 10.2152 12.6293 10.3168 12.6293 10.4185C12.6293 10.5201 12.6136 10.6296 12.5743 10.7469C12.4721 11.0441 12.3228 11.2395 12.032 11.3568C11.7412 11.4741 11.3089 11.5132 10.6644 11.5211H2.55319L1.27206 15.0633H9.95704C10.7744 15.0633 12.2678 15.0633 13.7061 14.4534C15.1444 13.8435 16.5199 12.6158 17.1015 10.1604C17.3216 9.23773 17.2508 8.48704 16.8972 7.90057C16.5356 7.3141 15.8833 6.88402 14.9401 6.61034C14.9401 6.61034 14.7279 6.54778 14.4764 6.47741C14.2249 6.40703 13.9419 6.32101 13.7926 6.28192C13.5489 6.21154 13.3603 6.07079 13.2503 5.89094C13.1402 5.71108 13.1088 5.49213 13.1717 5.27318C13.2345 5.0386 13.3917 4.85875 13.6197 4.73363C13.8476 4.60852 14.1463 4.53814 14.4999 4.53814H19.5459C19.5773 4.4834 19.6166 4.42867 19.6481 4.38175C20.5519 3.06806 21.668 2.00459 22.8941 1.25391Z" fill="#EE7F00"/>
<path d="M26.5989 8.10406C25.4199 11.3414 24.5632 12.1624 23.2821 12.1624C22.0245 12.1624 21.5844 11.3648 22.7633 8.13534C23.6358 5.7269 24.7754 4.18644 26.1509 4.18644C27.4477 4.18644 27.7464 4.94494 26.5989 8.10406ZM30.6388 2.55214C29.955 1.56687 28.776 1.05859 27.1412 1.05859C26.0723 1.05859 25.0348 1.30882 24.0602 1.77018C22.669 2.43485 21.4036 3.53741 20.374 5.0075C19.7059 5.96149 19.1321 7.06405 18.6841 8.29955C17.8353 10.6298 17.851 12.5221 18.7156 13.7655C19.2029 14.4692 20.2246 15.3137 22.2996 15.3137H22.3075C26.088 15.3137 28.9018 12.8271 30.6938 7.91639C31.1575 6.61052 31.7784 4.18644 30.6388 2.55214ZM45.7373 1.25408H37.6968C35.4489 1.25408 33.7826 2.39575 32.9888 4.5305L29.169 15.0635H33.3504L35.3074 9.64453H39.0015L40.0547 6.74345H36.3685L36.958 5.06223C37.0837 4.76509 37.3745 4.52268 37.8068 4.52268C38.0505 4.52268 40.7621 4.52268 42.1611 4.52268C42.2004 4.46794 42.2318 4.41321 42.2633 4.35847C43.2064 3.06823 44.5112 2.00477 45.7373 1.25408ZM49.392 8.10406C48.2131 11.3414 47.3564 12.1624 46.0752 12.1624C44.8177 12.1624 44.3854 11.3648 45.5565 8.13534C46.4289 5.7269 47.5686 4.18644 48.9362 4.18644C50.2409 4.18644 50.5395 4.94494 49.392 8.10406ZM53.4319 2.55214C52.7403 1.56687 51.5692 1.05859 49.9343 1.05859C48.8654 1.05859 47.8279 1.30882 46.8533 1.77018C45.4622 2.43485 44.1968 3.53741 43.1671 5.0075C42.4991 5.96149 41.9253 7.06405 41.4773 8.29955C40.6285 10.6298 40.6442 12.5221 41.5087 13.7655C41.996 14.4692 43.0178 15.3137 45.0928 15.3137H45.1006C48.8811 15.3137 51.7028 12.8271 53.4869 7.91639C53.9507 6.61052 54.5716 4.18644 53.4319 2.55214Z" fill="#EE7F00"/>
<path d="M65.8191 1.25781C66.0863 1.46894 66.3221 1.71917 66.5107 1.99286C67.0059 2.71226 67.1945 3.55678 67.0845 4.53423H69.6153L65.7955 15.0751H69.6075L73.4273 4.54205H78.3239L79.5107 1.25781H65.8191Z" fill="#EE7F00"/>
<path d="M8.15784 17.1803C8.07138 17.4305 7.95349 17.6025 7.81987 17.6964C7.68626 17.798 7.4819 17.8449 7.21467 17.8449C6.94744 17.8449 6.77453 17.798 6.71951 17.7042C6.6645 17.6104 6.67236 17.4383 6.75881 17.2037C6.85313 16.9535 6.96316 16.7815 7.09678 16.6798C7.23039 16.586 7.42689 16.5312 7.70198 16.5312C7.96921 16.5312 8.14212 16.5782 8.19714 16.672C8.26002 16.7658 8.2443 16.9379 8.15784 17.1803ZM5.85495 17.1803C5.76849 17.4305 5.65845 17.6025 5.52484 17.6964C5.39122 17.798 5.19473 17.8449 4.91964 17.8449C4.64455 17.8449 4.4795 17.798 4.42448 17.7042C4.3616 17.6104 4.37732 17.4383 4.46378 17.2037C4.55809 16.9535 4.66813 16.7815 4.80174 16.6798C4.93536 16.586 5.13971 16.5312 5.40694 16.5312C5.68203 16.5312 5.84708 16.5782 5.90996 16.672C5.95712 16.7658 5.9414 16.9379 5.85495 17.1803ZM7.08892 22.7557C6.93958 23.1779 6.73523 23.5533 6.49158 23.8817C6.24793 24.2179 5.96498 24.4916 5.64273 24.7262C5.32048 24.953 4.95894 25.1328 4.56595 25.2501C4.17297 25.3674 3.74854 25.43 3.28482 25.43C2.85254 25.43 2.49099 25.3752 2.18446 25.2658C1.88579 25.1563 1.65 24.9921 1.49281 24.7731C1.33561 24.5542 1.25702 24.2805 1.24916 23.9521C1.2413 23.6236 1.31989 23.2405 1.47709 22.8026L2.98615 18.6269C3.00187 18.5878 3.01759 18.5565 3.04903 18.5331C3.08047 18.5018 3.12762 18.4783 3.1905 18.4627C3.25338 18.4471 3.32412 18.4314 3.41844 18.4236C3.51275 18.4158 3.62279 18.408 3.76426 18.408C3.89788 18.408 4.00791 18.4158 4.09437 18.4236C4.18083 18.4314 4.2437 18.4471 4.29086 18.4627C4.33802 18.4783 4.36946 18.5018 4.37732 18.5331C4.39304 18.5643 4.39304 18.5956 4.37732 18.6269L2.90755 22.6775C2.80538 22.9511 2.75822 23.1857 2.75036 23.389C2.7425 23.5924 2.7818 23.7566 2.8604 23.8817C2.93899 24.0146 3.04903 24.1084 3.19836 24.1788C3.3477 24.2414 3.52847 24.2805 3.74854 24.2805C3.96861 24.2805 4.17297 24.2492 4.36946 24.1788C4.56595 24.1084 4.75459 24.0146 4.91178 23.8817C5.07683 23.7566 5.22617 23.5924 5.35978 23.4047C5.4934 23.217 5.60343 22.9981 5.68989 22.7635L7.18324 18.6347C7.19896 18.5956 7.21467 18.5643 7.24611 18.5409C7.27755 18.5096 7.32471 18.4862 7.37973 18.4705C7.44261 18.4549 7.51334 18.4392 7.60766 18.4314C7.70198 18.4236 7.81201 18.4158 7.94563 18.4158C8.07924 18.4158 8.18928 18.4236 8.26788 18.4314C8.34647 18.4392 8.41721 18.4549 8.45651 18.4705C8.50367 18.4862 8.53511 18.5096 8.54296 18.5409C8.55082 18.5722 8.55082 18.6034 8.54296 18.6347L7.08892 22.7557ZM13.0623 20.3707C13.1095 20.2299 13.133 20.1126 13.133 20.0032C13.133 19.8937 13.1016 19.7998 13.0387 19.7295C12.9837 19.6591 12.8972 19.6044 12.7793 19.5653C12.6615 19.5262 12.5043 19.5105 12.2842 19.5105H11.5847L10.9402 21.2934H11.7183C11.9226 21.2934 12.0877 21.2699 12.2213 21.223C12.3549 21.1761 12.4807 21.1135 12.5907 21.0275C12.7008 20.9415 12.7951 20.8477 12.8737 20.7382C12.9601 20.6131 13.023 20.4958 13.0623 20.3707ZM12.3549 23.303C12.4099 23.1466 12.4414 23.0059 12.4257 22.873C12.4178 22.7478 12.3785 22.6462 12.3078 22.5602C12.237 22.4742 12.127 22.4116 11.9855 22.3647C11.844 22.3178 11.6476 22.2943 11.396 22.2943H10.5708L9.8634 24.2414H10.8616C11.0581 24.2414 11.2231 24.2257 11.3725 24.1788C11.5139 24.1397 11.6554 24.0772 11.7812 23.999C11.9069 23.9208 12.017 23.8191 12.1191 23.7018C12.2213 23.5924 12.2999 23.4594 12.3549 23.303ZM13.809 23.2561C13.7225 23.4985 13.6046 23.7175 13.471 23.9208C13.3295 24.1163 13.1802 24.2961 13.0073 24.4447C12.8344 24.5933 12.6457 24.7262 12.4414 24.8357C12.237 24.9451 12.0248 25.039 11.8047 25.1094C11.5768 25.1797 11.3489 25.2345 11.121 25.2658C10.8852 25.297 10.6336 25.3127 10.3586 25.3127H8.54296C8.42507 25.3127 8.33861 25.2814 8.2836 25.211C8.22858 25.1406 8.22858 25.0312 8.2836 24.8748L10.4529 18.8928C10.5079 18.7364 10.5865 18.6269 10.6965 18.5565C10.7987 18.4862 10.9087 18.4549 11.0266 18.4549H12.74C13.1566 18.4549 13.5024 18.4862 13.7618 18.5643C14.029 18.6347 14.2334 18.7442 14.3827 18.885C14.5321 19.0257 14.6185 19.2056 14.6421 19.4245C14.6657 19.6435 14.6264 19.9015 14.5242 20.1986C14.4613 20.3629 14.3827 20.5193 14.2884 20.6678C14.1941 20.8164 14.0841 20.9493 13.9583 21.0666C13.8325 21.1839 13.6911 21.2934 13.5417 21.3872C13.3924 21.4811 13.2274 21.5514 13.0544 21.6062C13.2352 21.6453 13.3924 21.7 13.526 21.7938C13.6596 21.8799 13.7618 21.9972 13.8326 22.1379C13.9033 22.2787 13.9426 22.4429 13.9426 22.6305C13.9347 22.8104 13.8954 23.0215 13.809 23.2561ZM18.9178 24.7653C18.8785 24.867 18.847 24.953 18.8077 25.0233C18.7763 25.0937 18.7449 25.1485 18.7056 25.1876C18.6741 25.2345 18.6427 25.2579 18.6034 25.2814C18.572 25.3049 18.5405 25.3127 18.5091 25.3127H15.0822C14.9643 25.3127 14.8857 25.2814 14.8307 25.211C14.7757 25.1406 14.7757 25.0312 14.8307 24.8748L17 18.8928C17.055 18.7364 17.1336 18.6269 17.2437 18.5565C17.3458 18.4862 17.4559 18.4549 17.5738 18.4549H20.9849C21.0163 18.4549 21.0399 18.4627 21.0556 18.4783C21.0713 18.494 21.0871 18.5253 21.0871 18.5722C21.0871 18.6191 21.0792 18.6738 21.0635 18.7442C21.0478 18.8146 21.0163 18.9006 20.9849 19.0101C20.9456 19.1117 20.9141 19.1899 20.8827 19.2603C20.8513 19.3307 20.8198 19.3854 20.7805 19.4245C20.7491 19.4636 20.7177 19.4949 20.6862 19.5183C20.6548 19.534 20.6233 19.5496 20.5919 19.5496H18.1554L17.5502 21.223H19.6094C19.6409 21.223 19.6645 21.2308 19.688 21.2543C19.7038 21.2778 19.7195 21.3012 19.7195 21.3481C19.7195 21.3872 19.7116 21.442 19.6959 21.5123C19.6802 21.5827 19.6566 21.6609 19.6173 21.7626C19.578 21.8642 19.5466 21.9502 19.5073 22.0206C19.4758 22.091 19.4444 22.1457 19.4129 22.1848C19.3815 22.2239 19.3501 22.2552 19.3186 22.2708C19.2872 22.2865 19.2557 22.2943 19.2243 22.2943H17.1651L16.4656 24.2257H18.9256C18.9571 24.2257 18.9807 24.2336 19.0042 24.257C19.02 24.2727 19.0357 24.3039 19.0357 24.3509C19.0357 24.39 19.0278 24.4525 19.0121 24.5151C18.9807 24.5776 18.9492 24.6636 18.9178 24.7653ZM25.4256 20.4802C25.5042 20.2534 25.5278 20.0657 25.4806 19.9093C25.4335 19.7529 25.3077 19.6435 25.0955 19.5809C25.0326 19.5653 24.954 19.5496 24.8676 19.5418C24.7811 19.534 24.6632 19.5262 24.4982 19.5262H23.8773L23.1699 21.4732H23.8773C24.0738 21.4732 24.2545 21.4498 24.4196 21.4029C24.5846 21.3559 24.734 21.2856 24.8597 21.1996C24.9855 21.1135 25.1034 21.0119 25.1977 20.8868C25.292 20.7617 25.3706 20.6287 25.4256 20.4802ZM25.5278 25.1328C25.5121 25.1719 25.4964 25.2032 25.4728 25.2345C25.4492 25.2579 25.4099 25.2814 25.347 25.297C25.2841 25.3127 25.2055 25.3283 25.1034 25.3361C25.0012 25.344 24.8597 25.344 24.6789 25.344C24.5296 25.344 24.4117 25.344 24.3331 25.3361C24.2467 25.3283 24.1838 25.3127 24.1366 25.297C24.0895 25.2814 24.0659 25.2501 24.058 25.2267C24.0502 25.1954 24.0423 25.1641 24.0423 25.1172L23.9873 23.5845C23.9716 23.4125 23.9559 23.2561 23.9401 23.1232C23.9166 22.9902 23.8773 22.8808 23.8301 22.7869C23.7751 22.6931 23.7043 22.6305 23.6022 22.5836C23.5079 22.5367 23.3821 22.5133 23.2406 22.5133H22.8083L21.8652 25.125C21.8495 25.1641 21.8259 25.1954 21.7944 25.2188C21.763 25.2501 21.7158 25.2736 21.653 25.2892C21.5979 25.3049 21.5193 25.3205 21.425 25.3283C21.3307 25.3361 21.2207 25.344 21.0792 25.344C20.9456 25.344 20.8356 25.3361 20.7491 25.3283C20.6626 25.3205 20.5998 25.3049 20.5526 25.2892C20.5054 25.2736 20.474 25.2501 20.4661 25.2188C20.4583 25.1876 20.4583 25.1563 20.4661 25.125L22.7219 18.8928C22.7769 18.7364 22.8555 18.6269 22.9655 18.5565C23.0677 18.4862 23.1777 18.4549 23.2956 18.4549H25.0641C25.2448 18.4549 25.3863 18.4627 25.5042 18.4627C25.6064 18.4705 25.7086 18.4783 25.8107 18.4862C26.0701 18.5253 26.2902 18.5956 26.4788 18.6895C26.6675 18.7833 26.8089 18.9084 26.9032 19.0648C26.9976 19.2212 27.0526 19.401 27.0604 19.6122C27.0683 19.8233 27.0211 20.0657 26.919 20.3394C26.8325 20.574 26.7303 20.7773 26.6046 20.965C26.4788 21.1526 26.3295 21.3247 26.1644 21.4732C25.9994 21.6218 25.8107 21.7469 25.6064 21.8642C25.402 21.9737 25.182 22.0597 24.9462 22.1301C25.0326 22.177 25.1034 22.2396 25.1663 22.3099C25.2291 22.3803 25.2841 22.4663 25.3234 22.568C25.3627 22.6696 25.402 22.7869 25.4256 22.9121C25.4492 23.045 25.4649 23.1857 25.4728 23.3499L25.5592 24.7027C25.5592 24.8357 25.5592 24.9373 25.5592 24.9999C25.5435 25.0468 25.5357 25.0937 25.5278 25.1328ZM34.1499 24.9608C34.0949 25.0468 34.0477 25.1172 33.9848 25.1641C33.9298 25.211 33.8591 25.2579 33.7805 25.2814C33.694 25.3049 33.5919 25.3283 33.474 25.3361C33.3561 25.344 33.2067 25.3518 33.026 25.3518C32.8216 25.3518 32.6644 25.344 32.5465 25.3361C32.4286 25.3283 32.3422 25.3127 32.2793 25.2814C32.2164 25.2579 32.185 25.2188 32.1693 25.1641C32.1535 25.1094 32.1535 25.0468 32.1693 24.9608L32.6487 20.6131H32.6408L30.0314 24.9608C29.9843 25.039 29.9371 25.1094 29.8821 25.1563C29.8349 25.211 29.7642 25.2501 29.6856 25.2736C29.607 25.3048 29.5048 25.3205 29.3869 25.3283C29.269 25.3361 29.1118 25.344 28.9153 25.344C28.711 25.344 28.5538 25.3361 28.4359 25.3283C28.318 25.3205 28.2315 25.3048 28.1687 25.2736C28.1058 25.2501 28.0743 25.211 28.0586 25.1563C28.0429 25.1015 28.0429 25.039 28.0508 24.953L28.6638 18.971C28.6795 18.8459 28.6953 18.7442 28.7188 18.6738C28.7424 18.6034 28.7817 18.5487 28.8367 18.5096C28.8918 18.4705 28.9782 18.4471 29.0804 18.4392C29.1826 18.4314 29.324 18.4236 29.5048 18.4236C29.6699 18.4236 29.8035 18.4236 29.8978 18.4314C29.9921 18.4392 30.0628 18.4471 30.1021 18.4705C30.1414 18.494 30.165 18.5174 30.1729 18.5565C30.1807 18.5956 30.1729 18.6425 30.1572 18.7129L29.4498 23.9677H29.4577L32.5937 18.752C32.633 18.6895 32.6723 18.6269 32.7116 18.5878C32.7509 18.5487 32.798 18.5096 32.8609 18.4862C32.9238 18.4627 33.0024 18.4471 33.1046 18.4392C33.1989 18.4314 33.3325 18.4236 33.4897 18.4236C33.6626 18.4236 33.7884 18.4236 33.8905 18.4314C33.9848 18.4392 34.0634 18.4549 34.1027 18.4783C34.1499 18.5018 34.1735 18.5331 34.1892 18.58C34.1971 18.6191 34.1971 18.6816 34.1892 18.752L33.584 23.9677H33.5919L36.6886 18.7286C36.72 18.6738 36.7515 18.6269 36.7829 18.58C36.8143 18.5409 36.8615 18.5096 36.9165 18.4862C36.9715 18.4627 37.0501 18.4471 37.1444 18.4392C37.2388 18.4314 37.3645 18.4236 37.5374 18.4236C37.6946 18.4236 37.8125 18.4314 37.8911 18.4392C37.9697 18.4471 38.0247 18.4705 38.0562 18.5096C38.0798 18.5487 38.0719 18.6034 38.0405 18.6816C38.009 18.7598 37.954 18.8615 37.8754 18.9944L34.1499 24.9608ZM41.3022 24.7653C41.2708 24.8513 41.2394 24.9373 41.2001 25.0233C41.1686 25.0937 41.1293 25.1485 41.0979 25.1876C41.0664 25.2345 41.035 25.2579 40.9957 25.2814C40.9643 25.3049 40.9328 25.3127 40.9014 25.3127H37.4746C37.3567 25.3127 37.2702 25.2814 37.223 25.211C37.168 25.1406 37.168 25.0312 37.223 24.8748L39.3923 18.8928C39.4473 18.7364 39.5259 18.6269 39.636 18.5565C39.7382 18.4862 39.8482 18.4549 39.9661 18.4549H43.3693C43.4008 18.4549 43.4244 18.4627 43.4401 18.4783C43.4558 18.494 43.4715 18.5253 43.4715 18.5722C43.4715 18.6191 43.4636 18.6738 43.4479 18.7442C43.4322 18.8146 43.4086 18.9006 43.3693 19.0101C43.3379 19.0961 43.3065 19.1821 43.2672 19.2603C43.2357 19.3307 43.2043 19.3854 43.165 19.4245C43.1335 19.4636 43.1021 19.4949 43.0707 19.5183C43.0392 19.534 43.0078 19.5496 42.9763 19.5496H40.5398L39.9346 21.223H41.9939C42.0253 21.223 42.0489 21.2308 42.0725 21.2543C42.0882 21.2778 42.1039 21.3012 42.1039 21.3481C42.1039 21.3872 42.1039 21.442 42.0803 21.5123C42.0646 21.5827 42.041 21.6609 42.0017 21.7626C41.9624 21.8642 41.931 21.9502 41.8996 22.0206C41.8681 22.091 41.8367 22.1457 41.8053 22.1848C41.7738 22.2239 41.7424 22.2552 41.7109 22.2708C41.6795 22.2865 41.6481 22.2943 41.6166 22.2943H39.5417L38.8421 24.2257H41.3022C41.3337 24.2257 41.3573 24.2336 41.3808 24.257C41.3965 24.2727 41.4123 24.3039 41.4123 24.3509C41.4123 24.39 41.4044 24.4525 41.3887 24.5151C41.373 24.5776 41.3415 24.6636 41.3022 24.7653ZM44.2496 25.125C44.2339 25.1641 44.2182 25.1954 44.1789 25.2188C44.1474 25.2501 44.1003 25.2658 44.0374 25.2892C43.9745 25.3049 43.9038 25.3205 43.8095 25.3361C43.7152 25.344 43.6051 25.3518 43.4637 25.3518C43.33 25.3518 43.22 25.344 43.1335 25.3361C43.0471 25.3283 42.9842 25.3127 42.937 25.2892C42.8899 25.2736 42.8585 25.2501 42.8506 25.2188C42.8349 25.1876 42.8349 25.1563 42.8506 25.125L45.1928 18.6504C45.2085 18.6191 45.2321 18.58 45.2635 18.5565C45.295 18.5253 45.3421 18.5018 45.405 18.4862C45.4679 18.4705 45.5386 18.4549 45.6329 18.4392C45.7273 18.4314 45.8373 18.4236 45.9709 18.4236C46.1045 18.4236 46.2146 18.4314 46.301 18.4392C46.3875 18.4471 46.4503 18.4627 46.4975 18.4862C46.5447 18.5018 46.5761 18.5253 46.584 18.5565C46.5997 18.5878 46.5997 18.6191 46.584 18.6504L44.2496 25.125ZM51.0011 23.2561C50.8675 23.6158 50.6867 23.9364 50.4588 24.2023C50.223 24.476 49.9636 24.7027 49.665 24.8826C49.3742 25.0624 49.0519 25.2032 48.7139 25.297C48.376 25.3909 48.0301 25.4378 47.6843 25.4378C47.4485 25.4378 47.2363 25.4143 47.0477 25.383C46.8591 25.344 46.694 25.297 46.5604 25.2423C46.4268 25.1876 46.3167 25.1328 46.2381 25.0703C46.1595 25.0077 46.0967 24.9608 46.0731 24.9139C46.0416 24.867 46.0338 24.8044 46.0495 24.7184C46.0574 24.6324 46.0967 24.5073 46.1595 24.343C46.1988 24.2336 46.2381 24.1397 46.2696 24.0694C46.301 23.9912 46.3403 23.9364 46.3717 23.8895C46.4032 23.8426 46.4346 23.8113 46.4739 23.7957C46.5054 23.7722 46.5447 23.7644 46.5761 23.7644C46.6233 23.7644 46.6861 23.7957 46.7569 23.8504C46.8276 23.913 46.9141 23.9755 47.032 24.0459C47.1499 24.1163 47.2913 24.1788 47.4642 24.2414C47.6372 24.2961 47.8572 24.3274 48.1087 24.3274C48.2817 24.3274 48.4389 24.3039 48.5882 24.2648C48.7375 24.2257 48.8711 24.171 48.989 24.0928C49.1069 24.0224 49.217 23.9286 49.3034 23.8191C49.3899 23.7097 49.4606 23.5845 49.5078 23.4516C49.5628 23.2952 49.5706 23.1623 49.5235 23.0528C49.4763 22.9433 49.4056 22.8417 49.3034 22.7557C49.2012 22.6696 49.0755 22.5836 48.934 22.5133C48.7847 22.4351 48.6353 22.3569 48.486 22.2708C48.3367 22.1848 48.1952 22.091 48.0616 21.9815C47.928 21.872 47.8179 21.7469 47.7393 21.5984C47.6607 21.4498 47.6136 21.2699 47.6057 21.0666C47.5979 20.8633 47.645 20.6131 47.7472 20.3316C47.8651 20.0032 48.0301 19.7138 48.2424 19.4636C48.4546 19.2134 48.6904 19.0101 48.9576 18.8459C49.2248 18.6816 49.5078 18.5565 49.8222 18.4783C50.1287 18.4001 50.4431 18.3532 50.7575 18.3532C50.9225 18.3532 51.0797 18.3689 51.229 18.3923C51.3784 18.4158 51.5199 18.4471 51.6456 18.494C51.7714 18.5331 51.8814 18.58 51.9679 18.6347C52.0543 18.6895 52.1172 18.7286 52.1329 18.7677C52.1565 18.8068 52.1643 18.8302 52.1722 18.8615C52.1722 18.885 52.1722 18.9162 52.1722 18.9553C52.1643 18.9944 52.1565 19.0492 52.1329 19.1117C52.1093 19.1899 52.0858 19.2681 52.0543 19.3463C52.015 19.448 51.9836 19.534 51.9521 19.6044C51.9207 19.6747 51.8893 19.7373 51.8657 19.7764C51.8342 19.8233 51.8028 19.8546 51.7792 19.878C51.7478 19.9015 51.7163 19.9093 51.677 19.9093C51.6377 19.9093 51.5827 19.8859 51.5199 19.8389C51.457 19.792 51.3705 19.7373 51.2683 19.6747C51.1662 19.6122 51.0404 19.5653 50.8989 19.5183C50.7575 19.4714 50.5845 19.448 50.3959 19.448C50.2466 19.448 50.1051 19.4636 49.9794 19.5027C49.8536 19.5418 49.7436 19.5887 49.6414 19.6591C49.5392 19.7217 49.4606 19.7998 49.3899 19.8937C49.3191 19.9797 49.2641 20.0814 49.2248 20.183C49.1698 20.3316 49.1619 20.4645 49.2091 20.574C49.2484 20.6835 49.327 20.7851 49.437 20.8711C49.5471 20.9571 49.6728 21.0353 49.8222 21.1135C49.9715 21.1917 50.1208 21.2699 50.2702 21.3559C50.4195 21.442 50.5688 21.5358 50.7024 21.6453C50.8361 21.7548 50.9461 21.8799 51.0326 22.0363C51.119 22.1848 51.1583 22.3647 51.174 22.568C51.1505 22.74 51.1033 22.9824 51.0011 23.2561ZM58.2635 22.7557C58.1141 23.1779 57.9098 23.5533 57.6661 23.8817C57.4225 24.2179 57.1395 24.4916 56.8173 24.7262C56.4951 24.953 56.1335 25.1328 55.7405 25.2501C55.3475 25.3674 54.9231 25.43 54.4594 25.43C54.035 25.43 53.6656 25.3752 53.359 25.2658C53.0604 25.1563 52.8246 24.9921 52.6674 24.7731C52.5102 24.5542 52.4316 24.2805 52.4237 23.9521C52.4159 23.6236 52.4945 23.2405 52.6517 22.8026L54.1607 18.6269C54.1764 18.5878 54.1922 18.5565 54.2236 18.5331C54.255 18.5018 54.3022 18.4783 54.3651 18.4627C54.4279 18.4471 54.5065 18.4314 54.593 18.4236C54.6873 18.4158 54.7974 18.408 54.9388 18.408C55.0724 18.408 55.1825 18.4158 55.2689 18.4236C55.3554 18.4314 55.4183 18.4471 55.4654 18.4627C55.5126 18.4783 55.544 18.5018 55.5519 18.5331C55.5676 18.5643 55.5676 18.5956 55.5519 18.6269L54.0821 22.6775C53.9799 22.9511 53.9328 23.1857 53.9249 23.389C53.9171 23.5924 53.9564 23.7566 54.035 23.8817C54.1136 24.0146 54.2236 24.1084 54.3729 24.1788C54.5223 24.2414 54.703 24.2805 54.9231 24.2805C55.1432 24.2805 55.3475 24.2492 55.544 24.1788C55.7405 24.1084 55.9291 24.0146 56.0863 23.8817C56.2514 23.7566 56.4007 23.5924 56.5343 23.4047C56.668 23.217 56.778 22.9981 56.8645 22.7635L58.3578 18.6347C58.3735 18.5956 58.3892 18.5643 58.4207 18.5409C58.4521 18.5096 58.4993 18.4862 58.5543 18.4705C58.6172 18.4549 58.6879 18.4392 58.7822 18.4314C58.8765 18.4236 58.9866 18.4158 59.1202 18.4158C59.2538 18.4158 59.3638 18.4236 59.4424 18.4314C59.521 18.4392 59.5918 18.4549 59.6311 18.4705C59.6782 18.4862 59.7097 18.5096 59.7175 18.5409C59.7254 18.5722 59.7254 18.6034 59.7175 18.6347L58.2635 22.7557ZM65.1093 24.8279C65.0779 24.9061 65.0386 24.9842 64.9914 25.0468C64.9442 25.1094 64.8892 25.1641 64.8185 25.2032C64.7556 25.2423 64.6849 25.2736 64.6141 25.297C64.5434 25.3205 64.4727 25.3283 64.4019 25.3283H63.8124C63.6867 25.3283 63.5845 25.3127 63.5059 25.2892C63.4273 25.2658 63.3566 25.2188 63.3094 25.1563C63.2544 25.0937 63.2151 24.9999 63.1837 24.8904C63.1522 24.7809 63.1286 24.6324 63.1051 24.4603L62.5706 21.2543C62.5392 21.051 62.5156 20.8477 62.492 20.6365C62.4684 20.4254 62.4527 20.2065 62.4527 19.9953H62.4449C62.3663 20.2534 62.2877 20.5036 62.2012 20.7538C62.1147 21.0119 62.0204 21.2778 61.9261 21.5358L60.6293 25.125C60.6135 25.1563 60.5978 25.1954 60.5664 25.2188C60.5349 25.2501 60.4956 25.2736 60.4406 25.2892C60.3856 25.3127 60.3149 25.3205 60.2363 25.3361C60.1498 25.344 60.0476 25.3518 59.914 25.3518C59.7883 25.3518 59.694 25.344 59.6154 25.3361C59.5368 25.3283 59.4817 25.3127 59.4424 25.2892C59.4031 25.2736 59.3796 25.2423 59.3717 25.2188C59.3638 25.1876 59.3638 25.1563 59.3796 25.125L61.6117 18.9631C61.6746 18.7989 61.7611 18.6738 61.8947 18.5878C62.0204 18.5018 62.154 18.4627 62.2955 18.4627H63.0422C63.1758 18.4627 63.2858 18.4705 63.3644 18.494C63.4509 18.5174 63.5138 18.5565 63.5688 18.6113C63.6238 18.666 63.6631 18.7364 63.6945 18.8302C63.726 18.9241 63.7496 19.0413 63.7653 19.1743L64.1897 21.6844C64.2133 21.8329 64.2369 21.9893 64.2604 22.1301C64.284 22.2787 64.2997 22.4272 64.3233 22.568C64.339 22.7166 64.3548 22.8573 64.3705 22.9981C64.3862 23.1388 64.4019 23.2796 64.4098 23.4203H64.4176C64.4962 23.1701 64.5827 22.9121 64.677 22.6462C64.7635 22.3881 64.8578 22.1301 64.9442 21.8799L66.1075 18.6582C66.1232 18.6191 66.1389 18.5878 66.1704 18.5643C66.2018 18.5331 66.2411 18.5096 66.304 18.494C66.359 18.4705 66.4297 18.4549 66.5162 18.4471C66.6026 18.4392 66.7048 18.4314 66.8306 18.4314C66.9485 18.4314 67.0506 18.4392 67.1292 18.4471C67.2078 18.4549 67.2628 18.4705 67.3021 18.494C67.3414 18.5174 67.3572 18.5409 67.365 18.5643C67.3729 18.5956 67.3729 18.6269 67.3572 18.6582L65.1093 24.8279ZM74.4938 19.5183C74.4545 19.62 74.423 19.706 74.3838 19.7842C74.3445 19.8546 74.313 19.9171 74.2816 19.9641C74.2501 20.011 74.2187 20.0423 74.1873 20.0579C74.1558 20.0735 74.1244 20.0814 74.0929 20.0814C74.0458 20.0814 73.9829 20.0501 73.9043 19.9875C73.8257 19.925 73.7157 19.8546 73.5742 19.7842C73.4327 19.7138 73.252 19.6435 73.0476 19.5809C72.8354 19.5183 72.576 19.4871 72.2695 19.4871C71.9394 19.4871 71.6171 19.5418 71.3106 19.6591C71.0041 19.7764 70.7133 19.9328 70.446 20.1439C70.1788 20.355 69.943 20.6053 69.7308 20.9024C69.5186 21.1996 69.3535 21.5202 69.2199 21.8799C69.0784 22.2708 69.0077 22.6149 68.9998 22.9199C68.992 23.217 69.047 23.4672 69.1649 23.6706C69.2749 23.8739 69.4479 24.0224 69.6758 24.1241C69.9037 24.2257 70.1709 24.2805 70.4853 24.2805C70.6425 24.2805 70.7997 24.2648 70.9648 24.2257C71.1298 24.1866 71.287 24.1397 71.4442 24.0694L72.018 22.482H70.729C70.6661 22.482 70.6347 22.4429 70.6268 22.3647C70.6189 22.2865 70.6504 22.1536 70.7211 21.9581C70.7604 21.8564 70.7919 21.7782 70.8233 21.7078C70.8547 21.6375 70.8862 21.5905 70.9176 21.5436C70.9491 21.5045 70.9805 21.4732 71.0119 21.4576C71.0434 21.442 71.0748 21.4263 71.1062 21.4263H73.4091C73.4642 21.4263 73.5113 21.4341 73.5506 21.4576C73.5899 21.4732 73.6135 21.5045 73.6371 21.5436C73.6528 21.5827 73.6685 21.6296 73.6607 21.6844C73.6607 21.7391 73.6449 21.8017 73.6214 21.872L72.631 24.6011C72.5917 24.7106 72.5367 24.8044 72.4738 24.8826C72.411 24.9608 72.3088 25.0233 72.1752 25.0703C72.0415 25.1172 71.8844 25.1641 71.6957 25.211C71.5071 25.2579 71.3185 25.3049 71.122 25.3361C70.9333 25.3674 70.7368 25.3987 70.5482 25.4143C70.3596 25.43 70.1709 25.4378 69.9823 25.4378C69.44 25.4378 68.9763 25.3596 68.6069 25.2032C68.2296 25.0468 67.9466 24.82 67.758 24.5229C67.5694 24.2257 67.4672 23.8582 67.4672 23.4281C67.4672 22.9981 67.5615 22.5133 67.758 21.9659C67.9624 21.4029 68.2296 20.9024 68.5597 20.4489C68.8898 20.0032 69.2671 19.62 69.6915 19.3072C70.1159 18.9944 70.5718 18.752 71.0748 18.5878C71.57 18.4236 72.0887 18.3376 72.631 18.3376C72.9297 18.3376 73.1891 18.361 73.417 18.4001C73.6449 18.4392 73.8414 18.4862 73.9986 18.5487C74.1558 18.6034 74.2894 18.6738 74.3838 18.7364C74.4781 18.8068 74.5409 18.8615 74.5724 18.9084C74.6038 18.9553 74.6117 19.0257 74.596 19.1195C74.596 19.2056 74.5567 19.3463 74.4938 19.5183Z" fill="white"/>
</svg>
