<svg width="81" height="25" viewBox="0 0 81 25" fill="none" xmlns="http://www.w3.org/2000/svg">
<g clip-path="url(#clip0_5_9312)">
<path d="M78.9211 0.996094H1.45441V23.8289H78.9211V0.996094Z" fill="#F2ED14"/>
<path d="M11.4378 7.80627C11.8094 7.65168 12.2583 7.58984 12.6608 7.58984C13.4813 7.58984 14.1625 7.83719 14.6734 8.34733C15.1997 8.84202 15.4939 9.56859 15.5867 10.4497C15.6487 11.0836 15.5867 11.7638 15.401 12.4903C15.2462 13.2169 14.9985 13.8353 14.6424 14.3763C14.2709 15.0411 13.76 15.5357 13.1407 15.8758C12.6454 16.185 12.0726 16.3396 11.4378 16.4014V15.1493C11.6546 15.0874 11.8713 14.9947 12.0726 14.9019C12.4751 14.6546 12.8311 14.2681 13.1098 13.7734C13.3884 13.2787 13.6052 12.7377 13.7755 12.1502C13.9303 11.5473 13.9612 10.9908 13.9303 10.4497C13.8684 9.87777 13.6826 9.44492 13.3575 9.10482C13.0169 8.76472 12.568 8.61013 12.0726 8.61013C11.8558 8.61013 11.6391 8.64105 11.4378 8.70289V7.80627ZM5.88019 19.4005L8.04752 9.89322C8.10944 9.52221 8.17137 9.16666 8.23329 8.79564C8.26425 8.42463 8.29521 8.06907 8.32618 7.69806H9.82783L9.70398 8.98115C10.1684 8.51738 10.6483 8.13091 11.1127 7.91448C11.2056 7.85264 11.3295 7.82173 11.4224 7.79081V8.67197C11.2056 8.73381 10.9889 8.85748 10.7567 8.98115C10.3542 9.25941 9.99812 9.6768 9.75042 10.1715C9.47177 10.6662 9.25503 11.2691 9.08474 11.9338C8.92993 12.6295 8.89897 13.1551 8.92993 13.6034C8.96089 14.0981 9.14667 14.4845 9.45629 14.7937C9.7659 15.072 10.1839 15.2266 10.6793 15.2266C10.927 15.2266 11.1747 15.1956 11.4069 15.1338V16.386C11.314 16.386 11.2211 16.386 11.1282 16.386C10.5245 16.386 10.06 16.2623 9.62658 16.0459C9.22407 15.8295 8.83705 15.4739 8.52743 15.0411L7.52117 19.4005H5.88019Z" fill="#0E2B8D"/>
<path d="M51.719 9.05354C51.5332 9.05354 51.3784 9.08446 51.1926 9.11538V7.89412C51.2855 7.8632 51.3474 7.83228 51.4094 7.80137C51.8428 7.58494 52.3537 7.49219 52.8801 7.49219C53.7005 7.49219 54.3507 7.73953 54.8307 8.21876C55.3106 8.69798 55.5892 9.37818 55.6511 10.2903C55.806 11.9907 55.4963 13.4284 54.6758 14.5878C53.8863 15.7782 52.8181 16.3811 51.5023 16.3811C51.4094 16.3811 51.2855 16.3502 51.1926 16.3502V14.727C51.3784 14.6961 51.5642 14.6033 51.719 14.4796C51.9976 14.2632 52.2144 13.954 52.4466 13.5057C52.6633 13.0419 52.8491 12.5009 52.9729 11.9444C53.0968 11.3724 53.1277 10.9086 53.0968 10.5067C53.0658 10.0429 52.911 9.68736 52.6943 9.47093C52.4466 9.17721 52.137 9.05354 51.719 9.05354ZM51.1926 9.11538C50.6972 9.26997 50.2483 9.68736 49.9077 10.2748C49.4123 11.125 49.2111 12.068 49.304 13.1038C49.3659 13.6294 49.4897 14.0468 49.7684 14.325C50.0161 14.6033 50.3721 14.7579 50.8056 14.7579C50.9295 14.7579 51.0533 14.727 51.1772 14.6961V16.3192C50.7127 16.2883 50.2947 16.1647 49.9542 15.9791C49.5207 15.7627 49.1646 15.3762 48.9169 14.9125L47.9107 19.3956H45.3099L47.3224 10.3057C47.5701 9.14629 47.7249 8.26514 47.7868 7.70861H50.1399L50.078 8.74436C50.4495 8.40427 50.8056 8.11055 51.1772 7.89412V9.11538H51.1926Z" fill="#0E2B8D"/>
<path d="M61.5207 12.1616C61.4587 12.1307 61.3968 12.1307 61.3349 12.1307C61.242 12.1307 61.1801 12.1307 61.0562 12.1307C60.6537 12.1307 60.2667 12.1616 59.9571 12.2544V10.8785C60.2977 10.8476 60.7157 10.8476 61.1182 10.8476C61.3039 10.8476 61.4587 10.8476 61.5516 10.8476C61.6445 10.8476 61.7374 10.8476 61.8303 10.8476C61.8922 10.5384 61.9541 10.322 61.9541 10.121C61.9851 9.96645 61.9851 9.84278 61.9851 9.71911C61.9541 9.47176 61.8612 9.28625 61.6755 9.14712C61.5207 9.02345 61.273 8.96162 60.9479 8.96162C60.5763 8.96162 60.2822 9.05437 60.0964 9.20896C60.0345 9.2708 59.9726 9.30171 59.9416 9.39447V7.63215C60.2512 7.57031 60.6073 7.57031 60.9479 7.57031C62.047 7.57031 62.8675 7.7249 63.4558 8.09592C64.0286 8.46693 64.3382 9.008 64.4001 9.71911C64.4311 9.93553 64.4311 10.152 64.4001 10.4148C64.3691 10.6312 64.3072 10.9094 64.2453 11.2032L63.5796 14.094C63.4867 14.4341 63.4558 14.7896 63.3938 15.1607C63.3629 15.5317 63.3629 15.8872 63.3629 16.2582H60.9788C60.9788 16.0727 60.9788 15.8872 60.9788 15.6553C60.9788 15.4389 61.0098 15.2534 61.0098 15.0215C60.7002 15.4544 60.3131 15.8099 59.9416 15.9954V14.6814C60.1893 14.5578 60.437 14.3722 60.7002 14.0785C61.1182 13.5993 61.3968 12.9346 61.5207 12.1616ZM59.9571 12.2544C59.6165 12.3471 59.3224 12.4708 59.0747 12.6563C58.5483 12.9964 58.3161 13.4447 58.378 13.9394C58.378 14.2177 58.4709 14.4341 58.6567 14.6041C58.8115 14.7587 59.0282 14.8206 59.3224 14.8206C59.5391 14.8206 59.7558 14.7896 59.9571 14.6969V16.0109L59.8952 16.0418C59.4927 16.2582 59.0437 16.3819 58.5174 16.3819C57.7588 16.3819 57.1705 16.1655 56.6906 15.7481C56.2262 15.3462 55.963 14.8051 55.9011 14.1249C55.8082 13.0582 56.2107 12.2389 57.0931 11.6824C57.7898 11.2495 58.7186 10.9558 59.9571 10.8631V12.2544ZM59.9571 7.64761V9.40993C59.8332 9.56452 59.7713 9.78094 59.7094 10.0437H57.2324C57.2944 9.25534 57.6659 8.6679 58.3006 8.21959C58.765 7.92587 59.2914 7.74036 59.9571 7.64761Z" fill="#0E2B8D"/>
<path d="M64.845 19.3663L66.9195 16.2281L65.4178 7.64844H67.9877L68.7153 13.5383L72.0437 7.64844H74.4897L69.1487 16.5837L67.6161 19.3663H64.845Z" fill="#0E2B8D"/>
<path d="M20.5102 8.51231C20.2935 8.51231 20.1077 8.54323 19.8755 8.60506V7.50748C20.1232 7.47656 20.4018 7.47656 20.696 7.47656C21.7022 7.47656 22.4918 7.72391 23.08 8.20313C23.7148 8.69782 24.0244 9.39347 24.1173 10.2746C24.1792 10.9703 24.1173 11.7123 23.9005 12.5007C23.7148 13.2891 23.4361 13.9693 23.0491 14.5413C22.6156 15.206 22.1047 15.6698 21.4855 15.9481C21.052 16.1645 20.5102 16.2882 19.891 16.35V15.2524C20.1387 15.1906 20.3864 15.0978 20.5876 14.9741C20.9592 14.7577 21.2843 14.4022 21.5629 13.9384C21.8725 13.4128 22.0893 12.8099 22.2596 12.1452C22.4144 11.4495 22.4763 10.893 22.4453 10.3828C22.3834 9.71811 22.1976 9.25434 21.8725 8.97608C21.5474 8.68236 21.114 8.51231 20.5102 8.51231ZM19.891 8.62052C19.6742 8.68236 19.4265 8.77511 19.1943 8.89878C18.8228 9.17705 18.4667 9.56352 18.1881 10.0582C17.9094 10.522 17.6927 11.094 17.5224 11.7896C17.3676 12.4853 17.3366 13.0727 17.3676 13.5828C17.3985 14.1548 17.6153 14.5568 17.9404 14.8659C18.281 15.1751 18.7299 15.3297 19.2872 15.3297C19.5039 15.3297 19.6897 15.2988 19.891 15.2679V16.3655C19.6742 16.3655 19.4265 16.3964 19.1634 16.3964C18.1571 16.3964 17.3366 16.149 16.7483 15.608C16.1136 15.1133 15.773 14.3867 15.7111 13.4746C15.6492 12.7171 15.7111 11.9751 15.9588 11.1558C16.1755 10.3365 16.4852 9.65627 16.9341 9.05337C17.3366 8.52777 17.8475 8.1413 18.4667 7.86304C18.8692 7.70845 19.3801 7.58477 19.8755 7.52294V8.62052H19.891Z" fill="#0E2B8D"/>
<path d="M25.8514 13.4475C25.7895 13.602 25.7585 13.7257 25.7585 13.8494C25.7276 13.9731 25.7276 14.0658 25.7585 14.1586C25.7895 14.4987 25.9133 14.7615 26.161 14.9161C26.4087 15.1016 26.7648 15.1634 27.2602 15.1634C27.9258 15.1634 28.4212 15.0397 28.7928 14.7924C29.1643 14.5141 29.3191 14.1586 29.2882 13.7566C29.2882 13.5093 29.1643 13.2929 28.9476 13.0919C28.7309 12.9064 28.2819 12.659 27.6007 12.3344C26.7183 11.9325 26.0991 11.546 25.743 11.2059C25.3715 10.8967 25.1702 10.4793 25.1393 10.0465C25.0774 9.289 25.356 8.70156 25.9598 8.19141C26.5945 7.72765 27.4305 7.46484 28.4986 7.46484C29.4739 7.46484 30.2015 7.61943 30.666 7.89769C31.1614 8.17596 31.4245 8.59335 31.4865 9.18079C31.4865 9.27354 31.4865 9.36629 31.4865 9.48997C31.4865 9.58272 31.4865 9.73731 31.4555 9.95373H29.9229C29.9229 9.86098 29.9229 9.76823 29.9229 9.70639C29.9229 9.64455 29.9229 9.5518 29.9229 9.48997C29.8919 9.18079 29.7681 8.91798 29.5204 8.76339C29.3036 8.6088 28.9476 8.51605 28.4832 8.51605C27.9568 8.51605 27.5388 8.63972 27.2602 8.85615C26.9505 9.07257 26.8267 9.38175 26.8577 9.76822C26.8886 9.98465 26.9815 10.2011 27.1982 10.3711C27.384 10.5566 27.8639 10.804 28.576 11.1595C29.5823 11.6233 30.2789 12.0407 30.5576 12.3499C30.8363 12.659 31.022 13.0764 31.053 13.5402C31.1149 14.3286 30.8053 15.0088 30.0467 15.5499C29.3191 16.0755 28.3438 16.3692 27.1518 16.3692C26.2075 16.3692 25.4799 16.1837 24.9225 15.8745C24.3962 15.5344 24.1021 15.0552 24.0401 14.4368C24.0092 14.3132 24.0092 14.1586 24.0401 13.9731C24.0711 13.8185 24.1021 13.633 24.133 13.4475H25.8514Z" fill="#0E2B8D"/>
<path d="M36.1766 16.2584C35.867 16.2893 35.5729 16.3203 35.3252 16.3512C35.0775 16.3512 34.8298 16.3821 34.5976 16.3821C33.9629 16.3821 33.4984 16.2893 33.2198 16.0729C32.9102 15.8874 32.7553 15.5473 32.7244 15.0681C32.6934 14.9135 32.7244 14.6352 32.7553 14.2797C32.7863 13.9087 32.8792 13.5222 32.9411 13.1203L33.9164 8.85359H32.3528L32.6315 7.75601H34.1641L34.5976 5.80818L36.2695 5.40625L35.7741 7.75601H37.6318L37.3842 8.85359H35.5264L34.5821 13.3058C34.4892 13.6459 34.4273 13.9087 34.4273 14.0633C34.3963 14.2488 34.3654 14.3724 34.3963 14.4652C34.3963 14.7125 34.4892 14.8671 34.644 14.9599C34.7988 15.0835 35.0775 15.1454 35.4645 15.1454C35.5884 15.1454 35.7741 15.1145 35.9599 15.0835C36.1147 15.0835 36.3005 15.0217 36.4553 14.9908L36.1766 16.2584Z" fill="#0E2B8D"/>
<path d="M41.6094 11.0049H43.7458C43.7768 10.7267 43.8077 10.5103 43.8077 10.3402C43.8387 10.1856 43.8387 10.0619 43.8077 9.93827C43.7768 9.47451 43.591 9.11895 43.2814 8.87161C42.9408 8.62427 42.4918 8.46967 41.9345 8.46967C41.8416 8.46967 41.7178 8.50059 41.6249 8.50059V7.46484C41.7488 7.46484 41.8416 7.46484 41.9655 7.46484C43.0646 7.46484 43.9161 7.68127 44.4734 8.09866C44.9998 8.50059 45.3558 9.16533 45.4177 10.0774C45.4487 10.3866 45.4487 10.7421 45.4177 11.0822C45.4177 11.4223 45.3558 11.8088 45.2629 12.1798H41.6249V11.0049H41.6094ZM41.6094 16.3383V15.0397C41.7952 14.9779 41.981 14.8851 42.1358 14.7924C42.5073 14.545 42.8015 14.1586 42.9563 13.6948H44.814C44.5972 14.545 44.1173 15.1943 43.4052 15.6735C42.8943 16.0136 42.3061 16.2301 41.6094 16.3383ZM39.4111 11.0049H41.6094V12.1644H39.1325C39.0396 12.4117 39.0086 12.6281 38.9777 12.8909C38.9467 13.1074 38.9467 13.3238 38.9467 13.5247C39.0086 14.0504 39.1944 14.4677 39.5195 14.746C39.8601 15.0243 40.309 15.1789 40.8973 15.1789C41.145 15.1789 41.3927 15.1479 41.6249 15.0552V16.3383C41.3462 16.3692 41.0211 16.4001 40.7115 16.4001C39.7053 16.4001 38.9157 16.1528 38.3275 15.6735C37.7547 15.2098 37.4141 14.5141 37.3522 13.633C37.2902 12.9682 37.3522 12.2262 37.5689 11.376C37.7547 10.5566 38.0643 9.84552 38.4203 9.24262C38.7919 8.67064 39.3028 8.20687 39.891 7.92861C40.3864 7.65035 40.9592 7.52668 41.6249 7.46484V8.50059C41.1295 8.56243 40.6806 8.74794 40.34 9.13441C39.891 9.52088 39.5659 10.1547 39.4111 11.0049Z" fill="#0E2B8D"/>
</g>
<defs>
<clipPath id="clip0_5_9312">
<rect width="80.1139" height="24.3478" fill="white" transform="translate(0.134094 0.230469)"/>
</clipPath>
</defs>
</svg>
