<svg width="82" height="23" viewBox="0 0 82 23" fill="none" xmlns="http://www.w3.org/2000/svg">
<g clip-path="url(#clip0_5_9334)">
<mask id="mask0_5_9334" style="mask-type:luminance" maskUnits="userSpaceOnUse" x="0" y="0" width="81" height="23">
<path d="M80.9391 0.984375H0.710938V22.5228H80.9391V0.984375Z" fill="white"/>
</mask>
<g mask="url(#mask0_5_9334)">
<path fillRule="evenodd" clipRule="evenodd" d="M17.4395 4.49967C17.9336 4.48651 18.4082 4.30471 18.7836 3.98476C19.159 3.66481 19.4124 3.22617 19.5013 2.7424C19.5437 2.52467 19.5363 2.30022 19.4797 2.08573C19.423 1.87123 19.3184 1.67219 19.1739 1.50337C19.0293 1.33456 18.8483 1.20032 18.6445 1.1106C18.4406 1.02089 18.219 0.978005 17.9962 0.985139C17.5022 0.998612 17.0278 1.18052 16.6524 1.50042C16.2771 1.82031 16.0236 2.25877 15.9344 2.7424C15.7729 3.72018 16.4344 4.49967 17.4395 4.49967Z" fill="#3E5586"/>
<path d="M80.9364 5.77128C79.2956 5.69094 77.1564 7.71487 77.1564 7.71487L76.4692 5.98496H74.5826L73.6806 11.1234C73.6113 11.4745 73.4248 11.7919 73.1514 12.0243L70.6893 13.9764C70.6893 13.9764 69.6841 14.7508 68.2838 15.6516C67.7641 15.9376 67.1818 16.0925 66.588 16.1029C65.4506 16.1029 64.7358 15.6516 64.4179 14.9063C64.3612 14.7686 64.3169 14.6262 64.2856 14.4807L70.6137 10.1644C71.5397 9.52513 71.514 8.64649 71.3817 8.19521C70.9848 6.80889 69.7391 5.80205 67.7014 5.80205C63.9214 5.80205 61.296 9.04991 61.296 13.6824C61.296 14.0038 61.3218 14.2944 61.3476 14.5884L59.5504 15.8568C59.1994 16.08 58.8001 16.2171 58.3855 16.2568C57.8305 16.2568 57.6174 15.8311 57.7772 14.8892L60.1328 1.63111L57.1948 1.60547L56.0299 8.20718C55.9722 8.4831 55.8445 8.7397 55.6587 8.95248L52.4286 12.3867C52.5148 11.787 52.559 11.1821 52.5609 10.5764C52.5609 7.78154 51.2894 5.73197 49.1245 5.73197C47.0318 5.73197 45.4734 7.51487 45.4734 7.51487L44.6487 5.94393H42.7811L41.7759 11.7559C41.7282 12.007 41.6177 12.2422 41.4546 12.4397L39.575 14.6756C39.0458 15.2345 38.5166 15.9268 38.252 15.9525C37.7485 16.0328 37.5372 15.8465 37.6953 14.9405L38.4358 10.7354C39.0183 7.40718 38.0131 5.73025 35.1799 5.73025C33.4858 5.73025 31.4996 7.64649 31.4996 7.64649C31.0786 6.39521 30.0443 5.73025 28.4825 5.73025C26.7643 5.73025 24.9087 7.75248 24.9087 7.75248L24.1407 5.94222H22.2661L21.3125 11.4277C21.2647 11.6785 21.1549 11.9134 20.993 12.1115L18.8487 14.6756C18.3178 15.2345 17.7886 15.9268 17.524 15.9525C17.0206 16.0328 16.8092 15.8465 16.969 14.9405L18.5841 5.94222H15.6976L15.2216 8.62085C15.1545 8.96437 15.0001 9.28508 14.7732 9.55248L10.4537 14.585C9.7157 15.3715 8.7206 15.8714 7.64624 15.9952H4.569L11.5052 8.08752L11.8764 5.9576H2.95908L2.53469 8.35077H7.72356L1.0227 16.2585L0.703125 18.4944C0.703125 18.4944 6.97959 18.5217 7.0844 18.4944C8.9383 18.4944 10.5534 16.8704 11.208 16.1764L14.5344 12.2379L13.9261 15.5662C13.555 17.7508 14.3746 18.761 16.1495 18.7354C17.2353 18.708 18.0034 17.9901 18.7439 17.2174L20.7576 14.8482L20.0961 18.6824H23.0599L24.3589 11.1747C24.5169 10.2414 25.7093 8.67043 26.9533 8.67043C28.2505 8.67043 28.8862 9.30974 28.5941 11.0944L27.2712 18.6841H30.2092L31.6387 10.5901C31.7195 10.0585 32.6696 8.5388 33.9961 8.5388C35.3706 8.5388 35.8225 9.2841 35.5338 11.0687L34.7125 15.5679C34.3414 17.7508 35.161 18.7627 36.9358 18.7354C38.0252 18.7097 38.7897 17.9901 39.532 17.2174L41.2794 15.1662L40.6694 18.708L39.9547 22.7815H42.9202L43.8669 17.2243C44.29 17.7868 44.8851 18.1977 45.5628 18.3952C45.7255 18.455 45.8935 18.4996 46.0645 18.5285C47.9716 18.6345 49.6915 17.7029 51.2018 16.1063L51.2276 16.079L55.523 11.6055L54.8357 15.52C54.4646 17.7029 55.2584 18.6875 57.059 18.6875C58.2239 18.6875 59.2841 18.1029 60.4215 17.3303L61.9318 16.2397C61.9575 16.2909 61.9833 16.3713 62.0108 16.4243C62.6981 17.7559 63.9437 18.6345 65.7908 18.6619H65.8165C67.7752 18.6619 69.6824 16.7986 70.7683 16.026C71.0587 15.8123 72.1188 14.961 73.2562 14.0294L72.4366 18.6824H75.4005L76.6994 11.1747C76.8575 10.2431 78.0499 8.67214 79.2938 8.67214C79.6909 8.64944 80.0861 8.74209 80.4313 8.9388L80.9364 5.77128ZM44.2381 14.8773L44.9253 10.9371C45.2157 10.0055 46.3274 8.75419 47.4407 8.67384C47.8634 8.64649 48.3926 8.64649 48.896 9.04649C49.3204 9.52513 49.5317 10.2431 49.5317 11.1234C49.5317 13.9456 48.1572 15.8892 46.2483 15.8892C45.8538 15.9082 45.4612 15.8249 45.1088 15.6475C44.7564 15.4701 44.4563 15.2047 44.2381 14.8773ZM64.4403 11.2055C64.7616 9.66701 66.0038 8.33026 67.4058 8.33026C68.2013 8.33026 68.7804 8.91658 68.5708 9.58154L64.2289 12.5884C64.2764 12.1236 64.3475 11.6614 64.442 11.2038L64.4403 11.2055Z" fill="#3E5586"/>
</g>
</g>
<defs>
<clipPath id="clip0_5_9334">
<rect width="80.4103" height="21.5385" fill="white" transform="translate(0.617188 0.980469)"/>
</clipPath>
</defs>
</svg>
