<svg width="92" height="19" viewBox="0 0 92 19" fill="none" xmlns="http://www.w3.org/2000/svg">
<g clip-path="url(#clip0_5_9342)">
<mask id="mask0_5_9342" style="mask-type:luminance" maskUnits="userSpaceOnUse" x="-41" y="-104" width="177" height="226">
<path d="M135.067 121.969H-40.1588V-103.652H135.067V121.969Z" fill="white"/>
</mask>
<g mask="url(#mask0_5_9342)">
<path d="M83.1287 12.0424L82.1783 16.4553H79.1684L79.9379 12.8754C80.0963 12.1324 80.1868 11.6821 80.1868 11.5696C80.1868 11.0742 79.9152 10.8266 79.3495 10.8266C78.6027 10.8266 78.1048 11.3219 77.9011 12.3126L77.0186 16.4553H74.0087L76.2265 5.6932H79.2363L78.4216 9.63329H78.4443C78.7158 9.25054 79.0553 8.95785 79.5079 8.75521C79.9152 8.55258 80.3452 8.46252 80.7752 8.46252C81.522 8.46252 82.133 8.62012 82.5856 8.93533C83.0835 9.29557 83.3324 9.83593 83.3324 10.5564C83.3324 10.8941 83.2645 11.3894 83.1287 12.0424ZM71.2705 10.1061L71.0215 11.4345L71.8136 11.6596C73.0809 12.0199 73.7372 12.7628 73.7372 13.8661C73.7372 14.8342 73.3298 15.5547 72.4925 16.05C71.8136 16.4553 70.9763 16.6354 69.9579 16.6354L69.7316 17.7161H69.1885L69.4148 16.6129C68.5548 16.5228 67.8533 16.2526 67.3781 15.7573C66.8802 15.2845 66.6313 14.6316 66.6313 13.821H69.098C69.1206 14.3839 69.3469 14.6991 69.7995 14.8117L70.0937 13.3032L69.6637 13.1681C68.9848 12.9655 68.5096 12.7403 68.238 12.5152C67.808 12.1549 67.5817 11.6146 67.5817 10.8941C67.5817 10.0611 67.9438 9.40814 68.668 8.91281C69.3016 8.46252 70.0484 8.25989 70.9084 8.25989H71.1121L71.2931 7.35929H71.8362L71.6552 8.30492C73.3072 8.53007 74.1219 9.38563 74.1219 10.8941H71.8362C71.8589 10.4663 71.6778 10.1962 71.2705 10.1061ZM65.4319 13.4158C65.115 14.8792 64.9566 15.6673 64.9566 15.7798C64.9566 15.8924 65.0019 16.1176 65.0698 16.4778H62.1278C62.0373 16.2076 62.0147 15.9599 62.0147 15.7348H61.9921C61.4716 16.3652 60.6569 16.6804 59.5706 16.6804C58.8238 16.6804 58.2354 16.5228 57.8055 16.2076C57.285 15.8474 57.036 15.307 57.036 14.6091C57.036 13.6409 57.3981 12.943 58.0997 12.4927C58.6654 12.1324 59.5933 11.9073 60.8379 11.8172C61.7431 11.7497 62.1957 11.7272 62.241 11.7046C62.7615 11.5921 63.0331 11.3444 63.0331 10.9166C63.0331 10.4663 62.7162 10.2412 62.1052 10.2412C61.4489 10.2412 61.0642 10.5114 60.9058 11.0292H58.077C58.3033 10.0611 58.7786 9.38563 59.548 8.95785C60.159 8.62012 61.019 8.46252 62.0826 8.46252C64.6172 8.46252 65.9071 9.16048 65.9071 10.5339C65.9071 10.9842 65.7487 11.9523 65.4319 13.4158ZM51.3332 14.0237C52.3289 14.0237 52.94 13.4608 53.1889 12.3576H56.4703C56.2892 13.3933 55.9045 14.2488 55.3161 14.9243C54.3204 16.095 52.8721 16.6804 50.9259 16.6804C49.4096 16.6804 48.2329 16.2301 47.4182 15.307C46.6488 14.4515 46.264 13.2807 46.264 11.7722C46.264 9.97101 46.7845 8.46252 47.8029 7.29175C48.8891 6.03092 50.3375 5.4005 52.1253 5.4005C53.4605 5.4005 54.5241 5.71571 55.3161 6.32361C56.244 7.04409 56.7192 8.16982 56.7419 9.67832H53.5962C53.6189 8.62012 53.121 8.10228 52.1026 8.10228C51.2653 8.10228 50.609 8.53006 50.1564 9.36311C49.7717 10.0386 49.5907 10.8266 49.5907 11.7497C49.5907 13.2807 50.1564 14.0237 51.3332 14.0237ZM43.8426 14.0462C43.5031 14.7441 42.9827 15.2845 42.2811 15.6898C41.5796 16.095 40.7423 16.2977 39.7239 16.2977C38.434 16.2977 37.5061 15.9825 36.8951 15.352C36.2841 14.7216 35.9899 13.9336 35.9899 13.0105C35.9899 12.2675 36.1709 11.5696 36.533 10.8716C36.8951 10.1962 37.4382 9.6558 38.1171 9.27305C38.8187 8.8903 39.6334 8.68767 40.6065 8.68767C41.919 8.68767 42.8695 9.02539 43.4579 9.67832C44.0463 10.3312 44.3631 11.0968 44.3631 11.9973C44.3631 12.6728 44.1821 13.3482 43.8426 14.0462ZM34.4737 10.8491L33.9305 13.4158C33.8853 13.5283 33.8853 13.6409 33.8853 13.776C33.8853 14.1137 34.1116 14.2713 34.5416 14.2713C34.6773 14.2713 34.9715 14.2263 35.4015 14.1363L34.9715 16.1401C34.1342 16.2526 33.5006 16.3202 33.1159 16.3202C32.3238 16.3202 31.7807 16.1401 31.4412 15.7573C31.1018 15.3746 30.9434 14.9693 30.9434 14.5415C30.9434 14.4064 31.0112 14.0012 31.147 13.3707L31.6675 10.8941H30.6718L31.0791 8.8903H32.0975L32.3464 7.74205L35.4694 6.18852L34.881 8.8903H36.3294L35.8994 10.8941H34.4737V10.8491ZM29.065 16.1401H26.2589L27.8204 8.86779H30.6492L29.065 16.1401ZM25.2179 16.1401H22.6154L22.7512 15.4196L22.7286 15.3746C22.3438 15.7348 21.9818 15.9825 21.6649 16.1176C21.3481 16.2526 20.9634 16.3202 20.5334 16.3202C19.6961 16.3202 19.0851 16.05 18.6325 15.5097C18.2025 14.9693 17.9762 14.2263 17.9762 13.3032C17.9762 12.0649 18.3157 11.0067 18.9719 10.0836C19.6282 9.16048 20.4655 8.71018 21.4613 8.71018C22.4796 8.71018 23.2717 9.09294 23.7922 9.85844L24.5842 6.12098H27.3904L25.2179 16.1401ZM28.4088 6.09846H31.2149L30.8076 8.01222H28.0014L28.4088 6.09846ZM17.1841 14.0462C16.8447 14.7441 16.3242 15.2845 15.6227 15.6898C14.9211 16.095 14.0838 16.2977 13.0654 16.2977C11.7755 16.2977 10.8477 15.9825 10.2367 15.352C9.62565 14.7216 9.33145 13.9336 9.33145 13.0105C9.33145 12.2675 9.51249 11.5696 9.87458 10.8716C10.2367 10.1962 10.7798 9.6558 11.4587 9.27305C12.1602 8.8903 12.9749 8.68767 13.948 8.68767C15.2606 8.68767 16.2111 9.02539 16.7994 9.67832C17.3878 10.3312 17.7047 11.0968 17.7047 11.9973C17.7047 12.6728 17.5236 13.3482 17.1841 14.0462ZM7.79259 10.8491L7.24947 13.4158C7.20421 13.5283 7.20421 13.6409 7.20421 13.776C7.20421 14.1137 7.43051 14.2713 7.86049 14.2713C7.99627 14.2713 8.29046 14.2263 8.72043 14.1363L8.29046 16.1401C7.45314 16.2526 6.81949 16.3202 6.43478 16.3202C5.64272 16.3202 5.09959 16.1401 4.76014 15.7573C4.44331 15.3746 4.26228 14.9693 4.26228 14.5415C4.26228 14.4064 4.33017 14.0012 4.46595 13.3707L4.98644 10.8941H3.99071L4.39805 8.8903H5.41641L5.66535 7.74205L8.78833 6.18852L8.19994 8.8903H9.64828L9.2183 10.8941H7.79259V10.8491ZM86.7948 -0.00304794C83.8982 -0.00304794 81.5446 2.3385 81.5446 5.22039C81.5446 6.00841 81.7257 6.75139 82.0425 7.42684C81.6578 7.33678 81.2504 7.29175 80.7978 7.29175C80.5715 7.29175 80.3226 7.31427 80.0963 7.35929L80.3905 5.94087C80.4584 5.60314 80.3678 5.2429 80.1642 4.97272C79.9379 4.70255 79.621 4.54494 79.259 4.54494H76.2491C75.706 4.54494 75.2308 4.9277 75.1176 5.46805L74.484 8.48503C74.1219 8.03474 73.624 7.69702 73.013 7.47187C73.0356 7.17918 72.9451 6.88648 72.7641 6.66133C72.5378 6.39116 72.2209 6.23355 71.8589 6.23355H71.3157C70.7726 6.23355 70.2747 6.61631 70.1842 7.15666V7.17918C69.3922 7.29175 68.668 7.56192 68.0343 7.98971C67.5138 8.34994 67.1065 8.77773 66.8576 9.27305C66.3823 8.25989 65.1603 7.29175 62.1505 7.29175C60.8606 7.29175 59.8422 7.49438 59.0501 7.92216C58.5975 8.16983 58.2128 8.48504 57.896 8.86779C57.715 7.40433 57.1039 6.25607 56.0856 5.44554C55.0898 4.68003 53.7773 4.27476 52.1705 4.27476C50.0433 4.27476 48.3008 5.04027 46.9656 6.54876C46.0604 7.58444 45.4946 8.84527 45.2457 10.2862C45.042 9.79089 44.7478 9.31808 44.3631 8.8903C43.5484 7.98971 42.2811 7.5169 40.6517 7.5169C39.4976 7.5169 38.4792 7.76456 37.5966 8.23737C37.5514 8.25988 37.4835 8.30491 37.4382 8.32743C37.393 8.23737 37.3477 8.16982 37.3025 8.10228C37.0762 7.8321 36.7593 7.6745 36.3972 7.6745H36.3746L36.6462 6.36864C36.7367 5.94086 36.5783 5.49057 36.2162 5.22039C35.8541 4.95021 35.3789 4.90518 34.9942 5.10781L32.3464 6.41367L32.3691 6.27859C32.4369 5.94087 32.3464 5.58062 32.1428 5.31045C31.9165 5.04027 31.5996 4.88267 31.2375 4.88267H28.4314C28.2504 4.88267 28.0693 4.9277 27.9335 4.99524C27.7751 4.9277 27.5941 4.88267 27.4357 4.88267H24.5842C24.0411 4.88267 23.5659 5.26542 23.4527 5.80577L23.0454 7.76456C22.5702 7.58444 22.0497 7.49438 21.4839 7.49438C20.3976 7.49438 19.4246 7.89965 18.6325 8.66515H17.4783C16.6637 7.89965 15.4869 7.5169 13.9707 7.5169C12.8165 7.5169 11.7982 7.76456 10.9156 8.23737C10.8703 8.25988 10.8024 8.30491 10.7572 8.32743C10.7119 8.23737 10.6666 8.16982 10.6214 8.10228C10.3951 7.8321 10.0782 7.6745 9.71616 7.6745H9.69354L9.9651 6.36864C10.0556 5.94086 9.89721 5.49057 9.53512 5.22039C9.17304 4.95021 8.69781 4.90518 8.31309 5.10781L5.19011 6.66133C4.87329 6.81894 4.64699 7.11163 4.5791 7.44935L4.53384 7.6745H4.44332C3.90019 7.6745 3.42495 8.05725 3.3118 8.59761L2.90446 10.6014C2.83657 10.9391 2.92709 11.2994 3.13076 11.5696C3.26654 11.7272 3.42495 11.8397 3.62863 11.9298L3.37969 13.1006C3.17602 14.0912 3.15339 14.3389 3.15339 14.519C3.15339 15.2395 3.42496 15.9149 3.92282 16.5003C4.48858 17.1307 5.32589 17.4684 6.45741 17.4684C6.91001 17.4684 7.56629 17.4009 8.4715 17.2883C8.94673 17.2208 9.35408 16.8605 9.4446 16.3877L9.46724 16.2526C10.3046 17.0632 11.504 17.491 13.0654 17.491C14.2875 17.491 15.3285 17.2208 16.2111 16.7255C16.6637 16.4553 17.0484 16.1401 17.3878 15.7798C17.4783 15.9374 17.5915 16.095 17.7047 16.2526C18.1573 16.8155 19.0172 17.5135 20.5108 17.5135C21.0992 17.5135 21.6197 17.4234 22.0949 17.2433H22.1176C22.276 17.3108 22.4344 17.3559 22.6154 17.3559H25.2179C25.3989 17.3559 25.58 17.3108 25.7384 17.2433C25.8968 17.3108 26.0778 17.3559 26.2589 17.3559H29.065C29.6082 17.3559 30.0834 16.9731 30.1966 16.4553L30.2644 16.1626C30.355 16.2977 30.4681 16.4553 30.5813 16.5678C31.147 17.1983 31.9843 17.536 33.1159 17.536C33.5685 17.536 34.2247 17.4684 35.13 17.3559C35.6052 17.2883 36.0125 16.9281 36.1031 16.4553L36.1257 16.3202C36.963 17.1307 38.1624 17.5585 39.7239 17.5585C40.9459 17.5585 41.9869 17.2883 42.8695 16.793C43.7521 16.2752 44.431 15.5547 44.8836 14.6541C45.042 14.3389 45.1778 14.0012 45.2683 13.686C45.4946 14.6766 45.902 15.5322 46.5356 16.2076C47.5766 17.3784 49.0476 17.9638 50.9032 17.9638C53.1436 17.9638 54.8862 17.2658 56.0856 15.8924C56.2892 16.4102 56.6513 16.8605 57.1266 17.1983C57.2397 17.2883 57.3755 17.3559 57.4886 17.4234C57.5113 17.4234 57.5339 17.4459 57.5565 17.4459C57.6923 17.5135 57.8281 17.581 57.9639 17.626C58.3033 17.7386 58.8012 17.8737 59.5933 17.8962C60.3401 17.8962 60.9963 17.7836 61.5621 17.536C61.6979 17.6035 61.8337 17.6711 61.9921 17.6936C62.0147 17.6936 62.0147 17.6936 62.0373 17.6936C62.0373 17.6936 62.0373 17.6936 62.06 17.6936C62.1278 17.6936 62.1957 17.6936 62.2863 17.6936H62.3315C63.0104 17.6936 64.3004 17.6936 64.7756 17.6936H64.8435C64.934 17.6936 65.1377 17.6711 65.3866 17.6711C65.6355 17.6035 65.8618 17.4684 66.0203 17.2658C66.2466 16.9956 66.3144 16.6354 66.2466 16.2977C66.3597 16.4328 66.4502 16.5678 66.586 16.6804C66.9934 17.0857 67.4912 17.3784 68.0796 17.581C68.8264 17.7386 68.4417 18.4141 69.3695 18.4141C70.2974 18.4141 70.2521 17.8287 70.9537 17.8287C71.7457 17.7386 72.4473 17.5135 73.0583 17.1532C73.0809 17.1983 73.1035 17.2208 73.1488 17.2658C73.3751 17.536 73.6919 17.6936 74.054 17.6936H77.0638C77.3128 17.6936 77.5617 17.6035 77.7654 17.4684H78.5348C78.7385 17.626 78.9874 17.6936 79.2363 17.6936H82.2462C82.7893 17.6936 83.2645 17.3108 83.3777 16.793L84.3281 12.3801C84.4865 11.6371 84.5771 11.0742 84.5771 10.6465C84.5771 10.4213 84.5544 10.1962 84.5318 9.99353C85.2334 10.3538 86.048 10.5564 86.8854 10.5564C89.782 10.5564 92.1356 8.21486 92.1356 5.33296C92.0451 2.3385 89.6915 -0.00304794 86.7948 -0.00304794Z" fill="white"/>
<path d="M41.2675 10.8616C41.0412 10.6814 40.7696 10.5689 40.4981 10.5689C39.9097 10.5689 39.4571 10.839 39.1629 11.3794C38.8687 11.9197 38.7103 12.4601 38.7103 13.023C38.7103 13.4282 38.8234 13.766 39.0498 14.0361C39.2761 14.3063 39.5702 14.4414 39.9097 14.4414C40.4302 14.4414 40.8375 14.1712 41.1544 13.6534C41.4712 13.113 41.607 12.5276 41.607 11.8747C41.6296 11.3794 41.4938 11.0417 41.2675 10.8616Z" fill="white"/>
<path d="M60.0423 14.2113C60.0423 14.6616 60.3592 14.8867 60.9928 14.8867C61.8528 14.8867 62.3959 14.2563 62.5995 12.9955C62.2601 13.1756 61.717 13.2882 61.0154 13.3332C60.3592 13.4007 60.0423 13.6934 60.0423 14.2113Z" fill="white"/>
<path d="M70.7183 10.042C70.1752 10.0645 69.9037 10.2897 69.9037 10.7175C69.9037 10.9426 70.0847 11.1227 70.4694 11.2578L70.7183 10.042Z" fill="white"/>
<path d="M70.3216 14.8774C71.0232 14.8999 71.3852 14.6747 71.3852 14.2244C71.3852 13.9092 71.1137 13.6616 70.5932 13.4814L70.3216 14.8774Z" fill="white"/>
<path d="M22.1883 10.5629C21.7809 10.5629 21.4188 10.8331 21.1246 11.3509C20.8305 11.8688 20.6947 12.4992 20.6947 13.2196C20.6947 13.6249 20.7852 13.9401 20.9662 14.1653C21.1473 14.3904 21.3736 14.4805 21.6678 14.4805C22.1883 14.4805 22.5956 14.1878 22.8672 13.6249C23.1387 13.0395 23.2745 12.4541 23.2745 11.8462C23.2745 11.4185 23.1614 11.1032 22.9577 10.9006C22.7314 10.653 22.4825 10.5629 22.1883 10.5629Z" fill="white"/>
<path d="M14.6249 10.8616C14.3986 10.6814 14.1271 10.5689 13.8555 10.5689C13.2671 10.5689 12.8145 10.839 12.5203 11.3794C12.2261 11.9197 12.0677 12.4601 12.0677 13.023C12.0677 13.4282 12.1809 13.766 12.4072 14.0361C12.6335 14.3063 12.9277 14.4414 13.2671 14.4414C13.7876 14.4414 14.195 14.1712 14.5118 13.6534C14.8286 13.113 14.9644 12.5276 14.9644 11.8747C14.9644 11.3794 14.8512 11.0417 14.6249 10.8616Z" fill="white"/>
<path d="M91.1106 5.21438C91.1106 7.57843 89.187 9.49219 86.8108 9.49219C84.4347 9.49219 82.5111 7.57843 82.5111 5.21438C82.5111 2.85032 84.4347 0.936563 86.8108 0.936563C89.187 0.936563 91.1106 2.85032 91.1106 5.21438Z" fill="#00B100"/>
</g>
<mask id="mask1_5_9342" style="mask-type:luminance" maskUnits="userSpaceOnUse" x="82" y="0" width="10" height="10">
<path d="M82.5072 5.21828C82.5072 7.58234 84.4307 9.49609 86.8069 9.49609C89.1831 9.49609 91.1067 7.58234 91.1067 5.21828C91.1067 2.85423 89.1831 0.94047 86.8069 0.94047C84.4307 0.94047 82.5072 2.85423 82.5072 5.21828Z" fill="white"/>
</mask>
<g mask="url(#mask1_5_9342)">
<mask id="mask2_5_9342" style="mask-type:luminance" maskUnits="userSpaceOnUse" x="82" y="0" width="12" height="13">
<path d="M93.7262 12.0078H82.0716V0.637838H93.7262V12.0078Z" fill="white"/>
</mask>
<g mask="url(#mask2_5_9342)">
<g opacity="0.4">
<path d="M83.5365 6.02325L87.3384 10.5938L92.2718 6.63114L88.5151 2.08316L86.1389 4.15452L83.5365 6.02325Z" fill="#006633"/>
</g>
</g>
</g>
<mask id="mask3_5_9342" style="mask-type:luminance" maskUnits="userSpaceOnUse" x="-41" y="-104" width="177" height="226">
<path d="M135.067 121.969H-40.1588V-103.652H135.067V121.969Z" fill="white"/>
</mask>
<g mask="url(#mask3_5_9342)">
<path d="M88.0251 4.13598H90.1976L89.8129 6.02722H87.6404L87.1878 8.12109H85.2642L85.7168 6.02722H83.5443L83.9516 4.13598H86.1241L86.5767 2.06461H88.5003L88.0251 4.13598Z" fill="white"/>
<path d="M57.5601 17.3594C57.5373 17.3594 57.5144 17.3365 57.4915 17.3365C57.5373 17.3594 57.5601 17.3594 57.5601 17.3594Z" fill="white"/>
<path d="M8.26132 8.85918L8.84971 6.1574L5.72673 7.71092L5.4778 8.85918H4.45944L4.05209 10.863H5.04783L4.52733 13.3396C4.39155 13.97 4.32366 14.3753 4.32366 14.5104C4.32366 14.9607 4.48207 15.366 4.82152 15.7262C5.13835 16.1089 5.7041 16.2891 6.49616 16.2891C6.88088 16.2891 7.51452 16.2215 8.35184 16.1089L8.78182 14.1051C8.35184 14.1952 8.05765 14.2402 7.92187 14.2402C7.49189 14.2402 7.26559 14.0826 7.26559 13.7449C7.26559 13.6098 7.28822 13.4972 7.31085 13.3847L7.85398 10.818H9.32494L9.75492 8.81415H8.26132V8.85918Z" fill="#BB0000"/>
<path d="M14.5235 13.6029C14.2067 14.1433 13.7993 14.3909 13.2788 14.3909C12.9394 14.3909 12.6678 14.2558 12.4189 13.9857C12.1926 13.7155 12.0794 13.3778 12.0794 12.9725C12.0794 12.4096 12.2378 11.8693 12.532 11.3289C12.8262 10.7886 13.2788 10.5184 13.8672 10.5184C14.1614 10.5184 14.4103 10.6084 14.6366 10.8111C14.8629 10.9912 14.9987 11.3289 14.9987 11.8017C14.9761 12.4772 14.8177 13.0851 14.5235 13.6029ZM13.9577 8.69469C13.0073 8.69469 12.1699 8.89732 11.4684 9.28007C10.7669 9.66283 10.2464 10.2032 9.88428 10.8786C9.5222 11.5541 9.34116 12.2745 9.34116 13.0175C9.34116 13.9631 9.63535 14.7287 10.2464 15.3591C10.8574 15.9895 11.8079 16.3047 13.0751 16.3047C14.0935 16.3047 14.9308 16.1021 15.6324 15.6968C16.3339 15.2915 16.8318 14.7512 17.1939 14.0532C17.5333 13.3552 17.7144 12.6798 17.7144 12.0044C17.7144 11.1263 17.4202 10.3608 16.8091 9.68534C16.2208 9.00989 15.2703 8.69469 13.9577 8.69469Z" fill="#BB0000"/>
<path d="M22.8701 13.5942C22.5985 14.1796 22.1912 14.4497 21.6707 14.4497C21.3765 14.4497 21.1502 14.3372 20.9692 14.1345C20.7881 13.9094 20.6976 13.6167 20.6976 13.1889C20.6976 12.4684 20.8334 11.838 21.1276 11.3202C21.4218 10.8023 21.7838 10.5322 22.1912 10.5322C22.4628 10.5322 22.7117 10.6447 22.938 10.8474C23.1643 11.05 23.2548 11.3877 23.2548 11.793C23.2774 12.4459 23.1417 13.0313 22.8701 13.5942ZM24.59 6.07423L23.7979 9.81169C23.2774 9.04619 22.508 8.66343 21.467 8.66343C20.4713 8.66343 19.634 9.11373 18.9777 10.0368C18.3214 10.9599 17.982 12.0181 17.982 13.2565C17.982 14.1796 18.2083 14.9225 18.6382 15.4629C19.0682 16.0033 19.7019 16.2734 20.5392 16.2734C20.9692 16.2734 21.3539 16.2059 21.6707 16.0708C21.9875 15.9357 22.3496 15.6881 22.7343 15.3278L22.7569 15.3728L22.6212 16.0933H25.2236L27.3962 6.05172H24.59V6.07423Z" fill="#BB0000"/>
<path d="M26.265 16.1172H29.0711L30.6326 8.84491H27.8038L26.265 16.1172Z" fill="#BB0000"/>
<path d="M31.2234 6.07062H28.4173L28.0326 7.98438H30.8387L31.2234 6.07062Z" fill="#BB0000"/>
<path d="M34.9117 8.85918L35.5001 6.1574L32.3771 7.71092L32.1282 8.85918H31.1098L30.7025 10.863H31.6982L31.1777 13.3396C31.0419 13.97 30.974 14.3753 30.974 14.5104C30.974 14.9607 31.1325 15.366 31.4719 15.7262C31.7887 16.1089 32.3545 16.2891 33.1466 16.2891C33.5313 16.2891 34.1649 16.2215 35.0022 16.1089L35.4322 14.1051C35.0022 14.1952 34.708 14.2402 34.5723 14.2402C34.1423 14.2402 33.916 14.0826 33.916 13.7449C33.916 13.6098 33.9386 13.4972 33.9612 13.3847L34.5044 10.818H35.9753L36.4053 8.81415H34.9117V8.85918Z" fill="#BB0000"/>
<path d="M41.1758 13.6029C40.859 14.1433 40.4517 14.3909 39.9312 14.3909C39.5917 14.3909 39.3201 14.2558 39.0712 13.9857C38.8449 13.7155 38.7318 13.3778 38.7318 12.9725C38.7318 12.4096 38.8902 11.8693 39.1844 11.3289C39.4786 10.7886 39.9312 10.5184 40.5196 10.5184C40.8137 10.5184 41.0627 10.6084 41.289 10.8111C41.5153 10.9912 41.6511 11.3289 41.6511 11.8017C41.6511 12.4772 41.4927 13.0851 41.1758 13.6029ZM40.6101 8.69469C39.6596 8.69469 38.8223 8.89732 38.1207 9.28007C37.4192 9.66283 36.8987 10.2032 36.5366 10.8786C36.1745 11.5541 35.9935 12.2745 35.9935 13.0175C35.9935 13.9631 36.3103 14.7287 36.8987 15.3591C37.5097 15.9895 38.4602 16.3047 39.7275 16.3047C40.7459 16.3047 41.5832 16.1021 42.2847 15.6968C42.9863 15.2915 43.4841 14.7512 43.8462 14.0532C44.1857 13.3552 44.3667 12.6798 44.3667 12.0044C44.3667 11.1263 44.0725 10.3608 43.4615 9.68534C42.8731 9.00989 41.9226 8.69469 40.6101 8.69469Z" fill="#BB0000"/>
<path d="M52.0977 8.12108C53.1161 8.12108 53.614 8.63892 53.5913 9.69711H56.7369C56.7143 8.18862 56.2391 7.08539 55.3112 6.34241C54.5192 5.73451 53.4555 5.4193 52.1204 5.4193C50.3326 5.4193 48.8842 6.04972 47.798 7.31055C46.757 8.50383 46.2591 9.98981 46.2591 11.791C46.2591 13.277 46.6438 14.4703 47.4133 15.3258C48.228 16.2489 49.3821 16.6992 50.921 16.6992C52.8672 16.6992 54.3155 16.1138 55.3112 14.9431C55.8996 14.2451 56.2843 13.3895 56.4654 12.3764H53.184C52.9351 13.4796 52.324 14.0425 51.3283 14.0425C50.1742 14.0425 49.5858 13.277 49.5858 11.7685C49.5858 10.8454 49.7668 10.0574 50.1515 9.38191C50.6268 8.54886 51.2604 8.12108 52.0977 8.12108Z" fill="#00B100"/>
<path d="M60.9937 14.8728C60.36 14.8728 60.0432 14.6476 60.0432 14.1973C60.0432 13.6795 60.36 13.3868 61.0163 13.3192C61.7405 13.2517 62.261 13.1391 62.6004 12.9815C62.3967 14.2423 61.8762 14.8728 60.9937 14.8728ZM62.1025 8.43352C61.0163 8.43352 60.179 8.59113 59.568 8.92885C58.8212 9.33412 58.3233 10.0321 58.097 11.0002H60.9258C61.0842 10.4599 61.4689 10.1897 62.1252 10.1897C62.7588 10.1897 63.053 10.4148 63.053 10.8651C63.053 11.2704 62.7815 11.5406 62.261 11.6531C62.2157 11.6756 61.7405 11.7207 60.8579 11.7657C59.6132 11.8558 58.6854 12.0809 58.1196 12.4412C57.4181 12.8914 57.056 13.5894 57.056 14.5575C57.056 15.2555 57.3049 15.7959 57.8254 16.1561C58.278 16.4713 58.8664 16.6289 59.5906 16.6289C60.6768 16.6289 61.4915 16.3137 62.012 15.6833H62.0347C62.0347 15.9084 62.0573 16.1561 62.1478 16.4263H65.0897C64.9992 16.066 64.9766 15.8409 64.9766 15.7283C64.9766 15.6157 65.135 14.8277 65.4518 13.3643C65.7687 11.9008 65.9271 10.9327 65.9271 10.4824C65.9271 9.13148 64.6598 8.43352 62.1025 8.43352Z" fill="#00B100"/>
<path d="M71.4091 14.2182C71.4091 14.6685 71.047 14.8936 70.3455 14.8711L70.6171 13.4752C71.1375 13.6553 71.4091 13.903 71.4091 14.2182ZM69.9155 10.7284C69.9155 10.2781 70.1871 10.0529 70.7302 10.0529L70.5039 11.2912C70.1192 11.1336 69.9155 10.9535 69.9155 10.7284ZM71.8391 10.9085H74.1247C74.1247 9.39999 73.3101 8.52192 71.658 8.31928L71.8391 7.37366H71.296L71.1149 8.27425H70.9112C70.0513 8.27425 69.3045 8.4994 68.6708 8.92718C67.9467 9.42251 67.5846 10.0754 67.5846 10.9085C67.5846 11.629 67.8109 12.1693 68.2409 12.5295C68.5124 12.7547 68.965 12.9798 69.6666 13.1825L70.0966 13.3176L69.8024 14.8261C69.3498 14.736 69.1235 14.3983 69.1008 13.8354H66.6341C66.6341 14.6459 66.8831 15.2989 67.3809 15.7717C67.8788 16.2445 68.5577 16.5372 69.4176 16.6272L69.1913 17.7305H69.7345L69.9608 16.6498C70.9791 16.6498 71.8165 16.4471 72.4954 16.0644C73.3101 15.569 73.74 14.8486 73.74 13.8804C73.74 12.7547 73.1064 12.0117 71.8165 11.674L71.0244 11.4488L71.2733 10.1205C71.6807 10.2105 71.8617 10.4807 71.8391 10.9085Z" fill="#00B100"/>
<path d="M82.586 8.92928C82.1334 8.61407 81.545 8.45647 80.7756 8.45647C80.3456 8.45647 79.9156 8.54652 79.5083 8.74915C79.0557 8.9743 78.7162 9.267 78.4447 9.62724H78.422L79.2367 5.68715H76.2269L74.0091 16.4492H77.0189L77.9015 12.3065C78.1052 11.3158 78.6031 10.8205 79.3499 10.8205C79.9156 10.8205 80.1872 11.0682 80.1872 11.5635C80.1872 11.6761 80.0967 12.1039 79.9383 12.8694L79.1688 16.4492H82.1786L83.1291 12.0363C83.2649 11.3834 83.3328 10.8881 83.3328 10.5503C83.3328 9.82987 83.0839 9.28951 82.586 8.92928Z" fill="#00B100"/>
</g>
</g>
<defs>
<clipPath id="clip0_5_9342">
<rect width="90.7421" height="18.6784" fill="white" transform="translate(0.92511)"/>
</clipPath>
</defs>
</svg>
