<svg width="81" height="22" viewBox="0 0 81 22" fill="none" xmlns="http://www.w3.org/2000/svg">
<g clip-path="url(#clip0_5_9416)">
<path d="M5.42457 1.84375L0.127625 17.2795H3.24597L4.73814 12.7738H9.03649L10.5777 17.2795H13.7598L8.45466 1.84375H5.42457ZM8.2945 10.2145H5.50465L6.66504 6.81611C6.74513 6.58359 6.81867 6.35757 6.88568 6.12343C6.95759 6.35757 7.03114 6.59822 7.11939 6.83887L8.2945 10.2145Z" fill="white"/>
<path fillRule="evenodd" clipRule="evenodd" d="M19.159 10.195C17.729 9.62268 17.5672 9.36577 17.5672 8.94788C17.5672 8.42756 18.0068 8.09748 18.7112 8.09748C19.3537 8.10407 19.9816 8.28938 20.5237 8.63244L21.1333 9.01455L21.9407 6.54951L21.5812 6.31536C20.8767 5.85195 19.8193 5.58203 18.7488 5.58203C16.3561 5.58203 14.6172 7.0926 14.6172 9.18203C14.6172 11.0975 16.3202 12.1235 17.7437 12.6373C19.1672 13.1511 19.2767 13.5316 19.2767 13.9869C19.2767 14.8373 18.3811 14.9625 17.8532 14.9625C17.0724 14.9278 16.3118 14.7045 15.637 14.3121L15.0323 13.9576L14.2331 16.4731L14.6221 16.7007C15.597 17.2429 16.6971 17.5231 17.814 17.5137C20.4567 17.5137 22.2267 16.0324 22.2267 13.8324C22.2349 11.5967 20.4731 10.6861 19.159 10.195Z" fill="white"/>
<path fillRule="evenodd" clipRule="evenodd" d="M27.0336 3.01172L24.0591 3.91416V5.70278H22.4557V8.28326H24.0591V13.402C24.0591 14.8312 24.3467 15.8507 24.9351 16.5239C25.5104 17.1613 26.3847 17.4995 27.3866 17.4995C28.0193 17.5088 28.6492 17.4149 29.2514 17.2215L29.6567 17.0816L29.4933 14.4914L28.8101 14.6995C28.5076 14.7797 28.1947 14.8142 27.8818 14.802C27.5206 14.802 27.0352 14.802 27.0352 13.3385V8.28489H29.7417V5.7044H27.0401V3.01172H27.0336Z" fill="white"/>
<path fillRule="evenodd" clipRule="evenodd" d="M37.2606 5.69097L36.6984 5.62593C36.515 5.59782 36.3298 5.58314 36.1443 5.58203C35.6709 5.58273 35.2022 5.67645 34.7652 5.85783C34.3282 6.0392 33.9316 6.30465 33.598 6.63894L33.5669 5.79341H30.6823L30.7215 6.39666C30.782 7.27634 30.8114 8.28935 30.8114 9.58853V17.2747H33.9281V11.1967C33.9281 10.9362 33.9456 10.676 33.9804 10.4178C34.2092 9.22919 34.9839 8.48772 36.0185 8.48772C36.1988 8.47967 36.3795 8.48947 36.5578 8.51699L37.2639 8.66496L37.2606 5.69097Z" fill="white"/>
<path d="M42.6335 5.58203C39.2014 5.58203 36.7956 8.06171 36.7956 11.6211C36.7956 15.0861 39.1196 17.5072 42.4521 17.5072C45.273 17.5072 48.3129 15.6146 48.3129 11.4454C48.3194 7.99667 45.9807 5.58203 42.6335 5.58203ZM45.1913 11.5121C45.1913 13.5154 44.0766 14.969 42.5502 14.969C41.0237 14.969 39.9238 13.53 39.9238 11.5544C39.9238 10.2763 40.4892 8.11862 42.5959 8.11862C44.6487 8.12024 45.1913 10.3365 45.1913 11.5121Z" fill="white"/>
<path d="M58.1366 2.95442C57.1348 2.06499 55.6344 1.6097 53.6683 1.6097C52.428 1.60301 51.1893 1.69873 49.9649 1.89588L49.4909 1.97718V17.278H52.5112V11.5869C52.8234 11.6162 53.1421 11.6243 53.4542 11.6243C55.4939 11.6243 57.223 10.9999 58.3148 9.86824C59.1679 8.99995 59.5978 7.83247 59.5978 6.39182C59.5978 5.00482 59.078 3.78369 58.1366 2.95442ZM56.5775 6.49588C56.5775 8.67149 54.6489 8.99507 53.4902 8.99507C53.1625 8.99917 52.8349 8.98179 52.5096 8.94304V4.27637C52.909 4.23338 53.3107 4.21383 53.7124 4.21783C55.0199 4.21783 56.5775 4.61458 56.5775 6.49588Z" fill="white"/>
<path d="M68.7352 14.2324V10.3625C68.7352 7.27309 67.1008 5.58203 64.1475 5.58203C62.7796 5.58203 61.3577 5.94788 60.3542 6.55764L59.9783 6.79992L60.7955 9.18691L61.4247 8.76902C62.1618 8.31886 63.0114 8.08443 63.8762 8.0926C64.4891 8.0926 64.9451 8.22593 65.2376 8.51211C65.506 8.79862 65.6626 9.1712 65.6789 9.56252C63.2846 9.62756 61.5342 10.1934 60.4702 11.2292C60.1046 11.5844 59.8168 12.011 59.625 12.4823C59.4332 12.9535 59.3415 13.4592 59.3556 13.9674C59.3556 15.7235 60.6631 17.5072 63.1571 17.5072C64.1842 17.5196 65.1869 17.1957 66.0107 16.5853L66.0941 17.2682H68.9967L68.8986 16.6178C68.7723 15.8292 68.7176 15.0308 68.7352 14.2324ZM63.6245 14.9967C63.1686 14.9967 62.4119 14.8341 62.4119 13.7625C62.4038 13.5786 62.435 13.3952 62.5034 13.2242C62.5719 13.0532 62.676 12.8986 62.809 12.7706C63.1686 12.4259 63.9612 12.0292 65.7345 11.9934V13.2259C65.7352 13.368 65.7148 13.5093 65.674 13.6454C65.4583 14.2698 64.7915 14.9967 63.6245 14.9967Z" fill="white"/>
<path fillRule="evenodd" clipRule="evenodd" d="M77.0368 5.81641L74.8288 12.218C74.7683 12.3806 74.716 12.5432 74.6654 12.7058C74.6065 12.5432 74.5542 12.392 74.5019 12.2473L72.0929 5.81641H68.7604L72.9248 16.0408L72.9395 16.0701C72.9808 16.1457 73.0132 16.226 73.0359 16.3091C73.013 16.3676 72.9689 16.4717 72.9395 16.5351C72.6048 17.2584 72.115 17.9 71.5045 18.4148L71.4898 18.4294C71.055 18.7896 70.556 19.0654 70.0189 19.2424L69.4828 19.405L70.2624 21.953L70.7609 21.8652C71.0665 21.8148 72.1436 21.5595 73.3759 20.5481C74.8566 19.2668 75.8372 17.2197 77.1234 13.8993L80.2761 5.82454H77.0368V5.81641Z" fill="white"/>
<path fillRule="evenodd" clipRule="evenodd" d="M11.401 5.85654C13.3491 3.92483 16.6489 2.76711 20.2363 2.76711C21.6016 2.76215 22.9616 2.936 24.2813 3.28418L24.3843 3.31345L26.6871 2.63865L25.6575 2.26142C23.5579 1.50479 21.3399 1.12545 19.107 1.14109C15.7418 1.14109 12.5973 1.93133 10.2504 3.36873L9.99872 3.53133L10.9663 6.29556L11.401 5.85654Z" fill="#FF0000"/>
</g>
<defs>
<clipPath id="clip0_5_9416">
<rect width="80.4103" height="20.9756" fill="white" transform="translate(-0.00128174 0.980469)"/>
</clipPath>
</defs>
</svg>
