<svg width="115" height="12" viewBox="0 0 115 12" fill="none" xmlns="http://www.w3.org/2000/svg">
<g clip-path="url(#clip0_5_9429)">
<path d="M31.9349 9.48378L32.2873 10.7906L32.1203 10.8748C31.6952 11.0895 31.2239 11.1973 30.7473 11.189C29.4567 11.189 28.6558 10.3967 28.6558 9.12179V5.27655H27.3285V3.95837H28.6558V2.08925L30.2576 1.66352V3.97886H31.9349V5.27655H30.2553V8.91917C30.251 9.02495 30.2683 9.1305 30.3062 9.22941C30.3441 9.32832 30.4019 9.41853 30.4759 9.49455C30.55 9.57057 30.6388 9.63081 30.737 9.67162C30.8352 9.71243 30.9407 9.73295 31.0471 9.73193C31.3144 9.74079 31.5792 9.67788 31.8136 9.5498L31.9349 9.48378ZM71.12 3.96748V11.1093H72.7104V3.96748H71.12ZM81.2619 7.53725C81.2619 8.25769 81.0471 8.96196 80.6448 9.56098C80.2425 10.16 79.6707 10.6269 79.0017 10.9026C78.3327 11.1783 77.5965 11.2504 76.8863 11.1099C76.176 10.9693 75.5237 10.6224 75.0116 10.113C74.4996 9.60355 74.1509 8.95449 74.0096 8.24789C73.8683 7.54129 73.9408 6.80888 74.2179 6.14328C74.4951 5.47768 74.9643 4.90877 75.5664 4.50852C76.1685 4.10826 76.8764 3.89462 77.6006 3.89462C78.0843 3.88406 78.5651 3.97106 79.0142 4.15037C79.4632 4.32969 79.871 4.59762 80.2131 4.938C80.5553 5.27837 80.8246 5.68415 81.0048 6.13087C81.185 6.57759 81.2725 7.056 81.2619 7.53725ZM79.6761 7.53725C79.6761 6.28282 78.8042 5.36989 77.6051 5.36989C76.4061 5.36989 75.5205 6.28054 75.5205 7.53725C75.5205 8.79395 76.3969 9.70461 77.6051 9.70461C78.8134 9.70461 79.6761 8.79395 79.6761 7.53725ZM60.4359 7.35057C60.4359 7.35057 60.5824 9.57485 58.1361 9.57485C55.6899 9.57485 55.8364 7.33918 55.8364 7.33918V1.60432H54.1568V7.28454C54.1568 9.65908 55.7197 11.189 58.1361 11.189C60.5526 11.189 62.1155 9.65908 62.1155 7.29593V1.60432H60.4336V7.35057H60.4359ZM71.9164 0.609432C71.6832 0.607167 71.4544 0.672214 71.2576 0.796699C71.0608 0.921183 70.9045 1.09976 70.8076 1.31081C70.7107 1.52186 70.6775 1.75632 70.7118 1.9858C70.7461 2.21528 70.8466 2.42994 71.0011 2.60377H72.8157C72.9701 2.42994 73.0706 2.21528 73.1049 1.9858C73.1393 1.75632 73.106 1.52186 73.0091 1.31081C72.9123 1.09976 72.756 0.921183 72.5592 0.796699C72.3624 0.672214 72.1335 0.607167 71.9004 0.609432H71.9164ZM44.1934 3.91056C43.6727 3.96918 43.1785 4.17012 42.7655 4.49111V3.97658H41.1637V11.1184H42.7655V6.76775C42.7643 6.62128 42.7915 6.47595 42.8456 6.33974C42.9921 5.97259 43.2735 5.67468 43.6328 5.50649C43.8588 5.40874 44.1026 5.35837 44.349 5.35851C44.626 5.35247 44.9009 5.40687 45.1545 5.51787V3.99025C44.842 3.90379 44.516 3.87676 44.1934 3.91056ZM11.9282 1.61571L10.0975 8.37733L7.91218 1.61571H6.22112L4.03578 8.37733L2.20512 1.61343H0.53923L3.10214 11.1093H4.77719L7.08152 4.05171L9.38128 11.1093H11.0563L13.617 1.6066L11.9282 1.61571ZM17.0838 11.1958C16.6001 11.2061 16.1194 11.1188 15.6705 10.9394C15.2217 10.76 14.8139 10.492 14.4719 10.1517C14.1298 9.81141 13.8605 9.40576 13.6802 8.95919C13.4998 8.51261 13.4122 8.03435 13.4224 7.55319C13.4169 7.09243 13.4944 6.63442 13.6513 6.20086C13.8979 5.54538 14.3343 4.97734 14.9053 4.56851C15.5349 4.12349 16.2886 3.88547 17.0609 3.88779C17.5089 3.87197 17.9552 3.95062 18.3704 4.11855C18.7857 4.28648 19.1606 4.53991 19.4705 4.8622C19.8653 5.30298 20.1499 5.8303 20.3011 6.40121C20.4238 6.90312 20.4761 7.41949 20.4567 7.93566H15.0014L15.0334 8.09047C15.1345 8.55415 15.3961 8.96774 15.7726 9.25903C16.149 9.55032 16.6163 9.70078 17.0929 9.68412C17.4254 9.6873 17.7553 9.62428 18.063 9.49878C18.3707 9.37327 18.6501 9.18782 18.8847 8.95332L19.9739 9.96415C19.6061 10.3598 19.1586 10.674 18.6607 10.8862C18.1627 11.0984 17.6254 11.2039 17.0838 11.1958ZM18.8183 6.79734C18.76 6.33944 18.5223 5.92297 18.157 5.63853C17.8052 5.38643 17.3769 5.26262 16.9442 5.28793C16.66 5.29179 16.3799 5.35663 16.1232 5.47804C15.8665 5.59945 15.6392 5.77457 15.4568 5.99141C15.2641 6.2298 15.1188 6.50256 15.0288 6.79506H18.8183V6.79734ZM36.5802 11.1958C36.0967 11.2057 35.6161 11.1183 35.1674 10.9387C34.7187 10.7592 34.3111 10.4913 33.9691 10.151C33.6271 9.81076 33.3577 9.40524 33.1773 8.95881C32.9968 8.51238 32.9089 8.03427 32.9189 7.55319C32.917 7.09174 32.9984 6.63371 33.1592 6.20086C33.4066 5.54585 33.8428 4.97803 34.4132 4.56851C35.0413 4.13087 35.7905 3.89781 36.5573 3.90146C37.0054 3.8852 37.4518 3.96364 37.8671 4.1316C38.2825 4.29956 38.6573 4.55322 38.9669 4.87586C39.3626 5.31604 39.6473 5.84357 39.7976 6.41487C39.9202 6.91678 39.9726 7.43315 39.9532 7.94932H34.4864L34.5184 8.10413C34.6195 8.5678 34.8811 8.98141 35.2576 9.27269C35.634 9.56398 36.1013 9.71444 36.5779 9.69778C36.9105 9.70096 37.2403 9.63794 37.548 9.51244C37.8557 9.38693 38.1351 9.20148 38.3697 8.96698L39.4589 9.97781C39.0911 10.3694 38.6449 10.6801 38.1491 10.8899C37.6533 11.0997 37.1189 11.2039 36.5802 11.1958ZM38.3125 6.79734C38.2551 6.33912 38.0173 5.92231 37.6511 5.63853C37.3002 5.3866 36.8727 5.26277 36.4406 5.28793C36.156 5.29146 35.8756 5.35615 35.6184 5.47757C35.3613 5.59899 35.1336 5.77428 34.9509 5.99141C34.7595 6.23026 34.6151 6.50292 34.5253 6.79506H38.3125V6.79734ZM24.3698 6.74498C23.6833 6.58106 23.189 6.40576 23.1798 6.00052C23.1798 5.4564 23.6512 5.29021 24.4842 5.29021H25.9212V3.97431H24.4979C23.2485 3.97431 21.6764 4.24067 21.6764 6.09841C21.6924 6.92939 22.2622 7.57595 23.324 7.90834C23.5666 7.98347 23.816 8.04266 24.0563 8.09958C24.7954 8.27488 25.4292 8.45246 25.4292 8.99886C25.4292 9.49289 24.7748 9.79112 24.2187 9.80023C23.5314 9.79333 22.8742 9.51871 22.3881 9.03528L21.3515 9.9983C21.3515 9.9983 22.2668 11.1913 24.2805 11.1913C25.6032 11.1913 26.9578 10.3375 26.935 8.94421C26.9121 7.55091 25.6306 7.03639 24.3698 6.73815V6.74498ZM66.9164 3.88779C66.2768 3.86232 65.6461 4.04276 65.1178 4.40232V3.96748H63.516V11.1093H65.1178V6.78368C65.1227 6.59152 65.1663 6.40229 65.246 6.22716C65.3256 6.05204 65.4398 5.89456 65.5816 5.76405C65.7235 5.63353 65.8902 5.53262 66.0719 5.46727C66.2536 5.40192 66.4466 5.37345 66.6395 5.38355C66.8382 5.37323 67.0367 5.40479 67.2223 5.47616C67.4078 5.54752 67.5761 5.65707 67.7161 5.79765C67.8561 5.93822 67.9646 6.10664 68.0346 6.29187C68.1047 6.4771 68.1346 6.67495 68.1224 6.87247V11.0979H69.7242V6.7723C69.715 5.01246 68.5732 3.88779 66.9164 3.88779ZM49.9531 3.88779C49.3128 3.86183 48.6811 4.04229 48.1522 4.40232V3.96748H46.5618V11.1093H48.1522V6.78368C48.1574 6.59141 48.2013 6.40213 48.2812 6.227C48.3611 6.05186 48.4755 5.89441 48.6175 5.76392C48.7595 5.63344 48.9264 5.53256 49.1082 5.46723C49.29 5.4019 49.4832 5.37345 49.6762 5.38355C49.8749 5.37323 50.0735 5.40479 50.259 5.47616C50.4445 5.54752 50.6128 5.65707 50.7528 5.79765C50.8928 5.93822 51.0013 6.10664 51.0714 6.29187C51.1414 6.4771 51.1713 6.67495 51.1591 6.87247V11.0979H52.7586V6.7723C52.7586 5.01246 51.6144 3.88779 49.9531 3.88779ZM85.8797 3.88779C85.2401 3.86232 84.6094 4.04276 84.0811 4.40232V3.96748H82.4792V11.1093H84.0811V6.78368C84.0863 6.59141 84.1302 6.40213 84.2101 6.227C84.29 6.05186 84.4043 5.89441 84.5463 5.76392C84.6884 5.63344 84.8552 5.53256 85.0371 5.46723C85.2189 5.4019 85.412 5.37345 85.6051 5.38355C85.8036 5.3732 86.0021 5.40475 86.1875 5.47614C86.373 5.54752 86.5411 5.65712 86.6809 5.79774C86.8207 5.93835 86.9291 6.1068 86.9988 6.29203C87.0686 6.47725 87.0982 6.67506 87.0856 6.87247V11.0979H88.6875V6.7723C88.6852 5.01246 87.541 3.88779 85.8751 3.88779H85.8797Z" fill="white"/>
<path d="M106.891 1.60938L104.292 11.1121H102.415L100.438 4.82399L98.4677 11.1235H96.5936L93.9689 1.62076H96.0078L97.6096 7.63564L99.4861 1.62076H101.376L103.287 7.68118L104.859 1.62076L106.891 1.60938ZM112.896 1.60938V7.47628C112.91 7.96965 112.741 8.45107 112.422 8.8286C112.086 9.18148 111.582 9.36133 110.923 9.36133C110.264 9.36133 109.761 9.18148 109.424 8.8286C109.106 8.45043 108.937 7.96945 108.951 7.47628V1.60938H108.102L106.891 6.03517V7.40115C106.891 8.57362 107.273 9.56623 107.994 10.272C108.715 10.9777 109.726 11.3511 110.923 11.3511C112.12 11.3511 113.131 10.9777 113.852 10.272C114.573 9.56623 114.955 8.57362 114.955 7.40115V1.60938H112.896Z" fill="white"/>
<path d="M92.8902 11.1121L90.2677 1.60938H90.9359L93.5629 11.1121H92.8902ZM95.4073 11.1121L92.7826 1.60938H92.1167L94.7391 11.1121H95.4073Z" fill="white"/>
</g>
<defs>
<clipPath id="clip0_5_9429">
<rect width="114.645" height="10.9279" fill="white" transform="translate(0.355469 0.492188)"/>
</clipPath>
</defs>
</svg>
