<svg width="70" height="22" viewBox="0 0 70 22" fill="none" xmlns="http://www.w3.org/2000/svg">
<g clip-path="url(#clip0_5_9435)">
<path d="M64.6107 21.1495H69.6168V1.61328H64.6107V21.1495Z" fill="#2D32AA"/>
<path d="M10.315 1.07031C5.62153 1.07031 0.692688 2.70599 0.692688 2.70599V21.2303H5.85688V6.12955C5.85688 6.12955 7.6556 5.35185 10.3957 5.35185C13.7578 5.35185 15.0892 7.14139 15.0892 9.94446V21.15H20.1744V9.94446C20.1744 3.95031 17.3586 1.07031 10.3167 1.07031" fill="#2D32AA"/>
<path d="M63.2001 1.616H57.0189L52.3254 7.376L49.8223 4.10631C48.5699 2.4723 46.4602 1.53906 44.4245 1.53906H41.3733L49.1179 11.2678L41.138 21.1522H47.2402L52.2481 15.0811L55.1412 18.6618C56.3935 20.2959 58.5033 21.1522 60.5407 21.1522H63.5128L55.4555 11.1173L63.2001 1.616Z" fill="#2D32AA"/>
<path d="M32.2971 5.27245C34.5665 5.27245 36.4442 6.27593 37.1486 8.07384L26.9782 9.86339C27.5262 6.90645 29.6376 5.27245 32.2971 5.27245ZM41.9984 17.4129L38.6363 14.6901C37.5403 15.9345 35.7415 17.4129 32.7694 17.4129C30.416 17.4129 28.3096 16.1686 27.3699 13.9894L42.4691 11.3435C42.4714 9.92439 42.1783 8.52016 41.6084 7.21921C40.8331 5.36154 39.518 3.77648 37.8315 2.66715C36.1451 1.55781 34.1641 0.974715 32.1424 0.992586C26.3529 0.992586 21.888 5.11691 21.888 11.3435C21.888 17.4146 26.2688 21.6961 32.6837 21.6961C37.6125 21.7747 40.5073 19.2828 41.9934 17.4146" fill="#2D32AA"/>
</g>
<defs>
<clipPath id="clip0_5_9435">
<rect width="68.9231" height="20.7387" fill="white" transform="translate(0.692688 0.980469)"/>
</clipPath>
</defs>
</svg>
