<svg width="105" height="20" viewBox="0 0 105 20" fill="none" xmlns="http://www.w3.org/2000/svg">
<path d="M13.8556 9.1404C13.825 8.46897 13.6362 7.81426 13.3048 7.22953L10.288 2.01145C10.0626 1.62084 9.90253 1.19607 9.81397 0.753906L9.68587 0.967412C9.31981 1.6036 9.12715 2.32472 9.12715 3.0587C9.12715 3.79268 9.31981 4.5138 9.68587 5.14998L12.0985 9.33256C12.4637 9.96902 12.6559 10.69 12.6559 11.4238C12.6559 12.1577 12.4637 12.8787 12.0985 13.5151L11.9704 13.7286C11.8811 13.2864 11.7203 12.8616 11.4943 12.4711L9.28875 8.64721L7.87747 6.20897C7.65147 5.81846 7.49066 5.3937 7.40136 4.95143L7.27325 5.16493C6.90925 5.79902 6.71665 6.51698 6.7144 7.24812C6.71216 7.97926 6.90035 8.69838 7.26044 9.33469L9.68587 13.5408C10.0519 14.1769 10.2446 14.8981 10.2446 15.632C10.2446 16.366 10.0519 17.0871 9.68587 17.7233L9.55776 17.9368C9.46884 17.4948 9.30877 17.0701 9.08378 16.6793L6.06695 11.4057C5.66641 10.7181 5.47498 9.92868 5.5161 9.134C2.28363 9.98802 0.0631714 11.7708 0.0631714 13.8503C0.0631714 16.7369 4.37385 19.0727 9.69868 19.0727C15.0235 19.0727 19.3342 16.7369 19.3342 13.8503C19.3214 11.7708 17.0881 9.98802 13.8556 9.1404ZM22.9531 18.0585C22.9716 17.437 23.0883 16.8223 23.299 16.2373C24.343 16.6938 25.4689 16.9335 26.6083 16.9419C28.2907 16.9419 29.2387 16.4039 29.2387 15.3257C29.2387 14.2475 28.5469 13.7863 26.8517 13.0412L25.9294 12.644C24.2213 11.8989 23.0684 10.936 23.0684 9.01444C23.0684 6.94984 24.4925 5.62824 27.4303 5.62824C28.5552 5.61496 29.6742 5.79256 30.7396 6.15346C30.7009 6.77021 30.5803 7.37906 30.381 7.96399C29.4289 7.62636 28.4276 7.44818 27.4175 7.43663C25.8397 7.43663 25.1202 8.05366 25.1202 9.01444C25.1202 9.97521 25.8269 10.509 27.0972 11.0427L28.0708 11.4527C30.3681 12.4284 31.3311 13.4682 31.3311 15.2125C31.3311 17.2899 29.7533 18.7268 26.6852 18.7268C25.1842 18.7503 23.9758 18.5325 22.9531 18.0585ZM41.0306 9.41156V18.4514H39.2073L39.1048 17.3604C38.6052 18.1567 37.8238 18.6692 36.5427 18.6692C34.1557 18.6692 32.5651 16.9376 32.5651 13.8973C32.5651 10.7161 34.2732 8.90555 37.6188 8.90555C38.7771 8.87086 39.9323 9.0422 41.0306 9.41156ZM39.0407 16.3911V10.7075C38.5702 10.6299 38.0935 10.5956 37.6167 10.6051C35.5521 10.6051 34.5892 11.8733 34.5892 13.9016C34.5892 15.7484 35.3343 17.0444 37.1043 17.0444C37.8048 17.0502 38.4869 16.8201 39.0407 16.3911ZM51.2298 12.375V18.4514H49.242V12.7209C49.242 11.2968 48.7659 10.6051 46.7782 10.6051C46.2494 10.6108 45.7218 10.6579 45.2004 10.746V18.4514H43.2105V9.41156C44.3984 9.11242 45.6156 8.94417 46.8401 8.90982C50.1516 8.89701 51.2298 10.193 51.2298 12.375ZM56.7468 16.9803C57.2761 16.9845 57.8019 16.8934 58.2989 16.7113C58.2477 17.2493 58.1708 17.8664 58.0684 18.3916C57.5323 18.5964 56.9619 18.6965 56.3881 18.6862C54.4516 18.6862 53.2197 17.8023 53.2197 15.5947V6.08727C53.8636 5.88934 54.5337 5.79001 55.2074 5.79264V9.20873H58.3502C58.3205 9.78083 58.2606 10.351 58.1708 10.9168H55.2074V15.3556C55.2074 16.5298 55.7881 16.9803 56.7468 16.9803ZM67.422 9.41156V18.4514H65.6094L65.5069 17.3604C64.9923 18.1567 64.2259 18.6692 62.9448 18.6692C60.5578 18.6692 58.9672 16.9376 58.9672 13.8973C58.9672 10.7161 60.6753 8.90555 64.0209 8.90555C65.1755 8.87289 66.3269 9.04419 67.422 9.41156ZM65.4322 16.3911V10.7075C64.9616 10.6299 64.4849 10.5956 64.0081 10.6051C61.9435 10.6051 60.9806 11.8733 60.9806 13.9016C60.9806 15.7484 61.7257 17.0444 63.4957 17.0444C64.1963 17.0506 64.8785 16.8204 65.4322 16.3911ZM77.602 12.375V18.4514H75.6142V12.7209C75.6142 11.2968 75.1403 10.6051 73.1504 10.6051C72.6216 10.6108 72.094 10.6579 71.5726 10.746V18.4514H69.5848V9.41156C70.7686 9.11306 71.9814 8.94481 73.2016 8.90982C76.5451 8.89701 77.6084 10.193 77.6084 12.375H77.602ZM87.7008 5.79264V18.4514H85.8924L85.7899 17.2963C85.2775 18.1503 84.5089 18.6692 83.198 18.6692C80.8131 18.6692 79.2204 16.9376 79.2204 13.8973C79.2204 10.7161 80.9284 8.90555 84.2762 8.90555C84.7777 8.90505 85.2781 8.95223 85.7707 9.04646V6.06806C86.396 5.86734 87.0508 5.77422 87.7072 5.79264H87.7008ZM85.7365 16.3654V10.7972C85.2132 10.687 84.6806 10.6269 84.1459 10.6179C82.171 10.6179 81.2337 11.8477 81.2337 13.9144C81.2337 15.7612 81.9788 17.0572 83.7488 17.0572C84.4706 17.0471 85.1699 16.8045 85.7429 16.3654H85.7365ZM97.7078 14.5805H91.3624C91.6208 16.1989 92.5559 16.9675 94.3259 16.9675C95.4246 16.9705 96.5108 16.7344 97.5092 16.2758C97.4324 16.801 97.3299 17.4949 97.2018 18.0842C96.2755 18.4887 95.2723 18.6869 94.2618 18.6649C90.9269 18.6649 89.3234 16.8181 89.3234 13.7265C89.3234 11.0321 90.5682 8.88847 93.7366 8.88847C96.5719 8.88847 97.7932 10.7502 97.7932 13.0326C97.8193 13.5499 97.7928 14.0686 97.7142 14.5805H97.7078ZM91.3176 12.9259H95.8012C95.8012 11.4313 95.0048 10.5773 93.632 10.5773C92.2356 10.5645 91.4905 11.3865 91.324 12.9259H91.3176ZM104.681 8.97387C104.684 9.54807 104.624 10.1208 104.502 10.6819C104.005 10.6287 103.506 10.603 103.007 10.6051C102.518 10.6072 102.029 10.6415 101.544 10.7075V18.4514H99.5568V9.41156C100.66 9.08016 101.806 8.91114 102.958 8.90982C103.533 8.89573 104.108 8.91712 104.681 8.97387Z" fill="#EC0000"/>
</svg>
