<svg width="82" height="33" viewBox="0 0 82 33" fill="none" xmlns="http://www.w3.org/2000/svg">
<g clip-path="url(#clip0_5_9459)">
<path d="M31.4139 11.1661C33.2608 11.1661 34.3898 12.2927 34.3898 14.3102V22.8988H36.4439V14.2176C36.4439 11.346 34.7479 9.48047 31.6526 9.48047C29.2421 9.48047 27.8428 10.6351 27.0686 12.2054C26.4435 10.6665 24.8072 9.48047 22.6319 9.48047C20.9061 9.48047 19.4717 10.1023 18.464 11.7023V9.8368H16.4414V22.8953H18.4885V14.663C18.4885 12.7416 19.9458 11.1696 22.3879 11.1696C24.263 11.1696 25.3954 12.2944 25.3954 14.3137V22.9023H27.4425V14.8097C27.4425 12.5302 29.049 11.1661 31.3998 11.1661" fill="#1DCA7A"/>
<path d="M72.3738 6.96298H74.3665C74.3788 6.57603 74.3488 6.18889 74.2769 5.8084C73.6186 2.25556 70.7059 0.269531 67.4912 0.269531C63.7411 0.269531 60.7336 3.1132 60.7336 6.96123C60.7336 11.1359 63.2635 12.6468 63.2635 16.556C63.2635 19.3997 61.4763 21.5604 58.6777 21.5604C55.7914 21.5604 53.9374 19.1901 53.9374 16.3778C53.9374 13.5656 55.7246 11.6984 57.7191 11.3752C57.9452 11.34 58.1733 11.3196 58.4021 11.3141V9.59704C58.1337 9.60399 57.866 9.6244 57.5997 9.65818C54.8995 9.98481 51.8867 12.3272 51.8867 16.3813C51.8867 20.1717 54.6835 23.2494 58.6443 23.2494C62.5068 23.2494 65.3704 20.2294 65.3704 16.5263C65.3704 12.2346 62.8404 10.6643 62.8404 6.96298C62.8404 3.85381 64.8647 1.96036 67.5123 1.96036C69.8351 1.96036 71.7101 3.23372 72.2772 6.07564C72.3053 6.34115 72.3668 6.69748 72.3668 6.96298" fill="#1DCA7A"/>
<path d="M74.3677 9.47923C72.3136 9.47923 70.6808 10.5168 69.6362 12.2932V9.83381H67.582V30.9832H69.6414V15.8792C69.6414 12.9203 71.6956 11.1631 74.1957 11.1631C77.082 11.1631 78.9887 13.3832 78.9887 16.1674C78.9887 19.219 77.233 21.5561 74.1957 21.5561C73.4405 21.5697 72.6905 21.4288 71.9923 21.1421V22.8888C72.706 23.1102 73.4482 23.2279 74.1957 23.2382C78.4831 23.2382 81.0709 20.129 81.0709 16.1605C81.0802 15.2908 80.9172 14.4279 80.5913 13.621C80.2653 12.8141 79.7828 12.0789 79.1713 11.4575C78.5597 10.8361 77.8312 10.3407 77.0272 9.99945C76.2231 9.65821 75.3594 9.47788 74.4854 9.46875H74.3748" fill="#1DCA7A"/>
<path d="M44.2961 9.48047C41.645 9.48047 39.6224 10.7032 39.1765 12.7678H41.2307C41.6485 11.5835 42.8108 11.1678 44.2961 11.1678C46.0518 11.1678 47.5107 11.9084 47.5107 13.8927V14.242C47.5107 14.953 47.1596 15.3966 46.2308 15.3966H43.1689C40.4898 15.3966 38.6445 16.8464 38.6445 19.2394C38.6445 21.5765 40.6372 23.2359 43.3761 23.2359C45.0738 23.2359 46.6522 22.5861 47.5441 21.0752V22.8813H49.5631V13.9224C49.5631 11.2289 47.5388 9.48047 44.2961 9.48047ZM47.5107 18.1582C47.5107 20.525 45.6638 21.622 43.6991 21.622C41.4958 21.622 40.7145 20.3783 40.7145 19.2534C40.7145 17.8909 41.5186 16.9425 43.4533 16.9425H45.8358C46.5205 16.9425 47.1754 16.8254 47.5002 16.4394L47.5107 18.1582Z" fill="#1DCA7A"/>
<path d="M7.57758 9.48047C3.82744 9.48047 0.851562 12.3521 0.851562 16.3818C0.851562 20.4115 3.82042 23.2499 7.57758 23.2499C11.3347 23.2499 14.3352 20.408 14.3352 16.3818C14.3352 12.3556 11.3505 9.48047 7.57758 9.48047ZM7.57758 21.5626C4.78078 21.5626 2.93556 19.3407 2.93556 16.3818C2.93556 13.4228 4.772 11.1678 7.57758 11.1678C10.3832 11.1678 12.2442 13.4176 12.2442 16.3818C12.2442 19.346 10.3972 21.5626 7.57758 21.5626Z" fill="#1DCA7A"/>
<path d="M1.42969 30.9635V25.7617H2.0986V30.394H4.66014V30.9635H1.42969Z" fill="white"/>
<path d="M7.50619 28.4862C7.50619 28.0023 7.14276 27.7718 6.62835 27.7718C6.24735 27.7802 5.88163 27.9225 5.59601 28.1735L5.24487 27.6897C5.64409 27.355 6.15204 27.1762 6.674 27.1866C7.6168 27.1866 8.15228 27.7228 8.15228 28.4932V30.9665H7.49741V30.5421C7.27444 30.9106 6.77934 31.0661 6.3808 31.0661C5.56441 31.0661 5.04297 30.5805 5.04297 29.8905C5.04297 29.2006 5.53807 28.7796 6.34744 28.7796H7.21475C7.42016 28.7796 7.48688 28.6731 7.48688 28.5176L7.50619 28.4862ZM6.04371 25.6914C6.17031 25.6945 6.29087 25.7459 6.38042 25.835C6.46997 25.9241 6.52165 26.044 6.52476 26.17C6.52113 26.2948 6.46895 26.4134 6.37923 26.5007C6.2895 26.588 6.16922 26.6373 6.04371 26.6381C5.91934 26.6368 5.80046 26.587 5.71251 26.4995C5.62457 26.412 5.57455 26.2937 5.57318 26.17C5.57404 26.0451 5.62357 25.9255 5.71133 25.8362C5.79909 25.7469 5.91825 25.695 6.04371 25.6914ZM7.50619 29.618V29.2146C7.3876 29.3017 7.23999 29.3405 7.09361 29.3228H6.51599C6.00157 29.3228 5.747 29.5255 5.747 29.8975C5.747 30.2102 5.98577 30.5141 6.50018 30.5141C7.0146 30.5141 7.50619 30.2591 7.50619 29.6111M7.40787 25.6914C7.53432 25.6941 7.65487 25.7451 7.74446 25.8339C7.83405 25.9227 7.8858 26.0425 7.88893 26.1683C7.88486 26.2929 7.83255 26.4112 7.74292 26.4985C7.65328 26.5857 7.53325 26.6351 7.40787 26.6364C7.28337 26.6355 7.16422 26.5859 7.07618 26.4983C6.98814 26.4107 6.93827 26.2921 6.93735 26.1683C6.93778 26.0434 6.98721 25.9237 7.07512 25.8346C7.16302 25.7455 7.28243 25.6941 7.40787 25.6914Z" fill="white"/>
<path d="M9.78417 30.9682H9.13281V25.7734H9.78417V27.7909C9.93703 27.6018 10.131 27.4497 10.3514 27.3459C10.5719 27.2421 10.8132 27.1894 11.057 27.1918C11.9349 27.1918 12.4212 27.742 12.4212 28.5647V30.9717H11.7663V28.5996C11.7787 28.4873 11.7661 28.3737 11.7295 28.2667C11.6929 28.1598 11.6331 28.0621 11.5544 27.9807C11.4757 27.8992 11.38 27.8359 11.2741 27.7953C11.1681 27.7547 11.0545 27.7377 10.9412 27.7455C10.569 27.7455 10.1652 27.9516 9.78417 28.3865V30.9682Z" fill="white"/>
<path d="M13.8505 29.3159C13.9331 29.9832 14.3614 30.4827 15.0497 30.4827C15.2384 30.491 15.4264 30.4535 15.5973 30.3735C15.7683 30.2935 15.9172 30.1733 16.0311 30.0234H16.8089C16.6386 30.3411 16.3834 30.6059 16.0714 30.7884C15.7594 30.9709 15.4028 31.064 15.0409 31.0574C13.9576 31.0574 13.1641 30.2452 13.1641 29.1186C13.1641 27.9919 13.9506 27.1797 15.0304 27.1797C15.989 27.1797 16.8879 27.798 16.8879 29.2915V29.3159H13.8505ZM13.8663 28.7814H16.1294C16.1124 28.5031 15.9891 28.2417 15.7848 28.0508C15.5805 27.8599 15.3106 27.7538 15.0304 27.7544C14.386 27.7544 13.9769 28.1823 13.8663 28.7814Z" fill="white"/>
<path d="M18.292 25.7617H17.6406V30.9617H18.292V25.7617Z" fill="white"/>
<path d="M19.9404 25.7617H19.2891V30.9617H19.9404V25.7617Z" fill="white"/>
<path d="M23.1294 28.4862C23.1294 28.0023 22.7643 27.7718 22.2516 27.7718C21.8712 27.7806 21.5062 27.9229 21.221 28.1735L20.8699 27.6897C21.2688 27.3544 21.7769 27.1755 22.299 27.1866C23.24 27.1866 23.7755 27.7228 23.7755 28.4932V30.9665H23.1242V30.5421C22.9012 30.9106 22.4061 31.0661 22.0076 31.0661C21.1912 31.0661 20.668 30.5805 20.668 29.8905C20.668 29.2006 21.1648 28.7796 21.9742 28.7796H22.8415C23.0487 28.7796 23.1136 28.6731 23.1136 28.5176L23.1294 28.4862ZM21.667 25.6914C21.7934 25.6945 21.9137 25.746 22.003 25.8351C22.0923 25.9243 22.1436 26.0442 22.1463 26.17C22.1435 26.2948 22.0919 26.4136 22.0023 26.5011C21.9128 26.5885 21.7924 26.6377 21.667 26.6381C21.5424 26.6372 21.4233 26.5876 21.3353 26.5C21.2472 26.4124 21.1973 26.2939 21.1964 26.17C21.1968 26.045 21.2462 25.9251 21.3341 25.8357C21.4219 25.7464 21.5413 25.6946 21.667 25.6914ZM23.1294 29.618V29.2146C23.0102 29.3018 22.862 29.3406 22.7151 29.3228H22.1375C21.6266 29.3228 21.3702 29.5255 21.3702 29.8975C21.3702 30.2102 21.609 30.5141 22.1217 30.5141C22.6343 30.5141 23.1312 30.2591 23.1312 29.6111M23.0311 25.6914C23.1574 25.6941 23.2777 25.7452 23.3671 25.834C23.4564 25.9229 23.5077 26.0426 23.5104 26.1683C23.5068 26.2928 23.4549 26.4111 23.3655 26.4983C23.2762 26.5856 23.1563 26.6351 23.0311 26.6364C22.9064 26.6355 22.7871 26.5859 22.6988 26.4984C22.6105 26.4108 22.5602 26.2923 22.5588 26.1683C22.5597 26.0433 22.6095 25.9235 22.6977 25.8345C22.7859 25.7455 22.9055 25.6941 23.0311 25.6914Z" fill="white"/>
<path d="M26.6751 27.8207H26.0869V27.2844H27.3264V31.6407C27.3264 32.3307 26.7874 32.4128 26.3924 32.4128H25.9219V31.8748H26.273C26.496 31.8748 26.668 31.8346 26.668 31.5552L26.6751 27.8207ZM26.9472 25.6914C27.0829 25.6923 27.2127 25.7464 27.3087 25.8418C27.4046 25.9373 27.4589 26.0665 27.4599 26.2014C27.4594 26.2679 27.4458 26.3336 27.4197 26.3948C27.3937 26.456 27.3558 26.5114 27.3081 26.558C27.2605 26.6046 27.2041 26.6413 27.1422 26.6662C27.0802 26.691 27.014 26.7035 26.9472 26.7028C26.8146 26.7037 26.6871 26.6524 26.5923 26.5602C26.4976 26.4679 26.4434 26.3421 26.4416 26.2102V26.2014C26.4406 26.0677 26.4929 25.939 26.587 25.8435C26.681 25.7479 26.8093 25.6932 26.9437 25.6914" fill="white"/>
<path d="M30.4929 28.4797C30.4929 27.9959 30.1295 27.7653 29.6151 27.7653C29.2347 27.7741 28.8697 27.9164 28.5845 28.167L28.2334 27.6832C28.6317 27.3482 29.1392 27.1693 29.6607 27.1802C30.6035 27.1802 31.139 27.7042 31.139 28.4867V30.9601H30.4876V30.5356C30.2647 30.9042 29.7678 31.0596 29.371 31.0596C28.5546 31.0596 28.0314 30.574 28.0314 29.8841C28.0314 29.1941 28.5283 28.7732 29.3377 28.7732H30.2032C30.4122 28.7732 30.4771 28.6666 30.4771 28.5112L30.4929 28.4797ZM30.4929 29.6064V29.2029C30.3742 29.2899 30.2267 29.3286 30.0803 29.3112H29.501C28.9901 29.3112 28.7337 29.5138 28.7337 29.8858C28.7337 30.1985 28.9725 30.5007 29.4852 30.5007C29.9978 30.5007 30.4929 30.2457 30.4929 29.5976" fill="white"/>
<path d="M34.5146 25.7617H33.8633V30.9617H34.5146V25.7617Z" fill="white"/>
<path d="M37.7037 28.4862C37.7037 28.0023 37.3402 27.7718 36.8258 27.7718C36.4454 27.7806 36.0804 27.9229 35.7952 28.1735L35.4441 27.6897C35.8431 27.3547 36.3512 27.1758 36.8732 27.1866C37.8143 27.1866 38.3497 27.7228 38.3497 28.4932V30.9665H37.6984V30.5421C37.4754 30.9106 36.9803 31.0661 36.5818 31.0661C35.7654 31.0661 35.2422 30.5805 35.2422 29.8905C35.2422 29.2006 35.739 28.7796 36.5484 28.7796H37.4175C37.6229 28.7796 37.6896 28.6731 37.6896 28.5176L37.7037 28.4862ZM36.2412 25.6914C36.3676 25.6945 36.488 25.746 36.5772 25.8351C36.6665 25.9243 36.7178 26.0442 36.7205 26.17C36.7177 26.2948 36.6661 26.4136 36.5765 26.5011C36.487 26.5885 36.3666 26.6377 36.2412 26.6381C36.1167 26.6372 35.9975 26.5876 35.9095 26.5C35.8214 26.4124 35.7716 26.2939 35.7706 26.17C35.7711 26.045 35.8204 25.9251 35.9083 25.8357C35.9962 25.7464 36.1156 25.6946 36.2412 25.6914ZM37.7037 29.618V29.2146C37.585 29.3016 37.4374 29.3403 37.2911 29.3228H36.7117C36.199 29.3228 35.9445 29.5255 35.9445 29.8975C35.9445 30.2102 36.1832 30.5141 36.6959 30.5141C37.2086 30.5141 37.7037 30.2591 37.7037 29.6111M37.6053 25.6914C37.7314 25.6941 37.8516 25.7453 37.9406 25.8342C38.0297 25.9231 38.0806 26.0428 38.0829 26.1683C38.0801 26.2928 38.0287 26.4113 37.9396 26.4987C37.8504 26.5861 37.7305 26.6355 37.6053 26.6364C37.4807 26.6359 37.3613 26.5865 37.2731 26.4988C37.185 26.4111 37.1353 26.2923 37.1348 26.1683C37.1348 26.0433 37.1841 25.9233 37.2721 25.8341C37.3601 25.7449 37.4797 25.6937 37.6053 25.6914Z" fill="white"/>
<path d="M41.0834 29.9523C41.0834 29.6484 40.8113 29.5069 40.3161 29.3374L40.1406 29.2693C39.5366 29.0475 39.1311 28.7767 39.1311 28.2108C39.1311 27.6449 39.6841 27.1837 40.4531 27.1837C40.9169 27.1782 41.3678 27.336 41.726 27.6292L41.3941 28.0955C41.1199 27.8801 40.786 27.7533 40.4373 27.7322C40.0739 27.7322 39.7912 27.9069 39.7912 28.1776C39.7912 28.3995 39.9668 28.5549 40.3179 28.6789L40.7217 28.8274C41.4486 29.0894 41.7523 29.4283 41.7523 29.9698C41.7523 30.4623 41.3309 31.0615 40.3478 31.0615C39.8484 31.0614 39.3643 30.8906 38.9766 30.5776L39.3066 30.0938C39.6034 30.3411 39.9733 30.4853 40.36 30.5043C40.806 30.5043 41.0939 30.258 41.0939 29.954" fill="white"/>
<path d="M45.7905 30.9653H45.1392V28.5968C45.1513 28.4844 45.1384 28.3707 45.1016 28.2638C45.0648 28.1568 45.0048 28.0592 44.926 27.9778C44.8472 27.8964 44.7514 27.8331 44.6453 27.7925C44.5393 27.7519 44.4256 27.7348 44.3123 27.7426C43.9418 27.7426 43.5362 27.9487 43.1553 28.3837V30.9653H42.5039V27.2815H43.1412V27.7845C43.2966 27.5946 43.4929 27.442 43.7157 27.338C43.9385 27.234 44.182 27.1812 44.4281 27.1837C45.306 27.1837 45.7923 27.7356 45.7923 28.5566L45.7905 30.9653Z" fill="white"/>
<path d="M48.948 28.4862C48.948 28.0023 48.5846 27.7718 48.0702 27.7718C47.6896 27.7798 47.3243 27.9222 47.0396 28.1735L46.6884 27.6897C47.0876 27.355 47.5956 27.1762 48.1176 27.1866C49.0604 27.1866 49.5958 27.7228 49.5958 28.4932V30.9665H48.9427V30.5421C48.7198 30.9106 48.2247 31.0661 47.8279 31.0661C47.0097 31.0661 46.4883 30.5805 46.4883 29.8905C46.4883 29.2006 46.9834 28.7796 47.7945 28.7796H48.6618C48.8672 28.7796 48.934 28.6731 48.934 28.5176L48.948 28.4862ZM47.4873 25.6914C47.6137 25.6945 47.7341 25.746 47.8233 25.8351C47.9126 25.9243 47.9639 26.0442 47.9666 26.17C47.9629 26.2945 47.911 26.4128 47.8217 26.5001C47.7323 26.5874 47.6125 26.6368 47.4873 26.6381C47.3626 26.6372 47.2433 26.5877 47.1549 26.5001C47.0666 26.4126 47.0164 26.294 47.015 26.17C47.0159 26.0448 47.0656 25.9249 47.1538 25.8356C47.2419 25.7463 47.3615 25.6946 47.4873 25.6914ZM48.948 29.618V29.2146C48.8296 29.302 48.6818 29.3408 48.5354 29.3228H47.9578C47.4469 29.3228 47.1888 29.5255 47.1888 29.8975C47.1888 30.2102 47.4293 30.5141 47.942 30.5141C48.4546 30.5141 48.948 30.2591 48.948 29.6111M48.8497 25.6914C48.9763 25.6936 49.0971 25.7445 49.1867 25.8334C49.2764 25.9223 49.328 26.0423 49.3307 26.1683C49.3271 26.2931 49.2749 26.4116 49.1852 26.4989C49.0955 26.5863 48.9752 26.6355 48.8497 26.6364C48.7253 26.635 48.6064 26.5853 48.5185 26.4978C48.4305 26.4103 48.3805 26.292 48.3792 26.1683C48.3796 26.0434 48.429 25.9237 48.5169 25.8346C48.6048 25.7455 48.7242 25.6941 48.8497 25.6914Z" fill="white"/>
</g>
<defs>
<clipPath id="clip0_5_9459">
<rect width="80.4103" height="32.1397" fill="white" transform="translate(0.757812 0.265625)"/>
</clipPath>
</defs>
</svg>
