<svg width="82" height="29" viewBox="0 0 82 29" fill="none" xmlns="http://www.w3.org/2000/svg">
<g clip-path="url(#clip0_5_9480)">
<path d="M28.9093 15.4151C29.1129 15.1619 29.2146 14.8075 29.2146 14.3349V10.4193C29.2146 9.49102 28.8414 9.01844 28.078 9.01844H26.653V15.8033H28.0611C28.4343 15.8033 28.7227 15.6851 28.9093 15.4151ZM28.5361 5.98047C29.7914 5.98047 30.7753 6.35178 31.4709 7.11127C32.1494 7.85389 32.4887 8.88342 32.4887 10.1661V14.453C32.4887 15.7864 32.1494 16.8497 31.4709 17.6598C30.7923 18.4699 29.8084 18.8581 28.5191 18.8581H26.653V22.2843H23.345V5.99735C23.345 5.98047 28.5361 5.98047 28.5361 5.98047Z" fill="#33B65B"/>
<path d="M37.9405 9.33005H37.8896L36.7021 16.0642H39.1111L37.9405 9.33005ZM40.2137 5.98828L43.5387 22.2921H40.2137L39.637 18.9841H36.2271L35.6504 22.2921H32.3763L35.7522 5.98828C35.7182 5.98828 40.2137 5.98828 40.2137 5.98828Z" fill="#33B65B"/>
<path d="M47.8446 5.97656L50.9999 15.5799H51.0169L50.9999 5.97656H54.1383V22.2804H50.9999L47.624 12.3563H47.6071L47.624 22.2804H44.4857V5.97656H47.8446Z" fill="#33B65B"/>
<path d="M59.0317 5.97782V15.4462L59.2692 14.7373L62.2719 5.96094H65.6138L62.679 14.3491L65.7496 22.2647H62.4076L60.3549 16.8639L59.0317 19.9019V22.2816H55.8255V5.97782H59.0317Z" fill="#33B65B"/>
<path d="M69.921 5.97782V15.4462L70.1585 14.7373L73.1612 5.96094H76.5031L73.5683 14.3491L76.6388 22.2647H73.2969L71.2442 16.8639L69.938 19.885V22.2647H66.7318V5.96094L69.921 5.97782Z" fill="#33B65B"/>
<path d="M81.0583 22.2804H77.6146V5.97656H81.0583V22.2804Z" fill="#33B65B"/>
<path d="M8.77545 4.68461C10.6754 2.79432 13.1353 1.96732 15.7477 1.96732H17.6817V0.144531H15.7477C12.6603 0.144531 9.74241 1.15719 7.48618 3.40192C5.22994 5.64664 4.21209 8.53272 4.21209 11.672V16.3808C4.21209 16.5496 4.19512 16.769 4.17816 16.9209C4.1103 17.2753 3.97459 17.5623 3.73709 17.7985C3.53352 18.0011 3.26209 18.1361 3.07549 18.2036C2.90585 18.2542 2.70227 18.3049 2.44781 18.3386C1.93888 18.4061 0.7005 18.4399 0.7005 18.4399V24.0939H2.39692C4.55137 24.0939 6.50225 23.4525 7.9951 21.9842C9.47099 20.5158 10.1156 18.6424 10.1156 16.6171V11.6382C10.1156 10.1023 10.6076 8.68462 11.7272 7.57069C12.8638 6.45677 14.2888 5.96732 15.7986 5.96732H16.0701V8.14453C15.5611 8.17829 15.1879 8.22892 14.7299 8.36394C14.2379 8.51584 13.7629 8.78588 13.3558 9.17407C12.6772 9.84917 12.3888 10.7268 12.3888 11.6382V16.5833C12.3888 19.2163 11.5406 21.6466 9.62366 23.5538C7.72367 25.4441 5.26387 26.2711 2.65138 26.2711H0.717463V28.0939H2.65138C5.73886 28.0939 8.6567 27.0812 10.9129 24.8365C13.1692 22.5918 14.187 19.7057 14.187 16.5665V11.8576C14.187 11.6888 14.204 11.4694 14.221 11.3175C14.2888 10.9631 14.4245 10.6762 14.662 10.4399C14.8656 10.2374 15.137 10.1023 15.3236 10.0348C15.4933 9.98419 15.6968 9.93356 15.9513 9.89981C16.4602 9.8323 17.6986 9.79854 17.6986 9.79854V4.14453H16.0022C13.8477 4.14453 11.8969 4.78588 10.404 6.25424C8.92813 7.72259 8.28349 9.59601 8.28349 11.6213V16.5665C8.28349 18.1023 7.79153 19.5201 6.67189 20.634C5.53529 21.7479 4.1103 22.2374 2.60049 22.2374H2.32906V20.0095C2.83799 19.9758 3.22816 19.9082 3.66923 19.7901C4.1612 19.6382 4.63619 19.4188 5.04333 19.0137C5.7219 18.3386 6.01029 17.461 6.01029 16.5496V11.6044C6.01029 9.00529 6.8585 6.57491 8.77545 4.68461Z" fill="#33B65B"/>
</g>
<defs>
<clipPath id="clip0_5_9480">
<rect width="80.4103" height="28.0169" fill="white" transform="translate(0.665344 0.121094)"/>
</clipPath>
</defs>
</svg>
