<svg width="80" height="26" viewBox="0 0 80 26" fill="none" xmlns="http://www.w3.org/2000/svg">
<g clip-path="url(#clip0_5_9498)">
<path d="M42.3802 12.2317C42.4809 12.5692 42.2794 13.0249 42.8168 12.7887C44.2608 12.4511 45.369 11.5566 45.9231 10.2233C46.1414 9.66629 46.0239 9.10933 45.5873 8.77178C45.2515 8.43423 44.7981 8.67051 44.3615 8.77178C44.0257 8.87304 43.7067 9.10933 43.4716 9.43001C42.8168 10.3414 42.4809 11.3541 42.3802 12.2317ZM50.9268 12.9237V16.3836C49.6004 17.2781 48.3746 18.2739 46.813 18.8309C45.7048 19.1684 44.6974 19.4891 43.4884 19.2697C41.0537 18.9321 39.3746 17.2612 39.1563 14.7971C38.938 12.1135 39.5929 9.66629 41.3727 7.53971C42.4809 6.20638 43.925 5.64941 45.7048 5.98697C47.8205 6.32452 49.0295 8.43423 48.2571 10.4595C47.3671 12.6874 45.5873 14.0376 43.3709 14.814C42.716 15.0334 42.5817 15.1515 43.1526 15.7085C43.4884 16.2655 44.0425 16.3667 44.5966 16.2655C46.4772 16.046 48.0388 15.1515 49.6004 14.0376C50.0369 13.7 50.4735 13.3625 50.9268 12.9237Z" fill="#BE2631"/>
<path d="M0 7.15331C0.654852 7.05205 1.3265 6.71449 1.99814 6.49508C2.21642 6.39382 2.21642 6.15753 2.21642 6.05627C2.21642 5.39804 2.21642 4.72293 2.31717 4.04783C2.65299 2.2588 3.86195 1.26302 6.09516 1.02673C7.08584 0.925465 8.21084 1.128 9.20152 1.36428C9.4198 1.46555 9.63808 1.46555 9.4198 1.8031C9.20152 2.24192 9.08398 2.69762 8.86569 3.25458C8.76495 3.59213 8.64741 3.59213 8.31159 3.47399C7.97577 3.37272 7.52241 3.25458 7.08584 3.25458C5.86009 3.25458 5.40673 3.59213 5.0877 4.80732C4.75188 6.2588 4.86941 6.36006 6.31345 6.36006H6.53173C8.41233 6.36006 8.41233 6.36006 8.21084 8.25036C8.21084 8.58791 8.1101 8.58791 7.87502 8.58791H5.6586C5.22203 8.58791 5.00374 8.68918 5.00374 9.24614V18.9677C5.00374 19.4065 4.903 19.6259 4.44964 19.5246H2.68657C2.35075 19.4234 2.25001 19.1871 2.25001 18.8664V9.04361C2.25001 8.60479 2.14926 8.38538 1.6959 8.48665H0.0167908C-2.56462e-07 8.48665 0 7.15331 0 7.15331ZM79.4218 19.3221H77.0879C76.7521 19.3221 76.6513 19.2208 76.6513 18.8833V11.5077C76.6513 11.1702 76.6513 10.8495 76.5506 10.512C76.3323 9.17863 75.6606 8.50352 74.3341 8.38538C72.5543 8.28412 71.2278 9.17863 70.892 10.9508C70.7912 11.609 70.7912 12.2841 70.7912 13.0774V18.7651C70.7912 19.2039 70.6905 19.3221 70.2371 19.3221H68.4573C68.1214 19.3221 68.0207 19.2208 68.0207 18.8833V6.69762C68.0207 6.36006 68.1214 6.2588 68.4573 6.2588C69.0114 6.2588 69.7838 6.03939 70.1364 6.36006C70.4722 6.69762 70.4722 7.35585 70.6905 8.04783C71.4797 7.05205 72.4703 6.49508 73.5785 6.15753C74.6868 5.93812 75.9125 5.93812 77.0207 6.37694C78.4647 6.81576 79.2371 7.92969 79.4554 9.39804C79.4554 9.4993 79.3547 9.73559 79.5562 9.73559V10.0731C79.3379 10.2926 79.4554 10.512 79.4554 10.7314V19.3221H79.4218ZM79.4722 19.3221V10.7314C79.4722 10.512 79.3715 10.2926 79.573 10.0731L79.4722 19.3221ZM53.6811 25.0942V25.1955H50.9106V25.0942H53.6811ZM53.7818 12.8748C53.7818 13.3136 53.8826 13.9888 53.8826 14.5626C53.8826 14.9001 53.9833 15.1196 54.1009 15.4571C54.4367 16.571 55.2091 17.2461 56.5356 17.2461C57.9796 17.3474 58.752 16.9086 59.4237 15.6934C59.8602 14.7989 59.9778 13.8031 59.9778 12.9086C59.9778 11.9128 59.877 10.782 59.4237 9.88749C58.8695 8.89171 57.8789 8.33475 56.6531 8.43601C55.4274 8.53728 54.5374 8.99298 54.1009 10.3263C53.7818 11.0858 53.7818 11.8791 53.7818 12.8748ZM53.6475 25.0436H50.877V13.2124V6.84951C50.877 6.4107 50.9777 6.29255 51.4311 6.29255C51.9852 6.39382 52.7576 6.07314 53.1102 6.39382C53.4628 6.71449 53.446 7.3896 53.5468 7.94656C53.7651 7.8453 53.8826 7.60901 53.9833 7.50774C55.7632 5.38116 60.5319 5.2799 62.0934 9.06049C62.9834 11.5077 62.9834 14.09 62.0934 16.5373C60.5487 20.436 55.6457 20.2166 53.8658 17.9888L53.53 17.6512C53.7818 20.2504 53.6475 22.6976 53.6475 25.0436ZM39.1064 19.3558H36.2184C35.8826 19.3558 35.7818 19.1364 35.6643 19.0183C34.6736 17.5668 33.7837 16.1153 32.7762 14.5457C31.8863 15.9972 30.8956 17.3305 30.0057 18.6807C29.6699 19.1196 29.3508 19.339 28.7799 19.339C27.9907 19.2377 27.2351 19.339 26.3452 19.339C26.8993 18.4445 27.4534 17.7862 28.0243 16.993C28.9142 15.6596 29.7034 14.4276 30.5766 13.1955C30.9124 12.7567 30.7949 12.5373 30.5766 12.1997C29.2501 10.3094 27.9068 8.40226 26.4628 6.39382H29.5523C29.7706 6.39382 29.7706 6.61323 29.8881 6.73137C30.6773 7.96344 31.5672 9.17863 32.3228 10.5288C32.4236 10.6301 32.5411 10.7482 32.6587 10.9677C33.5486 9.63432 34.5393 8.18285 35.3284 6.83264C35.5467 6.49508 35.765 6.39382 36.1176 6.39382H38.6699C38.7706 6.61323 38.5691 6.83264 38.4516 6.95078C37.2258 8.73981 35.8993 10.6301 34.6736 12.4191C34.4553 12.7567 34.4553 12.858 34.6736 13.2124L38.6699 18.9001C38.7706 18.917 38.8714 19.1364 39.1064 19.3558ZM20.4515 11.4402H23.0038C23.1045 11.4402 23.3396 11.5415 23.3396 11.2208C23.4404 9.98875 22.5504 8.65542 21.3415 8.43601C19.4609 7.87905 17.681 9.09424 17.4627 11.1196C17.4627 11.4571 17.4627 11.5584 17.7986 11.5584C18.6717 11.4402 19.5616 11.4402 20.4515 11.4402ZM25.556 16.4529V18.4613C25.556 18.6807 25.4553 18.7989 25.2202 18.7989C22.8862 19.6934 20.4515 19.9128 18 19.0183C16.1194 18.225 14.9944 16.6723 14.6754 14.6639C14.3396 12.5373 14.4571 10.5288 15.6661 8.63855C16.7743 6.74825 18.6717 6.07314 20.7706 6.19129C22.7687 6.19129 24.3303 6.98454 25.4385 8.63855C26.0933 9.75247 26.2277 10.8664 26.2277 12.0985C26.2277 13.5499 26.2277 13.5499 24.7836 13.5499H18C17.5635 13.5499 17.4459 13.6512 17.5635 14.1069C18 16.6723 19.5616 17.7862 22.2314 17.4487C23.2221 17.3474 24.2295 17.1111 25.1195 16.6554C25.2202 16.571 25.3377 16.4529 25.556 16.4529ZM66.8789 12.7736V18.7989C66.8789 19.1364 66.7782 19.2377 66.4423 19.2377H64.5617C64.3434 19.2377 64.1252 19.2377 64.1252 18.9001V6.63011C64.1252 6.29255 64.2259 6.29255 64.5617 6.29255H66.4423C66.8789 6.29255 66.8789 6.39382 66.8789 6.73137V12.7736ZM13.5672 10.1913V18.782C13.5672 19.2208 13.4665 19.339 13.0131 19.339H11.334C10.7799 19.339 10.6791 19.2377 10.6791 18.782V3.72715V1.60057C10.6791 1.16175 10.7799 1.04361 11.2332 1.04361H13.0131C13.4497 1.04361 13.5672 1.14487 13.5672 1.60057C13.4497 4.50352 13.5672 7.30521 13.5672 10.1913ZM65.5356 4.40226C64.5449 4.40226 63.9908 3.8453 63.8565 2.95078C63.8565 1.955 64.4106 1.39804 65.4013 1.39804C66.392 1.39804 66.9461 1.955 66.9461 2.95078C67.0972 3.8453 66.5431 4.40226 65.5356 4.40226Z" fill="white"/>
</g>
<defs>
<clipPath id="clip0_5_9498">
<rect width="79.5897" height="24.4726" fill="white" transform="translate(0.0494385 0.550781)"/>
</clipPath>
</defs>
</svg>
