<svg width="60" height="20" viewBox="0 0 60 20" fill="none" xmlns="http://www.w3.org/2000/svg">
<g clip-path="url(#clip0_5_9506)">
<path fillRule="evenodd" clipRule="evenodd" d="M15.9664 19.1667L9.40424 1.15234H6.54772L0.0625 19.1667H2.87076L4.36294 14.895H11.5682L13.0864 19.1667H15.9664ZM10.7425 12.4754H5.18467L6.61946 8.35756C7.0825 7.0193 7.72685 4.96626 7.93293 4.18365C8.13772 4.95582 8.85902 7.04017 9.29598 8.32756L10.7308 12.4702" fill="#009430"/>
<path d="M29.7098 19.1667L25.6428 10.1889L29.0654 5.66016H26.055L23.2506 9.59669C22.8124 10.241 22.1172 11.2702 21.7572 11.8141C21.7572 11.1449 21.7832 9.75581 21.7832 8.93277V0.40625L19.1328 1.79538V19.1667H21.7832V15.178L23.8415 12.4493L26.8272 19.1667H29.7098Z" fill="#009430"/>
<path d="M39.1777 16.4902C38.5788 16.8257 37.9075 17.011 37.2212 17.0302C36.2429 17.0302 35.8321 16.6702 35.8321 15.4089V8.07451H39.1777V5.65625H35.8321V0.40625L33.2325 1.79538V5.65625H31.3047V8.07451H33.2351V15.8732C33.2351 18.2915 34.3934 19.4497 36.2716 19.4497C37.1758 19.4655 38.0694 19.2533 38.8699 18.8328L39.179 16.4849" fill="#009430"/>
<path fillRule="evenodd" clipRule="evenodd" d="M45.944 2.20736C45.9471 1.86758 45.849 1.53457 45.6621 1.25076C45.4753 0.966955 45.2082 0.745193 44.8949 0.613732C44.5815 0.482272 44.2362 0.447065 43.9028 0.512596C43.5693 0.578128 43.263 0.74143 43.0227 0.981699C42.7824 1.22197 42.6191 1.52832 42.5536 1.86174C42.4881 2.19515 42.5233 2.54052 42.6547 2.85385C42.7862 3.16718 43.008 3.43429 43.2918 3.62113C43.5756 3.80797 43.9086 3.9061 44.2484 3.90301C44.6962 3.89693 45.124 3.71633 45.4407 3.39964C45.7573 3.08296 45.9379 2.65518 45.944 2.20736ZM45.5527 19.1639V5.65605H42.914V19.1665H45.5645" fill="#009430"/>
<path fillRule="evenodd" clipRule="evenodd" d="M59.9397 19.1685V9.9076C59.9397 6.84499 57.8801 5.37891 54.8697 5.37891C52.9653 5.37891 51.524 5.78978 50.2379 6.58804L51.2618 8.59152C52.3171 7.99934 53.3971 7.74238 54.7836 7.74238C56.431 7.74238 57.331 8.56543 57.331 10.0328V11.0359C56.5849 10.7019 55.5805 10.5219 54.3205 10.5219C51.2579 10.5219 48.9414 11.885 48.9414 14.8967C48.9414 18.2163 51.4379 19.4515 53.6253 19.4515C55.0927 19.4515 56.4049 18.7563 57.331 17.8302V19.1685H59.9397ZM57.3401 15.3337C56.7218 16.1828 55.4879 17.058 54.0714 17.058C52.3223 17.058 51.4731 16.158 51.4731 14.8198C51.4731 13.5846 52.5531 12.8124 54.2527 12.8124C55.6875 12.8124 56.6201 13.0433 57.3401 13.4033V15.3337Z" fill="#009430"/>
</g>
<defs>
<clipPath id="clip0_5_9506">
<rect width="60" height="19.2" fill="white" transform="translate(0 0.398438)"/>
</clipPath>
</defs>
</svg>
