<svg width="97" height="11" viewBox="0 0 97 11" fill="none" xmlns="http://www.w3.org/2000/svg">
<g clip-path="url(#clip0_5_9516)">
<path d="M2.87137 -0.00390625V3.83804H6.92295V-0.00390625H9.12506V10.0095H6.92295V5.67771H2.87137V9.99966H0.66925V-0.00390625H2.87137Z" fill="#005FA0"/>
<path d="M10.5611 3.81833C10.7617 3.51331 11.0298 3.25858 11.3447 3.07385C11.677 2.88299 12.0394 2.75046 12.4164 2.68201C12.8104 2.60222 13.2115 2.56218 13.6135 2.5625C13.9838 2.56286 14.3536 2.58839 14.7204 2.63891C15.0788 2.68162 15.4281 2.78149 15.7549 2.93474C16.0548 3.0781 16.3151 3.29266 16.5131 3.55972C16.7225 3.87219 16.8256 4.24391 16.8069 4.61964V9.33538C16.804 9.56206 16.8317 9.78811 16.8892 10.0074H14.9712C14.9442 9.91182 14.9252 9.81417 14.9144 9.71546C14.8967 9.59987 14.8987 9.42746 14.8889 9.30795C14.5809 9.62953 14.1948 9.86578 13.7683 9.99366C13.3416 10.1242 12.8978 10.1902 12.4517 10.1896C12.1254 10.1918 11.8004 10.149 11.4858 10.0622C11.2014 9.9844 10.9351 9.85125 10.7021 9.6704C10.4763 9.48966 10.2963 9.25805 10.1771 8.99448C10.0421 8.68999 9.97519 8.35968 9.98116 8.02665C9.96864 7.67455 10.0426 7.32474 10.1967 7.00787C10.3309 6.75405 10.5228 6.53528 10.757 6.36918C10.996 6.20603 11.261 6.08478 11.5407 6.01065C11.8335 5.92978 12.1304 5.86439 12.4301 5.81474C12.7299 5.76967 13.0179 5.73245 13.3137 5.70306C13.5731 5.67987 13.8304 5.63797 14.0837 5.57768C14.2771 5.53484 14.4589 5.45062 14.6166 5.33082C14.6831 5.27336 14.7346 5.20043 14.7663 5.11844C14.7981 5.03646 14.8092 4.94792 14.7988 4.86062C14.807 4.68336 14.7707 4.50686 14.693 4.34731C14.6276 4.22669 14.5316 4.12535 14.4148 4.05344C14.2901 3.9804 14.1523 3.93247 14.0092 3.91238C13.8451 3.88809 13.6794 3.8763 13.5136 3.87711C13.1871 3.85929 12.8637 3.94873 12.5927 4.1318C12.4716 4.23737 12.374 4.36732 12.3065 4.51317C12.239 4.65901 12.203 4.81746 12.2009 4.97817H10.2104C10.2203 4.56207 10.3414 4.1562 10.5611 3.80266V3.81833ZM14.4794 6.63367C14.3466 6.67704 14.2112 6.71173 14.0739 6.73751C13.9289 6.7669 13.778 6.79041 13.6194 6.80804C13.4607 6.82567 13.302 6.85114 13.1433 6.87857C12.994 6.90608 12.8468 6.94339 12.7025 6.99024C12.567 7.03416 12.4399 7.10038 12.3263 7.18616C12.2182 7.26564 12.1297 7.36886 12.0677 7.48788C11.9967 7.63132 11.963 7.79034 11.9697 7.95024C11.964 8.10567 11.9977 8.26001 12.0677 8.39889C12.1288 8.51658 12.2201 8.61595 12.3322 8.68689C12.4526 8.75962 12.5854 8.80944 12.724 8.83383C12.8766 8.86159 13.0313 8.87536 13.1864 8.87497C13.5015 8.89287 13.8156 8.82517 14.0954 8.67906C14.2914 8.56524 14.4553 8.40343 14.5715 8.20885C14.6721 8.03916 14.7386 7.85151 14.7674 7.65636C14.7881 7.50699 14.7999 7.35652 14.8027 7.20575V6.46127C14.7098 6.53881 14.6027 6.59739 14.4873 6.63367H14.4794Z" fill="#005FA0"/>
<path d="M60.1023 3.81833C60.3033 3.51363 60.5713 3.25897 60.8859 3.07385C61.2189 2.88299 61.582 2.75047 61.9596 2.68201C62.3536 2.60222 62.7546 2.56218 63.1566 2.5625C63.5269 2.56293 63.8967 2.58846 64.2636 2.63891C64.6183 2.6847 64.9635 2.78654 65.2862 2.94062C65.5859 3.0835 65.8457 3.29818 66.0425 3.5656C66.2527 3.87783 66.3564 4.24957 66.3383 4.62552V9.34126C66.3354 9.56794 66.3631 9.79398 66.4206 10.0133H64.5065C64.4795 9.91769 64.4605 9.82005 64.4497 9.72134C64.432 9.60575 64.434 9.43334 64.4242 9.31383C64.1162 9.63541 63.7301 9.87166 63.3036 9.99954C62.8769 10.1301 62.4332 10.1961 61.987 10.1955C61.6607 10.1979 61.3356 10.155 61.0211 10.0681C60.7365 9.99072 60.4701 9.85753 60.2374 9.67628C60.0116 9.49554 59.8316 9.26393 59.7124 9.00036C59.5764 8.69617 59.5095 8.36564 59.5165 8.03253C59.5032 7.68014 59.5779 7.33 59.7339 7.01375C59.8675 6.75951 60.0596 6.5406 60.2943 6.37506C60.5332 6.2119 60.7982 6.09066 61.0779 6.01653C61.3708 5.93566 61.6677 5.87026 61.9674 5.82061C62.2652 5.77555 62.5551 5.73833 62.849 5.70894C63.109 5.68574 63.367 5.64383 63.6209 5.58355C63.8143 5.54071 63.9961 5.4565 64.1538 5.3367C64.2196 5.27861 64.2705 5.20559 64.3022 5.12377C64.3339 5.04195 64.3455 4.95373 64.336 4.86649C64.3443 4.68923 64.3079 4.51274 64.2303 4.35319C64.1648 4.23256 64.0689 4.13123 63.952 4.05931C63.8318 3.98655 63.6988 3.93735 63.5602 3.91433C63.3961 3.89005 63.2304 3.87827 63.0645 3.87907C62.738 3.86096 62.4145 3.95042 62.1437 4.13376C62.0225 4.23933 61.925 4.36928 61.8575 4.51513C61.79 4.66097 61.754 4.81942 61.7519 4.98013H59.7516C59.7606 4.56388 59.8817 4.15777 60.1023 3.80462V3.81833ZM64.0206 6.63367C63.8878 6.67704 63.7524 6.71173 63.6151 6.73751C63.4701 6.7669 63.3192 6.79041 63.1605 6.80804C63.0018 6.82567 62.8431 6.85114 62.6845 6.87857C62.5352 6.90608 62.388 6.94339 62.2436 6.99024C62.1076 7.03417 61.9798 7.10037 61.8655 7.18616C61.7584 7.26671 61.6701 7.36968 61.6069 7.48788C61.537 7.63169 61.5034 7.79043 61.5089 7.95024C61.5042 8.10557 61.5378 8.25968 61.6069 8.39889C61.6694 8.51629 61.7612 8.61551 61.8734 8.68689C61.9938 8.75962 62.1266 8.80944 62.2652 8.83383C62.4177 8.86159 62.5725 8.87536 62.7276 8.87497C63.0426 8.89219 63.3566 8.82453 63.6366 8.67906C63.8326 8.56581 63.9959 8.40384 64.1107 8.20885C64.2121 8.03951 64.2787 7.8517 64.3067 7.65636C64.3273 7.50699 64.3391 7.35652 64.3419 7.20575V6.46127C64.2496 6.53859 64.1432 6.59716 64.0285 6.63367H64.0206Z" fill="#005FA0"/>
<path d="M19.7532 2.75057V3.58322H19.7963C20.0383 3.24193 20.367 2.9714 20.7485 2.79955C21.1472 2.62532 21.5791 2.53976 22.0141 2.54878C22.4617 2.53377 22.9079 2.60769 23.3268 2.76624C23.6438 2.89356 23.9221 3.10158 24.1339 3.36967C24.3403 3.64831 24.4815 3.96965 24.5473 4.31008C24.6308 4.71346 24.6709 5.12461 24.6668 5.53652V9.99757H22.6724V5.90681C22.6724 5.3073 22.579 4.86061 22.3922 4.56673C22.2055 4.27285 21.8724 4.12526 21.393 4.12396C20.8497 4.12396 20.4579 4.28526 20.2175 4.60787C19.9772 4.93049 19.8551 5.46142 19.8512 6.20068V10.0034H17.8626V2.75449L19.7532 2.75057Z" fill="#005FA0"/>
<path d="M69.2864 2.75054V3.58319H69.3276C69.5696 3.2419 69.8983 2.97136 70.2797 2.79952C70.6792 2.62543 71.1116 2.53987 71.5473 2.54874C71.9949 2.53389 72.4411 2.60781 72.86 2.76621C73.177 2.89352 73.4553 3.10155 73.6671 3.36964C73.8726 3.6488 74.0137 3.96993 74.0805 4.31004C74.164 4.71342 74.2041 5.12458 74.2 5.53649V9.99754H72.2056V5.90677C72.2056 5.30726 72.1122 4.86057 71.9254 4.56669C71.7387 4.27282 71.4056 4.12523 70.9262 4.12392C70.3829 4.12392 69.9911 4.28523 69.7507 4.60784C69.5104 4.93045 69.389 5.46138 69.3863 6.20065V10.0034H67.3958V2.75445L69.2864 2.75054Z" fill="#005FA0"/>
<path d="M91.7532 2.75054V3.58319H91.7944C92.0364 3.2419 92.3651 2.97136 92.7465 2.79952C93.146 2.62543 93.5784 2.53987 94.0141 2.54874C94.4617 2.53389 94.9078 2.60781 95.3267 2.76621C95.6438 2.89352 95.9221 3.10155 96.1339 3.36964C96.3394 3.6488 96.4805 3.96993 96.5473 4.31004C96.6308 4.71342 96.6709 5.12458 96.6668 5.53649V9.99754H94.6724V5.90677C94.6724 5.30726 94.579 4.86057 94.3922 4.56669C94.2055 4.27282 93.8724 4.12523 93.393 4.12392C92.851 4.12392 92.4592 4.28523 92.2175 4.60784C91.9759 4.93045 91.8544 5.46138 91.8531 6.20065V10.0034H89.8626V2.75445L91.7532 2.75054Z" fill="#005FA0"/>
<path d="M35.9819 8.27452C36.2823 8.56447 36.7127 8.70945 37.273 8.70945C37.6424 8.71954 38.0056 8.61331 38.3114 8.40578C38.5566 8.25887 38.7445 8.03295 38.8443 7.76513H40.5958C40.315 8.635 39.8853 9.25737 39.3066 9.63223C38.6747 10.0191 37.943 10.2119 37.2025 10.1867C36.6759 10.1948 36.1526 10.1023 35.6606 9.91435C35.2153 9.74386 34.8137 9.47613 34.4851 9.13068C34.1595 8.78275 33.9081 8.37211 33.7465 7.92382C33.5695 7.42859 33.482 6.90586 33.4879 6.37999C33.4831 5.86247 33.5734 5.34847 33.7543 4.86359C33.9209 4.41287 34.178 4.00109 34.5099 3.65367C34.8419 3.30625 35.2415 3.03057 35.6841 2.84367C36.1611 2.64172 36.6748 2.54098 37.1927 2.54784C37.7513 2.53463 38.3047 2.65769 38.8051 2.90637C39.2509 3.13495 39.6373 3.46432 39.9336 3.86832C40.2327 4.28014 40.4495 4.74579 40.5723 5.23975C40.7047 5.76764 40.7523 6.31322 40.7133 6.85607H35.4823C35.5196 7.51631 35.6841 7.98456 35.9819 8.27452ZM38.233 4.4502C37.9953 4.18898 37.6335 4.05836 37.1476 4.05836C36.8776 4.05117 36.6094 4.10613 36.364 4.21901C36.169 4.31567 35.9967 4.45256 35.8585 4.62065C35.738 4.77118 35.6476 4.94344 35.592 5.12807C35.5456 5.28387 35.5154 5.44408 35.5019 5.60611H38.7404C38.6853 5.18261 38.513 4.78294 38.2428 4.45216L38.233 4.4502Z" fill="#005FA0"/>
<path d="M43.4723 -0.00390625V10.0095H41.4778V-0.00390625H43.4723Z" fill="#005FA0"/>
<path d="M46.2909 8.20692C46.3763 8.35699 46.4941 8.48615 46.6357 8.58505C46.7824 8.68599 46.9464 8.75905 47.1196 8.80056C47.3059 8.84809 47.4975 8.87179 47.6897 8.87109C47.838 8.87041 47.9857 8.85399 48.1305 8.82211C48.2779 8.79198 48.4199 8.7398 48.5518 8.66733C48.6771 8.5995 48.785 8.50361 48.8672 8.38717C48.9565 8.25729 49.0012 8.10189 48.9945 7.9444C48.9945 7.64464 48.7986 7.42129 48.4068 7.27044C47.8639 7.08098 47.308 6.93104 46.7434 6.82179C46.4535 6.75713 46.1694 6.67877 45.8951 6.5906C45.634 6.50966 45.3859 6.39155 45.1585 6.23991C44.9458 6.09902 44.7683 5.91138 44.6393 5.69134C44.5016 5.44519 44.4338 5.16606 44.4434 4.88416C44.4274 4.4829 44.5223 4.085 44.7176 3.73412C44.8946 3.44021 45.1433 3.19615 45.4406 3.0249C45.7546 2.8473 46.0964 2.72409 46.4515 2.66049C46.8307 2.58944 47.2157 2.55402 47.6016 2.5547C47.9858 2.55446 48.3691 2.59253 48.7457 2.66833C49.0919 2.73606 49.4234 2.86405 49.7253 3.04645C50.0162 3.22595 50.2632 3.46828 50.4482 3.75567C50.6539 4.09349 50.7718 4.47739 50.7911 4.8724H48.9005C48.8731 4.48057 48.7281 4.21934 48.4656 4.08873C48.1768 3.95018 47.859 3.88299 47.5389 3.89281C47.4164 3.89366 47.2942 3.90086 47.1725 3.91436C47.0498 3.92669 46.9297 3.95706 46.8159 4.00449C46.7108 4.04803 46.6169 4.11504 46.5416 4.20041C46.4533 4.319 46.4129 4.46655 46.4285 4.61362C46.4441 4.7607 46.5146 4.89647 46.6259 4.99387C46.7766 5.11804 46.9504 5.21124 47.1372 5.26816C47.3742 5.3476 47.6156 5.41302 47.8602 5.46407C48.1305 5.51893 48.4068 5.58163 48.6889 5.64628C48.9758 5.71049 49.259 5.79028 49.5372 5.8853C49.7998 5.97225 50.0481 6.0977 50.2739 6.25754C50.4866 6.40965 50.6638 6.60618 50.7931 6.83354C50.9316 7.09424 50.9992 7.3868 50.989 7.68187C51.0036 8.10089 50.904 8.516 50.701 8.88284C50.5173 9.20044 50.2599 9.46922 49.9506 9.66651C49.626 9.86921 49.2666 10.01 48.8907 10.0819C48.4912 10.1604 48.0851 10.1998 47.678 10.1994C47.2633 10.2004 46.8497 10.1584 46.4437 10.074C46.0637 9.99914 45.7002 9.85717 45.3701 9.65476C45.0301 9.44692 44.75 9.15441 44.557 8.80585C44.364 8.45729 44.2647 8.0646 44.269 7.66619H46.1596C46.1539 7.85808 46.1992 8.04805 46.2909 8.21672V8.20692Z" fill="#005FA0"/>
<path d="M77.2594 -0.00390625V5.36424L79.7691 2.75462H82.1201L79.3773 5.4191L82.4199 10.0055H80.0179L78.0274 6.76701L77.2555 7.50954V10.0055H75.265V-0.00390625H77.2594Z" fill="#005FA0"/>
<path d="M84.4018 8.27452C84.7022 8.56447 85.1326 8.70945 85.6929 8.70945C86.0616 8.71912 86.4241 8.61292 86.7293 8.40578C86.975 8.25947 87.1631 8.03335 87.2622 7.76513H89.0157C88.7362 8.635 88.3065 9.25737 87.7265 9.63223C87.0946 10.0191 86.3629 10.2119 85.6224 10.1867C85.0951 10.1948 84.5712 10.1023 84.0786 9.91435C83.6374 9.7425 83.2399 9.47484 82.9148 9.13068C82.5892 8.78275 82.3378 8.37211 82.1762 7.92382C81.9992 7.42859 81.9117 6.90586 81.9176 6.37999C81.9128 5.86247 82.0031 5.34847 82.184 4.86359C82.3505 4.41287 82.6077 4.00109 82.9396 3.65367C83.2715 3.30625 83.6712 3.03057 84.1138 2.84367C84.5908 2.64172 85.1045 2.54098 85.6224 2.54784C86.181 2.53463 86.7344 2.65769 87.2348 2.90637C87.6806 3.13495 88.067 3.46432 88.3633 3.86832C88.6624 4.28014 88.8792 4.74579 89.002 5.23975C89.1343 5.76764 89.182 6.31322 89.143 6.85607H83.912C83.9394 7.50064 84.1079 7.96888 84.4018 8.25884V8.27452ZM86.6529 4.4502C86.4139 4.18898 86.0514 4.05836 85.5656 4.05836C85.2954 4.05074 85.0272 4.10573 84.7819 4.21901C84.5866 4.31516 84.4142 4.45213 84.2764 4.62065C84.1552 4.77072 84.0647 4.94312 84.01 5.12807C83.9625 5.28364 83.9323 5.44395 83.9199 5.60611H87.1584C87.1013 5.18111 86.9262 4.78064 86.6529 4.4502Z" fill="#005FA0"/>
<path d="M30.7602 -0.00390625V3.49714H30.7407C30.5032 3.18907 30.1881 2.9497 29.8277 2.8036C29.4388 2.634 29.0176 2.5511 28.5934 2.56066C28.1069 2.54985 27.6251 2.65885 27.1906 2.87805C26.7984 3.07908 26.4552 3.36403 26.1856 3.71265C25.9134 4.07246 25.709 4.47874 25.5821 4.91167C25.4488 5.36989 25.3828 5.84506 25.3862 6.32228C25.3822 6.81562 25.4482 7.30704 25.5821 7.78187C25.7078 8.22852 25.9121 8.64915 26.1856 9.02399C26.4526 9.38526 26.8009 9.67857 27.2024 9.88015C27.6473 10.0974 28.1375 10.2062 28.6326 10.1975C29.0473 10.2066 29.4602 10.1402 29.8512 10.0016C30.2442 9.85692 30.5853 9.59841 30.8308 9.25909H30.8602V10.0212H32.7527V-0.00390625H30.7602ZM29.0127 8.73599C27.698 8.73599 27.1456 7.51542 27.1456 6.38497C27.1456 5.19379 27.6236 4.03396 29.0146 4.03396C30.4056 4.03396 30.8347 5.19183 30.8347 6.3693C30.8347 7.54677 30.4174 8.74187 29.0127 8.74187V8.73599Z" fill="#005FA0"/>
<path d="M51.7493 -0.00390625V10.0134H53.6419V9.24341H53.6713C53.9168 9.58274 54.2578 9.84124 54.6509 9.98594C55.0416 10.1256 55.4547 10.192 55.8695 10.1819C56.3645 10.1922 56.8549 10.084 57.2997 9.86643C57.7011 9.66485 58.0495 9.37154 58.3165 9.01027C58.5896 8.63522 58.7939 8.21465 58.9199 7.76815C59.0539 7.29332 59.1198 6.80191 59.1158 6.30857C59.1193 5.83135 59.0533 5.35617 58.9199 4.89796C58.7939 4.46434 58.5886 4.05782 58.3145 3.69894C58.0342 3.33253 57.6712 3.03767 57.2551 2.83847C56.839 2.63927 56.3816 2.54138 55.9204 2.55282C55.4962 2.54326 55.0751 2.62616 54.6861 2.79576C54.3257 2.94186 54.0106 3.18123 53.7732 3.48931H53.7536V-0.00390625H51.7493ZM53.6693 6.36342C53.6693 5.18792 54.116 4.02808 55.4894 4.02808C56.8628 4.02808 57.3585 5.18596 57.3585 6.3791C57.3585 7.51738 56.806 8.73011 55.4914 8.73011C54.0866 8.72815 53.6693 7.54873 53.6693 6.35559V6.36342Z" fill="#005FA0"/>
</g>
<defs>
<clipPath id="clip0_5_9516">
<rect width="96" height="10.3836" fill="white" transform="translate(0.667297)"/>
</clipPath>
</defs>
</svg>
