<svg width="97" height="15" viewBox="0 0 97 15" fill="none" xmlns="http://www.w3.org/2000/svg">
<g clip-path="url(#clip0_5_9532)">
<path fillRule="evenodd" clipRule="evenodd" d="M61.9647 14.4751H96.3327V0.125H61.9647V14.4751ZM95.9602 0.49364V14.1064H62.3333V0.49364H95.9602ZM0.332703 0.125H60.4805V14.4751H0.332703V0.125Z" fill="#003F63"/>
<path fillRule="evenodd" clipRule="evenodd" d="M95.9603 0.496094V14.1089H62.3353V0.496094H95.9603ZM21.1014 8.27401C21.1014 9.68137 20.3449 10.386 18.6323 10.386H15.9443V5.09833H18.5478C20.6233 5.09833 21.1091 6.09673 21.1091 7.18537V8.27401H21.1014ZM22.2112 8.23369V7.32937C22.2112 4.44937 19.9206 4.32841 18.3712 4.32841H14.8268V11.1617H18.686C21.7139 11.1617 22.2131 9.53737 22.2131 8.23369H22.2112ZM28.2188 9.47593C28.2188 9.87721 28.1862 10.2439 27.7312 10.4014C27.4604 10.5031 27.0764 10.5339 26.4332 10.5339C25.79 10.5339 25.406 10.4724 25.1795 10.3284C25.022 10.2363 24.9606 10.0827 24.9606 9.75241C24.9606 9.34153 25.0643 9.10345 25.2716 9.01129C25.479 8.91913 25.719 8.89993 26.5062 8.89993H28.2188V9.47593ZM29.2672 11.1617V8.47369C29.2796 8.10005 29.2655 7.72599 29.2249 7.35433C29.2085 7.23236 29.1679 7.11487 29.1056 7.00873C29.0433 6.90259 28.9605 6.80991 28.862 6.73609C28.3628 6.35209 27.134 6.33673 26.5177 6.33673C26.0608 6.33673 24.8051 6.38857 24.3481 6.77833C24.282 6.83705 24.2303 6.91019 24.197 6.99209C24.1637 7.074 24.1497 7.16247 24.1561 7.25065C24.1561 7.37353 24.1792 7.53865 24.1888 7.75369H25.2044C25.2256 7.63081 25.2467 7.33321 25.36 7.21993C25.4732 7.10665 25.744 7.02793 26.4275 7.02793C27.2281 7.02793 27.7888 7.06057 28.0153 7.18345C28.2419 7.30633 28.2246 7.56745 28.2246 7.75945V8.23177H25.8688C25.2352 8.23177 24.5094 8.23177 24.1043 8.78665C23.9178 9.05719 23.8266 9.3821 23.8451 9.71017C23.8451 10.8411 24.5516 11.2212 26.3564 11.2212C27.3011 11.2212 27.9116 11.0772 28.286 10.7585L28.3782 11.1425L29.2672 11.1617ZM35.5532 11.1617V8.55241C35.5532 7.64809 35.511 7.45225 35.294 7.28713C35.0771 7.12201 34.672 7.04137 34.0384 7.04137C33.4746 7.04063 32.9131 7.11291 32.368 7.25641V11.1617H31.3312V6.38281H32.2643L32.3372 6.72265C32.5181 6.61383 32.7115 6.52743 32.9132 6.46537C33.3558 6.34818 33.8131 6.29579 34.2707 6.30985C34.8066 6.29224 35.3403 6.38708 35.8374 6.58825C36.0096 6.66102 36.1612 6.77513 36.2787 6.92048C36.3963 7.06583 36.4762 7.23793 36.5113 7.42153C36.574 7.753 36.5985 8.09057 36.5843 8.42761V11.1617H35.5475M43.2275 10.8737C42.7513 11.1099 41.9737 11.2135 40.9561 11.2135C40.3705 11.2271 39.7854 11.1717 39.2128 11.0484C38.7251 10.9371 38.487 10.7105 38.4544 10.2996C38.4451 10.0764 38.456 9.85274 38.487 9.63145H39.4835C39.5142 9.87721 39.5142 9.95017 39.5238 10.0001C39.566 10.2267 39.5449 10.3495 39.8156 10.4321C40.2092 10.5247 40.6136 10.5628 41.0176 10.5454C41.5038 10.5699 41.9902 10.5002 42.4499 10.3399C42.6668 10.2478 42.7705 10.0731 42.7705 9.74281C42.7705 9.35881 42.688 9.20905 42.2944 9.14761C42.1696 9.12841 42.0448 9.12841 41.92 9.11689C41.8489 9.11689 41.6204 9.11689 41.2556 9.09577C41.0809 9.09577 40.8832 9.08617 40.6451 9.07657C39.6179 9.02473 38.5177 8.98441 38.5177 7.78057C38.5177 6.70345 39.1936 6.32329 41.0291 6.32329C41.4933 6.32357 41.9573 6.34728 42.4192 6.39433C42.7398 6.41819 43.0531 6.50221 43.3427 6.64201C43.5808 6.77449 43.6633 6.98953 43.6633 7.37161C43.665 7.49542 43.6586 7.6192 43.6441 7.74217H42.638L42.5958 7.52521C42.544 7.26793 42.5228 7.21609 42.4403 7.15465C42.2963 7.04329 41.8489 6.98953 41.2268 6.98953C40.6048 6.98953 40.2419 7.02025 39.95 7.12393C39.6582 7.22761 39.566 7.39081 39.566 7.73065C39.5567 7.82052 39.5693 7.91131 39.6027 7.99525C39.6362 8.07918 39.6895 8.15376 39.758 8.21257C40.0288 8.37769 41.4496 8.35657 41.9353 8.36617C42.3289 8.35702 42.7215 8.4095 43.0988 8.52169C43.6288 8.71369 43.8361 9.04393 43.8361 9.74473C43.8361 10.3092 43.6441 10.6587 43.2236 10.8756M49.6019 11.1617L47.1059 8.90185H46.7315V11.1617H45.6966V4.32841H46.7334V8.22217H47.1078L49.1737 6.38281H50.3852L47.9776 8.49481L50.9766 11.1675H49.598M56.126 8.31049H52.8044C52.8467 7.71529 52.9715 7.44649 53.2096 7.27177C53.4476 7.09705 53.8931 7.01641 54.5536 7.01641C55.456 7.01641 55.8803 7.20841 56.0377 7.62121C56.1154 7.84236 56.1499 8.07634 56.1395 8.31049H56.126ZM57.086 9.67753H56.0588C56.0262 9.82153 56.007 10.1921 55.8668 10.3246C55.7267 10.4571 55.3984 10.5511 54.5574 10.5511C53.7164 10.5511 53.2825 10.4379 53.054 10.2113C52.8774 10.0366 52.7737 9.67753 52.7737 9.11305V8.99017H57.111C57.1225 8.75209 57.1321 8.69065 57.1321 8.50633C57.1321 7.71529 57.0169 7.27177 56.6752 6.93385C56.2796 6.53257 55.5232 6.33673 54.4844 6.33673C53.1577 6.33673 52.3379 6.63625 51.9884 7.29673C51.762 7.79305 51.6555 8.33565 51.6774 8.88073C51.6774 9.91753 51.9577 10.5761 52.5702 10.9044C52.9542 11.1099 53.6166 11.2231 54.4576 11.2327C55.0939 11.2571 55.7303 11.1846 56.3449 11.0177C56.9459 10.8257 57.0918 10.4935 57.0918 10.2171C57.0918 10.1441 57.0918 9.90601 57.0707 9.68137L57.086 9.67753Z" fill="white"/>
<path fillRule="evenodd" clipRule="evenodd" d="M70.7831 6.0503C70.7831 7.05638 70.2071 7.26182 69.0302 7.26182H66.4151V5.09414H69.1646C70.2129 5.09414 70.7831 5.1863 70.7831 6.05414V6.0503ZM72.1521 9.23558C72.1521 8.3927 71.6644 7.76678 70.5028 7.59206V7.57094C71.4052 7.33478 71.8929 6.87206 71.8929 6.14246C71.8929 4.94054 71.3015 4.32422 69.6215 4.32422H65.3054V11.1575H69.7982C71.3111 11.1575 72.1521 10.4797 72.1521 9.2375V9.23558ZM71.0423 9.30662C71.0423 10.2839 70.3473 10.3761 69.2682 10.3761H66.4151V8.03366H69.4026C70.6794 8.03366 71.0423 8.44454 71.0423 9.30662ZM77.795 9.47174C77.795 9.87302 77.7642 10.2397 77.3073 10.3972C77.0385 10.4989 76.6545 10.5297 76.0113 10.5297C75.3681 10.5297 74.9841 10.4682 74.7556 10.3242C74.602 10.2321 74.5386 10.0785 74.5386 9.74822C74.5386 9.33734 74.6423 9.09926 74.8497 9.0071C75.057 8.91494 75.2951 8.89574 76.0842 8.89574H77.795V9.47174ZM78.8433 11.1575V8.4695C78.8551 8.0959 78.8417 7.72192 78.803 7.35014C78.7869 7.22804 78.7466 7.11041 78.6842 7.00421C78.6219 6.89801 78.5389 6.80541 78.4401 6.7319C77.9428 6.3479 76.7121 6.33254 76.0958 6.33254C75.6388 6.33254 74.3831 6.38438 73.9281 6.77414C73.862 6.83285 73.8103 6.90599 73.777 6.9879C73.7437 7.06981 73.7297 7.15828 73.7361 7.24646C73.7361 7.36934 73.7572 7.53446 73.7668 7.7495H74.7844C74.8055 7.62662 74.8247 7.32902 74.938 7.21574C75.0513 7.10246 75.3124 7.02374 76.0074 7.02374C76.8062 7.02374 77.3668 7.05638 77.5953 7.17926C77.8238 7.30214 77.8026 7.56326 77.8026 7.75526V8.22758H75.4526C74.819 8.22758 74.0932 8.22758 73.6881 8.78246C73.5025 9.05343 73.4114 9.37801 73.4289 9.70598C73.4289 10.8369 74.1354 11.217 75.9402 11.217C76.883 11.217 77.4974 11.073 77.8602 10.7543L77.9524 11.1383L78.8433 11.1575ZM84.8721 11.1575V8.54822C84.8721 7.6439 84.8298 7.44806 84.611 7.28294C84.3921 7.11782 83.9889 7.03718 83.3572 7.03718C82.7928 7.03652 82.2307 7.1088 81.6849 7.25222V11.1575H80.6481V6.37862H81.5812L81.6561 6.71846C81.837 6.60985 82.0304 6.52347 82.2321 6.46118C82.6753 6.34388 83.1332 6.29149 83.5914 6.30566C84.1274 6.28805 84.6611 6.38288 85.1582 6.58406C85.3303 6.65683 85.4819 6.77094 85.5995 6.91629C85.717 7.06164 85.7969 7.23374 85.8321 7.41734C85.8947 7.74881 85.9192 8.08637 85.905 8.42342V11.1575H84.8682M91.6094 11.1575L89.1134 8.89574H88.7294V11.1575H87.6926V4.32422H88.7294V8.21798H89.1134L91.1774 6.37862H92.3908L89.985 8.49062L92.9822 11.1633H91.6017" fill="#003F63"/>
</g>
<defs>
<clipPath id="clip0_5_9532">
<rect width="96" height="14.592" fill="white" transform="translate(0.332703)"/>
</clipPath>
</defs>
</svg>
