<svg width="80" height="19" viewBox="0 0 80 19" fill="none" xmlns="http://www.w3.org/2000/svg">
<g clip-path="url(#clip0_5_9537)">
<mask id="mask0_5_9537" style="mask-type:luminance" maskUnits="userSpaceOnUse" x="0" y="0" width="80" height="19">
<path d="M80 0.917969H0V18.918H80V0.917969Z" fill="white"/>
</mask>
<g mask="url(#mask0_5_9537)">
<path d="M78.7694 8.12612C78.7694 8.12612 78.4664 8.19591 78.4289 8.15506L78.4545 8.14144C78.4263 8.11441 78.4022 8.08345 78.383 8.04953C78.2809 8.09681 78.1703 8.12287 78.0579 8.12612C77.9661 8.12674 77.8772 8.09409 77.8076 8.03421C77.7458 8.06686 77.6768 8.08382 77.6068 8.08357C77.445 8.05907 77.294 7.98744 77.1728 7.87761C77.1257 7.80913 77.0922 7.73229 77.074 7.65123C77.0199 7.68058 76.9594 7.69595 76.8979 7.69595C76.8363 7.69595 76.7758 7.68058 76.7217 7.65123L76.6502 7.61719C76.6136 7.68811 76.5556 7.74569 76.4844 7.78175C76.4132 7.81781 76.3324 7.8305 76.2536 7.81804C76.1905 7.8068 76.1284 7.79029 76.0681 7.76868C76.0638 7.77366 76.0586 7.77771 76.0528 7.78059C76.0444 7.79887 76.0348 7.81651 76.0238 7.83336C76.0139 7.92919 75.9703 8.01839 75.9008 8.0851C75.8313 8.1518 75.7404 8.19167 75.6442 8.19761C75.635 8.25599 75.612 8.31131 75.577 8.35897C75.5421 8.40664 75.4963 8.44527 75.4434 8.47166C75.4229 8.55371 75.3857 8.63066 75.3342 8.69772C75.2826 8.76478 75.2178 8.82051 75.1438 8.86144C75.0878 9.00497 75.0152 9.14149 74.9277 9.26825C74.8163 9.4148 74.6871 9.54689 74.543 9.66144C76.7149 9.50144 78.2485 8.76272 78.9038 8.1874C78.9668 8.13293 78.8732 8.20272 78.7642 8.13804" fill="#00EF7F"/>
<path d="M79.8587 6.13516C79.839 6.13828 79.8188 6.13737 79.7995 6.13249C79.7801 6.12762 79.7619 6.11887 79.746 6.10679C79.7301 6.0947 79.7168 6.07953 79.7069 6.06217C79.6971 6.04482 79.6908 6.02564 79.6885 6.0058C79.6885 6.0058 80.0289 5.61942 79.9387 5.63474H79.8791C79.8791 5.63474 79.9132 5.29431 79.7872 5.34367C79.7343 5.36996 79.6761 5.38393 79.617 5.38452C79.617 5.38452 79.5506 5.26027 79.5881 5.23473C79.6255 5.2092 79.4179 5.2075 79.4179 5.2075C79.4179 5.2075 79.8774 4.71899 79.6681 4.76835C79.5523 4.79389 79.5421 4.71899 79.5421 4.71899L79.6936 4.60835C79.7736 4.53857 79.8281 4.45005 79.7736 4.45856C79.7532 4.46027 79.7326 4.45766 79.7133 4.45092C79.6939 4.44417 79.6762 4.43344 79.6613 4.41942C79.6613 4.41942 79.857 3.99899 79.7481 4.03303C79.4826 4.13516 79.4485 4.04495 79.4485 4.04495C79.4834 3.92737 79.5057 3.8064 79.5149 3.6841C79.4877 3.66367 79.3787 3.66367 79.4536 3.6092C79.5285 3.55473 79.6238 3.39814 79.6017 3.37942C79.5796 3.36069 79.5183 3.41856 79.5728 3.31473C79.6187 3.22149 79.6431 3.11911 79.6442 3.01516C79.6074 3.01766 79.5706 3.01067 79.5372 2.99488C79.5038 2.97909 79.475 2.95501 79.4536 2.92495C79.4536 2.92495 79.7328 2.65771 79.7191 2.49431C79.7191 2.47389 79.3991 2.46367 79.4587 2.42452C79.6117 2.34155 79.7318 2.20885 79.7991 2.04835C79.7991 2.01091 79.6289 2.03303 79.6613 1.99899C79.8094 1.91899 79.76 1.71303 79.7991 1.62452C79.7804 1.58878 79.6613 1.58878 79.6613 1.58878C79.6491 1.5586 79.6459 1.52556 79.6519 1.49358C79.6579 1.4616 79.673 1.43203 79.6953 1.40835C79.794 1.31984 79.8485 1.18367 79.8213 1.18367C79.6613 1.18367 79.8213 1.06452 79.8366 1.0441C79.8519 1.02367 79.9506 0.913034 79.8843 0.91814C79.7422 0.941751 79.6063 0.993236 79.4842 1.06963C79.4842 1.06963 79.4349 0.989628 79.4196 1.01686C79.412 1.10358 79.3834 1.18713 79.3362 1.26027C79.2877 1.32845 79.2355 1.39381 79.1796 1.45601C79.1796 1.45601 79.0808 1.32495 79.0706 1.34878C79.0526 1.40949 79.025 1.46694 78.9889 1.51899C78.9552 1.5753 78.9133 1.62634 78.8647 1.67048C78.8647 1.67048 78.8204 1.61091 78.8153 1.64495C78.8132 1.70062 78.7961 1.7547 78.766 1.80154C78.766 1.80154 78.6519 1.64495 78.64 1.66537C78.6281 1.6858 78.657 1.65516 78.526 1.91048C78.488 1.98045 78.4322 2.03916 78.3643 2.08069C78.3643 2.08069 78.3149 1.99218 78.2894 2.03133C78.2802 2.08825 78.2594 2.14269 78.2284 2.19129C78.1974 2.23988 78.1567 2.28161 78.1089 2.31388C78.1089 2.31388 77.9506 2.20325 77.966 2.14367C77.8638 2.14367 77.8094 2.31388 77.7004 2.42452C77.6338 2.4939 77.5596 2.55556 77.4791 2.60835C77.4791 2.59303 77.4553 2.51814 77.4008 2.52325C77.3614 2.65437 77.2927 2.77483 77.2 2.87559C77.2 2.87559 77.1251 2.69516 77.0911 2.7241C77.0567 2.745 77.0185 2.75888 76.9787 2.76495C76.9787 2.76495 76.9787 2.64069 76.9345 2.61346C76.8902 2.58623 76.8749 2.4892 76.8494 2.51644C76.8082 2.56695 76.762 2.61315 76.7115 2.65431C76.6647 2.68294 76.6157 2.70798 76.5651 2.7292C76.5651 2.7292 76.4851 2.5709 76.4732 2.63048C76.4668 2.71323 76.4466 2.79433 76.4136 2.87048C76.3882 2.92996 76.3511 2.98377 76.3047 3.02878C76.3047 3.02878 76.1889 2.93006 76.1957 2.9624C76.2026 2.99474 76.1191 3.05942 76.1089 3.14282C76.1024 3.17506 76.0882 3.20523 76.0675 3.23074C76.0467 3.25624 76.02 3.27631 75.9898 3.2892C75.9851 3.25831 75.9753 3.2284 75.9609 3.20069C75.947 3.16956 75.9267 3.14172 75.9013 3.11899C75.888 3.13366 75.8718 3.14528 75.8536 3.15303C75.8379 3.16346 75.8214 3.17257 75.8042 3.18027C75.795 3.08481 75.7666 2.99219 75.7208 2.90793C75.6698 2.83303 75.5864 2.70537 75.5506 2.73771C75.5206 2.78351 75.4877 2.8273 75.4519 2.86878C75.417 2.89939 75.3765 2.92308 75.3328 2.93857C75.3328 2.93857 75.2953 2.86878 75.2579 2.90112C75.2504 2.95932 75.2361 3.01644 75.2153 3.07133C75.1864 3.14112 75.1421 3.20069 75.1319 3.19559C75.1217 3.19048 75.0298 3.07644 74.9957 3.11389C74.9702 3.11389 74.9651 3.2841 74.9106 3.38112C74.8642 3.47264 74.807 3.55834 74.7404 3.63644C74.7369 3.61265 74.7295 3.58964 74.7183 3.56835C74.686 3.53261 74.6417 3.45091 74.6264 3.49346C74.5946 3.55796 74.5506 3.61574 74.497 3.66367C74.4501 3.70623 74.3994 3.7444 74.3455 3.77771C74.3455 3.77771 74.286 3.67899 74.3013 3.63814C74.3166 3.59729 74.2672 3.61431 74.2672 3.61431C74.2578 3.61465 74.2485 3.61694 74.24 3.62104C74.2315 3.62514 74.224 3.63096 74.2179 3.63814L74.177 3.67899C74.1304 3.61941 74.0804 3.56258 74.0272 3.50878C73.9762 3.45431 73.9472 3.4492 73.9217 3.46452C73.8213 3.53601 73.8383 3.57006 73.7174 3.63474C73.5966 3.69942 73.4962 3.99218 73.4962 3.99218C73.4766 3.97649 73.4548 3.96386 73.4315 3.95474H73.3498C73.2511 3.96495 73.3277 4.14537 73.2902 4.25431C73.263 4.36674 73.2194 4.47456 73.1609 4.57431C73.1609 4.57431 73.0621 4.48069 73.0008 4.51474C72.9878 4.59297 72.9643 4.66911 72.9311 4.74112C72.8957 4.81825 72.8559 4.89327 72.8119 4.9658C72.702 4.95743 72.599 4.90897 72.5226 4.82963C72.4204 4.74963 72.4034 4.61176 72.3217 4.62878C72.296 4.80458 72.2383 4.97418 72.1515 5.1292C72.132 5.11986 72.1102 5.11634 72.0888 5.11906C72.0674 5.12178 72.0472 5.13062 72.0306 5.14452C72.0204 5.21091 72.0596 5.23133 72.0596 5.37431C72.0596 5.51729 72.0494 5.62452 72.0494 5.62452C72.0282 5.6081 72.0021 5.59918 71.9753 5.59918C71.9485 5.59918 71.9225 5.6081 71.9013 5.62452C71.9659 5.8127 71.9811 6.01431 71.9455 6.21006C71.8776 6.17953 71.801 6.1741 71.7294 6.19473C71.68 6.30197 71.7753 6.45516 71.8145 6.61176C71.8406 6.70002 71.8498 6.79241 71.8417 6.8841C71.7848 6.89654 71.7335 6.92698 71.6953 6.9709C71.8145 7.77942 73.2936 8.92155 73.5098 9.1224C73.5673 9.15983 73.6128 9.21301 73.6409 9.27559C73.7055 9.48154 73.3906 9.69431 73.3753 9.69942C73.36 9.70452 72.9651 9.94963 71.7243 9.94963H70.766L68.3098 13.1496V5.58027L66.2298 6.58112V18.5998H68.3098V14.8909L70.5855 18.5879H73.3617L70.0953 13.6518L72.6111 10.6509C73.1064 10.0909 73.7123 9.81857 73.9421 9.67729C74.783 9.15644 74.8664 8.49771 74.8664 8.49771C74.8664 8.49771 74.9413 8.43814 74.9583 8.4824C74.9753 8.52665 74.9957 8.51303 74.9957 8.51303C75.0254 8.49237 75.0497 8.4649 75.0666 8.43291C75.0835 8.40093 75.0924 8.36537 75.0928 8.3292C75.0928 8.3292 75.057 8.1675 75.0928 8.14708C75.1285 8.12665 75.1574 8.15729 75.1966 8.15729C75.2263 8.1555 75.2556 8.14918 75.2834 8.13856C75.2761 8.08833 75.2761 8.03731 75.2834 7.98708C75.2834 7.98708 75.3106 7.98708 75.3174 7.90197C75.3203 7.85238 75.3415 7.80564 75.377 7.77091C75.4432 7.76956 75.5092 7.77817 75.5728 7.79644C75.6374 7.82878 75.6426 7.81346 75.6426 7.81346C75.6426 7.81346 75.6647 7.70963 75.6919 7.67218C75.7464 7.59218 75.726 7.54793 75.8264 7.48154C75.9009 7.43675 75.9725 7.38729 76.0408 7.33346C76.0886 7.34125 76.1333 7.36184 76.1702 7.39303C76.2164 7.42182 76.2679 7.44093 76.3217 7.4492C76.366 7.36954 76.4276 7.30088 76.5021 7.24835C76.5731 7.20744 76.6534 7.18519 76.7353 7.18367C76.7353 7.18367 76.7455 7.18367 76.7728 7.22112C76.8102 7.26175 76.8539 7.29621 76.9021 7.32325C76.9673 7.25035 77.0557 7.20224 77.1523 7.18708C77.3481 7.14452 77.457 7.13772 77.4723 7.15644C77.4832 7.27054 77.4746 7.38566 77.4468 7.49686C77.4413 7.52675 77.4424 7.55748 77.45 7.58689C77.4577 7.6163 77.4717 7.64367 77.4911 7.66708C77.4993 7.65683 77.5098 7.64867 77.5217 7.64325C77.538 7.6347 77.5551 7.62785 77.5728 7.62282C77.583 7.62282 77.5728 7.65686 77.5728 7.67218L77.5966 7.71644C77.5966 7.71644 77.6068 7.73176 77.6834 7.6875C77.7779 7.64654 77.8767 7.61628 77.9779 7.59729C77.9983 7.59729 77.9336 7.66708 77.9694 7.6824C78.0054 7.70554 78.0386 7.73298 78.0681 7.7641C78.1601 7.75419 78.248 7.72078 78.3234 7.66708C78.3943 7.62084 78.4745 7.59064 78.5583 7.57857C78.5787 7.57857 78.5345 7.65686 78.5685 7.67729C78.6077 7.68521 78.6477 7.68864 78.6877 7.6875C78.7047 7.6875 78.6723 7.73686 78.6877 7.73686C78.703 7.73686 78.6723 7.75218 78.6877 7.7692C78.703 7.78622 78.6774 7.83388 78.7149 7.87303C78.7523 7.91218 79.0553 7.84069 79.0553 7.84069C79.137 8.0109 79.3055 7.84069 79.4077 7.77431C79.4071 7.74958 79.4127 7.7251 79.424 7.7031C79.4353 7.6811 79.4519 7.66228 79.4723 7.64835C79.6681 7.53091 79.794 7.38793 79.7174 7.41176C79.7086 7.41518 79.6992 7.41658 79.6898 7.41585C79.6803 7.41512 79.6712 7.41228 79.663 7.40754C79.6548 7.4028 79.6478 7.39628 79.6425 7.38846C79.6372 7.38065 79.6337 7.37174 79.6323 7.36239C79.7021 7.2875 79.9319 7.00325 79.8315 6.9675C79.7533 7.00424 79.6676 7.02175 79.5813 7.01857C79.5813 7.01857 79.6919 6.98282 79.6323 6.82963C79.6323 6.81261 79.3532 6.81261 79.4468 6.71729C79.5166 6.65601 79.617 6.52495 79.5881 6.53176C79.5115 6.55729 79.5013 6.46708 79.5013 6.46708C79.5787 6.45534 79.6516 6.423 79.7123 6.37346C79.8281 6.27644 79.9319 6.14367 79.8706 6.14367M26.0102 6.51474C24.7557 6.51474 23.1506 6.61346 22.2179 6.61346V18.5998H24.4885V8.14367C24.7557 8.14367 25.1949 8.12495 25.6034 8.12495C27.2562 8.12495 28.0545 8.85857 28.0545 10.719C28.0545 12.913 26.6689 13.1428 25.7889 13.1684L25.0111 14.7684C25.1949 14.7786 25.3906 14.7837 25.6204 14.7837C26.2604 14.7837 27.9081 14.7837 29.04 13.8254C29.4995 13.4209 29.8636 12.9195 30.1058 12.3573C30.3481 11.7951 30.4625 11.1861 30.4408 10.5743C30.4408 9.36921 30.0698 8.3258 29.4791 7.68069C28.5004 6.57772 27.1098 6.51644 26.0153 6.51644M15.0604 17.3964C13.0485 17.3964 11.2562 15.5718 11.2562 12.4603C11.2562 10.0432 12.4187 7.86452 14.766 7.86452C16.7609 7.86452 18.5549 9.6892 18.5549 12.8449C18.5549 16.4194 16.3745 17.4049 15.0604 17.4049V17.3964ZM19.1353 7.81686C17.7055 6.46537 15.6953 6.37686 15.2936 6.37686C13.8162 6.37686 12.32 6.62027 10.8545 7.95133C9.64085 9.05091 8.83064 10.5505 8.83064 12.702C8.83064 15.5513 10.4409 18.8994 14.6962 18.8994C17.874 18.8994 20.9668 16.8449 20.9668 12.5301C20.9668 9.90537 19.8366 8.46537 19.1353 7.81686ZM3.79404 6.51474C2.53447 6.51474 0.929362 6.61346 0 6.61346V18.5998H2.27575V8.14367C2.53447 8.14367 2.97362 8.12495 3.38553 8.12495C5.03319 8.12495 5.8366 8.85857 5.8366 10.719C5.8366 12.9181 4.44596 13.1428 3.56936 13.1684L2.78979 14.7684C2.97362 14.7786 3.16426 14.7837 3.40085 14.7837C4.03915 14.7837 5.69021 14.7837 6.82043 13.8254C7.27981 13.421 7.64352 12.9195 7.88521 12.3572C8.12691 11.7949 8.24053 11.1859 8.21787 10.5743C8.21787 9.38282 7.8434 8.3258 7.26128 7.68069C6.28085 6.58112 4.8783 6.51644 3.79404 6.51644M65.3413 9.97516H62.914L60.4664 13.1752V5.58027L58.383 6.58112V18.5998H60.4596V14.8909L62.737 18.5879H65.5149L62.2553 13.6518L65.3413 9.97516Z" fill="#00EF7F"/>
</g>
<path d="M74.1181 18.6007H76.2237V9.96924L74.1181 11.0348V18.6007ZM54.8739 9.74967C53.873 9.74967 52.8943 10.3386 52.0637 11.0161L52.0926 9.97435L49.9837 11.0212V18.6007H52.0926V12.6637C52.3735 12.3999 53.1139 11.7667 53.9292 11.7667C54.8586 11.7667 54.8586 12.5003 54.8586 13.8944V18.6007H56.9505V13.3071C56.9505 12.2688 56.9505 11.4654 56.6237 10.8561C56.466 10.5254 56.2181 10.246 55.9085 10.0503C55.5989 9.85451 55.2402 9.75029 54.8739 9.74967ZM40.8347 7.67988C39.8526 6.5752 38.4671 6.51562 37.3692 6.51562C36.1079 6.51562 34.5096 6.61435 33.5684 6.61435V18.6007H35.8475V8.14456C36.1079 8.14456 36.5488 8.12584 36.959 8.12584C38.6084 8.12584 39.4084 8.85945 39.4084 10.7199C39.4084 12.919 38.0194 13.1437 37.1445 13.1692L36.3633 14.7692C36.5488 14.7795 36.7428 14.7846 36.9726 14.7846C37.6143 14.7846 39.2637 14.7846 40.3956 13.8263C40.8543 13.4213 41.2176 12.9197 41.4592 12.3576C41.7009 11.7954 41.8149 11.1867 41.793 10.5752C41.793 9.38371 41.4237 8.32669 40.8347 7.68158M45.8577 16.6773C45.1769 16.9003 44.9079 16.9871 44.4381 16.9871C43.7879 16.9871 43.5871 16.7165 43.5871 16.0254C43.5871 15.3343 43.7352 15.2254 44.2356 15.0875C44.3701 15.0416 45.039 14.8833 45.8543 14.7369L45.8577 16.6773ZM48.2492 16.9871C47.873 16.9871 47.8526 16.7165 47.873 16.2263L47.9241 13.142C47.9394 12.2416 47.9394 11.6714 47.6943 11.0178C47.4781 10.4663 46.7922 9.75137 45.2875 9.75137C44.2496 9.75742 43.2337 10.0515 42.353 10.6007L42.9726 12.1326C43.2023 11.9008 43.4773 11.7186 43.7803 11.5974C44.0833 11.4762 44.4081 11.4185 44.7343 11.428C44.9335 11.428 45.3692 11.4467 45.6501 11.7326C45.8628 11.9573 45.8628 12.1837 45.8628 13.4126C42.2986 13.9624 41.5922 14.3743 41.5922 16.2926C41.5922 18.5429 42.9181 18.7829 43.3947 18.7829C44.3241 18.7829 45.2433 18.359 46.0433 17.9675C46.1743 18.2722 46.4007 18.7829 47.1547 18.7829C48.1181 18.7829 49.1343 18.1139 49.1786 18.0918H49.1888L48.7105 16.9003C48.56 16.9412 48.4051 16.9635 48.2492 16.9667" fill="#00EF7F"/>
</g>
<defs>
<clipPath id="clip0_5_9537">
<rect width="80" height="18.0426" fill="white" transform="translate(0 0.902344)"/>
</clipPath>
</defs>
</svg>
