<svg width="81" height="16" viewBox="0 0 81 16" fill="none" xmlns="http://www.w3.org/2000/svg">
<path d="M73.2204 2.69047C72.2908 2.05047 70.8971 1.73047 69.0603 1.73047H64.2603L62.4763 11.4105H56.2059L56.6107 9.21367H60.3947L60.8443 6.74807H57.062L57.4668 4.56887H61.3659L61.8828 1.73847H53.966L52.2732 10.9209H49.3692L51.0667 1.73847H46.934L45.2428 10.9209H42.4123L44.118 1.73847H39.9836L38.1964 11.4185H31.8668L32.2684 9.22167H36.0667L36.5163 6.77047H32.7211L33.1195 4.57527H37.0684L37.5803 1.73847H12.9083L11.5083 9.40407L8.71155 1.73847H4.41395L2.10675 14.2569H6.20755L7.60115 6.37527L10.3211 14.2569H25.0219L26.8076 4.57527H29.1068L27.318 14.2569H65.9788L67.0987 8.14487L68.9131 14.2569H73.0155L71.1371 9.26167L71.5659 9.17207C72.5131 8.97047 73.2507 8.53207 73.7659 7.88087C74.2812 7.22967 74.5404 6.37047 74.5404 5.35767C74.5435 4.17047 74.1068 3.29847 73.2204 2.69047ZM21.4459 11.4185H15.174L15.5787 9.22167H19.5163L19.9643 6.74807H16.0588L16.4348 4.57527H22.7068L21.4459 11.4185ZM69.838 7.19767C69.4251 7.48567 68.8268 7.62647 68.0091 7.62647H67.1964L67.8171 4.26647H68.4139C69.0939 4.26647 69.5883 4.37527 69.9307 4.59767C70.1979 4.77047 70.5116 5.11607 70.5116 5.76887C70.5211 6.55767 70.1484 6.98487 69.838 7.19767Z" fill="#83BA3B"/>
<path d="M76.3951 13.45L76.2943 11.4756L77.1663 11.4308C77.3015 11.4183 77.4379 11.4291 77.5695 11.4628C77.665 11.4934 77.747 11.5562 77.8015 11.6404C77.8607 11.727 77.8945 11.8284 77.8991 11.9332C77.9085 12.0639 77.8666 12.1931 77.7822 12.2932C77.6738 12.4068 77.5299 12.4802 77.3743 12.5012C77.4313 12.5239 77.4851 12.554 77.5343 12.5908C77.6221 12.6648 77.7001 12.7498 77.7663 12.8436L78.1343 13.362L77.8143 13.378L77.5326 12.9812C77.4494 12.866 77.3823 12.7796 77.3311 12.7204C77.2914 12.6714 77.2445 12.6288 77.1919 12.594C77.1538 12.5727 77.1128 12.5571 77.0703 12.5476C77.017 12.5436 76.9635 12.5436 76.9103 12.5476L76.6095 12.562L76.6543 13.4372L76.3951 13.45ZM76.5983 12.338L77.1583 12.3092C77.2527 12.3076 77.3462 12.2903 77.4351 12.258C77.4971 12.234 77.5491 12.1894 77.5822 12.1316C77.6132 12.0771 77.6281 12.015 77.6255 11.9524C77.6245 11.9088 77.6136 11.866 77.5936 11.8272C77.5737 11.7884 77.5452 11.7546 77.5103 11.7284C77.4162 11.6654 77.3025 11.6387 77.1903 11.6532L76.5695 11.6852L76.5983 12.338Z" fill="#83BA3B"/>
<path d="M76.9692 10.5768C76.6059 10.5963 76.2564 10.7231 75.9651 10.9412C75.6738 11.1593 75.4537 11.4588 75.3326 11.802C75.2116 12.1452 75.195 12.5165 75.285 12.8691C75.375 13.2217 75.5675 13.5397 75.8382 13.7829C76.1089 14.0261 76.4456 14.1836 76.8058 14.2354C77.166 14.2872 77.5335 14.2311 77.8618 14.074C78.19 13.917 78.4644 13.6662 78.6501 13.3533C78.8359 13.0403 78.9246 12.6794 78.9052 12.316C78.8788 11.8288 78.66 11.3719 78.2971 11.0458C77.9341 10.7198 77.4565 10.5511 76.9692 10.5768ZM75.5388 12.4968C75.5329 12.107 75.6763 11.7297 75.9397 11.4422C76.2031 11.1548 76.5664 10.9791 76.9553 10.951C77.3441 10.923 77.7289 11.0448 78.0308 11.2915C78.3327 11.5381 78.5288 11.891 78.5788 12.2776C78.5788 12.2984 78.5788 12.3208 78.5788 12.3416V12.42C78.5807 12.8194 78.426 13.2037 78.1478 13.4903C77.8696 13.777 77.4902 13.9432 77.0909 13.9532C76.6915 13.9633 76.3042 13.8164 76.0119 13.5441C75.7197 13.2718 75.5458 12.8958 75.5276 12.4968H75.5388Z" fill="#83BA3B"/>
</svg>
