<svg width="81" height="27" viewBox="0 0 81 27" fill="none" xmlns="http://www.w3.org/2000/svg">
<path d="M61.9175 5.67199C61.5088 6.77455 60.7778 7.46268 59.3788 7.46268H59.3709H58.6479L59.8818 4.1237H60.5813C61.8782 4.11588 62.3576 4.49122 61.9175 5.67199ZM65.6194 2.62234C64.9906 1.71526 63.7174 1.26955 61.7131 1.26955H57.0838L52.0771 15.0868H56.3371L58.1605 10.223C58.247 10.4263 59.3238 15.0868 59.3238 15.0868H63.796C63.796 15.0868 62.9864 11.6618 62.3812 10.2777C62.224 9.92585 62.0668 9.51923 61.8546 9.19081C63.12 8.72163 64.9435 7.70508 65.7059 5.65635C66.1696 4.38957 66.1382 3.3652 65.6194 2.62234ZM22.894 1.25391H15.0107C13.7689 1.25391 12.5585 1.25391 11.4817 1.80128C10.3971 2.35647 9.44607 3.45904 8.70726 5.66417C8.55006 6.14116 8.46361 6.54778 8.45575 6.89966C8.44789 7.25937 8.50291 7.55651 8.63652 7.82238C8.80157 8.14298 9.0688 8.44795 9.40677 8.69817C9.74474 8.9484 10.1456 9.15953 10.5779 9.29247C10.5936 9.30029 10.8215 9.36284 11.0966 9.44104C11.3638 9.51923 11.6311 9.59743 11.8983 9.67563C12.0162 9.71472 12.1498 9.76164 12.2677 9.83202C12.3856 9.90239 12.4956 9.99623 12.5585 10.1292C12.6057 10.2152 12.6293 10.3168 12.6293 10.4185C12.6293 10.5201 12.6135 10.6296 12.5742 10.7469C12.4721 11.0441 12.3227 11.2395 12.0319 11.3568C11.7411 11.4741 11.3088 11.5132 10.6643 11.5211H2.55311L1.27197 15.0633H9.95695C10.7744 15.0633 12.2677 15.0633 13.706 14.4534C15.1444 13.8435 16.5198 12.6158 17.1014 10.1604C17.3215 9.23773 17.2508 8.48704 16.8971 7.90057C16.5355 7.3141 15.8832 6.88402 14.94 6.61034C14.94 6.61034 14.7278 6.54778 14.4763 6.47741C14.2248 6.40703 13.9418 6.32101 13.7925 6.28192C13.5488 6.21154 13.3602 6.07079 13.2502 5.89094C13.1401 5.71108 13.1087 5.49213 13.1716 5.27318C13.2344 5.0386 13.3916 4.85875 13.6196 4.73363C13.8475 4.60852 14.1462 4.53814 14.4999 4.53814H19.5458C19.5772 4.4834 19.6165 4.42867 19.648 4.38175C20.5518 3.06806 21.6679 2.00459 22.894 1.25391Z" fill="#EE7F00"/>
<path d="M26.5988 8.10406C25.4198 11.3414 24.5631 12.1624 23.282 12.1624C22.0244 12.1624 21.5843 11.3648 22.7633 8.13534C23.6357 5.7269 24.7753 4.18644 26.1508 4.18644C27.4476 4.18644 27.7463 4.94494 26.5988 8.10406ZM30.6387 2.55214C29.9549 1.56687 28.7759 1.05859 27.1411 1.05859C26.0722 1.05859 25.0347 1.30882 24.0601 1.77018C22.6689 2.43485 21.4035 3.53741 20.3739 5.0075C19.7058 5.96149 19.1321 7.06405 18.6841 8.29955C17.8352 10.6298 17.8509 12.5221 18.7155 13.7655C19.2028 14.4692 20.2246 15.3137 22.2995 15.3137H22.3074C26.0879 15.3137 28.9017 12.8271 30.6937 7.91639C31.1574 6.61052 31.7783 4.18644 30.6387 2.55214ZM45.7372 1.25408H37.6967C35.4488 1.25408 33.7826 2.39575 32.9887 4.5305L29.1689 15.0635H33.3503L35.3073 9.64453H39.0014L40.0546 6.74345H36.3684L36.9579 5.06223C37.0836 4.76509 37.3745 4.52268 37.8067 4.52268C38.0504 4.52268 40.762 4.52268 42.161 4.52268C42.2003 4.46794 42.2318 4.41321 42.2632 4.35847C43.2064 3.06823 44.5111 2.00477 45.7372 1.25408ZM49.3919 8.10406C48.213 11.3414 47.3563 12.1624 46.0751 12.1624C44.8176 12.1624 44.3853 11.3648 45.5564 8.13534C46.4288 5.7269 47.5685 4.18644 48.9361 4.18644C50.2408 4.18644 50.5395 4.94494 49.3919 8.10406ZM53.4318 2.55214C52.7402 1.56687 51.5691 1.05859 49.9343 1.05859C48.8653 1.05859 47.8279 1.30882 46.8533 1.77018C45.4621 2.43485 44.1967 3.53741 43.1671 5.0075C42.499 5.96149 41.9252 7.06405 41.4772 8.29955C40.6284 10.6298 40.6441 12.5221 41.5087 13.7655C41.996 14.4692 43.0177 15.3137 45.0927 15.3137H45.1005C48.8811 15.3137 51.7027 12.8271 53.4869 7.91639C53.9506 6.61052 54.5715 4.18644 53.4318 2.55214Z" fill="#EE7F00"/>
<path d="M65.819 1.25781C66.0862 1.46894 66.322 1.71917 66.5106 1.99286C67.0058 2.71226 67.1944 3.55678 67.0844 4.53423H69.6152L65.7954 15.0751H69.6074L73.4272 4.54205H78.3238L79.5106 1.25781H65.819Z" fill="#EE7F00"/>
<path d="M8.15776 17.1803C8.0713 17.4305 7.9534 17.6025 7.81979 17.6964C7.68617 17.798 7.48182 17.8449 7.21459 17.8449C6.94736 17.8449 6.77445 17.798 6.71943 17.7042C6.66441 17.6104 6.67227 17.4383 6.75873 17.2037C6.85304 16.9535 6.96308 16.7815 7.09669 16.6798C7.23031 16.586 7.4268 16.5312 7.70189 16.5312C7.96912 16.5312 8.14204 16.5782 8.19705 16.672C8.25993 16.7658 8.24421 16.9379 8.15776 17.1803ZM5.85486 17.1803C5.7684 17.4305 5.65837 17.6025 5.52475 17.6964C5.39114 17.798 5.19464 17.8449 4.91955 17.8449C4.64446 17.8449 4.47941 17.798 4.42439 17.7042C4.36152 17.6104 4.37724 17.4383 4.46369 17.2037C4.55801 16.9535 4.66804 16.7815 4.80166 16.6798C4.93527 16.586 5.13963 16.5312 5.40686 16.5312C5.68195 16.5312 5.847 16.5782 5.90988 16.672C5.95704 16.7658 5.94132 16.9379 5.85486 17.1803ZM7.08883 22.7557C6.9395 23.1779 6.73515 23.5533 6.4915 23.8817C6.24785 24.2179 5.9649 24.4916 5.64265 24.7262C5.3204 24.953 4.95885 25.1328 4.56587 25.2501C4.17288 25.3674 3.74846 25.43 3.28474 25.43C2.85245 25.43 2.49091 25.3752 2.18438 25.2658C1.88571 25.1563 1.64992 24.9921 1.49272 24.7731C1.33553 24.5542 1.25693 24.2805 1.24907 23.9521C1.24121 23.6236 1.31981 23.2405 1.477 22.8026L2.98607 18.6269C3.00179 18.5878 3.01751 18.5565 3.04894 18.5331C3.08038 18.5018 3.12754 18.4783 3.19042 18.4627C3.2533 18.4471 3.32404 18.4314 3.41835 18.4236C3.51267 18.4158 3.6227 18.408 3.76418 18.408C3.89779 18.408 4.00783 18.4158 4.09429 18.4236C4.18074 18.4314 4.24362 18.4471 4.29078 18.4627C4.33794 18.4783 4.36938 18.5018 4.37724 18.5331C4.39295 18.5643 4.39295 18.5956 4.37724 18.6269L2.90747 22.6775C2.80529 22.9511 2.75814 23.1857 2.75028 23.389C2.74242 23.5924 2.78172 23.7566 2.86031 23.8817C2.93891 24.0146 3.04894 24.1084 3.19828 24.1788C3.34761 24.2414 3.52839 24.2805 3.74846 24.2805C3.96853 24.2805 4.17288 24.2492 4.36937 24.1788C4.56587 24.1084 4.7545 24.0146 4.9117 23.8817C5.07675 23.7566 5.22608 23.5924 5.3597 23.4047C5.49331 23.217 5.60335 22.9981 5.68981 22.7635L7.18315 18.6347C7.19887 18.5956 7.21459 18.5643 7.24603 18.5409C7.27747 18.5096 7.32463 18.4862 7.37964 18.4705C7.44252 18.4549 7.51326 18.4392 7.60758 18.4314C7.70189 18.4236 7.81193 18.4158 7.94554 18.4158C8.07916 18.4158 8.18919 18.4236 8.26779 18.4314C8.34639 18.4392 8.41713 18.4549 8.45642 18.4705C8.50358 18.4862 8.53502 18.5096 8.54288 18.5409C8.55074 18.5722 8.55074 18.6034 8.54288 18.6347L7.08883 22.7557ZM13.0622 20.3707C13.1094 20.2299 13.1329 20.1126 13.1329 20.0032C13.1329 19.8937 13.1015 19.7998 13.0386 19.7295C12.9836 19.6591 12.8972 19.6044 12.7793 19.5653C12.6614 19.5262 12.5042 19.5105 12.2841 19.5105H11.5846L10.9401 21.2934H11.7182C11.9226 21.2934 12.0876 21.2699 12.2212 21.223C12.3548 21.1761 12.4806 21.1135 12.5906 21.0275C12.7007 20.9415 12.795 20.8477 12.8736 20.7382C12.96 20.6131 13.0229 20.4958 13.0622 20.3707ZM12.3548 23.303C12.4099 23.1466 12.4413 23.0059 12.4256 22.873C12.4177 22.7478 12.3784 22.6462 12.3077 22.5602C12.2369 22.4742 12.1269 22.4116 11.9854 22.3647C11.844 22.3178 11.6475 22.2943 11.396 22.2943H10.5707L9.86331 24.2414H10.8615C11.058 24.2414 11.223 24.2257 11.3724 24.1788C11.5139 24.1397 11.6553 24.0772 11.7811 23.999C11.9068 23.9208 12.0169 23.8191 12.119 23.7018C12.2212 23.5924 12.2998 23.4594 12.3548 23.303ZM13.8089 23.2561C13.7224 23.4985 13.6045 23.7175 13.4709 23.9208C13.3294 24.1163 13.1801 24.2961 13.0072 24.4447C12.8343 24.5933 12.6456 24.7262 12.4413 24.8357C12.2369 24.9451 12.0247 25.039 11.8047 25.1094C11.5767 25.1797 11.3488 25.2345 11.1209 25.2658C10.8851 25.297 10.6336 25.3127 10.3585 25.3127H8.54288C8.42499 25.3127 8.33853 25.2814 8.28351 25.211C8.22849 25.1406 8.22849 25.0312 8.28351 24.8748L10.4528 18.8928C10.5078 18.7364 10.5864 18.6269 10.6964 18.5565C10.7986 18.4862 10.9087 18.4549 11.0265 18.4549H12.74C13.1565 18.4549 13.5024 18.4862 13.7617 18.5643C14.029 18.6347 14.2333 18.7442 14.3826 18.885C14.532 19.0257 14.6184 19.2056 14.642 19.4245C14.6656 19.6435 14.6263 19.9015 14.5241 20.1986C14.4612 20.3629 14.3826 20.5193 14.2883 20.6678C14.194 20.8164 14.084 20.9493 13.9582 21.0666C13.8325 21.1839 13.691 21.2934 13.5417 21.3872C13.3923 21.4811 13.2273 21.5514 13.0544 21.6062C13.2351 21.6453 13.3923 21.7 13.5259 21.7938C13.6596 21.8799 13.7617 21.9972 13.8325 22.1379C13.9032 22.2787 13.9425 22.4429 13.9425 22.6305C13.9346 22.8104 13.8953 23.0215 13.8089 23.2561ZM18.9177 24.7653C18.8784 24.867 18.847 24.953 18.8077 25.0233C18.7762 25.0937 18.7448 25.1485 18.7055 25.1876C18.674 25.2345 18.6426 25.2579 18.6033 25.2814C18.5719 25.3049 18.5404 25.3127 18.509 25.3127H15.0822C14.9643 25.3127 14.8857 25.2814 14.8306 25.211C14.7756 25.1406 14.7756 25.0312 14.8306 24.8748L16.9999 18.8928C17.0549 18.7364 17.1335 18.6269 17.2436 18.5565C17.3458 18.4862 17.4558 18.4549 17.5737 18.4549H20.9848C21.0162 18.4549 21.0398 18.4627 21.0555 18.4783C21.0713 18.494 21.087 18.5253 21.087 18.5722C21.087 18.6191 21.0791 18.6738 21.0634 18.7442C21.0477 18.8146 21.0162 18.9006 20.9848 19.0101C20.9455 19.1117 20.9141 19.1899 20.8826 19.2603C20.8512 19.3307 20.8197 19.3854 20.7804 19.4245C20.749 19.4636 20.7176 19.4949 20.6861 19.5183C20.6547 19.534 20.6233 19.5496 20.5918 19.5496H18.1553L17.5501 21.223H19.6094C19.6408 21.223 19.6644 21.2308 19.6879 21.2543C19.7037 21.2778 19.7194 21.3012 19.7194 21.3481C19.7194 21.3872 19.7115 21.442 19.6958 21.5123C19.6801 21.5827 19.6565 21.6609 19.6172 21.7626C19.5779 21.8642 19.5465 21.9502 19.5072 22.0206C19.4757 22.091 19.4443 22.1457 19.4129 22.1848C19.3814 22.2239 19.35 22.2552 19.3185 22.2708C19.2871 22.2865 19.2557 22.2943 19.2242 22.2943H17.165L16.4655 24.2257H18.9256C18.957 24.2257 18.9806 24.2336 19.0042 24.257C19.0199 24.2727 19.0356 24.3039 19.0356 24.3509C19.0356 24.39 19.0277 24.4525 19.012 24.5151C18.9806 24.5776 18.9491 24.6636 18.9177 24.7653ZM25.4255 20.4802C25.5041 20.2534 25.5277 20.0657 25.4806 19.9093C25.4334 19.7529 25.3076 19.6435 25.0954 19.5809C25.0326 19.5653 24.954 19.5496 24.8675 19.5418C24.781 19.534 24.6631 19.5262 24.4981 19.5262H23.8772L23.1698 21.4732H23.8772C24.0737 21.4732 24.2544 21.4498 24.4195 21.4029C24.5845 21.3559 24.7339 21.2856 24.8596 21.1996C24.9854 21.1135 25.1033 21.0119 25.1976 20.8868C25.2919 20.7617 25.3705 20.6287 25.4255 20.4802ZM25.5277 25.1328C25.512 25.1719 25.4963 25.2032 25.4727 25.2345C25.4491 25.2579 25.4098 25.2814 25.3469 25.297C25.2841 25.3127 25.2055 25.3283 25.1033 25.3361C25.0011 25.344 24.8596 25.344 24.6789 25.344C24.5295 25.344 24.4116 25.344 24.333 25.3361C24.2466 25.3283 24.1837 25.3127 24.1365 25.297C24.0894 25.2814 24.0658 25.2501 24.0579 25.2267C24.0501 25.1954 24.0422 25.1641 24.0422 25.1172L23.9872 23.5845C23.9715 23.4125 23.9558 23.2561 23.9401 23.1232C23.9165 22.9902 23.8772 22.8808 23.83 22.7869C23.775 22.6931 23.7043 22.6305 23.6021 22.5836C23.5078 22.5367 23.382 22.5133 23.2405 22.5133H22.8083L21.8651 25.125C21.8494 25.1641 21.8258 25.1954 21.7944 25.2188C21.7629 25.2501 21.7158 25.2736 21.6529 25.2892C21.5979 25.3049 21.5193 25.3205 21.4249 25.3283C21.3306 25.3361 21.2206 25.344 21.0791 25.344C20.9455 25.344 20.8355 25.3361 20.749 25.3283C20.6626 25.3205 20.5997 25.3049 20.5525 25.2892C20.5054 25.2736 20.4739 25.2501 20.4661 25.2188C20.4582 25.1876 20.4582 25.1563 20.4661 25.125L22.7218 18.8928C22.7768 18.7364 22.8554 18.6269 22.9654 18.5565C23.0676 18.4862 23.1777 18.4549 23.2956 18.4549H25.064C25.2448 18.4549 25.3862 18.4627 25.5041 18.4627C25.6063 18.4705 25.7085 18.4783 25.8107 18.4862C26.07 18.5253 26.2901 18.5956 26.4787 18.6895C26.6674 18.7833 26.8088 18.9084 26.9032 19.0648C26.9975 19.2212 27.0525 19.401 27.0604 19.6122C27.0682 19.8233 27.0211 20.0657 26.9189 20.3394C26.8324 20.574 26.7302 20.7773 26.6045 20.965C26.4787 21.1526 26.3294 21.3247 26.1643 21.4732C25.9993 21.6218 25.8107 21.7469 25.6063 21.8642C25.402 21.9737 25.1819 22.0597 24.9461 22.1301C25.0325 22.177 25.1033 22.2396 25.1662 22.3099C25.229 22.3803 25.2841 22.4663 25.3234 22.568C25.3627 22.6696 25.402 22.7869 25.4255 22.9121C25.4491 23.045 25.4648 23.1857 25.4727 23.3499L25.5592 24.7027C25.5592 24.8357 25.5592 24.9373 25.5592 24.9999C25.5434 25.0468 25.5356 25.0937 25.5277 25.1328ZM34.1498 24.9608C34.0948 25.0468 34.0476 25.1172 33.9848 25.1641C33.9297 25.211 33.859 25.2579 33.7804 25.2814C33.694 25.3049 33.5918 25.3283 33.4739 25.3361C33.356 25.344 33.2066 25.3518 33.0259 25.3518C32.8215 25.3518 32.6643 25.344 32.5464 25.3361C32.4285 25.3283 32.3421 25.3127 32.2792 25.2814C32.2163 25.2579 32.1849 25.2188 32.1692 25.1641C32.1534 25.1094 32.1534 25.0468 32.1692 24.9608L32.6486 20.6131H32.6408L30.0313 24.9608C29.9842 25.039 29.937 25.1094 29.882 25.1563C29.8348 25.211 29.7641 25.2501 29.6855 25.2736C29.6069 25.3048 29.5047 25.3205 29.3868 25.3283C29.2689 25.3361 29.1117 25.344 28.9152 25.344C28.7109 25.344 28.5537 25.3361 28.4358 25.3283C28.3179 25.3205 28.2315 25.3048 28.1686 25.2736C28.1057 25.2501 28.0743 25.211 28.0585 25.1563C28.0428 25.1015 28.0428 25.039 28.0507 24.953L28.6637 18.971C28.6795 18.8459 28.6952 18.7442 28.7188 18.6738C28.7423 18.6034 28.7816 18.5487 28.8366 18.5096C28.8917 18.4705 28.9781 18.4471 29.0803 18.4392C29.1825 18.4314 29.324 18.4236 29.5047 18.4236C29.6698 18.4236 29.8034 18.4236 29.8977 18.4314C29.992 18.4392 30.0628 18.4471 30.1021 18.4705C30.1414 18.494 30.1649 18.5174 30.1728 18.5565C30.1807 18.5956 30.1728 18.6425 30.1571 18.7129L29.4497 23.9677H29.4576L32.5936 18.752C32.6329 18.6895 32.6722 18.6269 32.7115 18.5878C32.7508 18.5487 32.7979 18.5096 32.8608 18.4862C32.9237 18.4627 33.0023 18.4471 33.1045 18.4392C33.1988 18.4314 33.3324 18.4236 33.4896 18.4236C33.6625 18.4236 33.7883 18.4236 33.8904 18.4314C33.9848 18.4392 34.0634 18.4549 34.1027 18.4783C34.1498 18.5018 34.1734 18.5331 34.1891 18.58C34.197 18.6191 34.197 18.6816 34.1891 18.752L33.5839 23.9677H33.5918L36.6885 18.7286C36.7199 18.6738 36.7514 18.6269 36.7828 18.58C36.8143 18.5409 36.8614 18.5096 36.9164 18.4862C36.9715 18.4627 37.05 18.4471 37.1444 18.4392C37.2387 18.4314 37.3644 18.4236 37.5373 18.4236C37.6945 18.4236 37.8124 18.4314 37.891 18.4392C37.9696 18.4471 38.0247 18.4705 38.0561 18.5096C38.0797 18.5487 38.0718 18.6034 38.0404 18.6816C38.0089 18.7598 37.9539 18.8615 37.8753 18.9944L34.1498 24.9608ZM41.3021 24.7653C41.2707 24.8513 41.2393 24.9373 41.2 25.0233C41.1685 25.0937 41.1292 25.1485 41.0978 25.1876C41.0664 25.2345 41.0349 25.2579 40.9956 25.2814C40.9642 25.3049 40.9327 25.3127 40.9013 25.3127H37.4745C37.3566 25.3127 37.2701 25.2814 37.223 25.211C37.1679 25.1406 37.1679 25.0312 37.223 24.8748L39.3922 18.8928C39.4473 18.7364 39.5259 18.6269 39.6359 18.5565C39.7381 18.4862 39.8481 18.4549 39.966 18.4549H43.3693C43.4007 18.4549 43.4243 18.4627 43.44 18.4783C43.4557 18.494 43.4714 18.5253 43.4714 18.5722C43.4714 18.6191 43.4636 18.6738 43.4478 18.7442C43.4321 18.8146 43.4086 18.9006 43.3693 19.0101C43.3378 19.0961 43.3064 19.1821 43.2671 19.2603C43.2356 19.3307 43.2042 19.3854 43.1649 19.4245C43.1335 19.4636 43.102 19.4949 43.0706 19.5183C43.0391 19.534 43.0077 19.5496 42.9763 19.5496H40.5398L39.9346 21.223H41.9938C42.0252 21.223 42.0488 21.2308 42.0724 21.2543C42.0881 21.2778 42.1038 21.3012 42.1038 21.3481C42.1038 21.3872 42.1038 21.442 42.0803 21.5123C42.0645 21.5827 42.041 21.6609 42.0017 21.7626C41.9624 21.8642 41.9309 21.9502 41.8995 22.0206C41.868 22.091 41.8366 22.1457 41.8052 22.1848C41.7737 22.2239 41.7423 22.2552 41.7109 22.2708C41.6794 22.2865 41.648 22.2943 41.6165 22.2943H39.5416L38.8421 24.2257H41.3021C41.3336 24.2257 41.3572 24.2336 41.3807 24.257C41.3965 24.2727 41.4122 24.3039 41.4122 24.3509C41.4122 24.39 41.4043 24.4525 41.3886 24.5151C41.3729 24.5776 41.3414 24.6636 41.3021 24.7653ZM44.2495 25.125C44.2338 25.1641 44.2181 25.1954 44.1788 25.2188C44.1474 25.2501 44.1002 25.2658 44.0373 25.2892C43.9744 25.3049 43.9037 25.3205 43.8094 25.3361C43.7151 25.344 43.605 25.3518 43.4636 25.3518C43.33 25.3518 43.2199 25.344 43.1335 25.3361C43.047 25.3283 42.9841 25.3127 42.937 25.2892C42.8898 25.2736 42.8584 25.2501 42.8505 25.2188C42.8348 25.1876 42.8348 25.1563 42.8505 25.125L45.1927 18.6504C45.2084 18.6191 45.232 18.58 45.2634 18.5565C45.2949 18.5253 45.342 18.5018 45.4049 18.4862C45.4678 18.4705 45.5385 18.4549 45.6329 18.4392C45.7272 18.4314 45.8372 18.4236 45.9708 18.4236C46.1044 18.4236 46.2145 18.4314 46.3009 18.4392C46.3874 18.4471 46.4503 18.4627 46.4974 18.4862C46.5446 18.5018 46.576 18.5253 46.5839 18.5565C46.5996 18.5878 46.5996 18.6191 46.5839 18.6504L44.2495 25.125ZM51.001 23.2561C50.8674 23.6158 50.6866 23.9364 50.4587 24.2023C50.2229 24.476 49.9636 24.7027 49.6649 24.8826C49.3741 25.0624 49.0518 25.2032 48.7139 25.297C48.3759 25.3909 48.0301 25.4378 47.6842 25.4378C47.4484 25.4378 47.2362 25.4143 47.0476 25.383C46.859 25.344 46.6939 25.297 46.5603 25.2423C46.4267 25.1876 46.3166 25.1328 46.238 25.0703C46.1594 25.0077 46.0966 24.9608 46.073 24.9139C46.0416 24.867 46.0337 24.8044 46.0494 24.7184C46.0573 24.6324 46.0966 24.5073 46.1594 24.343C46.1987 24.2336 46.238 24.1397 46.2695 24.0694C46.3009 23.9912 46.3402 23.9364 46.3717 23.8895C46.4031 23.8426 46.4345 23.8113 46.4738 23.7957C46.5053 23.7722 46.5446 23.7644 46.576 23.7644C46.6232 23.7644 46.6861 23.7957 46.7568 23.8504C46.8275 23.913 46.914 23.9755 47.0319 24.0459C47.1498 24.1163 47.2912 24.1788 47.4642 24.2414C47.6371 24.2961 47.8571 24.3274 48.1087 24.3274C48.2816 24.3274 48.4388 24.3039 48.5881 24.2648C48.7374 24.2257 48.871 24.171 48.9889 24.0928C49.1068 24.0224 49.2169 23.9286 49.3033 23.8191C49.3898 23.7097 49.4605 23.5845 49.5077 23.4516C49.5627 23.2952 49.5706 23.1623 49.5234 23.0528C49.4762 22.9433 49.4055 22.8417 49.3033 22.7557C49.2012 22.6696 49.0754 22.5836 48.9339 22.5133C48.7846 22.4351 48.6353 22.3569 48.4859 22.2708C48.3366 22.1848 48.1951 22.091 48.0615 21.9815C47.9279 21.872 47.8178 21.7469 47.7393 21.5984C47.6607 21.4498 47.6135 21.2699 47.6056 21.0666C47.5978 20.8633 47.6449 20.6131 47.7471 20.3316C47.865 20.0032 48.0301 19.7138 48.2423 19.4636C48.4545 19.2134 48.6903 19.0101 48.9575 18.8459C49.2247 18.6816 49.5077 18.5565 49.8221 18.4783C50.1286 18.4001 50.443 18.3532 50.7574 18.3532C50.9224 18.3532 51.0796 18.3689 51.229 18.3923C51.3783 18.4158 51.5198 18.4471 51.6455 18.494C51.7713 18.5331 51.8813 18.58 51.9678 18.6347C52.0542 18.6895 52.1171 18.7286 52.1328 18.7677C52.1564 18.8068 52.1643 18.8302 52.1721 18.8615C52.1721 18.885 52.1721 18.9162 52.1721 18.9553C52.1643 18.9944 52.1564 19.0492 52.1328 19.1117C52.1092 19.1899 52.0857 19.2681 52.0542 19.3463C52.0149 19.448 51.9835 19.534 51.9521 19.6044C51.9206 19.6747 51.8892 19.7373 51.8656 19.7764C51.8342 19.8233 51.8027 19.8546 51.7791 19.878C51.7477 19.9015 51.7163 19.9093 51.677 19.9093C51.6377 19.9093 51.5826 19.8859 51.5198 19.8389C51.4569 19.792 51.3704 19.7373 51.2683 19.6747C51.1661 19.6122 51.0403 19.5653 50.8989 19.5183C50.7574 19.4714 50.5845 19.448 50.3958 19.448C50.2465 19.448 50.105 19.4636 49.9793 19.5027C49.8535 19.5418 49.7435 19.5887 49.6413 19.6591C49.5391 19.7217 49.4605 19.7998 49.3898 19.8937C49.3191 19.9797 49.264 20.0814 49.2247 20.183C49.1697 20.3316 49.1619 20.4645 49.209 20.574C49.2483 20.6835 49.3269 20.7851 49.4369 20.8711C49.547 20.9571 49.6727 21.0353 49.8221 21.1135C49.9714 21.1917 50.1207 21.2699 50.2701 21.3559C50.4194 21.442 50.5687 21.5358 50.7024 21.6453C50.836 21.7548 50.946 21.8799 51.0325 22.0363C51.1189 22.1848 51.1582 22.3647 51.1739 22.568C51.1504 22.74 51.1032 22.9824 51.001 23.2561ZM58.2634 22.7557C58.1141 23.1779 57.9097 23.5533 57.6661 23.8817C57.4224 24.2179 57.1395 24.4916 56.8172 24.7262C56.495 24.953 56.1334 25.1328 55.7404 25.2501C55.3475 25.3674 54.923 25.43 54.4593 25.43C54.0349 25.43 53.6655 25.3752 53.3589 25.2658C53.0603 25.1563 52.8245 24.9921 52.6673 24.7731C52.5101 24.5542 52.4315 24.2805 52.4236 23.9521C52.4158 23.6236 52.4944 23.2405 52.6516 22.8026L54.1606 18.6269C54.1764 18.5878 54.1921 18.5565 54.2235 18.5331C54.255 18.5018 54.3021 18.4783 54.365 18.4627C54.4279 18.4471 54.5065 18.4314 54.5929 18.4236C54.6872 18.4158 54.7973 18.408 54.9387 18.408C55.0724 18.408 55.1824 18.4158 55.2689 18.4236C55.3553 18.4314 55.4182 18.4471 55.4653 18.4627C55.5125 18.4783 55.5439 18.5018 55.5518 18.5331C55.5675 18.5643 55.5675 18.5956 55.5518 18.6269L54.082 22.6775C53.9799 22.9511 53.9327 23.1857 53.9248 23.389C53.917 23.5924 53.9563 23.7566 54.0349 23.8817C54.1135 24.0146 54.2235 24.1084 54.3728 24.1788C54.5222 24.2414 54.7029 24.2805 54.923 24.2805C55.1431 24.2805 55.3475 24.2492 55.5439 24.1788C55.7404 24.1084 55.9291 24.0146 56.0863 23.8817C56.2513 23.7566 56.4007 23.5924 56.5343 23.4047C56.6679 23.217 56.7779 22.9981 56.8644 22.7635L58.3577 18.6347C58.3734 18.5956 58.3892 18.5643 58.4206 18.5409C58.452 18.5096 58.4992 18.4862 58.5542 18.4705C58.6171 18.4549 58.6878 18.4392 58.7821 18.4314C58.8765 18.4236 58.9865 18.4158 59.1201 18.4158C59.2537 18.4158 59.3638 18.4236 59.4424 18.4314C59.521 18.4392 59.5917 18.4549 59.631 18.4705C59.6782 18.4862 59.7096 18.5096 59.7174 18.5409C59.7253 18.5722 59.7253 18.6034 59.7174 18.6347L58.2634 22.7557ZM65.1092 24.8279C65.0778 24.9061 65.0385 24.9842 64.9913 25.0468C64.9442 25.1094 64.8891 25.1641 64.8184 25.2032C64.7555 25.2423 64.6848 25.2736 64.614 25.297C64.5433 25.3205 64.4726 25.3283 64.4018 25.3283H63.8124C63.6866 25.3283 63.5844 25.3127 63.5058 25.2892C63.4272 25.2658 63.3565 25.2188 63.3093 25.1563C63.2543 25.0937 63.215 24.9999 63.1836 24.8904C63.1521 24.7809 63.1286 24.6324 63.105 24.4603L62.5705 21.2543C62.5391 21.051 62.5155 20.8477 62.4919 20.6365C62.4683 20.4254 62.4526 20.2065 62.4526 19.9953H62.4448C62.3662 20.2534 62.2876 20.5036 62.2011 20.7538C62.1147 21.0119 62.0203 21.2778 61.926 21.5358L60.6292 25.125C60.6135 25.1563 60.5977 25.1954 60.5663 25.2188C60.5349 25.2501 60.4956 25.2736 60.4405 25.2892C60.3855 25.3127 60.3148 25.3205 60.2362 25.3361C60.1497 25.344 60.0476 25.3518 59.9139 25.3518C59.7882 25.3518 59.6939 25.344 59.6153 25.3361C59.5367 25.3283 59.4817 25.3127 59.4424 25.2892C59.4031 25.2736 59.3795 25.2423 59.3716 25.2188C59.3638 25.1876 59.3638 25.1563 59.3795 25.125L61.6116 18.9631C61.6745 18.7989 61.761 18.6738 61.8946 18.5878C62.0203 18.5018 62.154 18.4627 62.2954 18.4627H63.0421C63.1757 18.4627 63.2858 18.4705 63.3644 18.494C63.4508 18.5174 63.5137 18.5565 63.5687 18.6113C63.6237 18.666 63.663 18.7364 63.6945 18.8302C63.7259 18.9241 63.7495 19.0413 63.7652 19.1743L64.1896 21.6844C64.2132 21.8329 64.2368 21.9893 64.2604 22.1301C64.2839 22.2787 64.2997 22.4272 64.3232 22.568C64.339 22.7166 64.3547 22.8573 64.3704 22.9981C64.3861 23.1388 64.4018 23.2796 64.4097 23.4203H64.4175C64.4961 23.1701 64.5826 22.9121 64.6769 22.6462C64.7634 22.3881 64.8577 22.1301 64.9442 21.8799L66.1074 18.6582C66.1231 18.6191 66.1388 18.5878 66.1703 18.5643C66.2017 18.5331 66.241 18.5096 66.3039 18.494C66.3589 18.4705 66.4296 18.4549 66.5161 18.4471C66.6026 18.4392 66.7047 18.4314 66.8305 18.4314C66.9484 18.4314 67.0506 18.4392 67.1292 18.4471C67.2077 18.4549 67.2628 18.4705 67.3021 18.494C67.3414 18.5174 67.3571 18.5409 67.3649 18.5643C67.3728 18.5956 67.3728 18.6269 67.3571 18.6582L65.1092 24.8279ZM74.4937 19.5183C74.4544 19.62 74.423 19.706 74.3837 19.7842C74.3444 19.8546 74.3129 19.9171 74.2815 19.9641C74.25 20.011 74.2186 20.0423 74.1872 20.0579C74.1557 20.0735 74.1243 20.0814 74.0929 20.0814C74.0457 20.0814 73.9828 20.0501 73.9042 19.9875C73.8256 19.925 73.7156 19.8546 73.5741 19.7842C73.4326 19.7138 73.2519 19.6435 73.0475 19.5809C72.8353 19.5183 72.5759 19.4871 72.2694 19.4871C71.9393 19.4871 71.617 19.5418 71.3105 19.6591C71.004 19.7764 70.7132 19.9328 70.4459 20.1439C70.1787 20.355 69.9429 20.6053 69.7307 20.9024C69.5185 21.1996 69.3535 21.5202 69.2198 21.8799C69.0784 22.2708 69.0076 22.6149 68.9998 22.9199C68.9919 23.217 69.0469 23.4672 69.1648 23.6706C69.2749 23.8739 69.4478 24.0224 69.6757 24.1241C69.9036 24.2257 70.1709 24.2805 70.4852 24.2805C70.6424 24.2805 70.7996 24.2648 70.9647 24.2257C71.1297 24.1866 71.2869 24.1397 71.4441 24.0694L72.0179 22.482H70.7289C70.666 22.482 70.6346 22.4429 70.6267 22.3647C70.6189 22.2865 70.6503 22.1536 70.721 21.9581C70.7603 21.8564 70.7918 21.7782 70.8232 21.7078C70.8547 21.6375 70.8861 21.5905 70.9175 21.5436C70.949 21.5045 70.9804 21.4732 71.0118 21.4576C71.0433 21.442 71.0747 21.4263 71.1062 21.4263H73.4091C73.4641 21.4263 73.5112 21.4341 73.5505 21.4576C73.5898 21.4732 73.6134 21.5045 73.637 21.5436C73.6527 21.5827 73.6684 21.6296 73.6606 21.6844C73.6606 21.7391 73.6449 21.8017 73.6213 21.872L72.6309 24.6011C72.5917 24.7106 72.5366 24.8044 72.4738 24.8826C72.4109 24.9608 72.3087 25.0233 72.1751 25.0703C72.0415 25.1172 71.8843 25.1641 71.6956 25.211C71.507 25.2579 71.3184 25.3049 71.1219 25.3361C70.9333 25.3674 70.7368 25.3987 70.5481 25.4143C70.3595 25.43 70.1709 25.4378 69.9822 25.4378C69.4399 25.4378 68.9762 25.3596 68.6068 25.2032C68.2295 25.0468 67.9466 24.82 67.7579 24.5229C67.5693 24.2257 67.4671 23.8582 67.4671 23.4281C67.4671 22.9981 67.5614 22.5133 67.7579 21.9659C67.9623 21.4029 68.2295 20.9024 68.5596 20.4489C68.8897 20.0032 69.267 19.62 69.6914 19.3072C70.1158 18.9944 70.5717 18.752 71.0747 18.5878C71.5699 18.4236 72.0886 18.3376 72.6309 18.3376C72.9296 18.3376 73.189 18.361 73.4169 18.4001C73.6449 18.4392 73.8413 18.4862 73.9985 18.5487C74.1557 18.6034 74.2894 18.6738 74.3837 18.7364C74.478 18.8068 74.5409 18.8615 74.5723 18.9084C74.6037 18.9553 74.6116 19.0257 74.5959 19.1195C74.5959 19.2056 74.5566 19.3463 74.4937 19.5183Z" fill="white"/>
</svg>
