<svg width="81" height="20" viewBox="0 0 81 20" fill="none" xmlns="http://www.w3.org/2000/svg">
<g clip-path="url(#clip0_5_9583)">
<path d="M73.6069 5.66103C70.3978 5.89298 67.8309 8.51732 67.5971 11.7241C67.5366 12.6117 67.659 13.5022 67.9569 14.3406C68.2547 15.179 68.7216 15.9474 69.3287 16.5981C69.9358 17.2489 70.6701 17.7682 71.4861 18.1238C72.3022 18.4795 73.1826 18.664 74.0729 18.6659C75.4148 18.6659 77.2243 17.9666 78.041 16.5681V18.4915H80.5537V12.3116C80.6639 8.22611 77.3972 5.36981 73.6069 5.66103ZM77.8648 12.3065C77.8431 12.8206 77.714 13.3245 77.4858 13.7858C77.2576 14.247 76.9353 14.6555 76.5398 14.9849C76.1442 15.3143 75.6841 15.5574 75.1889 15.6986C74.6937 15.8397 74.1745 15.8758 73.6645 15.8045C72.8393 15.6884 72.0742 15.3071 71.4849 14.7183C70.8956 14.1294 70.514 13.3649 70.3978 12.5402C70.3371 12.0407 70.3776 11.5342 70.517 11.0507C70.6565 10.5672 70.8919 10.1168 71.2093 9.72622C71.5267 9.33564 71.9195 9.01295 72.3644 8.77737C72.8093 8.5418 73.2971 8.39817 73.7988 8.35506C74.3004 8.31195 74.8056 8.37024 75.2842 8.52645C75.7628 8.68266 76.205 8.9336 76.5845 9.26429C76.964 9.59498 77.2729 9.99864 77.4929 10.4512C77.7128 10.9038 77.8393 11.396 77.8648 11.8985V12.3065Z" fill="#5656E2"/>
<path d="M59.8371 5.66701C56.3942 5.78383 53.4766 8.40648 53.4766 12.2549C53.486 13.9786 54.1794 15.628 55.4046 16.8413C56.6299 18.0545 58.2868 18.7324 60.0116 18.7261C62.5786 18.7261 65.0947 17.2022 66.0791 14.7032L63.5698 13.9447C63.1038 14.9944 61.9957 15.8681 60.7707 16.1017C59.0205 16.4522 57.382 15.3449 56.745 14.1783L66.4908 11.4964C66.196 8.93135 63.9781 5.55018 59.8371 5.66701ZM56.2197 11.8469C56.2324 11.0631 56.4853 10.302 56.9443 9.66621C57.4033 9.03044 58.0463 8.5506 58.7866 8.29135C59.6035 7.95947 60.5146 7.94252 61.3432 8.24377C62.1719 8.54503 62.8591 9.14303 63.2716 9.92182L56.2197 11.8469Z" fill="#5656E2"/>
<path d="M38.425 8.29128V5.60938C35.975 5.60938 35.1566 6.8335 34.7483 7.47181V6.01742H31.9492V18.4365H34.8059V12.3141C34.8059 9.51541 36.4409 8.4081 38.425 8.29128Z" fill="#5656E2"/>
<path d="M12.6968 13.4776L4.17769 3.44922H1.26172V18.4333H4.2946V8.40498L12.929 18.4909H15.5552V3.44922H12.6968V13.4776Z" fill="#5656E2"/>
<path d="M51.7837 2.10938H49.0999V7.00758C48.4577 6.19149 46.4737 5.48377 44.7827 5.66663C41.5736 5.89858 39.0067 8.52292 38.7729 11.7297C38.7123 12.6173 38.8348 13.5078 39.1326 14.3462C39.4305 15.1846 39.8974 15.953 40.5045 16.6037C41.1116 17.2545 41.8458 17.7738 42.6619 18.1294C43.4779 18.4851 44.3584 18.6696 45.2486 18.6715C46.6499 18.6715 48.5746 18.0315 49.2168 16.8091V18.4429H51.7244V12.0209L51.7837 2.10938ZM48.983 12.3121C48.961 12.8261 48.8317 13.3299 48.6034 13.791C48.3752 14.2521 48.0529 14.6605 47.6574 14.9899C47.2619 15.3193 46.8019 15.5624 46.3068 15.7036C45.8118 15.8449 45.2926 15.8812 44.7827 15.8101C43.9571 15.6948 43.1916 15.3138 42.6021 14.7248C42.0127 14.1357 41.6314 13.3708 41.516 12.5458C41.4553 12.0463 41.4958 11.5398 41.6352 11.0563C41.7746 10.5728 42.0101 10.1224 42.3274 9.73182C42.6448 9.34124 43.0377 9.01855 43.4826 8.78297C43.9275 8.5474 44.4153 8.40377 44.9169 8.36066C45.4186 8.31755 45.9238 8.37584 46.4024 8.53205C46.881 8.68826 47.3232 8.9392 47.7027 9.26989C48.0821 9.60057 48.3911 10.0042 48.611 10.4568C48.831 10.9094 48.9575 11.4016 48.983 11.9041V12.3121Z" fill="#5656E2"/>
<path d="M23.7829 5.60938C22.4903 5.60904 21.2266 5.99176 20.1517 6.70912C19.0768 7.42648 18.2389 8.44627 17.744 9.63951C17.2492 10.8327 17.1195 12.1458 17.3715 13.4127C17.6234 14.6796 18.2457 15.8434 19.1596 16.7568C20.0735 17.6703 21.2379 18.2924 22.5056 18.5445C23.7734 18.7966 25.0874 18.6674 26.2817 18.1732C27.4759 17.679 28.4966 16.842 29.2148 15.768C29.933 14.6941 30.3163 13.4314 30.3163 12.1397C30.2587 8.52493 27.341 5.60938 23.7829 5.60938ZM23.7829 15.8697C23.0456 15.8697 22.325 15.6512 21.712 15.2419C21.099 14.8326 20.6212 14.2509 20.3391 13.5703C20.0569 12.8896 19.9831 12.1407 20.1269 11.4181C20.2708 10.6956 20.6258 10.0319 21.1471 9.51095C21.6684 8.99001 22.3326 8.63525 23.0557 8.49153C23.7787 8.3478 24.5282 8.42157 25.2094 8.7035C25.8905 8.98542 26.4726 9.46285 26.8822 10.0754C27.2918 10.688 27.5104 11.4081 27.5104 12.1448C27.502 13.1301 27.1066 14.0727 26.4094 14.7694C25.7121 15.4662 24.7689 15.8613 23.7829 15.8697Z" fill="#5656E2"/>
</g>
<defs>
<clipPath id="clip0_5_9583">
<rect width="80.0578" height="19.0476" fill="white" transform="translate(0.875 0.882812)"/>
</clipPath>
</defs>
</svg>
