<svg width="82" height="20" viewBox="0 0 82 20" fill="none" xmlns="http://www.w3.org/2000/svg">
<g clip-path="url(#clip0_5_9607)">
<path d="M2.72913 18.973V4.5984C2.72913 3.2947 3.75213 2.34655 5.15023 2.34655C6.54833 2.34655 7.34969 2.88835 7.96349 4.07353L11.5951 11.2524H11.6463V2.61745H15.7213V16.8397C15.7213 18.3296 14.5959 19.227 13.5729 19.227C12.5158 19.227 11.7486 18.736 10.6744 16.6704L6.88933 9.38994H6.83818V18.9561L2.72913 18.973ZM23.1039 14.4862L21.5694 12.0651L24.843 9.89787C24.2463 9.50845 23.7689 9.45766 23.3085 9.45766C21.6717 9.45766 20.7681 11.1508 20.7681 12.6069C20.7681 14.1307 21.8422 15.7053 23.462 15.7053C24.9624 15.7053 26.4287 14.3677 27.0254 12.9455L29.8898 14.4354C28.7475 17.2122 26.19 19.227 23.1721 19.227C19.8303 19.227 16.9148 16.3148 16.9148 12.81C16.9148 9.27142 19.8303 6.39311 23.1721 6.39311C25.9683 6.39311 27.8097 7.91692 29.1226 10.3042L23.1039 14.4862ZM33.7431 12.81C33.7431 11.3878 34.7661 10.2026 36.1642 10.2026C37.5623 10.2026 38.5853 11.3878 38.5853 12.81C38.5853 14.2323 37.5623 15.4174 36.1642 15.4174C34.7832 15.4174 33.7431 14.2323 33.7431 12.81ZM29.8898 12.81C29.8898 16.3487 32.8224 19.227 36.1642 19.227C39.5231 19.227 42.4386 16.3148 42.4386 12.81C42.4386 9.27142 39.506 6.39311 36.1642 6.39311C32.8224 6.39311 29.8898 9.28835 29.8898 12.81ZM43.2741 15.4682H47.0592C47.5196 15.4682 47.7583 15.2312 47.7583 14.9264C47.7583 13.7751 43.4105 14.2153 43.4105 10.2026C43.4105 7.91692 45.3713 6.7656 47.2468 6.7656H51.066V9.99946H47.9799C47.5196 9.99946 47.1786 10.2365 47.1786 10.5751C47.1786 11.5402 51.7821 11.7942 51.7821 15.045C51.7821 17.5 50.2476 18.8376 47.673 18.8376H43.2741V15.4682ZM56.88 13.7413C56.88 14.791 57.4086 15.4344 58.2611 15.4344C59.1136 15.4344 59.6421 14.791 59.6421 13.7413V6.78253H63.5295V13.7413C63.5295 16.8905 61.6881 19.2439 58.2611 19.2439C54.834 19.2439 52.9926 16.8905 52.9926 13.7413V6.78253H56.88V13.7413ZM68.1671 8.79734H68.2183C68.815 7.08729 69.9403 6.78253 71.6453 6.78253V10.4058C68.9173 10.5074 68.6786 11.1 68.6786 13.1825V18.8376H64.7571V6.78253H68.1671V8.79734ZM72.4638 18.8376V5.9021C72.4638 3.39628 74.4074 1.55078 77.4935 1.55078H79.7612V5.15713H77.8686C76.8456 5.15713 76.5899 5.73279 76.5899 6.73173H78.9769V10.3381H76.5899V18.8206H72.4638V18.8376Z" fill="#FF3399"/>
</g>
<defs>
<clipPath id="clip0_5_9607">
<rect width="80.5614" height="19.0476" fill="white" transform="translate(0.963501 0.882812)"/>
</clipPath>
</defs>
</svg>
