<svg width="16" height="18" viewBox="0 0 16 18" fill="none" xmlns="http://www.w3.org/2000/svg">
<path fillRule="evenodd" clipRule="evenodd" d="M5.80964 0.180804C5.47921 0.541768 5.49874 0.622768 6.30295 2.23007C6.95553 3.53451 7.10098 3.76923 7.30999 3.85578C7.50638 3.93718 7.60217 3.93718 7.79856 3.85578C8.00757 3.76923 8.15302 3.53451 8.8056 2.23007C9.60981 0.622768 9.62934 0.541768 9.29891 0.180804C9.13803 0.0050625 9.08926 0 7.55427 0C6.01929 0 5.97052 0.0050625 5.80964 0.180804ZM4.26895 1.64933C2.0474 2.71101 0.622666 4.57312 0.11497 7.0785C-0.0831908 8.05661 -0.0111101 9.67894 0.272872 10.6298C0.98781 13.0238 2.72465 14.847 5.04215 15.6362C6.78429 16.2295 8.32426 16.2295 10.0664 15.6362C12.3839 14.847 14.1207 13.0238 14.8357 10.6298C15.1197 9.67894 15.1917 8.05661 14.9936 7.0785C14.4848 4.56766 13.053 2.70024 10.8289 1.64668C10.4098 1.44812 10.0444 1.28571 10.0168 1.28571C9.96017 1.28571 9.29827 2.57577 9.33716 2.61056C9.35098 2.62302 9.56119 2.71712 9.80427 2.81973C10.6467 3.17539 11.2138 3.56352 11.8957 4.25105C13.6204 5.99014 14.118 8.46104 13.2035 10.7455C12.6709 12.076 11.5233 13.3213 10.2569 13.943C9.26002 14.4325 8.67293 14.5704 7.59445 14.5684C6.56194 14.5665 5.87119 14.4219 5.02351 14.0302C3.4346 13.2961 2.33427 12.068 1.76784 10.3968C1.51897 9.66238 1.49832 9.52417 1.49366 8.55804C1.48763 7.31644 1.60198 6.80842 2.12912 5.73485C2.73968 4.49132 3.91177 3.39975 5.22392 2.85268C5.51119 2.73287 5.75757 2.62438 5.77139 2.61145C5.81438 2.57151 5.14525 1.28563 5.08241 1.28732C5.0497 1.28829 4.68368 1.45117 4.26895 1.64933ZM5.82194 3.31803C5.78762 3.40754 7.10018 6.71336 7.2862 7.00594C7.37315 7.14262 7.7354 7.14262 7.82235 7.00594C8.00837 6.71336 9.32093 3.40754 9.28661 3.31803C9.20778 3.11247 9.00062 3.22088 8.83252 3.5558C8.50377 4.21088 8.11227 4.5 7.55427 4.5C6.99627 4.5 6.60477 4.21088 6.27603 3.5558C6.10793 3.22088 5.90077 3.11247 5.82194 3.31803ZM4.58363 3.8618C4.30624 4.04108 3.88766 4.3793 3.65366 4.61338C3.18084 5.08621 2.62452 5.90255 2.67386 6.05121C2.69146 6.10409 3.53457 6.49559 4.54747 6.92116L6.3891 7.695L6.57183 7.52006L6.75456 7.34513L5.96915 5.44082C5.53715 4.39353 5.1622 3.53636 5.13593 3.53612C5.10965 3.53587 4.8611 3.68245 4.58363 3.8618ZM9.1394 5.44082L8.35399 7.34513L8.53672 7.51878L8.71945 7.69251L10.5861 6.91987C11.6559 6.47711 12.4535 6.1028 12.4545 6.04302C12.4573 5.85852 11.8932 5.05165 11.4549 4.61338C11.0848 4.24334 10.1101 3.53491 9.97262 3.53612C9.94635 3.53636 9.5714 4.39353 9.1394 5.44082ZM2.25424 6.97797C2.08107 7.62115 2.01236 8.50878 2.09007 9.10045C2.17452 9.74362 2.31121 10.2857 2.38884 10.2857C2.41648 10.2857 3.28257 9.93616 4.31363 9.50898C6.18804 8.73225 6.1882 8.73217 6.18684 8.48443C6.18547 8.23709 6.18185 8.23516 4.33501 7.47321C3.31728 7.05335 2.45208 6.69841 2.4123 6.68451C2.3726 6.67061 2.30141 6.80271 2.25424 6.97797ZM10.79 7.46012C8.93087 8.23339 8.92316 8.23765 8.92171 8.48298C8.92035 8.72904 8.9234 8.73072 10.7997 9.50753C11.8334 9.93552 12.6995 10.2857 12.7245 10.2857C12.7977 10.2857 12.936 9.7282 13.0185 9.10045C13.1188 8.33649 12.9074 6.65293 12.7141 6.67663C12.6827 6.68049 11.8168 7.0331 10.79 7.46012ZM7.14349 7.83482C6.47227 8.19956 6.7765 9.24107 7.55427 9.24107C7.79462 9.24107 7.93517 9.18892 8.077 9.04709C8.7434 8.38069 7.9751 7.38281 7.14349 7.83482ZM4.5056 10.0736C3.51384 10.4835 2.68704 10.865 2.66832 10.9213C2.6136 11.0853 3.35441 12.1012 3.86709 12.5651C4.29234 12.95 5.11527 13.4778 5.18036 13.4075C5.19467 13.3921 5.55386 12.5387 5.97847 11.5112C6.75062 9.64294 6.75062 9.64278 6.58999 9.48214C6.5016 9.39375 6.40211 9.32296 6.36901 9.3248C6.3359 9.32665 5.49729 9.66359 4.5056 10.0736ZM8.49847 9.48881C8.36339 9.63675 8.38822 9.71614 9.13008 11.5112C9.55469 12.5387 9.91388 13.3921 9.92819 13.4075C9.99328 13.4778 10.8162 12.95 11.2415 12.5651C11.7669 12.0896 12.4996 11.0766 12.436 10.9137C12.3983 10.8174 8.85694 9.31259 8.70459 9.3281C8.66859 9.33179 8.57586 9.40412 8.49847 9.48881ZM7.18053 10.18C6.35342 12.1477 5.78642 13.551 5.78642 13.6305C5.78642 13.7777 6.8141 13.9821 7.55427 13.9821C8.29677 13.9821 9.32213 13.7778 9.32213 13.6298C9.32213 13.5757 8.98519 12.7197 8.57344 11.7277C7.8303 9.93745 7.82283 9.92395 7.56705 9.89879C7.33554 9.87605 7.29633 9.90458 7.18053 10.18ZM2.94201 16.3636C2.73855 16.8254 2.57213 17.2938 2.57213 17.4044C2.57213 17.515 2.66093 17.6942 2.76941 17.8027L2.9666 18H7.55427H12.1419L12.3391 17.8027C12.4476 17.6942 12.5364 17.515 12.5364 17.4044C12.5364 17.2938 12.37 16.8254 12.1665 16.3636L11.7966 15.5239L11.0616 15.8783C10.6573 16.0733 9.96499 16.3272 9.52302 16.4427C8.83501 16.6224 8.55191 16.6527 7.55427 16.6527C6.55664 16.6527 6.27354 16.6224 5.58552 16.4427C5.14356 16.3272 4.4512 16.0733 4.04693 15.8783L3.3119 15.5239L2.94201 16.3636Z" fill="#76DBA1"/>
</svg>
