<svg width="16" height="21" viewBox="0 0 16 21" fill="none" xmlns="http://www.w3.org/2000/svg">
<path fillRule="evenodd" clipRule="evenodd" d="M2.48351 1.36277C3.71363 0.654641 5.21665 0.649228 6.50599 1.3483C6.93324 1.57993 7.65074 2.2687 7.93012 2.7153C8.37591 3.42808 8.61885 4.60204 8.37167 4.84921C8.22145 4.99943 7.85959 4.99515 7.70959 4.84139C7.64409 4.77429 7.56751 4.55354 7.53943 4.35085C7.3824 3.21693 6.42153 2.14169 5.30497 1.85025C3.39722 1.35232 1.47901 2.79986 1.46524 4.74803C1.45608 6.03099 2.10632 7.04385 3.31645 7.63176C3.79943 7.86639 3.92072 8.04609 3.77982 8.31808C3.64064 8.58663 3.38661 8.67152 3.08622 8.54981C1.46674 7.89362 0.434431 6.29955 0.525003 4.59486C0.593817 3.29919 1.38356 1.99592 2.48351 1.36277ZM3.73223 2.99736C4.36125 2.87736 4.3045 2.83272 7.18025 5.70847C9.68658 8.2148 9.76392 8.28624 9.97239 8.28624C10.0903 8.28624 10.21 8.26298 10.2385 8.23453C10.3268 8.1462 10.999 8.13195 11.2676 8.21271C11.6805 8.33678 12.3552 9.07224 12.7346 9.81145C13.0995 10.5224 13.5339 11.7896 13.8006 12.9216L13.9919 13.733L14.6676 14.5328C15.0756 15.0156 15.3492 15.3942 15.3579 15.4881C15.3708 15.6265 15.1131 15.8998 13.0214 17.9667L10.6706 20.2896L10.4739 20.2184C10.3657 20.1791 9.92384 19.8734 9.49199 19.5389C8.82807 19.0246 8.64554 18.9173 8.31031 18.844C7.61548 18.6922 6.42968 18.2317 5.7604 17.8538C5.26338 17.5732 4.93491 17.3238 4.35337 16.7858C2.63936 15.1999 2.29615 14.0829 3.14404 12.8504C3.35713 12.5406 3.3865 12.4276 3.36399 12.0037C3.32771 11.3215 3.48693 10.981 4.07539 10.4818L4.53929 10.0882L4.52707 9.66139C4.50949 9.05289 4.61389 8.78975 5.05474 8.33035C5.66506 7.69441 5.70494 7.78649 4.11263 6.15624C2.62049 4.62862 2.62237 4.63168 2.75019 3.95914C2.83144 3.53168 3.29105 3.0815 3.73223 2.99736Z" fill="#76DBA1"/>
</svg>
