<svg width="22" height="19" viewBox="0 0 22 19" fill="none" xmlns="http://www.w3.org/2000/svg">
<path fillRule="evenodd" clipRule="evenodd" d="M0.33361 5.57126L0.222407 5.80665L1.9207 10.5432L3.61899 15.2798L3.85443 15.3909L4.08982 15.5021L11.0856 12.9938L18.0813 10.4855L18.1924 10.25L18.3036 10.0146L16.6053 5.27807L14.907 0.541502L14.6716 0.430396L14.4362 0.319194L7.44046 2.82751L0.444716 5.33582L0.33361 5.57126ZM8.58165 4.88213C8.77002 4.97107 8.88757 5.0858 8.93989 5.23173L9.01778 5.44897L9.44681 5.29514C9.82684 5.15888 9.90788 5.15644 10.1562 5.27368C10.4971 5.43463 10.5702 5.60941 10.4397 5.95052C10.3412 6.20797 10.3341 6.21222 9.31308 6.61789C8.43394 6.96721 8.28064 7.04807 8.2521 7.17757C8.22782 7.28763 8.25194 7.35514 8.34055 7.42472C8.43833 7.50145 8.60396 7.47871 9.17549 7.31012C9.97284 7.07491 10.2429 7.08085 10.7178 7.34408C11.2444 7.63581 11.5326 8.20828 11.4529 8.80398C11.4077 9.14215 11.1081 9.62557 10.85 9.77666C10.6377 9.90099 10.6255 9.93307 10.7059 10.1571C10.8084 10.4431 10.6225 10.9289 10.3768 11.017C10.1451 11.1001 9.67877 10.848 9.58613 10.5896L9.50824 10.3723L9.07921 10.5262C8.69917 10.6624 8.61814 10.6649 8.36982 10.5476C8.02895 10.3867 7.95577 10.2119 8.08627 9.87077C8.18478 9.61332 8.19195 9.60907 9.21294 9.2034C10.0921 8.85409 10.2454 8.77322 10.2739 8.64372C10.2982 8.53367 10.2741 8.46615 10.1855 8.39657C10.0877 8.31985 9.92206 8.34258 9.35053 8.51117C8.55318 8.74639 8.2831 8.74044 7.80819 8.47721C7.28163 8.18548 6.99343 7.61301 7.07313 7.01731C7.11832 6.67914 7.41794 6.19572 7.67601 6.04463C7.88831 5.92031 7.90047 5.88822 7.82015 5.66421C7.75694 5.48792 7.76941 5.34115 7.86479 5.13916C8.03221 4.78457 8.22706 4.71471 8.58165 4.88213ZM18.2619 6.34279C19.5707 9.99312 19.5874 10.0681 19.2433 10.7621C18.879 11.497 19.1478 11.3779 12.3955 13.7989L6.40743 15.9459L6.7503 16.9022C7.08061 17.8234 7.10183 17.8626 7.32863 17.9696L7.56403 18.0808L14.5598 15.5725L21.5555 13.0642L21.6666 12.8288L21.7778 12.5934L20.0795 7.85681L18.3812 3.12024L18.1458 3.00913C17.9525 2.91781 17.8404 2.92301 17.5189 3.03832L17.1274 3.17868L18.2619 6.34279ZM5.82177 8.73999C6.17636 8.90741 6.24622 9.10226 6.0788 9.45685C5.96112 9.70596 5.898 9.75457 5.51196 9.89298C5.12593 10.0314 5.0463 10.034 4.79714 9.91639C4.64292 9.84357 4.49226 9.71561 4.46227 9.63195C4.43227 9.54829 4.46729 9.35375 4.54011 9.19952C4.65779 8.95041 4.72091 8.90181 5.10695 8.76339C5.49299 8.62498 5.57262 8.6224 5.82177 8.73999ZM13.7289 5.90491C13.8831 5.97773 14.0338 6.10569 14.0638 6.18935C14.0937 6.27301 14.0587 6.46754 13.9859 6.62177C13.8682 6.87088 13.8051 6.91949 13.4191 7.0579C13.033 7.19631 12.9534 7.19889 12.7042 7.0813C12.55 7.00848 12.3994 6.88052 12.3694 6.79686C12.3394 6.7132 12.3744 6.51867 12.4472 6.36444C12.5649 6.11533 12.628 6.06672 13.0141 5.92831C13.4001 5.7899 13.4797 5.78732 13.7289 5.90491Z" fill="#76DBA1"/>
</svg>
