<svg width="17" height="18" viewBox="0 0 17 18" fill="none" xmlns="http://www.w3.org/2000/svg">
<path fillRule="evenodd" clipRule="evenodd" d="M11.8298 0.0427489C9.96594 0.323641 8.40918 1.80388 8.05628 3.63079C7.91563 4.35856 7.99691 5.36986 8.24934 6.03465L8.45495 6.57626L4.8081 10.2173C2.1733 12.8487 0.27225 14.811 0.173179 15.0013C-0.305445 15.9211 0.276924 17.0637 1.30733 17.2265C1.85189 17.3124 2.20995 17.1408 2.91624 16.4551L3.55299 15.8369L4.64531 16.9184C5.24605 17.5133 5.76691 18 5.80283 18C5.95365 18 7.32318 16.5669 7.32318 16.409C7.32318 16.3171 7.13078 16.047 6.89557 15.8089L6.46795 15.3759L6.86989 14.9678L7.27184 14.5597L7.74251 15.0087C8.00134 15.2556 8.26132 15.4576 8.32012 15.4576C8.46996 15.4576 9.86556 14.053 9.86556 13.9022C9.86556 13.8342 9.38587 13.2979 8.79964 12.7105L7.73365 11.6423L9.64339 9.7339L10.7329 8.64559L11.0989 8.77944C11.6584 8.98406 12.8329 9.02597 13.4741 8.86432C15.5076 8.35142 16.9088 6.62243 16.9372 4.59099C16.9482 3.80515 16.8214 3.21687 16.4862 2.49967C16.1461 1.77157 15.1916 0.815879 14.4557 0.466425C13.625 0.0719454 12.6642 -0.083058 11.8298 0.0427489ZM13.462 2.93295C13.9796 3.27551 14.2401 3.7283 14.28 4.35463C14.3912 6.10198 12.4095 7.01265 11.1736 5.78213C10.2393 4.85203 10.5053 3.38262 11.7108 2.81337C12.2028 2.58111 13.0139 2.63647 13.462 2.93295Z" fill="#76DBA1"/>
</svg>
