<svg width="16" height="18" viewBox="0 0 16 18" fill="none" xmlns="http://www.w3.org/2000/svg">
<path fillRule="evenodd" clipRule="evenodd" d="M6.69087 0.09649C6.22514 0.242124 5.5168 0.668477 5.08503 1.06305C4.03542 2.02236 3.62236 3.19728 3.87833 4.49574C3.9471 4.84475 3.95779 5.03208 3.90997 5.04952C3.87024 5.06401 3.77411 5.13946 3.69641 5.21716C3.57257 5.341 3.55999 5.42039 3.59451 5.85884C3.64226 6.46571 3.88128 7.15246 4.16418 7.49562C4.27922 7.63528 4.43913 7.94483 4.51951 8.18357C4.84713 9.15716 5.59232 10.0224 6.45572 10.4315C6.86808 10.6269 6.9815 10.6488 7.58225 10.6488C8.19299 10.6488 8.28954 10.6294 8.70738 10.4226C8.95878 10.2981 9.31326 10.0675 9.49518 9.91008C9.92561 9.53759 10.4964 8.67912 10.6529 8.16901C10.7209 7.94715 10.8756 7.64716 10.9965 7.50237C11.2597 7.18741 11.5927 6.16368 11.5914 5.67361C11.5905 5.34747 11.4642 5.12167 11.2409 5.04727C11.1735 5.02477 11.1744 4.95058 11.245 4.70446C11.3836 4.22114 11.3644 2.63802 11.2154 2.25034C11.0474 1.81365 10.7997 1.51296 10.4869 1.36599C10.3397 1.29686 10.1172 1.12219 9.99249 0.977818C9.68779 0.62516 9.15103 0.290434 8.63066 0.128486C8.1266 -0.0283993 7.14219 -0.0446434 6.69087 0.09649ZM4.38267 10.5192C3.7071 10.9304 2.75671 11.3524 1.84979 11.6438C1.08611 11.8892 0.973876 11.9475 0.650472 12.2667C0.204147 12.7074 0.0561222 13.1038 0.00739001 13.989C-0.034943 14.7596 0.0907903 16.092 0.217649 16.2168C0.379456 16.3758 1.42702 16.8525 2.24042 17.1371C5.51898 18.2842 9.59286 18.2879 12.9025 17.1467C13.7013 16.8713 14.7805 16.3803 14.9469 16.2168C15.0737 16.092 15.1994 14.7596 15.1571 13.989C15.1085 13.1057 14.9604 12.7081 14.514 12.2638C14.2094 11.9606 14.075 11.8844 13.5947 11.7431C12.7649 11.499 11.7871 11.0845 11.0005 10.6435C10.618 10.4291 10.2825 10.2793 10.255 10.3106C10.2276 10.3419 9.94699 11.1903 9.63153 12.1958C8.67025 15.2603 8.65394 15.3068 8.5917 15.1493C8.56111 15.072 8.42399 14.6922 8.28693 14.3055L8.03772 13.6023L8.33742 13.0192C8.71617 12.2823 8.73656 11.9584 8.42272 11.6653C8.17773 11.4364 7.75348 11.3455 7.26918 11.4182C7.06779 11.4483 6.87961 11.5365 6.74178 11.6653C6.42681 11.9595 6.44777 12.2849 6.82856 13.0146L7.12967 13.5915L6.90556 14.2298C6.47913 15.4442 6.61724 15.6114 5.72199 12.7967C5.28586 11.4255 4.901 10.2942 4.86682 10.283C4.83258 10.2717 4.61472 10.378 4.38267 10.5192Z" fill="#76DBA1"/>
</svg>
