<svg width="17" height="16" viewBox="0 0 17 16" fill="none" xmlns="http://www.w3.org/2000/svg">
<path fillRule="evenodd" clipRule="evenodd" d="M0.754105 0.174597C0.510957 0.301576 0.36848 0.432243 0.231377 0.653707C0.0556552 0.937661 0.0415327 1.0059 0.0219733 1.66636L0.000976562 2.37462H8.01043H16.0199L15.9989 1.66636C15.9793 1.0059 15.9652 0.937661 15.7895 0.653707C15.6524 0.432243 15.5099 0.301576 15.2668 0.174597L14.9326 0H8.01043H1.0883L0.754105 0.174597ZM0.0129747 3.29634C0.0136621 3.32209 0.320425 4.21494 0.694677 5.2804L1.37513 7.21758H8.01043H14.6457L15.3262 5.2804C15.7004 4.21494 16.0072 3.32209 16.0079 3.29634C16.0086 3.2706 12.4097 3.24948 8.01043 3.24948C3.61114 3.24948 0.0122873 3.2706 0.0129747 3.29634ZM0.147578 8.33078C0.014287 8.47269 0.0117249 8.51106 0.0117249 10.3617V12.248L0.308552 12.2485C0.879147 12.2494 1.41262 12.3725 1.91992 12.6204C3.05998 13.1774 3.75849 14.3462 3.76062 15.7006L3.76112 15.9974H8.01043H12.2597L12.2602 15.7006C12.2634 13.7215 13.7333 12.2516 15.7123 12.2485L16.0091 12.248V10.353V8.45795L15.8645 8.32203C15.7206 8.18687 15.706 8.18618 13.0212 8.18618H10.3226V9.93133V11.6766L10.1579 11.806C9.99918 11.9309 9.92175 11.9356 8.01043 11.9356C6.09912 11.9356 6.02169 11.9309 5.86297 11.806L5.69831 11.6766V9.93133V8.18618H2.99087H0.283493L0.147578 8.33078ZM6.57317 9.5922V10.9982H8.01043H9.4477V9.5922V8.18618H8.01043H6.57317V9.5922ZM8.2832 9.25307C8.40262 9.34699 8.44786 9.44016 8.44786 9.5922C8.44786 9.81679 8.22002 10.0609 8.01043 10.0609C7.80084 10.0609 7.573 9.81679 7.573 9.5922C7.573 9.36761 7.80084 9.12353 8.01043 9.12353C8.06992 9.12353 8.19265 9.18183 8.2832 9.25307ZM0.0117249 14.4479C0.0117249 16.1325 -0.124128 15.9974 1.57004 15.9974H2.83908L2.81265 15.4456C2.78078 14.7787 2.58125 14.3116 2.13938 13.8698C1.69752 13.4279 1.23047 13.2284 0.563573 13.1965L0.0117249 13.1701V14.4479ZM14.7781 13.3017C14.1549 13.5171 13.7142 13.9182 13.4011 14.5551C13.2696 14.8224 13.229 15.0101 13.2082 15.4456L13.1818 15.9974H14.4596C16.1436 15.9974 16.0091 16.132 16.0091 14.4468V13.1854L15.5561 13.1874C15.2874 13.1886 14.9707 13.2352 14.7781 13.3017Z" fill="#76DBA1"/>
</svg>
