<svg width="260" height="130" viewBox="0 0 260 130" fill="none" xmlns="http://www.w3.org/2000/svg">
<path d="M254.332 0C257.463 0 260.013 2.53948 259.877 5.66667C258.463 38.0839 244.965 68.8831 221.924 91.9238C197.544 116.304 164.478 130 130 130C95.522 130 62.456 116.304 38.0763 91.924C15.0355 68.8833 1.53672 38.0842 0.123447 5.66693C-0.0128866 2.53975 2.53749 0.000262362 5.66765 0.000255919V0.000255919C8.7978 0.000249476 11.3212 2.53952 11.4705 5.66611C12.8753 35.0758 25.1766 62.9939 46.0915 83.9087C68.3455 106.163 98.5283 118.665 130 118.665C161.472 118.665 191.655 106.163 213.909 83.9086C234.823 62.9937 247.125 35.0755 248.529 5.66587C248.679 2.53928 251.202 0 254.332 0V0Z" fill="url(#paint0_linear_572_173891)"/>
<defs>
<linearGradient id="paint0_linear_572_173891" x1="0" y1="-130" x2="260" y2="130" gradientUnits="userSpaceOnUse">
<stop stop-color="#DE0000"/>
<stop offset="1" stop-color="#DA00D1"/>
</linearGradient>
</defs>
</svg>
