<svg width="212" height="111" viewBox="0 0 212 111" fill="none" xmlns="http://www.w3.org/2000/svg">
<path d="M4.71836 101.565C2.16852 101.454 0.181551 99.2939 0.404148 96.7513C2.71165 70.3945 14.8063 45.7869 34.3972 27.8396C55.1267 8.8494 82.5509 -1.12831 110.637 0.101467C138.723 1.33124 165.17 13.6678 184.16 34.3972C202.108 53.9881 212.005 79.5587 212 106.016C212 108.569 209.831 110.546 207.282 110.435C204.732 110.323 202.767 108.164 202.757 105.612C202.661 81.6049 193.636 58.4238 177.345 40.6405C160.011 21.7186 135.87 10.4578 110.233 9.33524C84.5955 8.21269 59.5625 17.3204 40.6406 34.6548C22.8573 50.9461 11.8408 73.2496 9.64748 97.1567C9.41431 99.6983 7.26819 101.677 4.71836 101.565Z" fill="url(#paint0_linear_572_173892)"/>
<defs>
<linearGradient id="paint0_linear_572_173892" x1="0" y1="0" x2="212" y2="212" gradientUnits="userSpaceOnUse">
<stop stop-color="#DE0000"/>
<stop offset="1" stop-color="#DA00D1"/>
</linearGradient>
</defs>
</svg>
