<svg width="240" height="87" viewBox="0 0 240 87" fill="none" xmlns="http://www.w3.org/2000/svg">
<g clip-path="url(#clip0_2277_14315)">
<g clip-path="url(#clip1_2277_14315)">
<path d="M165.678 19.2958C166.122 19.4309 166.566 19.5707 167.012 19.7009C170.586 20.7545 172.725 24.3854 171.934 28.1585C169.597 39.3453 167.264 50.5346 164.869 61.7093C164.235 64.67 162.372 66.5433 159.42 67.2328C159.201 67.2835 159.004 67.4185 158.798 67.5125C135.699 67.5125 112.597 67.5125 89.4976 67.5125C89.3624 67.4353 89.2366 67.3269 89.0942 67.2859C84.6015 66.0756 82.5201 62.6978 83.4837 58.1411C85.8095 47.1448 88.1354 36.1484 90.4754 25.1545C91.1376 22.0467 93.041 20.1951 96.0978 19.5418C96.2805 19.5032 96.4467 19.3778 96.6199 19.291C119.636 19.2958 142.657 19.2958 165.678 19.2958ZM124.145 63.4934C135.26 63.4934 146.374 63.4958 157.49 63.4934C159.707 63.4934 160.739 62.6617 161.221 60.4436C161.926 57.1984 162.605 53.9485 163.288 50.6985C164.895 43.0654 166.523 35.4372 168.089 27.7969C168.676 24.9375 167.304 23.3173 164.454 23.3173C142.304 23.3173 120.154 23.3173 98.0012 23.3173C95.5519 23.3173 94.5053 24.1901 93.995 26.6396C91.757 37.3708 89.5237 48.0995 87.2762 58.8282C86.6473 61.8275 87.9336 63.4958 90.9216 63.4958C101.993 63.4958 113.069 63.4934 124.145 63.4934Z" fill="#FECE17"/>
<path d="M68.7405 37.5221C68.3109 39.4894 67.8671 41.452 67.4517 43.4217C66.3197 48.7909 65.2066 54.1625 64.0484 59.5269C63.9772 59.8572 63.5809 60.3538 63.3198 60.3635C61.5493 60.4382 59.7765 60.4021 57.79 60.4021C60.1586 49.1067 62.4963 37.9585 64.8387 26.7861C67.5609 26.7861 70.1953 26.7861 72.9198 26.7861C73.7291 32.9244 74.5361 39.0193 75.3406 45.1142C75.4355 45.1214 75.5305 45.1311 75.6254 45.1383C76.9402 39.0314 78.255 32.9244 79.5746 26.7885C81.6204 26.7885 83.5807 26.7885 85.6383 26.7885C84.9311 30.1904 84.2476 33.5175 83.5498 36.8398C81.9787 44.3258 80.3886 51.8094 78.8412 59.3027C78.6775 60.0983 78.4378 60.4647 77.5596 60.4286C75.7488 60.3538 73.9332 60.4069 72.0156 60.4069C71.007 52.7328 70.0102 45.1383 69.0134 37.5462C68.9184 37.5366 68.8283 37.5293 68.7405 37.5221Z" fill="white"/>
<path d="M16.8826 36.5337C16.8826 36.1576 16.8588 35.9599 16.8873 35.7671C17.0629 34.4893 17.1151 33.2669 15.798 32.4906C14.5899 31.7793 12.8883 31.7793 11.8796 32.5918C10.6811 33.5562 10.121 34.9497 10.6075 36.3385C11.0181 37.515 11.8891 38.6144 12.7934 39.4992C13.8068 40.4901 15.086 41.1965 16.2465 42.0307C22.8395 46.7682 20.63 57.1281 15.245 59.6355C11.1083 61.5594 6.94792 61.4582 2.99637 59.0617C-0.0628123 57.2077 -0.380834 53.5768 0.309796 50.6234C0.357262 50.4232 0.658671 50.146 0.846162 50.1436C2.77566 50.1074 4.70277 50.1219 6.72483 50.1219C6.66312 50.6017 6.62752 50.9512 6.57056 51.296C6.23593 53.2995 6.89333 54.5556 8.5048 54.9848C10.6337 55.5513 12.473 54.7268 13.0782 52.8824C13.6762 51.0549 13.4247 49.3383 11.9912 48.0171C10.9161 47.0238 9.71993 46.151 8.51667 45.3193C2.65462 41.2664 1.83108 33.4935 6.83637 28.7608C9.67959 26.0726 13.1683 25.8942 16.7496 26.5042C19.441 26.9623 21.7051 28.1726 22.8751 30.868C23.5871 32.505 23.618 34.224 23.2572 35.9455C23.2074 36.1817 22.7992 36.5 22.55 36.5072C20.6964 36.5554 18.8429 36.5337 16.8826 36.5337Z" fill="white"/>
<path d="M29.1312 60.3423C26.8172 60.3423 24.6196 60.3423 22.3032 60.3423C23.0413 56.8199 23.7557 53.3795 24.4795 49.9439C26.0364 42.5398 27.6123 35.1382 29.1312 27.7269C29.2973 26.9193 29.594 26.7023 30.363 26.7143C33.2062 26.7553 36.0518 26.7143 38.8973 26.7433C39.6805 26.7505 40.478 26.8325 41.2445 26.994C45.3219 27.8451 47.643 30.9046 47.1517 35.0779C46.9025 37.2116 46.359 39.3284 45.7491 41.3922C44.6217 45.2112 41.8426 46.9688 38.0667 47.2412C36.3745 47.3642 34.6729 47.4003 32.976 47.3714C32.1097 47.3569 31.7418 47.6004 31.5662 48.5094C30.8091 52.4296 29.9642 56.3401 29.1312 60.3423ZM33.0875 41.4308C34.3643 41.4308 35.5083 41.4911 36.6427 41.4139C37.8602 41.3295 38.9187 40.7991 39.2961 39.5382C39.7304 38.0892 40.0982 36.6017 40.3023 35.1045C40.4875 33.7495 39.8419 32.9467 38.5057 32.7514C37.3476 32.5826 36.1633 32.6139 34.9648 32.5561C34.324 35.5891 33.7141 38.4726 33.0875 41.4308Z" fill="white"/>
<path d="M52.6603 60.3568C50.3724 60.3568 48.17 60.3568 45.8252 60.3568C46.4612 57.3166 47.083 54.3511 47.7048 51.3857C49.3614 43.5091 51.0346 35.6349 52.6508 27.7487C52.8169 26.9434 53.0899 26.6927 53.8731 26.712C55.7622 26.7626 57.6514 26.7288 59.7137 26.7288C57.3428 38.029 55.0027 49.1796 52.6603 60.3568Z" fill="white"/>
<path d="M233.997 43.9112C236.584 45.5121 237.327 47.2311 236.785 50.4907C236.472 52.3857 236.012 54.2566 235.67 56.1468C235.428 57.4777 235.274 58.8254 235.048 60.3853C233.171 60.3853 231.139 60.4142 229.113 60.337C228.923 60.3298 228.574 59.6403 228.609 59.3052C228.825 57.3595 229.115 55.4211 229.421 53.4875C229.635 52.1422 229.962 50.8162 230.147 49.4661C230.342 48.0484 229.701 47.26 228.313 47.0358C228.275 47.0286 228.234 47.031 228.194 47.0262C224.819 46.5801 224.75 46.638 224.062 49.9796C223.353 53.4297 222.624 56.8749 221.898 60.3419C219.622 60.3419 217.424 60.3419 215.067 60.3419C217.426 49.0972 219.764 37.9465 222.069 26.9622C226.125 26.9622 230.067 26.603 233.916 27.0562C238.281 27.5722 240.481 31.0223 239.909 35.456C239.757 36.6422 239.453 37.8187 239.116 38.9663C238.506 41.0446 237.203 42.5273 235.202 43.3495C234.816 43.5134 234.438 43.7063 233.997 43.9112ZM225.947 40.9819C226.929 40.9819 227.8 41.0542 228.655 40.965C230.159 40.8083 231.616 40.3237 232.191 38.7686C232.663 37.4836 232.898 36.078 233.048 34.7062C233.159 33.6743 232.525 32.9341 231.488 32.7847C230.52 32.6448 229.53 32.6738 228.552 32.5918C227.919 32.5387 227.67 32.7919 227.544 33.4332C227.057 35.8972 226.509 38.3491 225.947 40.9819Z" fill="white"/>
<path d="M218.091 26.8494C217.7 28.73 217.308 30.6009 216.897 32.5682C213.157 32.5682 209.455 32.5682 205.641 32.5682C205.093 35.1359 204.561 37.624 203.994 40.2857C207.022 40.2857 209.92 40.2857 212.932 40.2857C212.495 42.3687 212.094 44.2806 211.674 46.2841C208.698 46.2841 205.743 46.2841 202.736 46.2841C202.169 49.0278 201.618 51.6847 201.044 54.4597C204.777 54.4597 208.432 54.4597 212.291 54.4597C211.887 56.4101 211.527 58.2304 211.111 60.0338C211.073 60.1978 210.684 60.3858 210.459 60.3858C204.727 60.3954 198.998 60.3786 193.266 60.3641C193.202 60.3641 193.141 60.2894 193.005 60.205C193.962 55.6121 194.918 50.9951 195.887 46.3782C197.197 40.1458 198.526 33.9184 199.824 27.6836C199.94 27.1291 199.985 26.712 200.721 26.7168C206.374 26.7434 212.027 26.7361 217.678 26.7434C217.785 26.7434 217.899 26.7988 218.091 26.8494Z" fill="white"/>
<path d="M175.586 60.4048C177.546 51.0455 179.462 41.8911 181.408 32.6017C179.056 32.6017 176.853 32.6017 174.513 32.6017C174.926 30.6102 175.313 28.749 175.716 26.8105C182.556 26.8105 189.375 26.8105 196.371 26.8105C195.989 28.6405 195.647 30.427 195.208 32.1894C195.159 32.3943 194.582 32.5703 194.245 32.5775C192.273 32.6137 190.303 32.5944 188.262 32.5944C187.524 36.1144 186.802 39.5573 186.078 43.0025C184.934 48.4513 183.769 53.8928 182.663 59.3488C182.49 60.1998 182.15 60.4458 181.327 60.4192C179.473 60.3638 177.617 60.4048 175.586 60.4048Z" fill="white"/>
<path d="M98.396 26.6128C102.535 26.7358 106.703 26.5887 110.804 27.054C115.106 27.5386 117.034 30.5716 116.362 34.9426C116.205 35.9673 115.942 36.9847 115.64 37.9756C114.869 40.4999 113.139 42.0887 110.526 42.9615C113.509 44.3116 114.271 46.7394 113.889 49.5361C113.625 51.4553 113.118 53.4033 112.36 55.1802C110.948 58.4977 108.105 59.9707 104.716 60.2191C101.726 60.4385 98.7093 60.4626 95.7118 60.3493C92.7167 60.2359 91.6226 58.582 92.2491 55.59C94.1952 46.2958 96.1319 36.9992 98.078 27.705C98.1444 27.3988 98.2536 27.1022 98.396 26.6128ZM101.073 45.9824C100.473 48.9117 99.9125 51.6385 99.3358 54.4473C100.767 54.4473 102.065 54.5268 103.354 54.4256C104.889 54.305 106.062 53.4805 106.551 51.9712C106.902 50.8814 107.137 49.7266 107.225 48.5838C107.334 47.1686 106.793 46.4549 105.416 46.25C104.025 46.0427 102.601 46.0668 101.073 45.9824ZM102.324 40.0731C103.173 40.0731 103.916 40.0611 104.659 40.0756C108.373 40.1479 109.498 37.3922 109.429 34.4532C109.408 33.5467 108.827 32.9271 107.963 32.8138C106.795 32.6619 105.608 32.6354 104.431 32.6281C104.215 32.6257 103.855 32.9319 103.805 33.1537C103.292 35.408 102.829 37.6718 102.324 40.0731Z" fill="white"/>
<path d="M140.964 26.7284C140.544 28.7439 140.159 30.5835 139.746 32.5629C136.02 32.5629 132.287 32.5629 128.48 32.5629C127.927 35.1764 127.403 37.6669 126.848 40.29C129.883 40.29 132.757 40.29 135.766 40.29C135.337 42.3538 134.936 44.2922 134.52 46.286C131.537 46.286 128.618 46.286 125.587 46.286C125.018 49.0176 124.46 51.701 123.879 54.4929C127.65 54.4929 131.319 54.4929 135.128 54.4929C134.746 56.359 134.411 58.1142 134.003 59.8525C133.948 60.0839 133.517 60.378 133.258 60.3805C127.491 60.4094 121.724 60.4046 115.802 60.4046C116.381 57.6416 116.937 54.9896 117.494 52.3375C119.206 44.1837 120.933 36.0322 122.604 27.8688C122.782 26.996 123.065 26.6994 123.964 26.7067C129.261 26.7525 134.558 26.7284 139.856 26.7284C140.169 26.7284 140.48 26.7284 140.964 26.7284Z" fill="white"/>
<path d="M164.086 26.7964C163.716 28.6046 163.396 30.3333 162.971 32.0354C162.907 32.2909 162.342 32.5634 162.002 32.573C160.03 32.6237 158.058 32.5971 155.986 32.5971C155.338 35.6615 154.693 38.6679 154.064 41.6792C152.851 47.48 151.624 53.2783 150.456 59.0887C150.255 60.0892 149.901 60.4895 148.845 60.4316C147.074 60.3352 145.294 60.4051 143.306 60.4051C145.249 51.1133 147.172 41.9348 149.12 32.6237C146.794 32.6237 144.597 32.6237 142.23 32.6237C142.651 30.5936 143.04 28.7059 143.434 26.7964C150.333 26.7964 157.154 26.7964 164.086 26.7964Z" fill="white"/>
</g>
</g>
<defs>
<clipPath id="clip0_2277_14315">
<rect width="240" height="86.4" fill="white" transform="translate(0 0.0458984)"/>
</clipPath>
<clipPath id="clip1_2277_14315">
<rect width="240" height="48.2191" fill="white" transform="translate(0 19.2959)"/>
</clipPath>
</defs>
</svg>
