<svg width="240" height="87" viewBox="0 0 240 87" fill="none" xmlns="http://www.w3.org/2000/svg">
<g clip-path="url(#clip0_2277_9684)">
<path d="M105.955 35.2205C107.86 35.6458 108.636 35.0627 108.515 32.902C108.325 29.4861 108.555 26.0496 108.427 22.6336C108.359 20.8914 108.764 20.2672 110.601 20.3289C114.895 20.473 119.196 20.4935 123.491 20.3289C125.672 20.2466 126.88 20.6787 126.253 23.1824C126.516 23.1618 126.772 23.203 126.813 23.1275C128.555 19.9311 131.519 20.3152 134.423 20.3563C138.636 20.4181 142.849 20.3015 147.063 20.4112C148.602 20.4524 149.453 19.9997 150.182 18.5592C153.309 12.4133 156.583 6.33589 159.905 0.0458984C160.844 2.12427 161.715 4.0586 162.593 5.99293C164.105 9.83415 165.773 13.6205 167.083 17.5372C167.866 19.8762 169.034 20.9119 171.425 20.3015C173.862 20.3289 176.3 20.4249 178.731 20.3563C180.952 20.2946 182.978 20.2192 184.254 22.7091C184.949 24.0604 185.766 23.1207 185.692 22.1329C185.557 20.2397 186.644 20.3563 187.893 20.3701C192.431 20.4044 196.975 20.5141 201.506 20.3289C203.734 20.2397 204.76 20.8365 204.443 23.1755C204.402 31.0363 204.328 38.9039 204.342 46.7647C204.342 48.3149 204.301 49.4673 202.275 49.1998C201.141 49.0489 200.034 49.5976 199.25 50.3041C197.002 52.3482 194.416 51.7789 191.85 51.5868C191.101 51.532 190.331 51.2782 189.615 51.4016C185.098 52.1836 180.547 51.5731 176.016 51.7446C175.584 51.7583 174.889 52.0395 174.76 51.333C174.639 50.6471 175.051 50.2424 175.793 50.2287C177.427 50.2012 178.136 49.1038 178.555 47.6976C180.452 48.0611 181.222 47.4507 181.094 45.3174C180.898 42.1347 181.047 38.9382 181.047 35.1313C183.997 39.2058 186.55 42.7109 189.082 46.2366C189.689 47.0803 190.203 47.8279 191.465 47.773C193.991 47.6633 196.529 47.6907 199.061 47.7593C200.27 47.7936 200.668 47.3889 200.655 46.1474C200.608 39.2881 200.594 32.4287 200.662 25.5694C200.675 24.1358 200.115 23.834 198.872 23.8889C197.016 23.9643 195.145 24.0672 193.309 23.8683C190.851 23.6008 189.851 24.2593 190.101 27.003C190.385 30.0623 190.169 33.1696 190.169 36.2562C188.352 34.3768 187.049 32.4836 185.753 30.5836C181.06 23.6968 181.067 23.6968 172.876 23.9163C172.795 23.9163 172.708 23.93 172.627 23.9163C171.317 23.7311 170.851 24.2799 170.898 25.638C170.993 28.2034 170.925 30.7688 170.925 33.341C170.763 33.3479 170.594 33.3616 170.432 33.3685C167.083 25.4048 163.741 17.4411 160.196 8.99731C149.392 29.4518 138.859 49.385 128.332 69.3182C128.535 69.4416 128.737 69.572 128.94 69.6954C139.595 56.5461 150.243 43.4037 160.939 30.2063C163.444 34.5346 165.874 38.7393 168.305 42.9441C167.522 44.5217 166.739 46.0925 165.955 47.6702C165.044 45.9142 164.132 44.165 163.221 42.4091C162.809 41.4762 162.438 40.5296 161.985 39.6173C160.722 37.0656 160.722 37.0862 158.893 39.3772C148.589 52.2453 138.278 65.0997 127.961 77.9609C127.38 78.6811 126.88 79.5248 125.814 79.5866C124.153 79.5866 122.498 79.5866 120.486 79.5866C124.139 70.9575 127.63 62.6921 131.128 54.4334C131.681 53.6926 132.228 52.9518 132.093 51.7789C131.148 51.7789 130.236 51.7789 129.332 51.7789C111.661 51.7789 93.9838 51.772 76.3133 51.7857C72.3565 51.7857 68.4065 51.8543 64.5442 50.7706C62.8494 50.1944 61.472 49.0626 60.0067 48.0886C58.8724 46.6413 57.7313 45.2008 56.5091 43.6437C55.2735 45.8456 54.004 47.9651 52.8899 50.1601C52.262 51.3948 51.445 51.8338 50.0945 51.8063C46.813 51.7446 43.5246 51.8338 40.2363 51.8681C37.9473 52.2933 36.8805 50.9969 35.8541 49.0969C31.1884 40.4816 26.3606 31.9623 21.6003 23.4156C21.1141 22.5376 20.6617 21.639 20 20.3769C26.2255 20.3769 32.1539 20.3563 38.0756 20.3906C39.8312 20.3975 39.6016 22.4416 40.6617 23.203C41.5395 24.9178 42.3768 26.6532 43.3153 28.3337C43.6597 28.9579 43.8285 30.0417 44.5982 30.0074C45.5233 29.9663 45.5571 28.7796 45.9757 28.0937C46.2323 27.6547 46.5834 27.25 46.7387 26.7698C48.501 21.399 52.0459 20.0202 57.5692 20.2123C71.2694 20.6925 84.9899 20.4249 98.7036 20.3152C100.925 20.2946 101.972 20.8159 101.641 23.1618C101.6 25.7821 101.533 28.4023 101.519 31.0226C101.506 35.4674 101.519 35.4674 105.955 35.2205ZM86.3538 31.7154C86.3538 29.3558 86.2998 27.3871 86.3741 25.4185C86.4146 24.3005 86.0297 23.93 84.9291 23.9575C82.5726 24.0261 80.2093 24.081 77.8595 23.9438C76.3065 23.8546 76.0905 24.5337 76.1175 25.8781C76.1918 29.2117 76.1242 32.5522 76.1175 35.8858C76.1175 38.0465 75.1317 39.3224 72.944 39.3086C70.7427 39.2949 69.8109 37.9436 69.8042 35.8241C69.7907 32.9981 69.7974 30.1789 69.7974 27.3529C69.7974 23.7654 69.7974 23.8203 66.2795 23.8615C65.1182 23.8752 64.4497 24.225 63.9298 25.2951C63.0385 27.1334 61.9919 28.8893 61.0196 30.6796C57.1911 37.7241 60.925 45.8867 68.7103 47.3958C71.4585 47.9308 74.2809 47.9925 77.0155 47.5261C81.5462 46.751 84.5712 44.0759 85.8609 39.4733C86.6171 36.7913 86.2255 34.0475 86.3538 31.7154ZM45.5503 38.0808C44.5105 37.6624 44.3552 36.7295 43.9568 36.0299C41.9986 32.5385 40.108 29.0059 38.1634 25.5146C37.8123 24.8904 37.684 23.9438 36.7049 23.9369C33.6597 23.9163 30.6077 23.93 27.1843 23.93C30.3781 29.781 33.2951 35.1519 36.2525 40.509C37.5692 42.8892 38.4402 46.1748 40.4591 47.3203C42.5996 48.5276 45.8677 47.6084 48.6361 47.7662C50.0338 47.8416 50.7157 47.2929 51.3639 46.0857C54.9966 39.3361 58.7238 32.6414 62.397 25.9124C62.7009 25.3568 63.3221 24.8423 62.8629 23.9095C60.3309 23.9095 57.7178 23.9986 55.1249 23.8752C53.707 23.8066 53.025 24.4171 52.4038 25.59C50.1553 29.7742 47.8393 33.9172 45.5503 38.0808ZM99.7029 47.7319C101.391 47.7319 103.079 47.7319 104.767 47.7319C111.094 47.7319 111.013 47.7319 111.047 41.3459C111.053 39.4458 110.405 39.0411 108.717 39.1166C106.023 39.2401 103.315 39.0617 100.621 39.1852C99.0277 39.2538 98.5888 38.6707 98.6225 37.1205C98.7103 33.2656 98.6158 29.4106 98.6698 25.5557C98.6833 24.3896 98.4132 23.8409 97.1303 23.8889C94.7738 23.9781 92.4038 23.9849 90.0473 23.8889C88.6563 23.834 88.366 24.4171 88.3795 25.6998C88.4267 32.4699 88.4335 39.2401 88.3795 46.0102C88.366 47.3478 88.7711 47.8073 90.1013 47.773C93.2883 47.677 96.4956 47.7319 99.7029 47.7319ZM143.7 23.9026C139.912 23.9026 136.631 23.9506 133.342 23.8752C132.255 23.8546 131.668 24.3005 131.128 25.1784C129.075 28.5189 126.982 31.832 124.862 35.1313C124.342 35.9476 124.254 36.5443 124.909 37.388C127.319 40.4747 129.602 43.6643 132.005 46.7579C133.437 48.5962 138.312 47.9445 139.602 46.0582C141.114 43.8427 140.993 42.1553 138.906 40.4542C137.934 39.6653 137.279 38.4718 136.34 37.6213C135.267 36.6541 135.449 35.8996 136.212 34.8227C138.663 31.3724 141.013 27.8399 143.7 23.9026ZM123.187 36.071C123.187 32.6482 123.133 29.2254 123.214 25.8095C123.248 24.4719 123.038 23.7929 121.485 23.8889C119.217 24.0261 116.934 24.0055 114.666 23.8958C113.268 23.8272 113.005 24.4033 113.011 25.6792C113.065 32.4356 113.059 39.192 113.011 45.9485C113.005 47.2174 113.255 47.8073 114.659 47.7319C116.928 47.6221 119.21 47.6016 121.479 47.7387C123.018 47.8279 123.248 47.1694 123.214 45.825C123.126 42.5737 123.187 39.3224 123.187 36.071Z" fill="#C31322"/>
<path d="M178.568 47.6905C178.143 49.0967 177.441 50.1942 175.807 50.2216C175.064 50.2353 174.652 50.6332 174.774 51.326C174.902 52.0325 175.597 51.7581 176.03 51.7375C180.56 51.5592 185.105 52.1697 189.629 51.3946C190.344 51.2711 191.114 51.5249 191.864 51.5798C194.429 51.7787 197.015 52.348 199.264 50.2971C200.047 49.5837 201.161 49.035 202.289 49.1927C204.315 49.4671 204.362 48.3147 204.355 46.7577C204.342 38.89 204.416 31.0292 204.456 23.1685C208.839 23.2371 208.839 23.2371 208.839 27.8191C208.839 34.747 208.839 41.668 208.839 48.5754C209.831 48.8772 210.344 48.1227 211.02 47.8689C213.734 46.8537 216.806 47.3133 218.346 49.0281C220.189 51.079 220.587 54.543 219.082 57.1838C218.386 58.4048 218.103 59.3994 218.454 60.8741C219.602 65.7374 215.192 69.9696 210.398 68.6046C209.19 68.2616 208.447 68.3508 207.448 69.0093C205.55 70.2577 203.484 70.8407 201.182 69.5786C201.722 70.6761 202.363 71.7393 202.768 72.8848C203.153 73.9617 203.072 75.0798 202.161 75.9715C201.242 76.8701 200.148 76.9112 199.122 76.3693C198.157 75.8617 197.191 75.9303 196.185 75.8755C194.18 75.752 193.092 76.5477 192.755 78.6604C192.546 79.9842 192.012 81.3012 191.398 82.5016C189.514 86.185 186.536 87.3168 182.444 85.794C179.25 84.6074 177.988 80.7319 179.311 77.0964C179.689 76.0675 180.297 75.1278 180.803 74.1401C180.81 73.9137 180.824 73.6942 180.837 73.4678C180.655 73.5433 180.473 73.6256 180.29 73.7011C176.462 75.2375 176.462 75.2375 172.154 73.3581C171.762 74.9906 171.445 76.6437 170.965 78.2419C169.946 81.6716 168.636 82.2615 165.327 81.2052C161.479 79.9773 159.095 77.9058 158.514 73.413C157.913 68.7692 156.914 64.0774 154.605 59.8109C154.072 63.4327 152.066 67.1161 155.375 70.5046C156.171 71.3209 156.057 72.4252 155.516 73.3787C154.875 74.5173 153.801 74.9357 152.546 74.9838C148.082 75.1415 144.807 72.1028 143.781 66.5399C140.054 71.1974 136.462 75.6834 132.876 80.1694C131.512 81.8705 127.502 83.0915 125.692 82.1312C124.267 81.3766 126.003 80.4438 125.827 79.5589C126.894 79.4972 127.394 78.6535 127.974 77.9333C138.285 65.072 148.595 52.2108 158.906 39.3496C160.736 37.0586 160.736 37.0449 161.999 39.5897C162.451 40.502 162.822 41.4485 163.234 42.3814C160.918 45.1869 158.602 47.9923 156.219 50.8801C159.304 52.6772 162.863 53.4318 164.126 57.5748C164.794 53.9805 165.381 50.8115 165.969 47.6425C166.752 46.0649 167.535 44.4941 168.319 42.9233C170.317 41.0919 172.633 40.6186 175.051 41.7229C177.481 42.841 178.602 44.9605 178.568 47.6905ZM214.166 57.0947C216.88 57.8835 217.049 55.7159 217.387 54.0491C217.832 51.8541 216.644 50.0707 214.814 49.7209C211.08 49.0144 207.259 52.6567 208.244 56.3607C208.845 58.6174 208.008 60.1128 206.975 61.7521C206.59 62.3626 206.252 63.3366 205.307 62.8359C204.578 62.4449 204.936 61.6287 205.111 60.9702C205.24 60.4763 205.219 59.8795 205.489 59.4886C207.11 57.0809 204.983 54.9751 204.97 52.6978C204.963 51.7444 203.714 51.3054 202.741 51.4906C199.028 52.1971 196.928 54.8174 195.719 58.1853C194.618 61.2514 194.841 64.3038 197.042 66.876C198.096 68.1107 199.385 68.145 200.459 66.7046C200.83 66.2107 201.202 65.7237 201.796 64.9417C202.41 67.1641 203.396 68.3782 205.543 67.4522C207.137 66.7594 207.859 65.0858 209.176 64.0294C210.398 66.4713 211.877 66.9584 214.119 65.7511C216.111 64.6811 216.826 62.3352 215.685 60.2499C215.159 59.2896 214.402 58.4665 213.747 57.5748C213.876 57.4239 214.017 57.2593 214.166 57.0947ZM165.192 71.2248C164.943 71.2386 164.699 71.2523 164.45 71.266C163.545 67.123 162.573 62.9937 161.762 58.8369C160.959 54.7213 157.427 53.9737 154.443 53.0545C151.938 52.2863 150.02 54.248 148.717 56.395C146.712 59.7012 145.888 63.3366 146.219 67.1984C146.469 70.1617 148.265 71.9794 151.168 72.4732C151.823 72.583 152.62 72.8985 152.998 72.1577C153.329 71.5061 152.505 71.1768 152.167 70.7447C151.627 70.045 151.283 69.2631 151.195 68.4125C150.736 64.1597 151.371 60.0442 152.876 56.0795C153.592 54.1863 154.598 54.5087 155.489 55.9972C156.685 57.9795 157.495 60.1608 158.069 62.3832C159.156 66.6017 160.067 70.8613 161.053 75.1004C161.512 77.0827 164.97 79.8059 166.961 79.4423C169.007 79.0719 168.852 76.9524 169.068 75.4982C169.656 71.5267 169.926 67.5071 170.351 63.5081C170.857 58.7546 170.898 53.9188 172.694 49.3916C173.099 48.3765 173.403 46.9634 174.787 47.2721C176.718 47.7042 176.104 46.5587 175.787 45.7905C175.28 44.5421 174.294 43.7258 172.924 43.5338C171.56 43.3486 170.432 43.7601 169.649 44.9742C168.953 46.058 168.474 47.2309 168.13 48.4793C167.103 52.204 166.624 56.0177 166.266 59.8521C165.928 63.6453 165.55 67.4316 165.192 71.2248ZM200.479 74.044C199.23 70.7104 197.542 69.5855 194.369 69.7913C193.315 69.8598 192.424 70.1891 192.518 68.4331C192.714 64.7496 194.382 61.3406 192.937 57.2867C191.85 54.2343 190.837 52.7184 187.907 54.5018C185.132 56.1892 183.248 58.6243 182.458 61.8962C181.877 64.2901 180.776 66.4027 178.501 67.5551C177.691 67.9667 176.644 68.1382 176.043 67.0612C175.381 65.8746 176.239 65.4562 177.09 64.9349C178.94 63.8099 180.412 62.2734 181.229 60.2294C181.755 58.9124 181.816 57.4856 180.695 56.4019C179.642 55.3867 178.332 55.5925 177.13 56.0863C172.478 57.9932 170.081 65.902 172.816 70.1959C174.335 72.583 176.725 73.0494 179.149 71.5198C180.628 70.5869 181.452 69.0642 182.647 67.7678C183.889 69.3385 184.713 71.5953 187.346 70.436C187.711 70.2783 187.974 70.4703 188.055 70.875C188.143 71.3209 188.103 71.7736 187.724 72.0342C187.029 72.5075 186.252 72.8711 185.57 73.3581C183.376 74.922 181.506 76.7192 181.391 79.7098C181.317 81.5961 181.924 83.0846 183.741 83.8323C185.618 84.6142 187.205 84.0518 188.514 82.577C189.615 81.3355 190.121 79.7853 190.547 78.2076C191.722 73.804 192.208 73.4473 196.718 73.3375C197.913 73.3238 199.028 73.6119 200.479 74.044Z" fill="#19315D"/>
<path d="M64.5508 50.75C68.413 51.8338 72.3631 51.7652 76.3199 51.7652C93.9903 51.7515 111.668 51.7583 129.338 51.7583C130.25 51.7583 131.161 51.7583 132.1 51.7583C132.235 52.9381 131.688 53.6789 131.134 54.4129C113.437 54.4746 95.7324 54.5706 78.0282 54.5638C73.2273 54.5638 68.3793 54.4266 64.5508 50.75Z" fill="#19315D"/>
<path d="M40.2363 51.8474C43.5246 51.8199 46.8062 51.7239 50.0945 51.7856C51.4517 51.8131 52.2687 51.3672 52.8899 50.1394C54.0108 47.9444 55.2802 45.8249 56.5091 43.623C57.7313 45.1733 58.8656 46.6206 60.0068 48.0679C59.9595 48.1433 59.8987 48.2051 59.8785 48.2874C58.1972 53.7954 54.4835 55.6406 49.0547 54.6528C47.6705 54.399 46.1918 54.4676 44.7873 54.646C42.4578 54.9478 40.9251 54.1658 40.2363 51.8474Z" fill="#19315D"/>
<path d="M105.955 35.2203C101.519 35.4741 101.506 35.4741 101.526 31.0292C101.539 28.409 101.6 25.7887 101.647 23.1685C105.948 23.2371 105.948 23.2371 105.948 27.5721C105.948 30.1169 105.955 32.6686 105.955 35.2203Z" fill="#19315D"/>
<path d="M171.431 20.2948C169.034 20.9053 167.866 19.8695 167.09 17.5305C165.78 13.6207 164.119 9.82749 162.6 5.98627C163.059 5.09456 163.518 4.19599 164.288 2.70752C166.793 8.88091 169.115 14.5879 171.431 20.2948Z" fill="#19315D"/>
<path d="M45.9756 28.0935C45.5502 28.7794 45.5164 29.9661 44.5981 30.0073C43.8284 30.0416 43.6596 28.9509 43.3152 28.3336C42.3767 26.653 41.5394 24.9176 40.6616 23.2028C42.7818 22.7089 43.8689 23.8819 44.6522 25.6653C45.0168 26.509 45.53 27.2841 45.9756 28.0935Z" fill="#19315D"/>
<path d="M178.568 47.6905C178.602 44.9605 177.481 42.841 175.044 41.7298C172.627 40.6254 170.311 41.0987 168.312 42.9302C165.881 38.7254 163.45 34.5206 160.945 30.1924C150.256 43.3897 139.602 56.5322 128.947 69.6815C128.744 69.5581 128.541 69.4277 128.339 69.3043C138.866 49.3711 149.399 29.4379 160.202 8.9834C163.747 17.4272 167.096 25.3909 170.439 33.3546C170.601 33.3477 170.77 33.334 170.932 33.3271C170.932 30.7617 170.999 28.1895 170.905 25.6241C170.857 24.266 171.317 23.7172 172.633 23.9024C172.714 23.9161 172.802 23.9024 172.883 23.9024C181.074 23.6829 181.074 23.6829 185.76 30.5697C187.056 32.4697 188.359 34.3629 190.175 36.2423C190.175 33.1556 190.392 30.0484 190.108 26.9891C189.858 24.2454 190.857 23.5869 193.315 23.8544C195.152 24.0533 197.029 23.9504 198.879 23.875C200.121 23.8201 200.682 24.1219 200.668 25.5555C200.601 32.4148 200.614 39.2742 200.662 46.1335C200.668 47.375 200.27 47.7797 199.068 47.7454C196.536 47.67 194.004 47.6425 191.472 47.7591C190.209 47.814 189.696 47.0663 189.088 46.2226C186.556 42.697 184.004 39.1918 181.053 35.1174C181.053 38.9243 180.911 42.1276 181.101 45.3035C181.236 47.4436 180.466 48.0541 178.568 47.6905Z" fill="#FDFAFA"/>
<path d="M86.3538 31.7151C86.2256 34.0473 86.6172 36.7842 85.8542 39.4867C84.5578 44.0825 81.5395 46.7645 77.0088 47.5396C74.2742 48.006 71.4518 47.9374 68.7036 47.4093C60.9183 45.9002 57.1844 37.7376 61.0129 30.6931C61.9852 28.9028 63.0385 27.1468 63.9231 25.3085C64.443 24.2385 65.1114 23.8887 66.2728 23.8749C69.7907 23.8338 69.7907 23.7789 69.7907 27.3663C69.7907 30.1924 69.784 33.0115 69.7975 35.8376C69.8042 37.9571 70.736 39.3015 72.9372 39.3221C75.1317 39.3358 76.1108 38.06 76.1108 35.8993C76.1108 32.5657 76.1783 29.2252 76.1108 25.8916C76.0838 24.5471 76.2998 23.8681 77.8528 23.9572C80.2026 24.0944 82.5659 24.0396 84.9224 23.971C86.023 23.9367 86.4079 24.3071 86.3673 25.432C86.3066 27.3869 86.3538 29.3555 86.3538 31.7151Z" fill="#FDFAFA"/>
<path d="M45.5504 38.0811C47.8394 33.9174 50.1621 29.7744 52.3903 25.5834C53.0183 24.4036 53.6935 23.8 55.1115 23.8685C57.7111 23.9989 60.3174 23.9028 62.8495 23.9028C63.3086 24.8357 62.6874 25.3502 62.3836 25.9058C58.7171 32.6348 54.9832 39.3294 51.3505 46.079C50.7023 47.2863 50.0136 47.8419 48.6226 47.7596C45.8542 47.6018 42.5862 48.5278 40.4457 47.3137C38.4268 46.1682 37.549 42.8826 36.2391 40.5024C33.2816 35.1521 30.3714 29.7744 27.1709 23.9234C30.5943 23.9234 33.6463 23.9097 36.6915 23.9303C37.6706 23.9371 37.7989 24.8769 38.15 25.5079C40.1013 29.0062 41.9852 32.5319 43.9433 36.0233C44.3485 36.7298 44.5105 37.6626 45.5504 38.0811Z" fill="#FDFBFB"/>
<path d="M99.7028 47.7318C96.4955 47.7318 93.2882 47.677 90.0877 47.7593C88.7575 47.7936 88.3591 47.334 88.3658 45.9964C88.4199 39.2263 88.4199 32.4561 88.3658 25.686C88.3591 24.4033 88.6427 23.8202 90.0336 23.8751C92.3901 23.9711 94.7602 23.9643 97.1167 23.8751C98.3996 23.8271 98.6697 24.3758 98.6562 25.5419C98.6022 29.3969 98.6967 33.2587 98.6089 37.1067C98.5752 38.6638 99.014 39.2469 100.608 39.1714C103.302 39.0548 106.009 39.2263 108.703 39.1028C110.391 39.0274 111.046 39.4389 111.033 41.3321C111.006 47.7181 111.087 47.7181 104.753 47.7181C103.072 47.7318 101.391 47.7318 99.7028 47.7318Z" fill="#FDFAFA"/>
<path d="M143.7 23.9026C141.013 27.8399 138.663 31.3724 136.206 34.8295C135.443 35.9064 135.26 36.6609 136.334 37.6281C137.272 38.4787 137.927 39.6653 138.9 40.461C140.993 42.1553 141.114 43.8495 139.595 46.0651C138.305 47.9514 133.43 48.603 131.999 46.7647C129.595 43.6712 127.313 40.4816 124.902 37.3949C124.247 36.5512 124.335 35.9544 124.855 35.1382C126.975 31.8388 129.068 28.5258 131.121 25.1853C131.661 24.3073 132.255 23.8615 133.336 23.882C136.631 23.9438 139.912 23.9026 143.7 23.9026Z" fill="#FDFBFB"/>
<path d="M123.187 36.0709C123.187 39.3222 123.133 42.5735 123.214 45.8248C123.248 47.1761 123.025 47.8277 121.478 47.7386C119.21 47.6014 116.928 47.622 114.659 47.7317C113.254 47.8003 112.998 47.2173 113.011 45.9483C113.059 39.1919 113.065 32.4354 113.011 25.679C113.004 24.4032 113.268 23.827 114.666 23.8956C116.934 24.0053 119.217 24.0259 121.485 23.8887C123.031 23.7995 123.241 24.4718 123.214 25.8093C123.133 29.2253 123.187 32.6481 123.187 36.0709Z" fill="#FDFBFB"/>
<path d="M165.193 71.2248C165.557 67.4385 165.929 63.6521 166.28 59.8658C166.638 56.0314 167.117 52.2177 168.143 48.493C168.488 47.2447 168.96 46.0717 169.663 44.9879C170.446 43.767 171.573 43.3554 172.937 43.5475C174.301 43.7395 175.287 44.5558 175.8 45.8042C176.111 46.5724 176.732 47.7111 174.801 47.2858C173.417 46.9771 173.106 48.3902 172.708 49.4053C170.905 53.9325 170.871 58.7683 170.365 63.5218C169.933 67.5208 169.669 71.5404 169.082 75.5119C168.866 76.9592 169.021 79.0788 166.975 79.456C164.983 79.8196 161.526 77.0964 161.067 75.1141C160.081 70.875 159.17 66.6085 158.083 62.3969C157.509 60.1676 156.698 57.9932 155.503 56.0109C154.605 54.5224 153.606 54.2 152.89 56.0932C151.384 60.0579 150.75 64.1803 151.209 68.4262C151.303 69.2768 151.641 70.0656 152.181 70.7584C152.519 71.1974 153.336 71.5266 153.012 72.1714C152.64 72.9122 151.837 72.5967 151.182 72.4869C148.272 71.9931 146.482 70.1685 146.232 67.2121C145.908 63.3572 146.725 59.7149 148.731 56.4087C150.034 54.2617 151.952 52.3 154.457 53.0682C157.448 53.9874 160.973 54.735 161.776 58.8506C162.593 63.0142 163.565 67.1367 164.463 71.2797C164.7 71.2523 164.943 71.2386 165.193 71.2248Z" fill="#E59403"/>
<path d="M200.479 74.0441C199.028 73.612 197.907 73.3239 196.718 73.3513C192.208 73.4542 191.722 73.8178 190.547 78.2215C190.128 79.7922 189.622 81.3424 188.515 82.5908C187.205 84.0656 185.618 84.6212 183.741 83.8461C181.931 83.0984 181.317 81.61 181.391 79.7237C181.513 76.733 183.376 74.9358 185.571 73.3719C186.259 72.8849 187.029 72.5214 187.725 72.0481C188.103 71.7874 188.15 71.3347 188.055 70.8888C187.974 70.4841 187.711 70.2921 187.346 70.4499C184.706 71.6091 183.883 69.3524 182.647 67.7816C181.459 69.078 180.628 70.6008 179.149 71.5336C176.725 73.0633 174.342 72.5968 172.816 70.2098C170.074 65.9158 172.478 58.007 177.13 56.1002C178.332 55.6063 179.642 55.4005 180.696 56.4157C181.816 57.4995 181.756 58.9193 181.229 60.2432C180.412 62.2873 178.94 63.8306 177.09 64.9487C176.239 65.47 175.375 65.8884 176.043 67.0751C176.644 68.152 177.691 67.9805 178.501 67.5689C180.777 66.4166 181.877 64.3039 182.458 61.91C183.248 58.6381 185.125 56.203 187.907 54.5157C190.837 52.7322 191.85 54.2481 192.937 57.3005C194.382 61.3544 192.714 64.7635 192.519 68.4469C192.424 70.2029 193.315 69.8737 194.369 69.8051C197.542 69.5787 199.237 70.7036 200.479 74.0441ZM190.588 56.8272C187.92 57.3417 186.32 59.4338 186.091 62.4245C186.003 63.5494 185.665 65.1613 187.151 65.3945C188.339 65.5797 188.724 64.1393 189.082 63.0829C189.77 61.0594 188.926 58.6861 190.588 56.8272ZM186.624 76.3489C185.057 76.7261 184.146 77.4807 183.241 78.2215C182.735 78.6399 182.093 79.1955 182.674 79.9157C183.126 80.4713 183.896 80.4919 184.524 80.1284C185.854 79.3601 186.401 78.1186 186.624 76.3489ZM176.219 61.9649C178.272 60.8811 179.392 59.715 179.703 57.9042C179.723 57.8013 179.311 57.4789 179.19 57.52C177.407 58.1854 176.914 59.7836 176.219 61.9649Z" fill="#E59403"/>
<path d="M213.734 57.5821C214.389 58.467 215.145 59.2969 215.672 60.2572C216.82 62.3356 216.104 64.6884 214.105 65.7584C211.864 66.9588 210.385 66.4786 209.163 64.0367C207.853 65.0931 207.123 66.7667 205.53 67.4595C203.383 68.3924 202.397 67.1714 201.782 64.949C201.188 65.731 200.81 66.218 200.446 66.7119C199.372 68.1523 198.089 68.1112 197.029 66.8833C194.828 64.318 194.605 61.2656 195.706 58.1926C196.914 54.8247 199.014 52.2044 202.728 51.4979C203.707 51.3127 204.949 51.7517 204.956 52.7051C204.97 54.9893 207.103 57.0951 205.476 59.4959C205.206 59.8937 205.226 60.4836 205.098 60.9775C204.922 61.636 204.564 62.4522 205.294 62.8432C206.232 63.3439 206.577 62.3631 206.961 61.7594C207.995 60.1269 208.832 58.6247 208.231 56.368C207.245 52.664 211.06 49.0217 214.801 49.7282C216.637 50.078 217.819 51.8614 217.373 54.0564C217.036 55.7232 216.867 57.8908 214.152 57.102C213.997 56.9442 213.842 56.7933 213.687 56.6355C212.971 55.4214 213.734 54.8795 214.612 54.2348C215.199 53.7958 215.53 53.0481 215.395 52.2113C215.327 51.8066 215.044 51.6419 214.699 51.6419C213.795 51.6419 213.045 52.0398 212.687 52.8766C212.053 54.3514 211.931 55.8124 213.268 57.0265C213.43 57.2048 213.579 57.3969 213.734 57.5821ZM203.322 54.564C200.473 54.8795 198.798 57.1431 198.71 60.3807C198.683 61.2999 198.481 62.5208 199.554 62.8089C200.817 63.1519 201.141 61.876 201.526 60.9569C202.377 58.9334 201.465 56.4915 203.322 54.564ZM210.479 60.7442C210.365 61.7594 208.535 62.5414 210.088 63.7555C210.493 64.071 210.898 64.9284 211.472 64.1465C212.471 62.7815 211.411 61.7937 210.479 60.7442Z" fill="#E59403"/>
<path d="M190.587 56.8271C188.933 58.686 189.77 61.0594 189.082 63.076C188.717 64.1323 188.332 65.5728 187.15 65.3876C185.665 65.1544 186.003 63.5493 186.09 62.4175C186.32 59.4268 187.92 57.3416 190.587 56.8271Z" fill="#19315D"/>
<path d="M186.624 76.3491C186.401 78.1188 185.854 79.3604 184.524 80.1286C183.896 80.4922 183.126 80.4716 182.674 79.916C182.093 79.2026 182.735 78.6401 183.241 78.2217C184.139 77.4809 185.058 76.7264 186.624 76.3491Z" fill="#19315D"/>
<path d="M176.219 61.965C176.914 59.7769 177.407 58.1856 179.196 57.5202C179.311 57.4791 179.723 57.8014 179.71 57.9043C179.392 59.722 178.278 60.8881 176.219 61.965Z" fill="#19315D"/>
<path d="M203.322 54.564C201.465 56.4846 202.377 58.9334 201.519 60.9568C201.134 61.876 200.81 63.145 199.548 62.8089C198.481 62.5208 198.683 61.2998 198.704 60.3807C198.798 57.1431 200.473 54.8864 203.322 54.564Z" fill="#19315D"/>
<path d="M213.275 57.0125C211.938 55.7984 212.059 54.3374 212.694 52.8626C213.052 52.0258 213.801 51.6279 214.706 51.6279C215.051 51.6279 215.334 51.7926 215.402 52.1973C215.537 53.0341 215.206 53.7886 214.618 54.2208C213.741 54.8655 212.984 55.4074 213.693 56.6215C213.558 56.7587 213.417 56.889 213.275 57.0125Z" fill="#19315D"/>
<path d="M210.48 60.7441C211.411 61.7936 212.471 62.7814 211.472 64.1395C210.898 64.9215 210.493 64.0709 210.088 63.7485C208.542 62.5413 210.365 61.7593 210.48 60.7441Z" fill="#19315D"/>
<path d="M213.7 56.6284C213.856 56.7862 214.011 56.9439 214.166 57.0949C214.024 57.2595 213.883 57.4172 213.734 57.5819C213.586 57.3898 213.43 57.2046 213.282 57.0125C213.417 56.8891 213.559 56.7587 213.7 56.6284Z" fill="#19315D"/>
</g>
<defs>
<clipPath id="clip0_2277_9684">
<rect width="240" height="86.4" fill="white" transform="translate(0 0.0458984)"/>
</clipPath>
</defs>
</svg>
