<svg width="15" height="17" viewBox="0 0 15 17" fill="none" xmlns="http://www.w3.org/2000/svg">
<path fillRule="evenodd" clipRule="evenodd" d="M1.22338 4.66899H2.11071L2.27389 4.38341C2.36569 4.23042 2.61047 3.91424 2.82465 3.67966C4.64011 1.73159 7.98546 2.00697 9.41335 4.23042L9.69892 4.66899H10.5863C11.2492 4.66899 11.4736 4.64859 11.4736 4.5772C11.4736 4.5262 11.3206 4.19982 11.1268 3.85305C10.3721 2.45574 9.20936 1.4766 7.71008 0.976836C7.09812 0.772849 6.90434 0.742251 6.0782 0.721853C5.43565 0.701454 4.99709 0.721853 4.68091 0.793248C3.17143 1.14003 1.83533 2.03757 0.998993 3.28188C0.682817 3.75105 0.346243 4.42421 0.336044 4.5772C0.336044 4.64859 0.560426 4.66899 1.22338 4.66899ZM5.39478 3.43497C4.65023 3.56756 3.86489 4.00613 3.48752 4.5059L3.36513 4.66909H5.91494H8.46474L8.21996 4.4141C7.47542 3.64915 6.3739 3.26158 5.39478 3.43497ZM13.7377 8.75876C13.7377 10.1255 13.7479 10.3499 13.8193 10.3804C14.0539 10.4722 14.1865 11.0434 14.0641 11.3392C13.8805 11.686 13.5745 11.8186 12.9626 11.8186H12.5954L12.5648 12.1347C12.4832 12.3387 12.1365 12.3795 11.8509 12.3897V14.0624L11.8305 14.8886C11.8101 15.9289 11.7999 16.0513 11.6469 16.2553C11.5945 16.3299 11.5557 16.3924 11.5061 16.4448C11.2375 16.7288 10.6533 16.7142 5.87414 16.7142H5.87404C0.896919 16.7142 0.75413 16.7142 0.51955 16.5714C0.38696 16.5 0.223772 16.3267 0.142179 16.1941C-0.000610352 15.9697 -0.000610352 15.8269 -0.000610352 10.7782C-0.000610352 7.93261 0.0197881 5.54597 0.0401865 5.48477C0.0809834 5.38278 0.662338 5.37258 5.88434 5.37258C11.5449 5.37258 11.6877 5.38278 11.7591 5.51537C11.7999 5.59696 11.8305 6.45371 11.8305 7.78982V9.6461H12.1977C12.5546 9.6461 12.5546 10.0439 12.5546 10.1051C12.5546 10.1969 12.5852 10.2173 12.7382 10.2173H12.9218V7.16766L12.7688 7.05547C12.4934 6.85148 12.371 6.41291 12.5036 6.06613C12.575 5.87235 12.7994 5.63776 12.9932 5.54597C13.3706 5.37258 13.8703 5.54597 14.0845 5.91314C14.2987 6.29052 14.2273 6.76989 13.8907 7.05547L13.7377 7.17786V8.75876ZM9.80084 11.1658V7.90201H7.91398L7.96498 11.125L8.88291 11.1454L9.80084 11.1658ZM6.83286 7.90201H4.95621V11.1556H6.83286V7.90201ZM3.8037 7.90201H1.99844V11.1556H3.8037V7.90201ZM5.89454 14.6234C9.77024 14.6234 9.87223 14.6234 10.015 14.4806C10.2088 14.2868 10.1986 14.0114 9.97422 13.787L9.80084 13.6136H5.90474C2.08003 13.6136 2.00864 13.6238 1.82505 13.7666C1.59047 13.9502 1.57007 14.2766 1.77405 14.4806C1.91684 14.6234 2.01883 14.6234 5.89454 14.6234Z" fill="#FFCF23"/>
</svg>
