<svg width="16" height="17" viewBox="0 0 16 17" fill="none" xmlns="http://www.w3.org/2000/svg">
<path fillRule="evenodd" clipRule="evenodd" d="M6.65224 0.809578C3.72913 1.30098 1.25243 3.47142 0.348067 6.3342C-0.116022 7.80341 -0.116022 9.62176 0.348067 11.091C1.13742 13.5897 3.12885 15.5834 5.61412 16.3633C7.09939 16.8293 8.90061 16.8293 10.3859 16.3633C12.8712 15.5834 14.8626 13.5897 15.6519 11.091C16.116 9.62176 16.116 7.80341 15.6519 6.3342C14.8626 3.8355 12.8712 1.84176 10.3859 1.0619C9.2987 0.720823 7.7878 0.618692 6.65224 0.809578ZM9.46883 1.83057C10.0773 1.95677 11.0627 2.31091 11.0627 2.40336C11.0627 2.44667 10.7528 2.99976 10.6498 3.14021C10.641 3.15209 10.4421 3.08483 10.2076 2.99064C9.97317 2.89651 9.49302 2.76231 9.14069 2.6925L8.50003 2.56555V2.13884V1.71219L8.70316 1.713C8.81486 1.71344 9.15944 1.76638 9.46883 1.83057ZM4.30729 3.28428L4.51874 3.6688L4.33736 3.79556C4.10272 3.95957 3.24698 4.81531 3.08297 5.04994L2.95621 5.23133L2.57169 5.01988C2.36018 4.90362 2.18717 4.78874 2.18717 4.76455C2.18717 4.6948 2.89946 3.826 3.13229 3.61174C3.41274 3.35372 4.00009 2.89976 4.05346 2.89976C4.07684 2.89976 4.19103 3.07277 4.30729 3.28428ZM8.2457 4.5236C8.91824 4.71649 9.13063 5.57179 8.62604 6.05525L8.43752 6.23582V7.25544V8.27506H9.45715H10.4768L10.6573 8.08655C11.3041 7.41151 12.4461 8.06161 12.1889 8.95835C11.9961 9.63083 11.1407 9.84315 10.6573 9.33862L10.4768 9.15011H9.45715H8.43752V10.1697V11.1894L8.62604 11.3699C9.30107 12.0167 8.65097 13.1587 7.75424 12.9015C7.08176 12.7087 6.86944 11.8533 7.37396 11.3699L7.56248 11.1894V10.1697V9.15011H6.54285H5.52323L5.34266 9.33862C4.85926 9.84315 4.0039 9.63083 3.81108 8.95835C3.55387 8.06161 4.69594 7.41151 5.34266 8.08655L5.52323 8.27506H6.54285H7.56248V7.25544V6.23582L7.37396 6.05525C6.80331 5.50853 7.16789 4.53616 7.96919 4.46772C8.00375 4.46478 8.12819 4.48991 8.2457 4.5236ZM14.5658 6.16557C14.7733 6.70172 14.9981 7.65772 14.9996 8.00942L15.0004 8.21256H14.5708H14.1412L14.0381 7.64897C13.9814 7.33901 13.8635 6.89605 13.7761 6.66453C13.6886 6.43308 13.6036 6.20151 13.5872 6.14994C13.5668 6.08625 13.6733 5.99156 13.9194 5.85449C14.1186 5.74361 14.3007 5.65217 14.3239 5.65135C14.3472 5.6506 14.4561 5.88199 14.5658 6.16557ZM1.96191 9.77621C2.0186 10.0862 2.13648 10.5291 2.22392 10.7606C2.31137 10.9921 2.39643 11.2237 2.41306 11.2752C2.43362 11.3393 2.32593 11.4333 2.07285 11.5721C1.86915 11.6838 1.68708 11.7753 1.66814 11.7753C1.6492 11.7753 1.54395 11.5432 1.43419 11.2596C1.22674 10.7235 1.00185 9.76746 1.00042 9.41575L0.999603 9.21262H1.42919H1.85878L1.96191 9.77621ZM13.4455 12.4147C13.6475 12.5258 13.8128 12.6357 13.8128 12.6591C13.8128 12.7125 13.3589 13.2998 13.1009 13.5803C12.8866 13.8131 12.0178 14.5254 11.948 14.5254C11.9238 14.5254 11.809 14.3524 11.6927 14.1409L11.4813 13.7564L11.6626 13.6276C11.9605 13.4159 12.6671 12.7181 12.8483 12.4566C12.9412 12.3225 13.031 12.2128 13.0477 12.2128C13.0645 12.2128 13.2435 12.3037 13.4455 12.4147ZM5.95195 14.4887C6.18346 14.5761 6.62642 14.694 6.93638 14.7507L7.49997 14.8538V15.2834V15.713L7.29684 15.7122C6.75368 15.71 4.93733 15.1817 4.93733 15.0259C4.93733 14.9968 5.02877 14.8154 5.14046 14.6229C5.2756 14.3902 5.37498 14.2825 5.43735 14.3013C5.48892 14.317 5.7205 14.4012 5.95195 14.4887Z" fill="#FFCF23"/>
</svg>
