<svg width="16" height="17" viewBox="0 0 16 17" fill="none" xmlns="http://www.w3.org/2000/svg">
<path fillRule="evenodd" clipRule="evenodd" d="M5.18575 0.851489C5.0059 0.942626 4.80172 1.11674 4.73197 1.23838C4.62974 1.41683 4.50413 2.58868 4.08189 7.30195C3.794 10.5153 3.5713 13.3346 3.58688 13.5671C3.61003 13.9112 3.65486 14.031 3.82802 14.2118C3.94503 14.3339 4.15796 14.4653 4.30106 14.5036C4.44423 14.542 6.71509 14.7618 9.34734 14.992L14.1333 15.4106L14.4187 15.2626C14.9712 14.9759 14.9288 15.2228 15.4851 9.04135C16.0786 2.44463 16.0855 2.32145 15.8723 2.03422C15.5406 1.58706 15.6188 1.60021 10.7301 1.16782C8.22665 0.946375 6.02855 0.747343 5.84554 0.725514C5.58984 0.694939 5.43704 0.724117 5.18575 0.851489ZM2.2462 2.60133C1.49836 2.67357 0.824757 2.73539 0.749201 2.73862C0.567661 2.74634 0.0632458 3.25612 0.00408009 3.49168C-0.0739011 3.80243 0.990201 15.6771 1.12088 15.9545C1.2922 16.3181 1.67108 16.5167 2.16543 16.502C2.39173 16.4954 4.45967 16.3242 6.76074 16.1217C9.06181 15.9192 10.9774 15.7535 11.0175 15.7535C11.0576 15.7535 11.0739 15.737 11.0537 15.7168C11.0335 15.6966 9.51485 15.5468 7.67894 15.3839C5.84304 15.221 4.22513 15.0516 4.08365 15.0073C3.54579 14.8392 3.15096 14.3899 3.02418 13.8016C2.9975 13.678 3.1919 11.156 3.4562 8.19716C3.72042 5.23843 3.93665 2.73494 3.93665 2.63403C3.93665 2.41927 4.0971 2.42236 2.2462 2.60133ZM10.5604 4.34146C11.3346 5.04086 12.342 6.59255 12.762 7.7325C12.9435 8.22516 12.997 8.49026 13.0013 8.91824C13.0075 9.53746 12.9157 9.77236 12.5238 10.1411C12.1651 10.4785 11.8293 10.6233 11.3081 10.6652C11.0112 10.689 10.8454 10.7347 10.8454 10.7927C10.8454 10.8424 10.9155 11.0516 11.0011 11.2576C11.1812 11.6909 11.1445 11.9807 10.8985 12.0689C10.6573 12.1555 8.10112 11.9165 7.95294 11.7935C7.77258 11.6438 7.80565 11.3709 8.05738 10.9309C8.3014 10.5045 8.29103 10.3882 8.0091 10.3882C7.53026 10.3882 6.82438 9.89547 6.58 9.39069C6.23478 8.67746 6.52922 7.67525 7.44228 6.45607C8.19409 5.45216 9.75085 4.06739 10.1277 4.06739C10.1988 4.06739 10.3935 4.19072 10.5604 4.34146Z" fill="#FFCF23"/>
</svg>
