<svg width="16" height="17" viewBox="0 0 16 17" fill="none" xmlns="http://www.w3.org/2000/svg">
<path fillRule="evenodd" clipRule="evenodd" d="M5.35562 0.754766C4.68116 0.876946 4.67485 0.854572 5.56781 1.50475C6.01241 1.82843 6.39195 2.09586 6.41131 2.09906C6.43067 2.1022 6.8182 1.83679 7.27255 1.50922L8.09869 0.913588L7.82212 0.827735C7.48579 0.723341 5.80391 0.673564 5.35562 0.754766ZM3.14196 1.59626C2.5734 1.93352 1.76949 2.60745 1.76949 2.74692C1.76949 2.80285 1.95758 3.42419 2.18743 4.1276L2.60544 5.40654L3.21939 5.59729L3.83335 5.78797L4.89334 5.01517L5.95328 4.24237V3.57955V2.91674L4.86025 2.11798C4.25909 1.67866 3.73163 1.31922 3.6881 1.31922C3.64458 1.31922 3.39886 1.44391 3.14196 1.59626ZM7.96712 2.12257L6.88995 2.91674V3.57955V4.24237L7.952 5.01668L9.01406 5.79099L9.62558 5.5998L10.2372 5.40855L10.6554 4.12861C10.8855 3.42463 11.0737 2.80285 11.0737 2.74692C11.0737 2.52569 9.42139 1.31017 9.13926 1.32381C9.087 1.32632 8.55959 1.68576 7.96712 2.12257ZM0.931111 3.78608C0.537461 4.39157 0.125201 5.613 0.0410885 6.42313L0 6.81821L0.213498 6.65706C0.330894 6.56838 0.716552 6.28895 1.07049 6.03604C1.42442 5.78313 1.70249 5.54462 1.6885 5.50603C1.67445 5.46744 1.53008 5.03289 1.3676 4.54028C1.20518 4.04766 1.06118 3.64467 1.04763 3.64467C1.03408 3.64467 0.981691 3.70833 0.931111 3.78608ZM11.4758 4.5399C11.3132 5.03271 11.1687 5.46769 11.1545 5.50653C11.1344 5.56203 12.3347 6.49767 12.7541 6.75328C12.8276 6.7981 12.8354 6.74291 12.8016 6.41748C12.7345 5.77163 12.5187 5.0317 12.2016 4.3604C12.0365 4.01083 11.8721 3.70657 11.8363 3.68432C11.7965 3.65956 11.6564 3.99204 11.4758 4.5399ZM5.51136 5.69458C5.01599 6.05823 4.5715 6.37851 4.52355 6.40629C4.45261 6.44733 4.50531 6.67202 4.80642 7.61188L5.17653 8.76693H6.42161H7.6667L8.03512 7.61697C8.23781 6.98451 8.39318 6.45933 8.3805 6.44997C8.02119 6.18418 6.53582 5.10913 6.48412 5.07745C6.44278 5.05213 6.02802 5.31522 5.51136 5.69458ZM1.14505 7.09626C0.122704 7.84473 0.0534526 7.90815 0.0711244 8.08023C0.111464 8.47267 0.348253 9.2762 0.562938 9.7489L0.787738 10.2439H2.20061H3.61342L3.9716 9.7455C4.16855 9.47141 4.32972 9.21228 4.32972 9.16967C4.32972 9.12712 4.15631 8.54608 3.94444 7.87848L3.55909 6.66467L2.99197 6.47454C2.68006 6.36996 2.38276 6.28706 2.33137 6.29033C2.27991 6.2936 1.74608 6.65624 1.14505 7.09626ZM9.81985 6.47957L9.28407 6.66479L8.89879 7.87855C8.68685 8.54614 8.51351 9.13328 8.51351 9.18337C8.51351 9.23347 8.59369 9.37117 8.69166 9.48933L8.86988 9.70408L9.20683 9.40693C9.96147 8.74148 11.162 8.29688 12.2063 8.296L12.7456 8.29556L12.7726 8.10996C12.7984 7.9331 12.7464 7.88534 11.6786 7.10436C11.0621 6.65335 10.5121 6.28662 10.4566 6.28933C10.4011 6.29203 10.1145 6.37763 9.81985 6.47957ZM11.595 9.24427C10.2386 9.47236 9.05372 10.5341 8.62079 11.9094C8.41847 12.5521 8.43395 13.552 8.65613 14.1914C9.05322 15.334 9.93774 16.2191 11.0599 16.5969C11.4028 16.7123 11.5675 16.7262 12.3713 16.7074L13.2905 16.686L13.8459 16.4175C14.616 16.0451 15.2573 15.4034 15.619 14.6434C15.936 13.9771 16.034 13.4828 15.9901 12.7715C15.9453 12.0475 15.7601 11.4843 15.3777 10.9087C14.9801 10.3105 14.5478 9.92701 13.915 9.61113C13.1397 9.2241 12.4054 9.10795 11.595 9.24427ZM4.71382 10.2622L4.33834 10.7857L4.77464 12.1408L5.21094 13.496L5.49718 13.5355C5.85874 13.5853 7.03582 13.5857 7.33437 13.536L7.56023 13.4983L7.59151 12.7668C7.62529 11.9761 7.80201 11.3017 8.11879 10.7547L8.27797 10.4799L8.02956 10.1262L7.78109 9.77253L6.43523 9.75562L5.0893 9.73865L4.71382 10.2622ZM12.6973 10.1034V10.403L13.0065 10.5135C13.1766 10.5743 13.4054 10.6999 13.515 10.7928C13.7414 10.9845 14.0071 11.5101 14.008 11.768C14.0086 11.9402 14.0069 11.9408 13.5715 11.9408C13.2125 11.9408 13.1344 11.9229 13.1344 11.8403C13.1344 11.785 13.0389 11.6436 12.9221 11.526C12.7183 11.3209 12.691 11.3123 12.24 11.3123C11.8286 11.3123 11.7469 11.3321 11.5827 11.4712C11.3429 11.6742 11.2837 11.9326 11.4174 12.1926C11.5549 12.4602 11.8442 12.5693 12.4163 12.5693C12.9599 12.5693 13.2558 12.6715 13.5635 12.9654C14.382 13.7469 14.0204 15.227 12.9426 15.5066C12.7367 15.56 12.7278 15.5747 12.7095 15.8911L12.6906 16.22L12.2412 16.2016L11.7918 16.1832L11.7727 15.8813C11.7589 15.6641 11.7239 15.5701 11.6478 15.546C11.0874 15.369 10.6567 14.98 10.5227 14.5298C10.3909 14.0869 10.3982 14.0777 10.8856 14.0777H11.3218L11.4111 14.2927C11.5332 14.5868 11.6702 14.6434 12.2609 14.6434C12.7396 14.6434 12.78 14.6326 12.9519 14.4597C13.1549 14.2554 13.1839 14.0421 13.0454 13.7726C12.9218 13.5321 12.7019 13.4492 12.1864 13.4492C11.943 13.4492 11.6282 13.4145 11.4869 13.372C11.1363 13.2667 10.6077 12.7429 10.5181 12.4122C10.2866 11.5576 10.7189 10.7267 11.5209 10.4849C11.756 10.414 11.7606 10.4067 11.7606 10.1083V9.80395H12.229H12.6973V10.1034ZM1.45721 11.2112C1.45733 11.3126 2.36303 12.1664 2.75356 12.4333C3.16575 12.7151 3.96048 13.135 4.08156 13.135C4.12234 13.135 4.14282 13.0997 4.12702 13.0564C4.11123 13.0133 3.96586 12.5761 3.80394 12.0852L3.50951 11.1924L2.4833 11.1738C1.91118 11.1635 1.45714 11.18 1.45721 11.2112Z" fill="#FFCF23"/>
</svg>
