<svg width="16" height="17" viewBox="0 0 16 17" fill="none" xmlns="http://www.w3.org/2000/svg">
<path fillRule="evenodd" clipRule="evenodd" d="M5.06271 0.896731L4.88034 1.07911V4.9259V8.77269L5.06271 8.95507L5.24509 9.13744H8H10.7549L10.9373 8.95507L11.1197 8.77269V4.9259V1.07911L10.9373 0.896731L10.7549 0.714355H8H5.24509L5.06271 0.896731ZM0.754896 2.76048C0.511937 2.88739 0.36993 3.0176 0.232976 3.2391L0.0448609 3.54339L0.0278899 7.4323L0.010919 11.3212H7.99863H15.9863V7.49114V3.66106L15.812 3.32738C15.6852 3.08455 15.5548 2.94236 15.3336 2.80547L15.0295 2.61735L13.5452 2.59863L12.0609 2.57991L12.0426 5.74949C12.0247 8.86235 12.0219 8.92356 11.8895 9.16864C11.7304 9.46282 11.4245 9.76381 11.1197 9.92597C10.9157 10.0345 10.7098 10.0421 8 10.0421C5.2902 10.0421 5.0843 10.0345 4.88034 9.92597C4.57548 9.76381 4.26957 9.46282 4.11053 9.16864C3.97807 8.92356 3.97532 8.86229 3.95735 5.75261L3.93907 2.58615H2.51382H1.08858L0.754896 2.76048ZM8.27191 2.72654C8.52442 2.95658 9.51821 4.71195 9.51709 4.9259C9.51572 5.18758 8.39969 7.07323 8.17027 7.20163C8.0176 7.28699 7.98241 7.28699 7.82973 7.20163C7.59894 7.07248 6.48384 5.18689 6.48397 4.9259C6.48403 4.80355 6.67327 4.41446 7.0301 3.80282C7.59089 2.84178 7.7946 2.58615 8 2.58615C8.06483 2.58615 8.18718 2.64936 8.27191 2.72654ZM0.023148 12.7155C0.0541575 13.3295 0.275404 13.7041 0.754896 13.9546L1.08858 14.1289H8H14.9114L15.2451 13.9546C15.7246 13.7041 15.9458 13.3295 15.9769 12.7155L16 12.2571H8H0L0.023148 12.7155ZM4.63794 15.6184C4.35268 16.2186 4.34257 16.422 4.5894 16.5949C4.78656 16.733 11.2134 16.733 11.4106 16.5949C11.6574 16.422 11.6473 16.2186 11.3621 15.6184L11.0989 15.0648H8H4.90105L4.63794 15.6184Z" fill="#FFCF23"/>
</svg>
