<svg width="14" height="17" viewBox="0 0 14 17" fill="none" xmlns="http://www.w3.org/2000/svg">
<path fillRule="evenodd" clipRule="evenodd" d="M1.56393 0.814451C1.15196 0.942906 0.655666 1.31425 0.408147 1.67927C-0.0252314 2.31822 -0.0117724 2.1052 0.00719533 8.01812L0.0242225 13.334L0.204134 13.7235C0.415721 14.1816 0.906253 14.6773 1.3519 14.8834C1.6336 15.0137 1.76205 15.0241 3.46971 15.0545L5.28761 15.0868L6.03029 15.9006C6.43876 16.3481 6.79433 16.7144 6.82037 16.7144C6.84647 16.7144 7.19941 16.3481 7.60474 15.9006L8.34167 15.0868L10.1613 15.0545C11.8706 15.0241 11.9989 15.0137 12.2807 14.8834C12.7263 14.6773 13.2169 14.1816 13.4285 13.7235L13.6084 13.334L13.6254 8.01812C13.6444 2.1052 13.6578 2.31822 13.2244 1.67927C12.9697 1.30354 12.4776 0.941591 12.0444 0.811196C11.6087 0.680049 1.98541 0.683054 1.56393 0.814451ZM4.44802 3.28107C4.8039 3.52521 4.96109 3.8091 4.98976 4.25963C5.00691 4.5295 4.98507 4.71398 4.92065 4.84318C4.83289 5.01903 4.8352 5.03994 4.95402 5.14535C5.16266 5.33046 5.33043 5.78112 5.32717 6.1477C5.32173 6.75473 4.96804 7.24814 4.39068 7.45416C4.23512 7.50968 3.83348 7.53892 3.20116 7.54073L2.24651 7.54349V5.31688V3.09027L3.23734 3.11023C4.16463 3.12895 4.24219 3.13984 4.44802 3.28107ZM7.0041 5.3212V7.54349H6.5346H6.0651V5.3212V3.0989H6.5346H7.0041V5.3212ZM9.63066 4.3822L10.4158 5.63419L10.4327 4.36655L10.4497 3.0989H10.9179H11.3861V5.29265V7.4864L10.9354 7.46799L10.4848 7.44959L9.71604 6.22933C9.29318 5.55814 8.92059 5.00018 8.88804 4.98929C8.85185 4.97727 8.83307 5.4705 8.83984 6.2565L8.85079 7.54343L8.39694 7.54349H7.94309V5.31844V3.0934L8.39431 3.1118L8.8456 3.1302L9.63066 4.3822ZM3.18551 4.3509V4.7265H3.52981C3.90547 4.7265 4.12451 4.58815 4.12451 4.3509C4.12451 4.11365 3.90547 3.9753 3.52981 3.9753H3.18551V4.3509ZM3.18551 6.10369V6.60449H3.68174C4.14329 6.60449 4.18711 6.59297 4.30774 6.43954C4.45203 6.25612 4.4735 5.99928 4.35725 5.84785C4.2201 5.66919 4.01421 5.6029 3.59654 5.6029H3.18551V6.10369ZM5.20435 8.4053C5.36786 8.47829 5.5017 8.56825 5.5017 8.60512C5.5017 8.64205 5.40117 8.82359 5.27835 9.00864L5.05499 9.34505L4.8558 9.24445C4.74575 9.18886 4.50217 9.14341 4.31143 9.14285C3.42283 9.14035 2.77955 10.0419 3.06119 10.8953C3.17393 11.2367 3.59679 11.6338 3.95455 11.7339C4.4755 11.8798 4.87545 11.7374 5.17305 11.3001C5.41081 10.9508 5.38057 10.9239 4.75051 10.9239H4.18711V10.4544V9.98488H5.26H6.33284L6.29985 10.5326C6.24245 11.4856 5.88813 12.1282 5.22864 12.4754C4.94469 12.625 4.83733 12.6448 4.31231 12.6451C3.79229 12.6453 3.67429 12.6241 3.37287 12.476C1.58014 11.5956 1.70684 9.04538 3.57789 8.35077C4.01308 8.1892 4.77761 8.21487 5.20435 8.4053ZM10.2672 8.44129C10.6534 8.62565 11.116 9.0775 11.312 9.46155C11.3809 9.59664 11.4681 9.8742 11.5059 10.0785C11.6839 11.0415 11.1709 12.0286 10.2597 12.476C9.95849 12.624 9.83993 12.6454 9.32029 12.6454C8.8066 12.6454 8.67701 12.6226 8.36902 12.4782C7.68931 12.1596 7.24673 11.5601 7.11246 10.7762C6.93655 9.749 7.61695 8.65451 8.6377 8.32279C9.07571 8.18038 9.83674 8.23578 10.2672 8.44129ZM9.00691 9.16376C8.34273 9.37935 8.00463 9.83088 8.0067 10.4993C8.00851 11.0811 8.42167 11.5886 9.02294 11.7476C9.58884 11.8973 10.1946 11.6082 10.4965 11.0441C10.7005 10.663 10.6724 10.111 10.4303 9.74525C10.1363 9.30098 9.44906 9.02022 9.00691 9.16376Z" fill="#FFCF23"/>
</svg>
