<svg width="16" height="17" viewBox="0 0 16 17" fill="none" xmlns="http://www.w3.org/2000/svg">
<path fillRule="evenodd" clipRule="evenodd" d="M0 2.43799V4.16162H1.0084H2.01681V2.43799V0.714355H1.0084H0V2.43799ZM3.02521 5.34246C3.02521 10.5725 3.01358 10.4405 3.55973 11.4189C4.44699 13.0082 6.08733 13.9393 8 13.9393C9.91267 13.9393 11.553 13.0082 12.4403 11.4189C12.9864 10.4405 12.9748 10.5725 12.9748 5.34246V0.714355H8H3.02521V5.34246ZM13.9832 2.43799V4.16162H14.9916H16V2.43799V0.714355H14.9916H13.9832V2.43799ZM11.4958 5.22714V6.7314H8H4.5042V5.22714V3.72288H8H11.4958V5.22714ZM5.44538 5.22714V5.79123H5.98319H6.52101V5.22714V4.66304H5.98319H5.44538V5.22714ZM7.46219 5.22714V5.79123H8H8.53782V5.22714V4.66304H8H7.46219V5.22714ZM9.47899 5.22714V5.79123H10.0168H10.5546V5.22714V4.66304H10.0168H9.47899V5.22714ZM0 6.95077V8.86243H1.0084H2.01681V6.95077V5.0391H1.0084H0V6.95077ZM13.9832 6.95077V8.86243H14.9916H16V6.95077V5.0391H14.9916H13.9832V6.95077ZM5.90198 9.44458C6.05755 9.59237 6.18487 9.74117 6.18487 9.7752C6.18487 9.80924 5.95778 10.0473 5.6802 10.3045L5.1756 10.7718L4.82434 10.4443L4.47308 10.1168L4.97432 9.64634C5.25008 9.38754 5.5079 9.17582 5.54736 9.17582C5.58682 9.17582 5.74635 9.29679 5.90198 9.44458ZM11.0257 9.64634L11.5269 10.1168L11.1757 10.4443L10.8244 10.7718L10.3198 10.3045C10.0422 10.0473 9.81513 9.80924 9.81513 9.7752C9.81513 9.69103 10.3631 9.17582 10.4526 9.17582C10.4921 9.17582 10.7499 9.38754 11.0257 9.64634ZM0 9.91974C0 10.2784 0.204034 11.1778 0.408874 11.7218C0.687529 12.462 1.08618 13.1677 1.56766 13.7732L1.96262 14.2698L2.69203 13.5918C3.09324 13.219 3.40161 12.8837 3.37721 12.8468C3.35287 12.8099 3.19973 12.602 3.03684 12.3846C2.6445 11.861 2.31334 11.1134 2.17654 10.4424C2.11529 10.1422 2.05533 9.86138 2.04316 9.81826C2.02669 9.75997 1.76229 9.73992 1.01049 9.73992H0V9.91974ZM13.9568 9.81826C13.9447 9.86138 13.8847 10.1422 13.8235 10.4424C13.6548 11.2697 13.3427 11.9037 12.6716 12.7821C12.5798 12.9022 12.6174 12.95 13.3057 13.5898L14.0374 14.2698L14.4323 13.7732C14.9138 13.1677 15.3125 12.462 15.5911 11.7218C15.796 11.1778 16 10.2784 16 9.91974V9.73992H14.9895C14.2377 9.73992 13.9733 9.75997 13.9568 9.81826ZM8.47059 10.9935V11.6829H8H7.52941V10.9935V10.304H8H8.47059V10.9935ZM3.39792 14.2499L2.67072 14.93L3.20666 15.3005C4.33654 16.0815 5.78783 16.6229 6.90945 16.6817L7.53311 16.7144L7.51449 15.7815L7.4958 14.8485L7.10676 14.8033C6.2755 14.7066 5.14225 14.2802 4.52276 13.831C4.38313 13.7298 4.23657 13.6296 4.19704 13.6084C4.15745 13.5872 3.79785 13.8759 3.39792 14.2499ZM11.5267 13.7943C10.827 14.2924 9.75516 14.703 8.89324 14.8033L8.5042 14.8485L8.48558 15.7728L8.46703 16.6971H8.92861C10.0183 16.6971 11.601 16.1247 12.7966 15.2982L13.3293 14.93L12.5985 14.2466C12.1966 13.8707 11.8641 13.5632 11.8596 13.5632C11.855 13.5632 11.7052 13.6672 11.5267 13.7943Z" fill="#FFCF23"/>
</svg>
