<svg width="17" height="17" viewBox="0 0 17 17" fill="none" xmlns="http://www.w3.org/2000/svg">
<path fillRule="evenodd" clipRule="evenodd" d="M1.3402 0.785817C0.820217 0.972977 0.417316 1.32918 0.141404 1.84553L0 2.11016V8.72279V15.3354L0.184151 15.6679C0.39331 16.0454 0.716609 16.3607 1.10973 16.5706L1.37894 16.7144H7.99157H14.6042L14.9398 16.5285C15.3678 16.2914 15.7247 15.8858 15.887 15.452C16.0121 15.1177 16.0145 14.9928 16.0145 8.72279C16.0145 2.45276 16.0121 2.32791 15.887 1.99358C15.7247 1.55978 15.3678 1.15418 14.9398 0.91713L14.6042 0.731224L8.08558 0.717686C2.86217 0.706905 1.52191 0.720443 1.3402 0.785817ZM4.54422 4.64866C4.54422 4.89868 4.57111 5.08741 4.60678 5.08741C4.64113 5.08741 4.80735 4.98819 4.97614 4.86697C5.58432 4.43003 6.53284 4.24187 7.62107 4.34228C8.3111 4.40597 8.34044 4.41386 8.90041 4.68507C9.14172 4.80203 9.4911 4.92626 9.67675 4.96118C10.4292 5.10277 11.8963 4.98775 12.4874 4.74073L12.6925 4.65505V5.05482V5.45452L12.1754 5.97639C10.8831 7.28061 10.2221 9.24672 10.1406 12.0291L10.1053 13.2357H7.53689H4.96856L5.01225 12.8753C5.11191 12.0536 5.5563 11.0899 6.29109 10.1017C6.72257 9.52151 8.04509 8.19296 8.69257 7.68934C8.95745 7.48325 9.1656 7.30612 9.15514 7.29565C9.14467 7.28512 8.99531 7.33207 8.82319 7.39989C8.42367 7.5574 7.63931 7.71993 7.27897 7.71993C7.12547 7.71993 6.8211 7.66301 6.60254 7.59338C6.38404 7.5238 6.0341 7.44966 5.82494 7.42872C5.16048 7.36203 4.67923 7.6837 4.56879 8.26837L4.53025 8.47207H3.91048H3.29064V6.34099V4.20991H3.91743H4.54422V4.64866Z" fill="#FFCF23"/>
</svg>
