<svg width="13" height="17" viewBox="0 0 13 17" fill="none" xmlns="http://www.w3.org/2000/svg">
<path fillRule="evenodd" clipRule="evenodd" d="M5.04441 0.802752C3.48875 1.14025 2.16575 2.1766 1.46175 3.60915C1.04195 4.46332 0.934909 4.97057 0.935035 6.10474C0.935223 7.57395 1.22093 9.16338 1.7086 10.4083C1.98332 11.1095 2.012 11.127 2.8813 11.127H3.59918L3.27963 10.7347C2.82078 10.1712 2.53878 9.56655 2.42189 8.89551C2.28616 8.11655 2.33481 7.45235 2.55517 7.07636C2.85111 6.57131 3.09626 6.46772 4.40959 6.29257C5.49824 6.14743 6.45568 5.71494 6.90938 5.16337C7.19672 4.81407 7.54476 4.64827 7.99075 4.64827C8.85973 4.64827 9.25894 5.12633 9.64735 6.63214C10.0882 8.34111 9.77071 9.88697 8.77259 10.8916L8.53868 11.127H9.29221C10.2019 11.127 10.2242 11.1138 10.5006 10.4083C11.191 8.6459 11.4909 5.92029 11.1364 4.62943C10.5975 2.66691 9.07111 1.20071 7.15485 0.804886C6.57464 0.685042 5.59153 0.684037 5.04441 0.802752ZM7.38236 5.97014C6.69185 6.65512 5.82456 7.01208 4.33162 7.22559C3.25082 7.38015 3.25892 7.37199 3.29395 8.27035C3.33444 9.30821 3.6285 9.91704 4.38799 10.536C5.48876 11.4329 7.261 11.2744 8.1836 10.1965C9.02477 9.21379 9.1519 7.93442 8.5793 6.21504C8.30175 5.38159 8.03136 5.32622 7.38236 5.97014ZM4.63007 12.0307C4.33124 12.4225 3.85481 12.6777 2.73245 13.0471C2.15288 13.2377 1.65467 13.4177 1.62529 13.447C1.55171 13.5202 1.68135 13.5527 2.62039 13.6961C4.82613 14.033 7.11963 14.0439 9.33773 13.728C10.2493 13.5982 10.6326 13.5135 10.5936 13.4504C10.576 13.4219 10.1451 13.2651 9.6358 13.1019C8.46648 12.727 8.09276 12.5391 7.7164 12.1367L7.4155 11.815L7.10745 11.9064C6.59498 12.0586 5.99689 12.0871 5.47683 11.9839C5.21787 11.9326 4.95947 11.8722 4.90253 11.8498C4.83052 11.8214 4.74784 11.8763 4.63007 12.0307ZM0.468588 14.4642C0.132407 15.0113 -0.110986 16.2215 0.0517995 16.5363L0.143833 16.7144H6.10462H12.0654L12.153 16.5417C12.3154 16.2219 12.0764 15.0107 11.7442 14.47C11.6753 14.3578 11.6 14.2661 11.5769 14.2662C11.5539 14.2664 11.1112 14.3496 10.5933 14.4512C8.98365 14.767 8.01178 14.8561 6.1674 14.8572C4.36539 14.8583 3.40758 14.7733 1.83566 14.4729C0.522766 14.222 0.616997 14.2226 0.468588 14.4642Z" fill="#FFCF23"/>
</svg>
