<svg width="16" height="17" viewBox="0 0 16 17" fill="none" xmlns="http://www.w3.org/2000/svg">
<path fillRule="evenodd" clipRule="evenodd" d="M11.2488 0.8051C10.6283 0.967328 10.0021 1.32886 9.52389 1.80091C8.55589 2.75659 8.18336 4.01265 8.46712 5.36436C8.76851 6.79972 9.92523 7.93725 11.3868 8.23552C11.9948 8.35961 12.3783 8.35961 12.9862 8.23552C13.7546 8.07873 14.3273 7.76959 14.8768 7.21501C15.6333 6.45151 16 5.56266 16 4.49227C16 2.76821 14.7916 1.23283 13.0955 0.801661C12.632 0.683819 11.7059 0.68557 11.2488 0.8051ZM2.82271 3.08373C2.27495 3.2272 1.63242 3.55566 1.23869 3.8935C0.84078 4.23489 0.400545 4.901 0.203809 5.45957C-0.0122452 6.07279 -0.0641331 7.03672 0.0848416 7.67119C0.479315 9.35148 1.85785 10.4803 3.62191 10.5677C4.70368 10.6212 5.6938 10.2453 6.44905 9.49439C7.23087 8.71701 7.58771 7.86361 7.58771 6.77096C7.58771 5.99702 7.4473 5.4647 7.0779 4.83848C6.57609 3.98783 5.61766 3.27509 4.67755 3.05347C4.13673 2.926 3.37741 2.93838 2.82271 3.08373ZM13.3053 3.10786C13.5039 3.28772 13.4672 3.5094 13.127 4.18576C12.8176 4.80066 12.6242 5.39156 12.6242 5.72133C12.6242 5.94982 12.4221 6.14581 12.1865 6.14581C11.9059 6.14581 11.7489 5.95288 11.7489 5.6078C11.7489 5.25734 11.8909 4.68969 12.0923 4.23402L12.2422 3.89525H11.8165C11.4804 3.89525 11.356 3.86793 11.226 3.76565C11.0378 3.61761 11.0091 3.37243 11.1556 3.16325C11.2813 2.98377 11.3899 2.96701 12.352 2.97877C13.0638 2.98746 13.1914 3.00471 13.3053 3.10786ZM4.11747 5.49783C4.2375 5.65037 4.24707 5.74427 4.24707 6.77096C4.24707 7.79766 4.2375 7.89156 4.11747 8.04409C3.95306 8.25321 3.6336 8.26934 3.45968 8.07735C3.36328 7.97095 3.33653 7.82804 3.31909 7.32717C3.29996 6.77665 3.28495 6.70845 3.18299 6.70845C3.0437 6.70845 2.80921 6.42525 2.80921 6.25702C2.80921 6.18988 2.98244 5.95457 3.19424 5.73402C3.51363 5.40143 3.61403 5.3331 3.78358 5.3331C3.92986 5.3331 4.02476 5.37987 4.11747 5.49783ZM9.13147 9.17619C7.01338 9.65806 5.71162 11.7709 6.24582 13.8597C6.49125 14.8193 6.99838 15.5555 7.76907 16.071C8.46049 16.5334 8.98112 16.6797 9.93599 16.6797C10.5954 16.6797 10.7901 16.6559 11.1832 16.5271C11.7421 16.3442 12.4629 15.8769 12.8092 15.4733C13.377 14.8113 13.7503 13.7902 13.7485 12.9031C13.7453 11.2591 12.6393 9.76184 11.0613 9.26552C10.5284 9.09792 9.65348 9.05741 9.13147 9.17619ZM10.4049 11.4531C10.8692 11.6681 11.1238 12.0493 11.1238 12.5296C11.1238 12.8538 11.0004 13.0829 10.6765 13.3601L10.4136 13.5852H10.604C11.0726 13.5852 11.3074 14.1194 10.9591 14.3933C10.8106 14.5101 10.7097 14.5229 9.93599 14.5229C9.16229 14.5229 9.06139 14.5101 8.91292 14.3933C8.78539 14.293 8.74819 14.2088 8.74819 14.0204C8.74819 13.6976 8.98475 13.4315 9.6983 12.9517C10.0009 12.7482 10.2486 12.5665 10.2486 12.5479C10.2486 12.3964 10.0956 12.2723 9.90873 12.2723C9.73487 12.2723 9.67605 12.31 9.5704 12.4891C9.40535 12.7688 9.17205 12.8338 8.94593 12.6631C8.80852 12.5593 8.78001 12.4892 8.78257 12.2613C8.78658 11.9077 8.94136 11.6935 9.33871 11.4917C9.70731 11.3045 10.0565 11.2918 10.4049 11.4531Z" fill="#FFCF23"/>
</svg>
