<svg width="16" height="17" viewBox="0 0 16 17" fill="none" xmlns="http://www.w3.org/2000/svg">
<path fillRule="evenodd" clipRule="evenodd" d="M8.12371 0.851795C7.73196 1.00705 7.22666 1.44615 7.05224 1.78288C6.95529 1.96995 5.36985 6.31861 5.36985 6.39731C5.36985 6.41446 5.88382 6.42847 6.51199 6.42847C7.14016 6.42847 7.82483 6.46464 8.03356 6.50881C9.14083 6.74334 10.0005 7.60109 10.2311 8.70144C10.2747 8.9098 10.3105 9.57456 10.3105 10.1788V11.2773L11.0086 11.5102C12.1673 11.8966 12.9805 11.7737 13.6211 11.1153C13.9652 10.7617 13.9744 10.74 15.0584 7.76506C15.9753 5.24878 16.0011 5.16186 16 4.60575C15.9989 4.12719 15.9677 3.97451 15.8085 3.67008C15.6127 3.29553 15.2579 2.93563 14.9048 2.75336C14.7942 2.69625 13.5299 2.22584 12.0953 1.70797C9.15887 0.648079 8.82148 0.575313 8.12371 0.851795ZM9.84812 3.23213C9.98675 3.35121 10.0483 3.48552 10.0758 3.72905C10.1098 4.0302 10.0922 4.08409 9.89531 4.28066C9.50307 4.67222 8.83028 4.53813 8.66402 4.03527C8.5597 3.71962 8.63345 3.46437 8.89172 3.24743C9.17183 3.01212 9.58419 3.00554 9.84812 3.23213ZM10.8729 5.6011C11.2409 5.79109 11.3557 6.33548 11.097 6.66385C10.748 7.10667 10.0513 7.03933 9.8434 6.54269C9.5625 5.87165 10.2244 5.26629 10.8729 5.6011ZM1.5514 7.24419C0.886354 7.42546 0.255889 8.04791 0.0735875 8.70316C0.029122 8.86277 0.000265942 10.147 5.11328e-05 11.9733C-0.000450089 15.4855 -0.0078968 15.4377 0.639466 16.0846C1.29492 16.7397 1.23399 16.7308 4.9136 16.7065C8.01723 16.686 8.05862 16.6838 8.35727 16.5245C8.83143 16.2715 9.14226 15.9596 9.35886 15.5194L9.55863 15.1132V12.0039C9.55863 9.11037 9.54911 8.86985 9.42137 8.53911C9.241 8.07221 8.75009 7.55742 8.2851 7.34755C7.91376 7.17993 7.89551 7.17893 4.90443 7.16449C2.60039 7.15334 1.81626 7.172 1.5514 7.24419ZM11.98 8.00938C12.4132 8.23054 12.5199 8.76156 12.206 9.13396C11.9791 9.40316 11.6918 9.47106 11.3619 9.33346C11.0681 9.21095 10.9406 9.01009 10.9406 8.66978C10.9406 8.11667 11.4973 7.76299 11.98 8.00938ZM3.22319 9.39558C3.48955 9.5331 3.57977 9.70437 3.57977 10.0725C3.57977 10.7377 2.78369 11.024 2.32063 10.5252C2.01203 10.1928 2.12358 9.60251 2.53315 9.4008C2.81577 9.26163 2.96155 9.26055 3.22319 9.39558ZM7.22766 9.53725C7.49331 9.80237 7.48594 10.2813 7.21198 10.5548C7.0531 10.7134 6.94834 10.753 6.68699 10.753C6.4063 10.753 6.33012 10.719 6.14352 10.5105C5.95786 10.3031 5.93201 10.2275 5.96437 9.98678C6.05201 9.33432 6.7689 9.07921 7.22766 9.53725ZM5.1617 11.3282C5.71018 11.6114 5.59619 12.4429 4.98105 12.6455C4.23244 12.8921 3.70322 11.9051 4.31056 11.3949C4.55365 11.1907 4.85023 11.1675 5.1617 11.3282ZM3.38738 13.348C3.83203 13.8114 3.50581 14.5771 2.86374 14.5771C2.63046 14.5771 2.52119 14.532 2.35701 14.3682C1.88865 13.9006 2.21165 13.1475 2.88064 13.1475C3.13154 13.1475 3.23379 13.188 3.38738 13.348ZM7.09226 13.2212C7.24556 13.303 7.44634 13.6483 7.44634 13.8301C7.44634 14.0479 7.22616 14.4136 7.04572 14.4957C6.53197 14.7294 5.94268 14.391 5.94268 13.8623C5.94268 13.6615 6.12755 13.315 6.28279 13.2247C6.4464 13.1296 6.91705 13.1275 7.09226 13.2212Z" fill="#FFCF23"/>
</svg>
