<svg width="16" height="15" viewBox="0 0 16 15" fill="none" xmlns="http://www.w3.org/2000/svg">
<path fillRule="evenodd" clipRule="evenodd" d="M9.41491 0.811442C8.69963 1.03493 7.9982 1.6591 7.66815 2.36568C7.50062 2.72426 7.47981 2.85831 7.45754 3.72066L7.43283 4.67766L5.33411 4.67871C3.04907 4.67982 2.70211 4.72074 1.95996 5.07675C1.44137 5.3255 0.639091 6.12047 0.395978 6.62647C0.0376764 7.37202 -0.00109099 7.67861 2.26114e-05 9.75569C0.00113621 11.8205 0.0514571 12.2399 0.374332 12.8744C1.10096 14.3022 2.95107 15.1635 4.60519 14.8439C5.97346 14.5796 7.21686 13.4471 7.59083 12.1249C7.70664 11.7152 7.7722 11.6377 8.003 11.6377C8.23351 11.6377 8.29887 11.7147 8.41628 12.1249C8.74995 13.29 9.73124 14.3068 10.913 14.7119C11.5877 14.9433 12.7053 14.9411 13.4198 14.707C14.7069 14.2854 15.6192 13.3231 15.9066 12.084C15.9987 11.6867 16.0131 11.2549 15.9907 9.55072C15.9657 7.64513 15.9527 7.46668 15.8111 7.0845C15.3793 5.91947 14.4169 5.06784 13.2108 4.78352C12.8719 4.70362 12.284 4.67947 10.6566 4.67871L8.54261 4.67766L8.57351 3.85986C8.59829 3.20402 8.63364 2.98561 8.75203 2.75704C9.08166 2.12055 9.68913 1.82405 10.6636 1.82405C11.1519 1.82405 11.2294 1.80561 11.3817 1.65319C11.4895 1.54551 11.5526 1.40283 11.5526 1.26725C11.5526 1.13167 11.4895 0.988992 11.3817 0.88132C11.2208 0.720335 11.1676 0.71073 10.4595 0.715115C10.0463 0.71769 9.57624 0.760981 9.41491 0.811442ZM4.33159 7.61152C4.414 7.70889 4.45339 7.87419 4.45339 8.12224V8.48897L4.88136 8.51987C5.36292 8.55474 5.56699 8.71621 5.56699 9.06247C5.56699 9.40873 5.36292 9.5702 4.88136 9.60507L4.45339 9.63598V10.0027C4.45339 10.477 4.29491 10.6911 3.94385 10.6911C3.55527 10.6911 3.40939 10.5119 3.40939 10.0344V9.63598L2.99436 9.60598C2.47974 9.56874 2.29578 9.42564 2.29578 9.06247C2.29578 8.6993 2.47974 8.5562 2.99436 8.51896L3.40939 8.48897V8.09051C3.40939 7.6903 3.48838 7.54261 3.75739 7.44002C3.92707 7.37522 4.20088 7.45707 4.33159 7.61152ZM13.2822 7.77675C13.5467 7.99933 13.6105 8.27641 13.4731 8.60534C13.3484 8.90371 12.9775 9.09602 12.6608 9.02649C12.3874 8.96642 12.1088 8.61995 12.1118 8.34371C12.119 7.70694 12.8045 7.37481 13.2822 7.77675ZM11.5004 9.34178C12.092 9.99108 11.1918 10.9143 10.519 10.3482C10.2546 10.1257 10.1907 9.84854 10.3281 9.51981C10.5298 9.03693 11.1385 8.94457 11.5004 9.34178Z" fill="#FFCF23"/>
</svg>
