<svg width="16" height="17" viewBox="0 0 16 17" fill="none" xmlns="http://www.w3.org/2000/svg">
<path fillRule="evenodd" clipRule="evenodd" d="M1.33125 0.714355H14.6687C15.575 0.714355 16 1.14561 16 2.05811V15.3644C16 16.2894 15.5687 16.7144 14.6375 16.7144H1.33125C0.43125 16.7144 0 16.2831 0 15.3769V8.72061V2.03311C0 1.15186 0.44375 0.714355 1.33125 0.714355ZM11.9625 2.63936C11.8187 3.01436 11.6062 3.21436 11.1875 3.23311C10.9125 3.24561 10.8062 3.57686 11.025 3.75186C11.3562 4.02061 11.4563 4.32061 11.3125 4.70811V4.73311C11.3 4.98936 11.525 5.14561 11.7625 5.04561C11.85 5.00811 11.9375 4.96436 12.0125 4.90811C12.175 4.78311 12.325 4.80186 12.4875 4.91436C12.5572 4.96355 12.6376 4.9993 12.7077 5.03043C12.7444 5.04675 12.7783 5.0618 12.8062 5.07686C13.0625 5.08311 13.225 4.90186 13.1562 4.66436C13.05 4.28936 13.1438 4.02686 13.4375 3.77061C13.675 3.56436 13.5625 3.23936 13.25 3.22061C12.85 3.19561 12.6375 3.02061 12.5375 2.65811C12.5344 2.65498 12.5328 2.65186 12.5312 2.64873C12.5297 2.64561 12.5281 2.64248 12.525 2.63936C12.375 2.38936 12.0625 2.37061 11.9625 2.63936ZM7.73125 2.63936C7.5875 3.01436 7.375 3.21436 6.95625 3.23311C6.68125 3.24561 6.575 3.57686 6.79375 3.75186C7.125 4.02061 7.225 4.32061 7.08125 4.70811V4.73311C7.06875 4.98936 7.29375 5.14561 7.53125 5.04561C7.61875 5.00811 7.70625 4.96436 7.78125 4.90811C7.94375 4.78311 8.09375 4.80186 8.25625 4.91436C8.32594 4.96355 8.4064 4.9993 8.47644 5.03043C8.51317 5.04675 8.54705 5.0618 8.575 5.07686C8.83125 5.08311 8.99375 4.90186 8.925 4.66436C8.81875 4.28936 8.9125 4.02686 9.20625 3.77061C9.44375 3.56436 9.33125 3.23936 9.01875 3.22061C8.61875 3.19561 8.40625 3.02061 8.30625 2.65811C8.30312 2.65498 8.30156 2.65186 8.3 2.64873C8.29844 2.64561 8.29688 2.64248 8.29375 2.63936C8.14375 2.38936 7.83125 2.37061 7.73125 2.63936ZM3.49375 2.63936C3.35 3.01436 3.1375 3.21436 2.71875 3.23311C2.45 3.24561 2.34375 3.57686 2.55625 3.75186C2.8875 4.02061 2.9875 4.32061 2.84375 4.70811V4.73311C2.83125 4.98936 3.05625 5.14561 3.29375 5.04561C3.38125 5.00811 3.46875 4.96436 3.54375 4.90811C3.70625 4.78311 3.85625 4.80186 4.01875 4.91436C4.08844 4.96355 4.1689 4.9993 4.23894 5.03043C4.27567 5.04675 4.30955 5.0618 4.3375 5.07686C4.59375 5.08311 4.75625 4.90186 4.6875 4.66436C4.58125 4.28936 4.675 4.02686 4.96875 3.77061C5.20625 3.56436 5.09375 3.23936 4.78125 3.22061C4.38125 3.19561 4.16875 3.02061 4.06875 2.65811C4.06563 2.65498 4.06406 2.65186 4.0625 2.64873C4.06094 2.64561 4.05937 2.64248 4.05625 2.63936C3.90625 2.38936 3.59375 2.37061 3.49375 2.63936ZM12.8813 13.5269C13.65 13.4894 13.9937 13.1894 14 12.5331C14.0063 11.4894 14.0063 10.4519 14.0063 9.40811C14 8.92686 13.725 8.54561 13.3188 8.46436C13.2248 8.44301 13.128 8.44791 13.0242 8.45316C12.9761 8.4556 12.9265 8.45811 12.875 8.45811C12.8938 7.85811 12.7688 7.34561 12.1938 7.20186C11.7063 7.08311 11.3812 7.36436 11.1812 7.82686H10.5562C10.2312 7.17061 9.86875 7.03936 9.25625 7.32061C9.1875 7.35186 9.08125 7.33311 9.0125 7.29561C8.63125 7.08936 8.29375 7.13936 7.975 7.45186C7.925 7.50811 7.8375 7.56436 7.775 7.55811C7.62974 7.5493 7.48758 7.525 7.34415 7.50047C7.28393 7.49018 7.22349 7.47985 7.1625 7.47061C7.1125 7.01436 6.91875 6.66436 6.48125 6.56436C6.05625 6.46436 5.73125 6.65811 5.51875 7.08311C5.49375 7.13936 5.40625 7.19561 5.35625 7.18936C4.84375 7.09561 4.51875 7.36436 4.30625 7.84561C3.7625 7.71436 3.39375 7.93311 3.175 8.46436C2.35625 8.37061 2.00625 8.73311 2.00625 9.63936C2.00625 9.91051 2.00862 10.1817 2.01098 10.4528C2.01631 11.0629 2.02163 11.673 2 12.2831C1.9625 13.2956 2.51875 13.6081 3.175 13.4956C3.39375 14.0519 3.79375 14.2331 4.3 14.1206C4.5875 14.6519 4.80625 14.8144 5.23125 14.7706C5.40625 14.7519 5.48125 14.8019 5.56875 14.9644C5.75625 15.3206 6.05 15.4644 6.41875 15.4081C6.775 15.3519 7.0375 15.0769 7.125 14.6769C7.13416 14.6402 7.14183 14.6036 7.14874 14.5705C7.15597 14.536 7.16236 14.5055 7.16875 14.4831C7.22325 14.4765 7.27514 14.4699 7.32521 14.4635C7.46462 14.4458 7.59 14.4298 7.71875 14.4206C7.7875 14.4144 7.8875 14.4206 7.93125 14.4706C8.31875 14.8894 8.725 14.8706 9.15 14.5769C9.75 14.9331 10.1187 14.8394 10.4937 14.2581C10.5312 14.2019 10.6125 14.1519 10.6812 14.1456C10.7979 14.1321 10.9178 14.1348 11.034 14.1374C11.0796 14.1384 11.1247 14.1394 11.1687 14.1394C11.4563 14.6894 11.7812 14.8831 12.2063 14.7706C12.6438 14.6581 12.8313 14.3206 12.8813 13.5269ZM8.39844 10.4802C8.59427 10.4788 8.7901 10.4774 8.98594 10.4815C9.26719 10.4878 9.47969 10.6878 9.49219 10.9628C9.49844 11.4628 9.49844 11.9628 9.49219 12.4628C9.49219 12.7378 9.28594 12.9378 9.01094 12.9503C8.90414 12.9544 8.80004 12.9531 8.68977 12.9517C8.63226 12.951 8.57307 12.9503 8.51094 12.9503V13.4378H7.51719V12.9628H6.53594V11.9753H8.49219V11.4753H8.32969H7.06094C6.72344 11.469 6.52344 11.269 6.52344 10.9315V9.53779C6.52344 9.20029 6.72344 9.00029 7.06094 9.00029H7.50469V8.51904H8.49219V8.99404H9.47969V9.98154H7.51719V10.4815H8.10469C8.2026 10.4815 8.30052 10.4808 8.39844 10.4802Z" fill="#FFCF23"/>
</svg>
