<svg width="16" height="17" viewBox="0 0 16 17" fill="none" xmlns="http://www.w3.org/2000/svg">
<path fillRule="evenodd" clipRule="evenodd" d="M12.2339 0.727314C11.1667 0.883696 10.0738 1.21905 9.18716 1.66235C7.55745 2.47705 6.47535 3.48843 4.95008 5.62252C4.57186 6.15174 4.44302 6.38234 4.44302 6.53015C4.44302 6.70793 4.72768 7.01287 7.21233 9.49708C9.69366 11.978 10.0022 12.2659 10.1793 12.2659C10.5379 12.2659 12.5344 10.7516 13.4639 9.77461C14.6464 8.53163 15.4529 6.99748 15.8425 5.24974C16.1156 4.02466 16.0158 1.47268 15.6795 1.08169C15.4805 0.850342 14.8802 0.749154 13.5481 0.722433C12.9286 0.70998 12.3372 0.71217 12.2339 0.727314ZM11.6707 4.00845C12.0677 4.19825 12.5066 4.63535 12.7048 5.03817C12.8386 5.31007 12.8588 5.43716 12.8592 6.00812C12.8597 6.59873 12.8429 6.69698 12.6939 6.97933C12.4889 7.36743 11.9829 7.84947 11.5905 8.03038C11.3569 8.13802 11.1776 8.16649 10.7321 8.16674C10.2455 8.16699 10.1168 8.14296 9.78609 7.99015C9.32871 7.77876 8.95781 7.416 8.71945 6.94679C8.56489 6.6426 8.54442 6.53359 8.54323 6.00812C8.54161 5.29492 8.65644 4.99236 9.11476 4.50238C9.61757 3.96483 10.0002 3.81402 10.7947 3.84024C11.2329 3.8547 11.4273 3.89199 11.6707 4.00845ZM3.40598 4.25832C2.88195 4.42447 2.67395 4.57753 1.38466 5.74523C0.145806 6.86725 0 7.06525 0 7.62563C0 8.00347 0.0978715 8.27074 0.34255 8.56092C0.588606 8.85272 0.924648 9.00384 1.43247 9.05103C2.12282 9.11523 2.16287 9.08425 2.72451 8.05266C3.24372 7.09904 3.93195 5.99048 4.43958 5.29017C4.80903 4.7806 4.84933 4.53141 4.60228 4.28442C4.47662 4.1587 4.38851 4.13142 4.1173 4.13429C3.93507 4.13623 3.61493 4.19205 3.40598 4.25832ZM3.55235 7.93239C3.49928 7.99265 3.36499 8.22337 3.25404 8.44515C2.99641 8.96004 2.94591 9.42918 3.0981 9.89495C3.19841 10.202 3.34847 10.3733 4.7785 11.8135C6.5465 13.594 6.65702 13.6739 7.35288 13.6739C7.71884 13.6739 7.86289 13.6398 8.22797 13.4669C8.79586 13.198 8.88603 13.1114 8.88603 12.8347C8.88603 12.6217 8.75575 12.4792 6.49212 10.2162C4.23119 7.95579 4.08576 7.82288 3.87356 7.82288C3.73808 7.82288 3.61061 7.86637 3.55235 7.93239ZM1.53315 11.3173C1.4299 11.3805 1.18353 11.6073 0.985599 11.8213C0.55763 12.2842 0.520521 12.4832 0.808692 12.7713C1.11495 13.0776 1.26219 13.0295 1.86613 12.4255C2.36369 11.928 2.39253 11.8845 2.35517 11.6902C2.30912 11.4503 2.05618 11.2019 1.85818 11.2023C1.78265 11.2024 1.63641 11.2542 1.53315 11.3173ZM11.4486 12.2469C10.7642 12.7453 9.58509 13.4783 8.65756 13.982C7.62528 14.5426 7.59349 14.5837 7.65788 15.2764C7.70507 15.7843 7.85619 16.1203 8.14799 16.3664C8.43817 16.611 8.70544 16.7089 9.08328 16.7089C9.6431 16.7089 9.8421 16.5627 10.9565 15.332C12.1199 14.0471 12.2834 13.8227 12.454 13.2762C12.6304 12.7111 12.62 12.3021 12.4245 12.1066C12.1814 11.8635 11.9244 11.9004 11.4486 12.2469ZM2.33308 13.6016C1.16401 14.7741 1.06382 14.892 1.06382 15.0949C1.06382 15.3689 1.3147 15.6451 1.56357 15.6451C1.81557 15.6451 2.10924 15.3993 3.30097 14.1907C4.30453 13.1731 4.38044 13.0798 4.38044 12.8659C4.38044 12.5499 4.15679 12.3285 3.83777 12.3285C3.61486 12.3285 3.5347 12.3962 2.33308 13.6016ZM4.2795 14.8558C3.86136 15.2739 3.81724 15.3416 3.81724 15.5646C3.81724 15.8893 4.01436 16.0831 4.34458 16.0831C4.55666 16.0831 4.63219 16.0333 5.04458 15.6209C5.45071 15.2147 5.50684 15.1308 5.50684 14.9296C5.50684 14.7701 5.46034 14.6542 5.35321 14.5472C5.24614 14.44 5.13031 14.3935 4.97074 14.3935C4.76955 14.3935 4.68569 14.4497 4.2795 14.8558Z" fill="#FFCF23"/>
</svg>
